<svg viewBox="0 0 46 34" fill="none" xmlns="http://www.w3.org/2000/svg"><path fill-rule="evenodd" clip-rule="evenodd" d="M18.266 7.387c0 2.412-1.966 4.386-4.412 4.386-2.447 0-4.413-1.974-4.413-4.386C9.441 4.974 11.407 3 13.854 3c2.446 0 4.412 1.974 4.412 4.387Zm3 0c0 4.08-3.319 7.386-7.412 7.386-4.094 0-7.413-3.307-7.413-7.386C6.441 3.307 9.76 0 13.854 0c4.093 0 7.412 3.307 7.412 7.387ZM3 25.713a5.5 5.5 0 0 1 5.5-5.5h6.836a1.5 1.5 0 1 0 0-3H8.5a8.5 8.5 0 0 0-8.5 8.5V32.5a1.5 1.5 0 0 0 3 0v-6.788Zm28.149-13.94c2.446 0 4.412-1.974 4.412-4.386C35.56 4.974 33.595 3 31.149 3c-2.447 0-4.413 1.974-4.413 4.387 0 2.412 1.966 4.386 4.413 4.386Zm0 3c4.093 0 7.412-3.307 7.412-7.386C38.56 3.307 35.242 0 31.149 0c-4.094 0-7.413 3.307-7.413 7.387s3.319 7.386 7.413 7.386Zm-5.354 2.44a8.5 8.5 0 0 0-8.5 8.5V32.5a1.5 1.5 0 1 0 3 0v-6.788a5.5 5.5 0 0 1 5.5-5.5h10.707a5.5 5.5 0 0 1 5.5 5.5V32.5a1.5 1.5 0 1 0 3 0v-6.788a8.5 8.5 0 0 0-8.5-8.5H25.795Z" fill="#484848"/></svg>