<svg width="32" height="31" fill="none" xmlns="http://www.w3.org/2000/svg"><path d="M16 23.428c2.653 0 4.805-2.182 4.805-4.873 0-2.691-2.152-4.873-4.806-4.873s-4.806 2.182-4.806 4.873c0 2.69 2.152 4.873 4.806 4.873ZM16 7.591c1.659 0 3.003-1.364 3.003-3.046C19.003 2.864 17.66 1.5 16 1.5c-1.66 0-3.004 1.364-3.004 3.045 0 1.682 1.345 3.046 3.004 3.046ZM16 13.682V7.59M26.513 29.112c1.402.813 3.304.305 4.105-1.116.8-1.422.3-3.35-1.101-4.162-1.402-.813-3.305-.305-4.105 1.116-.801 1.421-.3 3.35 1.1 4.162ZM5.487 29.112c-1.401.813-3.304.305-4.105-1.116-.8-1.422-.3-3.35 1.102-4.162 1.401-.813 3.304-.305 4.105 1.116.8 1.421.3 3.35-1.102 4.162ZM11.995 21.194 6.488 24.85M25.512 24.849l-5.506-3.655" stroke="#000" stroke-width=".8" stroke-miterlimit="10" stroke-linecap="round" stroke-linejoin="round"/></svg>