<svg xmlns="http://www.w3.org/2000/svg" viewBox="0 0 101 60"><path d="M100.943 1.12c.403-.888.21 1.272.05 1.847-.16.574-1.741 1.612-3.572 2.967-1.83 1.356-8.569 5.651-10.014 6.355-1.445.704-5.16 5.991-6.276 8.494-1.116 2.503-.818 2.67-.653 5.177.165 2.507-.539 8.44-3.33 15.231-2.79 6.791-7.887 12.82-16.115 15.387-8.227 2.567-16.414 1.57-17.418 1.2-1.005-.371-.932-.453.653-1.028 1.586-.575 4.522-2.468 9.843-5.658 5.322-3.19 7.781-10.399 8.697-12.908.916-2.51 1.443-6.698 4.532-10.56 3.089-3.86 8.722-5.17 10.251-5.612 1.529-.442 2.11-.79 5.897-6.529 1.158-1.755.463-1.329.463-1.329a72.906 72.906 0 0 1-8.12 3.134c-4.987 1.625-10.867 6.452-14.222 9.178C58.253 29.192 56.867 35 51.24 39.688c-5.627 4.688-14.674 6.704-22.466 7.092-7.792.389-18.121-2.066-19.072-2.58-.951-.515.774-.647 2.553-.936 1.779-.288 7.019-2.347 12.774-4.806 5.754-2.459 8.235-6.063 13.306-9.578a20.61 20.61 0 0 1 15.953-3.168c5.092 1.016 7.613-1.257 10.017-3.266 2.403-2.01 8.825-5.443 9.443-5.82.618-.375-.497-.477-1.724-.776a45.067 45.067 0 0 0-6.155-1.252c-2.759-.322-2.628 2.079-8.96 4.262-6.334 2.183-18.37 2.673-30.798 3.643-12.429.97-20.813-3.108-22.96-4.27-2.145-1.163-2.527-.982 5.251-.497 7.779.485 18.938-4.137 20.934-4.961 1.997-.825 7.619-4.463 14.954-6.74 7.336-2.277 13.223 1.975 15.797 3.872 2.575 1.898 4.853 3.48 11.02 4.613 6.165 1.133 7.64-.398 14.386-2.83 6.746-2.433 15.385-10.431 15.449-10.571"/></svg>
