<svg xmlns="http://www.w3.org/2000/svg" viewBox="0 0 40 40"><path d="M28.209 35.072c0 .023.429 2.868 1.895 3.347a.653.653 0 00.2.031 2.509 2.509 0 001.788-1.091 4.347 4.347 0 00.874-1.712 1.529 1.529 0 00-.665-1.59 3.556 3.556 0 00-3.476-.155 1.166 1.166 0 00-.616 1.17zm1.529-.21a2.726 2.726 0 011.684.133.885.885 0 01.2.132l.187.135-.095.2a3.468 3.468 0 01-1.053 1.565l-.231.146-.238-.219a5.277 5.277 0 01-.693-1.724l-.063-.3zm8.523-18.813a21.334 21.334 0 01-2.249-2.868A33.387 33.387 0 0134.45 9.5a26.042 26.042 0 00-2.386-5.233 9.448 9.448 0 01-.818-1.686 11.776 11.776 0 00-.588-1.282.625.625 0 00-.534-.3c-1.4 0-1.669 1.689-1.892 4.076-.268 2.852-.54 3.092-.67 3.208l-.125.111-.163-.042a6.906 6.906 0 01-2.283-1.048 8.419 8.419 0 01-1.935-1.518l-.171-.18.133-.209a4.784 4.784 0 01.638-.8c.548-.6.955-1.12.717-1.707-.249-.612-1.04-.746-1.781-.8a10.697 10.697 0 01-.507-.1c-2.517-.522-3.538-.625-4.066-.414a5.243 5.243 0 00-2.394 2.974 3.519 3.519 0 01-.219.689l-.149.337-.311-.2a2.868 2.868 0 01-.369-.279 2.06 2.06 0 00-1.341-.607c-.7 0-2.682 1.794-2.9 2.168a44.5 44.5 0 01-2.919 3.978 7.645 7.645 0 01-2.639 1.669l-.466.175c-1.428.527-3.365 1.243-4.014 2.5-.943 1.82.662 5.754.922 6.133.582.846 2.288 4.018 2.221 4.939a3.475 3.475 0 01-.24 1.014 1.482 1.482 0 00-.051 1.2c.383.833 1.57.865 2.208.882.142 0 .237.007.315.014 1.261.114 3.846-1.345 6.389-2.839.576-.34 1.029-.6 1.192-.676a12.513 12.513 0 014.181-.994c1.61 0 5.782 1.44 6.031 2.7a8.636 8.636 0 002.755 4.14 8.578 8.578 0 004.142 1.245 3.277 3.277 0 00.52-.028c1.478-.168 3.71-.42 4.7-2.713a11.341 11.341 0 012-3.482 6.631 6.631 0 00.577-.743 8.683 8.683 0 001.764-4.5c.161-1.731.181-2.888-.91-4.351h-.005c-.17-.217-.424-.51-.748-.872zm.4 5.112a7.457 7.457 0 01-1.562 3.932 5.87 5.87 0 01-.483.615 12.519 12.519 0 00-2.2 3.8c-.646 1.5-2.114 1.787-3.689 1.966h-.2a6.9 6.9 0 01-3.653-1.035 7.681 7.681 0 01-2.192-3.328c-.468-2.354-5.849-3.7-7.242-3.7a13.9 13.9 0 00-4.701 1.1c-.223.1-.634.339-1.314.737-4.206 2.47-5.236 2.708-5.651 2.672a7.49 7.49 0 00-.338-.016 6.7 6.7 0 01-.774-.05l-.4-.049.144-.378a4.486 4.486 0 00.284-1.271c.109-1.476-1.918-4.944-2.426-5.723l.187-.131-.2.118c-.3-.5-1.409-3.768-.848-4.853.378-.727 1.827-1.342 3.337-1.9l.081-.029c.145-.053.28-.1.4-.151a8.817 8.817 0 003.053-1.927 43.6 43.6 0 003.123-4.233l.042-.052a11.722 11.722 0 011.716-1.412l.181-.123.178.125c.073.052.166.128.248.2a1.951 1.951 0 002.118.519.719.719 0 00.072-.032c.505-.272.814-1.288.906-1.787a4.459 4.459 0 011.571-1.987l.1-.034a14.934 14.934 0 013.277.476c.381.078.525.109.627.12l.612.069-.412.457c-.56.622-1.091 1.295-.895 2.072.2.812 1.738 1.944 2.99 2.668 1.4.812 2.423 1.137 3.037.963 1.339-.378 1.521-2.32 1.713-4.376.033-.363.095-1.04.186-1.631l.183-1.2.425 1.133a6.974 6.974 0 00.834 1.577 28.075 28.075 0 012.175 4.873 31.855 31.855 0 001.66 3.884 22.042 22.042 0 002.349 3.013c.292.33.564.638.7.829.813 1.08.83 1.853.675 3.489z"/><path d="M26.901 11.807l-.084-.647a.593.593 0 00-.326-.508.655.655 0 00-.667.054 10.775 10.775 0 01-3.925 1.858c-.2.052-.4.1-.6.154-1.644.411-3.343.837-4.477 2.285a6.5 6.5 0 00-1.179 5.139c.152 1.687 3.28 1.741 3.66 1.741h.206a7.632 7.632 0 006.894-4.186c.99-2.134.762-3.875.498-5.89zm-3.385 4.185a.646.646 0 00-.333-.56.585.585 0 00-.61.031l-5.78 3.579a5.143 5.143 0 01.936-3.281c.839-1.04 2.67-1.571 4.287-2.038l.168-.049a13.806 13.806 0 003.546-1.4 8.047 8.047 0 01-.456 4.9 6.336 6.336 0 01-5.8 3.521h-.133a4.894 4.894 0 01-2.206-.454l6.07-3.739a.564.564 0 00.311-.51z"/></svg>
