<svg width="21" height="20" viewBox="0 0 21 20" fill="none" xmlns="http://www.w3.org/2000/svg">
<g id="google-connect 1" clip-path="url(#clip0_1846_7136)">
<path id="Vector" d="M4.88802 11.8038L4.19902 14.3318L1.68302 14.3848C0.903995 12.9734 0.496891 11.3869 0.500018 9.7748C0.500018 8.1578 0.898018 6.6368 1.60602 5.2998L3.84802 5.7028L4.83002 7.8928C4.38822 9.16263 4.40876 10.5476 4.88802 11.8038Z" fill="#FBBB00"/>
<path id="Vector_2" d="M20.3244 7.9502C20.5747 9.23058 20.5601 10.5487 20.2814 11.8232C19.7904 14.0403 18.5421 16.0169 16.7514 17.4132L13.8924 17.2712L13.4894 14.8052C14.663 14.1371 15.5706 13.0851 16.0594 11.8262H10.6934V7.9502H20.3244Z" fill="#518EF8"/>
<path id="Vector_3" d="M16.7592 17.4149C14.9663 18.8106 12.7573 19.5652 10.4852 19.5579C6.67016 19.5579 3.35116 17.4879 1.66016 14.4399L4.90916 11.8599C5.75416 14.0529 7.93416 15.6139 10.4852 15.6139C11.54 15.6156 12.5772 15.3434 13.4952 14.8239L16.7592 17.4149Z" fill="#28B446"/>
<path id="Vector_4" d="M16.8882 2.26704L13.6582 4.88104C12.7155 4.2993 11.6289 3.99276 10.5212 3.99604C9.29168 3.99272 8.0915 4.37126 7.0864 5.07936C6.0813 5.78746 5.32088 6.79018 4.91016 7.94904L1.66016 5.32004C2.51182 3.70995 3.78738 2.36329 5.34896 1.42564C6.91053 0.487987 8.69871 -0.00497742 10.5202 3.78899e-05C12.9402 3.78899e-05 15.1622 0.850038 16.8882 2.26704Z" fill="#F14336"/>
</g>
<defs>
<clipPath id="clip0_1846_7136">
<rect width="20" height="20" fill="white" transform="translate(0.5)"/>
</clipPath>
</defs>
</svg>
