<svg width="21" height="20" viewBox="0 0 21 20" fill="none" xmlns="http://www.w3.org/2000/svg">
<g id="icons8-facebook" clip-path="url(#clip0_1846_7132)">
<path id="Vector" d="M10.5 0C4.97727 0 0.5 4.50029 0.5 10.0514C0.5 15.0908 4.19318 19.2516 9.00546 19.9785V12.7155H6.53136V10.0733H9.00546V8.31525C9.00546 5.40445 10.4164 4.12656 12.8232 4.12656C13.9759 4.12656 14.5855 4.21245 14.8741 4.25174V6.55808H13.2323C12.2105 6.55808 11.8536 7.5317 11.8536 8.62913V10.0733H14.8482L14.4418 12.7155H11.8536V20C16.7345 19.3343 20.5 15.1397 20.5 10.0514C20.5 4.50029 16.0227 0 10.5 0Z" fill="#425995"/>
</g>
<defs>
<clipPath id="clip0_1846_7132">
<rect width="20" height="20" fill="white" transform="translate(0.5)"/>
</clipPath>
</defs>
</svg>
