<svg width="35" height="35" fill="none" xmlns="http://www.w3.org/2000/svg"><circle cx="17.5" cy="17.5" r="17.5" fill="#FFEFF2"/><path d="m27.893 15.174-8.149 3.517a.986.986 0 0 0-.592.902v5.258h-2.456v-5.073c0-.172-.017-.344-.05-.513a2.001 2.001 0 0 0-1-1.211S8.33 14.833 12.575 7.5c0 0 .087.135.23.341a6.625 6.625 0 0 0 2.862 2.329 5.91 5.91 0 0 1 2.875 2.91 4.717 4.717 0 0 1-.312 3.94 4.655 4.655 0 0 1 5.095-2.196c.303.063 1.844.311 2.145.338.806.087 1.618.09 2.424.012v0ZM23.785 24.849h-5.257M17.102 24.849h-4.85" stroke="#FE7B91" stroke-linecap="round" stroke-linejoin="round"/><path d="M27.896 15.117c-1.392-2.196-3.797-.67-4.564-.353" stroke="#FE7B91" stroke-miterlimit="10"/></svg>
