<svg width="35" height="35" fill="none" xmlns="http://www.w3.org/2000/svg"><circle cx="17.5" cy="17.5" r="17.5" fill="#FFEFF2"/><path d="M12.384 14.473a21.284 21.284 0 0 1-.823 4.977 6.103 6.103 0 0 0 .26 4.5 5 5 0 0 0 6.644 2" stroke="#FE7B91" stroke-linecap="round" stroke-linejoin="round"/><path d="M12.406 14.243a14.26 14.26 0 0 0 4.492 2.345 6.109 6.109 0 0 1 3.608 2.708 5.085 5.085 0 0 1-2.221 6.735" stroke="#FE7B91" stroke-linecap="round" stroke-linejoin="round"/><path d="M13.417 23.318a3.415 3.415 0 0 0 2.375 1.35" stroke="#FE7B91" stroke-miterlimit="10" stroke-linecap="round"/><path d="M20.314 15.987a9.633 9.633 0 0 1 1.43 1.778c.35.612.922 1.066 1.597 1.27a2.256 2.256 0 0 0 2.676-1.639" stroke="#FE7B91" stroke-linecap="round" stroke-linejoin="round"/><path d="M20.24 15.906a6.423 6.423 0 0 0 2.148-.804 2.768 2.768 0 0 1 2-.4 2.305 2.305 0 0 1 1.606 2.78" stroke="#FE7B91" stroke-linecap="round" stroke-linejoin="round"/><path d="M23.705 17.811a1.155 1.155 0 0 0 .875-.291" stroke="#FE7B91" stroke-miterlimit="10" stroke-linecap="round"/><path d="M13.807 12.91c.971.272 1.907.658 2.787 1.15a3.68 3.68 0 0 0 2.665.455 2.978 2.978 0 0 0 2.053-3.6" stroke="#FE7B91" stroke-linecap="round" stroke-linejoin="round"/><path d="M13.676 12.875a8.527 8.527 0 0 0 1.97-2.31 3.655 3.655 0 0 1 2.061-1.737 3.041 3.041 0 0 1 3.625 2.195" stroke="#FE7B91" stroke-linecap="round" stroke-linejoin="round"/><path d="M19.362 13.12a1.522 1.522 0 0 0 .824-.89" stroke="#FE7B91" stroke-miterlimit="10" stroke-linecap="round"/></svg>
