<svg width="28" height="28" fill="none" xmlns="http://www.w3.org/2000/svg"><path d="M14 28c7.732 0 14-6.268 14-14S21.732 0 14 0 0 6.268 0 14s6.268 14 14 14Z" fill="#FFEFF2"/><path d="m16.09 5.18-.045.008-.016.015c-.378.08-.825.334-1.122.631a2.282 2.282 0 0 0 0 3.268c.475.474.974.673 1.656.673.684 0 1.183-.215 1.626-.658.457-.457.689-.986.689-1.657 0-.668-.2-1.167-.674-1.64a2.364 2.364 0 0 0-2.114-.64Zm1.253 1.149v-.01c.205.135.35.304.467.546v.002c.07.138.095.202.109.27.014.073.014.157.014.339 0 .182 0 .261-.014.332-.014.067-.04.132-.11.279-.152.318-.354.509-.693.664a1.24 1.24 0 0 1-.249.092c-.068.014-.15.018-.319.018-.174 0-.258 0-.329-.013a.746.746 0 0 1-.23-.092l-.008-.004a1.349 1.349 0 0 1-.696-.67 1.05 1.05 0 0 1-.108-.267 1.794 1.794 0 0 1-.014-.324c0-.174 0-.258.013-.329a.745.745 0 0 1 .092-.23l.004-.008c.14-.307.346-.513.609-.651l.002-.001c.147-.081.252-.124.357-.146.106-.023.221-.028.394-.02h.006c.113 0 .187.01.253.029.07.02.136.049.237.095l.213.099ZM9.026 7.372h-.013L9 7.374a3.687 3.687 0 0 0-2.076 1.102 3.765 3.765 0 0 0-1.037 1.85c-.05.203-.073.54-.073.865 0 .324.023.662.073.865.192.75.528 1.326 1.084 1.881.67.67 1.47 1.038 2.394 1.118l.117.012-.064.246v.002a6.004 6.004 0 0 0 1.008 5.068c1.856 2.502 5.334 3.211 7.995 1.62 1.527-.912 2.534-2.36 2.895-4.136v-.002c.049-.26.072-.666.072-1.062s-.023-.799-.072-1.05v-.002c-.251-1.239-.77-2.263-1.62-3.145-1.102-1.133-2.504-1.762-4.09-1.857h-.002a6.152 6.152 0 0 0-1.76.173h-.004l-.246.064-.012-.116a3.881 3.881 0 0 0-.623-1.787c-.258-.403-.812-.94-1.229-1.198h-.002c-.792-.476-1.79-.685-2.7-.513h-.002ZM12.171 9.6v.002c.306.45.451.942.451 1.481v.28l-.198.11a6.198 6.198 0 0 0-2.485 2.485l-.11.199h-.14c-.686.058-1.55-.29-2.107-.847h-.001c-.6-.586-.876-1.253-.876-2.104 0-.648.13-1.095.466-1.606a2.99 2.99 0 0 1 1.93-1.302c.138-.027.381-.039.634-.033.253.005.492.028.62.062l.018.005h.03A2.953 2.953 0 0 1 12.172 9.6Zm8.998 6.18Zm-4.956-4.053.016.017.045.008a5.204 5.204 0 0 1 3.64 2.76c.163.325.373.942.447 1.328.044.216.067.577.067.948 0 .37-.023.735-.066.959-.284 1.39-1.106 2.612-2.282 3.356a5.326 5.326 0 0 1-1.835.732 5.88 5.88 0 0 1-.969.066c-.37 0-.73-.023-.955-.066-3.33-.687-5.117-4.178-3.7-7.235.73-1.563 2.25-2.668 3.998-2.923a6.17 6.17 0 0 1 .808-.02c.302.01.598.033.786.07ZM20.524 9.875a.405.405 0 0 0 .093-.132.398.398 0 0 0 .037-.185.426.426 0 0 0-.065-.196c-.067-.113-.194-.246-.374-.426l-.002-.003a3.262 3.262 0 0 0-.247-.218.75.75 0 0 0-.214-.125.336.336 0 0 0-.235.003.473.473 0 0 0-.167.12.47.47 0 0 0-.12.17.346.346 0 0 0-.002.236c.024.074.069.145.125.217.056.072.13.152.22.242.182.181.318.307.434.374a.37.37 0 0 0 .384.022.541.541 0 0 0 .133-.099Z" fill="#FF6F8D" stroke="#FF6F8D" stroke-width=".3"/><path d="M20.88 9.027a1.89 1.89 0 0 0-.269.32.428.428 0 0 0-.064.196.4.4 0 0 0 .04.19l.002.005c.025.05.063.097.1.133.03.03.077.072.131.093a.398.398 0 0 0 .185.037.428.428 0 0 0 .196-.065c.113-.067.246-.194.427-.374l.002-.002c.09-.093.163-.175.219-.247a.751.751 0 0 0 .124-.214.336.336 0 0 0-.003-.235.485.485 0 0 0-.127-.174.482.482 0 0 0-.178-.128.346.346 0 0 0-.236-.003.73.73 0 0 0-.217.125 2.79 2.79 0 0 0-.242.22l-.106.107.016.016ZM20.613 10.567a.448.448 0 0 0-.415-.653v-.128l-.244.198.046.057-.046-.057-.001.001-.002.002-.009.007-.03.026a3.647 3.647 0 0 0-.372.347 2.79 2.79 0 0 0-.2.228.687.687 0 0 0-.116.208.335.335 0 0 0 .008.23c.028.07.077.126.13.174.049.049.106.094.175.12a.356.356 0 0 0 .23.006c.139-.041.282-.161.449-.328.086-.086.172-.176.24-.25.065-.07.124-.137.147-.172l.005-.008.005-.008Z" fill="#FF6F8D" stroke="#FF6F8D" stroke-width=".3"/><path d="m20.986 10.99.002.002c.093.09.174.163.247.219.07.055.142.1.214.124a.336.336 0 0 0 .235-.003.488.488 0 0 0 .176-.13.503.503 0 0 0 .12-.175.356.356 0 0 0 .006-.23c-.041-.139-.161-.282-.328-.449-.14-.14-.26-.25-.361-.325a.974.974 0 0 0-.144-.092A.35.35 0 0 0 21 9.89a.181.181 0 0 0-.07.013.876.876 0 0 0-.038.015l-.009.004a.848.848 0 0 1-.054.021l.048.143-.09-.12h-.001l-.002.001-.004.004-.017.013a1.337 1.337 0 0 0-.113.104.372.372 0 0 0-.039.468c.067.116.193.252.375.434ZM6.786 19.515a.404.404 0 0 0 .092-.132.397.397 0 0 0 .038-.185.428.428 0 0 0-.065-.195c-.067-.114-.194-.247-.374-.427l-.002-.003a3.263 3.263 0 0 0-.247-.218.748.748 0 0 0-.215-.124.336.336 0 0 0-.234.002.473.473 0 0 0-.167.12.47.47 0 0 0-.12.17.346.346 0 0 0-.002.236.73.73 0 0 0 .125.217c.056.072.13.152.22.242.182.181.318.307.434.375.06.035.125.06.195.063a.37.37 0 0 0 .189-.042.537.537 0 0 0 .133-.099Z" fill="#FF6F8D" stroke="#FF6F8D" stroke-width=".3"/><path d="m6.848 19.389.003.005a.538.538 0 0 0 .231.225.4.4 0 0 0 .185.038.429.429 0 0 0 .195-.065c.114-.067.247-.194.427-.374l.002-.002c.09-.094.163-.175.22-.247a.75.75 0 0 0 .123-.215.336.336 0 0 0-.002-.234.484.484 0 0 0-.128-.174.48.48 0 0 0-.177-.128.346.346 0 0 0-.236-.003.73.73 0 0 0-.217.125c-.072.057-.152.13-.242.22l-.106.107.016.016a1.89 1.89 0 0 0-.269.32.428.428 0 0 0-.064.195.401.401 0 0 0 .04.19ZM6.873 20.223a.448.448 0 0 0-.414-.653v-.129l-.244.2.045.055-.045-.056h-.001l-.003.003-.008.007-.031.025a3.611 3.611 0 0 0-.372.347c-.08.086-.148.161-.2.23a.688.688 0 0 0-.115.207.335.335 0 0 0 .008.23.5.5 0 0 0 .13.174c.048.049.106.094.175.12a.355.355 0 0 0 .23.005c.138-.04.282-.16.449-.327.086-.086.171-.176.24-.25.064-.07.124-.137.147-.172l.005-.008.004-.008Z" fill="#FF6F8D" stroke="#FF6F8D" stroke-width=".3"/><path d="m7.106 19.583-.023.008-.02.015.09.12-.09-.12-.002.001-.005.004-.016.013a1.235 1.235 0 0 0-.114.104.37.37 0 0 0-.039.468c.067.116.193.252.375.434l.002.002c.093.09.175.163.247.219.071.055.142.1.214.124a.336.336 0 0 0 .235-.003.486.486 0 0 0 .176-.13.501.501 0 0 0 .12-.175.356.356 0 0 0 .006-.23c-.04-.139-.16-.282-.327-.449-.14-.14-.262-.25-.362-.325a.974.974 0 0 0-.144-.092.35.35 0 0 0-.153-.041.18.18 0 0 0-.07.014l-.038.014-.009.004c-.021.01-.039.017-.053.021Z" fill="#FF6F8D" stroke="#FF6F8D" stroke-width=".3"/></svg>
