<svg width="35" height="35" fill="none" xmlns="http://www.w3.org/2000/svg"><circle cx="17.5" cy="17.5" r="17.5" fill="#FFEFF2"/><path d="M15.31 14.608c.106-.895.187-1.194.438-1.642.337-.584 1.027-1.07 1.805-1.267.134-.034.414-.076.621-.095.45-.042.576-.118.576-.349 0-.224-.122-.3-.552-.345-1.391-.144-2.352-.85-2.689-1.969a4.561 4.561 0 0 1-.13-.702m-.069 6.37.1.01m-.1-.01.1.011m-.1-.011c-.024.22-.044.273-.134.337-.097.065-.125.068-.26.027-.19-.057-.263-.213-.263-.539 0-.25-.077-.687-.178-.979l.843-5.72c.008.049.037.273.061.504m.03 6.38c.105-.889.184-1.173.426-1.604m-.425 1.605c-.012.108-.024.19-.05.252a.332.332 0 0 1-.125.155l-.003.002a.356.356 0 0 1-.161.07.46.46 0 0 1-.184-.03.41.41 0 0 1-.264-.221.96.96 0 0 1-.07-.414 3.49 3.49 0 0 0-.173-.946v-.001c-.338-1.017-1.32-1.717-2.586-1.814a1.574 1.574 0 0 1-.314-.044.45.45 0 0 1-.189-.115.396.396 0 0 1-.14-.264.378.378 0 0 1 .114-.275l.002-.002a.381.381 0 0 1 .186-.114c.075-.022.182-.034.348-.049.69-.06 1.28-.277 1.745-.636.605-.468.928-1.122 1.003-2.068.016-.183.03-.302.05-.386a.384.384 0 0 1 .11-.2.426.426 0 0 1 .41-.105.399.399 0 0 1 .297.3l.001.003c.009.053.037.28.062.51m.356 4.787-.087-.05.088.05Zm0 0c.321-.556.985-1.027 1.743-1.22.127-.031.4-.073.605-.091.224-.021.39-.051.5-.118a.326.326 0 0 0 .13-.142.44.44 0 0 0 .037-.189.434.434 0 0 0-.035-.184.323.323 0 0 0-.127-.14c-.106-.067-.265-.098-.48-.12-1.36-.142-2.28-.827-2.603-1.899a4.474 4.474 0 0 1-.126-.683m0 0-.1.01m.1-.01-.1.01m-.194 1.85-.001-.002a3.766 3.766 0 0 1-.204-.33l-.008.013c-.323.593-.875 1.107-1.543 1.445l-.062.031.18.095c.301.157.62.403.884.662.25.245.46.513.552.739a5.89 5.89 0 0 0 .103-.169 3.47 3.47 0 0 1 1.468-1.31l.035-.017-.137-.074a3.69 3.69 0 0 1-1.267-1.083ZM16.858 17.056a1.738 1.738 0 0 0-.451.069.348.348 0 0 0-.22.206h-.001a.402.402 0 0 0 .092.466l.069-.071m.511-.67 5.203-5.722c.075.078.086.134.108.566l.1-.005c.117 2.262.952 3.74 2.54 4.565a5.586 5.586 0 0 0 2.046.596c.215.015.365.033.471.07.055.02.102.047.14.084a.387.387 0 0 1 .087.124c.02.044.034.093.042.139a.34.34 0 0 1-.074.28.366.366 0 0 1-.142.098c-.108.045-.267.07-.49.09-1.59.143-2.949.911-3.724 2.09-.527.804-.875 2.054-.875 3.181 0 .157-.012.282-.05.379a.386.386 0 0 1-.199.217.318.318 0 0 1-.143.042.37.37 0 0 1-.149-.035.39.39 0 0 1-.214-.236 1.201 1.201 0 0 1-.056-.412 7.22 7.22 0 0 0-.307-1.94c-.613-1.91-2.157-3.096-4.316-3.29a3.2 3.2 0 0 1-.383-.047.375.375 0 0 1-.196-.093l.07-.071m.511-.67c1.489-.095 2.989-.934 3.71-2.062.574-.905.808-1.73.897-3.208m-4.607 5.27 4.607-5.27m-5.118 5.94c.061.06.158.082.517.111l-.585-.469c-.054.138-.033.26.068.358Zm5.118-5.94.1.006-.1-.006Zm.488 9.08c.295-.969 1.06-2 1.916-2.593a7.093 7.093 0 0 1 1.297-.693l-3.213 3.286Zm0 0a2.174 2.174 0 0 1-.034.103l.034-.103Zm1.859-4.082c-.858-.592-1.645-1.653-1.946-2.621-.049.146-.14.357-.24.565a6.16 6.16 0 0 1-.326.608c-.619.958-1.513 1.678-2.627 2.118-.033.012-.06.023-.085.034l.059.02c.123.042.349.15.576.27a5.12 5.12 0 0 1 2.056 1.827c.188.293.482.895.586 1.205.308-.983 1.081-2.02 1.947-2.62.39-.268.925-.551 1.318-.703h.001l.007-.003a6.348 6.348 0 0 0-.051-.018h-.001c-.316-.112-.885-.415-1.274-.682ZM11.212 20.022a2.575 2.575 0 0 1-.324.273 2.484 2.484 0 0 1-.359.194c-.42.19-.839.303-1.284.34h-.001a1.596 1.596 0 0 0-.284.043.406.406 0 0 0-.181.105.347.347 0 0 0-.127.218.43.43 0 0 0 .067.252v.001c.018.03.04.067.07.098a.291.291 0 0 0 .121.07c.088.03.23.046.474.072 1.219.133 2.114.773 2.476 1.743.109.291.152.508.193.988.013.187.024.304.047.383a.325.325 0 0 0 .131.187c.09.074.202.11.306.111.103 0 .215-.034.28-.127l.003-.003a.359.359 0 0 0 .036-.082 1.817 1.817 0 0 0 .065-.356m-1.709-4.51 1.61 4.503m-1.61-4.503c.326-.304.5-.564.648-.958.102-.275.192-.748.192-1.011 0-.133.02-.259.06-.362a.437.437 0 0 1 .183-.242m-1.083 2.573.742-.923c.105-.285.198-.77.198-1.046 0-.247.077-.455.19-.516m.579 6.995-.1-.007m.1.007-.1-.007m.1.007c.036-.46.092-.754.201-1.057.338-.962 1.234-1.62 2.423-1.753.204-.023.411-.05.466-.058h.003a.406.406 0 0 0 .209-.695c-.101-.094-.221-.117-.465-.14-1.174-.1-2.063-.65-2.498-1.525-.184-.368-.319-.962-.319-1.422a.489.489 0 0 0-.208-.404.414.414 0 0 0-.438-.029m.526 7.076c.037-.466.094-.77.207-1.084.353-1.004 1.285-1.682 2.506-1.819.203-.023.41-.049.462-.057a.306.306 0 0 0 .158-.523c-.073-.068-.158-.09-.405-.113-1.2-.102-2.125-.667-2.579-1.58-.19-.383-.329-.993-.329-1.467 0-.276-.275-.466-.498-.345m-.048-.088.048.088m-.048-.088.048.088m.34 2.583v-.002a3.002 3.002 0 0 1-.204-.333l-.054.089a3.503 3.503 0 0 1-1.497 1.372l-.062.03.124.064c.594.307 1.137.809 1.42 1.322l.067.117c.031-.05.069-.11.108-.177a3.467 3.467 0 0 1 1.467-1.309l.037-.017-.135-.073c-.551-.295-.924-.611-1.27-1.083Z" fill="#FF6F8D" stroke="#FF6F8D" stroke-width=".2"/></svg>
