<svg width="35" height="35" fill="none" xmlns="http://www.w3.org/2000/svg"><circle cx="17.5" cy="17.5" r="17.5" fill="#FFEFF2"/><path d="m18.763 8.083 1.278-.539-.028-.147a2.516 2.516 0 0 1 2.27.682c.503.506.725 1.042.725 1.76 0 .71-.235 1.272-.733 1.77-.48.482-1.045.705-1.75.705-.724 0-1.263-.22-1.77-.726a2.461 2.461 0 0 1 .008-3.505Zm2.379 3.141c.361-.17.58-.38.753-.73.075-.153.105-.222.121-.296.017-.076.02-.164.02-.359 0-.194-.004-.282-.02-.358a1.328 1.328 0 0 0-.12-.295 1.454 1.454 0 0 0-.744-.726 1.23 1.23 0 0 0-.542-.13 1.593 1.593 0 0 0-.428.025c-.116.027-.23.074-.389.159l-.002.001c-.282.146-.5.38-.656.71-.061.127-.087.192-.102.265a1.91 1.91 0 0 0-.018.354c0 .192.002.279.019.354.016.074.046.143.12.296.174.35.393.56.754.73.127.06.193.087.266.101.076.015.168.019.35.019.183 0 .275-.004.352-.019.073-.014.138-.04.266-.1ZM17.31 13.65l.278-.07a6.397 6.397 0 0 1 1.897-.192 6.455 6.455 0 0 1 4.392 1.988L17.31 13.65Zm0 0-.01-.141v-.001a4.304 4.304 0 0 0-.663-1.92c-.278-.43-.87-1.003-1.32-1.282h-.002a4.26 4.26 0 0 0-2.913-.552l.027.148c-.845.15-1.534.52-2.156 1.148l7.037 2.6Zm-8.263-.723a4.17 4.17 0 0 1 1.12-1.983l12.352 14.542c-2.862 1.711-6.596.956-8.592-1.736a6.447 6.447 0 0 1-1.076-5.449l.07-.276-.138-.011c-.999-.083-1.847-.48-2.573-1.199a4.093 4.093 0 0 1-1.163-2.022c-.055-.218-.08-.582-.08-.933 0-.35.025-.715.08-.933Zm6.78-.794c-.459-.697-1.092-1.153-1.936-1.383a3.349 3.349 0 0 0-.677-.073 3.362 3.362 0 0 0-.682.038 3.3 3.3 0 0 0-2.091 1.41c-.358.548-.501 1.034-.501 1.735 0 .92.3 1.639.943 2.272.6.59 1.539.968 2.28.92h.002l.148-.007.12-.22a6.697 6.697 0 0 1 2.674-2.67l.215-.116-.003-.303a2.873 2.873 0 0 0-.492-1.603Zm4.413 2.314a6.318 6.318 0 0 0-.892-.078 6.23 6.23 0 0 0-.875.02c-1.897.262-3.534 1.458-4.323 3.15-1.53 3.285.399 7.058 3.992 7.801.242.05.633.077 1.033.078.4 0 .793-.024 1.039-.074a5.898 5.898 0 0 0 1.978-.795h.001a5.607 5.607 0 0 0 2.464-3.631c.047-.237.073-.627.073-1.026 0-.4-.026-.79-.073-1.026a7.197 7.197 0 0 0-.487-1.437 5.639 5.639 0 0 0-3.93-2.982ZM23.786 12.102a3.176 3.176 0 0 1-.238-.262.769.769 0 0 1-.133-.228.358.358 0 0 1 .003-.245.538.538 0 0 1 .134-.189.54.54 0 0 1 .189-.133.36.36 0 0 1 .244-.003.77.77 0 0 1 .23.132c.077.06.163.14.262.238.199.194.334.338.404.463a.445.445 0 0 1 .063.207.42.42 0 0 1-.046.196.523.523 0 0 1-.103.14.523.523 0 0 1-.141.104l-.064-.136.065.135a.425.425 0 0 1-.197.046.449.449 0 0 1-.208-.063c-.124-.07-.27-.204-.464-.402Z" fill="#FF6F8D" stroke="#FF6F8D" stroke-width=".3"/><path d="m24.896 12.279.135-.065-.136.064a.521.521 0 0 0 .104.14.522.522 0 0 0 .14.104m-.243-.243.307.107m-.307-.107a.422.422 0 0 1-.046-.197.447.447 0 0 1 .063-.207c.07-.125.205-.27.404-.463a3.18 3.18 0 0 1 .263-.238.772.772 0 0 1 .229-.132.36.36 0 0 1 .244.003.54.54 0 0 1 .19.133m-1.347 1.1 1.347-1.1m-1.103 1.344.063-.136m-.063.136.063-.136m-.063.136a.425.425 0 0 0 .196.045.45.45 0 0 0 .208-.063c.124-.07.27-.204.464-.402m-.805.284c.177.084.303.013.698-.39m.107.106-.107-.106m.107.106c.098-.099.178-.185.238-.262a.768.768 0 0 0 .133-.228.358.358 0 0 0-.003-.245.54.54 0 0 0-.133-.189m-.235.924-.107-.106m0 0 .342-.818M24.204 12.554l.005-.003c.406-.256.91.168.68.615l-.002.002a.653.653 0 0 1-.065.093 5.092 5.092 0 0 1-.613.607.754.754 0 0 1-.226.127.363.363 0 0 1-.24-.003.543.543 0 0 1-.19-.13.537.537 0 0 1-.132-.187.36.36 0 0 1-.007-.238.714.714 0 0 1 .121-.221 2.67 2.67 0 0 1 .216-.244c.167-.178.372-.362.453-.418Z" fill="#FF6F8D" stroke="#FF6F8D" stroke-width=".3"/><path d="M26.026 12.951c.093.096.169.18.226.256a.75.75 0 0 1 .127.225.36.36 0 0 1-.005.24.543.543 0 0 1-.13.19.542.542 0 0 1-.19.133.36.36 0 0 1-.245.003.774.774 0 0 1-.23-.132 3.2 3.2 0 0 1-.262-.238c-.199-.194-.334-.338-.404-.462a.443.443 0 0 1-.063-.207.41.41 0 0 1 .045-.192.527.527 0 0 1 .229-.243 1.264 1.264 0 0 1 .141-.06.22.22 0 0 1 .065-.01c.059 0 .115.022.16.045.047.024.098.058.151.099.107.082.235.2.385.353ZM9.796 22.773l.063.136a.523.523 0 0 0 .141-.103.524.524 0 0 0 .104-.141.423.423 0 0 0 .045-.196.446.446 0 0 0-.063-.208c-.07-.124-.205-.268-.404-.462a3.174 3.174 0 0 0-.263-.238.773.773 0 0 0-.228-.132.36.36 0 0 0-.245.003.54.54 0 0 0-.19.133.54.54 0 0 0-.133.189.358.358 0 0 0-.003.244.768.768 0 0 0 .133.229c.06.077.14.163.238.261.195.199.34.333.464.403.067.037.135.06.209.063a.426.426 0 0 0 .196-.046l-.064-.135Zm0 0a.425.425 0 0 0 .172-.172l-.172.172Z" fill="#FF6F8D" stroke="#FF6F8D" stroke-width=".3"/><path d="M10.345 22.908a.521.521 0 0 1-.141-.102.521.521 0 0 1-.104-.142l.136-.063-.135.065a.423.423 0 0 1-.046-.197.447.447 0 0 1 .063-.208c.07-.124.205-.268.404-.462a3.18 3.18 0 0 1 .263-.238.773.773 0 0 1 .229-.132.36.36 0 0 1 .244.003.54.54 0 0 1 .19.133.54.54 0 0 1 .133.189c.03.08.03.162.003.244a.767.767 0 0 1-.133.229c-.06.077-.14.163-.238.261-.195.199-.34.333-.464.403a.45.45 0 0 1-.208.063.425.425 0 0 1-.196-.046Zm0 0 .064-.135-.065.135ZM9.407 22.943l.005-.003c.406-.256.91.168.68.614l-.001.002a.67.67 0 0 1-.066.093c-.026.033-.06.072-.096.113a5.134 5.134 0 0 1-.517.495.753.753 0 0 1-.225.127.362.362 0 0 1-.242-.004.543.543 0 0 1-.189-.13.537.537 0 0 1-.132-.186.36.36 0 0 1-.007-.239.713.713 0 0 1 .121-.22c.056-.074.128-.154.217-.244.166-.178.372-.363.452-.418Z" fill="#FF6F8D" stroke="#FF6F8D" stroke-width=".3"/><path d="M11.23 23.339c.094.096.17.18.227.255a.75.75 0 0 1 .127.225.36.36 0 0 1-.005.24.543.543 0 0 1-.13.19.542.542 0 0 1-.19.133.36.36 0 0 1-.245.003.773.773 0 0 1-.23-.132 3.216 3.216 0 0 1-.262-.238c-.199-.194-.334-.338-.404-.462a.443.443 0 0 1-.063-.207.41.41 0 0 1 .045-.192.525.525 0 0 1 .23-.243 1.247 1.247 0 0 1 .14-.06.22.22 0 0 1 .065-.01c.059 0 .115.022.16.045.047.024.098.058.151.1.107.08.235.2.385.353Z" fill="#FF6F8D" stroke="#FF6F8D" stroke-width=".3"/></svg>
