<svg width="35" height="35" fill="none" xmlns="http://www.w3.org/2000/svg"><path d="M17.5 35C27.165 35 35 27.165 35 17.5S27.165 0 17.5 0 0 7.835 0 17.5 7.835 35 17.5 35Z" fill="#FFEFF2"/><path d="m28.26 18.206-.016-.004h-.015c-.283 0-1.656-.05-2.954-.812-1.288-.756-2.518-2.222-2.518-5.091a.46.46 0 0 0-.454-.454.46.46 0 0 0-.454.454c0 2.869-1.23 4.335-2.516 5.091-1.295.762-2.662.812-2.931.812a.417.417 0 0 0-.277.1.323.323 0 0 0-.081.072l-.022.027a.103.103 0 0 1-.003.004l-.007.009-.002.002-.014.014-.01.018a.5.5 0 0 0 0 .44.476.476 0 0 0 .416.247h.025c.283 0 1.65.05 2.941.812 1.282.756 2.506 2.222 2.506 5.091a.46.46 0 0 0 .454.454.46.46 0 0 0 .454-.454c0-2.856 1.224-4.322 2.506-5.082 1.293-.765 2.66-.821 2.94-.821.183 0 .316-.11.404-.227l.007-.009.005-.01a.436.436 0 0 0-.03-.451.416.416 0 0 0-.166-.16.77.77 0 0 0-.189-.072Zm-16.9-7.096h-.009l-.009.002c-.229.032-.41.204-.41.452a.46.46 0 0 0 .453.454c.156 0 .89.025 1.58.432.68.402 1.335 1.183 1.335 2.735a.46.46 0 0 0 .444.454c.12.016.23-.036.307-.112a.45.45 0 0 0 .131-.316c0-1.552.66-2.334 1.344-2.735a3.326 3.326 0 0 1 1.57-.433h.026a.466.466 0 0 0 .454-.479.46.46 0 0 0-.454-.454c-.143 0-.877-.024-1.57-.432-.684-.401-1.345-1.183-1.345-2.735a.46.46 0 0 0-.453-.454.46.46 0 0 0-.454.454c0 1.552-.661 2.334-1.344 2.735a3.326 3.326 0 0 1-1.57.432h-.026ZM8.447 22.533H8.43c-.229.034-.41.205-.41.453a.46.46 0 0 0 .453.454c.156 0 .89.025 1.58.432.68.402 1.335 1.183 1.335 2.736 0 .24.197.442.434.453a.327.327 0 0 0 .317-.093.474.474 0 0 0 .131-.335c0-1.552.66-2.334 1.344-2.735a3.326 3.326 0 0 1 1.57-.433h.026a.466.466 0 0 0 .454-.479.46.46 0 0 0-.454-.453c-.143 0-.877-.025-1.57-.433-.684-.401-1.345-1.183-1.345-2.735a.46.46 0 0 0-.453-.453.46.46 0 0 0-.454.453c0 1.552-.661 2.334-1.344 2.735a3.326 3.326 0 0 1-1.57.433h-.026Zm17.425-3.877c-1.304.49-2.824 1.482-3.57 3.508-.747-2.027-2.267-3.019-3.571-3.508 1.304-.49 2.824-1.482 3.57-3.508.747 2.026 2.267 3.019 3.571 3.508Zm-9.614-7.094c-.601.304-1.151.799-1.527 1.51-.382-.743-.961-1.209-1.532-1.505a3.514 3.514 0 0 0 1.527-1.51c.382.743.961 1.208 1.532 1.505ZM13.345 23.01a3.515 3.515 0 0 0-1.53 1.515 3.566 3.566 0 0 0-1.53-1.51 3.512 3.512 0 0 0 1.528-1.51c.382.743.961 1.209 1.532 1.505Z" fill="#FF6F8D" stroke="#FF6F8D" stroke-width=".2"/></svg>