<svg width="28" height="28" fill="none" xmlns="http://www.w3.org/2000/svg"><path d="M14 28c7.732 0 14-6.268 14-14S21.732 0 14 0 0 6.268 0 14s6.268 14 14 14Z" fill="#FFEFF2"/><path d="m22.607 14.565-.012-.003h-.012c-.226 0-1.325-.04-2.363-.65-1.03-.605-2.015-1.778-2.015-4.073a.368.368 0 0 0-.363-.363.368.368 0 0 0-.363.363c0 2.295-.984 3.468-2.013 4.073-1.036.61-2.13.65-2.345.65a.334.334 0 0 0-.221.079.258.258 0 0 0-.065.058l-.017.021a.064.064 0 0 1-.003.004l-.006.007-.001.002-.012.011-.007.014a.4.4 0 0 0 0 .353.38.38 0 0 0 .332.197h.02c.227 0 1.32.04 2.354.65 1.025.605 2.004 1.777 2.004 4.073 0 .197.166.363.363.363a.368.368 0 0 0 .363-.363c0-2.285.98-3.458 2.005-4.066a4.977 4.977 0 0 1 2.353-.657c.145 0 .252-.088.323-.182l.005-.007.004-.008a.35.35 0 0 0-.024-.36.333.333 0 0 0-.133-.128.616.616 0 0 0-.15-.058ZM9.087 8.888h-.006l-.007.001c-.184.026-.329.164-.329.362 0 .197.166.363.363.363.125 0 .711.02 1.264.346.544.321 1.068.946 1.068 2.188 0 .194.161.359.355.363a.295.295 0 0 0 .245-.09.36.36 0 0 0 .106-.252c0-1.242.528-1.867 1.075-2.189a2.661 2.661 0 0 1 1.256-.345h.02a.372.372 0 0 0 .363-.384.368.368 0 0 0-.363-.363c-.114 0-.7-.02-1.256-.346-.547-.32-1.075-.946-1.075-2.188a.368.368 0 0 0-.363-.363.368.368 0 0 0-.363.363c0 1.242-.529 1.867-1.076 2.188a2.662 2.662 0 0 1-1.256.346h-.02Zm-2.33 9.138H6.75l-.007.001c-.183.026-.328.163-.328.362 0 .197.166.363.363.363.125 0 .711.02 1.263.346.544.32 1.068.946 1.068 2.188 0 .192.158.354.348.363a.262.262 0 0 0 .253-.075.379.379 0 0 0 .105-.268c0-1.241.529-1.867 1.075-2.188a2.66 2.66 0 0 1 1.257-.346h.02a.373.373 0 0 0 .363-.383.368.368 0 0 0-.363-.363c-.115 0-.701-.02-1.256-.346-.547-.321-1.076-.947-1.076-2.188a.368.368 0 0 0-.363-.363.368.368 0 0 0-.363.363c0 1.241-.528 1.867-1.075 2.188a2.66 2.66 0 0 1-1.256.346h-.02Zm13.94-3.101c-1.043.392-2.259 1.185-2.856 2.806-.597-1.621-1.813-2.415-2.856-2.806 1.043-.392 2.26-1.186 2.856-2.807.597 1.621 1.813 2.415 2.857 2.807Zm-7.691-5.676c-.48.244-.921.64-1.222 1.208a2.785 2.785 0 0 0-1.225-1.204 2.81 2.81 0 0 0 1.222-1.208c.305.595.768.967 1.225 1.204Zm-2.33 9.16a2.812 2.812 0 0 0-1.224 1.211 2.852 2.852 0 0 0-1.224-1.208 2.81 2.81 0 0 0 1.222-1.208c.306.595.77.967 1.226 1.204Z" fill="#FF6F8D" stroke="#FF6F8D" stroke-width=".2"/></svg>
