<svg width="35" height="35" fill="none" xmlns="http://www.w3.org/2000/svg"><path d="M17.5 35C27.165 35 35 27.165 35 17.5S27.165 0 17.5 0 0 7.835 0 17.5 7.835 35 17.5 35Z" fill="#FFEFF2"/><path d="m20.113 6.474-.057.01-.02.02c-.473.1-1.03.417-1.402.789a2.852 2.852 0 0 0 0 4.084c.593.593 1.217.841 2.07.841.855 0 1.478-.268 2.032-.822.572-.571.861-1.232.861-2.07 0-.835-.249-1.46-.842-2.052a2.955 2.955 0 0 0-2.642-.8Zm1.565 1.437v-.013c.257.17.439.38.584.683l.001.003c.086.172.119.253.135.338.017.091.018.195.018.423 0 .227 0 .326-.018.415-.016.084-.05.165-.136.348-.19.398-.444.636-.867.83a1.545 1.545 0 0 1-.311.115 2.056 2.056 0 0 1-.4.023c-.217 0-.322 0-.41-.016a.933.933 0 0 1-.288-.115l-.01-.005c-.42-.193-.658-.43-.87-.836a1.31 1.31 0 0 1-.134-.335 2.237 2.237 0 0 1-.019-.405c0-.218.001-.323.017-.411a.933.933 0 0 1 .115-.288l.005-.01c.174-.384.432-.64.761-.814l.003-.001c.184-.101.314-.155.446-.183.132-.029.277-.034.492-.025h.008c.14 0 .233.014.317.037.086.024.169.06.295.119l.266.123ZM11.283 9.215h-.016l-.016.003a4.608 4.608 0 0 0-2.596 1.377 4.705 4.705 0 0 0-1.296 2.313c-.063.254-.091.675-.091 1.08 0 .406.028.828.092 1.082v.001c.239.936.66 1.656 1.354 2.35a4.681 4.681 0 0 0 2.993 1.398l.146.015-.08.308v.002a7.505 7.505 0 0 0 1.26 6.335c2.32 3.128 6.667 4.014 9.994 2.026 1.908-1.141 3.167-2.952 3.618-5.17v-.003c.061-.325.09-.833.09-1.328 0-.495-.029-.998-.09-1.314v-.001c-.314-1.549-.962-2.829-2.025-3.931-1.377-1.416-3.13-2.203-5.113-2.321h-.001c-.75-.04-1.44.04-2.201.215l-.005.002-.308.08-.015-.146a4.85 4.85 0 0 0-.777-2.234c-.323-.504-1.015-1.176-1.537-1.497l-.002-.001c-.99-.594-2.238-.856-3.376-.641h-.002ZM15.213 12l.002.002a3.22 3.22 0 0 1 .563 1.852v.35l-.248.138a7.747 7.747 0 0 0-3.106 3.106l-.138.248h-.174c-.858.072-1.938-.361-2.634-1.058l-.002-.001c-.75-.732-1.095-1.566-1.095-2.63 0-.81.163-1.368.584-2.007a3.737 3.737 0 0 1 2.412-1.627c.172-.034.476-.05.792-.042.316.007.614.036.774.078l.024.006h.038c.961.26 1.682.786 2.209 1.585Zm5.053 2.66.02.02.057.01a6.506 6.506 0 0 1 4.55 3.45c.203.407.466 1.177.56 1.66v.001c.053.27.082.72.082 1.184 0 .463-.029.919-.083 1.199-.355 1.736-1.381 3.265-2.852 4.195a6.658 6.658 0 0 1-2.294.915c-.29.054-.747.083-1.21.083-.464 0-.914-.029-1.194-.083-4.163-.86-6.397-5.222-4.626-9.043.912-1.955 2.814-3.337 4.998-3.655a7.722 7.722 0 0 1 1.01-.024c.378.01.747.04.982.087ZM25.655 12.344a.506.506 0 0 0 .116-.165.499.499 0 0 0 .047-.231.533.533 0 0 0-.081-.245c-.084-.142-.242-.308-.468-.534l-.002-.002a4.067 4.067 0 0 0-.309-.274.935.935 0 0 0-.268-.155.42.42 0 0 0-.294.004.593.593 0 0 0-.208.15.588.588 0 0 0-.15.211.433.433 0 0 0-.003.296c.03.092.087.181.156.27.071.09.164.19.276.303.227.227.397.385.542.469a.464.464 0 0 0 .48.027.675.675 0 0 0 .166-.124Z" fill="#FF6F8D"/><path d="M26.1 11.283c-.156.16-.27.288-.336.4a.535.535 0 0 0-.08.245.499.499 0 0 0 .05.238h-.001l.003.006a.677.677 0 0 0 .124.167c.038.038.098.09.165.115.069.03.145.052.231.047a.535.535 0 0 0 .245-.08c.142-.085.308-.243.533-.468l.003-.003c.112-.117.203-.218.273-.309a.94.94 0 0 0 .156-.268.42.42 0 0 0-.004-.293.605.605 0 0 0-.16-.218.602.602 0 0 0-.221-.16.433.433 0 0 0-.295-.003.915.915 0 0 0-.271.156c-.09.071-.19.163-.303.276l-.132.133.02.02ZM25.766 13.209a.56.56 0 0 0-.517-.817v-.16l-.306.248.057.07v.001l-.057-.07h-.001l-.003.003-.01.008-.04.033a4.554 4.554 0 0 0-.465.434c-.1.106-.185.2-.25.285a.86.86 0 0 0-.144.26.419.419 0 0 0 .01.287.623.623 0 0 0 .162.218.628.628 0 0 0 .22.15c.093.034.19.035.287.007.174-.051.353-.201.561-.41.108-.107.215-.22.3-.312a2.41 2.41 0 0 0 .184-.215l.007-.01.005-.01Z" fill="#FF6F8D"/><path d="m26.232 13.737.003.003c.116.112.218.204.308.274a.94.94 0 0 0 .268.155.42.42 0 0 0 .294-.004.609.609 0 0 0 .22-.162.628.628 0 0 0 .15-.22.444.444 0 0 0 .007-.286c-.051-.174-.201-.354-.41-.562a4.47 4.47 0 0 0-.451-.406 1.219 1.219 0 0 0-.18-.115.437.437 0 0 0-.192-.052c-.028 0-.05.006-.058.008a.344.344 0 0 0-.03.01l-.046.018-.011.005-.068.026.06.178-.113-.15-.003.002-.006.005-.02.016a1.579 1.579 0 0 0-.142.13.465.465 0 0 0-.049.585c.084.145.242.315.469.542ZM8.483 24.394a.505.505 0 0 0 .115-.165.496.496 0 0 0 .047-.231.534.534 0 0 0-.08-.245c-.085-.142-.243-.308-.469-.533l-.002-.003a4.084 4.084 0 0 0-.309-.273.934.934 0 0 0-.268-.156.42.42 0 0 0-.293.004.591.591 0 0 0-.209.15.589.589 0 0 0-.15.212.433.433 0 0 0-.003.295c.03.092.087.182.156.27.071.091.164.19.276.303.227.227.397.385.542.469a.543.543 0 0 0 .244.08.462.462 0 0 0 .236-.053.673.673 0 0 0 .167-.124Z" fill="#FF6F8D"/><path d="m8.56 24.236.003.006c.031.062.079.121.124.166.038.039.098.09.165.116a.5.5 0 0 0 .231.047.536.536 0 0 0 .245-.08c.142-.085.308-.243.533-.469l.003-.002c.112-.117.204-.219.273-.309a.938.938 0 0 0 .156-.268.42.42 0 0 0-.004-.294.605.605 0 0 0-.159-.217.6.6 0 0 0-.222-.16.432.432 0 0 0-.295-.003.914.914 0 0 0-.27.156 3.5 3.5 0 0 0-.303.276l-.133.132.02.02c-.156.16-.27.288-.336.4a.535.535 0 0 0-.08.245.501.501 0 0 0 .05.238ZM8.591 25.279a.56.56 0 0 0-.517-.817v-.16l-.306.248.057.07-.057-.07-.001.001-.003.003-.01.008-.04.032a4.518 4.518 0 0 0-.465.434c-.1.107-.185.201-.25.286a.858.858 0 0 0-.143.26.418.418 0 0 0 .01.287.625.625 0 0 0 .161.217.628.628 0 0 0 .22.15c.094.035.19.036.287.008.174-.052.353-.201.562-.41.107-.107.214-.22.3-.313.08-.087.154-.17.184-.214l.006-.01.005-.01Z" fill="#FF6F8D"/><path d="m8.882 24.48-.029.009-.024.018.112.15-.112-.15h-.001l-.002.002-.006.005-.02.016a1.558 1.558 0 0 0-.143.13.463.463 0 0 0-.049.585c.085.145.242.316.47.543l.002.002c.117.112.218.204.309.274a.935.935 0 0 0 .268.155.42.42 0 0 0 .293-.004.608.608 0 0 0 .22-.162.626.626 0 0 0 .15-.22.444.444 0 0 0 .008-.286c-.051-.174-.201-.354-.41-.562a4.502 4.502 0 0 0-.452-.406 1.217 1.217 0 0 0-.18-.115.438.438 0 0 0-.191-.052c-.028 0-.05.006-.059.008a.378.378 0 0 0-.076.028l-.01.005-.068.026Z" fill="#FF6F8D"/></svg>