<svg version="1.1" id="Layer_1" xmlns="http://www.w3.org/2000/svg" x="0" y="0" viewBox="0 0 24 24" style="enable-background:new 0 0 24 24" xml:space="preserve"><style>.st0{fill-rule:evenodd;clip-rule:evenodd;fill:#484848}</style><path class="st0" d="M12.9 11h-.2c-.2-.2-.4-.4-.7-.6-.5-.3-1-.7-1.6-1.3-.2-.1-.3-.2-.5-.4C9.1 7.9 8.3 7 6.5 7c-1.2 0-3.3.9-3.5 4-.2 0-.5.1-.6.3-.2.2-.3.5-.2.8l.9 7c.1.5.5.9 1 .9h7.8c.5 0 .9-.4 1-.9l.9-7c0-.3 0-.6-.2-.8s-.5-.3-.7-.3zm-.3 3H3.4l-.3-2h9.7l-.2 2zm-.1 1-.1 1H3.7l-.1-1h8.9zm-6-7c1.4 0 1.9.6 2.7 1.4.1.2.3.3.4.5.5.5 1 .8 1.4 1.1H4c.2-2.3 1.7-3 2.5-3zM4.1 19l-.3-2h8.4l-.3 2H4.1zM20.3 9.3s0-.1 0 0c.1-.3.1-.7.2-1.1 0-.4.1-.8 0-1.2 0-.4-.1-.8-.4-1.2-.5-.7-1.1-.8-1.6-.8s-1.1.1-1.6.8c-.3.3-.4.8-.4 1.2v1.2c0 .4.1.8.2 1v.1c-1 .5-1.7 1.5-1.7 2.7v3.4c0 .7.8 1.2 1.5 1 .6-.2 1.4-.4 2-.4s1.4.2 2 .4c.7.2 1.5-.3 1.5-1V12c0-1.2-.7-2.2-1.7-2.7zM17.5 7c0-.3.1-.5.2-.6.2-.3.5-.4.8-.4s.6.1.8.4c.1.1.2.3.2.6v1c0 .4-.1.7-.2.9h-1.6c-.1-.2-.1-.6-.2-.9V7zm3.5 8.4c-.1.1-.1.1-.2.1-.7-.2-1.5-.4-2.3-.4s-1.7.2-2.3.4h-.1V12c0-1.1.9-2 2-2h1c1.1 0 2 .9 2 2v3.4z"/></svg>