<svg viewBox="0 0 24 24" xmlns="http://www.w3.org/2000/svg"><path d="M2.647 12.066a.5.5 0 0 1 .495-.566h9.716a.5.5 0 0 1 .495.566l-.933 7a.5.5 0 0 1-.495.434h-7.85a.5.5 0 0 1-.495-.434l-.933-7Z" stroke="#484848"/><path d="M12.5 11.494C12 11 11 10.5 10 9.5s-1.598-2-3.5-2c-1 0-3 .8-3 4" stroke="#484848" stroke-linecap="round"/><path stroke="#484848" d="M3 14.5h10M3 16.5h10"/><path fill-rule="evenodd" clip-rule="evenodd" d="M18.5 5c-.504 0-1.098.141-1.585.764-.262.335-.362.776-.397 1.174-.037.41-.012.848.034 1.24a10.903 10.903 0 0 0 .188 1.098A3 3 0 0 0 15 12v3.382c0 .743.793 1.245 1.498 1.01.628-.21 1.36-.392 2.002-.392.641 0 1.373.183 2.002.392.706.235 1.498-.267 1.498-1.01V12a3 3 0 0 0-1.74-2.724 11.57 11.57 0 0 0 .188-1.099c.046-.39.071-.829.034-1.24-.035-.397-.135-.838-.397-1.173C19.598 5.14 19.005 5 18.5 5Zm.5 5h-1a2 2 0 0 0-2 2V15.385l.001.002a.11.11 0 0 0 .034.032c.05.033.107.037.147.024.663-.22 1.516-.443 2.318-.443s1.655.223 2.318.443c.04.013.097.009.147-.024a.11.11 0 0 0 .034-.032v-.002H21V12a2 2 0 0 0-2-2Zm0-1h.297l.003-.016c.052-.242.114-.57.155-.923.042-.355.06-.718.031-1.034-.03-.328-.103-.538-.189-.648C19.051 6.064 18.79 6 18.5 6c-.29 0-.55.064-.797.38-.086.109-.16.319-.19.647-.028.316-.01.68.032 1.034.041.353.103.681.155.923l.003.016H19Z" fill="#484848"/></svg>