<svg xmlns="http://www.w3.org/2000/svg" viewBox="0 0 18 24"><path d="M8.999 0a4.88 4.88 0 014.958 4.8v.8h.686a2.665 2.665 0 012.7 2.5l.65 13.157c.033.72-.238 1.42-.745 1.93a2.753 2.753 0 01-1.956.814H2.702a2.753 2.753 0 01-1.953-.81 2.577 2.577 0 01-.746-1.93L.656 8.1a2.665 2.665 0 012.7-2.5h.685v-.8A4.88 4.88 0 018.999 0zm5.642 7.2H3.356a1.035 1.035 0 00-1.05.969l-.652 13.168c-.01.28.094.55.289.752.202.2.475.312.76.312h12.593c.284 0 .557-.113.76-.312.194-.201.298-.473.289-.752l-.653-13.168A1.035 1.035 0 0014.64 7.2zm-9.394.807a1 1 0 110 2 1 1 0 010-2zm7.504 0a1 1 0 110 2 1 1 0 010-2zM8.996 1.594a3.306 3.306 0 00-3.304 3.207v.8H12.3v-.8a3.306 3.306 0 00-3.305-3.207z"/></svg>
