<svg viewBox="0 0 44 34" fill="none" xmlns="http://www.w3.org/2000/svg"><path fill-rule="evenodd" clip-rule="evenodd" d="M35.981.98A1.506 1.506 0 0 0 34.05.094a1.494 1.494 0 0 0-.86 1.936c.212.555.362 1.221.312 1.812-.045.534-.242.981-.758 1.334-.336.229-.576.316-.757.358-.198.046-.393.055-.725.054h-.095c-.707-.002-1.709-.006-2.966.721-.632.365-1.111.792-1.47 1.284a4.614 4.614 0 0 0-.674 1.384c-.098.316-.159.545-.206.724-.094.353-.134.503-.303.721-.561.725-1.532.967-2.129.914a1.48 1.48 0 0 0-1.607 1.367 1.52 1.52 0 0 0 1.374 1.63c1.332.119 3.402-.333 4.729-2.048.574-.742.809-1.658.933-2.146.026-.099.047-.18.065-.238a1.67 1.67 0 0 1 .235-.512c.088-.12.243-.283.562-.467.564-.326.897-.326 1.513-.325h.065c.353 0 .843-.002 1.395-.13.57-.131 1.145-.379 1.757-.797 1.379-.941 1.935-2.278 2.042-3.544.102-1.208-.198-2.354-.5-3.148Zm-21.445.046A1.5 1.5 0 0 1 16.47.153c1.317.497 2.072 1.76 2.465 2.767.416 1.062.615 2.3.507 3.313-.163 1.52-.735 2.74-1.645 3.572a4.344 4.344 0 0 1-3.085 1.136 1.5 1.5 0 1 1 .091-2.998c.355.01.695-.1.968-.35.268-.245.586-.733.688-1.68.048-.453-.045-1.204-.317-1.9-.294-.75-.623-1.013-.732-1.054a1.5 1.5 0 0 1-.873-1.933ZM25 5.336a2 2 0 1 0 0-4 2 2 0 0 0 0 4ZM12.322 27.449l-8.057 2.52 3.101-8.096 4.957 5.575Zm3.141-.983 2.854-.893-8.695-9.59-1.047 2.734 6.888 7.749ZM3.176 33.48c-1.582.495-3.022-1.092-2.419-2.667L7.434 13.38c.533-1.39 2.303-1.735 3.294-.641l10.84 11.953c.99 1.093.52 2.87-.877 3.308L3.177 33.48ZM40 11.336a2 2 0 1 1-4 0 2 2 0 0 1 4 0Zm-3 16a2 2 0 1 0 0-4 2 2 0 0 0 0 4ZM19.914 14.333c0 1.105-.876 2-1.957 2-1.08 0-1.957-.895-1.957-2 0-1.104.876-2 1.957-2s1.957.896 1.957 2Zm5.58 8.137a1.493 1.493 0 0 0-1.622 1.36c-.07.826.54 1.555 1.366 1.629l3.984.357a1.493 1.493 0 0 0 1.622-1.361 1.507 1.507 0 0 0-1.366-1.629l-3.984-.356Zm-2.676-5.213a1.463 1.463 0 0 1 2.08.278 1.538 1.538 0 0 1-.284 2.124l-1.576 1.231a1.463 1.463 0 0 1-2.08-.278 1.538 1.538 0 0 1 .283-2.125l1.577-1.23ZM9.465 5.007a1.516 1.516 0 0 0-1.153 1.793l.416 1.956c.172.81.967 1.322 1.776 1.142a1.516 1.516 0 0 0 1.152-1.792l-.415-1.956a1.484 1.484 0 0 0-1.776-1.143Zm32.748 16.26a1.5 1.5 0 0 0 .667-2.013c-.64-1.272-2.463-3.664-6.026-4.273-4.596-.784-7.23 1.877-8.051 2.708l-.132.132a1.5 1.5 0 0 0 2.095 2.147l.143-.142c.765-.765 2.405-2.406 5.44-1.888 2.35.402 3.498 1.962 3.85 2.663a1.5 1.5 0 0 0 2.014.667Z" fill="#484848"/></svg>