<svg width="20" height="24" fill="none" xmlns="http://www.w3.org/2000/svg"><path d="M13.445 4.197H2.288c-1.047 0-1.897.85-1.897 1.897v16.009c0 1.046.85 1.897 1.897 1.897h11.157c1.047 0 1.898-.85 1.898-1.897V6.094a1.905 1.905 0 0 0-1.898-1.897Zm.566 17.9a.57.57 0 0 1-.57.57H2.283a.57.57 0 0 1-.57-.57V6.095a.57.57 0 0 1 .57-.57H13.44a.57.57 0 0 1 .57.57v16.004Z" fill="#fff"/><path d="M17.712 0H6.555C5.508 0 4.657.85 4.657 1.897a.66.66 0 0 0 .664.664.66.66 0 0 0 .663-.664.57.57 0 0 1 .57-.57h11.158a.57.57 0 0 1 .57.57v16.008a.57.57 0 0 1-.57.57.66.66 0 0 0-.664.664.66.66 0 0 0 .664.664c1.047 0 1.897-.85 1.897-1.898V1.897C19.609.85 18.759 0 17.712 0Z" fill="#fff"/></svg>
