<svg xmlns="http://www.w3.org/2000/svg" viewBox="0 0 24 16"><path d="M22.351 0a1.491 1.491 0 0 1 1.15.507 1.541 1.541 0 0 1 .5 1.171v12.644a1.541 1.541 0 0 1-.5 1.171 1.488 1.488 0 0 1-1.15.507H1.648a1.489 1.489 0 0 1-1.15-.507 1.54 1.54 0 0 1-.5-1.171V1.678a1.54 1.54 0 0 1 .5-1.171A1.49 1.49 0 0 1 1.648 0h20.7Zm-20.7 1.327q-.192 0-.23.117a.34.34 0 0 0-.115.234V4.35h21.39V1.678a.34.34 0 0 0-.115-.234q-.039-.117-.23-.117Zm20.7 13.347q.191 0 .23-.117a.34.34 0 0 0 .115-.234V6.666H1.303v7.655a.34.34 0 0 0 .115.234q.038.117.23.117h20.7ZM2.607 13.35v-1.37h2.646v1.37Zm3.949 0v-1.37h3.911v1.37Z"/></svg>
