<svg viewBox="0 0 22 29" xmlns="http://www.w3.org/2000/svg"><path d="M20.608 17.441a5.339 5.339 0 0 0-4.151-1.6H5.527a5.342 5.342 0 0 0-4.146 1.6 5.89 5.89 0 0 0-1.375 4.055v6.831c.051.83 1.1.867 1.1 0v-6.874a4.862 4.862 0 0 1 1.085-3.266 4.339 4.339 0 0 1 3.332-1.215h1.01v3.357a4.32 4.32 0 0 0-3.742 4.262v3.575h1.9a.547.547 0 0 0 .42-.947.547.547 0 0 0-.42-.14h-.8v-2.46a3.2 3.2 0 1 1 6.393 0v2.461a6.816 6.816 0 0 1-.709 0 .554.554 0 0 0-.556.778.556.556 0 0 0 .556.33h1.806v-3.57a4.321 4.321 0 0 0-3.749-4.263v-3.357h7.4v4.8a2.086 2.086 0 1 0 1.1 0v-4.8h.338a4.345 4.345 0 0 1 3.337 1.22 4.879 4.879 0 0 1 1.084 3.3v6.8c-.045.9 1.08.893 1.1 0v-6.785a5.927 5.927 0 0 0-1.385-4.092h.002Zm-4.061 6.325a.978.978 0 1 1-1.957-.016.978.978 0 0 1 1.957.016ZM10.994 14.143a6.173 6.173 0 0 0 5.478-8.941 3.4 3.4 0 0 0 .12-3.453 3.335 3.335 0 0 0-5.89.043 6.183 6.183 0 0 0 .292 12.352v-.001Zm2.644-13.055a2.307 2.307 0 1 1-2.29 2.307 2.3 2.3 0 0 1 2.29-2.307Zm-3.305 1.8c-.07.429-.052.868.053 1.29h-2.8a5.044 5.044 0 0 1 2.76-1.284l-.013-.006Zm-3.65 2.355h4.152a3.322 3.322 0 0 0 4.844.82c.247.601.374 1.244.375 1.893a5.113 5.113 0 0 1-3.394 4.835 5.053 5.053 0 0 1-5.65-1.634 5.147 5.147 0 0 1-.331-5.913l.005-.001Z"/></svg>
