<svg xmlns="http://www.w3.org/2000/svg" viewBox="0 0 16 16"><path d="M8 0a8 8 0 1 0 8 8 8 8 0 0 0-8-8zm0 15a6.976 6.976 0 0 1-2.769-.57l3.643-4.1A.5.5 0 0 0 9 9.998v-1.5a.5.5 0 0 0-.5-.5c-1.765 0-3.628-1.835-3.646-1.854a.5.5 0 0 0-.354-.146h-2a.5.5 0 0 0-.5.5v3a.5.5 0 0 0 .276.447L4 10.807v2.936A7 7 0 0 1 1.674 5H3.5a.5.5 0 0 0 .354-.146l2-2A.5.5 0 0 0 6 2.5V1.29a7.02 7.02 0 0 1 5.067.416 3.065 3.065 0 0 0-.188.172A3 3 0 0 0 12.998 7h.149a11.742 11.742 0 0 1-.131 5.818.5.5 0 0 0-.013.082 6.978 6.978 0 0 1-5 2.1z"/></svg>
