<svg viewBox="0 0 45 34" fill="none" xmlns="http://www.w3.org/2000/svg"><path fill-rule="evenodd" clip-rule="evenodd" d="M10 3h25a7 7 0 0 1 7 7v14a7 7 0 0 1-7 7H10a7 7 0 0 1-7-7V10a7 7 0 0 1 7-7ZM0 10C0 4.477 4.477 0 10 0h25c5.523 0 10 4.477 10 10v14c0 5.523-4.477 10-10 10H10C4.477 34 0 29.523 0 24V10Zm8.934-4.9c-.548-.622-1.437-.622-1.985 0-.548.62-.548 1.628 0 2.249l11.494 13.027c2.375 2.691 6.226 2.691 8.601 0L38.051 7.9c.548-.621.548-1.628 0-2.25-.548-.62-1.437-.62-1.985 0L25.06 18.126c-1.279 1.45-3.352 1.45-4.631 0L8.934 5.1Zm5.294 14.025c.548.62.548 1.628 0 2.25l-5.957 6.75c-.548.62-1.436.62-1.984 0-.549-.621-.549-1.629 0-2.25l5.956-6.75c.548-.621 1.437-.621 1.985 0Zm16.544 2.25c-.548-.622-.548-1.63 0-2.25.548-.621 1.437-.621 1.985 0l5.957 6.75c.548.621.548 1.629 0 2.25-.549.62-1.437.62-1.985 0l-5.957-6.75Z" fill="#484848"/></svg>