<svg version="1.1" id="Layer_1" xmlns="http://www.w3.org/2000/svg" x="0" y="0" viewBox="0 0 24 24" style="enable-background:new 0 0 24 24" xml:space="preserve"><style>.st0{fill:#484848}</style><path class="st0" d="M19.7 6.3C18.9 4.4 17 2 12 2S5.1 4.4 4.3 6.3c-1.3 3.4 0 7.7.9 8.6.3 1.5.9 3 1.9 4.2C8.4 21 10.2 22 12 22c1.8 0 3.6-1 5-2.9.9-1.2 1.5-2.7 1.9-4.2.8-.9 2.1-5.2.8-8.6zm-.9.4c.7 1.8.6 4 .2 5.6-.2-1.6-.9-3-2-4-.6-.5-1.4-1-2.2-1.3l1-1c.6-.5 1-1 1.4-1.4.7.5 1.2 1.2 1.6 2.1zm-13.6 0C6.2 4.2 8.5 3 12 3c1.8 0 3.2.3 4.4 1l-1.3 1.3c-.4.4-.9.8-1.4 1.4-.5-.1-1.1-.2-1.6-.2-1.9 0-3.7.6-4.9 1.7-1.2 1-1.8 2.4-2 4-.5-1.5-.7-3.6 0-5.5zm10.9 11.8C15 20.1 13.5 21 12 21c-1.5 0-3-.9-4.1-2.5C6.7 16.9 6 14.9 6 13.1c0-1.7.6-3.1 1.7-4.1 1.1-1 2.6-1.5 4.3-1.5s3.2.5 4.3 1.5c1.1 1 1.7 2.4 1.7 4.1 0 1.8-.7 3.8-1.9 5.4z"/><path class="st0" d="M10.5 12.5c-.3 0-.5.2-.5.5 0 .4-.3.8-.8.8s-.7-.4-.7-.8c0-.3-.2-.5-.5-.5s-.5.2-.5.5c0 1 .8 1.8 1.8 1.8S11 14 11 13c0-.3-.2-.5-.5-.5zM15.5 13c0 .4-.3.8-.8.8s-.7-.4-.7-.8c0-.3-.2-.5-.5-.5s-.5.2-.5.5c0 1 .8 1.8 1.8 1.8s1.8-.8 1.8-1.8c0-.3-.2-.5-.5-.5s-.6.2-.6.5zM13 17h-2c-.3 0-.5.2-.5.5s.3.5.5.5h2c.3 0 .5-.2.5-.5s-.2-.5-.5-.5z"/></svg>