<svg viewBox="0 0 24 24" version="1.1" xmlns="http://www.w3.org/2000/svg" xmlns:xlink="http://www.w3.org/1999/xlink">
	<path d="M8.27904506,-8.8817842e-16 C13.1523517,-8.8817842e-16 15.8057533,2.27424958 16.4297359,5.95817441 C16.8719936,8.56921559 16.1072525,11.9418143 15.1206919,12.8650718 L15.0883792,12.8914947 C14.7860053,14.3796387 14.1363855,15.8596803 13.2287747,17.0888039 C11.8783968,18.9176078 10.1106711,20 8.27904506,20 C6.44743363,20 4.6797441,18.9176282 3.32929596,17.0888046 C2.42169888,15.8596589 1.77208319,14.3796109 1.46971044,12.8914759 C1.45918481,12.8845836 1.44813194,12.8751077 1.43740403,12.8650679 C0.450861842,11.9418064 -0.313859689,8.56920964 0.128400572,5.95817378 C0.752387944,2.2742493 3.40577371,-8.8817842e-16 8.27904506,-8.8817842e-16 Z M8.27904506,5.5 C6.57187355,5.5 5.06180316,6.02311291 3.99164804,6.96921906 C2.88874366,7.94426724 2.27904506,9.33788507 2.27904506,11.0588 C2.27904506,12.8946904 2.9754924,14.9261781 4.13374881,16.4947881 C5.31022823,18.0880172 6.79964469,19 8.27904506,19 C9.75845801,19 11.2479016,18.0880021 12.4243207,16.494789 C13.5825997,14.9262003 14.2790451,12.8947184 14.2790451,11.0588 C14.2790451,9.33786845 13.6693623,7.94425468 12.5664764,6.96922286 C11.4962763,6.02310955 9.98621075,5.5 8.27904506,5.5 Z M9.31064506,15 C9.58678744,15 9.81064506,15.2238576 9.81064506,15.5 C9.81064506,15.7454599 9.6337699,15.9496084 9.4005207,15.9919443 L9.31064506,16 L7.31064506,16 C7.03450269,16 6.81064506,15.7761424 6.81064506,15.5 C6.81064506,15.2545401 6.98752022,15.0503916 7.22076943,15.0080557 L7.31064506,15 L9.31064506,15 Z M6.81064506,10.5 C7.08678744,10.5 7.31064506,10.7238576 7.31064506,11 C7.31064506,11.9752437 6.52010607,12.7658 5.54486506,12.7658 C4.56962847,12.7658 3.77904506,11.9752382 3.77904506,11 C3.77904506,10.7238576 4.00290269,10.5 4.27904506,10.5 C4.52450495,10.5 4.72865343,10.6768752 4.77098939,10.9101244 L4.77904506,11 C4.77904506,11.4229473 5.12190712,11.7658 5.54486506,11.7658 C5.93257048,11.7658 6.25295055,11.4777224 6.30365483,11.1039196 L6.31064506,11 C6.31064506,10.7238576 6.53450269,10.5 6.81064506,10.5 Z M12.3106451,10.5 C12.5867874,10.5 12.8106451,10.7238576 12.8106451,11 C12.8106451,11.9752424 12.0200874,12.7658 11.0448451,12.7658 C10.0696027,12.7658 9.27904506,11.9752424 9.27904506,11 C9.27904506,10.7238576 9.50290269,10.5 9.77904506,10.5 C10.024505,10.5 10.2286534,10.6768752 10.2709894,10.9101244 L10.2790451,11 C10.2790451,11.4229576 10.6218874,11.7658 11.0448451,11.7658 C11.4325562,11.7658 11.7529483,11.4777172 11.8036546,11.1039183 L11.8106451,11 C11.8106451,10.7238576 12.0345027,10.5 12.3106451,10.5 Z M8.27904506,1 C3.89664387,1 1.65737064,2.9193084 1.11435705,6.12517622 C0.887041225,7.46721355 1.02447167,9.05523221 1.31859989,10.2802076 C1.48324186,8.62112247 2.18400053,7.23255132 3.32929998,6.2200228 C4.5903758,5.10512686 6.33719592,4.5 8.27904506,4.5 C8.84519258,4.5 9.39476204,4.55143692 9.92055019,4.65194789 L9.92549167,4.64644661 L10.2156559,4.35999054 L12.2082746,2.42746643 L12.345196,2.29012982 C12.457637,2.17372029 12.5626339,2.06100278 12.6633552,1.94824306 C11.5498633,1.33112325 10.0993245,1 8.27904506,1 Z M13.4972159,2.51458644 L13.6631557,2.3200922 C13.4753059,2.54551196 13.2818152,2.7598401 13.0644566,2.98487018 L12.5323197,3.50842232 L11.041098,4.95308045 C11.8653817,5.24352467 12.6062762,5.66966114 13.228818,6.22002094 C14.3738789,7.23233855 15.0745713,8.62055164 15.240671,10.2777351 C15.5337308,9.05437618 15.6710322,7.46685219 15.4437792,6.12517559 C15.1877242,4.61345464 14.5544883,3.38780969 13.4972159,2.51458644 Z"></path>
</svg>
