<svg viewBox="0 0 24 24" xmlns="http://www.w3.org/2000/svg"><path d="M18.5 13.059c0 1.964-.744 4.096-1.953 5.733C15.335 20.433 13.717 21.5 12 21.5c-1.718 0-3.335-1.067-4.548-2.708-1.208-1.637-1.952-3.77-1.952-5.733 0-1.944.728-3.445 1.881-4.464C8.542 7.568 10.168 7 12 7c1.832 0 3.458.569 4.619 1.595 1.153 1.02 1.881 2.52 1.881 4.464Z" stroke="#484848"/><path d="M5.5 14.5c-1.306-1.222-3.948-12 6.5-12s7.806 10.778 6.5 12" stroke="#484848" stroke-linecap="round"/><path d="M14 7c1.5-1.5 2.25-2.1 3-3M10.532 13A1.266 1.266 0 1 1 8 13M16.032 13a1.266 1.266 0 1 1-2.532 0M11.032 17.5h2" stroke="#484848" stroke-linecap="round"/></svg>