<svg xmlns="http://www.w3.org/2000/svg" width="16" height="14" viewBox="0 0 16 14" fill="none">
  <path d="M1 10.92H4.49994" stroke="#484848" stroke-width="1.5" stroke-miterlimit="10" stroke-linecap="round" stroke-linejoin="round"/>
  <path d="M14.9999 3.22014H11.5" stroke="#484848" stroke-width="1.5" stroke-miterlimit="10" stroke-linecap="round" stroke-linejoin="round"/>
  <path d="M8.6998 10.92H14.9997" stroke="#484848" stroke-width="1.5" stroke-miterlimit="10" stroke-linecap="round" stroke-linejoin="round"/>
  <path d="M7.29989 3.22014H1" stroke="#484848" stroke-width="1.5" stroke-miterlimit="10" stroke-linecap="round" stroke-linejoin="round"/>
  <path d="M6.59995 12.9499C5.44017 12.9499 4.49998 12.0098 4.49998 10.8499C4.49998 9.69014 5.44017 8.74998 6.59995 8.74998C7.75976 8.74998 8.69991 9.69014 8.69991 10.8499C8.69991 12.0098 7.75976 12.9499 6.59995 12.9499Z" stroke="#484848" stroke-width="1.5" stroke-miterlimit="10" stroke-linecap="round" stroke-linejoin="round"/>
  <path d="M9.39925 5.25002C10.5591 5.25002 11.4992 4.30983 11.4992 3.15005C11.4992 1.99028 10.5591 1.05009 9.39925 1.05009C8.23944 1.05009 7.29929 1.99028 7.29929 3.15005C7.29929 4.30983 8.23944 5.25002 9.39925 5.25002Z" stroke="#484848" stroke-width="1.5" stroke-miterlimit="10" stroke-linecap="round" stroke-linejoin="round"/>
</svg>