<svg xmlns="http://www.w3.org/2000/svg" viewBox="0 0 114 20"><path d="M10.5 15.143L3.012 20.3l3.237-7.844L0 7.577l7.255-.054L10.5.3l3.245 7.222L21 7.577l-6.249 4.88 3.237 7.844zm46.316-.301L49.328 20l3.237-7.844-6.25-4.88 7.256-.054L56.816 0l3.245 7.222 7.255.054-6.25 4.88L64.305 20zm23.007.451l-7.488 5.158 3.237-7.844-6.249-4.88 7.255-.054L79.823.451l3.245 7.222 7.255.054-6.249 4.88 3.237 7.844zm23.76-.301l-7.488 5.158 3.237-7.844-6.25-4.88 7.256-.054L103.583.15l3.245 7.222 7.255.054-6.25 4.88 3.238 7.844zm-69.323-.15L26.77 20l3.237-7.844-6.249-4.88 7.255-.054L34.26 0l3.245 7.222 7.255.054-6.249 4.88L41.747 20z"/></svg>
