<svg viewBox="0 0 28 27" xmlns="http://www.w3.org/2000/svg"><path d="M27.022.069c-.63.073-1.252.192-1.864.356a6.807 6.807 0 0 0-3.131 1.594 4.371 4.371 0 0 0-1.364 2.354c-.085.543.026 1.1.314 1.568l-.69.691a7.666 7.666 0 0 0-.3-2.919 12.998 12.998 0 0 0-.624-1.795l-.266-.583-.524.372a12.9 12.9 0 0 0-1.439 1.242 6.814 6.814 0 0 0-1.911 2.943 4.376 4.376 0 0 0-.005 2.722 2.299 2.299 0 0 0 1.663 1.425l-1.5 1.5a7.671 7.671 0 0 0-.3-2.92 13.025 13.025 0 0 0-.622-1.793l-.266-.584-.53.373c-.51.377-.99.791-1.439 1.24a6.81 6.81 0 0 0-1.909 2.945 4.375 4.375 0 0 0-.006 2.721 2.3 2.3 0 0 0 1.664 1.426L10.421 16.5a7.65 7.65 0 0 0-.3-2.92 12.572 12.572 0 0 0-.627-1.79l-.262-.59-.525.372c-.508.378-.989.792-1.437 1.239a6.823 6.823 0 0 0-1.917 2.944 4.377 4.377 0 0 0-.006 2.721 2.3 2.3 0 0 0 1.664 1.425L.827 26.086a.53.53 0 0 0 .355.914h.013c.137 0 .27-.052.368-.147l.015-.015 6.185-6.189a2.3 2.3 0 0 0 1.424 1.662 4.365 4.365 0 0 0 2.718-.005 6.814 6.814 0 0 0 2.948-1.912c.449-.448.863-.928 1.239-1.438l.375-.521-.588-.271c-.58-.252-1.179-.46-1.79-.623a7.66 7.66 0 0 0-2.921-.3l1.551-1.551a2.301 2.301 0 0 0 1.425 1.664 4.376 4.376 0 0 0 2.722-.005 6.822 6.822 0 0 0 2.943-1.916c.45-.447.865-.926 1.245-1.433l.372-.524-.583-.266a13.058 13.058 0 0 0-1.795-.624 7.683 7.683 0 0 0-2.923-.3l1.507-1.507a2.301 2.301 0 0 0 1.426 1.666 4.365 4.365 0 0 0 2.721-.006 6.81 6.81 0 0 0 2.943-1.912c.448-.448.863-.928 1.241-1.437l.372-.525-.584-.265a13.017 13.017 0 0 0-1.794-.623 7.692 7.692 0 0 0-2.922-.3l.692-.692c.469.288 1.024.4 1.568.315a4.375 4.375 0 0 0 2.353-1.365 6.814 6.814 0 0 0 1.595-3.128c.164-.612.283-1.235.356-1.864L27.663 0l-.641.069ZM9.057 19.376a3.313 3.313 0 0 1 1.806-.989c.31-.078.629-.115.948-.111h.116c.643.024 1.28.122 1.9.293.29.072.573.167.847.284l.1.04-.064.083a5.545 5.545 0 0 1-.59.668 6.523 6.523 0 0 1-2.472 1.642 3.319 3.319 0 0 1-2.057.041 1.244 1.244 0 0 1-.525-1.954l-.009.003Zm.227-2.576a3.314 3.314 0 0 1-.993 1.806 1.241 1.241 0 0 1-1.949-.525 3.306 3.306 0 0 1 .04-2.057c.35-.94.912-1.786 1.642-2.473.206-.214.429-.41.666-.588l.085-.064c.013.033.027.064.04.1.117.274.213.557.285.847.301.957.364 1.974.184 2.961V16.8Zm4.731-2.388a3.307 3.307 0 0 1 1.8-.993c.307-.077.623-.114.94-.109h.124c.643.026 1.28.127 1.9.3.29.072.572.166.846.283l.1.04-.064.08a5.491 5.491 0 0 1-.591.67 6.162 6.162 0 0 1-2.469 1.639 3.315 3.315 0 0 1-2.057.044 1.243 1.243 0 0 1-.521-1.954h-.008Zm.227-2.568c-.132.69-.48 1.32-.993 1.8a1.242 1.242 0 0 1-1.953-.521 3.312 3.312 0 0 1 .041-2.06A6.372 6.372 0 0 1 12.979 8.6c.206-.213.429-.41.666-.588l.085-.064.04.1c.117.274.212.557.283.846.296.958.36 1.972.19 2.96l-.001-.01Zm4.682-2.341a3.31 3.31 0 0 1 1.8-.993 3.68 3.68 0 0 1 .939-.104h.122c.643.026 1.28.127 1.9.3.29.072.572.166.846.283l.1.04-.064.087c-.178.237-.374.46-.587.665a6.157 6.157 0 0 1-2.469 1.638 3.315 3.315 0 0 1-2.057.044 1.24 1.24 0 0 1-.521-1.952l-.009-.008Zm.227-2.568c-.131.69-.48 1.32-.993 1.8a1.242 1.242 0 0 1-1.953-.521 3.312 3.312 0 0 1 .04-2.057 6.371 6.371 0 0 1 1.642-2.47c.207-.214.43-.412.669-.591l.081-.064.041.1c.117.273.211.555.283.843.296.96.362 1.976.19 2.965v-.005Zm7.264-5.688c0 .033-.008.064-.013.1a5.605 5.605 0 0 1-.18.883 6.517 6.517 0 0 1-1.319 2.661 3.314 3.314 0 0 1-1.763 1.064 1.147 1.147 0 0 1-1.038-.312.52.52 0 0 0-.075-.077 1.147 1.147 0 0 1-.314-1.04 3.31 3.31 0 0 1 1.063-1.763 6.512 6.512 0 0 1 2.657-1.319c.287-.083.58-.142.877-.178l.105-.019Z"/></svg>
