<svg viewBox="0 0 20 31" fill="none" xmlns="http://www.w3.org/2000/svg"><path fill-rule="evenodd" clip-rule="evenodd" d="M16.689 5.349a1 1 0 0 0-1.415 0l-5.255 5.256-5.256-5.256a1 1 0 0 0-1.414 1.414l5.962 5.963a1 1 0 0 0 1.423-.009l5.955-5.954a1 1 0 0 0 0-1.414Z" fill="#fff"/><path fill-rule="evenodd" clip-rule="evenodd" d="M16.689 11.349a1 1 0 0 0-1.415 0l-5.255 5.256-5.256-5.256a1 1 0 0 0-1.414 1.414l5.962 5.963a1 1 0 0 0 1.423-.009l5.955-5.954a1 1 0 0 0 0-1.414Z" fill="#fff" opacity=".5"/><path fill-rule="evenodd" clip-rule="evenodd" d="M16.689 17.349a1 1 0 0 0-1.415 0l-5.255 5.256-5.256-5.256a1 1 0 0 0-1.414 1.414l5.962 5.963a1 1 0 0 0 1.423-.009l5.955-5.954a1 1 0 0 0 0-1.414Z" fill="#fff" opacity=".2"/></svg>