<svg viewBox="0 0 18 16" fill="none" xmlns="http://www.w3.org/2000/svg">
<g clip-path="url(#clip0_1503_16688)">
<path d="M8.86719 0C4.45581 0 0.867188 3.58862 0.867188 8C0.867188 12.4114 4.45581 16 8.86719 16C13.2786 16 16.8672 12.4114 16.8672 8C16.8672 3.58862 13.2786 0 8.86719 0ZM8.86719 12.6666C8.49915 12.6666 8.20056 12.368 8.20056 12C8.20056 11.632 8.49915 11.3334 8.86719 11.3334C9.23523 11.3334 9.53381 11.632 9.53381 12C9.53381 12.368 9.23523 12.6666 8.86719 12.6666ZM9.92249 8.42798C9.68652 8.53662 9.53381 8.77466 9.53381 9.03406V9.33337C9.53381 9.70129 9.23584 10 8.86719 10C8.49854 10 8.20056 9.70129 8.20056 9.33337V9.03406C8.20056 8.25598 8.65784 7.54272 9.36389 7.21667C10.0432 6.90405 10.5338 6.07397 10.5338 5.66663C10.5338 4.74805 9.7865 4 8.86719 4C7.94788 4 7.20056 4.74805 7.20056 5.66663C7.20056 6.03467 6.90247 6.33337 6.53381 6.33337C6.16516 6.33337 5.86719 6.03467 5.86719 5.66663C5.86719 4.0127 7.21313 2.66663 8.86719 2.66663C10.5212 2.66663 11.8672 4.0127 11.8672 5.66663C11.8672 6.56738 11.0858 7.89136 9.92249 8.42798Z" fill="#FF6F8D"/>
</g>
<defs>
<clipPath id="clip0_1503_16688">
<rect width="16" height="16" fill="white" transform="translate(0.867188)"/>
</clipPath>
</defs>
</svg>
