<svg width="30" height="31" fill="none" xmlns="http://www.w3.org/2000/svg"><path d="M15.29 21.276c2.291 0 4.149-1.884 4.149-4.21 0-2.324-1.858-4.21-4.15-4.21-2.29 0-4.148 1.886-4.148 4.21 0 2.326 1.857 4.21 4.149 4.21Z" stroke="#000" stroke-width=".7" stroke-miterlimit="10" stroke-linecap="round" stroke-linejoin="round"/><path d="M18.087 17.164c0 1.567-1.254 2.84-2.798 2.84" stroke="#000" stroke-width=".4" stroke-miterlimit="10" stroke-linecap="round" stroke-linejoin="round"/><path d="M20.403 10.899c1.386 0 2.51-1.14 2.51-2.546s-1.124-2.545-2.51-2.545c-1.385 0-2.508 1.14-2.508 2.545 0 1.406 1.123 2.546 2.508 2.546Z" stroke="#000" stroke-width=".7" stroke-miterlimit="10" stroke-linecap="round" stroke-linejoin="round"/><path d="M21.947 8.353c0 .881-.675 1.567-1.544 1.567" stroke="#000" stroke-width=".4" stroke-miterlimit="10" stroke-linecap="round" stroke-linejoin="round"/><path d="M5.737 21.276c.96 0 1.737-.789 1.737-1.762s-.778-1.762-1.737-1.762c-.96 0-1.737.789-1.737 1.762s.778 1.762 1.737 1.762Z" stroke="#000" stroke-width=".7" stroke-miterlimit="10" stroke-linecap="round" stroke-linejoin="round"/><path d="M6.702 19.612c0 .49-.386.979-.965.979" stroke="#000" stroke-width=".4" stroke-miterlimit="10" stroke-linecap="round" stroke-linejoin="round"/><path d="m7.474 19.122 3.763-.88M17.22 13.248l1.64-2.74" stroke="#000" stroke-width=".7" stroke-miterlimit="10" stroke-linecap="round" stroke-linejoin="round"/><path d="M22.044 10.41c1.93 3.915 3.763 8.125 3.763 10.377 0 4.797-3.86 8.713-8.587 8.713-4.728 0-8.588-3.916-8.588-8.713C8.632 15.99 17.22 1.5 17.22 1.5s1.061 1.762 2.412 4.308" stroke="#000" stroke-width=".8" stroke-miterlimit="10" stroke-linecap="round" stroke-linejoin="round"/><path d="M26 24.605c0 1.077-.869 1.86-1.834 1.86-1.061 0-1.833-.881-1.833-1.86 0-1.077 1.833-3.329 1.833-3.329S26 23.626 26 24.605Z" fill="#D9D9D9" stroke="#000" stroke-width=".7" stroke-miterlimit="10" stroke-linecap="round" stroke-linejoin="round"/><path d="M12.394 5.265c0 .83-.603 1.424-1.448 1.424-.844 0-1.447-.593-1.447-1.424 0-.83 1.447-2.492 1.447-2.492s1.448 1.78 1.448 2.492Z" stroke="#000" stroke-width=".7" stroke-miterlimit="10" stroke-linecap="round" stroke-linejoin="round"/></svg>