<svg xmlns="http://www.w3.org/2000/svg" viewBox="0 0 81 18"><path d="M78.335 13.33a2.295 2.295 0 110 4.59 2.295 2.295 0 010-4.59zm-7.539-7.102v.001a6.445 6.445 0 100 10.653v.78h3.657V5.447h-3.657v.781zm-3.326 8.47v-.001c-1.83 0-3.314-1.407-3.314-3.142 0-1.736 1.484-3.143 3.314-3.143s3.314 1.407 3.314 3.143c0 1.735-1.484 3.143-3.314 3.143zm-13.244-9.58c2.947 0 5.207 1.933 5.207 4.776v7.768h-3.654v-6.445c0-1.781-.923-2.741-2.53-2.741-1.5 0-2.746.909-2.746 2.766v6.42h-3.686V5.447h3.641v1.376c.925-1.251 2.308-1.705 3.768-1.705zm-12.698 1.92h.001c.733-.954 2.099-1.59 3.584-1.59v3.554L45.07 9c-1.448 0-3.534 1.035-3.534 2.959v5.703h-3.753V5.447h3.745v1.591zm-9.315-.81v.001a6.445 6.445 0 100 10.653v.78h3.657V5.447h-3.657v.781zm-3.326 8.47v-.001c-1.83 0-3.314-1.407-3.314-3.142 0-1.736 1.484-3.143 3.314-3.143s3.314 1.407 3.314 3.143c0 1.735-1.484 3.143-3.314 3.143zm-12.072 2.964V.003h3.828v17.659h-3.828zM14.177 0c0 3.825-1.49 7.383-4.146 10.027l5.603 7.64h-5.006l-6.09-8.303L6.11 8.187A10.143 10.143 0 0010.21 0h3.967zM0 17.667V0h4.053v17.667H0z"/></svg>
