<svg width="30" height="31" fill="none" xmlns="http://www.w3.org/2000/svg"><path d="M6.993 27.412c0 .893-.698 1.588-1.496 1.588C4.698 29 4 28.305 4 27.412c0-.298.1-.496.2-.794l1.297-2.68 1.297 2.68c.2.198.2.496.2.794ZM16.482 4.501l-3.95 3.93 7.125 7.09 3.95-3.93-7.125-7.09Z" stroke="#000" stroke-width=".8" stroke-miterlimit="10" stroke-linecap="round" stroke-linejoin="round"/><path d="m18.068 6.07 3.193-3.177C21.76 2.397 22.558 2 23.257 2c.798 0 1.496.298 1.995.893.998.993.998 2.78 0 3.772L21.86 10.04M14.875 10.735 8.19 17.386c-.699.695-1.297 1.588-1.597 2.58l-.997.994 1.496 1.488.998-.992c.998-.298 1.896-.893 2.594-1.588l6.685-6.651" stroke="#000" stroke-width=".8" stroke-miterlimit="10" stroke-linecap="round" stroke-linejoin="round"/></svg>