<svg viewBox="0 0 29 25" xmlns="http://www.w3.org/2000/svg"><path d="M24.753 17.509a3.658 3.658 0 0 0-2.154.707l-.083.063-1.841-1.873.068-.085a6.1 6.1 0 0 0 1.326-3.8 6 6 0 0 0-1.336-3.8l-.069-.085 1.851-1.873.083.063c.625.458 1.38.706 2.154.707a3.775 3.775 0 0 0 1.74-7.108 3.72 3.72 0 0 0-4.546.869 3.794 3.794 0 0 0-.232 4.657l.062.083-1.851 1.873-.084-.069A5.845 5.845 0 0 0 16.1 6.486a6.013 6.013 0 0 0-5.891 6.975l.017.108-2.575.692-.042-.091a3.718 3.718 0 0 0-4.587-1.943 3.76 3.76 0 0 0 1.636 7.287 3.748 3.748 0 0 0 3.31-3.744c0-.13-.007-.257-.019-.383l-.011-.1 2.557-.693.039.1a6.066 6.066 0 0 0 2.4 2.951.522.522 0 0 0 .722-.165.535.535 0 0 0-.163-.731 4.976 4.976 0 0 1-1.858-6.225A4.9 4.9 0 0 1 17.487 7.8a4.96 4.96 0 0 1-1.388 9.713.528.528 0 0 0-.017 1.055 5.86 5.86 0 0 0 3.768-1.351l.084-.069 1.851 1.873-.062.084a3.766 3.766 0 0 0 .246 4.619 3.7 3.7 0 0 0 4.512.852 3.748 3.748 0 0 0-1.729-7.063l.001-.004Zm0-16.458a2.7 2.7 0 0 1 2.5 1.67 2.731 2.731 0 0 1-.578 2.963 2.68 2.68 0 0 1-2.938.593 2.72 2.72 0 0 1 1.019-5.226h-.003ZM4.237 18.483a2.7 2.7 0 0 1-2.5-1.669 2.731 2.731 0 0 1 .577-2.963 2.68 2.68 0 0 1 2.938-.594 2.719 2.719 0 0 1-1.018 5.226h.003Zm20.515 5.512a2.7 2.7 0 0 1-2.5-1.669 2.732 2.732 0 0 1 .577-2.963 2.68 2.68 0 0 1 4.284.633A2.722 2.722 0 0 1 24.753 24l-.001-.005Z"/></svg>
