<svg viewBox="0 0 25 28" xmlns="http://www.w3.org/2000/svg"><path d="M24.35 13.676a.546.546 0 1 0 0-1.092h-.781V6.491h.781a.546.546 0 0 0 0-1.092h-2.642V4.251a1.14 1.14 0 0 0-1.15-1.127h-3.359a1.14 1.14 0 0 0-1.149 1.127V5.4H9.823a18.793 18.793 0 0 1-2.564-5 .541.541 0 0 0-.26-.33.565.565 0 0 0-.665.089A.548.548 0 0 0 6.19.4a19.057 19.057 0 0 1-2.6 5.053C2.105 7.75.699 9.921.922 12.561a5.435 5.435 0 0 0 5.252 4.953v9.393h-.781a.546.546 0 1 0 0 1.092H24.35a.546.546 0 1 0 0-1.092h-.781v-6.046h.781a.546.546 0 1 0 0-1.092h-.781v-6.095l.781.002ZM17.162 5.4V4.254c0-.028.009-.036.038-.036h3.356a.038.038 0 0 1 .038.036V5.4h-3.432ZM10.52 6.494h11.935v6.093H12.52v-.026c.185-2.341-.878-4.282-2-6.069v.002ZM7.283 17.518a5.43 5.43 0 0 0 5.046-3.852l.093.012h10.032v6.095H7.283v-2.255Zm-.562-1.064a4.417 4.417 0 0 1-4.694-3.975c-.191-2.279 1.116-4.3 2.5-6.441a26.444 26.444 0 0 0 2.196-3.849 26.482 26.482 0 0 0 2.195 3.848l.145.224c1.247 1.93 2.538 3.927 2.357 6.22-.19 2.373-2.076 3.97-4.7 3.97l.001.003Zm15.733 4.409v6.047H7.283v-6.049l15.171.002Z"/></svg>
