<svg fill="none" xmlns="http://www.w3.org/2000/svg" viewBox="0 0 30 36">
  <path d="M10.88 14.74a3.33 3.33 0 1 1 0-6.65 3.33 3.33 0 0 1 0 6.65Zm0-4.43a1.1 1.1 0 1 0 0 2.22 1.1 1.1 0 0 0 0-2.22ZM19.12 22.98a3.33 3.33 0 1 1 0-6.65 3.33 3.33 0 0 1 0 6.65Zm0-4.43a1.1 1.1 0 1 0 0 2.22 1.1 1.1 0 0 0 0-2.22ZM19.32 9.66l1.56 1.56-10.2 10.2-1.56-1.56 10.2-10.2Z" />
  <path d="M29.54 36H.46V.2l3.23 1.26L6.04 0l2.24 1.4L10.52 0l2.24 1.4L15 0l2.24 1.4L19.48 0l2.24 1.4L23.96 0l2.35 1.46L29.54.2V36ZM2.67 33.79h24.66V3.44l-1.25.5-2.12-1.33L21.72 4l-2.24-1.4L17.24 4 15 2.6 12.76 4l-2.24-1.4L8.28 4 6.04 2.6 3.92 3.93l-1.25-.49V33.8Z" />
  <path d="M22.82 27.28h-2.96v2.21h2.96v-2.21ZM17.65 27.28H7.18v2.21h10.47v-2.21Z" />
</svg>