<svg viewBox="0 0 34 28" xmlns="http://www.w3.org/2000/svg"><path d="M33.217 5.423a6.229 6.229 0 00-5.733-4.341h-.082a6.184 6.184 0 00-5.815 4.1l-.41.9-.9-.246a10.894 10.894 0 00-6.061 0l-.9.246-.328-.9a6.276 6.276 0 00-3.114-3.527A5.986 5.986 0 007.171 1a6.091 6.091 0 00-5.815 8.108 6.321 6.321 0 003.931 3.849l.983.328-.328.983a20.465 20.465 0 00-.573 4.423c0 5 5.324 9.009 11.876 9.009s11.876-4.013 11.876-9.009a15.478 15.478 0 00-.655-4.341l-.328-.983.983-.328a6.016 6.016 0 003.6-3.03 6 6 0 00.496-4.586zM5.943 12.385A5.383 5.383 0 012.093 6a5.414 5.414 0 016.47-3.931 5.1 5.1 0 013.768 3.6l.246.737-.655.41a12.648 12.648 0 00-4.75 5l-.41.655-.819-.086zm22.36 6.307c0 4.423-5.078 8.19-11.057 8.19-5.9 0-10.975-3.768-10.975-8.19 0-6.88 4.914-12.449 11.057-12.449 6.143 0 10.975 5.568 10.975 12.448v.001zm4.1-9.91a5.381 5.381 0 01-3.768 3.603l-.737.164-.41-.655a12.134 12.134 0 00-4.75-5l-.737-.41.246-.737a5.35 5.35 0 016.634-3.522 5.092 5.092 0 013.112 2.539 5.245 5.245 0 01.405 4.017l.005.001z"/><path d="M17.245 13.941c-1.884 0-3.276 2.048-3.276 4.75 0 2.621 1.474 4.75 3.276 4.75 1.884 0 3.276-2.048 3.276-4.75.082-2.621-1.392-4.75-3.276-4.75zm0 8.6c-1.31 0-2.457-1.8-2.457-3.849 0-2.049 1.147-3.851 2.457-3.851 1.31 0 2.457 1.72 2.457 3.849 0 2.129-1.064 3.851-2.457 3.851zm-5.651-7.454a.738.738 0 100 1.475.738.738 0 000-1.475zm11.385 0a.738.738 0 10.737.737.686.686 0 00-.737-.737z"/></svg>
