<svg viewBox="0 0 27 26" xmlns="http://www.w3.org/2000/svg"><path d="M25.929 12.66a.479.479 0 0 0-.339-.141h-3.421a9.002 9.002 0 0 0-.981-3.653l2.964-1.712a.478.478 0 0 0-.116-.878.486.486 0 0 0-.364.048l-2.964 1.713a9.248 9.248 0 0 0-2.676-2.675L19.744 2.4a.48.48 0 0 0-.83-.479l-1.711 2.961a9.012 9.012 0 0 0-3.656-.982V.479a.48.48 0 0 0-.958 0V3.9a9 9 0 0 0-3.653.98L7.224 1.917a.481.481 0 0 0-.902.298.48.48 0 0 0 .072.181l1.713 2.966a9.23 9.23 0 0 0-2.676 2.675L2.469 6.324a.48.48 0 0 0-.477.83l2.959 1.712a8.991 8.991 0 0 0-.982 3.653H.548a.48.48 0 0 0 0 .958h3.421a8.993 8.993 0 0 0 .981 3.656l-2.962 1.711a.48.48 0 0 0 .479.83l2.964-1.712a9.251 9.251 0 0 0 2.676 2.675L6.394 23.6a.48.48 0 0 0 .83.48l1.712-2.965a9.012 9.012 0 0 0 3.653.98v3.423a.479.479 0 1 0 .958 0V22.1a9.014 9.014 0 0 0 3.657-.981l1.711 2.966a.48.48 0 0 0 .83-.479l-1.71-2.964a9.244 9.244 0 0 0 2.676-2.674l2.958 1.71a.48.48 0 0 0 .479-.83l-2.959-1.712a8.996 8.996 0 0 0 .981-3.653h3.42a.48.48 0 0 0 .339-.818v-.005Zm-4.7.339a8.155 8.155 0 1 1-8.16-8.154A8.156 8.156 0 0 1 21.224 13l.005-.001Z"/><path d="M16.069 11a4 4 0 1 0 0 8 4 4 0 0 0 0-8Zm3.043 4a3.042 3.042 0 1 1-6.084 0 3.042 3.042 0 0 1 6.084 0Zm-4.543-6a1.5 1.5 0 1 0 0-3 1.5 1.5 0 0 0 0 3Zm-.583-1.5a.584.584 0 1 1 1.167 0 .584.584 0 0 1-1.167 0ZM9.569 11a1.5 1.5 0 1 0 0-3 1.5 1.5 0 0 0 0 3Zm-.568-1.5a.57.57 0 1 1 1.14-.006.57.57 0 0 1-1.14.006Zm.568 5.5a1.5 1.5 0 1 0 0 3 1.5 1.5 0 0 0 0-3Zm.567 1.5a.567.567 0 1 1-1.134 0 .567.567 0 0 1 1.134 0Z"/></svg>
