<svg xmlns="http://www.w3.org/2000/svg" viewBox="0 0 16 20"><path d="M8.472 0C2.853 0 0 3.9 0 7.166a6.322 6.322 0 0 0 .217 1.726 3.8 3.8 0 0 0 2.213 2.671.4.4 0 0 0 .586-.282c.065-.206.184-.706.25-.923a.534.534 0 0 0-.163-.641 3.108 3.108 0 0 1-.651-1.195 3.936 3.936 0 0 1-.141-1.064 5.541 5.541 0 0 1 5.847-5.5c3.178 0 4.936 1.878 4.936 4.4a10.336 10.336 0 0 1-.217 2.128c-.5 2.312-1.8 3.984-3.547 3.984a1.8 1.8 0 0 1-1.876-2.215c.174-.683.423-1.4.64-2.1a7.37 7.37 0 0 0 .423-1.976 1.555 1.555 0 0 0-1.616-1.726c-1.27 0-2.289 1.281-2.289 2.974a4.663 4.663 0 0 0 .076.847 4.177 4.177 0 0 0 .3.977s-1.3 5.331-1.519 6.264a12.373 12.373 0 0 0-.032 4.365c.011.13.2.163.282.065a12.161 12.161 0 0 0 2.147-3.756c.13-.521.836-3.17.836-3.17a3.385 3.385 0 0 0 2.9 1.444c3.091 0 5.391-2.247 6.14-5.515a10.43 10.43 0 0 0 .26-2.367c0-3.42-2.983-6.579-7.528-6.579z"/></svg>
