<svg viewBox="0 0 54 55" fill="none" xmlns="http://www.w3.org/2000/svg">
<path d="M41.1361 15.5142L40.8013 14.6631" stroke="#E76E68" stroke-width="2" stroke-linecap="round" stroke-linejoin="round"/>
<path d="M39.3304 10.9253L38.9956 10.0742" stroke="#E76E68" stroke-width="2" stroke-linecap="round" stroke-linejoin="round"/>
<path d="M37.3452 13.865L38.1963 13.5302" stroke="#E76E68" stroke-width="2" stroke-linecap="round" stroke-linejoin="round"/>
<path d="M41.9341 12.0592L42.7851 11.7244" stroke="#E76E68" stroke-width="2" stroke-linecap="round" stroke-linejoin="round"/>
<path d="M18.0513 43.957H33.2512C33.2512 43.957 34.0072 40.1576 30.9714 40.1576H20.3312C17.291 40.1576 18.0513 43.957 18.0513 43.957Z" stroke="#E76E68" stroke-linecap="round" stroke-linejoin="round"/>
<path d="M25.6512 28.7571L23.4458 30.416C22.2427 31.3182 21.2662 32.4881 20.5936 33.8331C19.921 35.1781 19.5708 36.6612 19.5708 38.165V40.1576H31.7316V37.0591C31.7315 35.8974 31.4609 34.7516 30.9413 33.7125C30.4217 32.6735 29.6673 31.7696 28.7378 31.0727L25.6512 28.7571Z" stroke="#E76E68" stroke-linecap="round" stroke-linejoin="round"/>
<path d="M18.0513 13.5583H33.2512C33.2512 13.5583 34.0072 17.3577 30.9714 17.3577H20.3312C17.291 17.3577 18.0513 13.5583 18.0513 13.5583Z" stroke="#E76E68" stroke-linecap="round" stroke-linejoin="round"/>
<path d="M25.6512 28.7571L22.4728 26.3746C21.5719 25.6987 20.8407 24.8224 20.337 23.8151C19.8333 22.8077 19.571 21.697 19.5708 20.5707V17.3577H31.7316V19.468C31.7322 20.9363 31.3909 22.3845 30.7348 23.698C30.0787 25.0115 29.1258 26.1542 27.9516 27.0356L25.6512 28.7571Z" stroke="#E76E68" stroke-linecap="round" stroke-linejoin="round"/>
<path d="M19.7402 37.0256C19.7402 37.0256 22.6962 37.6931 25.6511 36.3571C28.606 35.0211 31.5619 35.6897 31.5619 35.6897" stroke="#E76E68" stroke-linecap="round" stroke-linejoin="round"/>
</svg>
