<svg width="55" height="56" fill="none" xmlns="http://www.w3.org/2000/svg"><g clip-path="url(#a)"><path d="M14.575 28.59A50.902 50.902 0 0 0 11.041 28a50.826 50.826 0 0 0 3.533-.592c3.678-.765 6.413-1.915 8.414-3.917 2.002-2.002 3.152-4.736 3.917-8.415.225-1.082.42-2.258.592-3.534.172 1.276.366 2.452.591 3.534.766 3.679 1.915 6.413 3.917 8.415 2.002 2.002 4.737 3.152 8.415 3.917 1.083.225 2.26.42 3.536.592-1.276.173-2.451.367-3.534.592-3.678.765-6.413 1.915-8.414 3.916-2.002 2.002-3.152 4.737-3.917 8.416a50.902 50.902 0 0 0-.592 3.534 50.961 50.961 0 0 0-.592-3.535c-.765-3.678-1.915-6.413-3.917-8.414-2.002-2.002-4.736-3.152-8.415-3.917Z" stroke="#50973B" stroke-width="2"/><path d="M38.197 28.465s-5.264 7.305-5.59 11.344c-.326 4.038 1.97 6.042 5.492 6.145 3.522.102 11.375-3.032.098-17.49Z" fill="#fff" stroke="#519751" stroke-width="2" stroke-linecap="round" stroke-linejoin="round"/><path d="M41.28 41.14v-.001c.153-.8-.002-1.636-.216-2.43l.216 2.43Zm0 0c-.118.62-.412 1.248-.969 1.536m.969-1.537-.969 1.537m0 0a.292.292 0 0 0-.16.202.326.326 0 0 0 .042.227c.076.13.249.228.434.132m-.316-.561.316.561m0 0c.71-.367 1.11-1.14 1.264-1.872m-1.264 1.872 1.264-1.872m0 0-.098-.02.098.02Z" fill="#519751" stroke="#50973B" stroke-width=".2"/><path d="m40.98 37.597-.137-.502" stroke="#519751" stroke-miterlimit="10" stroke-linecap="round"/></g><defs><clipPath id="a"><path fill="#fff" transform="translate(0 .5)" d="M0 0h55v55H0z"/></clipPath></defs></svg>