<svg xmlns="http://www.w3.org/2000/svg" id="aoct" viewBox="0 0 247.85 247.85"><defs><style>.baoct{fill:#286117;}.caoct{fill:none;stroke-miterlimit:10;stroke-width:2px;}.caoct,.daoct{stroke:#286117;stroke-linecap:round;}.daoct{fill:#fff !important;stroke-linejoin:round;stroke-width:6px;}</style></defs><path class="baoct" d="M247.85,123.92c-110.15,7.6-116.32,13.77-123.92,123.92-7.6-110.15-13.77-116.32-123.92-123.92C110.15,116.32,116.32,110.15,123.92,0c7.6,110.15,13.77,116.32,123.92,123.92Z" style="stroke: #286117;fill: #fff;stroke-width: 6px;"/><path class="daoct" d="M172.13,126.02s-23.72,32.92-25.19,51.12c-1.47,18.2,8.88,27.23,24.75,27.69,15.87,.46,51.26-13.66,.44-78.81Z"/><path class="baoct" d="M189.99,172.07c.97,3.59,1.69,7.44,.98,11.15-.54,2.85-1.91,5.85-4.6,7.24-1.14,.59-.13,2.32,1.01,1.73,3.03-1.57,4.78-4.9,5.46-8.13,.88-4.16,.17-8.47-.92-12.52-.34-1.24-2.27-.71-1.93,.53h0Z"/><line class="caoct" x1="189.18" y1="167.17" x2="188.56" y2="164.91"/></svg>
