<svg xmlns="http://www.w3.org/2000/svg" fill="none" viewBox="0 0 26 35">
  <rect width="100%" height="100%"/>
  <g class="currentLayer">
    <path stroke="currentColor" stroke-linecap="round" stroke-linejoin="round" stroke-width="2" d="m23.17 6.439-.336-.85m-1.47-3.739L21.028 1m-1.65 3.79.85-.335m3.738-1.47.851-.336" style="fill:none"/>
    <path stroke="currentColor" stroke-linecap="round" stroke-linejoin="round" d="M.084 34.882h15.2s.756-3.8-2.28-3.8H2.364c-3.04 0-2.28 3.8-2.28 3.8z" style="fill:none"/>
    <path stroke="currentColor" stroke-linecap="round" stroke-linejoin="round" d="M7.684 19.682 5.48 21.341a9.686 9.686 0 0 0-3.875 7.749v1.993h12.16v-3.099a7.484 7.484 0 0 0-2.993-5.986l-3.087-2.316zM.084 4.483h15.2s.756 3.8-2.28 3.8H2.364c-3.04 0-2.28-3.8-2.28-3.8z" style="fill:none"/>
    <path stroke="currentColor" stroke-linecap="round" stroke-linejoin="round" d="M7.684 19.682 4.506 17.3a7.258 7.258 0 0 1-2.902-5.804V8.283h12.16v2.11a9.457 9.457 0 0 1-3.78 7.568l-2.3 1.721zm-5.91 8.269s2.955.667 5.91-.669 5.91-.667 5.91-.667" style="fill:none"/>
  </g>
</svg>
