<svg xmlns="http://www.w3.org/2000/svg" viewBox="0 0 22.5 30"><path d="M11.242 30C5.042 30 0 25.324 0 19.574 0 13.037 8.407 2.535 10.1.497a1.581 1.581 0 0 1 2.3 0c1.683 2.037 10.1 12.54 10.1 19.077C22.485 25.325 17.447 30 11.242 30zm0-27.462C6.816 8.051 2.235 15.279 2.235 19.574c0 4.587 4.042 8.322 9 8.325 4.964 0 9-3.735 9.007-8.325.01-5.34-6.824-14.314-9-17.035zm-1.166 23.468a.8.8 0 0 1-.093 0 7.087 7.087 0 0 1-4.649-2.867 6.113 6.113 0 0 1-1.006-4.846 6.361 6.361 0 0 1 .436-1.306 1.151 1.151 0 0 1 1.473-.534 1.07 1.07 0 0 1 .595.594.97.97 0 0 1-.029.8 4.109 4.109 0 0 0-.046 3.348 4.61 4.61 0 0 0 2.6 2.473 5.207 5.207 0 0 0 .926.267 1.055 1.055 0 0 1 .9 1.119 1.092 1.092 0 0 1-1.107.952z"/></svg>
