<svg viewBox="0 0 17 16" fill="none" xmlns="http://www.w3.org/2000/svg">
<g clip-path="url(#clip0_1503_17143)">
<path d="M8.35066 0.396788C7.46004 0.499913 6.80691 0.671788 6.05379 0.990538C5.03504 1.42491 4.01316 2.17804 3.31629 3.00616C2.81941 3.59991 2.75691 3.72804 2.91316 3.83116C3.04129 3.91554 3.11941 3.86866 3.35379 3.55616C3.61004 3.21241 4.21941 2.58741 4.56316 2.31866C5.65691 1.45616 6.92566 0.937413 8.33191 0.778038C8.74441 0.731163 9.73816 0.756163 10.1632 0.824913C11.7319 1.07804 13.1225 1.80304 14.235 2.94991C16.5663 5.35616 16.9194 9.07179 15.0882 11.8655C14.535 12.7062 13.8913 13.3655 13.0882 13.903C11.8694 14.7218 10.5507 15.1249 9.08504 15.128C7.91316 15.128 6.94754 14.9093 5.89441 14.403C5.46941 14.1968 5.38191 14.1843 5.30691 14.3155C5.23504 14.4437 5.31629 14.5374 5.65379 14.7062C8.57254 16.1718 12.1194 15.5999 14.4163 13.2968C15.6194 12.0905 16.3382 10.6155 16.5882 8.84366C16.6382 8.49054 16.6382 7.40304 16.5882 7.03116C16.3725 5.42491 15.7225 4.01554 14.66 2.83429C13.4819 1.52491 11.7725 0.643662 9.99129 0.421788C9.64129 0.381163 8.62566 0.362412 8.35066 0.396788Z" fill="black"/>
<path d="M8.86629 2.30302C8.84129 2.3124 7.77879 2.86865 6.50692 3.5374C4.76942 4.45302 4.16629 4.78428 4.08192 4.87178C3.99754 4.95928 3.95692 5.03428 3.93192 5.1624C3.90692 5.28428 3.89754 6.11553 3.90379 8.0499C3.91317 11.0405 3.90067 10.8437 4.10692 11.0374C4.15379 11.0812 5.25379 11.678 6.55067 12.3624C8.79442 13.5437 8.91317 13.603 9.07254 13.603C9.22879 13.603 9.35067 13.5437 11.6007 12.3593C12.8975 11.6749 13.9975 11.078 14.0413 11.0343C14.2382 10.8374 14.2257 11.0405 14.2257 7.9374C14.2257 4.81865 14.2382 5.03115 14.0319 4.8374C13.985 4.79365 12.8975 4.20302 11.6163 3.52802C9.37879 2.34678 9.28192 2.2999 9.10067 2.29052C8.99754 2.2874 8.89129 2.29052 8.86629 2.30302ZM9.66004 2.91865C9.93504 3.06553 10.1913 3.20302 10.2225 3.22802C10.2757 3.26865 10.1569 3.33428 8.89442 3.96865C8.13192 4.35303 7.46317 4.69053 7.40692 4.72178C7.35379 4.75303 6.93817 4.9624 6.48504 5.19053L5.66317 5.60303L5.09129 5.3124C4.77879 5.15303 4.52879 5.01552 4.53504 5.00928C4.54129 5.00303 5.54129 4.47178 6.76004 3.82802C8.13504 3.10302 9.01004 2.65928 9.06629 2.65615C9.11942 2.65615 9.35692 2.7624 9.66004 2.91865ZM10.9757 3.61553C11.1132 3.68427 11.3444 3.80615 11.485 3.88428L11.7475 4.0249L9.50067 5.15615C8.26629 5.77803 7.21629 6.3249 7.16629 6.37178C6.96629 6.55615 6.96004 6.58428 6.96004 7.84365V8.98428L6.70067 8.7249C6.41317 8.44053 6.31004 8.39053 6.10379 8.4374C5.84129 8.49678 5.86629 8.62178 5.86629 7.2249C5.86629 6.27803 5.87567 5.96865 5.90692 5.93115C5.92567 5.90303 6.78817 5.45303 7.81942 4.93428C8.85067 4.4124 9.91942 3.87177 10.1944 3.72803C10.4694 3.5874 10.7007 3.47178 10.71 3.47802C10.7194 3.48115 10.8382 3.54365 10.9757 3.61553ZM12.8975 4.62803C13.2944 4.83428 13.6163 5.00928 13.6163 5.01552C13.6163 5.0499 9.13817 7.28115 9.07254 7.28115C8.99754 7.28115 7.58504 6.5999 7.58504 6.5624C7.58504 6.54053 12.0913 4.25615 12.1413 4.25303C12.1632 4.2499 12.5038 4.41865 12.8975 4.62803ZM4.91317 5.6374L5.47567 5.93115L5.49129 7.26865C5.50379 8.27803 5.51629 8.62803 5.54754 8.67803C5.63192 8.82803 5.88817 8.8874 6.13192 8.81553C6.21942 8.79053 6.24129 8.80303 6.50067 9.05928L6.77254 9.32803H6.94442C7.09442 9.32803 7.12567 9.31553 7.21629 9.2249L7.31942 9.1249L7.32879 7.99678C7.33192 7.37803 7.34754 6.8749 7.36317 6.88115C7.37567 6.8874 7.72567 7.0624 8.14129 7.2749L8.89754 7.65928V10.4093C8.89754 11.9187 8.89129 13.1562 8.88192 13.1562C8.83817 13.1562 4.43817 10.8218 4.36942 10.7624L4.28817 10.6937L4.27879 8.01865C4.27254 5.87178 4.27879 5.34365 4.31004 5.34365C4.33192 5.34365 4.60379 5.47803 4.91317 5.6374ZM13.86 8.0124C13.8507 10.5812 13.8475 10.6843 13.7913 10.7468C13.76 10.7812 13.535 10.9155 13.2913 11.0437C13.0475 11.1687 12.1038 11.6687 11.1882 12.1499C10.2725 12.6343 9.46942 13.0562 9.40067 13.0937L9.27254 13.1562V10.3999V7.64053L11.3694 6.58115C12.5225 5.9999 13.5382 5.48428 13.6257 5.43428C13.7163 5.3874 13.8069 5.34678 13.8288 5.34678C13.86 5.34365 13.8663 5.8749 13.86 8.0124Z" fill="black"/>
<path d="M2.28819 2.79063C2.24444 2.85625 2.25069 2.9125 2.33194 3.41563C2.43194 4.0125 2.47257 4.125 2.64757 4.24063C2.77882 4.33125 2.92882 4.33125 3.45382 4.25C3.98507 4.16563 4.01632 4.15938 4.06944 4.10313C4.14132 4.03125 4.12882 3.88438 4.04444 3.83125C3.98194 3.7875 3.92569 3.79063 3.50694 3.85938C2.93819 3.95313 2.84757 3.95625 2.81007 3.88125C2.79132 3.85313 2.75069 3.6375 2.71319 3.40625C2.61944 2.825 2.61632 2.81875 2.56319 2.76563C2.49132 2.69375 2.34444 2.70625 2.28819 2.79063Z" fill="black"/>
<path d="M1.62881 8.125C1.49131 8.17813 1.48193 8.22188 1.51943 8.61563C1.56006 9.01875 1.59443 9.09375 1.74443 9.09375C1.80381 9.09375 1.85068 9.06875 1.88193 9.01875C1.92568 8.95313 1.92568 8.9 1.89443 8.59063C1.87568 8.39375 1.84756 8.2125 1.83193 8.18438C1.80068 8.12188 1.71318 8.09688 1.62881 8.125Z" fill="black"/>
<path d="M1.71318 9.42792C1.67568 9.47167 1.65381 9.53105 1.66006 9.55917C1.66943 9.5873 1.70381 9.72792 1.74131 9.8748C1.83506 10.2467 1.86318 10.2936 1.98506 10.3061C2.20068 10.3279 2.21943 10.2279 2.09756 9.75917C1.99131 9.3498 1.86006 9.2373 1.71318 9.42792Z" fill="black"/>
<path d="M2.08508 10.5937C2.05071 10.628 2.02258 10.678 2.02258 10.703C2.02258 10.778 2.30383 11.3874 2.36008 11.428C2.46633 11.5124 2.61008 11.4718 2.65696 11.3405C2.67883 11.278 2.38821 10.6249 2.31633 10.5718C2.23821 10.5124 2.15696 10.5218 2.08508 10.5937Z" fill="black"/>
<path d="M2.63508 11.7249C2.60696 11.7624 2.58508 11.8124 2.58508 11.8311C2.58508 11.8749 2.92571 12.3968 3.00383 12.4749C3.06633 12.5405 3.21946 12.5499 3.26633 12.4905C3.35383 12.3811 3.33821 12.3249 3.12571 12.0124C3.01321 11.8436 2.90383 11.6936 2.88508 11.6811C2.81321 11.6311 2.68196 11.6561 2.63508 11.7249Z" fill="black"/>
<path d="M3.37881 12.7342C3.30693 12.8467 3.34443 12.9217 3.62568 13.2092C3.89443 13.4873 3.99131 13.528 4.09443 13.4123C4.19756 13.2998 4.16006 13.2186 3.87568 12.9311C3.57256 12.628 3.47568 12.5873 3.37881 12.7342Z" fill="black"/>
<path d="M4.31633 13.5719C4.17883 13.6906 4.22571 13.775 4.56633 14.0312C4.87259 14.2625 4.97259 14.2937 5.06321 14.1937C5.15384 14.0937 5.12884 13.9812 5.00071 13.8875C4.93509 13.8406 4.80384 13.7437 4.71009 13.6719C4.47883 13.4937 4.42258 13.4812 4.31633 13.5719Z" fill="black"/>
</g>
<defs>
<clipPath>
<rect width="16" height="16" fill="white" transform="translate(0.866333)"/>
</clipPath>
</defs>
</svg>
