<svg xmlns="http://www.w3.org/2000/svg" viewBox="0 0 70 68"><path d="M24.43 47.622H11.808l4.945-9.823 4.623 3.745a1.164 1.164 0 001.851-1.224l-4.655-16.289a1.162 1.162 0 00-1.283-.833L1 25.526a1.163 1.163 0 00-.434 2.149l4.853 2.912-3.975 7.154a11.467 11.467 0 00-.622 9.826l3.847 9.619a6.971 6.971 0 006.967 6.724h12.8a1.164 1.164 0 001.164-1.163V48.784a1.164 1.164 0 00-1.169-1.162zM2.324 43.311c0-1.554.396-3.082 1.15-4.44l4.521-8.136c.304-.55.12-1.24-.419-1.564l-3.007-1.8 12.04-1.72 3.363 11.769-2.88-2.334a1.164 1.164 0 00-1.77.381L5.935 54.105l-2.959-7.4a9.148 9.148 0 01-.653-3.394zm20.942 18.274H11.631a4.64 4.64 0 01-4.63-4.424l3.63-7.211h12.635v11.635zM41.15 19.022l-5.116 3.034a1.163 1.163 0 00.5 2.161l16.892 1.294a1.164 1.164 0 001.226-.914l3.476-16.082a1.163 1.163 0 00-1.865-1.154L51.847 10.9 46.52 4.688a11.473 11.473 0 00-9-4L27.164.954a6.972 6.972 0 00-8.726 4.2l-4.445 12a1.164 1.164 0 00.688 1.495L27.772 23.5a1.162 1.162 0 001.495-.687l4.388-11.84 7.495 8.049zM37.585 3.014a9.138 9.138 0 017.171 3.188l6.061 7.066a1.164 1.164 0 001.611.15l2.736-2.192-2.569 11.887-12.2-.939 3.19-1.89a1.163 1.163 0 00.256-1.794L29.625 3.215l7.96-.201zm-10.09 17.9l-10.91-4.043 4.04-10.911a4.638 4.638 0 015.756-2.8l5.5 5.91-4.387 11.844zM69.807 42.969a.814.814 0 00-.019-.093 1.108 1.108 0 00-.045-.227 1.173 1.173 0 00-.084-.218c-.015-.029-.016-.06-.034-.087l-8.145-12.8a1.165 1.165 0 00-1.628-.344l-10.47 6.981a1.164 1.164 0 00-.265 1.7l7.8 9.745H45.374v-4.654a1.164 1.164 0 00-2.029-.779l-10.47 11.635a1.026 1.026 0 00-.087.146 1.2 1.2 0 00-.119.2c-.024.07-.042.141-.053.214a1.089 1.089 0 00-.03.219c.013.147.041.291.084.432.032.07.071.137.116.2.026.051.055.1.087.148l10.471 11.635a1.164 1.164 0 002.03-.779v-4.654h8.577a10.1 10.1 0 006.976-2.775 31.1 31.1 0 007.585-11.8 6.948 6.948 0 001.295-4.045zm-18.08-5.554l8.426-5.617 7.3 11.464a4.637 4.637 0 01-4.625 4.361h-2.93l-8.172-10.208zm7.593 19.71a7.773 7.773 0 01-5.37 2.133h-9.742c-.643 0-1.164.521-1.164 1.164v2.785l-7.743-8.6 7.743-8.6v2.786c0 .643.521 1.164 1.164 1.164h18.618c.672 0 1.341-.098 1.985-.29a27.523 27.523 0 01-5.485 7.458h-.006z"/></svg>
