<svg viewBox="0 0 15 16" xmlns="http://www.w3.org/2000/svg"><path d="M5.386.601c-6.088.913-6.926 9.622-2.674 13.078-.362.174-.725.345-1.092.51-.488.219-.6.918-.352 1.342.292.498.854.57 1.342.352a69.736 69.736 0 002.65-1.275.868.868 0 00.433-.444c.2-.24.268-.574.213-.91a23.734 23.734 0 01-.26-2.387c-.074-1.257-2.037-1.265-1.961 0 .021.362.053.722.09 1.082C.914 9.234 1.438 3.163 5.907 2.493c1.248-.187.716-2.077-.521-1.892zM12.01 2.32c.363-.173.726-.345 1.093-.509.489-.219.6-.919.352-1.342-.291-.498-.854-.571-1.342-.352-.895.4-1.772.837-2.649 1.275a.869.869 0 00-.433.444c-.2.24-.268.573-.214.91.129.791.212 1.586.26 2.387.075 1.257 2.037 1.265 1.962 0a26.408 26.408 0 00-.09-1.082c2.86 2.715 2.336 8.786-2.133 9.456-1.248.187-.716 2.077.521 1.892 6.088-.913 6.927-9.622 2.674-13.078z"/></svg>