<svg xmlns="http://www.w3.org/2000/svg" viewBox="0 0 36.7 33.8"><path d="M20.1 0C15.5 0 11.2 1.8 8 5.1c-.3.4-.3.9 0 1.2.3.3.9.3 1.2 0 2.8-3 6.7-4.6 10.8-4.6 8.4 0 15.1 6.8 15.1 15.2S28.3 32.1 20 32.1c-8.4 0-15.1-6.8-15.1-15.2 0-.1 0-.3-.1-.4l1.7 1.7c.2.2.4.2.6.3.2 0 .4-.1.6-.3.3-.4.3-.9 0-1.2l-3.1-3.1c-.1 0-.1 0-.2-.1-.2-.2-.5-.2-.8-.1-.1 0-.2.1-.3.2L.3 17c-.3.3-.3.9 0 1.2.2.2.4.2.6.3.2 0 .4-.1.6-.3l1.7-1.7c-.1.1-.2.3-.2.4 0 9.3 7.5 16.9 16.8 16.9s16.9-7.6 16.8-16.9C36.7 7.7 29.3.1 20.1 0z"/><path d="M14.7 24.1c.3 0 .6-.1.9-.3.5.5 1.2.7 1.9.7H25c.7 0 1.4-.2 1.9-.7.6-.5 1-1.2 1.1-2.1l1-6.2v-.1c0-.8-.3-1.5-.8-2s-1.2-.9-2-.9h-3.3v-2.1c.1-1.1-.3-2.1-1.2-2.9-.9-.5-1.9-.7-2.9-.4-.4.1-.6.5-.7.9v3c0 .8-.4 1.6-1.1 2-.4.3-.8.5-1.3.6-.3-.3-.7-.4-1.2-.4h-1.9c-1 0-1.8.8-1.8 1.8v7.2c0 1 .8 1.8 1.8 1.8h2.1v.1zM20.1 9c.2 0 .4.1.6.2.3.3.5.8.4 1.3v3.1c0 .5.4.9.9.9h4.1c.2 0 .5.1.7.3s.3.4.3.7l-1 6.1c0 .3-.2.6-.4.8-.2.2-.6.3-.9.3h-7.5c-.5 0-1-.4-1-1v-6.1c1.8-.6 3.7-2.1 3.7-4.4V9h.1zm-5.5 6.2v7h-1.7v-7h1.7zm11.6-2.1z"/></svg>
