<svg width="32" height="26" fill="none" xmlns="http://www.w3.org/2000/svg"><mask id="a" maskUnits="userSpaceOnUse" x="0" y="0" width="32" height="26" fill="#000"><path fill="#fff" d="M0 0h32v26H0z"/><path d="M16.005 25c-2.258 0-3.055-1.877-3.055-3.509a9.19 9.19 0 0 1 .538-2.89 8.993 8.993 0 0 0 .548-2.946 1.233 1.233 0 0 0-.377-.898 1.291 1.291 0 0 0-.92-.368H1.336a.333.333 0 0 1-.24-.094A.319.319 0 0 1 1 14.06a.322.322 0 0 1 .099-.232.337.337 0 0 1 .237-.096H12.74c.26-.007.52.039.761.133.242.095.462.236.646.416s.329.394.425.63c.097.237.144.49.137.744a9.51 9.51 0 0 1-.576 3.143 8.424 8.424 0 0 0-.51 2.693c0 .666.173 2.815 2.383 2.815s2.373-2.186 2.373-2.815a8.424 8.424 0 0 0-.51-2.693 9.768 9.768 0 0 1-.576-3.143c-.007-.254.04-.507.136-.743.097-.237.242-.451.426-.631s.404-.322.646-.416c.242-.094.5-.14.761-.133h11.403a.343.343 0 0 1 .237.096.329.329 0 0 1 .003.467.326.326 0 0 1-.24.094H19.26a1.313 1.313 0 0 0-.92.368 1.254 1.254 0 0 0-.377.898c.017 1.005.202 2 .548 2.946.345.928.533 1.904.557 2.89 0 1.614-.816 3.509-3.064 3.509ZM12.739 10.148a.34.34 0 0 1-.238-.096.324.324 0 0 1-.098-.233c0-2.599-1.345-3.921-4.006-3.921a.34.34 0 0 1-.238-.097.325.325 0 0 1 0-.464.34.34 0 0 1 .238-.096c2.66 0 4.005-1.314 4.005-3.913 0-.087.036-.17.099-.232a.34.34 0 0 1 .475 0 .324.324 0 0 1 .099.232c0 2.6 1.354 3.913 4.015 3.913a.34.34 0 0 1 .238.096.325.325 0 0 1 0 .464.34.34 0 0 1-.238.097c-2.66 0-4.015 1.322-4.015 3.921 0 .087-.035.171-.099.233a.34.34 0 0 1-.237.096ZM10.48 5.569c.522.18.996.473 1.387.857.39.383.688.847.87 1.357.185-.51.484-.975.877-1.358a3.722 3.722 0 0 1 1.39-.856c-.523-.176-1-.466-1.392-.848a3.574 3.574 0 0 1-.874-1.357c-.182.51-.479.974-.87 1.356a3.674 3.674 0 0 1-1.388.85ZM20.345 12.268a.34.34 0 0 1-.237-.096.324.324 0 0 1-.099-.232c.049-.381.007-.768-.12-1.13a2.516 2.516 0 0 0-.617-.965 2.594 2.594 0 0 0-.987-.602 2.642 2.642 0 0 0-1.158-.118.34.34 0 0 1-.237-.096.325.325 0 0 1-.099-.232.312.312 0 0 1 .096-.235.327.327 0 0 1 .24-.094c.395.047.794.005 1.17-.123.374-.128.714-.338.992-.615.278-.276.488-.612.613-.98s.162-.76.107-1.143c0-.087.036-.17.099-.232a.34.34 0 0 1 .475 0 .324.324 0 0 1 .099.232c-.055.384-.018.775.107 1.143s.334.704.613.98c.278.277.618.487.993.615.374.128.774.17 1.168.123a.333.333 0 0 1 .241.094.32.32 0 0 1 .096.235c0 .087-.036.17-.099.232a.34.34 0 0 1-.238.096 2.642 2.642 0 0 0-1.157.118c-.372.125-.71.33-.987.602a2.516 2.516 0 0 0-.617.964 2.47 2.47 0 0 0-.12 1.13c0 .088-.036.171-.099.233a.34.34 0 0 1-.238.096Zm-1.47-3.509c.661.272 1.188.783 1.47 1.426a2.754 2.754 0 0 1 1.46-1.426 2.763 2.763 0 0 1-1.46-1.435 2.755 2.755 0 0 1-1.47 1.435Z"/></mask><path d="M16.005 25c-2.258 0-3.055-1.877-3.055-3.509a9.19 9.19 0 0 1 .538-2.89 8.993 8.993 0 0 0 .548-2.946 1.233 1.233 0 0 0-.377-.898 1.291 1.291 0 0 0-.92-.368H1.336a.333.333 0 0 1-.24-.094A.319.319 0 0 1 1 14.06a.322.322 0 0 1 .099-.232.337.337 0 0 1 .237-.096H12.74c.26-.007.52.039.761.133.242.095.462.236.646.416s.329.394.425.63c.097.237.144.49.137.744a9.51 9.51 0 0 1-.576 3.143 8.424 8.424 0 0 0-.51 2.693c0 .666.173 2.815 2.383 2.815s2.373-2.186 2.373-2.815a8.424 8.424 0 0 0-.51-2.693 9.768 9.768 0 0 1-.576-3.143c-.007-.254.04-.507.136-.743.097-.237.242-.451.426-.631s.404-.322.646-.416c.242-.094.5-.14.761-.133h11.403a.343.343 0 0 1 .237.096.329.329 0 0 1 .003.467.326.326 0 0 1-.24.094H19.26a1.313 1.313 0 0 0-.92.368 1.254 1.254 0 0 0-.377.898c.017 1.005.202 2 .548 2.946.345.928.533 1.904.557 2.89 0 1.614-.816 3.509-3.064 3.509ZM12.739 10.148a.34.34 0 0 1-.238-.096.324.324 0 0 1-.098-.233c0-2.599-1.345-3.921-4.006-3.921a.34.34 0 0 1-.238-.097.325.325 0 0 1 0-.464.34.34 0 0 1 .238-.096c2.66 0 4.005-1.314 4.005-3.913 0-.087.036-.17.099-.232a.34.34 0 0 1 .475 0 .324.324 0 0 1 .099.232c0 2.6 1.354 3.913 4.015 3.913a.34.34 0 0 1 .238.096.325.325 0 0 1 0 .464.34.34 0 0 1-.238.097c-2.66 0-4.015 1.322-4.015 3.921 0 .087-.035.171-.099.233a.34.34 0 0 1-.237.096ZM10.48 5.569c.522.18.996.473 1.387.857.39.383.688.847.87 1.357.185-.51.484-.975.877-1.358a3.722 3.722 0 0 1 1.39-.856c-.523-.176-1-.466-1.392-.848a3.574 3.574 0 0 1-.874-1.357c-.182.51-.479.974-.87 1.356a3.674 3.674 0 0 1-1.388.85ZM20.345 12.268a.34.34 0 0 1-.237-.096.324.324 0 0 1-.099-.232c.049-.381.007-.768-.12-1.13a2.516 2.516 0 0 0-.617-.965 2.594 2.594 0 0 0-.987-.602 2.642 2.642 0 0 0-1.158-.118.34.34 0 0 1-.237-.096.325.325 0 0 1-.099-.232.312.312 0 0 1 .096-.235.327.327 0 0 1 .24-.094c.395.047.794.005 1.17-.123.374-.128.714-.338.992-.615.278-.276.488-.612.613-.98s.162-.76.107-1.143c0-.087.036-.17.099-.232a.34.34 0 0 1 .475 0 .324.324 0 0 1 .099.232c-.055.384-.018.775.107 1.143s.334.704.613.98c.278.277.618.487.993.615.374.128.774.17 1.168.123a.333.333 0 0 1 .241.094.32.32 0 0 1 .096.235c0 .087-.036.17-.099.232a.34.34 0 0 1-.238.096 2.642 2.642 0 0 0-1.157.118c-.372.125-.71.33-.987.602a2.516 2.516 0 0 0-.617.964 2.47 2.47 0 0 0-.12 1.13c0 .088-.036.171-.099.233a.34.34 0 0 1-.238.096Zm-1.47-3.509c.661.272 1.188.783 1.47 1.426a2.754 2.754 0 0 1 1.46-1.426 2.763 2.763 0 0 1-1.46-1.435 2.755 2.755 0 0 1-1.47 1.435Z" fill="#000"/><path d="M16.005 25c-2.258 0-3.055-1.877-3.055-3.509a9.19 9.19 0 0 1 .538-2.89 8.993 8.993 0 0 0 .548-2.946 1.233 1.233 0 0 0-.377-.898 1.291 1.291 0 0 0-.92-.368H1.336a.333.333 0 0 1-.24-.094A.319.319 0 0 1 1 14.06a.322.322 0 0 1 .099-.232.337.337 0 0 1 .237-.096H12.74c.26-.007.52.039.761.133.242.095.462.236.646.416s.329.394.425.63c.097.237.144.49.137.744a9.51 9.51 0 0 1-.576 3.143 8.424 8.424 0 0 0-.51 2.693c0 .666.173 2.815 2.383 2.815s2.373-2.186 2.373-2.815a8.424 8.424 0 0 0-.51-2.693 9.768 9.768 0 0 1-.576-3.143c-.007-.254.04-.507.136-.743.097-.237.242-.451.426-.631s.404-.322.646-.416c.242-.094.5-.14.761-.133h11.403a.343.343 0 0 1 .237.096.329.329 0 0 1 .003.467.326.326 0 0 1-.24.094H19.26a1.313 1.313 0 0 0-.92.368 1.254 1.254 0 0 0-.377.898c.017 1.005.202 2 .548 2.946.345.928.533 1.904.557 2.89 0 1.614-.816 3.509-3.064 3.509ZM12.739 10.148a.34.34 0 0 1-.238-.096.324.324 0 0 1-.098-.233c0-2.599-1.345-3.921-4.006-3.921a.34.34 0 0 1-.238-.097.325.325 0 0 1 0-.464.34.34 0 0 1 .238-.096c2.66 0 4.005-1.314 4.005-3.913 0-.087.036-.17.099-.232a.34.34 0 0 1 .475 0 .324.324 0 0 1 .099.232c0 2.6 1.354 3.913 4.015 3.913a.34.34 0 0 1 .238.096.325.325 0 0 1 0 .464.34.34 0 0 1-.238.097c-2.66 0-4.015 1.322-4.015 3.921 0 .087-.035.171-.099.233a.34.34 0 0 1-.237.096ZM10.48 5.569c.522.18.996.473 1.387.857.39.383.688.847.87 1.357.185-.51.484-.975.877-1.358a3.722 3.722 0 0 1 1.39-.856c-.523-.176-1-.466-1.392-.848a3.574 3.574 0 0 1-.874-1.357c-.182.51-.479.974-.87 1.356a3.674 3.674 0 0 1-1.388.85ZM20.345 12.268a.34.34 0 0 1-.237-.096.324.324 0 0 1-.099-.232c.049-.381.007-.768-.12-1.13a2.516 2.516 0 0 0-.617-.965 2.594 2.594 0 0 0-.987-.602 2.642 2.642 0 0 0-1.158-.118.34.34 0 0 1-.237-.096.325.325 0 0 1-.099-.232.312.312 0 0 1 .096-.235.327.327 0 0 1 .24-.094c.395.047.794.005 1.17-.123.374-.128.714-.338.992-.615.278-.276.488-.612.613-.98s.162-.76.107-1.143c0-.087.036-.17.099-.232a.34.34 0 0 1 .475 0 .324.324 0 0 1 .099.232c-.055.384-.018.775.107 1.143s.334.704.613.98c.278.277.618.487.993.615.374.128.774.17 1.168.123a.333.333 0 0 1 .241.094.32.32 0 0 1 .096.235c0 .087-.036.17-.099.232a.34.34 0 0 1-.238.096 2.642 2.642 0 0 0-1.157.118c-.372.125-.71.33-.987.602a2.516 2.516 0 0 0-.617.964 2.47 2.47 0 0 0-.12 1.13c0 .088-.036.171-.099.233a.34.34 0 0 1-.238.096Zm-1.47-3.509c.661.272 1.188.783 1.47 1.426a2.754 2.754 0 0 1 1.46-1.426 2.763 2.763 0 0 1-1.46-1.435 2.755 2.755 0 0 1-1.47 1.435Z" stroke="#000" stroke-width=".2" mask="url(#a)"/></svg>