<svg viewBox="0 0 24 24"  xmlns="http://www.w3.org/2000/svg"><path fill-rule="evenodd" clip-rule="evenodd" d="M7.8 7c-.336-.688-.592-1.682-.506-2.511.047-.46.194-.821.437-1.066C7.967 3.186 8.351 3 9 3c.649 0 1.033.186 1.269.423.243.245.39.607.437 1.066.086.83-.17 1.823-.506 2.511H7.8ZM7.49 8a.49.49 0 0 0 .018 0H11v2H7V8h.491Zm-.766-.962c-.31-.782-.518-1.763-.426-2.652.062-.603.268-1.21.723-1.668C7.486 2.25 8.15 2 9 2s1.514.251 1.978.718c.455.458.66 1.065.723 1.668.092.889-.115 1.87-.426 2.652A1 1 0 0 1 12 8v2a1 1 0 0 1-1 1H7a1 1 0 0 1-1-1V8a1 1 0 0 1 .725-.962Z" fill="#484848"/><path d="M13.5 13.09c0-.304.112-.752.327-1.285.21-.523.502-1.084.818-1.601.318-.518.651-.977.942-1.3.146-.162.27-.278.366-.349A.906.906 0 0 1 16 8.522a.906.906 0 0 1 .047.033c.096.07.22.187.366.349.29.323.625.782.942 1.3.316.517.607 1.078.818 1.6.215.534.327.982.327 1.287 0 1.316-1.105 2.409-2.5 2.409s-2.5-1.093-2.5-2.41ZM7.5 10v10c0 .5.5 1.5 1.5 1.5s1.5-1 1.5-1.5V10" stroke="#484848"/></svg>