<svg version="1.1" id="Layer_1" xmlns="http://www.w3.org/2000/svg" x="0" y="0" viewBox="0 0 24 24" style="enable-background:new 0 0 24 24" xml:space="preserve"><style>.st0{fill:#484848}</style><path class="st0" d="M16 16c-1.7 0-3-1.3-3-2.9 0-.5.2-1.1.4-1.5.2-.5.5-1.1.9-1.7.3-.5.7-1 1-1.4l.4-.4.3-.2.3.2c.2.1.3.3.5.5.3.3.7.8 1 1.4.3.6.6 1.1.9 1.7.2.4.4 1 .4 1.5C19 14.7 17.7 16 16 16zm0-6.8c-.3.3-.6.8-.9 1.3-.3.5-.6 1-.8 1.5-.3.6-.3 1-.3 1.1 0 1.1.9 1.9 2 1.9s2-.9 2-1.9c0-.1 0-.4-.3-1.1-.2-.5-.5-1-.8-1.5-.3-.5-.6-1-.9-1.3zM11.3 7c.3-.8.5-1.8.4-2.7-.1-.6-.3-1.2-.7-1.7-.5-.3-1.1-.6-2-.6s-1.5.3-2 .7c-.4.5-.6 1.1-.7 1.7-.1.9.1 1.9.4 2.6-.4.2-.7.5-.7 1v2c0 .6.4 1 1 1v9c0 .7.7 2 2 2s2-1.3 2-2v-9c.6 0 1-.4 1-1V8c0-.5-.3-.8-.7-1zm-4-2.5c0-.5.2-.8.4-1.1C8 3.2 8.4 3 9 3s1 .2 1.3.4c.2.2.4.6.4 1.1.1.8-.2 1.8-.5 2.5H7.8c-.3-.7-.6-1.7-.5-2.5zM10 20c0 .2-.3 1-1 1s-1-.8-1-1v-9h2v9zm1-10H7V8h4v2z"/></svg>