<svg xmlns="http://www.w3.org/2000/svg" viewBox="0 0 40 40"><path d="M22.658 12.122a2.34 2.34 0 0 0-3.281-.335l-6.415 5.237a2.333 2.333 0 0 0 2.945 3.62l6.415-5.238a2.346 2.346 0 0 0 .335-3.284zM7.514 10.503A5.461 5.461 0 0 0 3.42 4.672q-.906 8.9-1.82 17.8a11.8 11.8 0 0 0 2.408 8.423 11.674 11.674 0 0 0 7.61 4.438 10.555 10.555 0 0 0 6.567-1.091 36.512 36.512 0 0 0 6.015-4.261l13.406-10.944a2.333 2.333 0 0 0-2.945-3.62l-9.48 7.739a.833.833 0 0 1-.186.114l-4.6 3.75a3.869 3.869 0 0 1-6.293-3.4 3.9 3.9 0 0 1 .207-.916c-.091 0-.181-.008-.271-.017a3.867 3.867 0 0 1-1.91-.737 11.282 11.282 0 0 1-1.554 3.531.769.769 0 1 1-1.3-.822 7.548 7.548 0 0 0 1.465-4.655 3.919 3.919 0 0 1-.17-.9 5.391 5.391 0 0 0-.336-.879 1.109 1.109 0 0 1-.044-.058.811.811 0 0 1-.076-.135 9.485 9.485 0 0 0-1.016-1.5 15.531 15.531 0 0 0-1.482-1.557c-.053-.048-.107-.1-.163-.146a.769.769 0 0 1-.272-.659c.115-1.238.208-2.431.334-3.667zm16.8 4.83a3.863 3.863 0 0 1 3.431 3.744l5.946-4.855a3.874 3.874 0 0 1 4.891 6.01l-13.62 11.1a37.453 37.453 0 0 1-6.076 4.279 12 12 0 0 1-7.491 1.246 13.207 13.207 0 0 1-8.6-5.019 13.35 13.35 0 0 1-2.726-9.521q.946-9.31 1.9-18.622a.773.773 0 0 1 .844-.691 7 7 0 0 1 6.263 7.149l3.847-3.141a3.868 3.868 0 0 1 6.312 3.061 3.878 3.878 0 0 1 5.072 5.26zm-7.132-6.79a2.334 2.334 0 0 0-3.279-.335l-4.862 3.969v.05l-.155 1.819a16.789 16.789 0 0 1 1.409 1.517 11.736 11.736 0 0 1 .741 1.01l5.812-4.744a2.346 2.346 0 0 0 .333-3.284zm8.5 9.164a2.335 2.335 0 0 0-3.279-.334l-5.92 4.832a2.333 2.333 0 0 0 2.946 3.618l5.92-4.832a2.345 2.345 0 0 0 .333-3.284z"/></svg>
