<svg xmlns="http://www.w3.org/2000/svg" viewBox="0 0 32 33"><path d="M31.8 8.6 25.2.4c-.1-.3-.3-.4-.6-.4H7.5c-.3 0-.6.1-.7.3L.2 8.6c-.1.1-.2.3-.2.5v23c0 .6.4.9.9.9h30.2c.5 0 .9-.4.9-.9v-23c0-.2 0-.4-.2-.5zM17 1.8h7.2l5.1 6.4H17V1.8zm-9.1 0h7.2v6.4H2.7l5.2-6.4zm22.3 29.5H1.8V10.1h28.5l-.1 21.2z"/><path d="M14.9 21.4H17c.8 0 1.4.6 1.4 1.4s-.7 1.4-1.4 1.4h-3.9c-.5 0-.9.4-.9.9s.4.9.9.9H15v1.3c0 .5.4.9.9.9s.9-.4.9-.9V26h.2c1.8 0 3.2-1.4 3.2-3.2 0-1.8-1.5-3.2-3.2-3.2h-2.1c-.8 0-1.4-.6-1.4-1.4s.7-1.4 1.4-1.4h3.8c.5 0 .9-.4.9-.9s-.4-.9-.9-.9h-1.8v-1.3c0-.5-.4-.9-.9-.9s-.9.4-.9.9V15H15c-1.8 0-3.2 1.4-3.2 3.2-.1 1.8 1.3 3.2 3.1 3.2z"/></svg>
