<svg viewBox="0 0 13 28" xmlns="http://www.w3.org/2000/svg"><path d="M2.285 28h8.225a1.874 1.874 0 0 0 1.886-1.857V13.986a3.251 3.251 0 0 0-1.96-2.944L10.332 11V7.921a.445.445 0 0 0-.284-.465.5.5 0 0 0-.199-.038h-.953L7.726.417A.5.5 0 0 0 7.213 0H5.579a.5.5 0 0 0-.513.417l-1.171 7h-.924a.514.514 0 0 0-.511.5v3.074l-.1.046a3.251 3.251 0 0 0-1.964 2.948v12.156A1.874 1.874 0 0 0 2.285 28ZM6.032.977h.788l1.06 6.412H4.971L6.032.977ZM3.484 8.4h5.855v2.379H3.484V8.4ZM1.42 13.99a2.225 2.225 0 0 1 2.241-2.2h5.5a2.225 2.225 0 0 1 2.24 2.2v12.151a.87.87 0 0 1-.864.851H2.285a.869.869 0 0 1-.864-.851L1.42 13.99Z"/></svg>
