<svg fill="none" xmlns="http://www.w3.org/2000/svg" viewBox="0 0 36 36">
  <path d="M14.7 23.49c0 .85.2 1.79.73 2.51A3 3 0 0 0 18 27.25c1.21 0 2.05-.51 2.58-1.25.53-.73.74-1.67.74-2.5v-.02a9.15 9.15 0 0 0-.57-2.97 8.75 8.75 0 0 1-.54-2.86.98.98 0 0 1 .3-.71 1.04 1.04 0 0 1 .75-.3h11.4c.08 0 .15-.01.22-.04l-.09-.23.1.23a.58.58 0 0 0 .31-.76.59.59 0 0 0-.54-.36h-11.4a2.21 2.21 0 0 0-1.58.62 2.12 2.12 0 0 0-.64 1.56c.02 1.1.22 2.19.6 3.22.3.84.47 1.72.49 2.61 0 .3-.04.96-.33 1.53-.15.28-.35.54-.63.73-.28.18-.66.3-1.17.3a2.1 2.1 0 0 1-1.16-.3 1.83 1.83 0 0 1-.63-.72 3.54 3.54 0 0 1-.34-1.54c.02-.89.19-1.77.5-2.6.37-1.04.57-2.13.59-3.23a2.09 2.09 0 0 0-.64-1.56 2.18 2.18 0 0 0-1.58-.62H3.34a.6.6 0 0 0-.42.17.58.58 0 0 0 0 .82l.17-.17-.17.17c.06.06.12.1.2.13l.09-.23-.1.23c.08.03.15.04.23.04h11.4a1.06 1.06 0 0 1 .74.3 1 1 0 0 1 .3.71c-.01.98-.19 1.95-.53 2.87a9.44 9.44 0 0 0-.55 2.97ZM14.33 12.23a.59.59 0 0 0 .82 0c.11-.1.17-.26.17-.41 0-1.26.33-2.16.94-2.76.6-.6 1.54-.91 2.83-.91a.6.6 0 0 0 .41-.17.57.57 0 0 0 0-.82.6.6 0 0 0-.41-.17c-1.3 0-2.22-.32-2.83-.91-.6-.6-.94-1.5-.94-2.75 0-.16-.06-.3-.17-.41a.59.59 0 0 0-.82 0 .57.57 0 0 0-.18.4c0 1.27-.32 2.17-.93 2.76-.6.6-1.53.91-2.82.91-.16 0-.3.06-.42.17a.57.57 0 0 0 0 .82c.11.1.26.17.42.17 1.29 0 2.22.32 2.82.91.6.6.93 1.5.93 2.76 0 .15.07.3.18.41Zm-.29-3.98c-.27-.27-.59-.5-.93-.68a3.9 3.9 0 0 0 1.63-1.6 3.84 3.84 0 0 0 1.63 1.6 3.95 3.95 0 0 0-1.63 1.6 3.87 3.87 0 0 0-.7-.92ZM21.76 13.9v.04c0 .16.06.3.17.41a.6.6 0 0 0 .83 0l-.18-.18.18.18c.1-.1.17-.25.17-.41v-.03a2.22 2.22 0 0 1 .66-1.89 2.34 2.34 0 0 1 1.94-.65h.03a.6.6 0 0 0 .42-.16.57.57 0 0 0 .13-.63.57.57 0 0 0-.13-.2l-.18.18.18-.18a.58.58 0 0 0-.42-.16h-.03a2.4 2.4 0 0 1-1.95-.67 2.27 2.27 0 0 1-.65-1.9V7.6c0-.16-.06-.3-.17-.41l-.18.17.18-.17a.59.59 0 0 0-.83 0 .57.57 0 0 0-.17.4v.04a2.23 2.23 0 0 1-.65 1.91 2.35 2.35 0 0 1-1.95.67h-.03a.58.58 0 0 0-.22.04l.09.23-.1-.23a.58.58 0 0 0-.32.32.57.57 0 0 0 .13.63c.12.1.26.17.42.17h.03a2.4 2.4 0 0 1 1.94.64 2.27 2.27 0 0 1 .66 1.89Zm1.5-3.14a3 3 0 0 0-.91.9 2.99 2.99 0 0 0-.93-.9 3 3 0 0 0 .93-.91c.23.36.55.67.92.9Z" fill="#484848" stroke="#484848" stroke-width=".5"/>
</svg>