<svg xmlns="http://www.w3.org/2000/svg" viewBox="0 0 20 20"><path d="M19.808 15.268v-.02h-.022a1.821 1.821 0 0 0-.64-.244h-.011a5.455 5.455 0 0 1-2.593-2.046 7.3 7.3 0 0 1-.912-1.673.859.859 0 0 1 .033-.721h.022a1.914 1.914 0 0 1 .89-.627 3.323 3.323 0 0 0 1.215-.662.469.469 0 0 0 .184-.244.519.519 0 0 1 .032-.093.573.573 0 0 0-.032-.348 1 1 0 0 0-.412-.43.921.921 0 0 0-.738-.07 2.515 2.515 0 0 1-.64.2c-.011 0-.011.023-.011.023a1.709 1.709 0 0 1-.738-.023.582.582 0 0 0-.022-.174c0-.465.032-.953.032-1.476a15.5 15.5 0 0 0-.043-2.347V4.27a5.366 5.366 0 0 0-2.062-3.265 4.91 4.91 0 0 0-2.528-.941 7.918 7.918 0 0 0-.911-.058 5.408 5.408 0 0 0-3.429 1.185A5.708 5.708 0 0 0 4.79 3.527v.011a6.964 6.964 0 0 0-.261 2.858c.011.639.076 1.266.033 1.883 0 .011 0 .011-.022.034a2.375 2.375 0 0 1-.857-.023h-.011c-.206-.035-.4-.128-.651-.2H3a.677.677 0 0 0-.64.151h-.011v.012a.719.719 0 0 0-.368.581.075.075 0 0 0 .011.047h.011a.665.665 0 0 0 .217.384.9.9 0 0 0 .228.174v.023a7.605 7.605 0 0 0 1.357.628.971.971 0 0 1 .607.627 1.693 1.693 0 0 1-.239 1.1 6.585 6.585 0 0 1-2.058 2.531 4.994 4.994 0 0 1-1.508.732H.596a.881.881 0 0 0-.542.348.1.1 0 0 0-.033.07.511.511 0 0 0 .087.442.656.656 0 0 0 .239.2 4.894 4.894 0 0 0 1.4.523 7.771 7.771 0 0 1 .879.233c.011.023.044.1.1.256.087.267.12.592.217.917a.261.261 0 0 0 .184.174.467.467 0 0 0 .336-.023.011.011 0 0 0 .011-.012 5.314 5.314 0 0 1 2.213-.07 8.165 8.165 0 0 1 2.083 1.2 3.142 3.142 0 0 0 1.649.651 9.462 9.462 0 0 0 1.41-.035 2.5 2.5 0 0 0 1.107-.395l.021-.023c.749-.442 1.4-1 2.138-1.348a3.718 3.718 0 0 1 .868-.1 11.744 11.744 0 0 1 1.812.1h.065a.334.334 0 0 0 .206-.116.875.875 0 0 0 .065-.151c.021-.046.032-.081 0-.035.021-.011.021-.034.032-.046a2.761 2.761 0 0 1 .337-.953.5.5 0 0 1 .38-.127h.044a6.966 6.966 0 0 0 1.432-.43c0-.023 0-.023.022-.023a1.206 1.206 0 0 0 .564-.407.445.445 0 0 0-.108-.628z"/></svg>
