<svg xmlns="http://www.w3.org/2000/svg" viewBox="0 0 20 20"><path d="M10.052 2c-.002 0-.007 0-.011.005L8.28 6.265A2.07 2.07 0 0 1 6.545 7.6l-4.429.397a.15.15 0 0 0-.079.048.154.154 0 0 0 .016.217l.021.019 3.272 3.004.028.026a2.15 2.15 0 0 1 .568 2.044l-.987 4.502a.99.99 0 0 1-.012.048.078.078 0 0 0 .008.06.07.07 0 0 0 .094.026l3.858-2.405a2.06 2.06 0 0 1 2.15 0l3.857 2.405c.023.012.04.01.052.006a.074.074 0 0 0 .05-.09.948.948 0 0 1-.011-.05l-.988-4.502a2.146 2.146 0 0 1 .594-2.068l3.36-3.103A.116.116 0 0 0 18 8.12a.112.112 0 0 0-.072-.123l-4.4-.296a1 1 0 0 1-.13-.018 2.272 2.272 0 0 1-1.625-1.316l-1.692-4.32a1.07 1.07 0 0 1-.017-.042.017.017 0 0 0-.006-.004L10.053 2h-.001zm.001-1a1.02 1.02 0 0 1 .96.685l.17.438 1.52 3.88c.17.361.501.622.893.701l4.463.3a1.11 1.11 0 0 1 .6 1.904l-3.372 3.113c-.29.287-.404.708-.3 1.102l.991 4.52a1.074 1.074 0 0 1-1.586 1.202l-3.868-2.41a1.06 1.06 0 0 0-1.091 0l-3.867 2.41a1.07 1.07 0 0 1-1.587-1.202l.991-4.52a1.144 1.144 0 0 0-.3-1.102L1.398 9.017a1.154 1.154 0 0 1 .594-2.012l4.463-.401a1.06 1.06 0 0 0 .892-.701l1.785-4.318c.173-.369.539-.585.92-.585h.001z"/></svg>
