<svg xmlns="http://www.w3.org/2000/svg" viewBox="0 0 22 28"><path d="M8.913 0h4.159a2.045 2.045 0 012.006 1.464 1.966 1.966 0 01-.954 2.25v8.322l.035.047c2.46 3.675 4.925 7.329 7.342 11.034.664.987.66 2.279-.008 3.263a3.764 3.764 0 01-3.154 1.6c-4.896.015-9.785.038-14.685 0A3.764 3.764 0 01.5 26.38a2.914 2.914 0 010-3.263c2.436-3.694 4.85-7.371 7.348-11.038.009-.014.02-.026.03-.04V3.72a1.966 1.966 0 01-.965-2.25 2.045 2.045 0 012-1.47zm0 1A1.016 1.016 0 007.88 2a1.016 1.016 0 001.032 1h4.156c.56.009 1.022-.439 1.03-1a1.016 1.016 0 00-1.027-1h-4.16zm0 3l-.004 8.195a.49.49 0 01-.107.307c-.033.04-.063.082-.092.125l-1.282 1.918c1.342.118 2.656.452 3.89.99 1.448.6 2.994.92 4.56.946l-2.583-3.85a1.342 1.342 0 00-.1-.13.487.487 0 01-.111-.31V4H8.913zM6.777 15.514c-1.815 2.702-3.63 5.407-5.397 8.139a1.892 1.892 0 000 2.189 2.7 2.7 0 002.283 1.14c4.893.015 9.784.039 14.677 0a2.7 2.7 0 002.287-1.137 1.893 1.893 0 000-2.19c-1.354-2.053-2.698-4.112-4.07-6.153a14.3 14.3 0 01-5.625-1.033 10.8 10.8 0 00-4.155-.955zm7.283 2.976a.49.49 0 10.47.3.516.516 0 00-.472-.3h.002zm-2.427 1.157a.667.667 0 10.694.667.662.662 0 00-.205-.474.7.7 0 00-.491-.194h.002zm1.734 1.667l-.002-.002c.273-.003.537.102.735.29a.99.99 0 01.14 1.263 1 1 0 11-.873-1.551z"/></svg>
