<svg width="30" height="31" fill="none" xmlns="http://www.w3.org/2000/svg"><path d="M21.898 20.387c-.291 1.839-1.455 3.387-3.103 4.355M21.896 17.29v-.677" stroke="#000" stroke-width=".8" stroke-miterlimit="10" stroke-linecap="round" stroke-linejoin="round"/><path d="M8.225 11.484C10.94 5.774 15.594 2 15.594 2s9.405 7.645 9.405 17.613C25 24.742 20.83 29 15.594 29c-.388 0-.679 0-1.067-.097M7.934 16.226c.29 6.968 3.2 10.548 4.945 12.29" stroke="#000" stroke-width=".8" stroke-miterlimit="10" stroke-linecap="round" stroke-linejoin="round"/><path d="M10.455 25.903c-1.648.484-3.394-.194-4.363-1.548-1.067-1.452-1.26-3.387-.97-5.13.388-2.225 1.357-4.354 2.715-6.193.679 1.065 1.648 1.936 2.521 2.807 1.067 1.064 2.036 2.225 2.521 3.58 1.067 2.516.485 5.71-2.424 6.484Z" stroke="#000" stroke-width=".8" stroke-miterlimit="10" stroke-linecap="round" stroke-linejoin="round"/></svg>