<svg xmlns="http://www.w3.org/2000/svg" viewBox="0 0 14 14"><path d="M6.506.28a1.49 1.49 0 011.806.051l.107.096.808.793c.137.134.307.226.492.267l.141.021 1.118.081c.68.052 1.231.555 1.353 1.214l.019.134.109 1.125c.018.2.095.39.22.545l.08.09.808.792c.474.475.57 1.202.249 1.779l-.075.121-.627.936a1.022 1.022 0 00-.177.532l.004.143.109 1.13a1.492 1.492 0 01-.949 1.54l-.136.045-1.088.3a1.018 1.018 0 00-.494.312l-.073.094-.633.932a1.49 1.49 0 01-1.715.57l-.133-.053-1.029-.468a1.019 1.019 0 00-.554-.082l-.14.028-1.094.317c-.65.18-1.332-.1-1.674-.667l-.068-.126-.486-1.027a1.019 1.019 0 00-.394-.433l-.106-.055-1.029-.468a1.494 1.494 0 01-.858-1.588l.029-.14.283-1.1c.048-.186.042-.38-.016-.561l-.052-.133-.493-1.019A1.493 1.493 0 01.51 4.576l.113-.089.918-.65c.165-.117.291-.28.363-.467l.037-.115.287-1.097a1.49 1.49 0 011.418-1.121l.144.004 1.124.084c.19.015.38-.025.548-.112l.122-.075.922-.658zm3.756 5.105c.686-.682-.401-1.526-.947-.98l-.334.344-2.872 3.05-.57-.612-.327-.34-.359-.367-.123-.124a.687.687 0 10-.947.985l.45.46 1.078 1.133.798.851 3.29-3.502.796-.83.067-.068z"/></svg>
