<svg width="30" height="31" fill="none" xmlns="http://www.w3.org/2000/svg"><path d="M21.5 27.3C19.6 28.4 17.4 29 15 29 7.5 29 1.5 23 1.5 15.5S7.6 2 15 2c7.5 0 13.5 6 13.5 13.5 0 1.6-.3 3.1-.8 4.5" stroke="#000" stroke-width=".8" stroke-miterlimit="10" stroke-linecap="round" stroke-linejoin="round"/><path d="M21.6 24.9C19.7 26.2 17.5 27 15 27 8.6 27 3.5 21.9 3.5 15.5S8.7 4 15 4c6.4 0 11.5 5.1 11.5 11.5 0 1.6-.3 3.1-.9 4.4M15 4v23M6.9 7.4l15.2 15.2M3.5 15.5h23M6.9 23.6 23.2 7.4M28.5 26.5c0 1.4-1.1 2.5-2.5 2.5s-2.5-1.1-2.5-2.5S26 22 26 22s2.5 3.1 2.5 4.5Z" stroke="#000" stroke-width=".8" stroke-miterlimit="10" stroke-linecap="round" stroke-linejoin="round"/></svg>