<svg width="30" height="31" fill="none" xmlns="http://www.w3.org/2000/svg"><path d="M22 19.609c0 5.05-4 9.109-9 9.109s-9-4.06-9-9.11c0-1.583.4-3.068 1.1-4.257L13.1.5 21 15.351a9.56 9.56 0 0 1 1 4.258Z" stroke="#000" stroke-width=".8" stroke-miterlimit="10" stroke-linecap="round" stroke-linejoin="round"/><path d="M13 24.658c-2.8 0-5-2.277-5-5.05" stroke="#000" stroke-width=".8" stroke-miterlimit="10" stroke-linecap="round" stroke-linejoin="round"/><path d="M21 27.827c2.485 0 4.5-1.995 4.5-4.456 0-2.46-2.015-4.455-4.5-4.455s-4.5 1.995-4.5 4.455c0 2.461 2.015 4.456 4.5 4.456Z" fill="#fff" stroke="#000" stroke-width=".8" stroke-miterlimit="10"/><path d="M19.855 21.59v4.134h2.508v-.522h-1.95v-1.248h1.65v-.522h-1.65v-1.32h1.89v-.522h-2.448Z" fill="#000"/></svg>