<svg xmlns="http://www.w3.org/2000/svg" viewBox="0 0 20 15"><path d="M19.805 3.237a4.868 4.868 0 0 0-.8-2.118A2.831 2.831 0 0 0 17.011.21C14.211 0 10.019 0 10.019 0h-.022S5.813 0 3.016.21a2.818 2.818 0 0 0-2 .909 4.871 4.871 0 0 0-.8 2.118 33.246 33.246 0 0 0-.207 3.437v1.63a32.7 32.7 0 0 0 .207 3.437 4.945 4.945 0 0 0 .8 2.128 3.233 3.233 0 0 0 2.212.909c1.593.167 6.8.222 6.8.222s4.2-.022 6.992-.222a2.781 2.781 0 0 0 1.994-.909 4.942 4.942 0 0 0 .8-2.128s.195-1.708.195-3.437v-1.63c0-1.707-.195-3.437-.195-3.437zm-6.461 4.036-5.409 2.982V4.269l2.45 1.364z"/></svg>
