<svg width="101" height="60" viewBox="0 0 101 60" fill="none" xmlns="http://www.w3.org/2000/svg">
<path d="M100.943 1.11926C101.346 0.231626 101.153 2.39243 100.993 2.96655C100.833 3.54067 99.2516 4.5788 97.4212 5.93421C95.5909 7.28962 88.8525 11.5852 87.407 12.2892C85.9615 12.9931 82.2466 18.2803 81.1307 20.7833C80.0147 23.2862 80.3131 23.4523 80.4781 25.9596C80.6432 28.4668 79.9391 34.4004 77.1484 41.1914C74.3577 47.9825 69.2608 54.011 61.0334 56.5782C52.806 59.1453 44.6193 58.1478 43.6146 57.7774C42.6099 57.407 42.6826 57.3254 44.2684 56.75C45.8541 56.1745 48.7897 54.2824 54.1112 51.0921C59.4327 47.9019 61.8922 40.6932 62.8083 38.1836C63.7244 35.6741 64.2505 31.4859 67.3398 27.6247C70.429 23.7635 76.0623 22.4532 77.5911 22.0115C79.1199 21.5697 79.7005 21.2212 83.4876 15.4835C84.6461 13.7277 83.9513 14.1544 83.9513 14.1544C81.3092 15.3597 78.5973 16.4061 75.8301 17.288C70.844 18.9133 64.9644 23.7398 61.6088 26.4657C58.2532 29.1916 56.8674 35.0002 51.2404 39.688C45.6134 44.3758 36.5661 46.3917 28.7742 46.7802C20.9823 47.1688 10.6526 44.7142 9.70165 44.1996C8.75074 43.685 10.4764 43.5526 12.2552 43.2643C14.034 42.976 19.2738 40.9168 25.0286 38.4581C30.7834 35.9994 33.264 32.3955 38.3354 28.8796C40.6398 27.2979 43.2426 26.2014 45.9852 25.6569C48.7278 25.1124 51.5527 25.1313 54.2877 25.7125C59.3799 26.7282 61.9013 24.4546 64.3046 22.4456C66.7079 20.4366 73.1301 17.003 73.748 16.6268C74.3658 16.2506 73.2515 16.149 72.024 15.8504C70.0039 15.2904 67.9472 14.872 65.8688 14.5983C63.1101 14.2756 63.2414 16.6768 56.9084 18.8596C50.5753 21.0425 38.5398 21.5328 26.111 22.5029C13.6822 23.4729 5.29767 19.3946 3.15175 18.2322C1.00583 17.0697 0.623582 17.2509 8.40218 17.736C16.1808 18.2212 27.3397 13.5991 29.3365 12.7748C31.3332 11.9505 36.9547 8.3119 44.2904 6.03493C51.626 3.75795 57.5129 8.00971 60.0874 9.90749C62.6619 11.8053 64.9405 13.3867 71.1064 14.5196C77.2722 15.6526 78.7473 14.1217 85.493 11.6892C92.2387 9.25661 100.878 1.25891 100.942 1.11885" fill="#FF6F8D"/>
</svg>
