<svg xmlns="http://www.w3.org/2000/svg" width="18" height="24">
  <defs>
    <style>
      .acart{fill:#ff798f;font-size:12px;font-family: &quot;Sofia Pro Bold&quot; !important;font-weight:700;}.bcart{fill:#494949;}
    </style>
  </defs>
  <text class="acart" transform="translate(0 9.896)"/>
  <g transform="translate(-5.106 -1)">
    <path class="bcart" d="M14.107 1a4.88 4.88 0 00-4.958 4.8v.8h-.685a2.665 2.665 0 00-2.7 2.5l-.653 13.16a2.577 2.577 0 00.746 1.931A2.753 2.753 0 007.811 25H20.4a2.753 2.753 0 001.956-.813 2.577 2.577 0 00.746-1.931L22.451 9.1a2.665 2.665 0 00-2.7-2.5h-.686v-.8A4.88 4.88 0 0014.107 1zM10.8 5.8a3.306 3.306 0 016.609 0v.8H10.8zm10 3.368l.653 13.168a1.029 1.029 0 01-.289.752 1.083 1.083 0 01-.76.312H7.811a1.083 1.083 0 01-.76-.312 1.029 1.029 0 01-.289-.752l.652-13.168a1.035 1.035 0 011.05-.968h11.285a1.035 1.035 0 011.051.968z"/>
    <circle class="bcart" cx="1" cy="1" r="1" transform="translate(9.355 9.006)"/>
    <circle class="bcart" cx="1" cy="1" r="1" transform="translate(16.859 9.006)"/>
  </g>
</svg>