<svg xmlns="http://www.w3.org/2000/svg" width="24" height="16" viewBox="0 0 24 16"><defs><style>.a{fill:#494949;}</style></defs><path class="a" d="M28.572,16.35a1.491,1.491,0,0,1,1.15.507,1.541,1.541,0,0,1,.5,1.171V30.672a1.541,1.541,0,0,1-.5,1.171,1.488,1.488,0,0,1-1.15.507H7.869a1.489,1.489,0,0,1-1.15-.507,1.54,1.54,0,0,1-.5-1.171V18.028a1.54,1.54,0,0,1,.5-1.171,1.49,1.49,0,0,1,1.15-.507h20.7Zm-20.7,1.327q-.192,0-.23.117a.34.34,0,0,0-.115.234V20.7H28.917V18.028a.34.34,0,0,0-.115-.234q-.039-.117-.23-.117Zm20.7,13.347q.191,0,.23-.117a.34.34,0,0,0,.115-.234V23.016H7.524v7.655a.34.34,0,0,0,.115.234q.038.117.23.117h20.7ZM8.828,29.7V28.33h2.646V29.7Zm3.949,0V28.33h3.911V29.7Z" transform="translate(-6.221 -16.35)"/></svg>