<svg width="22" height="29" viewBox="0 0 22 29" fill="none" xmlns="http://www.w3.org/2000/svg">
<path d="M20.608 17.4413C20.0718 16.8918 19.4234 16.4644 18.7071 16.1883C17.9907 15.9122 17.2232 15.7938 16.457 15.8413H5.52699C4.76158 15.7948 3.99514 15.9137 3.27975 16.1898C2.56435 16.4658 1.91677 16.8927 1.38099 17.4413C0.430185 18.5726 -0.0606069 20.02 0.00598841 21.4963V28.3273C0.0569884 29.1563 1.10599 29.1943 1.10599 28.3273V21.4533C1.05737 20.2687 1.44323 19.1072 2.19099 18.1873C2.62948 17.7615 3.15297 17.4332 3.72718 17.2238C4.30139 17.0144 4.91335 16.9287 5.52299 16.9723H6.53299V20.3293C5.50012 20.4689 4.55254 20.9772 3.86488 21.7604C3.17721 22.5436 2.79582 23.549 2.79099 24.5913V28.1663H4.69099C4.76674 28.1735 4.84318 28.1649 4.9154 28.1409C4.98761 28.1169 5.05402 28.078 5.11034 28.0269C5.16667 27.9757 5.21168 27.9133 5.24247 27.8437C5.27327 27.7741 5.28918 27.6989 5.28918 27.6228C5.28918 27.5467 5.27327 27.4714 5.24247 27.4018C5.21168 27.3322 5.16667 27.2698 5.11034 27.2186C5.05402 27.1675 4.98761 27.1286 4.9154 27.1046C4.84318 27.0806 4.76674 27.072 4.69099 27.0793H3.89099V24.6183C3.87075 24.1859 3.93843 23.7539 4.08994 23.3485C4.24145 22.943 4.47363 22.5725 4.77245 22.2594C5.07126 21.9463 5.4305 21.697 5.82841 21.5267C6.22633 21.3564 6.65466 21.2686 7.08749 21.2686C7.52032 21.2686 7.94864 21.3564 8.34656 21.5267C8.74448 21.697 9.10371 21.9463 9.40253 22.2594C9.70134 22.5725 9.93353 22.943 10.085 23.3485C10.2365 23.7539 10.3042 24.1859 10.284 24.6183V27.0803C10.0478 27.0926 9.81116 27.0926 9.57499 27.0803C9.49828 27.0737 9.42105 27.0832 9.34819 27.1081C9.27534 27.133 9.20844 27.1727 9.15175 27.2248C9.09505 27.2769 9.04978 27.3401 9.01882 27.4106C8.98786 27.4811 8.97187 27.5573 8.97187 27.6343C8.97187 27.7112 8.98786 27.7874 9.01882 27.8579C9.04978 27.9284 9.09505 27.9916 9.15175 28.0437C9.20844 28.0958 9.27534 28.1355 9.34819 28.1604C9.42105 28.1853 9.49828 28.1948 9.57499 28.1883H11.381V24.6183C11.3762 23.5748 10.9939 22.5683 10.3048 21.7847C9.61568 21.0011 8.6663 20.4934 7.63199 20.3553V16.9983H15.032V21.7983C14.5447 21.9315 14.1223 22.237 13.8432 22.6581C13.5641 23.0792 13.4473 23.5872 13.5145 24.0879C13.5817 24.5886 13.8283 25.0479 14.2086 25.3805C14.5888 25.7131 15.0768 25.8964 15.582 25.8964C16.0872 25.8964 16.5752 25.7131 16.9554 25.3805C17.3356 25.0479 17.5823 24.5886 17.6495 24.0879C17.7166 23.5872 17.5999 23.0792 17.3208 22.6581C17.0417 22.237 16.6193 21.9315 16.132 21.7983V16.9983H16.47C17.0808 16.9551 17.6938 17.0414 18.2689 17.2517C18.8439 17.4619 19.3681 17.7913 19.807 18.2183C20.5609 19.148 20.9467 20.3225 20.891 21.5183C20.891 21.5183 20.891 26.6393 20.891 28.3183C20.846 29.2183 21.971 29.2113 21.991 28.3183V21.5333C22.0606 20.0436 21.566 18.5824 20.606 17.4413H20.608ZM16.547 23.7663C16.5454 23.9593 16.4867 24.1476 16.3783 24.3074C16.2699 24.4672 16.1166 24.5913 15.9377 24.6641C15.7589 24.7369 15.5625 24.7551 15.3733 24.7165C15.1841 24.6778 15.0106 24.5841 14.8747 24.447C14.7387 24.3099 14.6463 24.1356 14.6092 23.9461C14.5721 23.7566 14.592 23.5604 14.6662 23.3822C14.7405 23.2039 14.8658 23.0517 15.0265 22.9445C15.1871 22.8374 15.3759 22.7803 15.569 22.7803C15.6979 22.7808 15.8255 22.8067 15.9445 22.8565C16.0634 22.9064 16.1714 22.9791 16.2622 23.0707C16.353 23.1623 16.4249 23.2708 16.4738 23.3902C16.5226 23.5095 16.5475 23.6373 16.547 23.7663V23.7663Z" fill="#484848"/>
<path d="M10.9938 14.1427C12.0434 14.136 13.0739 13.8617 13.988 13.3459C14.9021 12.8301 15.6696 12.0897 16.2179 11.1948C16.7662 10.2998 17.0773 9.27979 17.1218 8.23114C17.1662 7.1825 16.9425 6.13984 16.4718 5.2017C16.7987 4.68947 16.9824 4.09899 17.0037 3.49171C17.0249 2.88444 16.8831 2.28255 16.5928 1.7487C16.3049 1.21623 15.8775 0.772171 15.3564 0.464126C14.8353 0.156081 14.2402 -0.00433018 13.6349 8.88976e-05C13.0296 0.00450797 12.4369 0.173591 11.9204 0.489211C11.4039 0.804831 10.983 1.25509 10.7028 1.7917C9.11063 1.89519 7.62006 2.61021 6.54281 3.78723C5.46556 4.96426 4.88504 6.51217 4.92262 8.1073C4.9602 9.70243 5.61297 11.2213 6.74445 12.3463C7.87594 13.4713 9.39852 14.1153 10.9938 14.1437V14.1427ZM13.6378 1.0877C14.0948 1.08433 14.5425 1.21677 14.9241 1.46821C15.3058 1.71965 15.6041 2.07876 15.7813 2.5C15.9585 2.92124 16.0067 3.38563 15.9196 3.83426C15.8325 4.28289 15.6141 4.69554 15.2922 5.01989C14.9702 5.34423 14.5592 5.56564 14.1112 5.65604C13.6632 5.74645 13.1985 5.70177 12.776 5.52767C12.3534 5.35356 11.9921 5.05789 11.7379 4.67815C11.4836 4.2984 11.3479 3.8517 11.3478 3.3947C11.346 2.78522 11.5861 2.19992 12.0155 1.76736C12.4449 1.3348 13.0284 1.09034 13.6378 1.0877V1.0877ZM10.3328 2.8877C10.2633 3.31687 10.2813 3.75568 10.3858 4.1777H7.58585C8.35166 3.47568 9.31557 3.02725 10.3458 2.8937L10.3328 2.8877ZM6.68385 5.2427H10.8348C11.0846 5.63203 11.4128 5.96491 11.7986 6.22001C12.1845 6.47511 12.6193 6.64681 13.0753 6.7241C13.5314 6.80139 13.9985 6.78257 14.4468 6.66885C14.8952 6.55512 15.3148 6.34901 15.6788 6.0637C15.9256 6.664 16.053 7.30665 16.0538 7.9557C16.0579 9.01373 15.7336 10.047 15.1258 10.9129C14.5179 11.7789 13.6563 12.435 12.6598 12.7907C11.6655 13.1419 10.5862 13.1731 9.57317 12.8801C8.56015 12.5871 7.6642 11.9845 7.01085 11.1567C6.35337 10.3252 5.96863 9.31106 5.90921 8.25273C5.84979 7.1944 6.11858 6.14353 6.67885 5.2437L6.68385 5.2427Z" fill="#484848"/>
</svg>
