<svg xmlns="http://www.w3.org/2000/svg" width="16" height="16">
  <defs>
    <style>
      .a{fill:#494949;}
    </style>
  </defs>
  <path class="a" d="M8 0a8 8 0 108 8 8 8 0 00-8-8zm0 15a6.976 6.976 0 01-2.769-.57l3.643-4.1A.5.5 0 009 9.998v-1.5a.5.5 0 00-.5-.5c-1.765 0-3.628-1.835-3.646-1.854a.5.5 0 00-.354-.146h-2a.5.5 0 00-.5.5v3a.5.5 0 00.276.447L4 10.807v2.936A7 7 0 011.674 5H3.5a.5.5 0 00.354-.146l2-2A.5.5 0 006 2.5V1.29a7.02 7.02 0 015.067.416 3.065 3.065 0 00-.188.172A3 3 0 0012.998 7h.149a11.742 11.742 0 01-.131 5.818.5.5 0 00-.013.082 6.978 6.978 0 01-5 2.1z"/>
</svg>