<svg xmlns="http://www.w3.org/2000/svg" width="114" height="20" style=""><rect id="backgroundrect" width="100%" height="100%" x="0" y="0" fill="none" stroke="none" class="" style=""/><g class="currentLayer" style=""><title>Layer 1</title><g class="" id="svg_6"><path fill="#f4436c" d="M10.5,15.14275168609619 L3.0120000000000005,20.30075168609619 l3.237,-7.844 L0,7.576751686096192 l7.255,-0.05400000000000009 L10.5,0.3007516860961912 l3.245,7.222 l7.255,0.05400000000000009 l-6.249,4.88 L17.987999999999996,20.30075168609619 z" id="svg_7" class="" opacity="1"/><path fill="#f4436c" d="M56.81578826904297,14.842000953674315 L49.32778826904297,20.000000953674316 l3.237,-7.844 L46.31578826904297,7.276000953674316 l7.255,-0.05400000000000015 L56.81578826904297,9.536743165727835e-7 l3.245,7.222 l7.255,0.05400000000000015 l-6.249,4.88 L64.30378826904297,20.000000953674316 z" class="" id="svg_8" opacity="1"/><path fill="#f4436c" d="M79.82330799102783,15.293128005981444 L72.33530799102785,20.451128005981445 l3.237,-7.844 L69.32330799102783,7.727128005981442 l7.255,-0.05400000000000017 L79.82330799102783,0.4511280059814449 l3.245,7.222 l7.255,0.05400000000000017 l-6.249,4.88 L87.31130799102783,20.451128005981445 z" class="" id="svg_9" opacity="1"/><path fill="#f4436c" d="M103.58270645141602,14.992379180908202 L96.09470645141602,20.150379180908203 l3.237,-7.844 L93.08270645141602,7.426379180908199 l7.255,-0.05400000000000014 L103.58270645141602,0.15037918090820293 l3.245,7.222 l7.255,0.05400000000000014 l-6.249,4.88 L111.07070645141602,20.150379180908203 z" class="" id="svg_10" opacity="1"/><path fill="#f4436c" d="M34.259398460388184,14.841999999999999 L26.77139846038818,20 l3.237,-7.844 L23.75939846038818,7.276 l7.255,-0.05400000000000013 L34.259398460388184,1.1102230246251565e-16 l3.245,7.222 l7.255,0.05400000000000013 l-6.249,4.88 L41.74739846038818,20 z" class="" id="svg_11" opacity="1"/></g></g></svg>
