<svg width="28" height="27" viewBox="0 0 28 27" fill="none" xmlns="http://www.w3.org/2000/svg">
<path d="M27.022 0.0690002C26.3928 0.141742 25.7698 0.260731 25.158 0.425C23.9928 0.673197 22.9132 1.22284 22.027 2.019C21.3335 2.63859 20.8557 3.46321 20.663 4.373C20.578 4.91637 20.6893 5.47226 20.977 5.941L20.287 6.632C20.3759 5.64876 20.274 4.65761 19.987 3.713C19.8231 3.10024 19.6145 2.50031 19.363 1.918L19.097 1.335L18.573 1.707C18.0634 2.08505 17.5825 2.50018 17.134 2.949C16.251 3.74635 15.5922 4.76099 15.223 5.892C14.932 6.77573 14.9303 7.72921 15.218 8.614C15.3479 8.95358 15.5565 9.25751 15.8267 9.50087C16.0968 9.74423 16.4208 9.92008 16.772 10.014C16.808 10.024 16.845 10.032 16.881 10.039L15.381 11.539C15.4699 10.5554 15.368 9.56395 15.081 8.619C14.9175 8.00701 14.7097 7.40775 14.459 6.826L14.193 6.242L13.663 6.615C13.1531 6.99189 12.6721 7.40638 12.224 7.855C11.3413 8.65302 10.6831 9.66841 10.315 10.8C10.0238 11.6833 10.0217 12.6364 10.309 13.521C10.4389 13.8606 10.6475 14.1645 10.9177 14.4079C11.1878 14.6512 11.5118 14.8271 11.863 14.921C11.897 14.931 11.933 14.939 11.973 14.947L10.421 16.5C10.5104 15.5164 10.4086 14.5248 10.121 13.58C9.95737 12.9684 9.74777 12.37 9.49401 11.79L9.23201 11.2L8.707 11.572C8.19869 11.9497 7.71843 12.3638 7.27 12.811C6.38499 13.6082 5.72408 14.6232 5.353 15.755C5.06197 16.6383 5.05987 17.5914 5.347 18.476C5.47703 18.8157 5.68577 19.1197 5.95609 19.3631C6.2264 19.6064 6.55058 19.7822 6.902 19.876C6.938 19.886 6.973 19.894 7.011 19.901L0.827004 26.086C0.750841 26.1584 0.697926 26.2518 0.674984 26.3544C0.652042 26.457 0.660108 26.564 0.698158 26.662C0.736207 26.76 0.802522 26.8444 0.888675 26.9046C0.974828 26.9648 1.07693 26.998 1.182 27H1.195C1.3321 27.0006 1.46408 26.9479 1.563 26.853L1.578 26.838L7.763 20.649C7.77 20.686 7.778 20.722 7.787 20.757C7.88092 21.1082 8.05678 21.4322 8.30014 21.7024C8.5435 21.9725 8.84743 22.1811 9.18701 22.311C10.0704 22.5986 11.0226 22.5969 11.905 22.306C13.0379 21.9373 14.0544 21.2781 14.853 20.394C15.3015 19.9464 15.7156 19.4657 16.092 18.956L16.467 18.435L15.879 18.164C15.2985 17.9125 14.7002 17.7042 14.089 17.541C13.1438 17.2536 12.1519 17.1517 11.168 17.241L12.719 15.69C12.726 15.727 12.734 15.763 12.744 15.8C12.8379 16.1512 13.0138 16.4752 13.2571 16.7454C13.5005 17.0155 13.8044 17.2241 14.144 17.354C15.0288 17.6417 15.9823 17.64 16.866 17.349C17.9974 16.9781 19.012 16.3175 19.809 15.433C20.2581 14.9861 20.6742 14.5071 21.054 14L21.426 13.476L20.843 13.21C20.2606 12.9587 19.6607 12.7501 19.048 12.586C18.102 12.2989 17.1096 12.197 16.125 12.286L17.632 10.779C17.639 10.815 17.647 10.852 17.658 10.89C17.7518 11.2414 17.9276 11.5656 18.1709 11.8359C18.4143 12.1062 18.7183 12.315 19.058 12.445C19.9425 12.733 20.8958 12.7309 21.779 12.439C22.9102 12.0698 23.9249 11.4105 24.722 10.527C25.1702 10.079 25.585 9.5987 25.963 9.09L26.335 8.565L25.751 8.3C25.169 8.04894 24.5694 7.84072 23.957 7.677C23.0113 7.39023 22.0192 7.28837 21.035 7.377L21.727 6.685C22.1956 6.97302 22.7515 7.0847 23.295 7C24.2045 6.80659 25.0286 6.32847 25.648 5.635C26.4438 4.74957 26.9937 3.6711 27.243 2.507C27.4074 1.89528 27.5264 1.27225 27.599 0.643L27.663 0L27.022 0.0690002ZM9.057 19.376C9.53868 18.8629 10.1712 18.5165 10.863 18.387C11.1729 18.3092 11.4915 18.2719 11.811 18.276H11.927C12.5695 18.3 13.2071 18.3983 13.827 18.569C14.1165 18.6408 14.3997 18.7358 14.674 18.853L14.774 18.893L14.71 18.976C14.5316 19.2141 14.3343 19.4375 14.12 19.644C13.4331 20.374 12.5872 20.9359 11.648 21.286C10.984 21.5172 10.2637 21.5316 9.591 21.327C9.40591 21.2574 9.24007 21.1447 9.1072 20.9982C8.97434 20.8517 8.87827 20.6757 8.82696 20.4848C8.77565 20.2938 8.77056 20.0933 8.81213 19.9C8.8537 19.7067 8.94073 19.526 9.066 19.373L9.057 19.376ZM9.28401 16.8C9.15337 17.4922 8.80554 18.1248 8.291 18.606C8.13836 18.7311 7.95809 18.818 7.76514 18.8595C7.57218 18.901 7.37212 18.8958 7.18156 18.8445C6.99099 18.7931 6.81542 18.6971 6.6694 18.5643C6.52339 18.4315 6.41115 18.2658 6.342 18.081C6.13622 17.4085 6.15023 16.688 6.382 16.024C6.73203 15.0844 7.29391 14.2382 8.024 13.551C8.22979 13.3374 8.45251 13.1407 8.69 12.963L8.775 12.899C8.788 12.932 8.802 12.963 8.815 12.999C8.93239 13.2733 9.0277 13.5565 9.10001 13.846C9.40133 14.8033 9.46449 15.8197 9.28401 16.807V16.8ZM14.015 14.412C14.4943 13.8982 15.1247 13.5504 15.815 13.419C16.1223 13.342 16.4383 13.3053 16.755 13.31H16.879C17.5218 13.3364 18.1593 13.4371 18.779 13.61C19.0681 13.6815 19.351 13.7762 19.625 13.893L19.725 13.933L19.661 14.013C19.4825 14.252 19.2849 14.4761 19.07 14.683C18.3926 15.422 17.5451 15.9847 16.601 16.322C15.9374 16.5545 15.217 16.5699 14.544 16.366C14.3588 16.2965 14.1929 16.1837 14.06 16.0371C13.9272 15.8905 13.8313 15.7143 13.7803 15.5232C13.7293 15.332 13.7248 15.1314 13.767 14.9382C13.8092 14.7449 13.897 14.5645 14.023 14.412H14.015ZM14.242 11.844C14.1102 12.5341 13.7624 13.1644 13.249 13.644C13.0965 13.7698 12.9162 13.8574 12.723 13.8995C12.5299 13.9416 12.3295 13.937 12.1384 13.886C11.9474 13.8351 11.7713 13.7392 11.6248 13.6065C11.4783 13.4738 11.3656 13.308 11.296 13.123C11.0903 12.4494 11.1047 11.7278 11.337 11.063C11.6834 10.1245 12.2459 9.2807 12.979 8.6C13.185 8.38655 13.4077 8.18992 13.645 8.012L13.73 7.948L13.77 8.048C13.887 8.32189 13.9817 8.60481 14.053 8.894C14.3486 9.85193 14.4137 10.8661 14.243 11.854L14.242 11.844ZM18.924 9.503C19.4034 8.9894 20.0338 8.64163 20.724 8.51C21.0312 8.43513 21.3468 8.40018 21.663 8.406H21.785C22.4278 8.43245 23.0653 8.53311 23.685 8.706C23.9741 8.77757 24.257 8.8722 24.531 8.989L24.631 9.029L24.567 9.116C24.3893 9.3529 24.193 9.57527 23.98 9.781C23.3026 10.5198 22.4551 11.0821 21.511 11.419C20.8474 11.6515 20.127 11.6669 19.454 11.463C19.2687 11.3939 19.1026 11.2815 18.9696 11.1351C18.8366 10.9887 18.7406 10.8126 18.6896 10.6215C18.6386 10.4304 18.634 10.2299 18.6764 10.0367C18.7187 9.84348 18.8067 9.66323 18.933 9.511L18.924 9.503ZM19.151 6.935C19.0196 7.62526 18.6718 8.25573 18.158 8.735C18.0055 8.86081 17.8252 8.94841 17.632 8.9905C17.4389 9.0326 17.2385 9.02797 17.0474 8.97702C16.8564 8.92606 16.6803 8.83024 16.5338 8.69753C16.3873 8.56482 16.2746 8.39905 16.205 8.214C15.9996 7.54148 16.0136 6.82102 16.245 6.157C16.5904 5.21595 17.153 4.36969 17.887 3.687C18.0939 3.47251 18.3176 3.27488 18.556 3.096L18.637 3.032L18.678 3.132C18.7946 3.40504 18.8892 3.68693 18.961 3.975C19.2574 4.9345 19.3225 5.95052 19.151 6.94V6.935ZM26.415 1.247C26.415 1.28 26.407 1.311 26.402 1.347C26.3658 1.64568 26.3056 1.94097 26.222 2.23C25.993 3.2067 25.5416 4.11734 24.903 4.891C24.4432 5.42388 23.8257 5.79654 23.14 5.955C22.9547 5.99259 22.7629 5.98378 22.5818 5.92934C22.4007 5.87491 22.2359 5.77654 22.102 5.643C22.0797 5.6148 22.0546 5.58899 22.027 5.566C21.8928 5.4321 21.7939 5.26702 21.7391 5.08553C21.6843 4.90404 21.6753 4.7118 21.713 4.526C21.871 3.84031 22.2433 3.22278 22.776 2.763C23.5484 2.12478 24.4577 1.6734 25.433 1.444C25.7201 1.3611 26.0133 1.30157 26.31 1.266L26.415 1.247Z" fill="#484848"/>
</svg>
