<svg xmlns="http://www.w3.org/2000/svg" width="12" height="12">
  <defs>
    <style>
      .a{fill:#000000;}
    </style>
  </defs>
  <path class="a" d="M1.8 2.519h3.22a.517.517 0 100-1.034H1.8A1.793 1.793 0 00.01 3.273L0 10.197a1.791 1.791 0 001.788 1.793l6.934.01a1.791 1.791 0 001.79-1.791V6.978a.517.517 0 10-1.034 0v3.23a.756.756 0 01-.756.756l-6.934-.01a.756.756 0 01-.755-.757l.01-6.924a.757.757 0 01.757-.754z"/>
  <path class="a" d="M11.332 4.6A.668.668 0 0012 3.932V.672A.668.668 0 0011.332 0h-3.26a.668.668 0 000 1.336h1.575L3.624 7.359a.668.668 0 00.945.945l6.1-6.1v1.721a.668.668 0 00.663.675z"/>
</svg>