<svg width="81" height="18" viewBox="0 0 81 18" fill="none" xmlns="http://www.w3.org/2000/svg">
<path fill-rule="evenodd" clip-rule="evenodd" d="M78.335 13.33V13.33C78.9437 13.33 79.5274 13.5718 79.9578 14.0022C80.3882 14.4326 80.63 15.0163 80.63 15.625C80.63 16.2337 80.3882 16.8174 79.9578 17.2478C79.5274 17.6782 78.9437 17.92 78.335 17.92C77.7263 17.92 77.1426 17.6782 76.7122 17.2478C76.2818 16.8174 76.04 16.2337 76.04 15.625C76.04 15.0163 76.2818 14.4326 76.7122 14.0022C77.1426 13.5718 77.7263 13.33 78.335 13.33ZM70.796 6.228V6.229C69.8274 5.56915 68.6972 5.18591 67.527 5.12054C66.3568 5.05516 65.1909 5.31011 64.1548 5.85795C63.1187 6.4058 62.2516 7.2258 61.6468 8.22972C61.042 9.23365 60.7224 10.3835 60.7224 11.5555C60.7224 12.7275 61.042 13.8774 61.6468 14.8813C62.2516 15.8852 63.1187 16.7052 64.1548 17.253C65.1909 17.8009 66.3568 18.0558 67.527 17.9905C68.6972 17.9251 69.8274 17.5419 70.796 16.882V17.662H74.453V5.447H70.796V6.228ZM67.47 14.698V14.697C65.64 14.697 64.156 13.29 64.156 11.555C64.156 9.819 65.64 8.412 67.47 8.412C69.3 8.412 70.784 9.819 70.784 11.555C70.784 13.29 69.3 14.698 67.47 14.698ZM54.226 5.118V5.118C57.173 5.118 59.433 7.051 59.433 9.894V17.662H55.779V11.217C55.779 9.436 54.856 8.476 53.249 8.476C51.749 8.476 50.503 9.385 50.503 11.242V17.662H46.817V5.447H50.458V6.823C51.383 5.572 52.766 5.118 54.226 5.118ZM41.528 7.038H41.529C42.262 6.084 43.628 5.448 45.113 5.448V9.002L45.07 9C43.622 9 41.536 10.035 41.536 11.959V17.662H37.783V5.447H41.528V7.038ZM32.213 6.228V6.229C31.2444 5.56915 30.1142 5.18591 28.944 5.12054C27.7738 5.05516 26.6079 5.31011 25.5718 5.85795C24.5357 6.4058 23.6686 7.2258 23.0638 8.22972C22.459 9.23365 22.1394 10.3835 22.1394 11.5555C22.1394 12.7275 22.459 13.8774 23.0638 14.8813C23.6686 15.8852 24.5357 16.7052 25.5718 17.253C26.6079 17.8009 27.7738 18.0558 28.944 17.9905C30.1142 17.9251 31.2444 17.5419 32.213 16.882V17.662H35.87V5.447H32.213V6.228ZM28.887 14.698V14.697C27.057 14.697 25.573 13.29 25.573 11.555C25.573 9.819 27.057 8.412 28.887 8.412C30.717 8.412 32.201 9.819 32.201 11.555C32.201 13.29 30.717 14.698 28.887 14.698ZM16.815 17.662V0.003H20.643V17.662H16.815ZM14.177 0C14.177 3.825 12.687 7.383 10.031 10.027L15.634 17.667H10.628L4.538 9.364L6.11 8.187C8.716 6.235 10.21 3.251 10.21 0H14.177ZM0 17.667V0H4.053V17.667H0Z" fill="black"/>
</svg>
