<svg xmlns="http://www.w3.org/2000/svg" width="40" height="40"><defs><style>.b{fill:#ff798f}</style></defs><path fill="none" d="M0 0h40v40H0z"/><g transform="translate(0 3)"><path class="b" d="M32.238 0a7.759 7.759 0 00-7.287 5.191l-.31.874-.891-.261a12.9 12.9 0 00-7.5 0l-.891.263-.31-.877a7.74 7.74 0 10-9.618 9.929l.928.294-.289.931a18.21 18.21 0 00-.826 5.4c0 6.207 6.619 11.258 14.755 11.258s14.755-5.051 14.755-11.258a18.283 18.283 0 00-.825-5.4l-.288-.93.928-.294A7.737 7.737 0 0032.237-.002zM6.245 13.782a6.215 6.215 0 117.448-7.83l.228.745-.675.39a15.607 15.607 0 00-5.9 6.207l-.361.675zM20.003 31.47c-7.165 0-13.218-4.453-13.218-9.722 0-8.252 5.929-14.967 13.218-14.967s13.218 6.715 13.218 14.967c-.003 5.269-6.056 9.722-13.218 9.722zm13.756-17.688l-.743.187-.361-.674a15.615 15.615 0 00-5.9-6.207l-.674-.39.227-.745a6.212 6.212 0 117.45 7.83z"/><path class="b" d="M20 27.777c-2.4 0-4.281-2.649-4.281-6.029S17.6 15.719 20 15.719s4.281 2.649 4.281 6.029-1.88 6.029-4.281 6.029zm0-10.49c-1.47 0-2.713 2.042-2.713 4.461S18.53 26.209 20 26.209s2.713-2.043 2.713-4.461-1.239-4.461-2.713-4.461z"/><circle class="b" cx="1.176" cy="1.176" r="1.176" transform="translate(11.831 17.075)"/><circle class="b" cx="1.176" cy="1.176" r="1.176" transform="translate(25.817 17.075)"/></g></svg>
