<svg xmlns="http://www.w3.org/2000/svg" width="40" height="40"><defs><style>.b{fill:#ff798f}</style></defs><path fill="none" d="M0 0h40v40H0z"/><path class="b" d="M35.427 20.755l-1.466-1.606a.691.691 0 00-.989-.023l-3.541 3.611H12.492l11.953-12.191a.724.724 0 00.03-1.016L22.93 7.954a.718.718 0 00-.514-.225h-.008a.714.714 0 00-.508.212.736.736 0 00-.218.52.746.746 0 00.207.527l1.015 1.035-14.909 15.2a7.773 7.773 0 000 10.761 7.412 7.412 0 0010.55 0l14.854-15.2 1 1.021a.716.716 0 001.024-.013.753.753 0 00.004-1.037zM17.466 34.939a5.926 5.926 0 01-8.5 0 6.221 6.221 0 010-8.666l2.049-2.09h16.937zM29.721 7.353a3.677 3.677 0 10-3.6-3.677 3.645 3.645 0 003.6 3.677zm0-5.8a2.175 2.175 0 01.042 4.348h-.042a2.174 2.174 0 010-4.348z"/><path class="b" d="M31.56 10.652h-.015a2.521 2.521 0 00-1.807.758 2.621 2.621 0 00-.758 1.846v.023a2.577 2.577 0 102.576-2.627zm1.1 2.627a1.1 1.1 0 11-1.1-1.125 1.1 1.1 0 01.767.305 1.11 1.11 0 01.337.775z"/><g><path class="b" d="M35.308 39.999a.681.681 0 01-.489-.207L3.202 7.547a.714.714 0 010-1 .682.682 0 01.977 0l31.617 32.245a.714.714 0 010 1 .68.68 0 01-.488.207z"/></g></svg>
