<svg width="29" height="25" viewBox="0 0 29 25" fill="none" xmlns="http://www.w3.org/2000/svg">
<path d="M24.753 17.509C23.9783 17.5106 23.224 17.7582 22.599 18.216L22.516 18.279L20.675 16.406L20.743 16.321C21.6022 15.2408 22.0697 13.9012 22.069 12.521C22.0749 11.1382 21.6029 9.79587 20.733 8.721L20.664 8.63599L22.515 6.763L22.598 6.826C23.2229 7.28413 23.9772 7.53173 24.752 7.533C25.5915 7.52583 26.4047 7.23902 27.0629 6.71793C27.7212 6.19683 28.1869 5.47118 28.3865 4.65573C28.5861 3.84028 28.5082 2.98155 28.1651 2.21533C27.822 1.44911 27.2333 0.819128 26.492 0.424996C25.7475 0.0351945 24.8929 -0.0910911 24.0675 0.0667003C23.242 0.224492 22.4943 0.657066 21.946 1.294C21.3945 1.93367 21.0722 2.73909 21.0302 3.58265C20.9882 4.42621 21.2288 5.25967 21.714 5.951L21.776 6.034L19.925 7.907L19.841 7.838C18.7904 6.96382 17.4667 6.48543 16.1 6.486C14.5079 6.49736 12.9852 7.13973 11.8661 8.27222C10.7469 9.4047 10.1226 10.9348 10.13 12.527C10.1326 12.8399 10.159 13.1521 10.209 13.461L10.226 13.569L7.65103 14.261L7.60903 14.17C7.22042 13.3359 6.53632 12.6756 5.68905 12.3167C4.84177 11.9578 3.89151 11.9258 3.02203 12.227C2.1531 12.5325 1.42653 13.1463 0.980155 13.952C0.533781 14.7576 0.398659 15.6991 0.600424 16.5978C0.802189 17.4965 1.3268 18.2899 2.07474 18.8274C2.82268 19.365 3.74191 19.6093 4.65803 19.514C5.57364 19.4063 6.41743 18.9649 7.02807 18.2742C7.63871 17.5834 7.97336 16.6919 7.96803 15.77C7.96803 15.64 7.96103 15.513 7.94903 15.387L7.93803 15.287L10.495 14.594L10.534 14.694C10.997 15.9095 11.8383 16.9441 12.934 17.645C12.9922 17.6819 13.057 17.707 13.1249 17.7187C13.1928 17.7303 13.2623 17.7285 13.3295 17.7131C13.3966 17.6978 13.46 17.6693 13.5161 17.6293C13.5721 17.5892 13.6197 17.5385 13.656 17.48C13.7299 17.3611 13.7542 17.2179 13.7238 17.0812C13.6933 16.9445 13.6105 16.8253 13.493 16.749C12.4889 16.1061 11.749 15.124 11.408 13.9815C11.067 12.839 11.1476 11.6121 11.635 10.524C12.1149 9.43805 12.9728 8.56326 14.0491 8.06224C15.1255 7.56121 16.3471 7.46802 17.487 7.79999C18.6262 8.13978 19.6055 8.87742 20.2465 9.8786C20.8876 10.8798 21.1477 12.0779 20.9795 13.2547C20.8113 14.4316 20.2261 15.5089 19.3303 16.2905C18.4345 17.072 17.2878 17.5059 16.099 17.513C15.9627 17.5163 15.833 17.5722 15.737 17.669C15.641 17.7658 15.5861 17.896 15.5839 18.0323C15.5817 18.1687 15.6324 18.3005 15.7252 18.4004C15.818 18.5002 15.9459 18.5603 16.082 18.568C17.4577 18.5738 18.7915 18.0956 19.85 17.217L19.934 17.148L21.785 19.021L21.723 19.105C21.2444 19.7926 21.0088 20.6201 21.0533 21.4567C21.0979 22.2933 21.4201 23.0911 21.969 23.724C22.5153 24.3534 23.258 24.7799 24.0769 24.9346C24.8958 25.0892 25.7429 24.9629 26.481 24.576C27.2201 24.1861 27.8078 23.5604 28.1505 22.7983C28.4933 22.0362 28.5715 21.1814 28.3728 20.3698C28.1741 19.5581 27.7099 18.8361 27.0539 18.3185C26.3978 17.8009 25.5877 17.5174 24.752 17.513L24.753 17.509ZM24.753 1.051C25.2883 1.05017 25.8118 1.20849 26.257 1.50584C26.7021 1.80319 27.0488 2.22616 27.253 2.721C27.4586 3.21701 27.5135 3.76262 27.4107 4.28962C27.3078 4.81662 27.052 5.30162 26.675 5.684C26.3001 6.06431 25.8202 6.32395 25.2967 6.42961C24.7732 6.53527 24.2301 6.48212 23.737 6.277C23.1606 6.0351 22.6851 5.60197 22.3906 5.05052C22.0962 4.49908 22.0007 3.86301 22.1204 3.24943C22.24 2.63584 22.5674 2.08223 23.0475 1.6818C23.5276 1.28138 24.1309 1.0586 24.756 1.051H24.753ZM4.23703 18.483C3.70182 18.4839 3.17842 18.3257 2.73329 18.0286C2.28816 17.7314 1.9414 17.3086 1.73703 16.814C1.5313 16.3181 1.47632 15.7725 1.57894 15.2455C1.68157 14.7185 1.93725 14.2335 2.31403 13.851C2.68882 13.4705 3.16874 13.2107 3.69222 13.1048C4.2157 12.999 4.75887 13.052 5.25203 13.257C5.8284 13.4988 6.30384 13.9319 6.59832 14.4832C6.89279 15.0346 6.98831 15.6706 6.8688 16.2841C6.74929 16.8976 6.42204 17.4512 5.94215 17.8517C5.46226 18.2522 4.85904 18.4752 4.23403 18.483H4.23703ZM24.752 23.995C24.2168 23.9959 23.6934 23.8377 23.2483 23.5406C22.8032 23.2434 22.4564 22.8206 22.252 22.326C22.0463 21.8301 21.9913 21.2845 22.0939 20.7575C22.1966 20.2305 22.4522 19.7455 22.829 19.363C23.2038 18.9825 23.6837 18.7227 24.2072 18.6168C24.7307 18.511 25.2739 18.564 25.767 18.769C26.3432 19.0112 26.8185 19.4443 27.113 19.9956C27.4076 20.5469 27.5034 21.1827 27.3845 21.7963C27.2655 22.4099 26.939 22.9639 26.4598 23.3652C25.9807 23.7665 25.378 23.9906 24.753 24L24.752 23.995Z" fill="#484848"/>
</svg>
