<svg width="25" height="28" viewBox="0 0 25 28" fill="none" xmlns="http://www.w3.org/2000/svg">
<path d="M24.35 13.676C24.4948 13.676 24.6337 13.6185 24.7361 13.5161C24.8385 13.4137 24.896 13.2748 24.896 13.13C24.896 12.9852 24.8385 12.8463 24.7361 12.7439C24.6337 12.6415 24.4948 12.584 24.35 12.584H23.569V6.49099H24.35C24.4948 6.49099 24.6337 6.43346 24.7361 6.33107C24.8385 6.22867 24.896 6.0898 24.896 5.94499C24.896 5.80018 24.8385 5.6613 24.7361 5.55891C24.6337 5.45651 24.4948 5.39899 24.35 5.39899H21.708V4.25099C21.7046 3.94916 21.5816 3.66101 21.366 3.44974C21.1504 3.23847 20.8598 3.12132 20.558 3.12399H17.199C16.8973 3.12159 16.607 3.23886 16.3917 3.4501C16.1763 3.66134 16.0534 3.94934 16.05 4.25099V5.39999H9.82301C8.7226 3.87123 7.85827 2.18573 7.25901 0.399989C7.23986 0.330426 7.207 0.265394 7.16235 0.208721C7.1177 0.152048 7.06216 0.104879 6.99901 0.0699894C6.87021 -0.000957377 6.71882 -0.0188933 6.57701 0.0199902C6.48526 0.0444595 6.40144 0.0923486 6.33378 0.158964C6.26611 0.22558 6.21691 0.308635 6.19101 0.399989C5.58175 2.2048 4.70534 3.90807 3.59101 5.45299C2.10501 7.74999 0.699008 9.92099 0.922008 12.561C1.03942 13.8863 1.63891 15.1226 2.60688 16.0354C3.57486 16.9483 4.84407 17.4744 6.17401 17.514V26.907H5.39301C5.2482 26.907 5.10932 26.9645 5.00693 27.0669C4.90453 27.1693 4.84701 27.3082 4.84701 27.453C4.84701 27.5978 4.90453 27.7367 5.00693 27.8391C5.10932 27.9415 5.2482 27.999 5.39301 27.999H24.35C24.4948 27.999 24.6337 27.9415 24.7361 27.8391C24.8385 27.7367 24.896 27.5978 24.896 27.453C24.896 27.3082 24.8385 27.1693 24.7361 27.0669C24.6337 26.9645 24.4948 26.907 24.35 26.907H23.569V20.861H24.35C24.4948 20.861 24.6337 20.8035 24.7361 20.7011C24.8385 20.5987 24.896 20.4598 24.896 20.315C24.896 20.1702 24.8385 20.0313 24.7361 19.9289C24.6337 19.8265 24.4948 19.769 24.35 19.769H23.569V13.674L24.35 13.676ZM17.162 5.39999V4.25399C17.162 4.22599 17.171 4.21799 17.2 4.21799H20.556C20.5657 4.21798 20.5751 4.2217 20.5822 4.2284C20.5893 4.2351 20.5935 4.24426 20.594 4.25399V5.39999H17.162ZM10.52 6.49399H22.455V12.587H12.52V12.561C12.705 10.22 11.642 8.27899 10.52 6.49199V6.49399ZM7.28301 17.518C8.42187 17.4865 9.52197 17.0975 10.4276 16.4062C11.3331 15.7149 11.9984 14.7563 12.329 13.666L12.422 13.678H22.454V19.773H7.28301V17.518ZM6.72101 16.454C5.5754 16.5315 4.44464 16.1599 3.56839 15.4178C2.69215 14.6758 2.13929 13.6217 2.02701 12.479C1.83601 10.2 3.14301 8.17899 4.52701 6.03799C5.36541 4.81869 6.09999 3.53117 6.72301 2.18899C7.34592 3.53071 8.08015 4.81788 8.91801 6.03699L9.06301 6.26099C10.31 8.19099 11.601 10.188 11.42 12.481C11.23 14.854 9.34401 16.451 6.72001 16.451L6.72101 16.454ZM22.454 20.863V26.91H7.28301V20.861L22.454 20.863Z" fill="#484848"/>
</svg>
