<svg width="34" height="28" viewBox="0 0 34 28" fill="none" xmlns="http://www.w3.org/2000/svg">
<path d="M33.217 5.42298C32.8274 4.19554 32.0669 3.11904 31.0402 2.34164C30.0135 1.56425 28.7711 1.12417 27.484 1.08198H27.402C26.1285 1.08348 24.8866 1.4781 23.8458 2.21192C22.805 2.94575 22.0162 3.983 21.587 5.18198L21.177 6.08198L20.277 5.83598C18.2973 5.26265 16.1957 5.26265 14.216 5.83598L13.316 6.08198L12.988 5.18198C12.4466 3.64699 11.3301 2.38237 9.874 1.65498C9.03692 1.22746 8.11093 1.00307 7.171 0.999984C6.47473 0.98873 5.78189 1.09975 5.124 1.32798C4.36406 1.58899 3.66327 1.99777 3.062 2.53079C2.46073 3.06381 1.97087 3.71053 1.62063 4.43369C1.27039 5.15686 1.06669 5.94217 1.02127 6.7444C0.975856 7.54663 1.08962 8.34991 1.356 9.10798C1.67882 10.0043 2.20007 10.8161 2.88078 11.4826C3.5615 12.1491 4.38406 12.6531 5.287 12.957L6.27 13.285L5.942 14.268C5.59044 15.717 5.3983 17.2002 5.369 18.691C5.369 23.691 10.693 27.7 17.245 27.7C23.797 27.7 29.121 23.687 29.121 18.691C29.11 17.2202 28.8895 15.7585 28.466 14.35L28.138 13.367L29.121 13.039C29.8939 12.8017 30.611 12.4111 31.2295 11.8905C31.8481 11.3699 32.3553 10.73 32.721 10.009C33.1021 9.3151 33.3422 8.55264 33.4273 7.76555C33.5124 6.97847 33.441 6.18232 33.217 5.42298ZM5.943 12.385C4.60118 12.0235 3.45117 11.157 2.73359 9.96695C2.01601 8.77689 1.78647 7.35542 2.093 5.99998C2.44388 4.62924 3.31744 3.45032 4.52669 2.71562C5.73593 1.98091 7.18476 1.7488 8.563 2.06898C9.45672 2.27481 10.2784 2.71782 10.9415 3.35138C11.6046 3.98493 12.0847 4.78557 12.331 5.66898L12.577 6.40598L11.922 6.81598C9.90607 8.01047 8.2616 9.74149 7.172 11.816L6.762 12.471L5.943 12.385ZM28.303 18.692C28.303 23.115 23.225 26.882 17.246 26.882C11.346 26.882 6.271 23.114 6.271 18.692C6.271 11.812 11.185 6.24298 17.328 6.24298C23.471 6.24298 28.303 11.811 28.303 18.691V18.692ZM32.403 8.78198C32.1317 9.65263 31.6436 10.44 30.9845 11.0703C30.3254 11.7005 29.5169 12.1529 28.635 12.385L27.898 12.549L27.488 11.894C26.4216 9.80297 24.7716 8.06614 22.738 6.89398L22.001 6.48398L22.247 5.74698C22.6687 4.40637 23.6009 3.28548 24.8422 2.62647C26.0835 1.96746 27.5343 1.82325 28.881 2.22498C29.5448 2.4151 30.1629 2.73822 30.6979 3.1747C31.2329 3.61118 31.6735 4.1519 31.993 4.76398C32.3226 5.37356 32.5281 6.04244 32.5977 6.73194C32.6672 7.42144 32.5993 8.11788 32.398 8.78098L32.403 8.78198Z" fill="#484848" stroke="#484848" stroke-width="0.3"/>
<path d="M17.245 13.941C15.361 13.941 13.969 15.989 13.969 18.691C13.969 21.312 15.443 23.441 17.245 23.441C19.129 23.441 20.521 21.393 20.521 18.691C20.603 16.07 19.129 13.941 17.245 13.941ZM17.245 22.541C15.935 22.541 14.788 20.741 14.788 18.692C14.788 16.643 15.935 14.841 17.245 14.841C18.555 14.841 19.702 16.561 19.702 18.69C19.702 20.819 18.638 22.541 17.245 22.541V22.541Z" fill="#484848" stroke="#484848" stroke-width="0.3"/>
<path d="M11.594 15.087C11.4482 15.087 11.3057 15.1303 11.1845 15.2112C11.0633 15.2922 10.9689 15.4073 10.9131 15.542C10.8573 15.6767 10.8427 15.8249 10.8712 15.9678C10.8996 16.1108 10.9698 16.2421 11.0729 16.3452C11.1759 16.4483 11.3072 16.5184 11.4502 16.5469C11.5932 16.5753 11.7414 16.5607 11.876 16.5049C12.0107 16.4492 12.1258 16.3547 12.2068 16.2335C12.2878 16.1123 12.331 15.9698 12.331 15.824C12.3314 15.7271 12.3126 15.6311 12.2757 15.5415C12.2388 15.4519 12.1845 15.3705 12.116 15.302C12.0475 15.2335 11.9661 15.1792 11.8765 15.1423C11.7869 15.1054 11.6909 15.0866 11.594 15.087Z" fill="#484848" stroke="#484848" stroke-width="0.3"/>
<path d="M22.979 15.0869C22.8332 15.0869 22.6907 15.1302 22.5695 15.2111C22.4483 15.2921 22.3539 15.4072 22.2981 15.5419C22.2423 15.6766 22.2277 15.8247 22.2562 15.9677C22.2846 16.1107 22.3548 16.242 22.4579 16.3451C22.5609 16.4481 22.6923 16.5183 22.8352 16.5468C22.9782 16.5752 23.1264 16.5606 23.261 16.5048C23.3957 16.449 23.5108 16.3546 23.5918 16.2334C23.6728 16.1122 23.716 15.9697 23.716 15.8239C23.7235 15.7252 23.7096 15.6261 23.6752 15.5333C23.6408 15.4405 23.5867 15.3562 23.5167 15.2862C23.4468 15.2162 23.3625 15.1621 23.2697 15.1278C23.1768 15.0934 23.0777 15.0794 22.979 15.0869V15.0869Z" fill="#484848" stroke="#484848" stroke-width="0.3"/>
</svg>
