<svg width="27" height="26" viewBox="0 0 27 26" fill="none" xmlns="http://www.w3.org/2000/svg">
<path d="M25.929 12.66C25.8845 12.6153 25.8317 12.5799 25.7735 12.5557C25.7154 12.5315 25.653 12.519 25.59 12.519H22.169C22.1044 11.2456 21.77 10.0004 21.188 8.866L24.152 7.154C24.2342 7.1067 24.3005 7.036 24.3424 6.9509C24.3844 6.8658 24.4002 6.7702 24.3878 6.6762C24.3754 6.5821 24.3353 6.4939 24.2727 6.4227C24.21 6.3514 24.1276 6.3004 24.036 6.276C23.913 6.2438 23.7824 6.261 23.672 6.324L20.708 8.037C20.0099 6.9704 19.0988 6.0597 18.032 5.362L19.744 2.4C19.7987 2.2906 19.8096 2.1644 19.7744 2.0472C19.7392 1.93 19.6606 1.8306 19.5546 1.7695C19.4486 1.7083 19.3233 1.6899 19.2042 1.7181C19.0852 1.7463 18.9813 1.8188 18.914 1.921L17.203 4.882C16.0676 4.2995 14.8214 3.9648 13.547 3.9V0.479C13.547 0.352 13.4965 0.2301 13.4067 0.1403C13.3168 0.0504998 13.195 0 13.068 0C12.9409 0 12.8191 0.0504998 12.7293 0.1403C12.6394 0.2301 12.589 0.352 12.589 0.479V3.9C11.3156 3.9642 10.0705 4.2983 8.936 4.88L7.224 1.917C7.1947 1.8585 7.1538 1.8066 7.1037 1.7644C7.0536 1.7223 6.99543 1.6909 6.93276 1.6721C6.87008 1.6532 6.80422 1.6474 6.73922 1.655C6.67422 1.6626 6.61145 1.6833 6.55478 1.716C6.4981 1.7488 6.44871 1.7927 6.40964 1.8452C6.37057 1.8977 6.34265 1.9576 6.32759 2.0213C6.31253 2.085 6.31065 2.1511 6.32206 2.2155C6.33348 2.2799 6.35795 2.3414 6.39397 2.396L8.107 5.362C7.0398 6.0593 6.12867 6.9701 5.43097 8.037L2.46897 6.324C2.38695 6.2773 2.29296 6.2559 2.19881 6.2624C2.10465 6.269 2.01452 6.3032 1.93974 6.3607C1.86496 6.4183 1.80886 6.4967 1.77848 6.5861C1.74809 6.6754 1.74479 6.7718 1.76897 6.863C1.7849 6.9239 1.81284 6.981 1.85113 7.031C1.88942 7.081 1.9373 7.1228 1.99197 7.154L4.95097 8.866C4.36829 10.0003 4.03355 11.2455 3.96897 12.519H0.54797C0.42093 12.519 0.2991 12.5695 0.20927 12.6593C0.11944 12.7491 0.0689697 12.871 0.0689697 12.998C0.0689697 13.125 0.11944 13.2469 0.20927 13.3367C0.2991 13.4265 0.42093 13.477 0.54797 13.477H3.96897C4.03288 14.7515 4.36729 15.9977 4.94997 17.133L1.98797 18.844C1.88581 18.9114 1.81324 19.0152 1.78508 19.1343C1.75692 19.2533 1.77529 19.3787 1.83646 19.4847C1.89762 19.5906 1.99695 19.6693 2.11414 19.7045C2.23133 19.7396 2.35754 19.7288 2.46697 19.674L5.43097 17.962C6.12917 19.0285 7.0402 19.9392 8.107 20.637L6.39397 23.6C6.33772 23.7096 6.32573 23.8365 6.36048 23.9547C6.39523 24.0728 6.47407 24.1731 6.58067 24.2348C6.68728 24.2964 6.81351 24.3147 6.93325 24.2859C7.053 24.2571 7.1571 24.1834 7.224 24.08L8.936 21.115C10.0706 21.6964 11.3157 22.0304 12.589 22.095V25.518C12.589 25.645 12.6394 25.7669 12.7293 25.8567C12.8191 25.9465 12.9409 25.997 13.068 25.997C13.195 25.997 13.3168 25.9465 13.4067 25.8567C13.4965 25.7669 13.547 25.645 13.547 25.518V22.1C14.8217 22.0356 16.0682 21.7012 17.204 21.119L18.915 24.085C18.9823 24.1872 19.0862 24.2597 19.2052 24.2879C19.3243 24.3161 19.4496 24.2977 19.5556 24.2365C19.6616 24.1754 19.7402 24.076 19.7754 23.9588C19.8106 23.8416 19.7997 23.7154 19.745 23.606L18.035 20.642C19.1018 19.9447 20.0128 19.0343 20.711 17.968L23.669 19.678C23.7784 19.7328 23.9046 19.7436 24.0218 19.7085C24.139 19.6733 24.2383 19.5946 24.2995 19.4887C24.3606 19.3827 24.379 19.2573 24.3509 19.1383C24.3227 19.0192 24.2501 18.9154 24.148 18.848L21.189 17.136C21.7712 16.0016 22.1056 14.7564 22.17 13.483H25.59C25.6846 13.4826 25.777 13.4543 25.8555 13.4016C25.9341 13.3489 25.9954 13.2742 26.0316 13.1868C26.0678 13.0994 26.0774 13.0032 26.0591 12.9104C26.0409 12.8175 25.9956 12.7322 25.929 12.665V12.66ZM21.229 12.999C21.2292 14.6117 20.7512 16.1883 19.8554 17.5294C18.9597 18.8705 17.6864 19.9159 16.1966 20.5335C14.7068 21.151 13.0673 21.3129 11.4855 20.9988C9.9036 20.6846 8.4504 19.9085 7.3096 18.7686C6.16884 17.6286 5.39166 16.176 5.07635 14.5944C4.76104 13.0128 4.92177 11.3732 5.5382 9.8829C6.15464 8.3926 7.1991 7.1186 8.5396 6.2219C9.88 5.3251 11.4562 4.846 13.069 4.845C15.2317 4.8453 17.3058 5.7045 18.8351 7.2338C20.3644 8.7631 21.2237 10.8372 21.224 13L21.229 12.999Z" fill="#484848"/>
<path d="M16.069 11C15.2778 11 14.5045 11.2346 13.8467 11.6741C13.1889 12.1136 12.6762 12.7384 12.3735 13.4693C12.0707 14.2002 11.9915 15.0044 12.1458 15.7804C12.3002 16.5563 12.6811 17.269 13.2405 17.8284C13.8 18.3878 14.5127 18.7688 15.2886 18.9231C16.0645 19.0775 16.8688 18.9983 17.5997 18.6955C18.3306 18.3928 18.9553 17.8801 19.3948 17.2223C19.8344 16.5645 20.069 15.7911 20.069 15C20.069 13.9391 19.6475 12.9217 18.8974 12.1716C18.1473 11.4214 17.1298 11 16.069 11ZM19.112 15C19.112 15.6016 18.9336 16.1897 18.5994 16.6899C18.2652 17.1902 17.7901 17.5801 17.2343 17.8103C16.6785 18.0406 16.0669 18.1009 15.4769 17.9836C14.8868 17.8663 14.3448 17.5767 13.9193 17.1514C13.4938 16.726 13.204 16.1841 13.0865 15.5941C12.9691 15.0041 13.0292 14.3924 13.2592 13.8366C13.4893 13.2807 13.8791 12.8055 14.3792 12.4712C14.8793 12.1368 15.4674 11.9582 16.069 11.958C16.4685 11.9579 16.8642 12.0365 17.2334 12.1893C17.6026 12.3421 17.9381 12.5661 18.2206 12.8486C18.5032 13.1311 18.7274 13.4665 18.8803 13.8356C19.0333 14.2048 19.112 14.6004 19.112 15ZM14.569 9.00002C14.8656 9.00002 15.1557 8.91202 15.4023 8.74722C15.649 8.58242 15.8413 8.34811 15.9548 8.07401C16.0683 7.79991 16.098 7.49831 16.0401 7.20741C15.9823 6.91641 15.8394 6.64912 15.6296 6.43932C15.4199 6.22962 15.1526 6.08671 14.8616 6.02881C14.5706 5.97091 14.269 6.00072 13.9949 6.11422C13.7209 6.22772 13.4866 6.42001 13.3218 6.66661C13.1569 6.91331 13.069 7.20332 13.069 7.50002C13.069 7.89782 13.227 8.27941 13.5083 8.56071C13.7896 8.84201 14.1711 9.00002 14.569 9.00002ZM13.986 7.50002C13.986 7.38472 14.0202 7.27202 14.0842 7.17612C14.1483 7.08022 14.2393 7.00551 14.3459 6.96141C14.4524 6.91731 14.5696 6.90572 14.6827 6.92822C14.7958 6.95072 14.8997 7.00621 14.9812 7.08781C15.0627 7.16931 15.1183 7.27321 15.1408 7.38631C15.1633 7.49941 15.1517 7.61662 15.1076 7.72312C15.0635 7.82962 14.9887 7.92071 14.8929 7.98471C14.797 8.04881 14.6843 8.08302 14.569 8.08302C14.4143 8.08302 14.2661 8.02162 14.1567 7.91222C14.0474 7.80292 13.986 7.65462 13.986 7.50002ZM9.56901 11C9.86561 11 10.1557 10.912 10.4023 10.7472C10.649 10.5824 10.8413 10.3481 10.9548 10.074C11.0683 9.79991 11.098 9.49831 11.0401 9.20741C10.9823 8.91641 10.8394 8.64912 10.6296 8.43932C10.4199 8.22962 10.1526 8.08671 9.86161 8.02881C9.57061 7.97091 9.26901 8.00072 8.99491 8.11422C8.72091 8.22772 8.48661 8.42001 8.32181 8.66661C8.15691 8.91331 8.06901 9.20332 8.06901 9.50002C8.06901 9.89782 8.22701 10.2794 8.50831 10.5607C8.78961 10.842 9.17111 11 9.56901 11ZM9.00101 9.50002C9.00031 9.36802 9.04541 9.23982 9.12861 9.13742C9.21191 9.03502 9.32811 8.96461 9.45751 8.93831C9.58681 8.91201 9.72131 8.93141 9.83791 8.99331C9.95451 9.05511 10.0461 9.15552 10.097 9.27732C10.1478 9.39912 10.1548 9.53482 10.1168 9.66122C10.0787 9.78762 9.99801 9.89692 9.88831 9.97042C9.77871 10.0439 9.64691 10.077 9.51561 10.0642C9.38421 10.0514 9.26131 9.99332 9.16801 9.90002C9.06161 9.79402 9.00161 9.65022 9.00101 9.50002ZM9.56901 15C9.27231 15 8.98231 15.088 8.73561 15.2528C8.48891 15.4176 8.29671 15.6519 8.18321 15.926C8.06961 16.2001 8.03991 16.5017 8.09781 16.7926C8.15571 17.0836 8.29851 17.3509 8.50831 17.5607C8.71811 17.7704 8.98541 17.9133 9.27631 17.9712C9.56731 18.0291 9.86891 17.9994 10.143 17.8858C10.4171 17.7723 10.6514 17.58 10.8162 17.3334C10.981 17.0867 11.069 16.7967 11.069 16.5C11.069 16.1022 10.9109 15.7206 10.6296 15.4393C10.3483 15.158 9.96681 15 9.56901 15ZM10.136 16.5C10.136 16.6121 10.1027 16.7218 10.0404 16.815C9.97811 16.9083 9.88961 16.9809 9.78601 17.0238C9.68231 17.0668 9.56831 17.078 9.45841 17.0561C9.34841 17.0342 9.24731 16.9802 9.16801 16.9009C9.08871 16.8216 9.03471 16.7206 9.01291 16.6106C8.99101 16.5006 9.00221 16.3866 9.04511 16.283C9.08801 16.1794 9.16071 16.0909 9.25401 16.0286C9.34721 15.9663 9.45681 15.933 9.56901 15.933C9.71931 15.933 9.86361 15.9927 9.96991 16.0991C10.0762 16.2054 10.136 16.3496 10.136 16.5Z" fill="#484848"/>
</svg>
