<svg xmlns="http://www.w3.org/2000/svg" width="30" height="30" viewBox="0 0 30 30"><defs><style>.a{fill:#f3436c;}</style></defs><path class="a" d="M30,5.464V29.036a3.215,3.215,0,0,1-3.214,3.214H10.339a17.158,17.158,0,0,0,1.835-3.971c.2-.77,1.025-3.911,1.025-3.911a4.4,4.4,0,0,0,3.77,1.888c4.962,0,8.531-4.56,8.531-10.225,0-5.431-4.433-9.5-10.138-9.5C8.263,6.536,4.5,11.3,4.5,16.487c0,2.411,1.286,5.411,3.335,6.368.315.147.475.08.549-.221.054-.228.335-1.346.455-1.862a.485.485,0,0,0-.114-.469A6.41,6.41,0,0,1,7.5,16.554a7.118,7.118,0,0,1,7.426-7.138A6.493,6.493,0,0,1,21.8,16.1c0,4.446-2.243,7.527-5.17,7.527a2.392,2.392,0,0,1-2.437-2.973c.462-1.955,1.359-4.065,1.359-5.478,0-3.549-5.056-3.06-5.056,1.674a6.009,6.009,0,0,0,.489,2.444C8.879,28.192,8.565,28.306,9,32.2l.147.054H3.214A3.215,3.215,0,0,1,0,29.036V5.464A3.215,3.215,0,0,1,3.214,2.25H26.786A3.215,3.215,0,0,1,30,5.464Z" transform="translate(0 -2.25)"/></svg>