<svg xmlns="http://www.w3.org/2000/svg" width="36.713" height="33.79" viewBox="0 0 36.713 33.79"><defs><style>.a,.b{fill:#ff798f;}.b{stroke:#ff798f;}</style></defs><g transform="translate(0 0)"><path class="a" d="M-204.812,380.4a16.87,16.87,0,0,1-16.842,16.9A16.87,16.87,0,0,1-238.5,380.4a.953.953,0,0,1,.1-.4l-1.659,1.664a.926.926,0,0,1-.6.252.926.926,0,0,1-.6-.252.825.825,0,0,1,0-1.21l3.067-3.076a1.05,1.05,0,0,1,.3-.2.785.785,0,0,1,.8.1c.05.05.1.05.151.1l3.067,3.076a.825.825,0,0,1,0,1.21.926.926,0,0,1-.6.252.926.926,0,0,1-.6-.252l-1.659-1.664a.953.953,0,0,1,.1.4,15.172,15.172,0,0,0,15.133,15.18,15.172,15.172,0,0,0,15.133-15.18,15.172,15.172,0,0,0-15.133-15.18,14.836,14.836,0,0,0-10.809,4.589.819.819,0,0,1-1.207,0,.825.825,0,0,1,0-1.21,16.78,16.78,0,0,1,12.066-5.094A16.829,16.829,0,0,1-204.812,380.4Z" transform="translate(241.525 -363.5)"/><g transform="translate(11.467 7.576)"><path class="b" d="M-223.774,371.356h-3.681v-2.633a2.791,2.791,0,0,0-.971-2.4,3.014,3.014,0,0,0-2.505-.307.438.438,0,0,0-.307.409v2.966a2.906,2.906,0,0,1-1.355,2.429,5.183,5.183,0,0,1-1.457.716.557.557,0,0,0-.2.128,1.261,1.261,0,0,0-1.048-.537H-237.2a1.309,1.309,0,0,0-1.3,1.3v7.184a1.309,1.309,0,0,0,1.3,1.3h1.892a1.376,1.376,0,0,0,.971-.435,2.356,2.356,0,0,0,1.841.869h7.261a2.568,2.568,0,0,0,2.838-2.326l.971-6.161v-.128A2.32,2.32,0,0,0-223.774,371.356Zm-11.1,9.255a.4.4,0,0,1-.409.409h-1.892a.4.4,0,0,1-.409-.409v-7.184a.4.4,0,0,1,.409-.409h1.892a.4.4,0,0,1,.409.409Zm11.632-.716h0a1.719,1.719,0,0,1-1.969,1.585h-7.261a1.5,1.5,0,0,1-1.508-1.508v-6.545h.077a.23.23,0,0,0,.128-.026c.153-.051,3.451-1,3.451-4.014v-2.608a2.04,2.04,0,0,1,1.406.23,2.015,2.015,0,0,1,.614,1.713v3.068a.448.448,0,0,0,.435.435h4.116a1.5,1.5,0,0,1,1.508,1.508v.026Z" transform="translate(238.5 -365.867)"/></g></g></svg>