<?xml version="1.0" encoding="utf-8"?>
<!-- Generator: Adobe Illustrator 21.1.0, SVG Export Plug-In . SVG Version: 6.00 Build 0)  -->
<svg version="1.1" id="Layer_1" xmlns="http://www.w3.org/2000/svg" xmlns:xlink="http://www.w3.org/1999/xlink" x="0px" y="0px"
	 viewBox="0 0 36.7 33.8" style="enable-background:new 0 0 36.7 33.8;" xml:space="preserve">
<style type="text/css">
	.st0{fill:#FF798F;}
</style>
<g>
	<path class="st0" d="M20.1,0C15.5,0,11.2,1.8,8,5.1l0,0C7.7,5.5,7.7,6,8,6.3l0,0c0.3,0.3,0.9,0.3,1.2,0c2.8-3,6.7-4.6,10.8-4.6
		c8.4,0,15.1,6.8,15.1,15.2S28.3,32.1,20,32.1c-8.4,0-15.1-6.8-15.1-15.2c0-0.1,0-0.3-0.1-0.4l1.7,1.7c0.2,0.2,0.4,0.2,0.6,0.3
		c0.2,0,0.4-0.1,0.6-0.3l0,0C8,17.8,8,17.3,7.7,17l-3.1-3.1c-0.1,0-0.1,0-0.2-0.1c-0.2-0.2-0.5-0.2-0.8-0.1c-0.1,0-0.2,0.1-0.3,0.2
		l-3,3.1l0,0c-0.3,0.3-0.3,0.9,0,1.2c0.2,0.2,0.4,0.2,0.6,0.3c0.2,0,0.4-0.1,0.6-0.3l1.7-1.7C3.1,16.6,3,16.8,3,16.9l0,0
		c0,9.3,7.5,16.9,16.8,16.9l0,0c9.3,0,16.9-7.6,16.8-16.9C36.7,7.7,29.3,0.1,20.1,0z"/>
	<path class="st0" d="M14.7,24.1c0.3,0,0.6-0.1,0.9-0.3c0.5,0.5,1.2,0.7,1.9,0.7h7.2c0.1,0,0.2,0,0.3,0c0.7,0,1.4-0.2,1.9-0.7
		c0.6-0.5,1-1.2,1.1-2.1l1-6.2v-0.1c0-0.8-0.3-1.5-0.8-2s-1.2-0.9-2-0.9h-3.3v-2.1c0.1-1.1-0.3-2.1-1.2-2.9
		c-0.9-0.5-1.9-0.7-2.9-0.4c-0.4,0.1-0.6,0.5-0.7,0.9v3c0,0.8-0.4,1.6-1.1,2c-0.4,0.3-0.8,0.5-1.3,0.6c-0.3-0.3-0.7-0.4-1.2-0.4
		h-1.9c-1,0-1.8,0.8-1.8,1.8v7.2c0,1,0.8,1.8,1.8,1.8h2.1V24.1z M20.1,9c0.2,0,0.4,0.1,0.6,0.2c0.3,0.3,0.5,0.8,0.4,1.3v3.1
		c0,0.5,0.4,0.9,0.9,0.9h4.1c0.2,0,0.5,0.1,0.7,0.3s0.3,0.4,0.3,0.7l-1,6.1l0,0c0,0.3-0.2,0.6-0.4,0.8c-0.2,0.2-0.6,0.3-0.9,0.3
		h-0.2h-7.3l0,0c-0.5,0-1-0.4-1-1v-6.1c1.8-0.6,3.7-2.1,3.7-4.4V9H20.1z M14.6,15.2v7h-1.7v-7C12.9,15.2,14.6,15.2,14.6,15.2z
		 M26.2,13.1L26.2,13.1L26.2,13.1L26.2,13.1z"/>
</g>
</svg>
