<svg xmlns="http://www.w3.org/2000/svg" width="32.032" height="33.033" viewBox="0 0 32.032 33.033"><defs><style>.a{fill:#ff798f;}</style></defs><g transform="translate(0 0)"><path class="a" d="M-225.511,381.51a3.206,3.206,0,0,1,3.233-3.19h.149v-1.325a.886.886,0,0,1,.9-.883.886.886,0,0,1,.9.883v1.325h1.791a.886.886,0,0,1,.9.883.886.886,0,0,1-.9.884h-3.78a1.434,1.434,0,0,0-1.442,1.423,1.434,1.434,0,0,0,1.442,1.423h2.139a3.206,3.206,0,0,1,3.233,3.19,3.206,3.206,0,0,1-3.233,3.19h-.2v1.325a.886.886,0,0,1-.9.883.886.886,0,0,1-.9-.883v-1.325h-1.89a.886.886,0,0,1-.9-.883.886.886,0,0,1,.9-.883h3.88a1.434,1.434,0,0,0,1.442-1.423,1.434,1.434,0,0,0-1.442-1.423h-2.139A3.163,3.163,0,0,1-225.511,381.51Zm20.144-9.62a1.021,1.021,0,0,1,.2.54v23.02a.886.886,0,0,1-.9.884H-236.3a.886.886,0,0,1-.9-.884V372.43a.732.732,0,0,1,.2-.54l6.566-8.246a.954.954,0,0,1,.7-.344h17.11a.874.874,0,0,1,.7.344Zm-14.922-.344H-207.9l-5.123-6.43h-7.212v6.43Zm-14.176,0h12.385v-6.43h-7.212Zm27.506,1.816h-28.451v21.2h28.451Z" transform="translate(237.2 -363.3)"/></g></svg>