<?xml version="1.0" encoding="utf-8"?>
<!-- Generator: Adobe Illustrator 21.1.0, SVG Export Plug-In . SVG Version: 6.00 Build 0)  -->
<svg version="1.1" id="Layer_1" xmlns="http://www.w3.org/2000/svg" xmlns:xlink="http://www.w3.org/1999/xlink" x="0px" y="0px"
	 viewBox="0 0 32 33" style="enable-background:new 0 0 32 33;" xml:space="preserve">
<style type="text/css">
	.st0{fill:#FF798F;}
</style>
<g>
	<path class="st0" d="M31.8,8.6l-6.6-8.2C25.1,0.1,24.9,0,24.6,0H7.5C7.2,0,6.9,0.1,6.8,0.3L0.2,8.6C0.1,8.7,0,8.9,0,9.1v23l0,0
		C0,32.7,0.4,33,0.9,33h30.2l0,0c0.5,0,0.9-0.4,0.9-0.9v-23C32,8.9,32,8.7,31.8,8.6z M17,1.8h7.2l5.1,6.4H17V1.8z M7.9,1.8h7.2v6.4
		H2.7L7.9,1.8z M30.2,31.3H1.8V10.1h28.5L30.2,31.3L30.2,31.3z"/>
	<path class="st0" d="M14.9,21.4H17c0.8,0,1.4,0.6,1.4,1.4s-0.7,1.4-1.4,1.4h-3.9l0,0c-0.5,0-0.9,0.4-0.9,0.9l0,0
		c0,0.5,0.4,0.9,0.9,0.9H15v1.3l0,0c0,0.5,0.4,0.9,0.9,0.9l0,0c0.5,0,0.9-0.4,0.9-0.9V26H17l0,0c1.8,0,3.2-1.4,3.2-3.2l0,0
		c0-1.8-1.5-3.2-3.2-3.2h-2.1c-0.8,0-1.4-0.6-1.4-1.4s0.7-1.4,1.4-1.4h3.8l0,0c0.5,0,0.9-0.4,0.9-0.9l0,0c0-0.5-0.4-0.9-0.9-0.9
		h-1.8v-1.3l0,0c0-0.5-0.4-0.9-0.9-0.9l0,0c-0.5,0-0.9,0.4-0.9,0.9V15H15l0,0c-1.8,0-3.2,1.4-3.2,3.2l0,0
		C11.7,20,13.1,21.4,14.9,21.4z"/>
</g>
</svg>
