<svg width="13" height="28" viewBox="0 0 13 28" fill="none" xmlns="http://www.w3.org/2000/svg">
<path d="M2.285 28H10.51C11.0062 28.0032 11.4833 27.8095 11.8369 27.4614C12.1904 27.1133 12.3915 26.6391 12.396 26.143V13.986C12.3882 13.3585 12.199 12.7466 11.8512 12.2243C11.5034 11.7019 11.0119 11.2913 10.436 11.042L10.332 11V7.921C10.3391 7.85744 10.3324 7.79309 10.3124 7.73235C10.2924 7.6716 10.2595 7.61589 10.216 7.569C10.1684 7.52011 10.1112 7.4815 10.0481 7.45553C9.985 7.42956 9.91724 7.41679 9.849 7.418H8.896L7.726 0.416998C7.70589 0.296964 7.64269 0.188384 7.54825 0.111616C7.45381 0.0348472 7.33461 -0.00483826 7.213 -1.4285e-06H5.579C5.45739 -0.00483826 5.33819 0.0348472 5.24374 0.111616C5.1493 0.188384 5.0861 0.296964 5.066 0.416998L3.895 7.417H2.971C2.83759 7.41773 2.70969 7.4703 2.61433 7.5636C2.51897 7.65691 2.46363 7.78364 2.46 7.917V10.991L2.36 11.037C1.78263 11.2859 1.2898 11.6968 0.941219 12.22C0.592635 12.7432 0.403248 13.3563 0.395996 13.985V26.141C0.397958 26.3871 0.448376 26.6304 0.544371 26.857C0.640365 27.0836 0.780056 27.2891 0.955467 27.4617C1.13088 27.6344 1.33857 27.7707 1.5667 27.8631C1.79482 27.9555 2.0389 28.002 2.285 28V28ZM6.032 0.976999H6.82L7.88 7.389H4.971L6.032 0.976999ZM3.484 8.4H9.339V10.779H3.484V8.4ZM1.42 13.99C1.42659 13.4015 1.66612 12.8395 2.08613 12.4272C2.50615 12.0148 3.07243 11.7857 3.661 11.79H9.161C9.74939 11.786 10.3154 12.0152 10.7352 12.4275C11.155 12.8398 11.3944 13.4016 11.401 13.99V26.141C11.3961 26.3674 11.303 26.5829 11.1417 26.7418C10.9804 26.9008 10.7634 26.9905 10.537 26.992H2.285C2.05847 26.9907 1.8414 26.9011 1.68001 26.7421C1.51862 26.5832 1.42568 26.3675 1.421 26.141L1.42 13.99Z" fill="#484848"/>
</svg>
