<svg version="1.1" id="Layer_1" xmlns="http://www.w3.org/2000/svg" x="0" y="0" viewBox="0 0 70 70" xml:space="preserve"><style>.st0{fill:#ff798f}</style><path class="st0" d="M56.8 45.2v1c-.3 2.4 1.1 4.6 3.4 5.4l1.5.6 1.8.7c1.2.3 2 1.4 2.1 2.6v.7c.1.9-.1 1.9-.6 2.7-.5.5-1.2.7-1.8.7-.7 0-1.3-.2-1.8-.6-.6-.8-.8-1.7-.7-2.7h-3.8c0 2.5.4 4 1.6 5.2 1.3 1.1 3 1.7 4.7 1.6 1.7.1 3.4-.5 4.7-1.6 1.2-1.1 1.5-2.7 1.6-5.1v-1c.3-2.4-1.1-4.6-3.4-5.4l-1.5-.6-1.8-.7c-1.2-.3-2-1.4-2.1-2.7v-.7c-.1-.9.1-1.9.6-2.7.5-.5 1.2-.7 1.8-.7.7 0 1.3.2 1.8.6.6.8.8 1.7.7 2.7h3.8c0-2.5-.4-4-1.6-5.2-1.3-1.1-3-1.7-4.7-1.6-1.7-.1-3.4.5-4.7 1.6-1.3 1.3-1.6 2.9-1.6 5.2zM41.6 62.7l5.1-10.2h.2v10.2h3.8v-24h-3.8v10.2l-.2.1-5.1-10.3h-3.9l5.9 12-5.9 12zM25.3 38.7v9.4l-4.7 14.6h4.2l2.4-9.5 2.4 9.5h4.2l-4.7-14.6v-9.4zM5.8 63c2 0 3.8-.9 5.1-2.4l1.4 2.2H16l-3.2-5.1c1.1-2.1 1.8-4.5 2.1-6.9h-3.2c-.1 1.3-.4 2.5-.9 3.7L7.9 50c2-1.7 3.1-4.1 3.2-6.7.2-2.6-1.7-4.9-4.2-5.1h-.7c-2.7 0-4.9 1.9-4.9 5.5 0 2.1 1 3.7 2.6 5.8C1.3 51.7 0 53.9 0 56.7 0 60.6 2.4 63 5.8 63zM6 41.3c1 0 1.7.8 1.7 1.8v.1c0 1.4-.6 2.8-1.7 3.8-.9-1-1.5-2.3-1.6-3.6 0-1.3.6-2.1 1.6-2.1zm-.5 11L9 57.8c-.6 1.1-1.7 1.8-2.9 2-1.6 0-2.7-1.3-2.7-3.3.1-1.6.9-3.2 2.1-4.2zM63.5 7.2h-6.2v24h6.2c1.8.1 3.5-.6 4.7-2 1.8-2 1.8-5.4 1.8-10s0-8-1.8-10c-1.1-1.4-2.9-2.1-4.7-2zm1.9 19.6c-.4.6-1.2 1-1.9 1h-2.2V10.6h2.2c.8 0 1.5.3 1.9 1 .7 1.1.8 3.4.8 7.6 0 4.2-.1 6.5-.8 7.6zM41.6 17l5.7 14.2h3.4v-24h-3.8v14.3L41.2 7.2h-3.4v24h3.8zM22.9 7.2l-6 24h4l1-4.8h5.6l1 4.8h4l-5.9-24h-3.7zm-.3 15.9L24.7 13l2.1 10.1h-4.2zM12.7 13.8c0-2.5-.4-4-1.6-5.2-1.3-1.1-3-1.7-4.7-1.6-1.7-.1-3.4.5-4.7 1.6C.5 9.7.2 11.3.1 13.7v1C-.2 17 1.2 19.2 3.5 20l1.5.6 1.8.7c1.2.3 2 1.4 2.1 2.6v.7c.1.9-.1 1.9-.6 2.7-.5.5-1.2.7-1.8.7-.7 0-1.3-.2-1.8-.6-.6-.8-.8-1.7-.7-2.7H.1c0 2.5.4 4 1.6 5.2 1.3 1.1 3 1.7 4.7 1.6 1.7.1 3.4-.5 4.7-1.6 1.2-1.1 1.5-2.7 1.6-5.1v-1c.3-2.4-1.1-4.6-3.4-5.4l-1.5-.6-1.8-.7c-1.2-.3-2-1.4-2.1-2.7v-.7c-.1-.9.1-1.9.6-2.7.5-.5 1.2-.7 1.8-.7.7 0 1.3.2 1.8.6.6.8.8 1.7.7 2.7h3.9z"/></svg>
