<svg xmlns="http://www.w3.org/2000/svg" width="20" height="20"><path fill="none" d="M0 0h20v20H0z"/><path d="M11.183 2.123l1.52 3.88a1.263 1.263 0 00.892.7l4.463.3a1.111 1.111 0 01.929 1.266 1.116 1.116 0 01-.33.637l-3.372 3.113a1.141 1.141 0 00-.3 1.1l.991 4.52a1.074 1.074 0 01-.751 1.318 1.071 1.071 0 01-.835-.116l-3.867-2.41a1.061 1.061 0 00-1.091 0l-3.867 2.41a1.07 1.07 0 01-1.471-.363 1.079 1.079 0 01-.116-.837l.991-4.52a1.144 1.144 0 00-.3-1.1l-3.272-3a1.154 1.154 0 01-.118-1.625 1.15 1.15 0 01.712-.388l4.463-.4a1.061 1.061 0 00.892-.7L9.131 1.59a1.015 1.015 0 011.352-.488 1.019 1.019 0 01.528.588z" fill="#fe7b91"/></svg>