<svg width="20" height="20" viewBox="0 0 20 20" fill="none" xmlns="http://www.w3.org/2000/svg">
<path d="M9.921 16.189L9.415 16.436L5.555 18.846C5.4346 18.9185 5.30107 18.9665 5.16207 18.9872C5.02307 19.0079 4.88135 19.001 4.74503 18.9668C4.60872 18.9326 4.48051 18.8718 4.36775 18.7879C4.255 18.704 4.15993 18.5987 4.088 18.478C4.01345 18.3534 3.96476 18.2151 3.94483 18.0713C3.9249 17.9275 3.93414 17.7811 3.972 17.641L4.961 13.121C5.01144 12.9274 5.01029 12.724 4.95765 12.531C4.90502 12.338 4.80274 12.1621 4.661 12.021L1.396 9.02098C1.16578 8.82057 1.02417 8.53723 1.00206 8.2328C0.979955 7.92837 1.07915 7.62755 1.278 7.39598C1.45993 7.18449 1.7127 7.04655 1.989 7.00798L6.443 6.60798C6.64252 6.58755 6.83216 6.51093 6.98988 6.38702C7.1476 6.26312 7.26692 6.097 7.334 5.90798L9.115 1.58998C9.20207 1.42673 9.32853 1.2878 9.4829 1.18582C9.63727 1.08383 9.81467 1.02202 9.999 1.00598C10 2.25298 9.921 16.189 9.921 16.189V16.189Z" fill="#FE7B91"/>
<path fill-rule="evenodd" clip-rule="evenodd" d="M10.052 2C10.05 2 10.045 2 10.041 2.005L8.28 6.265C8.14439 6.62738 7.90997 6.94453 7.60331 7.18048C7.29666 7.41644 6.93003 7.56177 6.545 7.6L2.116 7.997C2.08527 8.00428 2.05762 8.02108 2.037 8.045C2.01038 8.07591 1.99712 8.11613 2.00012 8.15681C2.00312 8.19749 2.02214 8.23532 2.053 8.262L2.074 8.281L5.346 11.285L5.374 11.311C5.909 11.843 6.126 12.624 5.942 13.355L4.955 17.857C4.9514 17.8731 4.9474 17.8891 4.943 17.905C4.94027 17.915 4.93957 17.9255 4.94094 17.9358C4.94232 17.9461 4.94574 17.956 4.951 17.965C4.95718 17.9757 4.96607 17.9846 4.97679 17.9907C4.9875 17.9969 4.99965 18.0001 5.012 18C5.02361 18 5.03502 17.9969 5.045 17.991L8.903 15.586C9.22662 15.388 9.59863 15.2833 9.978 15.2833C10.3574 15.2833 10.7294 15.388 11.053 15.586L14.91 17.991C14.933 18.003 14.95 18.001 14.962 17.997C14.9804 17.9914 14.9959 17.9789 15.0052 17.9621C15.0145 17.9453 15.017 17.9256 15.012 17.907C15.0079 17.8904 15.0042 17.8738 15.001 17.857L14.013 13.355C13.9212 12.9885 13.9278 12.6043 14.0321 12.2412C14.1364 11.8781 14.3347 11.5489 14.607 11.287L17.967 8.184C17.9845 8.16671 17.9961 8.14429 18 8.12C18.0041 8.09433 17.9992 8.06801 17.9861 8.04557C17.973 8.02313 17.9524 8.00596 17.928 7.997L13.528 7.701C13.4843 7.69785 13.4409 7.69184 13.398 7.683C13.0415 7.60981 12.7079 7.45207 12.4251 7.22306C12.1423 6.99404 11.9187 6.70046 11.773 6.367L10.081 2.047C10.0765 2.03542 10.0721 2.02375 10.068 2.012C10.0672 2.00956 10.0659 2.00732 10.0642 2.00542C10.0625 2.00352 10.0604 2.00202 10.058 2.001L10.053 2H10.052ZM10.053 1C10.2643 1.00056 10.4702 1.06679 10.6422 1.18951C10.8142 1.31223 10.9437 1.48539 11.013 1.685L11.183 2.123L12.703 6.003C12.873 6.364 13.204 6.625 13.596 6.704L18.059 7.004C18.2647 7.03495 18.4576 7.12304 18.6157 7.25824C18.7738 7.39343 18.8908 7.5703 18.9533 7.76871C19.0158 7.96713 19.0214 8.1791 18.9694 8.38052C18.9173 8.58194 18.8098 8.7647 18.659 8.908L15.287 12.021C14.997 12.308 14.883 12.729 14.987 13.123L15.978 17.643C16.0335 17.8493 16.0261 18.0675 15.9569 18.2697C15.8877 18.4718 15.7598 18.6487 15.5895 18.7778C15.4193 18.9068 15.2143 18.9822 15.001 18.9941C14.7877 19.0061 14.5757 18.9542 14.392 18.845L10.524 16.435C10.3592 16.3362 10.1707 16.284 9.9785 16.284C9.78635 16.284 9.59781 16.3362 9.433 16.435L5.566 18.845C5.38259 18.9567 5.16981 19.0106 4.95534 18.9997C4.74087 18.9889 4.53463 18.9137 4.36345 18.7841C4.19226 18.6544 4.06405 18.4763 3.99549 18.2727C3.92692 18.0692 3.92118 17.8498 3.979 17.643L4.97 13.123C5.02092 12.9291 5.02001 12.7253 4.96736 12.5319C4.91471 12.3385 4.81217 12.1623 4.67 12.021L1.398 9.017C1.2315 8.87182 1.11018 8.6819 1.04843 8.4698C0.986679 8.2577 0.987104 8.03234 1.04965 7.82047C1.1122 7.60861 1.23424 7.41915 1.40129 7.2746C1.56833 7.13005 1.77335 7.03648 1.992 7.005L6.455 6.604C6.863 6.563 7.21 6.289 7.347 5.903L9.132 1.585C9.305 1.216 9.671 1 10.052 1H10.053Z" fill="#FF798F"/>
</svg>
