<svg width="22" height="29" viewBox="0 0 22 29" fill="none" xmlns="http://www.w3.org/2000/svg">
<mask id="path-1-inside-1" fill="white">
<path d="M8.91297 0.151994H13.072C13.5205 0.14203 13.9599 0.279854 14.3224 0.544228C14.6849 0.808602 14.9504 1.18485 15.078 1.61499C15.1966 2.0428 15.1669 2.49817 14.9937 2.90692C14.8204 3.31568 14.5139 3.65373 14.124 3.86599V12.187L14.159 12.234C16.62 15.909 19.084 19.563 21.501 23.268C21.8256 23.7505 21.9984 24.3192 21.9969 24.9007C21.9955 25.4823 21.82 26.0501 21.493 26.531C21.1386 27.0357 20.6656 27.4456 20.1156 27.7246C19.5657 28.0036 18.9555 28.1432 18.339 28.131C13.443 28.146 8.55397 28.169 3.65397 28.131C3.03741 28.1431 2.42732 28.0035 1.87735 27.7245C1.32739 27.4455 0.854395 27.0357 0.49997 26.531C0.174401 26.0492 0.000427246 25.481 0.000427246 24.8995C0.000427246 24.318 0.174401 23.7498 0.49997 23.268C2.93597 19.574 5.35097 15.897 7.84797 12.23C7.85697 12.216 7.86797 12.204 7.87797 12.19V3.87199C7.48638 3.66135 7.17777 3.32418 7.0025 2.91553C6.82724 2.50688 6.79568 2.05089 6.91297 1.62199C7.039 1.19155 7.30305 0.814488 7.66444 0.548864C8.02584 0.283239 8.46453 0.143791 8.91297 0.151994ZM8.91297 1.15199V1.15199C8.77954 1.14988 8.647 1.17406 8.52293 1.22318C8.39885 1.27229 8.28566 1.34536 8.18983 1.43822C8.09399 1.53108 8.01739 1.64192 7.9644 1.76439C7.9114 1.88686 7.88305 2.01857 7.88097 2.15199C7.88305 2.28542 7.9114 2.41713 7.9644 2.5396C8.01739 2.66207 8.09399 2.7729 8.18983 2.86576C8.28566 2.95863 8.39885 3.0317 8.52293 3.08081C8.647 3.12992 8.77954 3.15411 8.91297 3.15199H13.069C13.3383 3.156 13.5981 3.05292 13.7915 2.86541C13.9848 2.67789 14.0958 2.42129 14.1 2.15199C14.0958 1.88323 13.9852 1.62708 13.7925 1.43965C13.5999 1.25222 13.3408 1.14879 13.072 1.15199H8.91297ZM8.91297 4.15199L8.90897 12.346C8.90936 12.4575 8.87161 12.5659 8.80197 12.653C8.76797 12.695 8.73997 12.735 8.70997 12.778L7.42797 14.696C8.77003 14.8137 10.0841 15.1484 11.319 15.687C12.7658 16.2856 14.3124 16.6062 15.878 16.632L13.295 12.782C13.2643 12.737 13.2309 12.6939 13.195 12.653C13.1229 12.5654 13.0836 12.4554 13.084 12.342V4.15199H8.91297ZM6.77697 15.664V15.664C4.96197 18.366 3.14697 21.071 1.37997 23.803C1.15311 24.1229 1.03126 24.5053 1.03126 24.8975C1.03126 25.2896 1.15311 25.6721 1.37997 25.992C1.63702 26.3555 1.97997 26.6498 2.37829 26.8487C2.77661 27.0476 3.21794 27.1449 3.66297 27.132C8.55597 27.147 13.447 27.171 18.34 27.132C18.7854 27.1459 19.2274 27.0494 19.6264 26.851C20.0255 26.6526 20.3692 26.3585 20.627 25.995C20.8537 25.6751 20.9755 25.2926 20.9755 24.9005C20.9755 24.5084 20.8537 24.1259 20.627 23.806C19.273 21.752 17.929 19.693 16.557 17.652C14.6315 17.6899 12.7183 17.3386 10.932 16.619C9.62418 16.0277 8.21167 15.7031 6.77697 15.664ZM14.06 18.64C13.964 18.6437 13.8712 18.6756 13.7931 18.7316C13.7151 18.7877 13.6552 18.8655 13.621 18.9553C13.5868 19.0451 13.5798 19.1429 13.6008 19.2367C13.6218 19.3305 13.6699 19.416 13.7391 19.4826C13.8084 19.5493 13.8957 19.5941 13.9901 19.6115C14.0846 19.6289 14.1822 19.6182 14.2706 19.5806C14.359 19.543 14.4345 19.4803 14.4875 19.4001C14.5406 19.32 14.5689 19.2261 14.569 19.13C14.5686 19.0649 14.5551 19.0005 14.5294 18.9407C14.5036 18.881 14.4661 18.827 14.419 18.782C14.3217 18.6895 14.1922 18.6386 14.058 18.64H14.06ZM11.633 19.797C11.5023 19.8023 11.3761 19.8459 11.27 19.9223C11.164 19.9987 11.0827 20.1046 11.0363 20.2269C10.99 20.3491 10.9805 20.4823 11.0092 20.6099C11.0379 20.7374 11.1035 20.8537 11.1978 20.9443C11.292 21.0349 11.4109 21.0958 11.5395 21.1195C11.6681 21.1431 11.8008 21.1284 11.9211 21.0772C12.0414 21.026 12.144 20.9406 12.2162 20.8316C12.2883 20.7226 12.3269 20.5947 12.327 20.464C12.3264 20.3753 12.3079 20.2876 12.2727 20.2061C12.2375 20.1247 12.1862 20.0512 12.122 19.99C11.9899 19.8637 11.8137 19.7941 11.631 19.796L11.633 19.797ZM13.367 21.464L13.365 21.462C13.6383 21.4595 13.902 21.5635 14.1 21.752C14.1963 21.844 14.273 21.9544 14.3256 22.0768C14.3782 22.1991 14.4055 22.3308 14.406 22.464C14.4058 22.6601 14.348 22.8518 14.2398 23.0153C14.1315 23.1788 13.9776 23.3069 13.7971 23.3836C13.6167 23.4603 13.4176 23.4822 13.2248 23.4467C13.0319 23.4112 12.8538 23.3197 12.7125 23.1837C12.5712 23.0478 12.473 22.8732 12.4302 22.6819C12.3873 22.4906 12.4016 22.2908 12.4714 22.1076C12.5411 21.9243 12.6632 21.7656 12.8224 21.6512C12.9817 21.5367 13.171 21.4716 13.367 21.464Z"/>
</mask>
<path d="M8.91297 0.151994H13.072C13.5205 0.14203 13.9599 0.279854 14.3224 0.544228C14.6849 0.808602 14.9504 1.18485 15.078 1.61499C15.1966 2.0428 15.1669 2.49817 14.9937 2.90692C14.8204 3.31568 14.5139 3.65373 14.124 3.86599V12.187L14.159 12.234C16.62 15.909 19.084 19.563 21.501 23.268C21.8256 23.7505 21.9984 24.3192 21.9969 24.9007C21.9955 25.4823 21.82 26.0501 21.493 26.531C21.1386 27.0357 20.6656 27.4456 20.1156 27.7246C19.5657 28.0036 18.9555 28.1432 18.339 28.131C13.443 28.146 8.55397 28.169 3.65397 28.131C3.03741 28.1431 2.42732 28.0035 1.87735 27.7245C1.32739 27.4455 0.854395 27.0357 0.49997 26.531C0.174401 26.0492 0.000427246 25.481 0.000427246 24.8995C0.000427246 24.318 0.174401 23.7498 0.49997 23.268C2.93597 19.574 5.35097 15.897 7.84797 12.23C7.85697 12.216 7.86797 12.204 7.87797 12.19V3.87199C7.48638 3.66135 7.17777 3.32418 7.0025 2.91553C6.82724 2.50688 6.79568 2.05089 6.91297 1.62199C7.039 1.19155 7.30305 0.814488 7.66444 0.548864C8.02584 0.283239 8.46453 0.143791 8.91297 0.151994ZM8.91297 1.15199V1.15199C8.77954 1.14988 8.647 1.17406 8.52293 1.22318C8.39885 1.27229 8.28566 1.34536 8.18983 1.43822C8.09399 1.53108 8.01739 1.64192 7.9644 1.76439C7.9114 1.88686 7.88305 2.01857 7.88097 2.15199C7.88305 2.28542 7.9114 2.41713 7.9644 2.5396C8.01739 2.66207 8.09399 2.7729 8.18983 2.86576C8.28566 2.95863 8.39885 3.0317 8.52293 3.08081C8.647 3.12992 8.77954 3.15411 8.91297 3.15199H13.069C13.3383 3.156 13.5981 3.05292 13.7915 2.86541C13.9848 2.67789 14.0958 2.42129 14.1 2.15199C14.0958 1.88323 13.9852 1.62708 13.7925 1.43965C13.5999 1.25222 13.3408 1.14879 13.072 1.15199H8.91297ZM8.91297 4.15199L8.90897 12.346C8.90936 12.4575 8.87161 12.5659 8.80197 12.653C8.76797 12.695 8.73997 12.735 8.70997 12.778L7.42797 14.696C8.77003 14.8137 10.0841 15.1484 11.319 15.687C12.7658 16.2856 14.3124 16.6062 15.878 16.632L13.295 12.782C13.2643 12.737 13.2309 12.6939 13.195 12.653C13.1229 12.5654 13.0836 12.4554 13.084 12.342V4.15199H8.91297ZM6.77697 15.664V15.664C4.96197 18.366 3.14697 21.071 1.37997 23.803C1.15311 24.1229 1.03126 24.5053 1.03126 24.8975C1.03126 25.2896 1.15311 25.6721 1.37997 25.992C1.63702 26.3555 1.97997 26.6498 2.37829 26.8487C2.77661 27.0476 3.21794 27.1449 3.66297 27.132C8.55597 27.147 13.447 27.171 18.34 27.132C18.7854 27.1459 19.2274 27.0494 19.6264 26.851C20.0255 26.6526 20.3692 26.3585 20.627 25.995C20.8537 25.6751 20.9755 25.2926 20.9755 24.9005C20.9755 24.5084 20.8537 24.1259 20.627 23.806C19.273 21.752 17.929 19.693 16.557 17.652C14.6315 17.6899 12.7183 17.3386 10.932 16.619C9.62418 16.0277 8.21167 15.7031 6.77697 15.664ZM14.06 18.64C13.964 18.6437 13.8712 18.6756 13.7931 18.7316C13.7151 18.7877 13.6552 18.8655 13.621 18.9553C13.5868 19.0451 13.5798 19.1429 13.6008 19.2367C13.6218 19.3305 13.6699 19.416 13.7391 19.4826C13.8084 19.5493 13.8957 19.5941 13.9901 19.6115C14.0846 19.6289 14.1822 19.6182 14.2706 19.5806C14.359 19.543 14.4345 19.4803 14.4875 19.4001C14.5406 19.32 14.5689 19.2261 14.569 19.13C14.5686 19.0649 14.5551 19.0005 14.5294 18.9407C14.5036 18.881 14.4661 18.827 14.419 18.782C14.3217 18.6895 14.1922 18.6386 14.058 18.64H14.06ZM11.633 19.797C11.5023 19.8023 11.3761 19.8459 11.27 19.9223C11.164 19.9987 11.0827 20.1046 11.0363 20.2269C10.99 20.3491 10.9805 20.4823 11.0092 20.6099C11.0379 20.7374 11.1035 20.8537 11.1978 20.9443C11.292 21.0349 11.4109 21.0958 11.5395 21.1195C11.6681 21.1431 11.8008 21.1284 11.9211 21.0772C12.0414 21.026 12.144 20.9406 12.2162 20.8316C12.2883 20.7226 12.3269 20.5947 12.327 20.464C12.3264 20.3753 12.3079 20.2876 12.2727 20.2061C12.2375 20.1247 12.1862 20.0512 12.122 19.99C11.9899 19.8637 11.8137 19.7941 11.631 19.796L11.633 19.797ZM13.367 21.464L13.365 21.462C13.6383 21.4595 13.902 21.5635 14.1 21.752C14.1963 21.844 14.273 21.9544 14.3256 22.0768C14.3782 22.1991 14.4055 22.3308 14.406 22.464C14.4058 22.6601 14.348 22.8518 14.2398 23.0153C14.1315 23.1788 13.9776 23.3069 13.7971 23.3836C13.6167 23.4603 13.4176 23.4822 13.2248 23.4467C13.0319 23.4112 12.8538 23.3197 12.7125 23.1837C12.5712 23.0478 12.473 22.8732 12.4302 22.6819C12.3873 22.4906 12.4016 22.2908 12.4714 22.1076C12.5411 21.9243 12.6632 21.7656 12.8224 21.6512C12.9817 21.5367 13.171 21.4716 13.367 21.464Z" fill="#484848" stroke="black" stroke-width="2" mask="url(#path-1-inside-1)"/>
</svg>
