<svg width="12" height="14" viewBox="0 0 12 14" fill="none" xmlns="http://www.w3.org/2000/svg">
<path d="M7 14H3C2.60356 13.9983 2.21136 13.9184 1.84587 13.7648C1.48037 13.6113 1.14878 13.3871 0.870083 13.1051C0.591389 12.8232 0.371075 12.489 0.221769 12.1218C0.0724622 11.7545 -0.00290172 11.3614 -3.39477e-06 10.965V6.919C-0.00073734 6.11628 0.31553 5.34574 0.879997 4.775L5.59 0L6.3 0.718C6.55255 0.976144 6.73266 1.29626 6.82219 1.64613C6.91172 1.99599 6.90752 2.36327 6.81 2.711L6.23 4.896H10C10.3466 4.90201 10.686 4.99646 10.9858 5.17041C11.2857 5.34435 11.5362 5.59203 11.7135 5.88993C11.8908 6.18783 11.989 6.52609 11.9989 6.87262C12.0088 7.21915 11.93 7.56247 11.77 7.87L9.76 12.149C9.53355 12.6952 9.15076 13.1623 8.65971 13.4916C8.16866 13.8209 7.59125 13.9978 7 14Z" fill="#484848"/>
</svg>
