<svg width="12" height="14" viewBox="0 0 12 14" fill="none" xmlns="http://www.w3.org/2000/svg">
<path d="M4.99999 0H8.99999C9.39643 0.0016999 9.78863 0.0816181 10.1541 0.235174C10.5196 0.38873 10.8512 0.612905 11.1299 0.894851C11.4086 1.1768 11.6289 1.51097 11.7782 1.87822C11.9275 2.24547 12.0029 2.63857 12 3.035V7.081C12.0007 7.88372 11.6845 8.65426 11.12 9.225L6.40999 14L5.69999 13.282C5.44744 13.0239 5.26733 12.7037 5.1778 12.3539C5.08827 12.004 5.09247 11.6367 5.18999 11.289L5.76999 9.104H1.99999C1.65337 9.09799 1.31403 9.00354 1.01416 8.82959C0.714286 8.65565 0.463821 8.40797 0.286522 8.11007C0.109222 7.81217 0.010966 7.47391 0.00107307 7.12738C-0.00881991 6.78085 0.0699782 6.43753 0.229994 6.13L2.23999 1.851C2.46644 1.30483 2.84923 0.837744 3.34028 0.508421C3.83133 0.179097 4.40874 0.00221795 4.99999 0" fill="#484848"/>
</svg>
