<svg xmlns="http://www.w3.org/2000/svg" width="20" height="20"><path fill="none" d="M0 0h20v20H0z"/><path d="M16.561 8.486l-.808-.793a1.02 1.02 0 01-.3-.634l-.109-1.125a1.491 1.491 0 00-1.372-1.348l-1.118-.081a1.019 1.019 0 01-.633-.288l-.808-.793A1.489 1.489 0 009.5 3.277l-.922.658a1.02 1.02 0 01-.67.187l-1.124-.084a1.49 1.49 0 00-1.562 1.117l-.287 1.097a1.022 1.022 0 01-.4.582l-.918.65a1.493 1.493 0 00-.475 1.861l.493 1.019a1.022 1.022 0 01.068.694l-.283 1.1a1.494 1.494 0 00.829 1.728l1.029.468a1.019 1.019 0 01.5.488l.486 1.027a1.491 1.491 0 001.742.793l1.094-.317a1.019 1.019 0 01.694.054l1.029.468a1.489 1.489 0 001.848-.517l.633-.932a1.018 1.018 0 01.567-.406l1.088-.3a1.492 1.492 0 001.085-1.585l-.109-1.13a1.022 1.022 0 01.173-.675l.627-.936a1.493 1.493 0 00-.174-1.9z" fill="#42a1ca"/><path d="M13.256 8.382c-.682.682-4.153 4.4-4.153 4.4s-1.594-1.712-2.326-2.444a.687.687 0 11.947-.985c.7.7 1.379 1.442 1.379 1.442s2.66-2.847 3.206-3.393 1.633.298.947.98z" fill="#fff"/></svg>
