<svg xmlns="http://www.w3.org/2000/svg" width="287.51879674987094" height="171.56390894956087" style=""><rect id="backgroundrect" width="100%" height="100%" x="0" y="0" fill="none" stroke="none" class="" style=""/><defs><style>.a{opacity:0.5;}.b{fill:#c0519f;}</style></defs><g class="currentLayer" style=""><title>Layer 1</title><g class="a" id="svg_1" transform="rotate(100.3420181274414 41.66868591308594,39.37083053588868) "><path class="b" d="M48.71650900263785,20.92952774810783 a97.459,97.459 0 0 0 10.32,-16.572 c0.783,-1.593 -1.6,-3 -2.3890000000000002,-1.4 a97.476,97.476 0 0 1 -10.32,16.572 c-1.087,1.409 1.316,2.7880000000000003 2.3890000000000002,1.4 " id="svg_2"/><path class="b" d="M60.96741329951283,39.539730873108056 a78.089,78.089 0 0 0 18.381,-1.79 c1.739,-0.3790000000000002 1,-3.047 -0.7360000000000004,-2.668 a74.822,74.822 0 0 1 -17.645,1.6910000000000007 c-1.7810000000000001,-0.04000000000000003 -1.7810000000000001,2.728 0,2.7670000000000003 " id="svg_3"/><path class="b" d="M48.47041720576317,56.98561954498291 l5.836,8.018 c1.038,1.425 3.439,0.04600000000000005 2.3890000000000002,-1.4 l-5.835,-8.017 c-1.038,-1.4260000000000002 -3.44,-0.04700000000000003 -2.39,1.4 " id="svg_4"/><path class="b" d="M27.49252267451311,60.439697669982706 l-10.8,14.071 c-1.084,1.412 1.318,2.792 2.3890000000000002,1.4 l10.8,-14.071 c1.084,-1.411 -1.319,-2.791 -2.3890000000000002,-1.4 " id="svg_5"/><path class="b" d="M23.550548065138173,35.04057071685793 l-19.207,-0.2490000000000001 a1.3840000000000001,1.3840000000000001 0 0 0 0,2.7670000000000003 l19.207,0.2490000000000001 a1.3840000000000001,1.3840000000000001 0 0 0 0,-2.7670000000000003 " id="svg_6"/><path class="b" d="M31.556399627638257,21.069617591857877 l-7.5600000000000005,-10.822 c-1.013,-1.449 -3.4130000000000003,-0.06800000000000007 -2.3890000000000002,1.4 l7.561,10.822 c1.012,1.449 3.412,0.06800000000000007 2.3890000000000002,-1.4 " id="svg_7"/></g><g class="a" id="svg_8"><path class="b" d="M254.73154081721304,53.26035450744621 a97.459,97.459 0 0 0 10.32,-16.572 c0.783,-1.593 -1.6,-3 -2.3890000000000002,-1.4 a97.476,97.476 0 0 1 -10.32,16.572 c-1.087,1.409 1.316,2.7880000000000003 2.3890000000000002,1.4 " id="svg_9"/><path class="b" d="M266.982445114088,71.87055763244643 a78.089,78.089 0 0 0 18.381,-1.79 c1.739,-0.37900000000000034 1,-3.047 -0.7360000000000007,-2.668 a74.822,74.822 0 0 1 -17.645,1.6910000000000007 c-1.7810000000000001,-0.04000000000000004 -1.7810000000000001,2.728 0,2.7670000000000003 " id="svg_10"/><path class="b" d="M254.48544902033836,89.31644630432129 l5.836,8.018 c1.038,1.425 3.439,0.046000000000000076 2.3890000000000002,-1.4 l-5.835,-8.017 c-1.038,-1.4260000000000002 -3.44,-0.04700000000000004 -2.39,1.4 " id="svg_11"/><path class="b" d="M233.5075544890883,92.77052442932109 l-10.8,14.071 c-1.084,1.412 1.318,2.792 2.3890000000000002,1.4 l10.8,-14.071 c1.084,-1.411 -1.319,-2.791 -2.3890000000000002,-1.4 " id="svg_12"/><path class="b" d="M229.56557987971337,67.37139747619631 l-19.207,-0.24900000000000017 a1.3840000000000001,1.3840000000000001 0 0 0 0,2.7670000000000003 l19.207,0.24900000000000017 a1.3840000000000001,1.3840000000000001 0 0 0 0,-2.7670000000000003 " id="svg_13"/><path class="b" d="M237.57143144221345,53.400444351196256 l-7.5600000000000005,-10.822 c-1.013,-1.449 -3.4130000000000003,-0.0680000000000001 -2.3890000000000002,1.4 l7.561,10.822 c1.012,1.449 3.412,0.0680000000000001 2.3890000000000002,-1.4 " id="svg_14"/></g><g class="a" id="svg_15" transform="rotate(74.08746337890625 130.76641845703128,137.49111938476562) "><path class="b" d="M136.78654068022496,122.59856130376247 a83.24761945617199,78.70455611073972 0 0 0 8.815147218704224,-13.382980575084686 c0.6688236697912217,-1.2864523326158523 -1.366689491271973,-2.422697424888611 -2.0406382466554644,-1.130592131614685 a83.26214053201676,78.71828472948074 0 0 1 -8.815147218704224,13.382980575084686 c-0.9284946731328966,1.137860223889351 1.1241021065711976,2.2514934735298158 2.0406382466554644,1.130592131614685 " id="svg_16"/><path class="b" d="M147.25102953092352,137.6275250329598 a66.70213480246066,63.06200640404224 0 0 0 15.700699711918832,-1.4455427968502046 c1.4854206408262254,-0.30606744134426167 0.854180932044983,-2.4606530178785326 -0.6286771659851084,-2.1545855765342714 a63.91152569746971,60.42368890833855 0 0 1 -15.072022545933724,1.3655937818288808 c-1.5212962399721146,-0.0323026323318482 -1.5212962399721146,2.2030395250320436 0,2.2345345915555956 " id="svg_17"/><path class="b" d="M136.57633375980194,151.716228219708 l4.984999919414522,6.475062650918961 c0.8866398074626926,1.1507812768220902 2.9375282253026964,0.03714802718162548 2.0406382466554644,-1.130592131614685 l-4.984145738482475,-6.474255085110664 c-0.8866398074626926,-1.1515888426303864 -2.9383824062347412,-0.03795559298992162 -2.0414924275875093,1.130592131614685 " id="svg_18"/><path class="b" d="M118.65741625675741,154.5056236126417 l-9.225154066085816,11.36325848853588 c-0.9259321303367615,1.1402829213142394 1.1258104684352874,2.254723736763 2.0406382466554644,1.130592131614685 l9.225154066085816,-11.36325848853588 c0.9259321303367615,-1.1394753555059434 -1.1266646493673325,-2.2539161709547044 -2.0406382466554644,-1.130592131614685 " id="svg_19"/><path class="b" d="M115.29025671082387,133.99415712472359 l-16.406253161787987,-0.2010838862657549 a1.1821864099502564,1.117671078681946 0 0 0 0,2.2345345915555956 l16.406253161787987,0.2010838862657549 a1.1821864099502564,1.117671078681946 0 0 0 0,-2.2345345915555956 " id="svg_20"/><path class="b" d="M122.12870246029398,122.71169307166456 l-6.457607846260071,-8.739477177381515 c-0.8652852841615676,-1.1701628562211992 -2.915319521069527,-0.05491447496414197 -2.0406382466554644,1.130592131614685 l6.458462027192116,8.739477177381515 c0.8644311032295229,1.1701628562211992 2.9144653401374816,0.05491447496414197 2.0406382466554644,-1.130592131614685 " id="svg_21"/></g></g></svg>