<svg xmlns="http://www.w3.org/2000/svg" width="83.871" height="96.479" viewBox="0 0 83.871 96.479"><defs><style>.a{opacity:0.5;}.b{fill:#c0519f;}</style></defs><g class="a" transform="translate(94.757 87.333) rotate(167)"><path class="b" d="M22.777,2.4A129.28,129.28,0,0,1,2.1,18.4c-1.552.967-2.976-1.483-1.43-2.447A125.578,125.578,0,0,0,20.774.4c1.322-1.255,3.329.745,2,2" transform="translate(0 58.29)"/><path class="b" d="M2.846,1.347a99.649,99.649,0,0,1,.123,23.9c-.206,1.79-3.042,1.811-2.833,0a99.649,99.649,0,0,0-.122-23.9c-.227-1.8,2.608-1.788,2.833,0" transform="translate(44.922 73.404)"/><path class="b" d="M2.115.2,13.428,6.8A1.418,1.418,0,0,1,12,9.245L.685,2.65A1.418,1.418,0,0,1,2.115.2" transform="translate(66.552 56.328)"/><path class="b" d="M.437,16.472,17.479.4c1.326-1.25,3.333.75,2,2L2.44,18.476c-1.326,1.25-3.333-.749-2-2" transform="translate(70.081 12.523)"/><path class="b" d="M2.907,26.552q-1.448-12.6-2.9-25.2C-.2-.458,2.638-.443,2.844,1.35q1.448,12.6,2.9,25.2c.208,1.808-2.627,1.793-2.833,0" transform="translate(34.907 0)"/><path class="b" d="M15.926,11.124.7,2.638C-.9,1.75.53-.7,2.126.192L17.355,8.678c1.593.888.167,3.336-1.43,2.447" transform="translate(4.859 27.335)"/></g></svg>