<svg width="170" height="170" viewBox="0 0 170 170" fill="none" xmlns="http://www.w3.org/2000/svg">
<path d="M152.202 94.9541L163.529 91.6675L163.654 90.1365L153.005 85.0667L152.882 86.5817L155.618 87.8792L155.235 92.5997L152.325 93.4391L152.202 94.9541ZM161.694 90.748L156.549 92.2248L156.855 88.4612L161.694 90.748Z" fill="#FF6F8D"/>
<path d="M153.644 103.81C152.08 103.402 151.779 102.04 152.032 101.031C152.285 100.022 153.244 99.4871 154.47 99.7944L158.629 100.837L158.968 99.4867L154.777 98.4364C152.748 97.9113 151.257 98.7253 150.802 100.541C150.6 101.348 150.711 102.613 151.518 103.277L150.385 102.993L150.046 104.343L157.294 106.16L157.633 104.81L153.644 103.81Z" fill="#FF6F8D"/>
<path d="M147.29 111.27C146.685 112.699 146.972 114.28 148.254 114.822C149.035 115.152 150.046 115.145 151.004 113.865L151.685 112.954C151.975 112.556 152.413 112.22 152.884 112.419C153.415 112.644 153.655 113.266 153.375 113.929C153.144 114.475 152.56 114.87 152.023 114.661L151.499 115.898C152.884 116.484 154.014 115.538 154.507 114.373C155.093 112.988 154.606 111.636 153.471 111.156C152.366 110.689 151.525 111.115 150.729 112.133L150.109 112.983C149.761 113.478 149.327 113.764 148.811 113.546C148.251 113.309 148.042 112.613 148.41 111.743C148.765 110.903 149.47 110.593 150.066 110.828L150.571 109.634C149.131 109.095 147.814 110.032 147.29 111.27Z" fill="#FF6F8D"/>
<path d="M150.212 122.562L152.652 123.967L153.347 122.761L150.907 121.356L151.578 120.191L150.538 119.593L149.867 120.757L144.431 117.628L143.736 118.834L149.172 121.963L148.365 123.364L149.405 123.962L150.212 122.562Z" fill="#FF6F8D"/>
<path d="M145.08 130.647C145.664 129.845 145.622 128.924 144.787 127.842L146.158 128.839L146.987 127.701L140.944 123.306L140.115 124.445L142.328 126.054C143.92 127.211 144.878 128.64 144.003 129.843C143.833 130.076 143.546 130.362 143.156 130.573L144.085 131.525C144.333 131.429 144.77 131.074 145.08 130.647Z" fill="#FF6F8D"/>
<path d="M137.302 137.474C138.281 137.724 139.358 137.293 140.133 136.484C141.593 134.959 141.474 132.608 139.879 131.081C138.226 129.499 135.851 129.596 134.501 131.006C133.671 131.873 133.403 133.055 133.707 134.033L132.748 133.115L131.785 134.12L137.183 139.287L138.146 138.281L137.302 137.474ZM135.305 132.064C136.257 131.07 137.876 131.114 138.905 132.098C139.922 133.072 140.037 134.687 139.096 135.669C138.233 136.571 136.562 136.766 135.453 135.704C134.354 134.653 134.387 133.023 135.305 132.064Z" fill="#FF6F8D"/>
<path d="M127.765 137.561L135.085 146.477L136.161 145.594L128.841 136.678L127.765 137.561Z" fill="#FF6F8D"/>
<path d="M129.558 147.872C129.113 148.184 128.975 148.768 129.278 149.201C129.581 149.633 130.177 149.704 130.623 149.392C131.055 149.089 131.193 148.505 130.89 148.072C130.587 147.64 129.991 147.569 129.558 147.872ZM123.65 140.66L127.935 146.781L129.076 145.983L124.791 139.862L123.65 140.66Z" fill="#FF6F8D"/>
<path d="M118.235 151.219C119.087 151.762 120.245 151.69 121.233 151.164C123.097 150.171 123.719 147.901 122.681 145.952C121.605 143.933 119.319 143.283 117.596 144.2C116.537 144.764 115.912 145.803 115.896 146.827L115.271 145.655L114.043 146.309L117.556 152.904L118.784 152.25L118.235 151.219ZM118.029 145.456C119.244 144.809 120.769 145.357 121.438 146.614C122.1 147.856 121.704 149.427 120.503 150.066C119.402 150.652 117.754 150.315 117.032 148.959C116.317 147.618 116.857 146.08 118.029 145.456Z" fill="#FF6F8D"/>
<path d="M108.879 156.552C109.654 156.295 110.676 155.516 110.813 154.509L111.172 155.587L112.493 155.147L110.132 148.058L108.811 148.498L110.09 152.338C110.601 153.872 109.614 154.858 108.627 155.186C107.64 155.514 106.659 154.998 106.264 153.814L104.925 149.791L103.604 150.231L104.969 154.329C105.616 156.323 107.118 157.138 108.879 156.552Z" fill="#FF6F8D"/>
<path d="M86.328 158.665C85.3129 159.125 85.0179 160.119 85.0735 161.078C85.1735 162.803 86.3865 163.822 88.2074 163.717L92.3445 163.477L91.7066 152.472L87.2181 152.732C85.2055 152.848 84.0955 154.435 84.1871 156.016C84.2566 157.214 85.0175 158.452 86.328 158.665ZM86.5187 160.85C86.4641 159.907 86.9194 159.192 87.9098 159.134L90.6252 158.977L90.8132 162.22L88.1457 162.374C87.1393 162.432 86.5733 161.792 86.5187 160.85ZM90.3308 153.898L90.5512 157.699L87.7399 157.862C86.3981 157.94 85.7055 157.05 85.6481 156.06C85.5889 155.038 86.2417 154.134 87.5994 154.056L90.3308 153.898Z" fill="#FF6F8D"/>
<path d="M77.3085 152.12C75.1956 151.867 73.2294 153.21 72.9471 155.561C72.6648 157.912 74.259 159.667 76.3718 159.92C78.4846 160.174 80.433 158.844 80.7154 156.493C80.9977 154.142 79.4213 152.374 77.3085 152.12ZM77.152 153.423C78.5023 153.585 79.5024 154.784 79.3174 156.325C79.1343 157.85 77.8785 158.779 76.5282 158.617C75.162 158.453 74.146 157.252 74.3292 155.727C74.5142 154.186 75.7858 153.259 77.152 153.423Z" fill="#FF6F8D"/>
<path d="M65.699 157.719L64.9829 160.443L66.3292 160.796L67.0453 158.073L68.3452 158.415L68.6504 157.254L67.3505 156.912L68.9455 150.847L67.5992 150.493L66.0042 156.559L64.4413 156.148L64.1361 157.308L65.699 157.719Z" fill="#FF6F8D"/>
<path d="M54.9428 152.725C55.0642 153.728 55.8561 154.575 56.8909 155.004C58.8423 155.812 60.9907 154.848 61.8358 152.809C62.7116 150.695 61.7606 148.517 59.9571 147.771C58.8484 147.312 57.6486 147.49 56.8474 148.128L57.3557 146.901L56.0696 146.369L53.2096 153.272L54.4957 153.804L54.9428 152.725ZM59.2627 148.903C60.534 149.43 61.08 150.954 60.5349 152.27C59.996 153.571 58.5314 154.263 57.2749 153.743C56.1218 153.265 55.3347 151.779 55.9226 150.36C56.5044 148.956 58.0357 148.395 59.2627 148.903Z" fill="#FF6F8D"/>
<path d="M44.9121 148.891C45.6039 149.323 46.8554 149.616 47.7192 149.081L47.1163 150.043L48.2963 150.782L52.2619 144.449L51.0819 143.711L48.9335 147.141C48.0759 148.511 46.6868 148.378 45.8052 147.826C44.9236 147.274 44.6971 146.189 45.3595 145.131L47.6097 141.538L46.4298 140.799L44.137 144.461C43.0111 146.229 43.3388 147.906 44.9121 148.891Z" fill="#FF6F8D"/>
<path d="M36.8522 145.16C36.4291 144.819 35.8292 144.848 35.4971 145.258C35.165 145.669 35.2619 146.262 35.685 146.604C36.0956 146.935 36.6956 146.906 37.0276 146.496C37.3597 146.085 37.2628 145.492 36.8522 145.16ZM42.1508 137.49L37.4518 143.3L38.5343 144.175L43.2334 138.365L42.1508 137.49Z" fill="#FF6F8D"/>
<path d="M35.8341 131.366C35.0171 130.531 33.9806 130.113 32.9956 130.159L32.9591 131.425C33.6268 131.421 34.3142 131.689 34.8626 132.249C35.8922 133.301 35.9426 134.908 34.8445 135.982C33.7464 137.056 32.1519 136.96 31.1223 135.908C30.5739 135.347 30.3212 134.655 30.3398 133.987L29.0723 133.996C29.0164 134.968 29.401 136.025 30.218 136.859C31.7176 138.392 34.1365 138.644 35.8294 136.989C37.5222 135.333 37.3337 132.898 35.8341 131.366Z" fill="#FF6F8D"/>
<path d="M23.5512 126.41C23.1212 127.324 23.3419 128.462 23.9909 129.375C25.2148 131.097 27.5468 131.422 29.3467 130.143C31.2118 128.818 31.5631 126.468 30.432 124.877C29.7366 123.899 28.6253 123.413 27.6074 123.528L28.69 122.758L27.8834 121.624L21.7924 125.952L22.599 127.086L23.5512 126.41ZM29.2419 125.467C30.0393 126.589 29.6916 128.171 28.5308 128.995C27.383 129.811 25.7743 129.619 24.9862 128.511C24.263 127.494 24.3859 125.817 25.638 124.927C26.8771 124.047 28.4724 124.385 29.2419 125.467Z" fill="#FF6F8D"/>
<path d="M25.2682 117.046L15.1255 122.542L15.789 123.766L25.9317 118.27L25.2682 117.046Z" fill="#FF6F8D"/>
<path d="M22.4506 110.641C21.8619 109.205 20.5377 108.295 19.2496 108.823C18.4649 109.145 17.7579 109.866 17.9913 111.448L18.1584 112.573C18.2368 113.059 18.1672 113.607 17.6934 113.801C17.1604 114.019 16.5489 113.751 16.2758 113.085C16.0513 112.537 16.1821 111.843 16.709 111.61L16.1992 110.367C14.8075 110.937 14.6833 112.406 15.1627 113.575C15.7332 114.967 17.0369 115.574 18.177 115.107C19.2874 114.652 19.5769 113.755 19.4144 112.473L19.2481 111.435C19.142 110.838 19.2446 110.329 19.7628 110.117C20.3255 109.887 20.9672 110.229 21.3253 111.102C21.6713 111.946 21.3951 112.665 20.8089 112.922L21.3005 114.121C22.6976 113.48 22.9603 111.885 22.4506 110.641Z" fill="#FF6F8D"/>
<path d="M14.7296 94.276L13.4032 94.4923L14.2946 99.956L15.6211 99.7397L14.7296 94.276Z" fill="#FF6F8D"/>
<path d="M17.8001 75.0456L6.47194 78.3344L6.3473 79.8653L16.9952 84.9329L17.1186 83.4179L14.3828 82.1209L14.7671 77.4005L17.6768 76.5606L17.8001 75.0456ZM8.30741 79.2534L13.4523 77.7757L13.1459 81.5392L8.30741 79.2534Z" fill="#FF6F8D"/>
<path d="M16.4046 66.0055C17.9666 66.4198 18.2631 67.7832 18.0063 68.791C17.7495 69.7988 16.7885 70.33 15.5636 70.0181L11.4082 68.9599L11.0645 70.3087L15.2509 71.3749C17.2781 71.9076 18.772 71.0993 19.2343 69.2853C19.4397 68.4791 19.3329 67.2136 18.5288 66.5465L19.6607 66.8347L20.0044 65.4858L12.7635 63.6418L12.4198 64.9907L16.4046 66.0055Z" fill="#FF6F8D"/>
<path d="M22.7876 58.5274C23.3977 57.1003 23.1168 55.5188 21.8367 54.9719C21.0569 54.6387 20.0463 54.6419 19.0831 55.9181L18.399 56.8264C18.1073 57.2237 17.6685 57.5582 17.1976 57.3571C16.668 57.1308 16.43 56.5071 16.713 55.8451C16.9457 55.3007 17.5315 54.9072 18.0675 55.1188L18.5958 53.883C17.2127 53.2921 16.079 54.2345 15.5822 55.3967C14.991 56.7797 15.4734 58.1341 16.6063 58.6181C17.7098 59.0896 18.552 58.6664 19.3515 57.6509L19.9747 56.8036C20.3252 56.3096 20.7598 56.0255 21.2748 56.2455C21.8339 56.4844 22.0405 57.1816 21.6694 58.0496C21.3109 58.8882 20.6052 59.1957 20.0104 58.959L19.5009 60.1506C20.9386 60.6952 22.2593 59.7632 22.7876 58.5274Z" fill="#FF6F8D"/>
<path d="M19.7117 47.5502L17.2713 46.1452L16.5764 47.3513L19.0168 48.7564L18.3459 49.921L19.3858 50.5197L20.0568 49.3551L25.4922 52.4847L26.1871 51.2785L20.7516 48.149L21.5583 46.7487L20.5184 46.15L19.7117 47.5502Z" fill="#FF6F8D"/>
<path d="M24.8341 39.4504C24.2505 40.2525 24.2927 41.1734 25.1279 42.2555L23.7562 41.2581L22.9277 42.3966L28.9709 46.791L29.7994 45.6525L27.5865 44.0434C25.9949 42.886 25.0362 41.4569 25.9117 40.2538C26.0812 40.0209 26.3683 39.7351 26.7589 39.5246L25.8296 38.5718C25.5814 38.6683 25.1448 39.0235 24.8341 39.4504Z" fill="#FF6F8D"/>
<path d="M32.8317 32.3765C31.8538 32.1227 30.7751 32.5496 29.9975 33.3557C28.5312 34.8758 28.6418 37.2271 30.2315 38.7595C31.8787 40.3474 34.2537 40.259 35.6089 38.8541C36.442 37.9905 36.7148 36.8089 36.4141 35.83L37.3702 36.7517L38.3366 35.7498L32.9572 30.564L31.9908 31.5659L32.8317 32.3765ZM34.8088 37.7939C33.8535 38.7842 32.2342 38.7344 31.209 37.7461C30.1953 36.7689 30.0867 35.153 31.0309 34.1742C31.8974 33.276 33.5689 33.0872 34.6747 34.1532C35.769 35.2082 35.7307 36.8381 34.8088 37.7939Z" fill="#FF6F8D"/>
<path d="M42.3063 32.3566L35.0191 23.4137L33.9398 24.2927L41.227 33.2356L42.3063 32.3566Z" fill="#FF6F8D"/>
<path d="M40.2396 22.2472C40.6853 21.9354 40.823 21.3509 40.5202 20.9183C40.2174 20.4858 39.6209 20.4149 39.1752 20.7268C38.7425 21.0294 38.6049 21.6139 38.9077 22.0465C39.2105 22.479 39.8069 22.5499 40.2396 22.2472ZM46.1476 29.459L41.8625 23.3379L40.7219 24.1358L45.0071 30.257L46.1476 29.459Z" fill="#FF6F8D"/>
<path d="M51.5412 18.8759C50.6896 18.3323 49.5318 18.4048 48.5432 18.9311C46.6789 19.9236 46.0573 22.1939 47.0954 24.1427C48.171 26.1621 50.457 26.8121 52.1801 25.8948C53.2394 25.331 53.864 24.2915 53.8806 23.2676L54.505 24.4397L55.7337 23.7856L52.2208 17.1909L50.9921 17.845L51.5412 18.8759ZM51.7469 24.6391C50.5323 25.2857 49.0077 24.7379 48.3382 23.4811C47.6763 22.2384 48.0725 20.668 49.273 20.0289C50.3746 19.4425 52.0226 19.7796 52.7447 21.1353C53.4594 22.4768 52.9191 24.0151 51.7469 24.6391Z" fill="#FF6F8D"/>
<path d="M60.9051 13.4947C60.1308 13.7524 59.1085 14.531 58.9716 15.5378L58.6126 14.46L57.2919 14.8995L59.6526 21.9888L60.9734 21.5492L59.6944 17.7086C59.1839 16.1754 60.1709 15.1892 61.1577 14.8609C62.1445 14.5325 63.1259 15.049 63.5202 16.233L64.8598 20.2559L66.1806 19.8163L64.8157 15.7176C64.1687 13.7239 62.6661 12.9087 60.9051 13.4947Z" fill="#FF6F8D"/>
<path d="M83.655 11.3224C84.6719 10.8669 84.9707 9.87329 84.9188 8.91469C84.8255 7.18921 83.6164 6.16498 81.7951 6.26343L77.6571 6.48711L78.2525 17.495L82.742 17.2523C84.755 17.1435 85.8712 15.561 85.7856 13.9793C85.7208 12.781 84.9647 11.54 83.655 11.3224ZM83.4727 9.13707C83.5237 10.0797 83.0656 10.7935 82.075 10.847L79.359 10.9938L79.1836 7.75056L81.8517 7.60634C82.8582 7.55193 83.4217 8.19445 83.4727 9.13707ZM79.6338 16.0744L79.4281 12.272L82.24 12.12C83.5821 12.0474 84.2713 12.9395 84.3248 13.9301C84.3802 14.9526 83.7238 15.8533 82.3658 15.9267L79.6338 16.0744Z" fill="#FF6F8D"/>
<path d="M92.3077 17.8092C94.4204 18.0635 96.386 16.7208 96.6675 14.3696C96.9491 12.0183 95.3544 10.2632 93.2417 10.009C91.1289 9.75468 89.1811 11.0835 88.8996 13.4347C88.6181 15.7859 90.1949 17.555 92.3077 17.8092ZM92.4636 16.5065C91.1134 16.344 90.113 15.1439 90.2975 13.6029C90.4801 12.0778 91.7354 11.1491 93.0857 11.3116C94.4518 11.4761 95.4681 12.6781 95.2855 14.2032C95.101 15.7442 93.8298 16.671 92.4636 16.5065Z" fill="#FF6F8D"/>
<path d="M104.021 12.1832L104.737 9.45979L103.391 9.10601L102.675 11.8294L101.375 11.4879L101.07 12.6484L102.369 12.99L100.774 19.0558L102.121 19.4096L103.716 13.3438L105.279 13.7545L105.584 12.5939L104.021 12.1832Z" fill="#FF6F8D"/>
<path d="M115.066 17.2591C114.948 16.2559 114.159 15.4055 113.126 14.9732C111.178 14.158 109.026 15.1133 108.173 17.15C107.289 19.2605 108.232 21.4415 110.033 22.195C111.14 22.6582 112.34 22.4841 113.144 21.849L112.631 23.074L113.915 23.6113L116.801 16.7191L115.517 16.1817L115.066 17.2591ZM110.731 21.0651C109.462 20.5339 108.922 19.007 109.472 17.6935C110.016 16.3948 111.483 15.7079 112.737 16.2328C113.889 16.7146 114.67 18.2037 114.077 19.6205C113.49 21.0226 111.956 21.5777 110.731 21.0651Z" fill="#FF6F8D"/>
<path d="M125.059 21.065C124.369 20.6296 123.119 20.3325 122.253 20.8647L122.859 19.9041L121.682 19.1613L117.693 25.4795L118.871 26.2223L121.032 22.7994C121.894 21.4329 123.283 21.5712 124.162 22.1261C125.042 22.6811 125.265 23.7673 124.598 24.8226L122.335 28.4079L123.512 29.1507L125.818 25.4977C126.951 23.7339 126.629 22.0554 125.059 21.065Z" fill="#FF6F8D"/>
<path d="M133.126 24.792C133.547 25.1355 134.147 25.1083 134.481 24.699C134.815 24.2897 134.72 23.6967 134.298 23.3532C133.889 23.0198 133.289 23.047 132.955 23.4563C132.621 23.8656 132.716 24.4586 133.126 24.792ZM127.799 32.4428L132.519 26.6505L131.44 25.7715L126.72 31.5639L127.799 32.4428Z" fill="#FF6F8D"/>
<path d="M134.082 38.5235C134.899 39.3582 135.936 39.7767 136.921 39.7309L136.957 38.4643C136.29 38.4683 135.602 38.2006 135.054 37.6404C134.024 36.5884 133.974 34.9814 135.072 33.9074C136.17 32.8333 137.764 32.9299 138.794 33.9819C139.342 34.5422 139.595 35.235 139.577 35.9023L140.844 35.8934C140.9 34.9212 140.515 33.8649 139.698 33.0302C138.199 31.4979 135.78 31.2453 134.087 32.9011C132.394 34.557 132.583 36.9912 134.082 38.5235Z" fill="#FF6F8D"/>
<path d="M146.549 43.7154C146.982 42.803 146.766 41.6635 146.12 40.7484C144.903 39.0227 142.572 38.6888 140.767 39.9611C138.897 41.2795 138.537 43.6281 139.663 45.223C140.355 46.2036 141.464 46.6938 142.482 46.5827L141.397 47.348L142.199 48.4854L148.306 44.1797L147.504 43.0423L146.549 43.7154ZM140.855 44.637C140.062 43.5126 140.415 41.9321 141.579 41.1116C142.73 40.3002 144.338 40.4978 145.122 41.609C145.841 42.6288 145.712 44.3054 144.457 45.1905C143.215 46.0664 141.621 45.7221 140.855 44.637Z" fill="#FF6F8D"/>
<path d="M144.818 53.0857L154.981 47.6273L154.322 46.4012L144.159 51.8596L144.818 53.0857Z" fill="#FF6F8D"/>
<path d="M147.517 59.2483C148.106 60.6843 149.43 61.5942 150.718 61.0665C151.503 60.7451 152.21 60.0232 151.976 58.4416L151.809 57.317C151.731 56.8304 151.8 56.2831 152.274 56.089C152.807 55.8707 153.419 56.1389 153.692 56.8051C153.916 57.3529 153.785 58.0462 153.259 58.2794L153.768 59.5229C155.16 58.9528 155.284 57.4841 154.805 56.3145C154.234 54.9229 152.931 54.3158 151.791 54.7829C150.68 55.2378 150.391 56.1345 150.553 57.4166L150.719 58.455C150.826 59.0513 150.723 59.5602 150.205 59.7725C149.642 60.003 149 59.6607 148.642 58.7873C148.296 57.9434 148.572 57.2251 149.159 56.9677L148.667 55.7686C147.27 56.4101 147.007 58.0047 147.517 59.2483Z" fill="#FF6F8D"/>
<path d="M155.303 75.9388L156.63 75.7276L155.759 70.2605L154.432 70.4717L155.303 75.9388Z" fill="#FF6F8D"/>
<path d="M108.04 123.32L108.045 123.314C108.799 122.411 109.345 121.34 109.632 120.214C109.805 119.353 109.468 118.467 108.749 117.925L108.64 117.858C107.606 117.222 106.45 116.902 105.292 116.902C104.324 116.902 103.352 117.125 102.445 117.577C101.885 117.877 101.558 118.488 101.628 119.14C101.642 119.232 101.851 120.553 102.382 121.968C102.657 122.703 103.009 123.434 103.444 124.025C103.881 124.618 104.365 125.022 104.895 125.195L108.04 123.32ZM108.04 123.32L108.035 123.326M108.04 123.32L108.035 123.326M108.035 123.326C107.664 123.789 107.2 124.274 106.676 124.638C106.153 125.002 105.609 125.219 105.058 125.22M108.035 123.326L105.058 125.22M105.058 125.22C104.994 125.219 104.939 125.209 104.896 125.195L105.058 125.22Z" fill="white" stroke="#FF6F8D" stroke-width="1.5"/>
<path d="M91.4186 103.852C90.9228 101.345 82.6021 98.4749 79.3904 98.4749H79.3878C76.5104 98.6514 73.7049 99.316 71.0482 100.456C70.724 100.599 69.8195 101.127 68.6716 101.804C63.6004 104.783 58.4435 107.692 55.9294 107.465L91.4186 103.852ZM91.4186 103.852C91.6885 105.218 94.0689 110.323 96.9123 112.107L91.4186 103.852ZM51.4789 101.271C51.6126 99.4345 48.2091 93.1103 47.0485 91.423L51.4789 101.271ZM51.4789 101.271C51.4208 101.969 51.2594 102.648 50.9995 103.292L51.4789 101.271ZM120.377 81.8081C121.027 82.5453 121.507 83.0906 121.81 83.4998L122.035 83.8033H122.04C122.915 85.05 123.341 86.1599 123.527 87.3104C123.732 88.5785 123.653 89.9314 123.492 91.6586C123.137 95.4221 122.009 97.3759 120.095 100.286C119.771 100.77 119.409 101.237 119.011 101.68L119.006 101.686L119.001 101.691C118.019 102.828 116.928 104.113 114.891 108.826L114.891 108.826C113.11 112.955 109.126 113.447 106.125 113.787C105.772 113.826 105.488 113.853 105.208 113.84L105.208 113.84L105.2 113.839C102.412 113.737 99.6801 112.915 97.307 111.469C96.0439 110.675 94.8144 109.084 93.8465 107.442C92.8767 105.796 92.2647 104.265 92.1543 103.707L92.1543 103.707C92.0572 103.216 91.7838 102.779 91.4532 102.405C91.1188 102.026 90.6887 101.669 90.2079 101.337C89.2463 100.673 88.0048 100.055 86.7047 99.5283C84.1262 98.4833 81.1381 97.7249 79.3904 97.7249H79.3878H79.3648L79.3419 97.7263C76.3786 97.9081 73.4886 98.5927 70.7524 99.7668L70.7524 99.7668L70.7465 99.7694C70.3692 99.9352 69.4094 100.498 68.2911 101.158C65.7536 102.648 63.2224 104.105 61.0177 105.16C59.9156 105.688 58.9124 106.107 58.0434 106.38C57.1616 106.656 56.4794 106.762 55.9968 106.718L55.9962 106.718C55.8134 106.702 55.6001 106.695 55.3212 106.688C54.6742 106.67 53.8512 106.645 53.1036 106.444C52.364 106.244 51.8385 105.911 51.5868 105.382C51.3732 104.83 51.3944 104.201 51.6753 103.618L51.6859 103.595L51.6951 103.573C51.9831 102.858 52.162 102.106 52.2263 101.333H52.2263L52.2269 101.325C52.2517 100.984 52.1936 100.598 52.1047 100.218C52.0132 99.8282 51.8765 99.3941 51.7113 98.9389C51.3807 98.0279 50.9195 96.987 50.424 95.9641C49.4366 93.9256 48.2768 91.8853 47.6665 90.998L47.6664 90.9979C47.6668 90.9984 47.6648 90.9955 47.6604 90.9883C47.6561 90.9814 47.6503 90.9718 47.6431 90.9592C47.6285 90.9337 47.6101 90.8999 47.588 90.857C47.5437 90.7712 47.4891 90.6582 47.4259 90.5192C47.2997 90.2415 47.1452 89.8733 46.9779 89.436C46.643 88.5608 46.2627 87.4249 45.9561 86.2039C45.6488 84.98 45.4209 83.6912 45.3797 82.5045C45.338 81.306 45.4898 80.2841 45.8752 79.5408L45.8754 79.5404C46.417 78.494 47.5422 77.6017 48.9859 76.8225C50.4149 76.0511 52.0422 75.4489 53.4743 74.9206L53.4776 74.9193L54.4073 74.5713L54.4075 74.5712C56.4529 73.8049 58.2946 72.6501 59.9267 71.0832L59.9583 71.0528L59.9862 71.0189C62.0765 68.4803 64.047 65.797 65.8573 63.0196L65.8657 63.0068L65.8735 62.9936C65.8735 62.9936 65.8781 62.986 65.8898 62.9697C65.9011 62.9539 65.9167 62.9334 65.9372 62.9078C65.9784 62.8563 66.0336 62.792 66.1032 62.7154C66.2424 62.5622 66.4266 62.3738 66.6464 62.1616C67.0857 61.7377 67.6493 61.2359 68.2423 60.7561C68.8375 60.2745 69.4476 59.827 69.9815 59.5037C70.2486 59.3419 70.4833 59.2194 70.678 59.1391C70.8596 59.0642 70.9661 59.0432 71.011 59.0391C71.8114 59.0935 72.5681 59.434 73.1667 60.0303L73.1824 60.0459L73.199 60.0606C73.4564 60.2884 73.7342 60.5011 74.0316 60.6888C74.0319 60.689 74.0322 60.6892 74.0326 60.6894L74.65 61.0816L75.3863 61.5494L75.7383 60.7512L76.0348 60.0791L76.0357 60.077C76.2459 59.5966 76.4064 59.0963 76.5201 58.5582L76.5236 58.5417L76.5263 58.525C76.6749 57.623 77.3779 56.4225 78.3091 55.3242C78.7629 54.7889 79.248 54.305 79.7033 53.923C80.1677 53.5333 80.5639 53.2811 80.84 53.1697C81.1892 53.031 81.8072 52.9582 83.0523 53.0846C84.2789 53.2092 86.0102 53.5136 88.5174 54.0339L88.5191 54.0342C88.8603 54.1042 89.3298 54.2 89.5663 54.2363L89.5979 54.2412L89.6298 54.2433C90.3567 54.2923 91.0328 54.3792 91.5702 54.5733C92.0976 54.7637 92.3988 55.0218 92.5377 55.3637L92.5379 55.3641C92.6732 55.6968 92.6468 56.0156 92.4367 56.4309C92.21 56.879 91.8057 57.3644 91.2592 57.9674C90.7474 58.4835 90.2906 59.0572 89.8997 59.6689L89.899 59.67L89.6341 60.0862L89.3192 60.5809L89.7234 61.0058L90.064 61.3639L90.064 61.3639C91.253 62.614 92.6158 63.6827 94.065 64.5083C95.514 65.5207 97.1185 66.2556 98.8338 66.69C98.8342 66.6901 98.8345 66.6902 98.8349 66.6903L99.1567 66.7729L99.5431 66.8721L99.8413 66.6072L100.091 66.3854C100.091 66.3853 100.091 66.3853 100.091 66.3853C100.184 66.3026 100.333 66.1673 100.486 65.9017C100.626 65.6598 100.755 65.3339 100.882 64.8699C101.134 63.9459 101.408 62.352 101.676 59.4984C101.901 57.0982 102.14 55.1697 102.637 53.8429C102.882 53.1896 103.167 52.7463 103.488 52.4681C103.791 52.2052 104.17 52.0508 104.703 52.0508C104.882 52.0508 105.041 52.1484 105.116 52.2662C105.537 53.0551 105.916 53.8843 106.239 54.716C106.675 55.9017 107.227 57.0499 107.932 58.204L107.959 58.2478L107.991 58.2875C108.606 59.0397 109.345 60.4834 110.158 62.3519C110.96 64.1931 111.798 66.3607 112.628 68.5078C113.516 71.0045 114.562 73.4753 115.776 75.9189L115.796 75.9585L115.82 75.9954C117.155 78.0394 118.677 79.9812 120.377 81.8081Z" fill="white" stroke="#FF6F8D" stroke-width="1.5"/>
</svg>
