<svg width="375" height="317" viewBox="0 0 375 317" fill="none" xmlns="http://www.w3.org/2000/svg">
<g opacity="0.25">
<mask id="mask0_2163_16137" style="mask-type:alpha" maskUnits="userSpaceOnUse" x="0" y="0" width="375" height="317">
<rect y="0.0405273" width="375" height="316" fill="black"/>
</mask>
<g mask="url(#mask0_2163_16137)">
<path d="M140.88 410.827C140.969 410.472 158.129 385.3 173.271 373.665C188.413 362.03 191.272 357.385 206.653 353.81C222.035 350.234 228.254 351.368 235.33 352.869C242.406 354.371 258.544 357.625 275.183 345.748C291.821 333.871 303.702 320.787 308.137 317.118C312.573 313.45 337.353 292.952 356.323 286.456C375.294 279.961 374.453 280.718 368.753 280.34C363.053 279.963 340.967 279.494 311.456 293.538C281.946 307.582 253.153 320.249 238.888 330.959C224.623 341.67 226.039 346.598 219.241 348.585C212.443 350.572 206.924 351.34 203.83 351.898C200.736 352.455 198.003 353.317 199.318 351.93C200.633 350.543 214.543 337.111 219.421 330.564C224.3 324.016 229.322 316.796 242.071 314.01C254.819 311.223 268.463 304.232 279.07 291.936C289.678 279.64 294.013 269.657 306.752 258.926C319.491 248.195 331.182 238.799 335.331 236.476C339.481 234.153 343.585 232.204 341.053 232.038C338.521 231.873 312.504 236.69 293.897 245.037C275.29 253.383 254.421 266.364 243.004 281.666C231.587 296.968 230.912 310.523 224.072 319.498C217.231 328.473 205.275 344.311 194.001 352.551C182.726 360.791 175.863 366.989 175.863 366.989C175.863 366.989 174.385 368.556 176.372 363.743C182.868 348.014 184.106 346.721 187.593 344.314C191.081 341.907 204.046 333.708 209.726 322.6C215.405 311.493 214.753 302.172 215.811 296.004C216.869 289.835 219.497 272.297 230.86 260.442C242.224 248.587 248.434 241.777 251.993 239.034C255.552 236.29 255.688 236.049 253.097 236.238C250.507 236.428 230.313 242.243 211.662 255.591C193.01 268.939 183.481 286.552 179.867 303.534C176.252 320.515 177.275 333.682 178.822 338.799C180.367 343.916 181.164 343.975 179.622 350.318C178.08 356.662 171.548 371.375 168.385 374.254C165.222 377.134 150.948 392.678 147.161 397.292C143.374 401.905 140.032 405.626 139.912 406.992C139.791 408.358 140.314 413.086 140.88 410.827L140.88 410.827Z" fill="#FAADB2"/>
<path d="M314.786 217.204C316.016 213.839 319.862 212.31 323.123 213.579C326.385 214.848 328.073 218.533 326.843 221.898C325.613 225.264 321.972 226.924 318.71 225.656C315.449 224.385 313.555 220.57 314.786 217.204L314.786 217.204Z" fill="#FFEFF2"/>
<path d="M311.993 140.886C313.223 137.52 317.32 135.96 320.581 137.229C323.841 138.498 325.494 142.297 324.265 145.663C323.034 149.028 319.291 150.95 316.03 149.682C312.769 148.412 310.763 144.251 311.993 140.886Z" fill="#FFEFF2"/>
<path d="M328.888 119.463C327.658 122.83 323.626 124.337 320.365 123.067C317.104 121.798 315 117.902 316.229 114.535C317.459 111.17 321.636 109.395 324.898 110.665C328.159 111.934 330.118 116.098 328.888 119.463Z" fill="#FFEFF2"/>
<path d="M275.15 107.766C278.412 109.036 279.73 112.364 278.5 115.729C277.269 119.095 274.098 120.839 270.837 119.569C267.576 118.299 265.783 114.624 267.014 111.258C268.243 107.892 271.889 106.497 275.15 107.766L275.15 107.766Z" fill="#FFEFF2"/>
<path d="M313.04 157.862C316.301 159.132 318.306 163.326 317.076 166.692C315.847 170.058 311.717 171.677 308.455 170.408C305.194 169.139 303.608 165.293 304.838 161.928C306.068 158.562 309.779 156.593 313.04 157.862Z" fill="#FFEFF2"/>
<path d="M297.68 191.635C294.42 190.365 292.646 186.94 293.876 183.575C295.106 180.208 298.664 178.752 301.925 180.021C305.186 181.29 306.903 184.801 305.673 188.167C304.444 191.533 300.942 192.904 297.68 191.635Z" fill="#FFEFF2"/>
<path d="M307.611 111.181C306.381 114.547 302.23 116.269 298.97 115C295.708 113.73 293.794 109.647 295.024 106.281C296.254 102.915 300.205 101.426 303.467 102.695C306.727 103.965 308.841 107.815 307.611 111.181Z" fill="#FFEFF2"/>
<path d="M257.921 89.176C261.182 90.446 262.451 93.9188 261.221 97.2837C259.99 100.649 256.6 102.985 253.338 101.715C250.078 100.446 248.718 96.2612 249.948 92.8955C251.178 89.5292 254.661 87.9064 257.921 89.176L257.921 89.176Z" fill="#FFEFF2"/>
<path d="M277.778 137.472C276.548 140.838 272.884 142.618 269.623 141.348C266.362 140.078 264.748 136.245 265.979 132.879C267.208 129.513 271.004 127.377 274.264 128.646C277.526 129.915 279.008 134.106 277.778 137.472L277.778 137.472Z" fill="#FFEFF2"/>
<path d="M326.018 170.173C327.248 166.807 330.545 164.621 333.805 165.89C337.066 167.159 338.804 171.306 337.574 174.672C336.344 178.038 332.492 179.676 329.231 178.407C325.971 177.138 324.788 173.539 326.018 170.173Z" fill="#FFEFF2"/>
<path d="M288.717 141.73C289.946 138.364 294.036 136.765 297.297 138.034C300.558 139.304 301.712 142.944 300.483 146.31C299.252 149.676 296.076 151.568 292.815 150.298C289.554 149.029 287.486 145.096 288.717 141.73Z" fill="#FFEFF2"/>
<path d="M251.6 179.319C254.861 180.588 256.519 183.985 255.29 187.351C254.059 190.717 250.358 192.912 247.096 191.642C243.835 190.374 242.679 186.286 243.909 182.921C245.139 179.556 248.339 178.049 251.6 179.319Z" fill="#FFEFF2"/>
<path d="M251.497 162.046C250.267 165.411 246.432 166.743 243.171 165.475C239.91 164.205 238.316 160.759 239.545 157.394C240.776 154.028 244.434 151.825 247.695 153.094C250.956 154.364 252.726 158.68 251.497 162.046Z" fill="#FFEFF2"/>
<path d="M315.305 196.792C316.535 193.426 320.72 191.507 323.981 192.776C327.242 194.045 328.543 198.101 327.313 201.466C326.083 204.832 322.827 206.128 319.565 204.86C316.304 203.59 314.075 200.158 315.305 196.792Z" fill="#FFEFF2"/>
<path d="M277.168 165.079C275.938 168.444 272.191 170.078 268.93 168.808C265.669 167.538 264.426 163.963 265.656 160.598C266.886 157.231 270.045 155.564 273.306 156.834C276.567 158.102 278.397 161.713 277.168 165.079Z" fill="#FFEFF2"/>
<path d="M252.603 134.633C251.374 137.999 247.49 139.693 244.229 138.423C240.968 137.154 239.805 133.496 241.035 130.13C242.265 126.764 245.452 124.881 248.713 126.152C251.974 127.42 253.833 131.268 252.603 134.633Z" fill="#FFEFF2"/>
<path d="M258.224 198.106C261.484 199.375 262.626 203.23 261.396 206.595C260.166 209.962 256.957 211.765 253.696 210.496C250.435 209.226 248.691 205.494 249.92 202.128C251.151 198.762 254.962 196.837 258.224 198.106Z" fill="#FFEFF2"/>
<path d="M295.054 209.945C293.824 213.312 290.601 214.706 287.34 213.437C284.08 212.167 282.032 208.721 283.263 205.355C284.492 201.99 288.507 200.05 291.768 201.32C295.029 202.59 296.284 206.58 295.054 209.945Z" fill="#FFEFF2"/>
<path d="M266.745 184.85C267.974 181.484 271.642 179.589 274.903 180.858C278.164 182.127 280.212 186.247 278.981 189.614C277.752 192.979 273.623 194.554 270.362 193.284C267.101 192.015 265.515 188.215 266.745 184.85Z" fill="#FFEFF2"/>
</g>
</g>
</svg>
