<svg width="375" height="253" viewBox="0 0 375 253" fill="none" xmlns="http://www.w3.org/2000/svg">
<g opacity="0.25">
<mask id="mask0_2163_16262" style="mask-type:alpha" maskUnits="userSpaceOnUse" x="0" y="-6" width="375" height="281">
<rect y="-6" width="375" height="281" fill="black"/>
</mask>
<g mask="url(#mask0_2163_16262)">
<path d="M-99.1197 264.746C-99.0309 264.391 -81.8711 239.219 -66.729 227.584C-51.587 215.949 -48.7285 211.304 -33.3466 207.729C-17.9648 204.153 -11.7458 205.287 -4.66983 206.788C2.4059 208.289 18.5442 211.544 35.1827 199.667C51.8211 187.79 63.7016 174.706 68.1373 171.037C72.5732 167.369 97.3529 146.871 116.323 140.375C135.294 133.88 134.453 134.637 128.753 134.259C123.053 133.882 100.967 133.413 71.4559 147.457C41.9456 161.501 13.1531 174.168 -1.11182 184.878C-15.377 195.589 -13.9607 200.517 -20.7591 202.504C-27.5573 204.491 -33.0761 205.259 -36.1699 205.817C-39.2637 206.374 -41.9973 207.236 -40.682 205.849C-39.3668 204.462 -25.4574 191.03 -20.5787 184.483C-15.7001 177.935 -10.6783 170.715 2.07052 167.929C14.8194 165.142 28.4628 158.151 39.0702 145.855C49.6777 133.559 54.0125 123.576 66.7519 112.845C79.4913 102.114 91.1818 92.7176 95.3313 90.3946C99.4809 88.0716 103.585 86.1233 101.053 85.9573C98.5212 85.7915 72.5045 90.609 53.8972 98.9557C35.2898 107.302 14.421 120.283 3.00391 135.585C-8.41316 150.887 -9.088 164.442 -15.9284 173.417C-22.7689 182.392 -34.7251 198.23 -45.9994 206.47C-57.2738 214.71 -64.1372 220.908 -64.1372 220.908C-64.1372 220.908 -65.6152 222.475 -63.6276 217.662C-57.1316 201.933 -55.8941 200.64 -52.4067 198.233C-48.9193 195.826 -35.9537 187.627 -30.2744 176.519C-24.5952 165.412 -25.2467 156.091 -24.1889 149.923C-23.131 143.754 -20.5034 126.216 -9.13982 114.361C2.22385 102.506 8.43364 95.6958 11.9926 92.9527C15.5516 90.2094 15.688 89.9678 13.0974 90.1574C10.5071 90.3471 -9.68659 96.1615 -28.3383 109.51C-46.9902 122.858 -56.5191 140.471 -60.1334 157.453C-63.7475 174.434 -62.7245 187.601 -61.1785 192.718C-59.6325 197.835 -58.8362 197.894 -60.3782 204.237C-61.9203 210.581 -68.4516 225.294 -71.6147 228.173C-74.7778 231.053 -89.0516 246.597 -92.8387 251.211C-96.6257 255.824 -99.9678 259.545 -100.088 260.911C-100.209 262.277 -99.6855 267.005 -99.1197 264.746L-99.1197 264.746Z" fill="#FAADB2"/>
<path d="M74.7855 71.123C76.0155 67.758 79.862 66.2287 83.1225 67.4982C86.3844 68.7672 88.0727 72.4517 86.8427 75.8171C85.6129 79.1834 81.9714 80.8431 78.7102 79.5746C75.4491 78.3043 73.5548 74.4894 74.7855 71.123L74.7855 71.123Z" fill="#FFEFF2"/>
<path d="M71.9933 -5.19551C73.2227 -8.56134 77.3197 -10.1209 80.5806 -8.85201C83.8412 -7.58263 85.494 -3.78416 84.2647 -0.418321C83.0344 2.9471 79.2912 4.86908 76.0301 3.60058C72.7688 2.3306 70.7632 -1.83016 71.9933 -5.19551Z" fill="#FFEFF2"/>
<path d="M73.0402 11.7813C76.3008 13.0506 78.3063 17.2451 77.0759 20.611C75.8466 23.9767 71.7166 25.5964 68.4547 24.3272C65.1943 23.0576 63.6076 19.2124 64.838 15.8467C66.0681 12.4811 69.7786 10.5117 73.0402 11.7813Z" fill="#FFEFF2"/>
<path d="M57.68 45.5541C54.4196 44.2841 52.6455 40.8591 53.8757 37.4936C55.1054 34.1274 58.6641 32.6705 61.9246 33.94C65.1857 35.2086 66.9031 38.7204 65.673 42.0855C64.4434 45.4519 60.9417 46.8234 57.68 45.5541Z" fill="#FFEFF2"/>
<path d="M86.0173 24.0922C87.2478 20.7263 90.5444 18.5401 93.805 19.8095C97.0659 21.0784 98.8039 25.2246 97.574 28.5913C96.3439 31.9566 92.4918 33.595 89.2312 32.3255C85.9703 31.0567 84.788 27.458 86.0173 24.0922Z" fill="#FFEFF2"/>
<path d="M48.717 -4.35116C49.9461 -7.71671 54.0357 -9.3159 57.2965 -8.04698C60.5579 -6.7771 61.7116 -3.13658 60.4825 0.229013C59.2519 3.59498 56.0763 5.48709 52.8149 4.21704C49.5539 2.94827 47.4863 -0.985051 48.717 -4.35116Z" fill="#FFEFF2"/>
<path d="M11.6001 33.2376C14.8611 34.5066 16.5192 37.904 15.2896 41.2703C14.0594 44.6355 10.3576 46.8313 7.09633 45.5613C3.83546 44.2926 2.6792 40.2051 3.90935 36.8398C5.13935 33.4746 8.3395 31.9682 11.6001 33.2376Z" fill="#FFEFF2"/>
<path d="M11.4969 15.9651C10.2668 19.3303 6.43176 20.6621 3.17065 19.3936C-0.0897032 18.1241 -1.68413 14.6782 -0.454826 11.3125C0.775754 7.94649 4.43397 5.74406 7.69498 7.01289C10.9562 8.28305 12.7262 12.5993 11.4969 15.9651Z" fill="#FFEFF2"/>
<path d="M75.3051 50.7105C76.5351 47.3452 80.7202 45.426 83.9808 46.6953C87.242 47.9641 88.5435 52.0198 87.3135 55.385C86.0829 58.7509 82.8266 60.0473 79.5655 58.7787C76.3042 57.5086 74.0745 54.0766 75.3051 50.7105Z" fill="#FFEFF2"/>
<path d="M37.1681 18.9979C35.9379 22.3632 32.1911 23.9971 28.9298 22.7271C25.6693 21.4574 24.4258 17.8816 25.6557 14.5165C26.8855 11.1498 30.0451 9.48252 33.3063 10.7525C36.5674 12.0212 38.3973 15.6322 37.1681 18.9979Z" fill="#FFEFF2"/>
<path d="M18.2239 52.0249C21.4846 53.2943 22.6264 57.1487 21.3962 60.5139C20.1664 63.8806 16.957 65.684 13.6959 64.4154C10.4348 63.145 8.69099 59.4129 9.92046 56.0471C11.151 52.6811 14.9622 50.7555 18.2239 52.0249Z" fill="#FFEFF2"/>
<path d="M55.0538 63.8645C53.824 67.231 50.6014 68.6246 47.3403 67.3559C44.0799 66.0865 42.0324 62.6403 43.2629 59.2745C44.4922 55.9088 48.5074 53.9689 51.7686 55.2391C55.0292 56.5086 56.2839 60.4991 55.0538 63.8645Z" fill="#FFEFF2"/>
<path d="M26.745 38.7688C27.9743 35.4032 31.6421 33.5076 34.9026 34.7773C38.1644 36.0464 40.2119 40.1663 38.9813 43.5325C37.7521 46.898 33.6232 48.4728 30.3619 47.2028C27.1011 45.9339 25.5149 42.1342 26.745 38.7688Z" fill="#FFEFF2"/>
<path d="M324.771 226.831C324.771 226.831 324.878 224.459 320.968 220.971C317.057 217.484 316.529 214.006 318.419 211.39C320.31 208.775 322.277 202.897 325.565 195.097C328.852 187.297 342.561 173.643 348.226 170.878C353.891 168.113 361.268 163.266 368.155 163.927C375.043 164.588 393.189 171.058 399.135 170.486C405.082 169.914 414.712 169.46 414.725 172.455C414.738 175.451 414.057 178.497 408.763 183.189C403.469 187.881 399.096 195.892 396.524 201.554C393.952 207.216 385.693 215.709 381.775 218.313C377.857 220.917 365.901 228.318 359.474 229.316C353.047 230.314 339.774 226.48 334.701 226.465C334.701 226.465 326.526 227.198 324.771 226.831Z" fill="#FAADB2"/>
<path d="M235.099 210.04C235.099 210.04 234.799 200.214 233.89 194.149C232.982 188.085 234.222 174.343 237.932 170.03C241.641 165.716 249.293 155.217 258.426 152.877C267.557 150.538 269.167 150.984 272.604 150.836C276.041 150.69 282.704 151.017 285.487 153.778C288.269 156.539 291.048 159.508 292.211 162.448C293.375 165.389 295.286 171.888 294.373 178.129C293.46 184.369 292.711 192.906 287.375 197.816C282.039 202.726 268.163 210.82 258.851 211.905C249.537 212.989 243.159 214.999 235.099 210.04L235.099 210.04Z" fill="#FFD0D2"/>
<path d="M320.009 154.58C320.009 154.58 313.17 154.691 309.16 149.096C305.151 143.5 300.583 137.764 302.711 131.268C304.839 124.772 310.118 119.986 312.669 114.208C315.219 108.43 320.826 99.7529 325.074 98.0716C329.323 96.3899 331.839 97.0232 333.243 98.6002C334.648 100.176 334.389 103.78 337.484 108.229C340.579 112.677 343.659 122.205 341.491 130.123C339.322 138.042 337.474 144.608 331.145 148.824C324.817 153.039 323.427 155.085 320.009 154.58Z" fill="#FAADB2"/>
<path fill-rule="evenodd" clip-rule="evenodd" d="M320.485 212.179C322.115 214.991 323.925 216.358 325.556 217.59C327.548 219.093 329.268 220.392 330.747 224.073C332.45 228.311 337.267 233.609 344.181 235.883C348.788 237.4 355.994 238.097 364.156 232.813C379.426 222.925 383.318 211.864 388.557 188.983C390.91 178.706 394.886 171.792 397.516 167.216C399.658 163.49 400.838 161.438 399.892 159.755L399.875 159.725C399.072 158.339 397.157 158.082 394.531 158.124C389.149 158.21 384.706 158.935 380.409 159.635C375.322 160.465 370.519 161.248 364.171 161.094L363.806 161.086C354.608 160.859 344.181 160.604 334.714 174.108C325.755 186.888 315.601 201.373 319.465 210.158C319.794 210.906 320.135 211.576 320.485 212.179ZM331.696 220.709C330.218 218.159 328.546 216.898 326.918 215.668C324.996 214.216 323.18 212.845 321.565 209.173C318.256 201.648 328.418 187.152 336.583 175.504C345.339 163.013 354.7 163.243 363.752 163.466L364.117 163.475C370.673 163.634 375.805 162.797 380.769 161.987C384.986 161.299 389.348 160.588 394.567 160.505C397.463 160.459 397.862 160.9 397.898 160.951C398.115 161.509 396.683 163.999 395.532 166.001C392.83 170.701 388.746 177.804 386.312 188.435C381.112 211.145 377.542 221.335 362.931 230.795C355.517 235.595 349.024 234.978 344.881 233.615C338.671 231.572 334.377 226.891 332.878 223.16C332.502 222.225 332.106 221.418 331.696 220.709L331.696 220.709Z" fill="white"/>
<path d="M330.467 214.12C331.979 214.487 333.759 213.819 334.237 215.624C334.714 217.428 334.388 220.372 335.431 220.135L336.473 219.899C336.473 219.899 338.166 219.82 337.595 218.498C337.024 217.176 336.409 216.315 337.719 215.835C339.029 215.356 340.342 214.472 340.08 213.691C339.818 212.909 338.593 212.456 338.593 212.456C338.593 212.456 339.069 211.751 337.526 210.932C335.983 210.112 333.111 209.496 331.344 209.709C329.576 209.922 328.436 210.415 328.451 211.723C328.465 213.031 328.401 213.619 330.467 214.12L330.467 214.12Z" fill="white"/>
<path d="M170.83 26.0261C170.83 26.0261 173.12 25.8054 175.922 21.3234C178.724 16.8409 181.988 15.8169 184.76 17.3854C187.533 18.954 193.446 20.1463 201.387 22.4207C209.328 24.695 224.337 36.8068 227.779 42.2118C231.22 47.6167 236.896 54.4817 237.221 61.6131C237.545 68.745 233.863 88.1916 235.239 94.1895C236.616 100.188 238.392 109.967 235.52 110.398C232.648 110.828 229.63 110.555 224.392 105.798C219.153 101.04 210.858 97.6851 205.068 95.844C199.277 94.0035 189.98 86.7448 186.936 83.1027C183.892 79.4604 175.127 68.2711 173.275 61.8408C171.423 55.4104 173.255 41.3113 172.562 36.1242C172.562 36.1242 170.721 27.871 170.83 26.0261L170.83 26.0261Z" fill="#FAADB2"/>
<path d="M239.489 11.1035C239.489 11.1035 238.43 4.12889 243.24 -0.747965C248.051 -5.62401 252.92 -11.0918 259.448 -9.82072C265.977 -8.54945 271.303 -3.82067 277.202 -2.01738C283.101 -0.214696 292.207 4.30766 294.411 8.41589C296.616 12.5243 296.359 15.1838 295.041 16.839C293.724 18.4937 290.23 18.7306 286.393 22.5133C282.556 26.296 273.843 30.7697 265.944 29.6556C258.044 28.5415 251.487 27.5661 246.561 21.6842C241.637 15.803 239.48 14.6673 239.489 11.1035L239.489 11.1035Z" fill="#FAADB2"/>
<path fill-rule="evenodd" clip-rule="evenodd" d="M184.291 19.6063C181.82 21.6635 180.76 23.7038 179.805 25.5424C178.64 27.7869 177.633 29.7258 174.308 31.7502C170.478 34.0805 166.065 39.7409 164.845 47.1237C164.032 52.0441 164.365 59.5058 170.572 67.1126C182.183 81.3436 193.338 83.7818 216.02 85.9522C226.208 86.9269 233.395 90.0277 238.152 92.0796C242.025 93.7502 244.158 94.67 245.641 93.4698L245.668 93.4482C246.885 92.4345 246.865 90.4415 246.459 87.7631C245.628 82.2744 244.314 77.8338 243.044 73.5396C241.54 68.4566 240.12 63.6557 239.385 57.1471L239.342 56.7729C238.279 47.3394 237.073 36.6475 222.799 28.8506C209.29 21.4731 193.979 13.111 186.088 18.2823C185.416 18.723 184.821 19.1649 184.291 19.6063L184.291 19.6063ZM177.667 32.2515C179.907 30.3862 180.885 28.5022 181.838 26.6673C182.964 24.5 184.027 22.4533 187.325 20.292C194.084 15.8623 209.407 24.2308 221.72 30.9551C234.922 38.166 236.004 47.7655 237.051 57.0483L237.093 57.4229C237.853 64.1452 239.37 69.2746 240.838 74.2347C242.085 78.4498 243.374 82.8084 244.18 88.1312C244.628 91.0842 244.26 91.5537 244.216 91.5978C243.711 91.8969 241.122 90.7797 239.041 89.8826C234.155 87.7746 226.772 84.5895 216.233 83.5812C193.72 81.4274 183.446 79.1963 172.336 65.5793C166.7 58.6705 166.388 51.9476 167.119 47.5239C168.215 40.8927 172.108 35.8521 175.479 33.801C176.324 33.2865 177.044 32.7695 177.667 32.2515Z" fill="white"/>
<path d="M183.817 30.0786C183.676 31.6746 184.564 33.4012 182.899 34.1406C181.234 34.88 178.364 34.9565 178.737 35.9895L179.109 37.0218C179.109 37.0218 179.42 38.7409 180.609 37.9732C181.798 37.2058 182.539 36.4572 183.181 37.7294C183.823 39.0016 184.854 40.2209 185.567 39.8438C186.281 39.4673 186.545 38.152 186.545 38.152C186.545 38.152 187.288 38.541 187.859 36.8496C188.431 35.1582 188.623 32.1378 188.172 30.361C187.722 28.5842 187.09 27.4875 185.837 27.684C184.584 27.881 184.01 27.8968 183.817 30.0786Z" fill="white"/>
</g>
</g>
</svg>
