<svg width="657" height="253" viewBox="0 0 657 253" fill="none" xmlns="http://www.w3.org/2000/svg">
<g opacity="0.25">
<mask id="mask0_2163_16262" style="mask-type:alpha" maskUnits="userSpaceOnUse" x="0" y="-6" width="657" height="281">
<rect y="-6" width="657" height="281" fill="black"/>
</mask>
<g mask="url(#mask0_2163_16262)">
<path d="M300.88 374.746C300.969 374.391 318.129 349.219 333.271 337.584C348.413 325.949 351.272 321.304 366.653 317.729C382.035 314.153 388.254 315.287 395.33 316.788C402.406 318.289 418.544 321.544 435.183 309.667C451.821 297.79 463.702 284.706 468.137 281.037C472.573 277.369 497.353 256.871 516.323 250.375C535.294 243.88 534.453 244.637 528.753 244.259C523.053 243.882 500.967 243.413 471.456 257.457C441.946 271.501 413.153 284.168 398.888 294.878C384.623 305.589 386.039 310.517 379.241 312.504C372.443 314.491 366.924 315.259 363.83 315.817C360.736 316.374 358.003 317.236 359.318 315.849C360.633 314.462 374.543 301.03 379.421 294.483C384.3 287.935 389.322 280.715 402.071 277.929C414.819 275.142 428.463 268.151 439.07 255.855C449.678 243.559 454.013 233.576 466.752 222.845C479.491 212.114 491.182 202.718 495.331 200.395C499.481 198.072 503.585 196.123 501.053 195.957C498.521 195.792 472.504 200.609 453.897 208.956C435.29 217.302 414.421 230.283 403.004 245.585C391.587 260.887 390.912 274.442 384.072 283.417C377.231 292.392 365.275 308.23 354.001 316.47C342.726 324.71 335.863 330.908 335.863 330.908C335.863 330.908 334.385 332.475 336.372 327.662C342.868 311.933 344.106 310.64 347.593 308.233C351.081 305.826 364.046 297.627 369.726 286.519C375.405 275.412 374.753 266.091 375.811 259.923C376.869 253.754 379.497 236.216 390.86 224.361C402.224 212.506 408.434 205.696 411.993 202.953C415.552 200.209 415.688 199.968 413.097 200.157C410.507 200.347 390.313 206.162 371.662 219.51C353.01 232.858 343.481 250.471 339.867 267.453C336.252 284.434 337.275 297.601 338.822 302.718C340.367 307.835 341.164 307.894 339.622 314.237C338.08 320.581 331.548 335.294 328.385 338.173C325.222 341.053 310.948 356.597 307.161 361.211C303.374 365.824 300.032 369.545 299.912 370.911C299.791 372.277 300.314 377.005 300.88 374.746L300.88 374.746Z" fill="#FAADB2"/>
<path d="M474.786 181.123C476.016 177.758 479.862 176.229 483.122 177.498C486.384 178.767 488.073 182.452 486.843 185.817C485.613 189.183 481.971 190.843 478.71 189.575C475.449 188.304 473.555 184.489 474.786 181.123L474.786 181.123Z" fill="#FFEFF2"/>
<path d="M471.993 104.804C473.223 101.439 477.32 99.8791 480.581 101.148C483.841 102.417 485.494 106.216 484.265 109.582C483.034 112.947 479.291 114.869 476.03 113.601C472.769 112.331 470.763 108.17 471.993 104.804Z" fill="#FFEFF2"/>
<path d="M488.887 83.3822C487.658 86.7486 483.626 88.2556 480.365 86.9858C477.104 85.7169 474.999 81.8209 476.229 78.4545C477.459 75.0892 481.636 73.3138 484.897 74.5838C488.158 75.8527 490.118 80.0169 488.887 83.3822Z" fill="#FFEFF2"/>
<path d="M435.15 71.6851C438.412 72.9551 439.73 76.283 438.5 79.6482C437.269 83.0142 434.098 84.7576 430.837 83.4876C427.576 82.2182 425.783 78.5429 427.014 75.1766C428.243 71.8111 431.889 70.4163 435.15 71.6851L435.15 71.6851Z" fill="#FFEFF2"/>
<path d="M473.04 121.781C476.301 123.051 478.306 127.245 477.076 130.611C475.847 133.977 471.717 135.596 468.455 134.327C465.194 133.058 463.608 129.212 464.838 125.847C466.068 122.481 469.779 120.512 473.04 121.781Z" fill="#FFEFF2"/>
<path d="M457.68 155.554C454.42 154.284 452.646 150.859 453.876 147.494C455.105 144.127 458.664 142.67 461.925 143.94C465.186 145.209 466.903 148.72 465.673 152.086C464.443 155.452 460.942 156.823 457.68 155.554Z" fill="#FFEFF2"/>
<path d="M467.611 75.0997C466.381 78.4655 462.23 80.1882 458.97 78.9193C455.708 77.6494 453.794 73.5656 455.024 70.2C456.254 66.8336 460.205 65.3446 463.467 66.6138C466.727 67.8835 468.841 71.734 467.611 75.0997Z" fill="#FFEFF2"/>
<path d="M417.921 53.0949C421.182 54.365 422.45 57.8377 421.22 61.2027C419.99 64.5681 416.6 66.9042 413.338 65.6341C410.078 64.3647 408.718 60.1802 409.947 56.8144C411.178 53.4482 414.66 51.8253 417.921 53.0949L417.921 53.0949Z" fill="#FFEFF2"/>
<path d="M437.778 101.391C436.548 104.757 432.884 106.537 429.623 105.267C426.362 103.997 424.748 100.164 425.979 96.7976C427.208 93.432 431.004 91.2957 434.264 92.5652C437.526 93.8345 439.008 98.0254 437.778 101.391L437.778 101.391Z" fill="#FFEFF2"/>
<path d="M486.017 134.092C487.248 130.726 490.544 128.54 493.805 129.809C497.066 131.078 498.804 135.225 497.574 138.591C496.344 141.957 492.492 143.595 489.231 142.325C485.97 141.057 484.788 137.458 486.017 134.092Z" fill="#FFEFF2"/>
<path d="M448.717 105.649C449.946 102.283 454.036 100.684 457.297 101.953C460.558 103.223 461.712 106.863 460.483 110.229C459.252 113.595 456.076 115.487 452.815 114.217C449.554 112.948 447.486 109.015 448.717 105.649Z" fill="#FFEFF2"/>
<path d="M411.6 143.238C414.861 144.507 416.519 147.904 415.29 151.27C414.059 154.636 410.358 156.831 407.096 155.561C403.835 154.293 402.679 150.205 403.909 146.84C405.139 143.475 408.339 141.968 411.6 143.238Z" fill="#FFEFF2"/>
<path d="M411.497 125.965C410.267 129.33 406.432 130.662 403.171 129.394C399.91 128.124 398.316 124.678 399.545 121.313C400.776 117.946 404.434 115.744 407.695 117.013C410.956 118.283 412.726 122.599 411.497 125.965Z" fill="#FFEFF2"/>
<path d="M475.305 160.711C476.535 157.345 480.72 155.426 483.981 156.695C487.242 157.964 488.543 162.02 487.313 165.385C486.083 168.751 482.827 170.047 479.565 168.779C476.304 167.509 474.075 164.077 475.305 160.711Z" fill="#FFEFF2"/>
<path d="M437.168 128.998C435.938 132.363 432.191 133.997 428.93 132.727C425.669 131.457 424.426 127.882 425.656 124.517C426.886 121.15 430.045 119.483 433.306 120.753C436.567 122.021 438.397 125.632 437.168 128.998Z" fill="#FFEFF2"/>
<path d="M412.603 98.552C411.374 101.918 407.49 103.612 404.229 102.342C400.968 101.073 399.805 97.4146 401.035 94.0493C402.265 90.6828 405.452 88.8004 408.713 90.0705C411.974 91.3391 413.833 95.1866 412.603 98.552Z" fill="#FFEFF2"/>
<path d="M418.224 162.025C421.485 163.294 422.626 167.149 421.396 170.514C420.166 173.881 416.957 175.684 413.696 174.415C410.435 173.145 408.691 169.413 409.92 166.047C411.151 162.681 414.962 160.756 418.224 162.025Z" fill="#FFEFF2"/>
<path d="M455.054 173.864C453.824 177.231 450.601 178.625 447.34 177.356C444.08 176.087 442.032 172.64 443.263 169.274C444.492 165.909 448.507 163.969 451.769 165.239C455.029 166.509 456.284 170.499 455.054 173.864Z" fill="#FFEFF2"/>
<path d="M426.745 148.769C427.974 145.403 431.642 143.508 434.903 144.777C438.164 146.046 440.212 150.166 438.981 153.532C437.752 156.898 433.623 158.473 430.362 157.203C427.101 155.934 425.515 152.134 426.745 148.769Z" fill="#FFEFF2"/>
<path d="M635.099 320.04C635.099 320.04 634.799 310.214 633.89 304.149C632.982 298.085 634.222 284.343 637.932 280.03C641.641 275.716 649.293 265.217 658.426 262.877C667.557 260.538 669.167 260.984 672.604 260.836C676.041 260.69 682.704 261.017 685.487 263.778C688.269 266.539 691.048 269.508 692.211 272.448C693.375 275.389 695.286 281.888 694.373 288.129C693.46 294.369 692.711 302.906 687.375 307.816C682.039 312.726 668.163 320.82 658.851 321.905C649.537 322.989 643.159 324.999 635.099 320.04L635.099 320.04Z" fill="#FFD0D2"/>
<path d="M560.83 136.026C560.83 136.026 563.12 135.805 565.922 131.323C568.724 126.841 571.988 125.817 574.76 127.385C577.533 128.954 583.446 130.146 591.387 132.421C599.328 134.695 614.337 146.807 617.779 152.212C621.22 157.617 626.896 164.482 627.221 171.613C627.545 178.745 623.863 198.192 625.239 204.19C626.616 210.188 628.392 219.967 625.52 220.398C622.648 220.828 619.63 220.555 614.392 215.798C609.153 211.04 600.858 207.685 595.068 205.844C589.277 204.004 579.98 196.745 576.936 193.103C573.892 189.46 565.127 178.271 563.275 171.841C561.423 165.41 563.255 151.311 562.562 146.124C562.562 146.124 560.721 137.871 560.83 136.026L560.83 136.026Z" fill="#FAADB2"/>
<path d="M564.46 42.0388C564.46 42.0388 573.846 40.3643 579.538 38.5915C585.23 36.8192 598.587 36.1746 603.242 39.3656C607.897 42.5566 619.035 48.9162 622.551 57.9243C626.067 66.9322 625.863 68.6388 626.483 72.1315C627.102 75.6245 627.715 82.4794 625.453 85.7081C623.192 88.9363 620.73 92.1897 618.07 93.7875C615.411 95.3859 609.441 98.2442 603.327 98.1797C597.212 98.1151 588.917 98.5369 583.464 93.7669C578.01 88.9967 568.313 75.941 565.976 66.5737C563.639 57.2059 560.823 50.9669 564.46 42.0388L564.46 42.0388Z" fill="#FFD0D2"/>
<path d="M629.489 121.103C629.489 121.103 628.43 114.129 633.24 109.252C638.051 104.376 642.92 98.9082 649.448 100.179C655.977 101.451 661.303 106.179 667.202 107.983C673.101 109.785 682.207 114.308 684.411 118.416C686.616 122.524 686.359 125.184 685.041 126.839C683.724 128.494 680.23 128.731 676.393 132.513C672.556 136.296 663.843 140.77 655.944 139.656C648.044 138.541 641.487 137.566 636.561 131.684C631.637 125.803 629.48 124.667 629.489 121.103L629.489 121.103Z" fill="#FAADB2"/>
<path fill-rule="evenodd" clip-rule="evenodd" d="M574.291 129.606C571.82 131.663 570.76 133.704 569.805 135.542C568.64 137.787 567.633 139.726 564.308 141.75C560.478 144.081 556.065 149.741 554.845 157.124C554.032 162.044 554.365 169.506 560.572 177.113C572.183 191.344 583.338 193.782 606.02 195.952C616.208 196.927 623.395 200.028 628.152 202.08C632.025 203.75 634.158 204.67 635.641 203.47L635.668 203.448C636.885 202.435 636.865 200.441 636.459 197.763C635.628 192.274 634.314 187.834 633.044 183.54C631.54 178.457 630.12 173.656 629.385 167.147L629.342 166.773C628.279 157.339 627.073 146.648 612.799 138.851C599.29 131.473 583.979 123.111 576.088 128.282C575.416 128.723 574.821 129.165 574.291 129.606L574.291 129.606ZM567.667 142.252C569.907 140.386 570.885 138.502 571.838 136.667C572.964 134.5 574.027 132.453 577.325 130.292C584.084 125.862 599.407 134.231 611.72 140.955C624.922 148.166 626.004 157.765 627.051 167.048L627.093 167.423C627.853 174.145 629.37 179.275 630.838 184.235C632.085 188.45 633.374 192.808 634.18 198.131C634.628 201.084 634.26 201.554 634.216 201.598C633.711 201.897 631.122 200.78 629.041 199.883C624.155 197.775 616.772 194.59 606.233 193.581C583.72 191.427 573.446 189.196 562.336 175.579C556.7 168.67 556.388 161.948 557.119 157.524C558.215 150.893 562.108 145.852 565.479 143.801C566.324 143.286 567.044 142.769 567.667 142.252Z" fill="white"/>
<path d="M573.817 140.079C573.676 141.675 574.564 143.401 572.899 144.141C571.234 144.88 568.364 144.957 568.737 145.99L569.109 147.022C569.109 147.022 569.42 148.741 570.609 147.973C571.798 147.206 572.539 146.457 573.181 147.729C573.823 149.002 574.854 150.221 575.567 149.844C576.281 149.467 576.545 148.152 576.545 148.152C576.545 148.152 577.288 148.541 577.859 146.85C578.431 145.158 578.623 142.138 578.172 140.361C577.722 138.584 577.09 137.487 575.837 137.684C574.584 137.881 574.01 137.897 573.817 140.079Z" fill="white"/>
</g>
</g>
</svg>
