<?xml version="1.0" encoding="UTF-8"?><svg id="a" xmlns="http://www.w3.org/2000/svg" width="170" height="100" viewBox="0 15 170 100"><defs><style>.b{fill:none;stroke:#519751;stroke-linecap:round;stroke-linejoin:round;stroke-width:1.5px;}</style></defs><path class="b" d="M24.26,30.26c9.16-5.07,20.06-10.26,29.64-6.02,9.55,4.23,14.47,16.73,24.78,18.41,6.5,1.06,12.77-2.72,19.31-3.46,6.14-.69,12.54,1.48,16.99,5.77s6.87,10.6,6.41,16.76c-.35,4.71-2.12,10.03,.78,13.76,1.21,1.56,3.06,2.5,4.94,3.12,3.7,1.21,7.74,1.34,11.5,.35"/><path class="b" d="M42.8,33.63c5.56-2.04,12.22-.68,16.55,3.36,3.07,2.87,4.97,6.89,8.29,9.46,2.91,2.26,6.68,3.19,10.37,3.28s7.34-.6,10.96-1.29"/><path class="b" d="M95.81,47.85c4.28-2.28,9.91-1.21,13.52,2.03,3.61,3.25,5.27,8.32,4.99,13.17-.18,3.06-1.07,6.1-.76,9.14,.39,3.81,2.68,7.28,5.74,9.6s6.81,3.58,10.6,4.16"/><path class="b" d="M87.88,55.27c2.57,.39,5.13-.52,7.67-1.1s5.45-.75,7.49,.86"/><path class="b" d="M107.38,58.72c.87,1.61,.96,3.62,.23,5.29"/><path class="b" d="M69.45,54.19c3.48,2.29,8,2.95,11.99,1.75"/><path class="b" d="M42.21,16.92c6.41-2.24,13.88-1.11,19.34,2.92,3.62,2.67,6.27,6.42,9.46,9.58,1.75,1.74,3.73,3.34,6.06,4.14,4.12,1.43,8.65,.2,12.77-1.22s8.4-3.06,12.71-2.42"/><path class="b" d="M108.84,32.42c4.98,.93,9.44,3.99,12.51,8.02,3.07,4.03,4.82,8.97,5.5,13.99,.54,3.99,.45,8.14,1.94,11.88s5.27,7.02,9.22,6.23"/></svg>