<svg xmlns="http://www.w3.org/2000/svg" xmlns:xlink="http://www.w3.org/1999/xlink" width="162" height="107" viewBox="0 0 162 107"><defs><style>.a{fill:#fff;}.b{clip-path:url(#a);}.c{fill:#fddbe0;}</style><clipPath id="a"><rect class="a" width="162" height="107" transform="translate(0)"/></clipPath></defs><g class="b" transform="translate(0)"><path class="c" d="M65.317,206.194c-.182-.21-8.242-22.094-8.756-36.848s-2.138-18.6,2.482-30.033,8.1-14.95,12.187-18.857,13.307-12.888,13.308-28.71-2.869-29.1-3.182-33.536S79.293,29,83.691,14s4.5-14.137,1.721-10.632-12.9,17.515-17.288,42.552-9.3,49.021-8.977,62.813,4.032,15,2.244,20.234a103.917,103.917,0,0,1-4.8,11.343c-1.03,2.231-1.71,4.361-1.99,2.917s-2.463-16.179-4.375-22.139-4.179-12.3-.239-21.7A53.78,53.78,0,0,0,52.7,66.065c-2.947-12.122-7.244-19.212-8.264-32.031S42.761,9.645,43.16,5.975,44.172-1.176,42.94.382s-9.814,20.373-12.9,35.942-4.278,34.587.183,48.525S42.844,105.058,45.4,113.326s7.107,22.782,7.226,33.586.929,17.89.929,17.89.319,1.625-1.8-1.727c-6.919-10.955-7.175-12.308-7.123-15.589s.713-15.155-3.688-23.594S30.437,111.858,27.06,108.521s-13.148-12.583-15.482-25S7.761,64.172,7.635,60.7s-.216-3.664-1.252-1.915S-.02,76.032,0,93.783s6.763,31.469,15.747,41.109S33.4,149.546,37.282,150.755s4.272.723,7.543,4.447,9.54,14.265,9.928,17.54,3.727,19.156,4.918,23.58,2.024,8.177,2.823,8.843,3.981,2.366,2.824,1.029" transform="matrix(0.259, 0.966, -0.966, 0.259, 138.457, -10.994)"/></g></svg>