<svg xmlns="http://www.w3.org/2000/svg" xmlns:xlink="http://www.w3.org/1999/xlink" width="158" height="94" viewBox="0 0 158 94"><defs><style>.a{fill:#fff;stroke:#707070;}.b{clip-path:url(#a);}.c{fill:#ff6f8d;}</style><clipPath id="a"><rect class="a" width="158" height="94" transform="translate(335 4143)"/></clipPath></defs><g class="b" transform="translate(-335 -4143)"><path class="c" d="M113.126,1.018c-.24.023-16.487,8.722-23.526,17.459S79.542,28.615,78.08,38.313,77.8,52.188,79.3,56.964s4.8,15.652-2.309,25.341-15.362,16.148-17.6,18.681S44.623,117.667,41.38,129.42,38.6,140.7,37.971,136.933s-2.4-18.249,5.367-36.138S57.961,65.354,64.42,57.1s9.949-6.835,10.876-11.08a70.407,70.407,0,0,0,1.28-9.743c.183-1.968.6-3.668-.272-2.946s-9.229,8.47-13.429,11-8.852,5.1-9.941,13.15a32.215,32.215,0,0,1-12.816,21.98C32.327,85.169,25.725,87,19.152,94.258S6.86,108.216,5.527,110.7s-2.408,4.969-2.686,3.3,1.347-18.2,5.891-29.527S20.87,60.792,30.68,54.86,49.8,49.841,55.547,46.268,71.438,36.46,76.385,29.914A113.956,113.956,0,0,1,85.163,19.5s.986-.81-2.205.008C72.53,22.183,71.718,22.864,70.285,24.9s-6.243,9.7-13.536,12.3S42.984,38.442,38.8,38.517s-16.115.036-23.551,6.28S3.515,54.418,1.855,56.47.037,58.588,0,56.913,2.655,42.62,10.648,31.76s19.519-15.324,31-15.988,20.629,1.321,24.259,2.844,3.724,2.049,8,1.675,14-3.172,15.779-4.951S101.26,5.785,104.2,3.769,109.483-.056,110.415,0s4.231.873,2.711,1.016" transform="translate(370.959 4252.047) rotate(-109)"/></g></svg>