<svg xmlns="http://www.w3.org/2000/svg" xmlns:xlink="http://www.w3.org/1999/xlink" width="104" height="115" viewBox="0 0 104 115"><defs><style>.a{fill:#fff;}.b{clip-path:url(#a);}.c{fill:#cc3195;}</style><clipPath id="a"><rect class="a" width="104" height="115" transform="translate(535 4143)"/></clipPath></defs><g class="b" transform="translate(-535 -4143)"><g transform="translate(212.172 4492.727) rotate(-90)"><path class="c" d="M262.326,364.583a98.812,98.812,0,0,0,14.444,13.538c1.6,1.227,3.876-.97,2.258-2.209a98.829,98.829,0,0,1-14.444-13.54c-1.337-1.531-3.587.689-2.258,2.211" transform="translate(22.991 33.765)"/><path class="c" d="M251.89,368.058a77.486,77.486,0,0,0-2.1,18.45c.013,2.011,3.206,2.016,3.192,0a73.876,73.876,0,0,1,1.986-17.62c.463-1.958-2.615-2.794-3.079-.831" transform="translate(12.22 38.276)"/><path class="c" d="M247.669,359.257l-9.266,4.076c-1.869.825-.249,3.519,1.612,2.7q4.633-2.039,9.266-4.076c1.871-.825.247-3.519-1.612-2.7" transform="translate(1.375 31.32)"/><path class="c" d="M250.525,354.47q-5.916-6.748-11.835-13.5c-1.34-1.529-3.589.689-2.258,2.211q5.918,6.748,11.835,13.5c1.34,1.529,3.591-.691,2.258-2.211" transform="translate(0 14.763)"/><path class="c" d="M259.089,358.468l4.287-18.8c.447-1.96-2.63-2.8-3.077-.831q-2.147,9.4-4.289,18.8c-.447,1.96,2.63,2.8,3.079.831" transform="translate(17.704 12.332)"/><path class="c" d="M265.407,358.119l12.439-5.192c1.884-.787.261-3.479-1.612-2.7l-12.439,5.194c-1.884.785-.259,3.479,1.612,2.7" transform="translate(23.912 23.315)"/><path class="c" d="M289.617,340.846a70.015,70.015,0,0,0,10.7,8.577c1.184.776,2.87-.615,1.671-1.4a69.9,69.9,0,0,1-10.695-8.577c-.991-.969-2.656.436-1.673,1.4" transform="translate(47.316 13.576)"/><path class="c" d="M289.617,340.846a70.015,70.015,0,0,0,10.7,8.577c1.184.776,2.87-.615,1.671-1.4a69.9,69.9,0,0,1-10.695-8.577c-.991-.969-2.656.436-1.673,1.4" transform="translate(47.316 13.576)"/><path class="c" d="M281.89,343.047a42.459,42.459,0,0,0-1.556,11.688c.011,1.274,2.375,1.278,2.365,0a40.317,40.317,0,0,1,1.471-11.161c.342-1.238-1.937-1.769-2.281-.527" transform="translate(39.34 16.435)"/><path class="c" d="M281.89,343.047a42.459,42.459,0,0,0-1.556,11.688c.011,1.274,2.375,1.278,2.365,0a40.317,40.317,0,0,1,1.471-11.161c.342-1.238-1.937-1.769-2.281-.527" transform="translate(39.34 16.435)"/><path class="c" d="M278.764,337.473l-6.861,2.583c-1.384.523-.185,2.228,1.193,1.709q3.427-1.291,6.859-2.581c1.388-.523.185-2.23-1.191-1.71" transform="translate(31.31 12.028)"/><path class="c" d="M278.764,337.473l-6.861,2.583c-1.384.523-.185,2.228,1.193,1.709q3.427-1.291,6.859-2.581c1.388-.523.185-2.23-1.191-1.71" transform="translate(31.31 12.028)"/><path class="c" d="M280.879,334.44q-4.381-4.276-8.764-8.55c-.991-.968-2.658.438-1.671,1.4l8.764,8.552c.991.968,2.656-.438,1.671-1.4" transform="translate(30.292 1.54)"/><path class="c" d="M280.879,334.44q-4.381-4.276-8.764-8.55c-.991-.968-2.658.438-1.671,1.4l8.764,8.552c.991.968,2.656-.438,1.671-1.4" transform="translate(30.292 1.54)"/><path class="c" d="M287.22,336.973l3.175-11.909c.33-1.24-1.948-1.771-2.281-.525l-3.175,11.907c-.33,1.242,1.948,1.773,2.281.527" transform="translate(43.401 0)"/><path class="c" d="M287.22,336.973l3.175-11.909c.33-1.24-1.948-1.771-2.281-.525l-3.175,11.907c-.33,1.242,1.948,1.773,2.281.527" transform="translate(43.401 0)"/><path class="c" d="M291.9,336.752q4.6-1.645,9.211-3.289c1.4-.5.191-2.205-1.193-1.71l-9.211,3.289c-1.4.5-.193,2.205,1.193,1.71" transform="translate(47.998 6.957)"/><path class="c" d="M291.9,336.752q4.6-1.645,9.211-3.289c1.4-.5.191-2.205-1.193-1.71l-9.211,3.289c-1.4.5-.193,2.205,1.193,1.71" transform="translate(47.998 6.957)"/></g></g></svg>