<svg xmlns="http://www.w3.org/2000/svg" width="195.813" height="121.332" viewBox="0 0 195.813 121.332"><defs><style>.a{fill:#fddbe0;}</style></defs><path class="a" d="M57.523.44c-.16.185-7.261,19.471-7.717,32.473S47.919,49.3,51.984,59.376s7.125,13.172,10.722,16.613,11.71,11.354,11.708,25.3-2.533,25.645-2.81,29.552-1.823,25.739,2.044,38.959,3.953,12.457,1.512,9.369-11.355-15.431-15.207-37.492-8.178-43.194-7.886-55.347S55.62,73.1,54.047,68.5a91.592,91.592,0,0,0-4.22-9.994c-.906-1.966-1.5-3.843-1.75-2.57S45.9,70.189,44.22,75.441,40.538,86.281,44,94.566a47.431,47.431,0,0,1,2.377,29.356C43.784,134.6,40,140.853,39.1,152.15s-1.48,21.491-1.13,24.726.889,6.3-.194,4.929-8.634-17.95-11.342-31.668-3.757-30.477.173-42.759,11.111-17.812,13.359-25.1,6.262-20.077,6.369-29.6.822-15.765.822-15.765.281-1.432-1.583,1.522c-6.093,9.655-6.319,10.847-6.274,13.739s.624,13.354-3.252,20.792S26.8,83.576,23.823,86.517,12.247,97.608,10.189,108.552,6.824,125.6,6.712,128.661s-.191,3.229-1.1,1.688S-.022,115.153,0,99.511,5.962,71.779,13.872,63.282,29.415,50.365,32.831,49.3s3.761-.638,6.641-3.921,8.4-12.572,8.743-15.458S51.5,13.039,52.55,9.14s1.784-7.206,2.487-7.793S58.542-.739,57.523.44" transform="matrix(-0.259, 0.966, -0.966, -0.259, 195.813, 47.142)"/></svg>