<svg xmlns="http://www.w3.org/2000/svg" xmlns:xlink="http://www.w3.org/1999/xlink" width="63" height="69" viewBox="0 0 63 69"><defs><style>.a{fill:#fff;}.b{clip-path:url(#a);}.c{fill:#42a1ca;}</style><clipPath id="a"><rect class="a" width="63" height="69" transform="translate(735 4143)"/></clipPath></defs><g class="b" transform="translate(-735 -4143)"><g transform="translate(9997.521 4136.342) rotate(180)"><path class="c" d="M523.5,197.925c2.317-.378,4.6.757,5.09,2.535s-.99,3.525-3.3,3.9-4.594-.761-5.084-2.535.99-3.527,3.3-3.9m-1.078-3.9c-5.124.836-8.395,4.7-7.307,8.633s6.127,6.441,11.25,5.606,8.393-4.7,7.3-8.633-6.123-6.441-11.249-5.607" transform="translate(8707.661 -254.021)"/><path class="c" d="M511.153,214.754c2.317-.38,4.6.757,5.09,2.535s-.99,3.523-3.3,3.9-4.594-.761-5.084-2.535.99-3.527,3.3-3.9m-1.078-3.9c-5.124.836-8.395,4.7-7.3,8.633s6.127,6.441,11.249,5.606,8.393-4.7,7.3-8.635-6.123-6.441-11.249-5.6" transform="translate(8696.814 -239.232)"/><path class="c" d="M521.436,209.117c2.317-.38,4.6.757,5.09,2.535s-.992,3.525-3.307,3.9-4.592-.761-5.084-2.535.99-3.527,3.3-3.9m-1.08-3.9c-5.122.836-8.395,4.7-7.3,8.633s6.127,6.441,11.25,5.607,8.393-4.7,7.307-8.635-6.125-6.441-11.252-5.6" transform="translate(8705.85 -244.186)"/><path class="c" d="M534.665,204.026c2.317-.38,4.6.757,5.09,2.535s-.992,3.527-3.3,3.9-4.594-.761-5.086-2.535.99-3.527,3.3-3.9m-1.078-3.9c-5.124.838-8.395,4.7-7.307,8.635s6.127,6.441,11.25,5.606,8.393-4.7,7.307-8.633-6.125-6.443-11.251-5.608" transform="translate(8717.477 -248.661)"/><path class="c" d="M531.484,218.333c2.317-.378,4.6.757,5.09,2.535s-.99,3.525-3.3,3.9-4.594-.761-5.084-2.535.99-3.527,3.3-3.9m-1.078-3.9c-5.124.836-8.395,4.7-7.307,8.633s6.127,6.441,11.251,5.607,8.393-4.7,7.305-8.633-6.123-6.443-11.249-5.607" transform="translate(8714.681 -236.086)"/><path class="c" d="M512.982,189.993c2.317-.378,4.6.757,5.09,2.535s-.99,3.525-3.3,3.9-4.594-.761-5.084-2.535.99-3.527,3.3-3.9m-1.078-3.9c-5.124.836-8.395,4.7-7.3,8.633s6.125,6.441,11.249,5.606,8.393-4.7,7.3-8.633-6.123-6.443-11.249-5.607" transform="translate(8698.422 -260.993)"/></g></g></svg>