<svg xmlns="http://www.w3.org/2000/svg" width="195.312" height="118.59" viewBox="0 0 195.312 118.59"><defs><style>.a{fill:#fddbe0;}</style></defs><path class="a" d="M3423.048,2713.541c-.16.185-7.261,19.471-7.717,32.473s-1.887,16.386,2.177,26.464,7.125,13.172,10.722,16.613,11.71,11.354,11.708,25.3-2.533,25.645-2.81,29.552-1.823,25.739,2.044,38.959,3.953,12.457,1.512,9.369-11.355-15.431-15.207-37.492-8.178-43.194-7.886-55.347,3.553-13.222,1.981-17.831a91.592,91.592,0,0,0-4.22-9.994c-.906-1.966-1.5-3.843-1.75-2.57s-2.172,14.257-3.857,19.509-3.681,10.84-.216,19.125a47.431,47.431,0,0,1,2.377,29.356c-2.6,10.683-6.381,16.931-7.282,28.227s-1.48,21.491-1.13,24.726.889,6.3-.194,4.929-8.634-17.95-11.342-31.668-3.757-30.477.173-42.759,11.111-17.812,13.359-25.1,6.262-20.077,6.369-29.6.822-15.765.822-15.765.281-1.432-1.583,1.522c-6.093,9.655-6.319,10.847-6.274,13.739s.624,13.354-3.252,20.792-9.25,10.607-12.223,13.549-11.576,11.091-13.634,22.035-3.365,17.05-3.477,20.109-.191,3.229-1.1,1.688-5.632-15.2-5.61-30.838,5.961-27.732,13.872-36.229,15.543-12.917,18.959-13.983,3.761-.638,6.641-3.921,8.4-12.572,8.743-15.458,3.285-16.881,4.335-20.78,1.784-7.206,2.487-7.793,3.505-2.086,2.486-.907" transform="translate(-1799.734 4040.502) rotate(-104)"/></svg>