<svg xmlns="http://www.w3.org/2000/svg" width="54" height="55" fill="none"><path stroke="#E76E68" stroke-linecap="round" stroke-linejoin="round" stroke-width="2" d="m41.136 15.514-.335-.85M39.33 10.925l-.334-.85M37.345 13.865l.851-.335M41.934 12.06l.851-.336"/><path stroke="#E76E68" stroke-linecap="round" stroke-linejoin="round" d="M18.051 43.957h15.2s.756-3.8-2.28-3.8h-10.64c-3.04 0-2.28 3.8-2.28 3.8Z"/><path stroke="#E76E68" stroke-linecap="round" stroke-linejoin="round" d="m25.651 28.757-2.205 1.659a9.686 9.686 0 0 0-3.875 7.749v1.993h12.16v-3.099a7.484 7.484 0 0 0-2.993-5.986l-3.087-2.316ZM18.051 13.558h15.2s.756 3.8-2.28 3.8h-10.64c-3.04 0-2.28-3.8-2.28-3.8Z"/><path stroke="#E76E68" stroke-linecap="round" stroke-linejoin="round" d="m25.651 28.757-3.178-2.382a7.258 7.258 0 0 1-2.902-5.804v-3.213h12.16v2.11a9.457 9.457 0 0 1-3.78 7.568l-2.3 1.721ZM19.74 37.026s2.956.667 5.911-.669c2.955-1.336 5.91-.667 5.91-.667"/></svg>