<svg width="30" height="30" viewBox="0 0 30 30" fill="none" xmlns="http://www.w3.org/2000/svg">
<rect width="30" height="30" rx="4" fill="#FF6F8D"/>
<path d="M11.3806 11.5824C11.3994 11.6272 11.4187 11.6727 11.4385 11.7186C11.7663 12.4791 12.2541 13.4446 12.852 14.0425C13.4499 14.6403 14.4154 15.1282 15.1759 15.456C15.2245 15.4769 15.2726 15.4973 15.32 15.5172C15.2726 15.537 15.2245 15.5575 15.1759 15.5784C14.4154 15.9062 13.4499 16.394 12.852 16.9919C12.2541 17.5898 11.7663 18.5553 11.4385 19.3158C11.4176 19.3644 11.3971 19.4125 11.3773 19.4599C11.3574 19.4125 11.337 19.3644 11.3161 19.3158C10.9883 18.5553 10.5004 17.5898 9.90256 16.9919C9.30469 16.394 8.33918 15.9062 7.57865 15.5784C7.53276 15.5586 7.48734 15.5393 7.44251 15.5205C7.483 15.5036 7.52397 15.4863 7.56535 15.4686C8.32446 15.1437 9.28894 14.6561 9.90256 14.0425C10.5162 13.4288 11.0038 12.4644 11.3287 11.7053C11.3464 11.6639 11.3637 11.6229 11.3806 11.5824Z" stroke="white"/>
<mask id="path-3-inside-1" fill="white">
<path d="M16.3965 18.2981C16.3965 18.2981 18.3699 17.7013 19.2357 16.8354C20.1015 15.9696 20.6983 13.9962 20.6983 13.9962C20.6983 13.9962 21.3209 15.9955 22.1609 16.8354C23.0009 17.6754 25.0001 18.2981 25.0001 18.2981C25.0001 18.2981 23.0009 18.9207 22.1609 19.7607C21.3209 20.6007 20.6983 22.5999 20.6983 22.5999C20.6983 22.5999 20.0757 20.6007 19.2357 19.7607C18.3957 18.9207 16.3965 18.2981 16.3965 18.2981Z"/>
</mask>
<path d="M16.3965 18.2981L16.107 17.3409L12.9884 18.284L16.0991 19.2528L16.3965 18.2981ZM20.6983 13.9962L21.6531 13.6989L20.6843 10.5881L19.7411 13.7068L20.6983 13.9962ZM25.0001 18.2981L25.2975 19.2528L28.3631 18.2981L25.2975 17.3433L25.0001 18.2981ZM20.6983 22.5999L19.7435 22.8972L20.6983 25.9629L21.6531 22.8972L20.6983 22.5999ZM20.6983 22.5999C21.6531 22.3025 21.653 22.3024 21.653 22.3023C21.653 22.3022 21.6529 22.3021 21.6529 22.302C21.6528 22.3017 21.6527 22.3015 21.6527 22.3012C21.6525 22.3006 21.6523 22.2999 21.652 22.2991C21.6515 22.2975 21.6508 22.2953 21.65 22.2928C21.6484 22.2876 21.6461 22.2805 21.6433 22.2716C21.6376 22.2539 21.6295 22.229 21.6191 22.1977C21.5984 22.1351 21.5683 22.0466 21.5298 21.9386C21.4531 21.7233 21.3412 21.4264 21.2003 21.0995C20.9358 20.4856 20.5085 19.6193 19.9428 19.0536L18.5286 20.4678C18.8028 20.742 19.1069 21.2953 19.3637 21.8911C19.4834 22.169 19.5797 22.4244 19.646 22.6102C19.6789 22.7027 19.7041 22.777 19.7207 22.827C19.729 22.852 19.7351 22.8709 19.739 22.8828C19.7409 22.8888 19.7422 22.8931 19.743 22.8955C19.7434 22.8967 19.7436 22.8975 19.7437 22.8978C19.7438 22.8979 19.7438 22.898 19.7437 22.8979C19.7437 22.8978 19.7437 22.8977 19.7437 22.8976C19.7437 22.8976 19.7436 22.8975 19.7436 22.8975C19.7436 22.8974 19.7435 22.8972 20.6983 22.5999ZM19.9428 19.0536C19.377 18.4878 18.5107 18.0606 17.8969 17.796C17.57 17.6552 17.2731 17.5433 17.0578 17.4665C16.9498 17.428 16.8613 17.398 16.7987 17.3773C16.7674 17.3669 16.7425 17.3588 16.7247 17.3531C16.7159 17.3503 16.7088 17.348 16.7036 17.3464C16.701 17.3456 16.6989 17.3449 16.6973 17.3444C16.6965 17.3441 16.6958 17.3439 16.6952 17.3437C16.6949 17.3436 16.6946 17.3436 16.6944 17.3435C16.6943 17.3434 16.6942 17.3434 16.6941 17.3434C16.694 17.3433 16.6938 17.3433 16.3965 18.2981C16.0991 19.2528 16.099 19.2528 16.0989 19.2528C16.0989 19.2528 16.0988 19.2527 16.0987 19.2527C16.0986 19.2527 16.0986 19.2527 16.0985 19.2526C16.0984 19.2526 16.0984 19.2526 16.0986 19.2527C16.0989 19.2528 16.0996 19.253 16.1009 19.2534C16.1033 19.2542 16.1076 19.2555 16.1135 19.2574C16.1255 19.2613 16.1444 19.2674 16.1694 19.2757C16.2194 19.2922 16.2937 19.3174 16.3862 19.3504C16.572 19.4167 16.8274 19.5129 17.1053 19.6327C17.7011 19.8895 18.2543 20.1936 18.5286 20.4678L19.9428 19.0536ZM25.0001 18.2981C24.7028 17.3433 24.7027 17.3433 24.7025 17.3434C24.7025 17.3434 24.7023 17.3434 24.7022 17.3435C24.702 17.3436 24.7017 17.3436 24.7014 17.3437C24.7009 17.3439 24.7002 17.3441 24.6993 17.3444C24.6977 17.3449 24.6956 17.3456 24.693 17.3464C24.6878 17.348 24.6807 17.3503 24.6719 17.3531C24.6542 17.3588 24.6292 17.3669 24.5979 17.3773C24.5353 17.398 24.4469 17.428 24.3388 17.4665C24.1235 17.5433 23.8266 17.6552 23.4997 17.796C22.8859 18.0606 22.0196 18.4878 21.4538 19.0536L22.868 20.4678C23.1423 20.1936 23.6956 19.8895 24.2913 19.6327C24.5692 19.5129 24.8246 19.4167 25.0104 19.3504C25.1029 19.3174 25.1772 19.2922 25.2273 19.2757C25.2522 19.2674 25.2711 19.2613 25.2831 19.2574C25.2891 19.2555 25.2933 19.2542 25.2958 19.2534C25.297 19.253 25.2977 19.2528 25.298 19.2527C25.2982 19.2526 25.2982 19.2526 25.2981 19.2526C25.2981 19.2527 25.298 19.2527 25.2979 19.2527C25.2978 19.2527 25.2977 19.2528 25.2977 19.2528C25.2976 19.2528 25.2975 19.2528 25.0001 18.2981ZM21.4538 19.0536C20.8881 19.6193 20.4608 20.4856 20.1963 21.0995C20.0554 21.4264 19.9435 21.7233 19.8668 21.9386C19.8283 22.0466 19.7983 22.1351 19.7775 22.1977C19.7671 22.229 19.759 22.2539 19.7533 22.2716C19.7505 22.2805 19.7483 22.2876 19.7466 22.2928C19.7458 22.2953 19.7451 22.2975 19.7446 22.2991C19.7444 22.2999 19.7441 22.3006 19.744 22.3012C19.7439 22.3015 19.7438 22.3017 19.7437 22.302C19.7437 22.3021 19.7436 22.3022 19.7436 22.3023C19.7436 22.3024 19.7435 22.3025 20.6983 22.5999C21.6531 22.8972 21.653 22.8974 21.653 22.8975C21.653 22.8975 21.653 22.8976 21.653 22.8976C21.6529 22.8977 21.6529 22.8978 21.6529 22.8979C21.6529 22.898 21.6529 22.8979 21.6529 22.8978C21.653 22.8975 21.6532 22.8967 21.6536 22.8955C21.6544 22.8931 21.6557 22.8888 21.6577 22.8828C21.6615 22.8709 21.6676 22.852 21.6759 22.827C21.6925 22.777 21.7177 22.7027 21.7507 22.6102C21.8169 22.4244 21.9132 22.169 22.033 21.8911C22.2897 21.2953 22.5938 20.742 22.868 20.4678L21.4538 19.0536ZM20.6983 13.9962C19.7435 14.2936 19.7436 14.2937 19.7436 14.2939C19.7436 14.2939 19.7437 14.2941 19.7437 14.2942C19.7438 14.2944 19.7439 14.2947 19.744 14.2949C19.7441 14.2955 19.7444 14.2962 19.7446 14.297C19.7451 14.2987 19.7458 14.3008 19.7466 14.3034C19.7483 14.3086 19.7505 14.3156 19.7533 14.3245C19.759 14.3422 19.7671 14.3671 19.7775 14.3984C19.7982 14.461 19.8283 14.5495 19.8668 14.6575C19.9435 14.8728 20.0554 15.1698 20.1963 15.4966C20.4608 16.1105 20.8881 16.9768 21.4538 17.5426L22.868 16.1283C22.5938 15.8541 22.2897 15.3008 22.033 14.7051C21.9132 14.4271 21.8169 14.1718 21.7507 13.9859C21.7177 13.8934 21.6925 13.8191 21.6759 13.7691C21.6676 13.7441 21.6615 13.7253 21.6577 13.7133C21.6557 13.7073 21.6544 13.7031 21.6536 13.7006C21.6532 13.6994 21.653 13.6986 21.6529 13.6984C21.6529 13.6982 21.6529 13.6982 21.6529 13.6983C21.6529 13.6983 21.6529 13.6984 21.653 13.6985C21.653 13.6985 21.653 13.6986 21.653 13.6987C21.653 13.6988 21.6531 13.6989 20.6983 13.9962ZM21.4538 17.5426C22.0196 18.1083 22.8859 18.5355 23.4997 18.8001C23.8266 18.941 24.1235 19.0528 24.3388 19.1296C24.4469 19.1681 24.5353 19.1981 24.5979 19.2189C24.6292 19.2293 24.6542 19.2373 24.6719 19.243C24.6807 19.2459 24.6878 19.2481 24.693 19.2498C24.6956 19.2506 24.6977 19.2512 24.6993 19.2518C24.7002 19.252 24.7009 19.2522 24.7014 19.2524C24.7017 19.2525 24.702 19.2526 24.7022 19.2527C24.7023 19.2527 24.7025 19.2527 24.7025 19.2527C24.7027 19.2528 24.7028 19.2528 25.0001 18.2981C25.2975 17.3433 25.2976 17.3433 25.2977 17.3434C25.2977 17.3434 25.2978 17.3434 25.2979 17.3434C25.298 17.3435 25.2981 17.3435 25.2981 17.3435C25.2982 17.3435 25.2982 17.3435 25.298 17.3435C25.2977 17.3434 25.297 17.3431 25.2958 17.3427C25.2933 17.342 25.2891 17.3406 25.2831 17.3387C25.2711 17.3349 25.2522 17.3288 25.2273 17.3205C25.1772 17.3039 25.1029 17.2787 25.0104 17.2457C24.8246 17.1795 24.5692 17.0832 24.2913 16.9634C23.6956 16.7066 23.1423 16.4026 22.868 16.1283L21.4538 17.5426ZM16.3965 18.2981C16.686 19.2553 16.6861 19.2552 16.6862 19.2552C16.6863 19.2551 16.6865 19.2551 16.6866 19.2551C16.6868 19.255 16.6871 19.2549 16.6874 19.2548C16.688 19.2546 16.6887 19.2544 16.6895 19.2542C16.6912 19.2537 16.6933 19.253 16.6959 19.2522C16.7012 19.2506 16.7082 19.2484 16.7171 19.2456C16.7348 19.2401 16.7597 19.2322 16.7909 19.2222C16.8532 19.202 16.9412 19.1728 17.0487 19.1352C17.2628 19.0602 17.5584 18.9505 17.8848 18.8108C18.5007 18.5473 19.3649 18.1204 19.9428 17.5426L18.5286 16.1283C18.2406 16.4163 17.6853 16.7208 17.098 16.9721C16.8228 17.0898 16.5709 17.1834 16.388 17.2474C16.297 17.2793 16.224 17.3035 16.1751 17.3193C16.1506 17.3272 16.1322 17.333 16.1206 17.3367C16.1148 17.3385 16.1107 17.3397 16.1084 17.3404C16.1073 17.3408 16.1066 17.341 16.1063 17.3411C16.1062 17.3411 16.1062 17.3411 16.1063 17.3411C16.1064 17.3411 16.1065 17.341 16.1066 17.341C16.1066 17.341 16.1067 17.341 16.1068 17.341C16.1069 17.3409 16.107 17.3409 16.3965 18.2981ZM19.9428 17.5426C20.5207 16.9647 20.9475 16.1004 21.211 15.4846C21.3507 15.1582 21.4605 14.8626 21.5354 14.6484C21.573 14.5409 21.6022 14.453 21.6224 14.3906C21.6325 14.3594 21.6403 14.3346 21.6459 14.3169C21.6487 14.308 21.6508 14.3009 21.6524 14.2957C21.6533 14.2931 21.6539 14.2909 21.6544 14.2893C21.6547 14.2884 21.6549 14.2877 21.6551 14.2871C21.6552 14.2868 21.6552 14.2866 21.6553 14.2863C21.6553 14.2862 21.6554 14.2861 21.6554 14.286C21.6555 14.2859 21.6555 14.2857 20.6983 13.9962C19.7411 13.7068 19.7412 13.7066 19.7412 13.7065C19.7412 13.7065 19.7412 13.7064 19.7413 13.7063C19.7413 13.7062 19.7413 13.7061 19.7413 13.7061C19.7414 13.706 19.7414 13.706 19.7413 13.7061C19.7413 13.7063 19.741 13.707 19.7407 13.7082C19.74 13.7105 19.7387 13.7146 19.7369 13.7204C19.7333 13.732 19.7275 13.7504 19.7196 13.7748C19.7037 13.8238 19.6795 13.8967 19.6477 13.9878C19.5837 14.1707 19.4901 14.4226 19.3723 14.6977C19.121 15.285 18.8166 15.8404 18.5286 16.1283L19.9428 17.5426Z" fill="white" mask="url(#path-3-inside-1)"/>
<path d="M19.6745 10.2263C19.2797 10.4162 18.8429 10.6679 18.5411 10.9698C18.2392 11.2716 17.9875 11.7084 17.7977 12.1032C17.6078 11.7084 17.3561 11.2716 17.0542 10.9698C16.7535 10.669 16.3189 10.4181 15.9253 10.2285C16.3169 10.0397 16.7485 9.78867 17.0542 9.48294C17.36 9.17721 17.611 8.74559 17.7998 8.35401C17.9894 8.74763 18.2404 9.18222 18.5411 9.48294C18.8429 9.78481 19.2797 10.0365 19.6745 10.2263Z" stroke="white"/>
</svg>
