<svg xmlns="http://www.w3.org/2000/svg" xmlns:xlink="http://www.w3.org/1999/xlink" width="705" height="252" viewBox="0 0 705 252"><defs><style>.a{fill:#ffd0d2;}.b{opacity:0.25;clip-path:url(#a);}.c{fill:#ffebed;}.d{fill:#faadb2;}.e{fill:#fff;}</style><clipPath id="a"><rect class="a" width="705" height="252" transform="translate(-105 154)"/></clipPath></defs><g class="b" transform="translate(105 -154)"><g transform="matrix(0.259, 0.966, -0.966, 0.259, 82.235, 100.784)"><g transform="translate(-214.972 -16.122)"><path class="c" d="M29.358,499.166c2.076-4.133,5.614-6.207,10.053-7.639a27.529,27.529,0,0,0,13.7-9.282c2.883-3.623,8.309-5.318,12.554-7.947,7.3-4.523,14.722-8.895,21.807-13.724,7.2-4.911,14.135-10.211,21.05-15.508,4.494-3.444,8.687-7.255,13.129-10.768,2.28-1.8,4.88-3.221,7.2-4.98,1.866-1.414,3.423-3.216,5.306-4.605,3.859-2.85,7.494-6.427,11.873-8.055,4.845-1.8,7.659-4.877,10.725-8.51,2.58-3.056,6.732-4.811,9.643-7.665,7.737-7.585,15.46-15.217,22.658-23.276A271.419,271.419,0,0,0,208.448,353.2c4.612-6.529,7.844-13.962,11.946-20.848a93.942,93.942,0,0,1,11.212-15.522c2.212-.6,4.992-.585,6.51-1.923,2.456-2.167,1.573-4.563-1.49-6.028a1.341,1.341,0,0,1-.361-1.287c2.359-4.545,4.579-9.18,7.292-13.523,1.418-2.269,4.673-3.708,5.473-6.046,2.684-7.845,8.193-14.6,8.859-23.284.29-3.778,2.514-7.439,4-11.1.839-2.067,1.041-2.827-1.471-4.561-1.62-1.118-.816-6.409-.111-9.626,1.047-4.777,2.972-9.371,4.515-14.047.349-1.059.58-2.161,1.006-3.189,3.65-8.8,7.4-17.565,10.971-26.4,1.59-3.937,2.388-8.226,4.351-11.955,1.562-2.969,4.747-5.1,6.507-8.009,3.889-6.418,6.989-13.3,11.05-19.6,4.633-7.192,9.92-13.991,15.012-20.9,1.563-2.12,1.554-4,1.538-6.685-.029-4.654,2.635-9.37,4.413-13.972,1.327-3.434,3.059-6.719,4.562-10.091.507-1.136.746-2.393,1.313-3.494,3.641-7.066,7.541-14.014,10.927-21.191,1.53-3.242,2.179-6.9,3.045-10.408,2.8-11.383,9.9-20.656,16.075-30.316,4.273-6.683,9.459-12.826,14.361-19.119,4.208-5.4,8.671-10.616,12.821-16.057.693-.908.363-2.551.5-3.854-1.362.011-3.117-.5-4.014.131-2.858,2.014-5.4,4.454-8.942,6.122.956-1.473,1.668-3.186,2.909-4.38C378.76-3.27,384.284-8.612,390.16-13.55c1.817-1.526,5.572-3.165,6.977-2.358,2.4,1.381,3.65,4.652,5.381,7.129l-1.231.713,4.808-.3.748,1.155c-7.287.055-3.223,5.654-5.709,9.108L424.1-3.494q.486.8.974,1.6a74.616,74.616,0,0,0-4.952,6.554c-.607.994-.292,2.516-.492,4.972l11.557-8.5c6.1,2.09,8.582-3.726,12.948-7.488-2.277,3.9-3.841,7.659,1.691,9.335.753.228,2.379-2.261,4.249-4.146-.368,2.228-.7,4.216-1.121,6.776,7.572-.916,10.131-7.194,15.45-11a22.283,22.283,0,0,1-.709,3.022c-.47,1.242-1.137,2.414-1.718,3.617,1.443.647,3.036,2.032,4.3,1.791,2.725-.521,5.28-1.876,7.849-2.87-1,1.642-3.21,3.69-3.145,5.668.056,1.724,2.682,3.369,4.245,5.131,2.673-2.093,4.951-4.092,7.467-5.751,1.157-.763,2.852-.71,4.174-1.3a11.784,11.784,0,0,0,3.841-2.41c1.154-1.237,1.834-2.891,3.417-5.523L490.55,13.1l9.054,3.076c-.227,1.451-.644,4.108-1.061,6.765l2.006,1.037,7.709-7.077,1.279,3.089,8.342-3.545c-.329.728-.572,2.309-1.514,3.164-4.305,3.908-.145,6.544,1.483,9.469a6.274,6.274,0,0,0,3.59-1.247c2.272-2.448,4.183-5.211,7.232-7.428-.593,3.527-1.185,7.054-1.918,11.422L530.8,26.29c1.644,3.289,3.3,5.955,4.269,8.836.423,1.259-.743,2.95-.846,4.468a41.482,41.482,0,0,0,.252,5.176l1.373.366,6.971-7.025c-.241,6.359-.442,11.63-.672,17.7,3.139-3.164,5.959-5.919,8.642-8.795a2.383,2.383,0,0,0,.374-2.215c-2.254-3.935.43-6.41,2.366-9.127l1.465.078c-.136,1.917.1,3.952-.486,5.727-1.3,3.923-3.252,7.65-4.464,11.593-.483,1.571.284,3.5.482,5.272,1.676-.687,3.38-1.319,5.016-2.086a16.084,16.084,0,0,0,2.318-1.732c.406,3.423.737,6.481,1.144,9.529.183,1.366.517,2.712.783,4.067,1.856-.788,3.769-1.477,5.531-2.429.488-.264.527-1.31,1.8-1.655-.832,1.939-1.989,3.814-2.407,5.834-.481,2.322-.982,5.013-.195,7.086.585,1.543,4.2,3.655,4.745,3.263,1.943-1.4,3.273-3.683,4.6-5.775,1-1.585,1.636-3.386,3.079-4.849-.531,6.811-7.378,11.939-4.833,19.982l5.6-3.988c1.009,2.181,2.1,4.544,3.072,6.639l8.04-.529c-2.32,7.439-1.733,10.952,1.764,11.406.085,5.735-6.039,10.605-2.733,17.237l3.21-1.938c-.249,1.737-.471,3.291-.611,4.265,6.349,3.724,5.77-3.945,9.683-4.29-.241,2.383-.435,4.473-.674,6.559-.073.633-.068,1.628-.444,1.82-3.871,1.976-5.271,4.088-2.079,8.1.722.907-1.715,4-2.349,6.185-.289.993.273,2.219.45,3.34,1.3-.311,2.91-.262,3.83-1.011,1.748-1.425,3.013-3.391,4.648-4.965a17.57,17.57,0,0,1,2.88-2.006c1.116-4.13,2.2-8.141,3.4-12.589,3.545,7.54,3.429,7.508.941,16.011-.715,2.443-.547,5.129-.816,8.056l4.2-4.229c5.486,4.253,3.161,10.413,4.826,15.466-6.349,1.771-6.431,6.06-5.18,9.755l-12.882,15.859c-.779-1.65-1.225-4.56-4.681-1.642-.936.791-2.795.554-5.382.977,1.407-1.745,2.646-2.772,2.465-3.134-2.19-4.394,2.852-4.7,4.294-6.94.757-1.174,3.335-1.377,5.149-1.75,4.875-1,3.547-3.88,2.238-7.779l-5.9,5.34c2.4-4.2,1.994-9.5,6.378-12.827.976-.74-.749-4.831-1.23-7.379l-1.966-.051c-.757,1.1-1.508,2.2-2.275,3.289-1.16,1.649-2.279,3.328-3.51,4.926-2.587,3.36-5.573,6.49-7.675,10.108-.726,1.25.683,3.667,1.255,6.156l-2.676,4.041-1.081-.807c-.545.683-1.533,1.368-1.528,2.047.006.895.792,1.784,1.414,3.018-8-1.282-4.2,8.065-9.555,8.867l2.348-.2c-.3,1.552-.593,3.1-1.033,5.413l3.114,4.029c-3.224,5.468-6.851,10.777-9.511,16.508-1.2,2.588-.482,6.015-.653,9.461l-8.351,15.038-.854-.161c1.321-3.862,2.606-7.736,3.982-11.579.533-1.487,1.533-2.849,1.869-4.362.76-3.426-.387-7.11,2.8-10.21,1.68-1.636.567-3.966-2.35-4.418,3.873-1.258,8.15-7.563,7.319-11.329-.181-.823-1.954-1.315-2.993-1.959-1.531,2.6-7.029,3.033-4.453,7.963.424.812-.684,2.284-.746,3.469-.031.6.7,1.228,1.08,1.844l-4.829,10.445c-4.34-2.648-4.85-2.04-6.814,3.265-2.391,6.455-5.862,12.525-8.581,18.876-2.811,6.567-7.441,12.456-8.114,19.805-.092,1.005.87,2.2,1.574,3.143a10.72,10.72,0,0,0,2.158,1.733c-.707.585-1.32,1.446-2.136,1.709-5.164,1.659-7.889,4.47-9.023,10.207-1.276,6.453-4.971,12.443-7.472,18.688-.59,1.473-.608,3.16-1,5.377l6.352-1.726c-2.729,3.057-2.907,8.406-8.468,8.053-.545-.035-1.4,2.2-1.847,3.473-1.3,3.688-3.759,7.559-3.354,11.1.476,4.161-1.034,5.922-3.541,8.757s-2.988,7.371-4.264,10.908l-3.027-.848c-.314,1.118-1.028,2.292-.872,3.344.555,3.744,1.406,7.447,2.358,12.237,1.148-1.592,2.283-3.06,3.3-4.6,1.273-1.926,2.451-3.912,3.67-5.872l1.376.678c-.386,1.326-.773,2.652-1.253,4.3,1.347.36,2.409.649,3.474.927,5.459,1.429,6.657,5.466,2.615,9.233-2.508,2.337-5.252,4.435-7.753,6.527l-3.452-3.57c-.9,1.119-1.577,2.59-2.744,3.294-4.285,2.585-3.569,7.133-4.957,10.858-.295.793-1.327,1.3-1.861,2.041-1.415,1.97-2.742,4-4.1,6l5.35,2.339c-2.067,2.848-2.679,6.515-7.812,8.308-3.765,1.315-5.848,7.313-8.425,11.376-.2.312,1.639,1.837,2.6,2.871-3.346,16.557-14.42,30.61-22.924,45.883q.722-4.336,1.441-8.656l-1.562-1.159c-2.194,2.2-4.759,4.164-6.483,6.671-1.885,2.741-2.992,5.985-4.438,9.011l-1.545-.416,2.788,4.926c1.661-1.949,3.078-3.741,4.637-5.408,1.651-1.765,3.438-3.41,5.165-5.107a80.657,80.657,0,0,1-3.679,8.584c-1.337,2.378-.666,6.139-4.632,6.849l1.49,3.989c-3.14,3.768-5.7,8.518-9.708,11.313-9.871,6.884-16.391,16.562-24.3,25.086-5.974,6.435-12.456,12.427-18.444,18.852-2.8,3-4.741,6.745-7.488,9.8a29.349,29.349,0,0,1-7.42,6.13c-6.724,3.7-13.249,7.478-17.438,14.1a3.229,3.229,0,0,1-1.961,1.3c-5.026.836-7.229,4.7-9.169,8.452-1.809,3.5-4.292,5.276-8.24,5.38-4.948.131-5.539,4.882-8.168,7.456-1.22,1.2-1.886,2.923-2.747,4.318l17.56-6.219.389.822L316.06,615.3l-.974-1.247c2.346-1.741,4.625-3.577,7.056-5.2,2.711-1.808,6.905-2.383,5.567-7.275-7.033-1.181-10.875,5.49-16.866,7.012-7.471,1.9-5.665,9.409-9.129,13.7,1.251,1.106,1.251,1.106,10.609-.9l.548,1.249-18.708,7.728c-1.718-1.6-3.3-3.325-3.468-3.2a60.327,60.327,0,0,0-5.214,4.52l.94,1.515,5.812-.428c-4.22,3.476-6.645,9.066-13.384,8.967-2.236-.033-4.468,1.477-6.754,2.1a13.807,13.807,0,0,1-4.035.395c-.205-.006-.74-1.792-.479-2a16.684,16.684,0,0,1,3.085-1.56c1.569-.784,3.12-1.6,4.679-2.406l-.514-1.494c-1.224-.18-2.865-.944-3.608-.447-6.8,4.55-13.5,9.242-20.043,14.13-.748.56-.344,2.572-.474,3.91l1.93,1.142c-2.9,1.362-5.824,2.661-8.679,4.1-5.141,2.589-10.37,5.05-15.324,7.947-7.708,4.508-15.259,9.273-22.791,14.057-3.653,2.32-6.836,5.51-10.734,7.242-3.713,1.65-8.237,1.5-12.124,2.887-5.988,2.132-11.748,4.87-17.583,7.4-4.273,1.853-8.619,3.591-12.725,5.752-2.732,1.438-5.094,3.535-7.628,5.329a29.811,29.811,0,0,1-4.343,2.991c-18.764,8.756-34.513,21.825-51.177,33.582-.515.364-1.236.983-1.214,1.454.352,7.586-6.681,9.885-10.806,14.205C72,768.232,65.276,773.164,60.829,779.6c-7.256,10.5-12.834,22.081-19.61,32.917-5.5,8.791-11.713,17.156-17.6,25.718a8.083,8.083,0,0,0-1.16,2.049c-2.6,8.307-5.3,16.586-7.674,24.952-3.9,13.743-7.48,27.571-11.4,41.307-1.086,3.8-2.908,7.407-4.408,11.14-3.089-1.589-4.849-.508-5,2.848-.212,4.68-4.976,5.009-7.393,7.565-2.019,2.136-4.792,3.945-5.932,6.454-3.336,7.342-4.186,7.764-11.769,4.535-1.128-.48-3.23.879-4.714,1.678-.514.277-.284,1.7-.807,2.143a38.41,38.41,0,0,1-4.151,2.753,39.973,39.973,0,0,1-.767-4.619c-.042-.715.868-1.534.728-2.18a3.192,3.192,0,0,0-1.562-2.152A2.914,2.914,0,0,0-45,937.38c-2.355,3.219-4.25,1.85-6.322-.259a14.242,14.242,0,0,0-3.127-2.3c-4.23-2.4-4.784-2.185-6.753,2.631-3.833-1.553-8.273-6.506-10.971,1.548-4.527-4.739-10.14-3.607-15.461-4-1.759-.131-3.433-1.344-5.725-2.3-7.218,3.657-6.554-7.362-12.8-7.2l-.767,1.984c-3.515-2.275-6.778-4.835-10.435-6.645-4.8-2.372-7.077,2.779-10.879,4.254-1.411-1.052-2.838-2.093-4.239-3.167-3.952-3.031-5.031-2.205-8.023,1.383a35.321,35.321,0,0,1-11.348,8.789c-3.452,1.69-7.878,2.1-11.835,1.976-1.975-.06-3.87-2.575-6.191-4.264-5.992,4.155-12.011-.152-18.25-1.247-.319-.056-.63-.3-.935-.279-8.257.454-11.088-5.526-14.094-11.23-5.29-10.038-7.3-20.888-9.148-31.93-1.733-10.383-3-20.719-2.6-31.2.3-7.89.776-15.8,1.746-23.634,2.353-19.014,5.789-37.843,12.6-55.91,6.018-15.969,11.872-32.017,18.631-47.692,3.324-7.708,8.815-14.51,12.812-21.979,3.814-7.128,7.012-14.569,10.347-21.929.487-1.076.226-2.47.366-4.542l-6.63,2.492c3.79-5.878,6.9-10.8,10.116-15.666,7.914-11.966,15.216-24.384,24-35.721,9.741-12.577,20.5-24.472,31.487-36.061,7.588-8,16.114-15.216,24.6-22.353,7.769-6.533,16.066-12.473,24.1-18.706,5.552-4.306,10.967-8.788,16.648-12.928,1.543-1.124,3.917-1.11,5.746-1.953a29.121,29.121,0,0,0,4.568-2.991c3.81-2.728,7.511-5.606,11.407-8.211,3.039-2.032,6.305-3.745,9.858-5.827.273,5.338,3.138,3.948,5.735,2.252,7-4.573,13.859-9.353,20.855-13.934,2.269-1.486,4.921-2.429,7.152-3.959,1.64-1.124,2.88-2.8,5.16-5.1l-7.053-.54ZM462.239,433.5l3.048-6.063c-3.122,3.525-9.289,4.2-9.617,10.18-.087,1.583-.71,5-4.623,3.258,1.285,4.412-1.063,5.41-4.546,4.731-.417,2.83-.044,5.77-1.306,7.712-2.5,3.853-5.974,7.105-8.878,10.731a4.659,4.659,0,0,0-.416,2.821,30.539,30.539,0,0,0,7.824,1.366c.707-.012,1.381-2.583,2.044-3.991.489-1.038.872-2.126,1.414-3.135,1.115-2.075,2.3-4.111,3.552-6.321,5.978,2.937,1.777-7.071,6.507-6.453a11.458,11.458,0,0,0,.078-3.409c-.175-.648-1.258-1.064-1.423-1.191,1.909-1.406,3.715-3.5,5.973-4.18,2.155-.653,4.781.157,6.9.3l-1.364,7.6c2.051-1.677,4.147-2.671,5.054-4.292A43.98,43.98,0,0,0,475.8,434.3c.3-.991-.2-2.207-.332-3.32-1.091.442-2.726.594-3.171,1.381-1.362,2.406-2.624,3.456-5.362,1.6C466.017,433.335,464.4,433.674,462.239,433.5ZM524.7,243.819c-7.308,6.551-7.866,16.679-11.987,25.173a2.186,2.186,0,0,0,.577,2.026c.419.35,1.838.359,2.043.044,2.492-3.819,5.666-7.477,7.015-11.674C523.971,254.331,524.017,248.794,524.7,243.819ZM424.636,484.971c3.518,1.492,4.812-.21,5.632-2.857.7-2.267,1.277-4.592,4.772-4.153.584.073,2.1-2.024,2.052-3.069-.089-1.913-1.023-3.789-1.606-5.682C431.655,470.591,424.823,480.5,424.636,484.971ZM525.577,271.617a62.173,62.173,0,0,0,4.136-5.892,3.6,3.6,0,0,0-.251-3.05c-.293-.505-1.693-.644-2.556-.56-4.785.464-6.6,3.223-6.278,7.578Zm12.684-22.58a18.355,18.355,0,0,0-1.913,1.973,8.628,8.628,0,0,0-1.424,2.686c-.082.275.967,1.256,1.221,1.167,1-.348,2.261-.779,2.735-1.57,1.544-2.572,2.785-5.317,4.532-8.764-3.195,1-5.926-4.123-8.129.808C535.02,245.926,536.922,247.428,538.261,249.037ZM423.328,488.475c-8.329,1.053-11.353,6.077-7.237,10.7ZM480.4,409.287c-1.9-.019-3.726-.536-4.965.073a14.315,14.315,0,0,0-4.286,3.92c-.256.308.455,1.916,1.1,2.283C474.16,416.638,480.22,412.038,480.4,409.287ZM491.8,375.149q-1.546,3.4-3.093,6.8c1.249.167,2.9.906,3.67.393C494.8,380.715,496.22,378.522,491.8,375.149Zm95.377-238.457c3.013-2.454,6.087-4.237,2.774-8.139C586.128,130.117,584.6,132.316,587.174,136.692ZM253.141,644.19c-2.6.65-4.27.609-5.065,1.4-.763.758-.617,2.378-.87,3.618,1.272.056,3.01.632,3.7.045C251.891,648.42,252.1,646.732,253.141,644.19ZM444.288,481.283a15.821,15.821,0,0,0-3.916,1.517,5.678,5.678,0,0,0-1.712,2.956c-.1.338,1.207,1.527,1.439,1.423a6.63,6.63,0,0,0,2.821-1.989A16.244,16.244,0,0,0,444.288,481.283ZM214.9,355.385l-5.752,4.413C215.128,361.639,216.075,361.024,214.9,355.385Zm228.39,120.347c5.008-.152,7.094-1.624,5.09-6.812Z" transform="translate(214.972 16.122)"/></g></g><path class="d" d="M785.266,1129.464c.541-.294,34.374-39.392,46.987-69.594s18.986-36.9,18.362-64.229-5.08-37.332-10.5-48.626-17.489-37.12-5.109-69.939S863.735,818.954,867.853,810s27.137-58.971,29.767-93.526,1.75-32.832,4.756-23.4,13.034,46.4,2.521,101.755-19.084,108.939-30.558,137.29-20.1,27.971-20.488,40.216a230.427,230.427,0,0,0,1.064,27.272c.389,5.431.13,10.38,1.84,7.6s17.768-31.635,26.394-42.5,18.288-22.251,17.483-44.831a119.336,119.336,0,0,1,20.46-71.216c15.593-22.842,30.047-34.192,42.2-59.985s22.56-49.278,24.606-57.2,3.5-15.622,4.833-11.429,4.393,49.918-1.407,84.614-18.205,75.079-38.358,100.5S911,937.239,899.236,952.394s-32.56,41.706-41.263,64.022-15.926,36.381-15.926,36.381-1.934,3.123,5.078-2.177c22.913-17.32,24.5-19.928,26.962-26.773s10.385-31.989,26.109-46.058,31.189-16.76,40.8-21.047,37.1-15.835,51.652-39.77,23.053-37.15,26.031-44.252,3.315-7.43,4.093-2.995-.23,40.77-14.164,77.573-38.646,59.992-64.809,72.973-48.053,16.611-57.042,16.09-9.419-1.837-19.113,3.335-30.935,22.139-34.3,28.631-22.716,36.822-28.648,45.068-10.594,15.38-12.77,16.139S781.821,1131.334,785.266,1129.464Z" transform="translate(1119.413 -488.682) rotate(104)"/><path class="d" d="M.856,1.053c.541.294,34.374,39.392,46.987,69.594s18.986,36.9,18.362,64.229-5.08,37.332-10.5,48.626S38.22,220.622,50.6,253.44s28.724,58.122,32.843,67.075,27.137,58.971,29.767,93.526,1.75,32.832,4.756,23.4,13.034-46.4,2.521-101.755S101.4,226.742,89.929,198.391s-20.1-27.971-20.488-40.216A230.427,230.427,0,0,1,70.5,130.9c.389-5.431.13-10.38,1.84-7.6s17.768,31.635,26.394,42.5,18.288,22.251,17.483,44.831a119.336,119.336,0,0,0,20.46,71.216c15.593,22.842,30.047,34.192,42.2,59.985s22.56,49.279,24.606,57.2,3.5,15.622,4.833,11.429,4.393-49.919-1.407-84.614-18.205-75.079-38.358-100.5-41.964-32.07-53.724-47.225S82.266,136.417,73.563,114.1,57.637,77.72,57.637,77.72,55.7,74.6,62.715,79.9c22.913,17.32,24.5,19.928,26.962,26.773s10.385,31.989,26.109,46.058,31.189,16.76,40.8,21.047,37.1,15.835,51.652,39.77,23.053,37.15,26.031,44.252,3.315,7.43,4.093,2.995-.23-40.77-14.164-77.573-38.646-59.992-64.809-72.973-48.053-16.611-57.042-16.09-9.419,1.837-19.113-3.335S52.3,68.68,48.932,62.188,26.215,25.366,20.284,17.12,9.69,1.74,7.513.981-2.589-.818.856,1.053Z" transform="translate(-793.859 730.905) rotate(-104)"/><g transform="matrix(0.966, -0.259, 0.259, 0.966, 50.139, 207.919)"><g transform="translate(0)"><path class="a" d="M476.739,372.149c-1.678,3.445-4.539,5.173-8.129,6.367a22.244,22.244,0,0,0-11.077,7.737c-2.331,3.019-6.719,4.433-10.151,6.624-5.906,3.77-11.9,7.414-17.633,11.439-5.826,4.093-11.43,8.511-17.021,12.926-3.634,2.87-7.025,6.047-10.616,8.975-1.843,1.5-3.946,2.684-5.822,4.151-1.508,1.179-2.768,2.68-4.29,3.839-3.121,2.375-6.06,5.357-9.6,6.714-3.918,1.5-6.193,4.065-8.672,7.093-2.086,2.547-5.444,4.01-7.8,6.389-6.256,6.322-12.5,12.683-18.322,19.4a225.093,225.093,0,0,0-15.682,20.008c-3.73,5.442-6.343,11.637-9.66,17.376a78.27,78.27,0,0,1-9.066,12.938c-1.789.5-4.037.488-5.264,1.6-1.986,1.806-1.272,3.8,1.205,5.024a1.141,1.141,0,0,1,.292,1.073c-1.908,3.788-3.7,7.651-5.9,11.271-1.146,1.892-3.779,3.091-4.425,5.039-2.171,6.538-6.625,12.168-7.164,19.407-.234,3.149-2.033,6.2-3.234,9.252-.678,1.723-.841,2.356,1.189,3.8,1.31.932.66,5.342.09,8.023-.846,3.981-2.4,7.811-3.651,11.708-.282.883-.469,1.8-.813,2.658-2.951,7.337-5.987,14.64-8.871,22-1.285,3.282-1.931,6.856-3.518,9.965-1.263,2.474-3.838,4.253-5.262,6.676-3.144,5.35-5.651,11.084-8.935,16.338-3.746,5.994-8.021,11.661-12.139,17.419-1.264,1.767-1.257,3.331-1.243,5.572.023,3.879-2.131,7.81-3.569,11.645-1.073,2.862-2.473,5.6-3.689,8.411-.41.947-.6,1.994-1.062,2.912-2.944,5.889-6.1,11.68-8.835,17.662a47.006,47.006,0,0,0-2.462,8.675c-2.268,9.487-8,17.217-13,25.268-3.455,5.57-7.648,10.69-11.612,15.935-3.4,4.5-7.012,8.848-10.367,13.383-.56.757-.293,2.126-.408,3.212,1.1-.009,2.52.418,3.246-.109,2.311-1.678,4.364-3.712,7.231-5.1a19.687,19.687,0,0,1-2.352,3.651c-4.471,4.429-8.937,8.881-13.689,13-1.469,1.272-4.506,2.638-5.641,1.965-1.942-1.151-2.951-3.877-4.352-5.942l1-.595-3.888.251-.6-.962c5.893-.046,2.606-4.712,4.617-7.591l-18.572,4.492-.787-1.337a62.066,62.066,0,0,0,4-5.463c.491-.828.236-2.1.4-4.144l-9.345,7.082c-4.932-1.742-6.94,3.105-10.47,6.241,1.841-3.253,3.106-6.384-1.368-7.78-.609-.19-1.924,1.885-3.436,3.456.3-1.857.564-3.514.906-5.647-6.123.764-8.192,6-12.493,9.171a19.063,19.063,0,0,1,.573-2.518c.38-1.035.919-2.012,1.39-3.014-1.167-.54-2.455-1.693-3.476-1.493a37.221,37.221,0,0,0-6.347,2.392c.805-1.369,2.6-3.076,2.543-4.724-.045-1.437-2.169-2.808-3.432-4.277-2.161,1.744-4,3.41-6.038,4.793-.936.636-2.306.592-3.375,1.082a9.493,9.493,0,0,0-3.106,2.009c-.933,1.031-1.483,2.409-2.763,4.6l2.891-14.263-7.321-2.564c.184-1.21.521-3.424.858-5.638l-1.622-.864-6.234,5.9-1.034-2.574-6.745,2.955a6.986,6.986,0,0,1,1.225-2.637c3.481-3.257.117-5.455-1.2-7.892A4.972,4.972,0,0,0,78.84,765c-1.838,2.04-3.383,4.343-5.848,6.191.479-2.94.958-5.879,1.551-9.52l-3.274,4.613a62.922,62.922,0,0,1-3.452-7.365c-.342-1.05.6-2.459.684-3.724a35.627,35.627,0,0,0-.2-4.314l-1.111-.3-5.636,5.856c.2-5.3.357-9.693.544-14.752-2.538,2.637-4.818,4.933-6.988,7.33a2.036,2.036,0,0,0-.3,1.846c1.823,3.28-.347,5.343-1.913,7.607l-1.184-.065a20.449,20.449,0,0,1,.393-4.774c1.054-3.27,2.629-6.376,3.61-9.663.391-1.31-.229-2.921-.39-4.394-1.355.572-2.733,1.1-4.056,1.739a13.038,13.038,0,0,0-1.874,1.444c-.328-2.853-.6-5.4-.925-7.942-.148-1.138-.418-2.26-.633-3.39-1.5.657-3.048,1.231-4.472,2.024-.394.22-.426,1.092-1.458,1.379a27.306,27.306,0,0,0,1.947-4.862c.389-1.935.794-4.178.158-5.906-.473-1.286-3.4-3.047-3.837-2.72-1.571,1.165-2.647,3.07-3.716,4.813a21.061,21.061,0,0,1-2.49,4.042c.429-5.677,5.966-9.951,3.908-16.655l-4.529,3.324-2.484-5.533-6.5.441c1.876-6.2,1.4-9.128-1.426-9.507-.069-4.78,4.883-8.839,2.21-14.367l-2.6,1.615c.2-1.448.381-2.743.494-3.555-5.134-3.1-4.666,3.288-7.829,3.576.195-1.986.351-3.729.545-5.467.059-.528.055-1.357.359-1.517,3.13-1.647,4.262-3.407,1.681-6.75-.584-.756,1.387-3.336,1.9-5.155.233-.828-.221-1.849-.364-2.784-1.05.259-2.353.218-3.1.842-1.413,1.187-2.436,2.826-3.759,4.138a14.2,14.2,0,0,1-2.329,1.672c-.9,3.443-1.779,6.786-2.75,10.493-2.867-6.285-2.773-6.258-.761-13.345.578-2.036.442-4.275.66-6.715L3.9,668.467c-4.436-3.545-2.556-8.679-3.9-12.891,5.133-1.476,5.2-5.051,4.189-8.131l10.416-13.218c.63,1.375.991,3.8,3.785,1.369.757-.659,2.26-.461,4.352-.814-1.138,1.454-2.139,2.311-1.994,2.612,1.771,3.662-2.306,3.921-3.472,5.784-.612.979-2.7,1.148-4.164,1.458-3.942.835-2.868,3.234-1.81,6.483l4.774-4.451c-1.939,3.5-1.612,7.918-5.157,10.691-.789.617.606,4.026.995,6.15l1.59.042c.612-.914,1.219-1.832,1.839-2.741.938-1.374,1.842-2.774,2.838-4.106,2.092-2.8,4.506-5.41,6.206-8.425.587-1.042-.552-3.056-1.015-5.131l2.164-3.368.874.672c.441-.569,1.239-1.14,1.236-1.706,0-.746-.64-1.487-1.143-2.516,6.472,1.069,3.4-6.722,7.726-7.391l-1.9.169c.24-1.294.479-2.588.836-4.512l-2.518-3.358c2.607-4.557,5.539-8.983,7.691-13.759.971-2.157.39-5.013.528-7.885l6.753-12.534.69.134c-1.068,3.219-2.107,6.448-3.22,9.651a33.319,33.319,0,0,0-1.512,3.636c-.614,2.856.313,5.926-2.262,8.51-1.359,1.363-.458,3.306,1.9,3.682-3.132,1.049-6.59,6.3-5.919,9.442.147.686,1.58,1.1,2.42,1.633,1.238-2.163,5.684-2.528,3.6-6.637-.343-.676.553-1.9.6-2.891.025-.5-.563-1.024-.874-1.537l3.9-8.706c3.51,2.207,3.921,1.7,5.51-2.721,1.933-5.38,4.74-10.439,6.938-15.733,2.273-5.473,6.017-10.382,6.561-16.508.074-.838-.7-1.832-1.273-2.62a8.72,8.72,0,0,0-1.745-1.444c.572-.488,1.067-1.205,1.728-1.424,4.176-1.383,6.379-3.726,7.3-8.507,1.032-5.378,4.02-10.371,6.042-15.576a25.683,25.683,0,0,0,.809-4.482L71.682,536.3c2.207-2.548,2.351-7.007,6.848-6.712.441.029,1.131-1.836,1.494-2.9,1.053-3.074,3.039-6.3,2.712-9.252-.385-3.468.836-4.936,2.863-7.3s2.416-6.144,3.448-9.092l2.448.707c.254-.932.831-1.91.705-2.788-.449-3.121-1.137-6.207-1.907-10.2-.929,1.327-1.846,2.551-2.669,3.835-1.029,1.606-1.982,3.261-2.967,4.894l-1.113-.565c.312-1.105.625-2.21,1.013-3.581-1.089-.3-1.948-.541-2.809-.773-4.414-1.191-5.383-4.556-2.115-7.7,2.028-1.948,4.247-3.7,6.269-5.44l2.792,2.976c.728-.933,1.275-2.159,2.219-2.745,3.465-2.154,2.886-5.945,4.009-9.05.238-.661,1.073-1.081,1.505-1.7,1.144-1.642,2.217-3.332,3.319-5l-4.326-1.95c1.671-2.374,2.167-5.43,6.317-6.924,3.044-1.1,4.729-6.095,6.812-9.482.16-.26-1.325-1.531-2.1-2.393,2.705-13.8,11.661-25.513,18.537-38.243q-.584,3.614-1.166,7.215l1.263.966c1.774-1.836,3.848-3.471,5.242-5.56,1.524-2.285,2.419-4.989,3.588-7.51l1.249.346-2.254-4.106c-1.343,1.624-2.489,3.118-3.75,4.507-1.335,1.471-2.78,2.842-4.176,4.257a68.348,68.348,0,0,1,2.975-7.154c1.081-1.982.538-5.117,3.745-5.709l-1.2-3.325c2.539-3.14,4.609-7.1,7.85-9.429,7.982-5.738,13.254-13.8,19.652-20.909,4.831-5.364,10.072-10.358,14.914-15.713,2.262-2.5,3.834-5.622,6.055-8.169a23.906,23.906,0,0,1,6-5.11c5.437-3.083,10.713-6.233,14.1-11.748a2.608,2.608,0,0,1,1.585-1.086c4.064-.7,5.845-3.915,7.414-7.044,1.463-2.917,3.471-4.4,6.663-4.484,4-.11,4.479-4.069,6.6-6.215a17.88,17.88,0,0,0,2.221-3.6l-14.2,5.184-.315-.685,35.867-24.5.787,1.04c-1.9,1.451-3.74,2.982-5.705,4.333-2.192,1.507-5.583,1.986-4.5,6.063,5.687.985,8.793-4.576,13.638-5.844,6.041-1.582,4.58-7.842,7.382-11.419-1.011-.922-1.011-.922-8.579.754l-.443-1.041,15.127-6.441a23.86,23.86,0,0,0,2.8,2.669,49.245,49.245,0,0,0,4.216-3.767l-.76-1.263-4.7.357c3.412-2.9,5.373-7.556,10.822-7.474,1.808.027,3.613-1.231,5.462-1.753a10.843,10.843,0,0,1,3.263-.329c.166.005.6,1.493.388,1.669a13.342,13.342,0,0,1-2.495,1.3c-1.269.654-2.523,1.336-3.783,2.006l.415,1.245c.99.15,2.317.787,2.917.372,5.5-3.792,10.917-7.7,16.207-11.777.605-.466.278-2.143.383-3.259l-1.561-.951c2.341-1.135,4.709-2.218,7.018-3.416,4.157-2.158,8.385-4.209,12.391-6.624,6.233-3.757,12.339-7.729,18.429-11.716,2.954-1.934,5.528-4.592,8.679-6.036,3-1.375,6.66-1.253,9.8-2.406,4.842-1.777,9.5-4.059,14.218-6.168,3.456-1.545,6.97-2.993,10.289-4.794a57.6,57.6,0,0,0,6.168-4.442,24.1,24.1,0,0,1,3.512-2.493c15.173-7.3,27.907-18.191,41.382-27.99.417-.3,1-.819.982-1.212-.285-6.323,5.4-8.239,8.738-11.84,4.459-4.813,9.893-8.924,13.489-14.289,5.867-8.754,10.378-18.4,15.856-27.436,4.444-7.327,9.471-14.3,14.23-21.436a6.8,6.8,0,0,0,.938-1.708c2.1-6.923,4.286-13.824,6.205-20.8,3.152-11.455,6.049-22.98,9.222-34.429a99.1,99.1,0,0,1,3.564-9.285c2.5,1.324,3.921.423,4.044-2.374.171-3.9,4.023-4.175,5.978-6.3,1.633-1.78,3.875-3.288,4.8-5.379,2.7-6.12,3.385-6.471,9.516-3.78.912.4,2.612-.732,3.812-1.4.415-.231.23-1.418.652-1.787A31,31,0,0,1,533.462,0a34.269,34.269,0,0,1,.62,3.85c.034.6-.7,1.279-.589,1.817a2.656,2.656,0,0,0,1.263,1.794,2.307,2.307,0,0,0,2.107-.557c1.9-2.683,3.436-1.542,5.112.216a11.542,11.542,0,0,0,2.528,1.92c3.42,2,3.868,1.821,5.461-2.193,3.1,1.295,6.69,5.423,8.871-1.29,3.66,3.95,8.2,3.006,12.5,3.336,1.422.11,2.776,1.12,4.63,1.921,5.836-3.048,5.3,6.137,10.348,6l.62-1.654a87.571,87.571,0,0,0,8.438,5.538c3.878,1.977,5.723-2.316,8.8-3.545,1.141.877,2.295,1.744,3.427,2.639,3.2,2.526,4.068,1.838,6.487-1.153a28.691,28.691,0,0,1,9.176-7.326,20.485,20.485,0,0,1,9.57-1.647c1.6.05,3.129,2.146,5.006,3.554,4.846-3.463,9.712.127,14.757,1.04.258.047.509.246.756.232,6.677-.378,8.966,4.606,11.4,9.36,4.278,8.367,5.907,17.409,7.4,26.613a132.143,132.143,0,0,1,2.105,26c-.24,6.576-.628,13.169-1.412,19.7-1.9,15.848-4.681,31.541-10.186,46.6-4.866,13.31-9.6,26.685-15.066,39.75-2.688,6.424-7.128,12.094-10.36,18.319-3.084,5.941-5.67,12.143-8.367,18.277-.393.9-.182,2.059-.3,3.786l5.361-2.077c-3.065,4.9-5.58,9.005-8.18,13.057-6.4,9.974-12.3,20.324-19.4,29.773-7.877,10.483-16.576,20.4-25.461,30.057a242.049,242.049,0,0,1-19.894,18.631c-6.282,5.445-12.991,10.4-19.49,15.591-4.49,3.589-8.868,7.325-13.461,10.775-1.248.937-3.167.925-4.646,1.627a23.491,23.491,0,0,0-3.693,2.493c-3.08,2.274-6.074,4.672-9.224,6.844-2.457,1.694-5.1,3.122-7.972,4.857-.221-4.449-2.538-3.291-4.637-1.877-5.661,3.811-11.207,7.8-16.864,11.613-1.835,1.238-3.979,2.025-5.783,3.3-1.326.937-2.329,2.333-4.173,4.248l5.7.45ZM126.708,426.878l-2.464,5.053c2.525-2.938,7.511-3.5,7.777-8.484.07-1.319.574-4.169,3.738-2.716-1.039-3.678.859-4.509,3.676-3.943.337-2.358.036-4.809,1.056-6.428,2.024-3.212,4.831-5.922,7.179-8.944a3.991,3.991,0,0,0,.336-2.351,24.028,24.028,0,0,0-6.326-1.138c-.572.01-1.117,2.153-1.653,3.327-.4.865-.705,1.772-1.143,2.613-.9,1.729-1.863,3.427-2.872,5.269-4.834-2.448-1.437,5.894-5.262,5.379a9.841,9.841,0,0,0-.063,2.841c.141.54,1.017.887,1.151.993-1.544,1.172-3,2.913-4.83,3.484-1.742.545-3.866-.131-5.581-.253l1.1-6.332c-1.658,1.4-3.353,2.226-4.086,3.577a37.366,37.366,0,0,0-2.7,7.389,7.7,7.7,0,0,0,.268,2.767c.882-.368,2.2-.5,2.564-1.151,1.1-2.005,2.122-2.881,4.336-1.331C123.653,427.019,124.959,426.737,126.708,426.878Zm-50.5,158.1c5.91-5.46,6.361-13.9,9.693-20.982a1.86,1.86,0,0,0-.466-1.689c-.339-.291-1.486-.3-1.652-.037-2.015,3.183-4.581,6.232-5.673,9.73C76.79,576.217,76.754,580.832,76.2,584.978Zm80.911-201c-2.845-1.244-3.891.175-4.554,2.382-.568,1.89-1.033,3.827-3.859,3.461-.472-.061-1.7,1.687-1.659,2.558a20.7,20.7,0,0,0,1.3,4.736C151.438,395.967,156.963,387.706,157.114,383.981ZM75.492,561.809a51.873,51.873,0,0,0-3.345,4.911,3.083,3.083,0,0,0,.2,2.542c.237.421,1.369.537,2.066.467,3.869-.387,5.341-2.686,5.076-6.316ZM65.236,580.63a15.094,15.094,0,0,0,1.547-1.644,7.267,7.267,0,0,0,1.151-2.238c.066-.229-.782-1.047-.987-.973a4.232,4.232,0,0,0-2.212,1.308c-1.249,2.144-2.252,4.431-3.665,7.305,2.583-.834,4.792,3.437,6.573-.673C67.856,583.222,66.318,581.97,65.236,580.63Zm92.936-199.569c6.735-.878,9.18-5.065,5.852-8.916Zm-46.153,66c1.534.016,3.013.447,4.015-.061a11.713,11.713,0,0,0,3.465-3.267c.207-.257-.368-1.6-.894-1.9C117.068,440.936,112.169,444.77,112.019,447.063Zm-9.212,28.454,2.5-5.664c-1.01-.139-2.349-.755-2.968-.328C100.379,470.877,99.23,472.7,102.807,475.517ZM25.684,674.268c-2.436,2.046-4.922,3.531-2.243,6.784C26.53,679.747,27.765,677.915,25.684,674.268Zm270.1-422.994c2.1-.542,3.453-.508,4.1-1.166.617-.632.5-1.982.7-3.016-1.028-.047-2.434-.527-2.994-.038C296.8,247.748,296.626,249.155,295.786,251.274ZM141.223,387.055a12.566,12.566,0,0,0,3.167-1.265,4.766,4.766,0,0,0,1.384-2.464c.081-.282-.976-1.273-1.164-1.186a5.366,5.366,0,0,0-2.281,1.658A13.818,13.818,0,0,0,141.223,387.055ZM326.708,491.989l4.651-3.678C326.524,486.777,325.758,487.29,326.708,491.989ZM142.029,391.681c-4.049.126-5.736,1.354-4.116,5.678Z"/></g></g><g transform="matrix(0.53, 0.848, -0.848, 0.53, 220.566, -2258.315)"><path class="c" d="M2454.919,1135.434c6.162,1.235,12.1-3.232,13.339-9.395a11.277,11.277,0,1,0-22.112-4.434C2444.912,1127.77,2448.755,1134.2,2454.919,1135.434Z" transform="translate(15.639 0)"/><path class="c" d="M2521.966,1180.991c6.163,1.236,12.389-3.586,13.625-9.748a11.468,11.468,0,0,0-8.977-13.444c-6.163-1.235-12.588,2.711-13.825,8.873S2515.8,1179.756,2521.966,1180.991Z" transform="translate(59.019 29.382)"/><path class="c" d="M2552.684,1168.2c-6.164-1.237-12.25,3.534-13.485,9.7s2.526,12.988,8.69,14.225,12.785-3.51,14.02-9.674S2558.846,1169.435,2552.684,1168.2Z" transform="translate(76.192 36.17)"/><path class="c" d="M2535.277,1229.5c1.235-6.164-2.437-11.262-8.6-12.5s-11.778,2-13.013,8.165a11.358,11.358,0,0,0,8.662,13.543C2528.489,1239.949,2534.041,1235.663,2535.277,1229.5Z" transform="translate(59.575 67.89)"/><path class="c" d="M2512.772,1167c1.235-6.162-3.064-13.114-9.228-14.349s-12.51,3.581-13.747,9.745a11.5,11.5,0,0,0,9.111,13.384C2505.072,1177.015,2511.536,1173.163,2512.772,1167Z" transform="translate(44.055 26.052)"/><path class="c" d="M2464.521,1160.193c-1.234,6.162,2.146,12.047,8.309,13.282s11.724-2.857,12.958-9.02-2.326-12.041-8.488-13.276S2465.757,1154.029,2464.521,1160.193Z" transform="translate(27.581 25.078)"/><path class="c" d="M2547.964,1192.558c-6.164-1.235-12.683,3.518-13.919,9.68s2.988,12.873,9.15,14.109,12.147-3.429,13.383-9.593S2554.126,1193.795,2547.964,1192.558Z" transform="translate(72.85 52.022)"/><path class="c" d="M2542.5,1255.92c1.235-6.164-2.7-11.32-8.861-12.554s-12.865,1.788-14.1,7.952,3.667,12.117,9.829,13.353A11,11,0,0,0,2542.5,1255.92Z" transform="translate(63.429 85.037)"/><path class="c" d="M2506.941,1205.464a11.372,11.372,0,1,0-4.469,22.3c6.162,1.236,12.955-2.59,14.19-8.752S2513.1,1206.7,2506.941,1205.464Z" transform="translate(46.402 60.401)"/><path class="c" d="M2503.776,1151.03c6.164,1.235,12.554-1.783,13.789-7.945s-3.247-12.66-9.411-13.9-12.272,3.14-13.507,9.3S2497.614,1149.794,2503.776,1151.03Z" transform="translate(47.21 10.774)"/><path class="c" d="M2507.583,1201.722c6.162,1.237,12.44-3.537,13.676-9.7s-3.057-11.3-9.219-12.536-12,1.87-13.238,8.034S2501.418,1200.488,2507.583,1201.722Z" transform="translate(49.905 43.469)"/><path class="c" d="M2457.771,1211.406c1.236-6.162-2.214-11.844-8.377-13.081s-12.954,2.394-14.189,8.558,3.716,11.715,9.878,12.95A10.368,10.368,0,0,0,2457.771,1211.406Z" transform="translate(8.543 55.747)"/><path class="c" d="M2469.479,1216.019c-6.162-1.235-11.8,3.4-13.038,9.56a10.749,10.749,0,0,0,8.51,13.028c6.164,1.235,12.924-2.321,14.16-8.483S2475.642,1217.255,2469.479,1216.019Z" transform="translate(22.331 67.287)"/><path class="c" d="M2473.212,1146.371c6.163,1.235,13.006-3.389,14.241-9.551s-3.529-11.909-9.692-13.144-11.2,2.545-12.434,8.708S2467.048,1145.136,2473.212,1146.371Z" transform="translate(28.092 7.171)"/><path class="c" d="M2481.753,1190.539a11.537,11.537,0,0,0-13.4,9.147c-1.235,6.162,2.876,11.375,9.038,12.61s11.655-2.052,12.89-8.216S2487.915,1191.775,2481.753,1190.539Z" transform="translate(30.097 50.696)"/><path class="c" d="M2494.946,1230.375a11.863,11.863,0,0,0-13.619,9.3c-1.237,6.162,3.073,11.328,9.236,12.563s12-1.9,13.234-8.059S2501.108,1231.61,2494.946,1230.375Z" transform="translate(38.545 76.623)"/><path class="c" d="M2444.8,1194.594c1.235-6.162-3.386-11.478-9.548-12.712s-11.9,2-13.14,8.165a11.424,11.424,0,0,0,8.792,13.523C2437.072,1204.8,2443.567,1200.758,2444.8,1194.594Z" transform="translate(0 45.032)"/><path class="c" d="M2451.513,1148.811c-6.164-1.236-11.309,2.4-12.546,8.564s1.915,12.485,8.079,13.719,12.874-3.108,14.109-9.272S2457.676,1150.046,2451.513,1148.811Z" transform="translate(10.944 23.523)"/><path class="c" d="M2456.253,1198.214a11.608,11.608,0,0,0,13.711-8.781c1.236-6.164-2.912-13.11-9.076-14.345s-12.442,3.62-13.677,9.784A11.407,11.407,0,0,0,2456.253,1198.214Z" transform="translate(16.338 40.655)"/></g><g transform="matrix(0.53, 0.848, -0.848, 0.53, -214.373, -2454.453)"><path class="c" d="M2454.572,1134.545c5.924,1.187,11.637-3.107,12.824-9.031a10.841,10.841,0,1,0-21.258-4.263C2444.951,1127.177,2448.645,1133.358,2454.572,1134.545Z" transform="translate(14.106 0)"/><path class="c" d="M2521.6,1180.086c5.925,1.189,11.911-3.447,13.1-9.371a11.025,11.025,0,0,0-8.63-12.925c-5.925-1.187-12.1,2.606-13.291,8.53S2515.679,1178.9,2521.6,1180.086Z" transform="translate(53.235 26.502)"/><path class="c" d="M2552.154,1168.193c-5.926-1.189-11.777,3.4-12.964,9.324s2.428,12.486,8.354,13.675,12.291-3.374,13.479-9.3S2558.078,1169.38,2552.154,1168.193Z" transform="translate(68.725 32.626)"/><path class="c" d="M2534.433,1229.008c1.187-5.926-2.343-10.827-8.267-12.014s-11.323,1.923-12.51,7.849a10.919,10.919,0,0,0,8.327,13.02C2527.907,1239.052,2533.244,1234.932,2534.433,1229.008Z" transform="translate(53.736 61.236)"/><path class="c" d="M2511.876,1166.437c1.187-5.924-2.946-12.607-8.871-13.794s-12.026,3.442-13.215,9.368a11.053,11.053,0,0,0,8.759,12.867C2504.473,1176.066,2510.688,1172.363,2511.876,1166.437Z" transform="translate(39.738 23.499)"/><path class="c" d="M2464.511,1159.836c-1.187,5.924,2.063,11.582,7.988,12.769s11.271-2.747,12.458-8.671-2.236-11.576-8.16-12.763S2465.7,1153.911,2464.511,1159.836Z" transform="translate(24.878 22.62)"/><path class="c" d="M2547.418,1192.551c-5.926-1.187-12.193,3.382-13.382,9.306s2.872,12.375,8.8,13.564,11.678-3.3,12.866-9.222S2553.342,1193.74,2547.418,1192.551Z" transform="translate(65.711 46.924)"/><path class="c" d="M2541.61,1255.424c1.187-5.926-2.595-10.882-8.519-12.069s-12.368,1.719-13.555,7.645,3.525,11.649,9.449,12.837A10.579,10.579,0,0,0,2541.61,1255.424Z" transform="translate(57.213 76.703)"/><path class="c" d="M2506.41,1205.455a10.933,10.933,0,1,0-4.3,21.437c5.924,1.189,12.455-2.49,13.642-8.414S2512.336,1206.643,2506.41,1205.455Z" transform="translate(41.854 54.482)"/><path class="c" d="M2503.415,1150.178c5.926,1.187,12.069-1.714,13.256-7.638s-3.122-12.171-9.048-13.359a11.3,11.3,0,0,0-12.985,8.943C2493.45,1144.047,2497.491,1148.99,2503.415,1150.178Z" transform="translate(42.584 9.718)"/><path class="c" d="M2507.234,1200.853c5.924,1.189,11.959-3.4,13.148-9.325s-2.939-10.863-8.863-12.052-11.539,1.8-12.726,7.724S2501.308,1199.666,2507.234,1200.853Z" transform="translate(45.014 39.209)"/><path class="c" d="M2456.891,1210.892c1.188-5.924-2.128-11.387-8.054-12.576s-12.454,2.3-13.641,8.227,3.572,11.263,9.5,12.45A9.967,9.967,0,0,0,2456.891,1210.892Z" transform="translate(7.706 50.284)"/><path class="c" d="M2468.966,1216.011c-5.924-1.187-11.345,3.266-12.534,9.19a10.334,10.334,0,0,0,8.181,12.525c5.926,1.187,12.425-2.231,13.613-8.156S2474.891,1217.2,2468.966,1216.011Z" transform="translate(20.142 60.693)"/><path class="c" d="M2472.9,1145.485c5.925,1.187,12.5-3.258,13.691-9.182s-3.393-11.449-9.317-12.636-10.764,2.447-11.953,8.371S2466.971,1144.3,2472.9,1145.485Z" transform="translate(25.339 6.468)"/><path class="c" d="M2481.227,1190.531a11.091,11.091,0,0,0-12.882,8.794c-1.187,5.924,2.765,10.936,8.689,12.123s11.2-1.973,12.392-7.9S2487.151,1191.719,2481.227,1190.531Z" transform="translate(27.148 45.727)"/><path class="c" d="M2494.411,1230.367a11.4,11.4,0,0,0-13.093,8.94c-1.189,5.924,2.955,10.89,8.879,12.077s11.536-1.822,12.723-7.748S2500.336,1231.554,2494.411,1230.367Z" transform="translate(34.767 69.114)"/><path class="c" d="M2443.919,1194.093c1.187-5.924-3.255-11.034-9.179-12.221s-11.444,1.925-12.633,7.849a10.983,10.983,0,0,0,8.453,13C2436.485,1203.909,2442.73,1200.019,2443.919,1194.093Z" transform="translate(0 40.619)"/><path class="c" d="M2451.018,1148.8c-5.926-1.189-10.872,2.309-12.061,8.234s1.841,12,7.767,13.189,12.377-2.988,13.564-8.914S2456.943,1149.989,2451.018,1148.8Z" transform="translate(9.871 21.218)"/><path class="c" d="M2455.9,1197.313a11.16,11.16,0,0,0,13.181-8.441c1.189-5.926-2.8-12.6-8.725-13.791s-11.961,3.48-13.148,9.406A10.966,10.966,0,0,0,2455.9,1197.313Z" transform="translate(14.737 36.67)"/></g><g transform="matrix(-0.53, -0.848, 0.848, -0.53, 218.358, 486.368)"><path class="c" d="M8.655,22.121c5.924,1.187,11.637-3.107,12.824-9.031A10.841,10.841,0,1,0,.221,8.827C-.965,14.753,2.729,20.934,8.655,22.121Z" transform="translate(38.137 0)"/><path class="c" d="M9.028,22.513c5.925,1.189,11.911-3.447,13.1-9.371A11.025,11.025,0,0,0,13.5.217C7.572-.97,1.395,2.823.206,8.747S3.1,21.326,9.028,22.513Z" transform="translate(143.924 71.652)"/><path class="c" d="M13.19.189C7.264-1,1.413,3.587.225,9.512S2.654,22,8.58,23.188s12.291-3.374,13.479-9.3S19.114,1.376,13.19.189Z" transform="translate(185.803 88.206)"/><path class="c" d="M21,12.264C22.191,6.338,18.661,1.437,12.737.25S1.414,2.173.226,8.1a10.919,10.919,0,0,0,8.327,13.02C14.478,22.308,19.815,18.188,21,12.264Z" transform="translate(145.28 165.557)"/><path class="c" d="M22.294,13.981C23.482,8.057,19.349,1.374,13.423.187S1.4,3.629.208,9.555A11.053,11.053,0,0,0,8.967,22.423C14.891,23.61,21.106,19.907,22.294,13.981Z" transform="translate(107.433 63.531)"/><path class="c" d="M.242,8.877C-.944,14.8,2.305,20.459,8.23,21.646S19.5,18.9,20.688,12.975,18.452,1.4,12.528.212,1.431,2.951.242,8.877Z" transform="translate(67.261 61.156)"/><path class="c" d="M13.588.189C7.662-1,1.4,3.571.207,9.495S3.079,21.87,9,23.059s11.678-3.3,12.866-9.222S19.512,1.377,13.588.189Z" transform="translate(177.655 126.862)"/><path class="c" d="M22.258,12.331C23.445,6.4,19.663,1.449,13.739.262S1.371,1.98.184,7.906,3.709,19.555,9.634,20.743A10.579,10.579,0,0,0,22.258,12.331Z" transform="translate(154.679 207.372)"/><path class="c" d="M13.223.217A11.052,11.052,0,0,0,.21,8.757a11.054,11.054,0,0,0,8.718,12.9c5.924,1.189,12.455-2.49,13.642-8.414S19.149,1.4,13.223.217Z" transform="translate(113.155 147.296)"/><path class="c" d="M8.984,21.2c5.926,1.187,12.069-1.714,13.256-7.638S19.119,1.39,13.193.2A11.3,11.3,0,0,0,.208,9.144C-.981,15.068,3.06,20.01,8.984,21.2Z" transform="translate(115.129 26.273)"/><path class="c" d="M8.663,21.634c5.924,1.189,11.959-3.4,13.148-9.325S18.872,1.446,12.948.257,1.409,2.055.222,7.981,2.737,20.447,8.663,21.634Z" transform="translate(121.7 106.004)"/><path class="c" d="M21.878,12.806C23.066,6.882,19.749,1.42,13.824.231S1.37,2.532.183,8.458s3.572,11.263,9.5,12.45A9.967,9.967,0,0,0,21.878,12.806Z" transform="translate(20.833 135.945)"/><path class="c" d="M12.767.192C6.843-.994,1.422,3.459.233,9.383A10.334,10.334,0,0,0,8.414,21.908c5.926,1.187,12.425-2.231,13.613-8.156S18.692,1.381,12.767.192Z" transform="translate(54.455 164.088)"/><path class="c" d="M7.845,22.042c5.925,1.187,12.5-3.258,13.691-9.182S18.143,1.411,12.219.224,1.454,2.671.265,8.6,1.919,20.855,7.845,22.042Z" transform="translate(68.504 17.487)"/><path class="c" d="M13.093.207A11.091,11.091,0,0,0,.211,9C-.976,14.925,2.975,19.936,8.9,21.124s11.2-1.973,12.392-7.9S19.017,1.4,13.093.207Z" transform="translate(73.396 123.627)"/><path class="c" d="M13.3.2A11.4,11.4,0,0,0,.2,9.141c-1.189,5.924,2.955,10.89,8.879,12.077S20.619,19.4,21.806,13.471,19.221,1.389,13.3.2Z" transform="translate(93.996 186.855)"/><path class="c" d="M22.033,12.472C23.22,6.547,18.778,1.437,12.853.25S1.409,2.175.221,8.1a10.983,10.983,0,0,0,8.453,13C14.6,22.287,20.844,18.4,22.033,12.472Z" transform="translate(0 109.816)"/><path class="c" d="M12.316.231C6.39-.958,1.444,2.54.255,8.464s1.841,12,7.767,13.189S20.4,18.666,21.585,12.74,18.24,1.418,12.316.231Z" transform="translate(26.688 57.365)"/><path class="c" d="M8.9,22.418a11.16,11.16,0,0,0,13.181-8.441c1.189-5.926-2.8-12.6-8.725-13.791S1.4,3.666.211,9.592A10.966,10.966,0,0,0,8.9,22.418Z" transform="translate(39.843 99.141)"/></g><g transform="matrix(0.53, 0.848, -0.848, 0.53, -1102.434, -2545.315)"><path class="c" d="M2454.919,1135.434c6.162,1.235,12.1-3.232,13.339-9.395a11.277,11.277,0,1,0-22.112-4.434C2444.912,1127.77,2448.755,1134.2,2454.919,1135.434Z" transform="translate(15.639 0)"/><path class="c" d="M2521.966,1180.991c6.163,1.236,12.389-3.586,13.625-9.748a11.468,11.468,0,0,0-8.977-13.444c-6.163-1.235-12.588,2.711-13.825,8.873S2515.8,1179.756,2521.966,1180.991Z" transform="translate(59.019 29.382)"/><path class="c" d="M2552.684,1168.2c-6.164-1.237-12.25,3.534-13.485,9.7s2.526,12.988,8.69,14.225,12.785-3.51,14.02-9.674S2558.846,1169.435,2552.684,1168.2Z" transform="translate(76.192 36.17)"/><path class="c" d="M2535.277,1229.5c1.235-6.164-2.437-11.262-8.6-12.5s-11.778,2-13.013,8.165a11.358,11.358,0,0,0,8.662,13.543C2528.489,1239.949,2534.041,1235.663,2535.277,1229.5Z" transform="translate(59.575 67.89)"/><path class="c" d="M2512.772,1167c1.235-6.162-3.064-13.114-9.228-14.349s-12.51,3.581-13.747,9.745a11.5,11.5,0,0,0,9.111,13.384C2505.072,1177.015,2511.536,1173.163,2512.772,1167Z" transform="translate(44.055 26.052)"/><path class="c" d="M2464.521,1160.193c-1.234,6.162,2.146,12.047,8.309,13.282s11.724-2.857,12.958-9.02-2.326-12.041-8.488-13.276S2465.757,1154.029,2464.521,1160.193Z" transform="translate(27.581 25.078)"/><path class="c" d="M2547.964,1192.558c-6.164-1.235-12.683,3.518-13.919,9.68s2.988,12.873,9.15,14.109,12.147-3.429,13.383-9.593S2554.126,1193.795,2547.964,1192.558Z" transform="translate(72.85 52.022)"/><path class="c" d="M2542.5,1255.92c1.235-6.164-2.7-11.32-8.861-12.554s-12.865,1.788-14.1,7.952,3.667,12.117,9.829,13.353A11,11,0,0,0,2542.5,1255.92Z" transform="translate(63.429 85.037)"/><path class="c" d="M2506.941,1205.464a11.372,11.372,0,1,0-4.469,22.3c6.162,1.236,12.955-2.59,14.19-8.752S2513.1,1206.7,2506.941,1205.464Z" transform="translate(46.402 60.401)"/><path class="c" d="M2503.776,1151.03c6.164,1.235,12.554-1.783,13.789-7.945s-3.247-12.66-9.411-13.9-12.272,3.14-13.507,9.3S2497.614,1149.794,2503.776,1151.03Z" transform="translate(47.21 10.774)"/><path class="c" d="M2507.583,1201.722c6.162,1.237,12.44-3.537,13.676-9.7s-3.057-11.3-9.219-12.536-12,1.87-13.238,8.034S2501.418,1200.488,2507.583,1201.722Z" transform="translate(49.905 43.469)"/><path class="c" d="M2457.771,1211.406c1.236-6.162-2.214-11.844-8.377-13.081s-12.954,2.394-14.189,8.558,3.716,11.715,9.878,12.95A10.368,10.368,0,0,0,2457.771,1211.406Z" transform="translate(8.543 55.747)"/><path class="c" d="M2469.479,1216.019c-6.162-1.235-11.8,3.4-13.038,9.56a10.749,10.749,0,0,0,8.51,13.028c6.164,1.235,12.924-2.321,14.16-8.483S2475.642,1217.255,2469.479,1216.019Z" transform="translate(22.331 67.287)"/><path class="c" d="M2473.212,1146.371c6.163,1.235,13.006-3.389,14.241-9.551s-3.529-11.909-9.692-13.144-11.2,2.545-12.434,8.708S2467.048,1145.136,2473.212,1146.371Z" transform="translate(28.092 7.171)"/><path class="c" d="M2481.753,1190.539a11.537,11.537,0,0,0-13.4,9.147c-1.235,6.162,2.876,11.375,9.038,12.61s11.655-2.052,12.89-8.216S2487.915,1191.775,2481.753,1190.539Z" transform="translate(30.097 50.696)"/><path class="c" d="M2494.946,1230.375a11.863,11.863,0,0,0-13.619,9.3c-1.237,6.162,3.073,11.328,9.236,12.563s12-1.9,13.234-8.059S2501.108,1231.61,2494.946,1230.375Z" transform="translate(38.545 76.623)"/><path class="c" d="M2444.8,1194.594c1.235-6.162-3.386-11.478-9.548-12.712s-11.9,2-13.14,8.165a11.424,11.424,0,0,0,8.792,13.523C2437.072,1204.8,2443.567,1200.758,2444.8,1194.594Z" transform="translate(0 45.032)"/><path class="c" d="M2451.513,1148.811c-6.164-1.236-11.309,2.4-12.546,8.564s1.915,12.485,8.079,13.719,12.874-3.108,14.109-9.272S2457.676,1150.046,2451.513,1148.811Z" transform="translate(10.944 23.523)"/><path class="c" d="M2456.253,1198.214a11.608,11.608,0,0,0,13.711-8.781c1.236-6.164-2.912-13.11-9.076-14.345s-12.442,3.62-13.677,9.784A11.407,11.407,0,0,0,2456.253,1198.214Z" transform="translate(16.338 40.655)"/></g><g transform="matrix(0.921, -0.391, 0.391, 0.921, -857.292, -792.132)"><path class="d" d="M850.286,1339.65s-1.386,3.74-9.916,6.484-11.657,7.764-10.356,13.089.582,15.748.709,30.036,13.045,44.689,20.271,52.8,15.818,20.6,27.244,24.249,44.634,5.933,53.749,10.845,24.187,12.14,26.174,7.517,2.9-9.8-2.47-20.637-7.091-26.192-7.48-36.69-7.994-29.225-12.538-35.906-18.767-26.226-28.37-32.123-33.3-8.96-41.409-12.375C865.894,1346.942,853.328,1340.271,850.286,1339.65Z"/><path class="a" d="M696.149,1304.865s-6.929,14.991-12.36,23.753-12.47,30.852-9.381,40.035,8.41,30.6,21.449,40.407,15.9,10.2,21.289,12.761,16.238,6.563,22.492,4.179,12.637-5.093,16.423-8.852,11.1-12.514,13.743-22.782,7.046-23.977,1.753-35.184-22.126-33.124-36.277-41.111S712.268,1302.656,696.149,1304.865Z"/><path class="d" d="M795.26,1448.148s-10.842-4.806-20.914,1.13-21.128,11.713-21.995,23.2,4.416,22.463,4.7,33.126,3.53,27.879,9.207,33.357,10.108,6.2,13.385,4.717,5.228-7.234,13.088-12.016,19.029-17.428,20.766-31.142,3.1-25.12-4.237-35.926S801.047,1449.682,795.26,1448.148Z"/><path class="e" d="M833.827,1359.4a28.848,28.848,0,0,1,11.645-4.931c4.165-.976,7.763-1.819,12.54-6.508,5.5-5.4,16.665-10.33,29.192-9.163,8.349.777,20.307,4.58,29.865,18.281,17.881,25.634,16.832,45.375,10.175,84.306-2.99,17.485-1.184,30.871.011,39.729.973,7.212,1.508,11.185-1.1,13.147l-.047.035c-2.191,1.6-5.416.7-9.58-1.146a165.224,165.224,0,0,1-21.547-11.9c-7.573-4.729-14.726-9.194-24.957-13.256l-.588-.234c-14.83-5.882-31.638-12.55-37.884-39.846-5.909-25.831-12.607-55.109-.675-66.075A33.811,33.811,0,0,1,833.827,1359.4Zm23.491-5.595c-4.032,2.941-7.528,3.76-10.933,4.558-4.022.943-7.82,1.833-12.807,6.417-10.221,9.394-3.518,38.694,1.868,62.238,5.776,25.246,20.867,31.232,35.46,37.021l.589.233h0c10.567,4.195,18.209,8.967,25.6,13.581a161.929,161.929,0,0,0,21.049,11.64c4.591,2.033,5.518,1.621,5.609,1.567.712-.716.061-5.537-.461-9.412-1.228-9.1-3.083-22.849.01-40.937,6.608-38.64,7.6-56.816-9.512-81.343-8.681-12.444-19.45-15.889-26.956-16.588-11.252-1.047-21.178,3.281-26.019,8.035A31.681,31.681,0,0,1,857.318,1353.808Z"/><path class="e" d="M851.032,1363.163c2.653.458,5.056,2.7,7,.229s3.359-7.24,4.868-6.167l1.508,1.072s2.65,1.268.871,2.925-3.326,2.573-1.55,4.2,3.292,3.885,2.36,4.916-3.184.9-3.184.9.3,1.413-2.7,1.634a22.672,22.672,0,0,1-10.669-2.3c-2.681-1.527-4.177-3.062-3.3-5.074S847.405,1362.538,851.032,1363.163Z"/></g><g transform="matrix(-0.259, -0.966, 0.966, -0.259, -1607.629, 1347.722)"><path class="d" d="M850.286,1339.65s-1.386,3.74-9.916,6.484-11.657,7.764-10.356,13.089.582,15.748.709,30.036,13.045,44.689,20.271,52.8,15.818,20.6,27.244,24.249,44.634,5.933,53.749,10.845,24.187,12.14,26.174,7.517,2.9-9.8-2.47-20.637-7.091-26.192-7.48-36.69-7.994-29.225-12.538-35.906-18.767-26.226-28.37-32.123-33.3-8.96-41.409-12.375C865.894,1346.942,853.328,1340.271,850.286,1339.65Z"/><path class="a" d="M696.149,1304.865s-6.929,14.991-12.36,23.753-12.47,30.852-9.381,40.035,8.41,30.6,21.449,40.407,15.9,10.2,21.289,12.761,16.238,6.563,22.492,4.179,12.637-5.093,16.423-8.852,11.1-12.514,13.743-22.782,7.046-23.977,1.753-35.184-22.126-33.124-36.277-41.111S712.268,1302.656,696.149,1304.865Z"/><path class="d" d="M795.26,1448.148s-10.842-4.806-20.914,1.13-21.128,11.713-21.995,23.2,4.416,22.463,4.7,33.126,3.53,27.879,9.207,33.357,10.108,6.2,13.385,4.717,5.228-7.234,13.088-12.016,19.029-17.428,20.766-31.142,3.1-25.12-4.237-35.926S801.047,1449.682,795.26,1448.148Z"/><path class="e" d="M833.827,1359.4a28.848,28.848,0,0,1,11.645-4.931c4.165-.976,7.763-1.819,12.54-6.508,5.5-5.4,16.665-10.33,29.192-9.163,8.349.777,20.307,4.58,29.865,18.281,17.881,25.634,16.832,45.375,10.175,84.306-2.99,17.485-1.184,30.871.011,39.729.973,7.212,1.508,11.185-1.1,13.147l-.047.035c-2.191,1.6-5.416.7-9.58-1.146a165.224,165.224,0,0,1-21.547-11.9c-7.573-4.729-14.726-9.194-24.957-13.256l-.588-.234c-14.83-5.882-31.638-12.55-37.884-39.846-5.909-25.831-12.607-55.109-.675-66.075A33.811,33.811,0,0,1,833.827,1359.4Zm23.491-5.595c-4.032,2.941-7.528,3.76-10.933,4.558-4.022.943-7.82,1.833-12.807,6.417-10.221,9.394-3.518,38.694,1.868,62.238,5.776,25.246,20.867,31.232,35.46,37.021l.589.233h0c10.567,4.195,18.209,8.967,25.6,13.581a161.929,161.929,0,0,0,21.049,11.64c4.591,2.033,5.518,1.621,5.609,1.567.712-.716.061-5.537-.461-9.412-1.228-9.1-3.083-22.849.01-40.937,6.608-38.64,7.6-56.816-9.512-81.343-8.681-12.444-19.45-15.889-26.956-16.588-11.252-1.047-21.178,3.281-26.019,8.035A31.681,31.681,0,0,1,857.318,1353.808Z"/><path class="e" d="M851.032,1363.163c2.653.458,5.056,2.7,7,.229s3.359-7.24,4.868-6.167l1.508,1.072s2.65,1.268.871,2.925-3.326,2.573-1.55,4.2,3.292,3.885,2.36,4.916-3.184.9-3.184.9.3,1.413-2.7,1.634a22.672,22.672,0,0,1-10.669-2.3c-2.681-1.527-4.177-3.062-3.3-5.074S847.405,1362.538,851.032,1363.163Z"/></g><g transform="matrix(0.921, -0.391, 0.391, 0.921, -2180.849, -506.132)"><path class="d" d="M850.286,1339.65s-1.386,3.74-9.916,6.484-11.657,7.764-10.356,13.089.582,15.748.709,30.036,13.045,44.689,20.271,52.8,15.818,20.6,27.244,24.249,44.634,5.933,53.749,10.845,24.187,12.14,26.174,7.517,2.9-9.8-2.47-20.637-7.091-26.192-7.48-36.69-7.994-29.225-12.538-35.906-18.767-26.226-28.37-32.123-33.3-8.96-41.409-12.375C865.894,1346.942,853.328,1340.271,850.286,1339.65Z"/><path class="a" d="M696.149,1304.865s-6.929,14.991-12.36,23.753-12.47,30.852-9.381,40.035,8.41,30.6,21.449,40.407,15.9,10.2,21.289,12.761,16.238,6.563,22.492,4.179,12.637-5.093,16.423-8.852,11.1-12.514,13.743-22.782,7.046-23.977,1.753-35.184-22.126-33.124-36.277-41.111S712.268,1302.656,696.149,1304.865Z"/><path class="d" d="M795.26,1448.148s-10.842-4.806-20.914,1.13-21.128,11.713-21.995,23.2,4.416,22.463,4.7,33.126,3.53,27.879,9.207,33.357,10.108,6.2,13.385,4.717,5.228-7.234,13.088-12.016,19.029-17.428,20.766-31.142,3.1-25.12-4.237-35.926S801.047,1449.682,795.26,1448.148Z"/><path class="e" d="M833.827,1359.4a28.848,28.848,0,0,1,11.645-4.931c4.165-.976,7.763-1.819,12.54-6.508,5.5-5.4,16.665-10.33,29.192-9.163,8.349.777,20.307,4.58,29.865,18.281,17.881,25.634,16.832,45.375,10.175,84.306-2.99,17.485-1.184,30.871.011,39.729.973,7.212,1.508,11.185-1.1,13.147l-.047.035c-2.191,1.6-5.416.7-9.58-1.146a165.224,165.224,0,0,1-21.547-11.9c-7.573-4.729-14.726-9.194-24.957-13.256l-.588-.234c-14.83-5.882-31.638-12.55-37.884-39.846-5.909-25.831-12.607-55.109-.675-66.075A33.811,33.811,0,0,1,833.827,1359.4Zm23.491-5.595c-4.032,2.941-7.528,3.76-10.933,4.558-4.022.943-7.82,1.833-12.807,6.417-10.221,9.394-3.518,38.694,1.868,62.238,5.776,25.246,20.867,31.232,35.46,37.021l.589.233h0c10.567,4.195,18.209,8.967,25.6,13.581a161.929,161.929,0,0,0,21.049,11.64c4.591,2.033,5.518,1.621,5.609,1.567.712-.716.061-5.537-.461-9.412-1.228-9.1-3.083-22.849.01-40.937,6.608-38.64,7.6-56.816-9.512-81.343-8.681-12.444-19.45-15.889-26.956-16.588-11.252-1.047-21.178,3.281-26.019,8.035A31.681,31.681,0,0,1,857.318,1353.808Z"/><path class="e" d="M851.032,1363.163c2.653.458,5.056,2.7,7,.229s3.359-7.24,4.868-6.167l1.508,1.072s2.65,1.268.871,2.925-3.326,2.573-1.55,4.2,3.292,3.885,2.36,4.916-3.184.9-3.184.9.3,1.413-2.7,1.634a22.672,22.672,0,0,1-10.669-2.3c-2.681-1.527-4.177-3.062-3.3-5.074S847.405,1362.538,851.032,1363.163Z"/></g></g></svg>