<svg xmlns="http://www.w3.org/2000/svg" xmlns:xlink="http://www.w3.org/1999/xlink" width="375" height="218" viewBox="0 0 375 218"><defs><style>.a{fill:#ffd0d2;}.b{opacity:0.25;clip-path:url(#a);}.c{fill:#faadb2;}.d{fill:#ffebed;}.e{fill:#fff;}</style><clipPath id="a"><rect class="a" width="375" height="218" transform="translate(-36.215 153.608)"/></clipPath></defs><g class="b" transform="translate(36.215 -153.608)"><path class="c" d="M.494.607c.312.169,19.825,22.72,27.1,40.139s10.95,21.282,10.59,37.045-2.93,21.532-6.053,28.045-10.087,21.41-2.947,40.338S45.751,179.7,48.127,184.861,63.778,218.873,65.3,238.8,66.3,257.739,68.038,252.3s7.518-26.763,1.454-58.688-11.007-62.832-17.624-79.184-11.593-16.133-11.817-23.2a132.907,132.907,0,0,1,.614-15.73c.224-3.133.075-5.987,1.061-4.386S51.974,89.36,56.949,95.628,67.5,108.462,67.032,121.485a68.828,68.828,0,0,0,11.8,41.075c8.993,13.175,17.33,19.721,24.337,34.6s13.012,28.422,14.192,32.993,2.019,9.01,2.787,6.592,2.533-28.791-.812-48.8-10.5-43.3-22.123-57.967-24.2-18.5-30.986-27.238S47.448,78.68,42.428,65.809s-9.186-20.983-9.186-20.983-1.115-1.8,2.929,1.255C49.387,56.071,50.3,57.575,51.722,61.523s5.99,18.45,15.059,26.564,17.989,9.667,23.532,12.139,21.4,9.133,29.791,22.938,13.3,21.427,15.014,25.523,1.912,4.285,2.361,1.727-.133-23.515-8.169-44.741-22.29-34.6-37.38-42.088S64.214,54,59.029,54.3,53.6,55.364,48.006,52.381,30.164,39.612,28.222,35.868,15.12,14.63,11.7,9.874,5.589,1,4.334.566-1.493-.471.494.607Z" transform="translate(-135.804 416.498) rotate(-104)"/><g transform="matrix(0.53, -0.848, 0.848, 0.53, -76.596, 188.133)"><path class="d" d="M4.992.114a6.461,6.461,0,0,1,7.4,5.209A6.253,6.253,0,1,1,.128,7.782,6.5,6.5,0,0,1,4.992.114Z" transform="translate(21.996 118.824)"/><path class="d" d="M5.207.108c3.417-.686,6.87,1.988,7.555,5.405a6.358,6.358,0,0,1-4.977,7.454A6.537,6.537,0,0,1,.119,8.047,6.939,6.939,0,0,1,5.207.108Z" transform="translate(83.01 77.278)"/><path class="d" d="M7.607,13.374C4.19,14.06.815,11.414.13,8S1.531.795,4.948.109a6.957,6.957,0,0,1,7.774,5.364A6.916,6.916,0,0,1,7.607,13.374Z" transform="translate(107.164 67.34)"/><path class="d" d="M12.114,5.226a5.709,5.709,0,0,1-4.768,6.929C3.928,12.839.815,11.045.131,7.627A6.3,6.3,0,0,1,4.933.118,6.177,6.177,0,0,1,12.114,5.226Z" transform="translate(83.792 23.911)"/><path class="d" d="M12.858,5a6.975,6.975,0,0,1-5.116,7.956C4.325,13.638.806,10.967.12,7.549A6.375,6.375,0,0,1,5.172.128,6.524,6.524,0,0,1,12.858,5Z" transform="translate(61.964 81.994)"/><path class="d" d="M.14,7.487A6.03,6.03,0,0,1,4.747.122a6.107,6.107,0,0,1,7.185,5,6.087,6.087,0,0,1-4.707,7.361A6.009,6.009,0,0,1,.14,7.487Z" transform="translate(38.793 83.817)"/><path class="d" d="M7.837,13.3A6.9,6.9,0,0,1,.119,7.934,6.8,6.8,0,0,1,5.193.11c3.418-.685,6.735,1.9,7.421,5.319S11.254,12.616,7.837,13.3Z" transform="translate(102.465 45.117)"/><path class="d" d="M12.838,4.98c.685,3.418-1.5,6.277-4.913,6.961S.791,10.95.106,7.532,2.139.814,5.556.128A6.1,6.1,0,0,1,12.838,4.98Z" transform="translate(89.213 0)"/><path class="d" d="M7.627,12.493A6.375,6.375,0,0,1,.121,7.567,6.376,6.376,0,0,1,5.149.128c3.417-.686,7.183,1.436,7.868,4.853S11.044,11.808,7.627,12.493Z" transform="translate(65.263 34.124)"/><path class="d" d="M5.182.151c3.418-.685,6.961.989,7.646,4.405a6.781,6.781,0,0,1-5.218,7.705A6.517,6.517,0,0,1,.12,7.1C-.566,3.687,1.765.837,5.182.151Z" transform="translate(66.402 104.165)"/><path class="d" d="M5,.109c3.417-.686,6.9,1.961,7.583,5.378s-1.7,6.265-5.112,6.951S.813,11.4.128,7.983,1.578.793,5,.109Z" transform="translate(70.192 57.971)"/><path class="d" d="M12.618,4.809a5.942,5.942,0,0,1-4.645,7.253C4.556,12.747.79,10.735.106,7.317S2.166.821,5.583.137A5.749,5.749,0,0,1,12.618,4.809Z" transform="translate(12.016 41.093)"/><path class="d" d="M7.364,12.66C3.947,13.344.82,10.776.134,7.359A5.96,5.96,0,0,1,4.853.135c3.418-.685,7.166,1.287,7.852,4.7A6.991,6.991,0,0,1,7.364,12.66Z" transform="translate(31.408 24.287)"/><path class="d" d="M4.525.111a7.039,7.039,0,0,1,7.9,5.3c.686,3.417-1.957,6.6-5.374,7.288S.839,11.284.153,7.867,1.107.8,4.525.111Z" transform="translate(39.511 108.787)"/><path class="d" d="M7.551,12.207A6.4,6.4,0,0,1,.122,7.135C-.563,3.718,1.716.828,5.133.143A5.781,5.781,0,0,1,12.28,4.7,6.25,6.25,0,0,1,7.551,12.207Z" transform="translate(42.332 48.067)"/><path class="d" d="M7.669,12.269A6.578,6.578,0,0,1,.118,7.113C-.568,3.7,1.822.832,5.239.148S11.892,1.2,12.577,4.616A6.514,6.514,0,0,1,7.669,12.269Z" transform="translate(54.213 11.54)"/><path class="d" d="M12.707,5.1c.685,3.417-1.877,6.364-5.294,7.049S.813,11.038.127,7.621A6.335,6.335,0,0,1,5,.123,6.614,6.614,0,0,1,12.707,5.1Z" transform="translate(0 56.066)"/><path class="d" d="M7.1,12.473A5.722,5.722,0,0,1,.147,7.724C-.538,4.307,1.209.8,4.626.117a6.85,6.85,0,0,1,7.823,5.141C13.134,8.675,10.52,11.788,7.1,12.473Z" transform="translate(15.393 86.005)"/><path class="d" d="M5.135.128A6.436,6.436,0,0,1,12.738,5c.686,3.418-1.615,7.269-5.033,7.954S.806,10.943.122,7.525A6.325,6.325,0,0,1,5.135.128Z" transform="translate(22.98 61.458)"/></g><g transform="matrix(0.921, 0.391, -0.391, 0.921, 240.911, 230.653)"><path class="c" d="M11.856,84.5s-.8-2.157-5.719-3.74S-.587,76.281.164,73.209.5,64.127.573,55.886,8.1,30.111,12.264,25.431s9.123-11.884,15.713-13.986,25.743-3.422,31-6.255,13.95-7,15.1-4.335,1.672,5.65-1.425,11.9-4.09,15.107-4.314,21.161S63.724,50.775,61.1,54.628,50.28,69.754,44.741,73.155s-19.208,5.168-23.883,7.137C20.858,80.293,13.61,84.14,11.856,84.5Z" transform="translate(90.019 33.565)"/><path class="a" d="M12.975,70.287s-4-8.646-7.129-13.7S-1.346,38.793.435,33.5s4.851-17.65,12.371-23.305,9.17-5.885,12.279-7.36S34.45-.954,38.058.421s7.289,2.937,9.472,5.105,6.4,7.218,7.926,13.14,4.064,13.829,1.011,20.293S43.706,58.063,35.544,62.67,22.272,71.561,12.975,70.287Z" transform="translate(0 67.839)"/><path class="c" d="M24.8,55.486s-6.253,2.772-12.062-.652S.555,48.079.055,41.454,2.6,28.5,2.763,22.348,4.8,6.269,8.073,3.109,13.9-.469,15.793.389s3.015,4.172,7.549,6.93S34.317,17.371,35.319,25.28,37.105,39.769,32.875,46,28.141,54.6,24.8,55.486Z" transform="translate(45.335 0)"/><g transform="translate(86.86 28.391)"><path class="e" d="M5.523,78.28a16.639,16.639,0,0,0,6.716,2.844,12.886,12.886,0,0,1,7.233,3.754c3.172,3.115,9.612,5.958,16.837,5.285,4.815-.448,11.712-2.642,17.225-10.544C63.846,64.834,63.241,53.448,59.4,30.994A71.024,71.024,0,0,1,59.408,8.08c.561-4.16.87-6.451-.637-7.583l-.027-.02c-1.264-.922-3.124-.4-5.525.661A95.3,95.3,0,0,0,40.791,8,83.578,83.578,0,0,1,26.4,15.649l-.339.135C17.5,19.177,7.81,23.023,4.208,38.766.8,53.664-3.064,70.551,3.818,76.875A19.5,19.5,0,0,0,5.523,78.28Zm13.549,3.227a15.6,15.6,0,0,0-6.306-2.629,14.052,14.052,0,0,1-7.387-3.7c-5.9-5.418-2.029-22.317,1.077-35.9C9.788,24.719,18.492,21.267,26.908,17.928l.34-.134h0A86.649,86.649,0,0,0,42.013,9.961a93.4,93.4,0,0,1,12.14-6.714c2.648-1.173,3.183-.935,3.235-.9.411.413.035,3.194-.266,5.429a73.069,73.069,0,0,0,.006,23.611C60.939,53.669,61.51,64.152,51.642,78.3c-5.007,7.177-11.218,9.164-15.547,9.567-6.49.6-12.215-1.892-15.007-4.634A18.275,18.275,0,0,0,19.071,81.507Z"/><path class="e" d="M2.91,5.62c1.53-.264,2.916-1.555,4.039-.132S8.886,9.664,9.757,9.045l.87-.618s1.528-.731.5-1.687S9.21,5.255,10.235,4.316s1.9-2.241,1.361-2.835A2.741,2.741,0,0,0,9.759.96S9.931.145,8.2.018A13.077,13.077,0,0,0,2.047,1.343C.5,2.223-.362,3.109.146,4.269S.818,5.98,2.91,5.62Z" transform="translate(12.536 70.491)"/></g></g><g transform="matrix(-0.259, 0.966, -0.966, -0.259, 275.023, 116.733)"><path class="c" d="M11.856,84.5s-.8-2.157-5.719-3.74S-.587,76.281.164,73.21.5,64.127.573,55.886,8.1,30.111,12.264,25.431s9.123-11.884,15.713-13.986,25.743-3.422,31-6.255,13.95-7,15.1-4.335,1.672,5.65-1.425,11.9-4.09,15.107-4.314,21.161S63.724,50.775,61.1,54.628,50.28,69.754,44.741,73.155s-19.208,5.168-23.883,7.137C20.858,80.293,13.61,84.14,11.856,84.5Z" transform="translate(90.019 33.565)"/><path class="a" d="M12.975,70.287s-4-8.646-7.129-13.7S-1.346,38.793.435,33.5s4.851-17.65,12.371-23.305,9.17-5.885,12.279-7.36S34.45-.954,38.057.421s7.289,2.937,9.472,5.105,6.4,7.218,7.926,13.14,4.064,13.829,1.011,20.293S43.706,58.063,35.544,62.67,22.272,71.561,12.975,70.287Z" transform="translate(0 67.839)"/><path class="c" d="M24.8,55.486s-6.253,2.772-12.062-.652S.555,48.079.055,41.454,2.6,28.5,2.763,22.348,4.8,6.269,8.073,3.109,13.9-.469,15.793.389s3.015,4.172,7.549,6.93S34.317,17.371,35.319,25.28,37.105,39.769,32.875,46,28.141,54.6,24.8,55.486Z" transform="translate(45.335 0)"/><g transform="translate(86.86 28.391)"><path class="e" d="M5.523,78.28a16.639,16.639,0,0,0,6.716,2.844,12.886,12.886,0,0,1,7.233,3.754c3.172,3.115,9.612,5.958,16.837,5.285,4.815-.448,11.712-2.642,17.225-10.544C63.846,64.834,63.241,53.448,59.4,30.994A71.024,71.024,0,0,1,59.408,8.08c.561-4.16.87-6.451-.637-7.583l-.027-.02c-1.264-.922-3.124-.4-5.525.661A95.3,95.3,0,0,0,40.791,8,83.58,83.58,0,0,1,26.4,15.649l-.339.135C17.5,19.177,7.81,23.023,4.208,38.766.8,53.664-3.064,70.551,3.818,76.875A19.5,19.5,0,0,0,5.523,78.28Zm13.549,3.227a15.6,15.6,0,0,0-6.306-2.629,14.052,14.052,0,0,1-7.387-3.7c-5.9-5.418-2.029-22.317,1.077-35.9C9.788,24.719,18.492,21.267,26.908,17.928l.34-.134h0A86.651,86.651,0,0,0,42.012,9.961a93.4,93.4,0,0,1,12.14-6.714c2.648-1.173,3.183-.935,3.235-.9.411.413.035,3.194-.266,5.429a73.069,73.069,0,0,0,.006,23.611C60.939,53.669,61.51,64.152,51.642,78.3c-5.007,7.177-11.218,9.164-15.547,9.567-6.49.6-12.215-1.892-15.007-4.634A18.274,18.274,0,0,0,19.071,81.507Z"/><path class="e" d="M2.91,5.62c1.53-.264,2.916-1.555,4.039-.132S8.886,9.664,9.757,9.045l.87-.618s1.528-.731.5-1.687S9.21,5.255,10.235,4.316s1.9-2.241,1.361-2.835A2.741,2.741,0,0,0,9.759.96S9.931.145,8.2.018A13.077,13.077,0,0,0,2.047,1.343C.5,2.223-.362,3.109.146,4.269S.818,5.98,2.91,5.62Z" transform="translate(12.536 70.491)"/></g></g></g></svg>