<svg width="375" height="225" viewBox="0 0 375 225" fill="none" xmlns="http://www.w3.org/2000/svg">
<rect width="375" height="225" fill="#FFEFF2"/>
<g opacity="0.5">
<mask id="mask0_1495_33232" style="mask-type:alpha" maskUnits="userSpaceOnUse" x="0" y="0" width="375" height="225">
<rect width="375" height="225" fill="black"/>
</mask>
<g mask="url(#mask0_1495_33232)">
<path d="M-73.2452 287.982C-73.1564 287.627 -55.9966 262.455 -40.8545 250.82C-25.7125 239.185 -22.854 234.54 -7.47207 230.965C7.90966 227.389 14.1288 228.523 21.2047 230.024C28.2804 231.526 44.4187 234.78 61.0573 222.903C77.6956 211.026 89.5761 197.942 94.0118 194.274C98.4478 190.606 123.227 170.107 142.198 163.612C161.168 157.116 160.327 157.873 154.627 157.496C148.927 157.118 126.841 156.65 97.3304 170.693C67.8201 184.737 39.0276 197.405 24.7627 208.115C10.4975 218.825 11.9138 223.753 5.11537 225.74C-1.68279 227.727 -7.20155 228.495 -10.2954 229.053C-13.3892 229.61 -16.1227 230.473 -14.8075 229.085C-13.4923 227.698 0.417148 214.266 5.29583 207.719C10.1744 201.172 15.1962 193.952 27.945 191.165C40.6939 188.378 54.3373 181.388 64.9447 169.091C75.5522 156.795 79.8871 146.812 92.6264 136.081C105.366 125.35 117.056 115.954 121.206 113.631C125.355 111.308 129.46 109.36 126.928 109.194C124.396 109.028 98.379 113.845 79.7717 122.192C61.1643 130.539 40.2955 143.52 28.8784 158.821C17.4614 174.123 16.7865 187.678 9.94607 196.653C3.10564 205.628 -8.85059 221.466 -20.1249 229.706C-31.3993 237.946 -38.2627 244.145 -38.2627 244.145C-38.2627 244.145 -39.7407 245.711 -37.753 240.898C-31.2571 225.169 -30.0196 223.876 -26.5322 221.469C-23.0448 219.062 -10.0792 210.864 -4.39991 199.756C1.27929 188.648 0.627791 179.327 1.68559 173.159C2.74348 166.991 5.37111 149.452 16.7347 137.598C28.0984 125.743 34.3081 118.932 37.8671 116.189C41.4261 113.446 41.5626 113.204 38.9719 113.394C36.3816 113.583 16.1879 119.398 -2.46378 132.746C-21.1156 146.095 -30.6446 163.708 -34.2589 180.689C-37.873 197.671 -36.85 210.837 -35.304 215.954C-33.758 221.071 -32.9617 221.13 -34.5037 227.474C-36.0458 233.818 -42.5771 248.53 -45.7402 251.41C-48.9033 254.289 -63.177 269.833 -66.9642 274.447C-70.7512 279.061 -74.0933 282.781 -74.2139 284.147C-74.3347 285.513 -73.811 290.242 -73.2452 287.982Z" fill="#FAADB2"/>
<path d="M324.771 232.77C324.771 232.77 324.878 230.398 320.968 226.91C317.057 223.422 316.529 219.945 318.419 217.329C320.31 214.714 322.277 208.835 325.565 201.036C328.852 193.236 342.561 179.582 348.226 176.817C353.891 174.052 361.268 169.205 368.155 169.866C375.043 170.527 393.189 176.997 399.135 176.425C405.082 175.853 414.712 175.399 414.725 178.394C414.738 181.39 414.057 184.436 408.763 189.128C403.469 193.82 399.096 201.831 396.524 207.493C393.952 213.155 385.693 221.647 381.775 224.251C377.857 226.856 365.901 234.257 359.474 235.255C353.047 236.253 339.774 232.418 334.701 232.404C334.701 232.404 326.526 233.137 324.771 232.77Z" fill="#FAADB2"/>
<path d="M235.099 215.979C235.099 215.979 234.799 206.153 233.89 200.088C232.982 194.024 234.222 180.282 237.932 175.969C241.641 171.655 249.293 161.156 258.426 158.816C267.557 156.477 269.167 156.923 272.604 156.775C276.041 156.628 282.704 156.956 285.487 159.717C288.269 162.478 291.048 165.447 292.211 168.387C293.375 171.328 295.286 177.827 294.373 184.068C293.46 190.308 292.711 198.845 287.375 203.755C282.039 208.664 268.163 216.759 258.851 217.844C249.537 218.928 243.159 220.938 235.099 215.979L235.099 215.979Z" fill="#FFD0D2"/>
<path d="M320.009 160.519C320.009 160.519 313.17 160.63 309.16 155.035C305.151 149.439 300.583 143.702 302.711 137.207C304.839 130.711 310.117 125.925 312.669 120.147C315.219 114.369 320.825 105.692 325.074 104.01C329.323 102.329 331.839 102.962 333.243 104.539C334.648 106.115 334.389 109.719 337.484 114.168C340.579 118.616 343.659 128.143 341.491 136.062C339.322 143.981 337.474 150.547 331.145 154.763C324.817 158.978 323.427 161.024 320.009 160.519Z" fill="#FAADB2"/>
<path fill-rule="evenodd" clip-rule="evenodd" d="M320.485 218.118C322.115 220.93 323.925 222.297 325.556 223.529C327.548 225.032 329.268 226.331 330.747 230.011C332.45 234.25 337.267 239.548 344.181 241.822C348.788 243.338 355.994 244.036 364.156 238.752C379.426 228.864 383.318 217.803 388.557 194.922C390.91 184.645 394.886 177.731 397.516 173.155C399.658 169.429 400.838 167.377 399.892 165.694L399.875 165.664C399.072 164.278 397.157 164.021 394.531 164.063C389.149 164.149 384.706 164.874 380.409 165.574C375.322 166.404 370.519 167.187 364.171 167.033L363.806 167.025C354.608 166.798 344.181 166.543 334.714 180.047C325.755 192.827 315.601 207.312 319.465 216.096C319.794 216.845 320.135 217.515 320.485 218.118ZM331.696 226.648C330.218 224.098 328.546 222.837 326.918 221.607C324.996 220.155 323.18 218.784 321.565 215.112C318.256 207.587 328.418 193.091 336.583 181.443C345.339 168.952 354.7 169.182 363.752 169.405L364.117 169.414C370.673 169.573 375.805 168.736 380.769 167.926C384.986 167.238 389.348 166.527 394.567 166.444C397.463 166.398 397.862 166.839 397.898 166.89C398.115 167.448 396.683 169.938 395.532 171.94C392.83 176.64 388.746 183.743 386.312 194.374C381.112 217.084 377.542 227.274 362.931 236.734C355.517 241.534 349.024 240.917 344.881 239.554C338.671 237.511 334.377 232.83 332.878 229.099C332.502 228.164 332.106 227.357 331.696 226.648L331.696 226.648Z" fill="#484848"/>
<path d="M330.467 220.059C331.979 220.425 333.759 219.758 334.236 221.563C334.714 223.367 334.388 226.311 335.431 226.074L336.473 225.838C336.473 225.838 338.166 225.759 337.595 224.437C337.024 223.115 336.409 222.254 337.719 221.774C339.029 221.295 340.342 220.411 340.08 219.63C339.818 218.848 338.593 218.395 338.593 218.395C338.593 218.395 339.069 217.69 337.526 216.871C335.983 216.051 333.111 215.435 331.344 215.648C329.576 215.861 328.436 216.354 328.45 217.662C328.465 218.97 328.4 219.558 330.467 220.059L330.467 220.059Z" fill="#484848"/>
<path d="M186.934 5.98325C186.934 5.98325 189.225 5.76256 192.027 1.28059C194.829 -3.20197 198.092 -4.22595 200.865 -2.65746C203.637 -1.08883 209.551 0.103445 217.492 2.37785C225.433 4.65219 240.441 16.7639 243.883 22.169C247.324 27.5739 253.001 34.4389 253.325 41.5702C253.65 48.7021 249.968 68.1488 251.344 74.1467C252.72 80.1447 254.497 89.9246 251.624 90.3548C248.752 90.7851 245.734 90.5124 240.496 85.755C235.257 80.9974 226.963 77.6423 221.172 75.8012C215.382 73.9607 206.084 66.702 203.04 63.0598C199.996 59.4176 191.231 48.2282 189.379 41.798C187.527 35.3676 189.359 21.2684 188.667 16.0813C188.667 16.0813 186.826 7.82811 186.934 5.98326L186.934 5.98325Z" fill="#FAADB2"/>
<path d="M255.593 -8.93962C255.593 -8.93962 254.534 -15.9142 259.345 -20.7911C264.156 -25.6671 269.024 -31.1349 275.553 -29.8638C282.081 -28.5925 287.408 -23.8638 293.307 -22.0605C299.205 -20.2578 308.311 -15.7354 310.516 -11.6272C312.72 -7.51876 312.463 -4.85924 311.145 -3.20411C309.828 -1.54937 306.335 -1.31251 302.497 2.47019C298.66 6.25289 289.948 10.7267 282.048 9.61253C274.149 8.49838 267.591 7.52305 262.666 1.64115C257.741 -4.24008 255.584 -5.37576 255.593 -8.93961L255.593 -8.93962Z" fill="#FAADB2"/>
<path fill-rule="evenodd" clip-rule="evenodd" d="M200.395 -0.436687C197.924 1.6205 196.865 3.6608 195.91 5.49944C194.744 7.74395 193.738 9.68288 190.412 11.7072C186.582 14.0376 182.17 19.698 180.95 27.0808C180.136 32.0012 180.47 39.4629 186.676 47.0696C198.288 61.3006 209.442 63.7389 232.125 65.9092C242.312 66.8839 249.5 69.9847 254.257 72.0366C258.129 73.7073 260.263 74.627 261.746 73.4268L261.772 73.4052C262.99 72.3915 262.97 70.3985 262.564 67.7201C261.732 62.2314 260.419 57.7908 259.149 53.4967C257.645 48.4136 256.225 43.6127 255.489 37.1041L255.446 36.7299C254.383 27.2965 253.178 16.6046 238.903 8.80763C225.395 1.43018 210.083 -6.93201 202.193 -1.76067C201.52 -1.31999 200.925 -0.87804 200.395 -0.436697L200.395 -0.436687ZM193.772 12.2085C196.012 10.3433 196.99 8.45927 197.943 6.62436C199.069 4.45699 200.132 2.41031 203.43 0.249061C210.189 -4.18067 225.512 4.18781 237.824 10.9122C251.027 18.123 252.109 27.7225 253.156 37.0054L253.197 37.3799C253.957 44.1022 255.475 49.2316 256.942 54.1917C258.189 58.4068 259.478 62.7654 260.285 68.0882C260.732 71.0413 260.364 71.5108 260.321 71.5548C259.815 71.8539 257.227 70.7368 255.146 69.8396C250.26 67.7316 242.877 64.5466 232.338 63.5382C209.825 61.3845 199.551 59.1534 188.441 45.5363C182.804 38.6275 182.493 31.9046 183.224 27.481C184.32 20.8498 188.213 15.8092 191.584 13.7581C192.429 13.2435 193.149 12.7265 193.772 12.2085Z" fill="#484848"/>
<path d="M199.922 10.0356C199.781 11.6317 200.669 13.3582 199.004 14.0976C197.339 14.8371 194.469 14.9136 194.842 15.9466L195.214 16.9788C195.214 16.9788 195.525 18.6979 196.713 17.9303C197.903 17.1628 198.643 16.4143 199.286 17.6864C199.928 18.9586 200.959 20.1779 201.672 19.8008C202.386 19.4244 202.65 18.1091 202.65 18.1091C202.65 18.1091 203.393 18.4981 203.964 16.8066C204.535 15.1152 204.727 12.0949 204.277 10.318C203.826 8.54118 203.194 7.44449 201.942 7.64106C200.689 7.83808 200.115 7.85384 199.922 10.0356Z" fill="#484848"/>
</g>
</g>
</svg>
