<svg width="1440" height="250" viewBox="0 0 1440 250" fill="none" xmlns="http://www.w3.org/2000/svg">
<rect width="1440" height="250" fill="#FFF3F8"/>
<g opacity="0.9">
<mask id="mask0_1518_33777" style="mask-type:alpha" maskUnits="userSpaceOnUse" x="735" y="0" width="705" height="250">
<rect x="735" width="705" height="250" fill="black"/>
</mask>
<g mask="url(#mask0_1518_33777)">
<path fill-rule="evenodd" clip-rule="evenodd" d="M447.676 102.692C452.206 103.612 455.124 106.448 457.657 110.303C460.736 114.99 464.613 118.582 470.168 120.962C474.414 122.78 477.456 127.507 481.094 130.873C487.353 136.665 493.496 142.603 499.994 148.109C506.602 153.707 513.515 158.946 520.421 164.17C524.911 167.566 529.678 170.581 534.22 173.909C536.551 175.617 538.594 177.728 540.894 179.486C542.743 180.899 544.886 181.921 546.716 183.357C550.467 186.3 554.863 188.844 557.569 192.592C560.564 196.74 564.262 198.631 568.565 200.621C572.184 202.295 574.955 205.796 578.465 207.836C587.794 213.26 597.165 218.658 606.812 223.449C616.004 228.014 625.402 232.281 635.019 235.771C642.52 238.493 650.535 239.672 658.249 241.818C664.57 243.577 670.782 245.751 676.144 248.523C677.291 250.475 678.001 253.121 679.686 254.223C682.415 256.006 684.5 254.555 685.123 251.27C685.18 250.964 685.932 250.525 686.273 250.599C691.273 251.684 696.325 252.613 701.222 254.087C703.781 254.856 706.013 257.585 708.478 257.749C716.75 258.303 724.701 261.82 733.262 260.241C736.986 259.554 741.098 260.736 745.018 261.216C747.232 261.487 748.019 261.485 749.043 258.655C749.704 256.83 755.022 256.247 758.312 256.098C763.197 255.876 768.134 256.536 773.049 256.812C774.162 256.874 775.286 256.813 776.389 256.956C785.836 258.183 795.272 259.521 804.728 260.661C808.942 261.169 813.291 260.836 817.402 261.752C820.674 262.481 823.56 264.965 826.822 265.898C834.028 267.96 841.476 269.155 848.616 271.411C856.762 273.984 864.698 277.277 872.688 280.359C875.141 281.305 876.951 280.818 879.543 280.118C884.031 278.905 889.276 280.236 894.181 280.754C897.841 281.141 901.463 281.951 905.109 282.521C906.337 282.714 907.613 282.621 908.823 282.88C916.591 284.541 924.311 286.479 932.12 287.87C935.647 288.498 939.346 288.185 942.961 288.113C954.682 287.879 965.476 292.262 976.405 295.673C983.966 298.033 991.242 301.398 998.589 304.456C1004.89 307.08 1011.09 309.996 1017.42 312.555C1018.47 312.982 1019.97 312.25 1021.27 312.053C1020.91 310.761 1020.95 308.962 1020.1 308.27C1017.42 306.065 1014.41 304.273 1011.88 301.328C1013.55 301.862 1015.39 302.102 1016.86 302.978C1023.42 306.881 1030.01 310.772 1036.31 315.1C1038.25 316.438 1040.8 319.591 1040.39 321.132C1039.68 323.768 1036.84 325.787 1034.9 328.065C1034.56 327.735 1034.22 327.406 1033.89 327.076C1034.4 328.574 1034.91 330.072 1035.42 331.57C1035.12 331.906 1034.81 332.241 1034.5 332.575C1032.56 325.661 1028.21 330.952 1024.23 329.468C1028.19 336.736 1031.78 343.333 1035.38 349.93C1034.94 350.375 1034.51 350.82 1034.08 351.265C1031.55 350.221 1029.07 348.981 1026.47 348.227C1025.35 347.903 1023.96 348.589 1021.54 349.026C1025.78 352.369 1028.99 354.898 1032.73 357.848C1032.29 364.18 1038.55 365.059 1043.32 368.251C1038.96 367.08 1034.93 366.55 1034.74 372.237C1034.71 373.01 1037.54 373.923 1039.84 375.22C1037.6 375.437 1035.59 375.631 1033.01 375.88C1035.85 382.846 1042.58 383.68 1047.64 387.766C1046.6 387.807 1045.56 387.963 1044.53 387.862C1043.21 387.731 1041.91 387.396 1040.6 387.149C1040.34 388.686 1039.42 390.553 1039.98 391.693C1041.19 394.15 1043.16 396.234 1044.78 398.424C1042.94 397.896 1040.39 396.313 1038.49 396.878C1036.84 397.37 1035.93 400.286 1034.64 402.22C1037.35 404.228 1039.87 405.885 1042.12 407.854C1043.16 408.76 1043.55 410.385 1044.46 411.492C1045.41 412.649 1046.5 413.857 1047.78 414.53C1049.27 415.312 1051.05 415.536 1054 416.371C1047.03 416.755 1041.4 417.065 1036.54 417.332C1036.28 421.315 1036.11 423.885 1035.92 426.723C1034.46 426.877 1031.78 427.157 1029.11 427.438C1028.95 428.161 1028.79 428.885 1028.63 429.609C1031.6 431.471 1034.58 433.333 1037.46 435.135C1036.67 435.726 1035.74 436.432 1034.8 437.138C1036.7 439.526 1038.6 441.914 1040.39 444.165C1039.6 444.038 1038.01 444.21 1036.94 443.532C1032.05 440.434 1030.58 445.061 1028.18 447.353C1028.02 447.503 1029.29 449.918 1030.31 450.449C1033.26 451.986 1036.43 453.099 1039.36 455.432C1035.8 455.767 1032.24 456.102 1027.83 456.518C1030.12 457.394 1031.83 458.043 1034.22 458.957C1031.47 461.359 1029.32 463.611 1026.79 465.267C1025.69 465.99 1023.75 465.311 1022.26 465.6C1020.57 465.926 1018.97 466.623 1017.32 467.158C1017.32 467.624 1017.32 468.091 1017.33 468.557L1025.92 473.394C1019.71 474.785 1014.57 475.937 1008.65 477.264C1012.51 479.442 1015.9 481.421 1019.38 483.239C1019.96 483.544 1021.18 483.453 1021.61 483.031C1024.83 479.885 1027.92 481.806 1031.04 482.955L1031.34 484.368C1029.46 484.727 1027.55 485.473 1025.69 485.365C1021.56 485.125 1017.46 484.222 1013.33 484.074C1011.69 484.015 1010.02 485.237 1008.37 485.875C1009.46 487.294 1010.51 488.753 1011.68 490.113C1012.19 490.705 1012.92 491.094 1013.95 491.875C1010.75 493.133 1007.88 494.226 1005.04 495.39C1003.77 495.911 1002.56 496.572 1001.32 497.17C1002.56 498.733 1003.72 500.377 1005.09 501.809C1005.48 502.206 1006.5 501.977 1007.16 503.103C1005.07 502.806 1002.96 502.183 1000.9 502.3C998.535 502.434 995.806 502.643 994.007 503.92C992.668 504.869 991.563 508.844 992.083 509.262C993.936 510.753 996.488 511.436 998.851 512.16C1000.64 512.707 1002.54 512.852 1004.33 513.852C997.615 515.082 990.889 509.879 983.78 514.347C985.526 515.767 987.122 517.063 989.081 518.656C987.235 520.17 985.236 521.812 983.463 523.267C984.275 525.619 985.146 528.143 986.055 530.776C978.269 530.466 975.028 531.919 975.494 535.358C969.977 536.9 963.688 532.319 958.137 537.151C959.203 538.159 959.961 538.876 960.84 539.709C959.097 539.915 957.538 540.099 956.561 540.214C954.608 547.198 961.865 544.695 963.212 548.327C960.848 548.705 958.778 549.053 956.702 549.357C956.071 549.449 955.112 549.707 954.829 549.398C951.918 546.222 949.516 545.429 946.468 549.485C945.778 550.402 942.158 548.873 939.885 548.827C938.851 548.806 937.813 549.652 936.776 550.105C937.413 551.261 937.782 552.805 938.744 553.489C940.572 554.788 942.799 555.489 944.743 556.643C945.944 557.356 946.928 558.447 947.426 558.871C951.704 558.879 955.859 558.888 960.466 558.897C954.101 564.188 954.101 564.069 945.245 563.87C942.7 563.813 940.149 564.657 937.252 565.147L942.423 568.06C939.735 574.359 933.183 573.718 928.733 576.588C925.379 571.004 921.215 572.018 917.969 574.148C911.148 571.147 905.125 568.497 899.317 565.941C900.709 564.78 903.404 563.615 899.692 561.073C898.685 560.384 898.434 558.557 897.355 556.205C899.405 557.098 900.718 558.014 901.02 557.75C904.698 554.549 906.302 559.263 908.835 560.065C910.165 560.486 911.028 562.885 911.858 564.515C914.087 568.895 916.523 566.899 919.951 564.661C917.358 563.012 915.311 561.71 913.264 560.409C917.941 561.619 922.957 559.884 927.305 563.205C928.273 563.944 931.778 561.262 934.115 560.156C933.962 559.528 933.808 558.901 933.654 558.274C932.399 557.833 931.141 557.4 929.889 556.949C927.996 556.266 926.085 555.63 924.223 554.867C920.308 553.263 916.511 551.222 912.472 550.144C911.077 549.773 909.107 551.728 906.851 552.906C905.804 552.561 904.03 551.976 902.256 551.391C902.422 550.98 902.588 550.569 902.755 550.158C901.955 549.813 901.037 549.049 900.382 549.226C899.519 549.46 898.864 550.434 897.833 551.339C897 543.404 888.954 549.397 886.795 544.514C887.062 545.241 887.33 545.968 887.598 546.695C886.022 546.809 884.446 546.923 882.102 547.092C881.494 547.878 880.357 549.346 879.017 551.079C872.901 549.406 866.834 547.311 860.61 546.242C857.8 545.759 854.676 547.316 851.302 548.031C846.292 546.797 840.454 545.36 834.615 543.922C834.593 543.638 834.571 543.354 834.549 543.07C838.621 543.342 842.696 543.577 846.765 543.906C848.339 544.034 849.914 544.638 851.462 544.572C854.968 544.422 858.23 542.393 862.048 544.631C864.063 545.812 866.026 544.159 865.707 541.272C867.925 544.634 875.121 547.093 878.544 545.344C879.292 544.962 879.309 543.152 879.662 542C876.759 541.205 874.912 536.089 870.818 539.795C870.144 540.405 868.434 539.726 867.274 539.969C866.691 540.091 866.268 540.944 865.772 541.466C861.978 540.821 858.185 540.175 854.433 539.536C855.868 534.735 855.148 534.406 849.516 533.89C842.662 533.261 835.901 531.507 829.062 530.54C821.991 529.541 815.105 526.64 807.832 527.872C806.837 528.041 805.934 529.259 805.203 530.169C804.653 530.853 804.446 531.82 804.088 532.662C803.34 532.139 802.349 531.776 801.884 531.066C798.945 526.579 795.525 524.705 789.69 525.088C783.127 525.518 776.384 523.531 769.705 522.745C768.13 522.559 766.495 522.972 764.252 523.164C765.67 525.561 766.617 527.162 767.563 528.762C763.904 526.947 758.691 528.14 757.593 522.763C757.486 522.236 755.103 521.994 753.76 521.892C749.861 521.594 745.486 520.244 742.17 521.53C738.274 523.043 736.182 522.056 732.795 520.395C729.403 518.731 724.901 519.432 721.154 519.119C721.162 518.432 721.177 517.229 721.191 516.026C720.029 516.012 718.711 515.632 717.734 516.048C714.262 517.53 710.905 519.282 706.524 521.408C708.36 522.094 710.071 522.799 711.823 523.373C714.013 524.093 716.236 524.707 718.444 525.366C718.345 525.86 718.245 526.354 718.145 526.848C716.765 526.819 715.384 526.789 713.67 526.752C713.671 528.124 713.667 529.207 713.674 530.291C713.706 535.845 710.117 538.013 705.432 535.129C702.526 533.34 699.789 531.266 697.121 529.421C698.053 527.892 698.865 526.561 699.676 525.23C698.362 524.658 696.766 524.39 695.784 523.46C692.179 520.045 687.971 521.884 684.013 521.513C683.171 521.435 682.416 520.582 681.56 520.264C679.291 519.421 676.988 518.675 674.699 517.891C674.411 519.765 674.122 521.64 673.824 523.573C670.539 522.334 666.838 522.685 663.778 518.262C661.533 515.018 655.201 514.565 650.609 513.15C650.257 513.042 649.259 515.176 648.508 516.35C631.649 517.388 615.209 510.438 598.255 506.244C601.172 505.965 604.081 505.687 606.989 505.409C607.228 504.816 607.467 504.223 607.705 503.629C605.01 502.105 602.451 500.166 599.584 499.166C596.448 498.072 593.028 497.846 589.731 497.242C589.732 496.717 589.733 496.192 589.733 495.667C588.549 496.813 587.366 497.958 585.697 499.573C588.009 500.655 590.107 501.546 592.12 502.604C594.252 503.724 596.303 505.003 598.39 506.213C595.303 505.802 592.153 505.66 589.147 504.902C586.504 504.236 583.045 505.833 581.332 502.243C580.166 503.061 579.001 503.878 577.864 504.676C573.412 502.65 568.162 501.427 564.425 498.328C555.22 490.697 544.185 486.964 533.903 481.613C526.14 477.573 518.675 472.937 510.92 468.881C507.297 466.986 503.177 466.092 499.515 464.259C496.69 462.844 493.873 461.023 491.673 458.766C486.359 453.316 481.02 448.076 473.545 445.779C472.859 445.568 472.081 444.901 471.779 444.247C469.671 439.681 465.371 438.571 461.242 437.683C457.393 436.854 455.036 434.946 453.913 431.219C452.506 426.548 447.764 427.196 444.597 425.353C443.127 424.498 441.286 424.305 439.716 423.842C443.2 428.832 446.734 433.892 450.267 438.952L449.575 439.531C436.283 427.97 422.991 416.41 409.7 404.849L410.652 403.605C412.942 405.392 415.305 407.091 417.5 408.989C419.948 411.106 421.588 414.947 425.967 412.429C425.288 405.442 417.85 403.489 414.829 398.18C411.062 391.561 404.275 395.192 399.233 392.991C398.489 394.462 398.489 394.462 402.853 402.847C402.499 403.127 402.143 403.406 401.789 403.686C397.552 398.241 393.315 392.795 389.482 387.869C390.587 385.827 391.84 383.888 391.677 383.756C389.899 382.324 387.9 381.176 385.961 379.95L384.741 381.23C385.381 383.035 386.02 384.841 386.659 386.646C382.209 383.519 376.182 382.638 374.533 376.207C373.986 374.072 371.95 372.335 370.754 370.321C370.079 369.183 369.635 367.873 369.328 366.585C369.281 366.388 370.867 365.425 371.138 365.62C372.042 366.269 372.674 367.301 373.444 368.155C374.607 369.447 375.799 370.713 376.979 371.99C377.416 371.701 377.852 371.411 378.289 371.121C378.145 369.911 378.459 368.157 377.786 367.578C371.632 362.274 365.365 357.097 358.951 352.122C358.217 351.553 356.378 352.45 355.051 352.668C354.85 353.376 354.649 354.085 354.448 354.793C352.383 352.388 350.37 349.934 348.243 347.586C344.411 343.358 340.681 339.014 336.6 335.042C330.251 328.862 323.693 322.897 317.123 316.955C313.937 314.074 310.032 311.86 307.349 308.596C304.795 305.486 303.766 301.148 301.423 297.805C297.814 292.656 293.678 287.876 289.724 282.974C286.828 279.383 284.025 275.694 280.875 272.342C278.779 270.111 276.142 268.399 273.753 266.448C272.4 265.342 270.86 264.392 269.741 263.081C256.426 247.472 239.727 235.829 224.057 222.981C223.572 222.583 222.788 222.056 222.338 222.197C215.102 224.465 211.061 218.364 205.82 215.542C198.815 211.771 192.311 206.638 184.943 204.051C172.92 199.828 160.293 197.474 148.072 193.793C138.159 190.808 128.469 187.028 118.676 183.614C117.935 183.356 117.161 183.065 116.396 183.034C107.7 182.681 99.0034 182.22 90.3076 182.094C76.0235 181.889 61.7398 182.006 47.4561 181.775C43.5024 181.711 39.5488 180.897 35.5547 180.422C36.2897 177.081 34.7902 175.683 31.5094 176.393C26.9342 177.384 25.3836 172.939 22.2889 171.291C19.7035 169.915 17.2382 167.74 14.5196 167.296C6.56405 165.994 5.93683 165.294 7.09293 157.263C7.26459 156.068 5.40816 154.416 4.25163 153.208C3.85101 152.791 2.53428 153.372 1.97245 152.988C0.621666 152.066 -0.530017 150.843 -1.76159 149.742C-0.346418 149.089 1.02913 148.317 2.50115 147.837C3.18121 147.615 4.20813 148.271 4.79503 147.974C5.54178 147.594 6.41262 146.69 6.46965 145.94C6.52678 145.191 5.8155 143.888 5.14983 143.634C1.43094 142.214 2.26269 140.065 3.76393 137.557C4.41051 136.477 4.85355 135.229 5.17949 133.997C6.40485 129.364 6.05189 128.893 0.889862 128.248C1.39837 124.208 5.03318 118.725 -3.44513 118.212C-0.0394219 112.701 -2.58596 107.653 -3.58038 102.494C-3.90867 100.788 -3.17089 98.8881 -2.83624 96.4637C-8.23677 90.5334 2.57897 88.3567 0.803541 82.4633L-1.31152 82.2393C-0.0233945 78.3181 1.605 74.564 2.40611 70.6258C3.45638 65.4622 -2.11002 64.6053 -4.51819 61.3667C-3.86682 59.7574 -3.23124 58.1353 -2.55646 56.5304C-0.651659 52.0008 -1.72851 51.1857 -5.96879 49.2553C-10.2118 47.3237 -14.281 44.2222 -17.3959 40.7054C-19.9215 37.8538 -21.4596 33.75 -22.3675 29.9565C-22.8205 28.0639 -20.8817 25.6217 -19.8515 22.9845C-25.4162 18.3459 -22.813 11.5269 -23.3701 5.31594C-23.3988 4.99818 -23.2478 4.64172 -23.3427 4.35639C-25.918 -3.37808 -20.8747 -7.59262 -16.1435 -11.9034C-7.81681 -19.49 2.14168 -24.169 12.3307 -28.734C21.9117 -33.0268 31.5676 -36.8617 41.7899 -39.1561C49.4879 -40.8834 57.2525 -42.4428 65.0703 -43.5166C84.045 -46.1234 103.122 -47.6531 122.335 -45.7834C139.317 -44.1303 156.333 -42.6529 173.224 -40.2194C181.529 -39.0226 189.521 -35.5354 197.77 -33.6382C205.642 -31.828 213.657 -30.6827 221.629 -29.3874C222.794 -29.1988 224.074 -29.8023 226.112 -30.1962C224.832 -31.9556 223.891 -33.2498 221.989 -35.8651C228.648 -33.7587 234.211 -32.0568 239.739 -30.2385C253.346 -25.7625 267.23 -21.9842 280.454 -16.524C295.124 -10.4668 309.397 -3.26952 323.436 4.22498C333.13 9.4007 342.303 15.6686 351.395 21.9206C359.716 27.6427 367.601 34.0174 375.702 40.0704C381.299 44.2522 387.029 48.2581 392.498 52.6043C393.983 53.7849 394.584 56.0452 395.871 57.5692C397.026 58.9369 398.536 60.0125 399.942 61.1497C403.564 64.0764 407.301 66.8627 410.826 69.9029C413.575 72.2746 416.075 74.9432 419.006 77.7909C413.921 79.4106 416.005 81.7804 418.315 83.8171C424.544 89.3084 430.936 94.6107 437.171 100.095C439.194 101.874 440.792 104.154 442.846 105.886C444.357 107.159 446.295 107.911 449.105 109.494C448.515 106.4 448.158 104.526 447.801 102.651L447.676 102.692ZM623.139 497.511C625.77 498.047 627.777 498.455 629.784 498.864C625.571 496.793 623.325 491.102 617.462 492.314C615.911 492.634 612.447 492.912 613.118 488.749C609.189 491.094 607.618 489.116 607.372 485.632C604.531 485.957 601.787 487.06 599.585 486.355C595.215 484.957 591.176 482.486 586.922 480.648C586.121 480.302 584.088 480.84 584.089 480.972C584.128 483.585 584.075 486.287 584.795 488.758C584.99 489.427 587.648 489.413 589.18 489.685C590.308 489.885 591.458 489.972 592.573 490.23C594.866 490.761 597.141 491.374 599.599 491.997C598.309 498.428 606.889 491.885 607.516 496.54C608.636 496.302 609.882 496.286 610.829 495.746C611.409 495.415 611.531 494.279 611.611 494.089C613.463 495.546 615.949 496.731 617.194 498.703C618.383 500.585 618.28 503.288 618.688 505.342C616.034 505.562 613.8 505.748 610.997 505.981C613.147 507.503 614.65 509.243 616.45 509.692C619.494 510.45 622.723 510.515 625.878 510.609C626.913 510.64 627.959 509.858 628.999 509.448C628.29 508.524 627.72 507.008 626.845 506.786C624.169 506.104 622.827 505.171 623.915 502.095C624.281 501.06 623.535 499.61 623.139 497.511ZM822.526 508.57C814.307 503.291 804.379 505.341 795.108 503.586C794.552 503.481 793.557 504.104 793.3 504.651C793.071 505.138 793.429 506.489 793.786 506.604C798.12 508.001 802.475 510.086 806.878 510.3C812.185 510.557 817.544 509.19 822.526 508.57ZM563.694 474.872C563.163 478.596 565.142 479.393 567.911 479.498C570.283 479.588 572.677 479.542 573.158 482.977C573.239 483.551 575.657 484.458 576.654 484.146C578.478 483.574 580.048 482.208 581.726 481.171C579.4 477.882 568.059 473.911 563.694 474.872ZM795.903 516.487C798.232 517.359 800.398 518.361 802.664 518.919C803.535 519.133 804.869 518.571 805.545 517.903C805.958 517.496 805.729 516.13 805.425 515.331C803.739 510.9 800.603 509.872 796.481 511.293C796.285 513.054 796.116 514.574 795.903 516.487ZM820.997 522.794C820.496 522.512 819.591 521.879 818.596 521.478C817.658 521.1 816.627 520.836 815.634 520.809C815.347 520.801 814.671 522.048 814.822 522.267C815.417 523.125 816.16 524.218 817.046 524.468C819.931 525.281 822.903 525.761 826.685 526.544C824.892 523.761 829.134 519.86 823.801 519.021C823.162 518.921 822.204 521.111 820.997 522.794ZM559.97 474.521C556.797 466.87 551.162 465.275 547.765 470.365C551.972 471.798 555.971 473.159 559.97 474.521ZM651.232 508.611C650.76 506.803 650.786 504.933 649.877 503.91C648.633 502.511 646.734 501.626 644.981 500.834C644.617 500.67 643.248 501.754 643.062 502.466C642.516 504.548 648.528 509.137 651.232 508.611ZM687.156 510.746C684.701 510.343 682.246 509.94 679.791 509.536C679.954 510.766 679.668 512.528 680.362 513.126C682.556 515.019 685.043 515.811 687.156 510.746ZM942.173 540.677C945.324 542.916 947.841 545.385 950.753 541.242C948.253 538.008 945.734 537.116 942.173 540.677ZM365.514 352.389C364.213 350.085 363.82 348.485 362.852 347.93C361.922 347.398 360.396 347.95 359.132 348.025C359.406 349.249 359.3 351.048 360.046 351.556C361.104 352.278 362.789 352.049 365.514 352.389ZM572.342 492.616C571.561 491.516 570.921 490.131 569.863 489.28C569.032 488.612 567.686 488.436 566.564 488.405C566.212 488.396 565.402 489.942 565.562 490.136C566.289 491.013 567.191 491.972 568.214 492.311C569.449 492.722 570.871 492.537 572.342 492.616ZM634.58 242.462C632.373 240.796 630.755 239.573 628.829 238.118C628.599 244.272 629.438 245.015 634.58 242.462ZM577.446 490.254C578.888 494.976 580.851 496.584 585.343 493.357C582.428 492.212 580.169 491.323 577.446 490.254Z" fill="#FFEFF2"/>
<path d="M673.526 -151.559C673.68 -150.973 703.432 -109.352 729.685 -90.1149C755.939 -70.8771 760.895 -63.1968 787.564 -57.2852C814.233 -51.3733 825.016 -53.248 837.285 -55.7302C849.553 -58.2127 877.534 -63.5939 906.382 -43.9562C935.23 -24.3184 955.828 -2.68425 963.519 3.38071C971.21 9.44565 1014.17 43.3383 1047.07 54.0782C1079.96 64.8181 1078.5 63.5669 1068.62 64.1907C1058.73 64.8146 1020.44 65.5896 969.273 42.3691C918.107 19.1485 868.186 -1.7958 843.454 -19.5043C818.72 -37.2128 821.176 -45.3607 809.389 -48.6465C797.602 -51.932 788.033 -53.202 782.669 -54.1241C777.305 -55.0458 772.566 -56.4713 774.846 -54.1773C777.126 -51.8836 801.243 -29.6755 809.702 -18.8501C818.16 -8.02429 826.867 3.91312 848.971 8.52114C871.075 13.1292 894.731 24.6869 913.122 45.0178C931.513 65.3484 939.029 81.8552 961.117 99.598C983.205 117.341 1003.47 132.877 1010.67 136.718C1017.86 140.558 1024.98 143.78 1020.59 144.054C1016.2 144.328 971.091 136.363 938.829 122.563C906.567 108.762 870.385 87.2988 850.59 61.9986C830.794 36.6987 829.624 14.286 817.764 -0.553543C805.904 -15.393 785.174 -41.5795 765.627 -55.2043C746.079 -68.8288 734.179 -79.0769 734.179 -79.0769C734.179 -79.0769 731.616 -81.6672 735.063 -73.7093C746.325 -47.7026 748.471 -45.5646 754.517 -41.5848C760.564 -37.6051 783.044 -24.0495 792.891 -5.68336C802.738 12.6827 801.608 28.0934 803.442 38.2922C805.276 48.4911 809.832 77.4893 829.534 97.0906C849.237 116.692 860.004 127.952 866.174 132.488C872.345 137.024 872.581 137.423 868.09 137.11C863.599 136.796 828.586 127.182 796.248 105.112C763.909 83.0411 747.387 53.9192 741.121 25.8417C734.855 -2.23576 736.628 -24.0052 739.309 -32.4659C741.989 -40.9265 743.37 -41.0241 740.696 -51.513C738.023 -62.0022 726.698 -86.3276 721.214 -91.089C715.73 -95.8507 690.982 -121.551 684.416 -129.18C677.85 -136.808 672.055 -142.959 671.846 -145.218C671.637 -147.477 672.545 -155.295 673.526 -151.559L673.526 -151.559Z" fill="#FAADB2"/>
<path fill-rule="evenodd" clip-rule="evenodd" d="M1446.95 285.432C1446.22 289.135 1443.91 291.506 1440.75 293.556C1436.91 296.047 1433.98 299.199 1432.05 303.733C1430.58 307.197 1426.71 309.659 1423.96 312.616C1419.23 317.705 1414.38 322.697 1409.89 327.983C1405.32 333.358 1401.05 338.986 1396.79 344.607C1394.03 348.262 1391.57 352.146 1388.86 355.844C1387.47 357.742 1385.75 359.401 1384.31 361.273C1383.16 362.778 1382.33 364.527 1381.16 366.016C1378.76 369.069 1376.7 372.652 1373.63 374.844C1370.23 377.27 1368.7 380.287 1367.09 383.797C1365.73 386.75 1362.86 388.996 1361.21 391.857C1356.8 399.462 1352.41 407.1 1348.53 414.969C1344.83 422.466 1341.38 430.133 1338.56 437.986C1336.37 444.11 1335.45 450.665 1333.73 456.967C1332.32 462.131 1330.57 467.204 1328.32 471.576C1326.72 472.504 1324.55 473.068 1323.65 474.441C1322.2 476.664 1323.41 478.38 1326.11 478.91C1326.37 478.959 1326.73 479.578 1326.67 479.856C1325.81 483.943 1325.08 488.073 1323.9 492.073C1323.28 494.164 1321.05 495.974 1320.93 497.992C1320.52 504.761 1317.68 511.248 1319.03 518.267C1319.62 521.32 1318.67 524.679 1318.3 527.886C1318.09 529.697 1318.1 530.341 1320.43 531.197C1321.94 531.75 1322.45 536.107 1322.59 538.802C1322.81 542.803 1322.29 546.84 1322.1 550.863C1322.05 551.774 1322.11 552.695 1322 553.597C1321.05 561.323 1320.01 569.04 1319.13 576.775C1318.73 580.222 1319.04 583.785 1318.31 587.145C1317.73 589.819 1315.7 592.166 1314.95 594.832C1313.3 600.719 1312.36 606.809 1310.55 612.641C1308.48 619.294 1305.82 625.771 1303.33 632.293C1302.57 634.295 1302.98 635.78 1303.57 637.907C1304.6 641.589 1303.54 645.874 1303.14 649.887C1302.85 652.882 1302.2 655.842 1301.76 658.823C1301.6 659.828 1301.69 660.873 1301.48 661.862C1300.16 668.211 1298.62 674.52 1297.52 680.905C1297.02 683.789 1297.31 686.819 1297.39 689.779C1297.65 699.377 1294.11 708.186 1291.37 717.113C1289.48 723.289 1286.75 729.225 1284.28 735.221C1282.16 740.368 1279.8 745.419 1277.73 750.585C1277.38 751.448 1278 752.681 1278.17 753.743C1279.23 753.454 1280.71 753.499 1281.27 752.813C1283.07 750.628 1284.53 748.172 1286.94 746.12C1286.51 747.484 1286.32 748.988 1285.61 750.19C1282.44 755.54 1279.27 760.91 1275.75 766.034C1274.66 767.617 1272.08 769.69 1270.81 769.339C1268.64 768.74 1266.96 766.405 1265.07 764.799C1265.34 764.526 1265.61 764.253 1265.88 763.98C1264.65 764.39 1263.42 764.8 1262.19 765.209C1261.91 764.956 1261.63 764.702 1261.35 764.449C1267.03 762.904 1262.65 759.305 1263.85 756.055C1257.89 759.252 1252.48 762.154 1247.07 765.056C1246.7 764.699 1246.33 764.343 1245.96 763.986C1246.81 761.922 1247.81 759.902 1248.42 757.773C1248.68 756.86 1248.1 755.719 1247.73 753.731C1245 757.185 1242.94 759.796 1240.54 762.844C1235.32 762.445 1234.64 767.564 1232.04 771.445C1232.98 767.883 1233.39 764.584 1228.7 764.396C1228.07 764.371 1227.33 766.678 1226.28 768.557C1226.09 766.716 1225.91 765.072 1225.69 762.957C1219.98 765.243 1219.33 770.744 1216 774.859C1215.96 774.011 1215.82 773.156 1215.9 772.318C1216 771.237 1216.27 770.171 1216.46 769.099C1215.2 768.883 1213.65 768.114 1212.72 768.565C1210.7 769.539 1209 771.139 1207.21 772.456C1207.63 770.95 1208.92 768.871 1208.44 767.317C1208.03 765.962 1205.62 765.199 1204.02 764.125C1202.38 766.334 1201.04 768.387 1199.43 770.22C1198.69 771.063 1197.35 771.37 1196.45 772.109C1195.5 772.881 1194.51 773.762 1193.97 774.81C1193.33 776.028 1193.16 777.478 1192.49 779.89C1192.13 774.18 1191.84 769.573 1191.59 765.594C1188.31 765.352 1186.19 765.195 1183.86 765.022C1183.72 763.825 1183.47 761.634 1183.23 759.443C1182.63 759.307 1182.03 759.171 1181.43 759.034C1179.92 761.459 1178.41 763.884 1176.94 766.23C1176.45 765.586 1175.86 764.817 1175.27 764.046C1173.32 765.585 1171.37 767.124 1169.52 768.574C1169.62 767.929 1169.47 766.627 1170.02 765.755C1172.54 761.772 1168.73 760.539 1166.82 758.557C1166.7 758.427 1164.72 759.453 1164.29 760.285C1163.04 762.692 1162.15 765.275 1160.24 767.66C1159.95 764.743 1159.65 761.827 1159.28 758.215C1158.57 760.088 1158.05 761.478 1157.31 763.434C1155.31 761.166 1153.45 759.395 1152.07 757.311C1151.47 756.401 1152.01 754.82 1151.77 753.597C1151.49 752.216 1150.9 750.895 1150.45 749.547C1150.07 749.545 1149.68 749.543 1149.3 749.541L1145.37 756.543C1144.19 751.454 1143.21 747.237 1142.08 742.38C1140.31 745.533 1138.7 748.297 1137.23 751.129C1136.98 751.602 1137.06 752.604 1137.41 752.961C1140.02 755.615 1138.46 758.129 1137.53 760.68L1136.37 760.92C1136.06 759.373 1135.44 757.809 1135.52 756.281C1135.69 752.904 1136.41 749.55 1136.5 746.175C1136.54 744.83 1135.52 743.456 1134.99 742.097C1133.83 742.986 1132.63 743.838 1131.52 744.783C1131.04 745.195 1130.72 745.797 1130.08 746.633C1129.03 744.004 1128.11 741.649 1127.13 739.318C1126.7 738.273 1126.15 737.275 1125.65 736.256C1124.37 737.263 1123.02 738.203 1121.85 739.32C1121.53 739.63 1121.72 740.467 1120.8 741.003C1121.03 739.295 1121.53 737.571 1121.42 735.884C1121.29 733.945 1121.11 731.71 1120.04 730.229C1119.25 729.127 1115.97 728.198 1115.63 728.621C1114.42 730.128 1113.87 732.213 1113.29 734.143C1112.85 735.605 1112.74 737.164 1111.93 738.62C1110.88 733.114 1115.12 727.64 1111.4 721.791C1110.24 723.212 1109.18 724.51 1107.88 726.104C1106.62 724.584 1105.26 722.937 1104.05 721.476C1102.12 722.126 1100.05 722.824 1097.89 723.552C1098.09 717.179 1096.88 714.517 1094.05 714.877C1092.74 710.35 1096.48 705.229 1092.46 700.655C1091.64 701.522 1091.05 702.137 1090.37 702.852C1090.19 701.424 1090.03 700.146 1089.93 699.346C1084.17 697.703 1086.28 703.66 1083.29 704.74C1082.97 702.802 1082.67 701.106 1082.41 699.404C1082.33 698.887 1082.11 698.1 1082.36 697.87C1084.96 695.507 1085.59 693.545 1082.24 691.024C1081.48 690.454 1082.71 687.5 1082.74 685.639C1082.75 684.793 1082.05 683.937 1081.67 683.086C1080.72 683.599 1079.45 683.892 1078.89 684.675C1077.83 686.164 1077.27 687.983 1076.33 689.567C1075.75 690.546 1074.86 691.346 1074.52 691.75C1074.54 695.253 1074.55 698.655 1074.58 702.427C1070.18 697.182 1070.28 697.183 1070.39 689.933C1070.42 687.85 1069.71 685.756 1069.29 683.381L1066.92 687.597C1061.72 685.357 1062.2 679.997 1059.81 676.336C1064.39 673.625 1063.53 670.209 1061.76 667.539C1064.18 661.972 1066.33 657.057 1068.4 652.319C1069.36 653.465 1070.34 655.679 1072.41 652.656C1072.97 651.836 1074.47 651.641 1076.4 650.773C1075.68 652.445 1074.93 653.515 1075.15 653.764C1077.81 656.795 1073.94 658.079 1073.29 660.148C1072.95 661.234 1070.99 661.926 1069.65 662.595C1066.06 664.393 1067.71 666.4 1069.58 669.22C1070.92 667.107 1071.98 665.44 1073.04 663.772C1072.07 667.593 1073.53 671.71 1070.82 675.25C1070.22 676.038 1072.45 678.924 1073.38 680.844C1073.89 680.723 1074.41 680.601 1074.92 680.479C1075.28 679.454 1075.63 678.427 1075.99 677.405C1076.54 675.859 1077.05 674.298 1077.67 672.778C1078.96 669.583 1080.62 666.487 1081.48 663.187C1081.78 662.048 1080.16 660.423 1079.17 658.568C1079.45 657.713 1079.92 656.264 1080.39 654.815C1080.73 654.954 1081.07 655.092 1081.41 655.231C1081.69 654.578 1082.31 653.832 1082.16 653.295C1081.97 652.587 1081.16 652.044 1080.41 651.194C1086.94 650.562 1081.95 643.937 1085.96 642.2C1085.36 642.414 1084.76 642.629 1084.17 642.844C1084.06 641.553 1083.96 640.262 1083.81 638.342C1083.16 637.839 1081.94 636.899 1080.51 635.791C1081.84 630.794 1083.53 625.84 1084.37 620.751C1084.75 618.453 1083.45 615.885 1082.84 613.119C1083.83 609.025 1084.97 604.254 1086.12 599.483C1086.35 599.467 1086.59 599.45 1086.82 599.434C1086.62 602.766 1086.46 606.101 1086.21 609.43C1086.11 610.718 1085.63 612.003 1085.69 613.272C1085.84 616.143 1087.53 618.826 1085.71 621.938C1084.75 623.58 1086.12 625.198 1088.5 624.955C1085.74 626.75 1083.76 632.626 1085.22 635.439C1085.54 636.054 1087.03 636.079 1087.98 636.375C1088.62 634.003 1092.82 632.524 1089.74 629.148C1089.24 628.592 1089.79 627.197 1089.58 626.246C1089.47 625.768 1088.77 625.416 1088.34 625.007C1088.84 621.905 1089.35 618.803 1089.85 615.735C1093.82 616.94 1094.08 616.353 1094.47 611.745C1094.95 606.137 1096.35 600.612 1097.1 595.02C1097.88 589.237 1100.23 583.617 1099.17 577.654C1099.02 576.839 1098.01 576.092 1097.26 575.488C1096.69 575.033 1095.9 574.858 1095.2 574.559C1095.63 573.95 1095.92 573.142 1096.5 572.765C1100.18 570.387 1101.7 567.598 1101.35 562.818C1100.95 557.442 1102.55 551.934 1103.15 546.471C1103.29 545.183 1102.94 543.842 1102.77 542.004C1100.81 543.15 1099.5 543.915 1098.18 544.68C1099.66 541.695 1098.64 537.42 1103.06 536.555C1103.49 536.47 1103.68 534.521 1103.75 533.422C1103.98 530.231 1105.06 526.658 1103.98 523.935C1102.71 520.736 1103.51 519.029 1104.86 516.266C1106.2 513.5 1105.6 509.81 1105.83 506.744C1106.4 506.755 1107.39 506.774 1108.38 506.793C1108.39 505.842 1108.69 504.765 1108.34 503.963C1107.1 501.111 1105.64 498.352 1103.86 494.752C1103.31 496.25 1102.74 497.647 1102.27 499.077C1101.69 500.866 1101.2 502.682 1100.67 504.486C1100.27 504.402 1099.86 504.317 1099.45 504.232C1099.47 503.102 1099.48 501.972 1099.5 500.569C1098.37 500.561 1097.48 500.552 1096.59 500.55C1092.02 500.542 1090.21 497.59 1092.56 493.772C1094.01 491.404 1095.7 489.176 1097.2 487.003C1098.47 487.776 1099.57 488.449 1100.67 489.121C1101.13 488.049 1101.34 486.744 1102.1 485.946C1104.89 483.015 1103.35 479.559 1103.63 476.321C1103.69 475.632 1104.39 475.019 1104.65 474.32C1105.33 472.468 1105.92 470.587 1106.56 468.718C1105.01 468.47 1103.47 468.222 1101.87 467.966C1102.87 465.284 1102.56 462.252 1106.18 459.774C1108.84 457.956 1109.17 452.775 1110.31 449.024C1110.4 448.737 1108.63 447.906 1107.66 447.284C1106.7 433.475 1112.32 420.058 1115.67 406.204C1115.92 408.594 1116.16 410.977 1116.41 413.36C1116.9 413.559 1117.39 413.758 1117.88 413.957C1119.12 411.76 1120.7 409.677 1121.5 407.336C1122.38 404.775 1122.55 401.976 1123.03 399.281C1123.46 399.285 1123.89 399.289 1124.32 399.292C1123.37 398.316 1122.42 397.34 1121.08 395.963C1120.21 397.85 1119.49 399.562 1118.63 401.204C1117.72 402.942 1116.68 404.614 1115.7 406.315C1116.01 403.789 1116.11 401.212 1116.72 398.755C1117.25 396.595 1115.91 393.753 1118.86 392.373C1118.18 391.414 1117.5 390.455 1116.83 389.519C1118.47 385.887 1119.45 381.596 1121.97 378.555C1128.2 371.067 1131.2 362.055 1135.55 353.671C1138.82 347.34 1142.59 341.257 1145.88 334.933C1147.42 331.978 1148.13 328.611 1149.62 325.624C1150.77 323.32 1152.25 321.025 1154.09 319.238C1158.55 314.922 1162.83 310.583 1164.67 304.477C1164.84 303.916 1165.38 303.284 1165.92 303.041C1169.67 301.343 1170.55 297.829 1171.26 294.455C1171.92 291.309 1173.47 289.39 1176.53 288.495C1180.37 287.371 1179.81 283.485 1181.31 280.904C1182 279.705 1182.15 278.199 1182.52 276.917C1178.43 279.738 1174.29 282.6 1170.15 285.462L1169.66 284.891C1179.1 274.08 1188.53 263.27 1197.97 252.46L1199 253.248C1197.54 255.111 1196.16 257.035 1194.61 258.82C1192.88 260.811 1189.73 262.131 1191.83 265.731C1197.58 265.219 1199.14 259.141 1203.49 256.701C1208.92 253.658 1205.88 248.079 1207.67 243.965C1206.45 243.346 1206.45 243.346 1199.57 246.867C1199.34 246.575 1199.11 246.282 1198.88 245.99C1203.33 242.555 1207.79 239.12 1211.82 236.013C1213.51 236.931 1215.11 237.968 1215.22 237.835C1216.39 236.389 1217.32 234.76 1218.32 233.18L1217.26 232.173C1215.78 232.685 1214.29 233.197 1212.81 233.709C1215.36 230.086 1216.04 225.157 1221.33 223.847C1223.08 223.412 1224.5 221.756 1226.15 220.789C1227.08 220.243 1228.16 219.888 1229.22 219.645C1229.38 219.608 1230.18 220.912 1230.02 221.133C1229.49 221.869 1228.65 222.38 1227.95 223.005C1226.89 223.949 1225.86 224.917 1224.82 225.875C1225.06 226.235 1225.3 226.593 1225.54 226.953C1226.53 226.843 1227.98 227.111 1228.45 226.564C1232.78 221.558 1237 216.459 1241.06 211.239C1241.52 210.641 1240.77 209.13 1240.59 208.042C1240 207.873 1239.42 207.704 1238.83 207.535C1240.8 205.86 1242.81 204.227 1244.73 202.5C1248.18 199.389 1251.74 196.363 1254.98 193.046C1260.03 187.886 1264.9 182.554 1269.75 177.212C1272.1 174.621 1273.9 171.438 1276.57 169.262C1279.12 167.19 1282.68 166.374 1285.42 164.478C1289.63 161.555 1293.54 158.198 1297.55 154.991C1300.49 152.643 1303.51 150.371 1306.25 147.813C1308.08 146.11 1309.47 143.962 1311.06 142.019C1311.96 140.917 1312.73 139.662 1313.81 138.754C1326.57 127.951 1336.06 114.351 1346.54 101.602C1346.86 101.207 1347.29 100.568 1347.17 100.199C1345.26 94.2605 1350.26 90.9904 1352.55 86.7169C1355.61 81.005 1359.79 75.712 1361.88 69.696C1365.28 59.8788 1367.14 49.5553 1370.09 39.5727C1372.49 31.475 1375.54 23.5654 1378.29 15.5683C1378.5 14.9636 1378.73 14.3315 1378.75 13.7055C1378.99 6.5884 1379.31 -0.529177 1379.36 -7.64787C1379.44 -19.3413 1379.26 -31.0363 1379.36 -42.7293C1379.39 -45.9658 1380.03 -49.1977 1380.4 -52.4649C1383.15 -51.8423 1384.3 -53.0613 1383.69 -55.7518C1382.85 -59.5037 1386.5 -60.7455 1387.83 -63.269C1388.95 -65.3772 1390.72 -67.3821 1391.07 -69.6051C1392.1 -76.1103 1392.67 -76.6195 1399.29 -75.623C1400.27 -75.475 1401.62 -76.9846 1402.61 -77.924C1402.95 -78.2494 1402.46 -79.331 1402.77 -79.7887C1403.53 -80.8889 1404.52 -81.8241 1405.42 -82.8256C1405.97 -81.6629 1406.61 -80.5319 1407.02 -79.3237C1407.21 -78.7656 1406.67 -77.9289 1406.92 -77.4466C1407.24 -76.8328 1407.99 -76.1142 1408.6 -76.0628C1409.22 -76.0114 1410.29 -76.5857 1410.5 -77.1291C1411.64 -80.165 1413.42 -79.4706 1415.49 -78.2259C1416.38 -77.6898 1417.41 -77.3193 1418.43 -77.0449C1422.25 -76.0128 1422.64 -76.2988 1423.14 -80.5211C1426.46 -80.0796 1431 -77.0696 1431.37 -84.0078C1435.93 -81.1852 1440.07 -83.2387 1444.31 -84.0208C1445.71 -84.2789 1447.28 -83.6631 1449.28 -83.374C1454.13 -87.7587 1455.99 -78.8901 1460.83 -80.307L1461 -82.0373C1464.23 -80.9583 1467.33 -79.6017 1470.58 -78.9213C1474.84 -78.0294 1475.51 -82.5813 1478.16 -84.5328C1479.49 -83.9895 1480.83 -83.459 1482.15 -82.8966C1485.89 -81.3089 1486.56 -82.1854 1488.12 -85.6451C1489.69 -89.107 1492.21 -92.4192 1495.09 -94.9475C1497.42 -96.9976 1500.79 -98.2314 1503.91 -98.951C1505.46 -99.3102 1507.49 -97.7076 1509.66 -96.8478C1513.45 -101.375 1519.08 -99.2012 1524.19 -99.6187C1524.45 -99.6402 1524.74 -99.5143 1524.98 -99.5902C1531.33 -101.651 1534.83 -97.4954 1538.41 -93.595C1544.7 -86.7305 1548.62 -78.5482 1552.44 -70.1779C1556.03 -62.3069 1559.25 -54.3777 1561.2 -45.9941C1562.67 -39.6809 1564 -33.3142 1564.94 -26.9068C1567.2 -11.3557 1568.58 4.27254 1567.16 19.9912C1565.9 33.8846 1564.79 47.8068 1562.9 61.6203C1561.96 68.4128 1559.14 74.9336 1557.63 81.6758C1556.19 88.1094 1555.3 94.6646 1554.28 101.184C1554.13 102.136 1554.64 103.188 1554.97 104.859C1556.41 103.822 1557.47 103.059 1559.61 101.518C1557.92 106.957 1556.56 111.501 1555.09 116.015C1551.49 127.128 1548.47 138.472 1544.06 149.264C1539.16 161.237 1533.32 172.878 1527.24 184.326C1523.04 192.23 1517.94 199.702 1512.85 207.106C1508.19 213.883 1502.99 220.299 1498.06 226.894C1494.65 231.45 1491.39 236.117 1487.84 240.567C1486.88 241.776 1485.02 242.254 1483.78 243.298C1482.66 244.235 1481.78 245.465 1480.85 246.609C1478.47 249.556 1476.2 252.598 1473.72 255.465C1471.78 257.702 1469.6 259.732 1467.27 262.114C1465.91 257.94 1463.97 259.632 1462.31 261.51C1457.83 266.576 1453.5 271.776 1449.02 276.847C1447.57 278.492 1445.71 279.786 1444.29 281.457C1443.25 282.686 1442.65 284.268 1441.36 286.559C1443.9 286.096 1445.45 285.815 1446.99 285.534L1446.95 285.432ZM1123.01 426.631C1122.59 428.782 1122.26 430.422 1121.94 432.063C1123.62 428.627 1128.29 426.824 1127.26 422.016C1126.98 420.744 1126.73 417.906 1130.16 418.482C1128.21 415.25 1129.83 413.976 1132.69 413.797C1132.41 411.469 1131.48 409.215 1132.05 407.416C1133.17 403.847 1135.18 400.556 1136.67 397.084C1136.95 396.431 1136.49 394.763 1136.39 394.763C1134.23 394.779 1132.01 394.719 1129.98 395.293C1129.43 395.448 1129.46 397.624 1129.24 398.877C1129.09 399.799 1129.02 400.741 1128.82 401.652C1128.39 403.526 1127.9 405.384 1127.41 407.393C1122.1 406.296 1127.54 413.362 1123.72 413.847C1123.92 414.765 1123.94 415.785 1124.39 416.564C1124.67 417.041 1125.6 417.148 1125.76 417.214C1124.57 418.722 1123.61 420.749 1121.99 421.757C1120.45 422.718 1118.23 422.617 1116.54 422.938C1116.34 420.764 1116.17 418.934 1115.96 416.638C1114.72 418.389 1113.3 419.608 1112.94 421.079C1112.34 423.566 1112.31 426.21 1112.25 428.792C1112.23 429.639 1112.88 430.5 1113.22 431.355C1113.98 430.78 1115.22 430.323 1115.4 429.608C1115.95 427.421 1116.7 426.328 1119.24 427.238C1120.1 427.544 1121.29 426.942 1123.01 426.631L1123.01 426.631ZM1115.15 589.805C1119.44 583.108 1117.69 574.968 1119.08 567.388C1119.16 566.934 1118.65 566.116 1118.19 565.901C1117.79 565.711 1116.68 565.995 1116.59 566.287C1115.47 569.827 1113.78 573.379 1113.63 576.983C1113.45 581.326 1114.61 585.723 1115.15 589.805ZM1141.28 378.103C1138.21 377.645 1137.57 379.261 1137.5 381.527C1137.44 383.468 1137.49 385.429 1134.67 385.801C1134.19 385.864 1133.46 387.838 1133.73 388.656C1134.21 390.153 1135.34 391.447 1136.21 392.827C1138.9 390.944 1142.1 381.683 1141.28 378.103ZM1108.47 567.959C1107.76 569.861 1106.95 571.627 1106.51 573.479C1106.34 574.191 1106.81 575.287 1107.36 575.845C1107.7 576.185 1108.82 576.006 1109.48 575.762C1113.11 574.409 1113.94 571.848 1112.75 568.464C1111.29 568.293 1110.04 568.145 1108.47 567.959ZM1103.43 588.465C1103.66 588.056 1104.17 587.319 1104.5 586.507C1104.8 585.741 1105.01 584.899 1105.03 584.086C1105.04 583.851 1104 583.29 1103.83 583.413C1103.12 583.894 1102.23 584.496 1102.03 585.22C1101.38 587.576 1101 590.006 1100.38 593.098C1102.66 591.648 1105.9 595.145 1106.55 590.784C1106.63 590.262 1104.82 589.464 1103.43 588.465L1103.43 588.465ZM1141.55 375.057C1147.83 372.506 1149.1 367.902 1144.89 365.09C1143.74 368.526 1142.64 371.791 1141.55 375.057ZM1114.05 449.563C1115.53 449.187 1117.07 449.22 1117.91 448.482C1119.06 447.473 1119.77 445.923 1120.41 444.493C1120.55 444.197 1119.64 443.069 1119.06 442.912C1117.34 442.452 1113.6 447.345 1114.05 449.563L1114.05 449.563ZM1112.52 478.961C1112.83 476.954 1113.15 474.946 1113.47 472.939C1112.45 473.064 1111 472.82 1110.51 473.384C1108.97 475.169 1108.33 477.199 1112.52 478.961ZM1089.46 687.563C1087.64 690.128 1085.62 692.174 1089.05 694.584C1091.7 692.557 1092.42 690.5 1089.46 687.563ZM1240.88 216.61C1242.77 215.56 1244.08 215.248 1244.53 214.459C1244.97 213.701 1244.5 212.448 1244.43 211.412C1243.43 211.63 1241.95 211.531 1241.53 212.139C1240.94 213 1241.14 214.382 1240.88 216.61ZM1126.73 385.073C1127.63 384.441 1128.76 383.925 1129.46 383.064C1130 382.388 1130.14 381.287 1130.16 380.369C1130.16 380.08 1128.88 379.407 1128.73 379.538C1128.01 380.127 1127.22 380.86 1126.95 381.695C1126.62 382.704 1126.78 383.869 1126.73 385.073ZM1333.05 437.585C1334.41 435.788 1335.41 434.471 1336.59 432.903C1331.52 432.676 1330.92 433.359 1333.05 437.585ZM1128.7 389.266C1124.82 390.418 1123.51 392.015 1126.2 395.713C1127.12 393.333 1127.84 391.489 1128.7 389.266Z" fill="#FFD0D2"/>
<path fill-rule="evenodd" clip-rule="evenodd" d="M1150.91 64.8542C1145.26 66.954 1143.06 72.6961 1145.19 78.2598C1147.33 83.8241 1153.21 87.6869 1158.86 85.5868C1164.51 83.4879 1166.87 76.5692 1164.74 71.0041C1162.61 65.4385 1156.57 62.7552 1150.91 64.8542ZM986.133 90.9565C980.48 93.0557 973.811 90.527 971.678 84.9631C969.544 79.3973 972.829 73.0896 978.483 70.9892C984.137 68.8919 990.451 71.6359 992.583 77.202C994.716 82.7664 991.788 88.8584 986.133 90.9565ZM981.726 217.196C976.072 219.294 968.968 216.715 966.837 211.15C964.704 205.586 968.182 198.706 973.836 196.606C979.49 194.509 985.98 197.687 988.113 203.251C990.245 208.816 987.379 215.097 981.726 217.196ZM996.129 246.57C993.997 241.004 987.006 238.512 981.352 240.612C975.698 242.71 972.05 249.151 974.182 254.718C976.315 260.282 983.556 263.217 989.211 261.118C994.865 259.02 998.262 252.134 996.129 246.57ZM908.766 252.744C910.898 258.308 908.613 263.811 902.958 265.91C897.304 268.008 890.982 265.702 888.851 260.137C886.717 254.571 889.826 248.495 895.479 246.396C901.134 244.296 906.632 247.178 908.766 252.744ZM968.653 183.079C974.306 180.98 977.783 174.045 975.65 168.48C973.518 162.915 966.358 160.237 960.702 162.335C955.049 164.434 952.298 170.792 954.431 176.357C956.564 181.922 962.997 185.178 968.653 183.079ZM935.426 140.566C933.293 135.001 936.369 129.338 942.022 127.239C947.677 125.14 953.748 127.407 955.88 132.974C958.013 138.538 955.035 144.344 949.381 146.441C943.728 148.541 937.558 146.132 935.426 140.566ZM959.24 260.264C957.106 254.698 949.91 251.85 944.257 253.948C938.602 256.048 935.284 262.8 937.415 268.365C939.549 273.931 946.399 276.393 952.054 274.294C957.707 272.195 961.371 265.828 959.24 260.264ZM878.806 283.241C880.939 288.804 878.74 294.547 873.085 296.646C867.432 298.745 861.394 296.062 859.261 290.497C857.129 284.931 859.487 278.013 865.14 275.914C870.795 273.814 876.673 277.676 878.806 283.241ZM907.514 216.794C905.382 211.229 899.028 208.287 893.375 210.386C887.721 212.486 884.923 218.824 887.057 224.389C889.188 229.954 895.769 233.486 901.422 231.387C907.077 229.289 909.647 222.359 907.514 216.794ZM1004.66 169.805C999.002 171.904 993.287 168.29 991.153 162.724C989.022 157.159 991.072 151.209 996.726 149.111C1002.38 147.012 1009.06 149.721 1011.19 155.285C1013.32 160.852 1010.31 167.707 1004.66 169.805ZM926.481 209.753C928.612 215.318 935.702 217.962 941.356 215.864C947.011 213.765 949.011 207.745 946.88 202.18C944.746 196.615 939.24 193.487 933.586 195.587C927.932 197.684 924.347 204.188 926.481 209.753ZM868.523 134.322C870.655 139.887 867.781 145.505 862.127 147.603C856.473 149.702 850.925 147.211 848.792 141.647C846.659 136.083 848.664 129.325 854.318 127.227C859.972 125.127 866.39 128.757 868.523 134.322ZM861.947 176.162C859.814 170.598 853.165 168.395 847.511 170.493C841.858 172.592 839.094 178.289 841.225 183.854C843.359 189.42 849.701 193.061 855.355 190.964C861.01 188.863 864.079 181.727 861.947 176.162ZM987.62 125.352C981.967 127.451 974.711 124.278 972.578 118.713C970.444 113.148 974.31 107.473 979.965 105.373C985.619 103.276 991.265 105.419 993.398 110.984C995.531 116.548 993.274 123.254 987.62 125.352ZM906.457 171.148C904.324 165.584 897.827 162.882 892.173 164.982C886.52 167.081 884.364 172.994 886.496 178.557C888.629 184.124 894.106 186.881 899.761 184.781C905.415 182.683 908.588 176.713 906.457 171.148ZM849.346 215.223C855 213.123 861.734 215.924 863.865 221.488C865.998 227.053 862.776 233.414 857.122 235.512C851.467 237.612 845.941 234.499 843.809 228.933C841.676 223.369 843.692 217.32 849.346 215.223ZM873.611 116.54C879.265 114.441 881.244 108.068 879.111 102.504C876.979 96.9378 871.414 93.9559 865.761 96.0536C860.106 98.1538 857.083 104.325 859.215 109.89C861.348 115.455 867.956 118.639 873.611 116.54ZM924.092 91.1916C929.747 89.094 935.334 91.3983 937.466 96.9645C939.599 102.529 937.424 109.127 931.77 111.226C926.116 113.326 919.154 110.119 917.023 104.554C914.889 98.9885 918.439 93.2904 924.092 91.1916ZM888.385 138.458C890.516 144.023 896.876 147.157 902.529 145.058C908.184 142.959 911.734 136.147 909.601 130.582C907.469 125.017 900.311 122.413 894.656 124.513C889.002 126.611 886.252 132.894 888.385 138.458ZM1037.87 270.545C1043.52 268.446 1050.19 270.975 1052.32 276.538C1054.46 282.104 1051.17 288.412 1045.52 290.512C1039.86 292.61 1033.55 289.866 1031.42 284.299C1029.28 278.735 1032.21 272.643 1037.87 270.545ZM1057.16 150.352C1055.03 144.787 1047.93 142.208 1042.27 144.306C1036.62 146.405 1033.76 152.685 1035.89 158.25C1038.02 163.815 1044.51 166.993 1050.16 164.895C1055.82 162.796 1059.3 155.916 1057.16 150.352ZM1042.65 120.89C1036.99 122.989 1030 120.498 1027.87 114.931C1025.74 109.367 1029.14 102.482 1034.79 100.384C1040.44 98.2841 1047.69 101.219 1049.82 106.784C1051.95 112.35 1048.3 118.792 1042.65 120.89ZM1121.04 95.5912C1115.39 97.691 1113.1 103.194 1115.23 108.757C1117.37 114.323 1122.87 117.206 1128.52 115.106C1134.17 113.007 1137.28 106.93 1135.15 101.364C1133.02 95.7995 1126.7 93.4933 1121.04 95.5912ZM1048.35 193.022C1046.22 187.457 1049.69 180.521 1055.35 178.423C1061 176.323 1067.44 179.58 1069.57 185.144C1071.7 190.709 1068.95 197.067 1063.3 199.166C1057.64 201.265 1050.48 198.587 1048.35 193.022ZM1081.98 234.261C1087.63 232.162 1090.71 226.499 1088.57 220.934C1086.44 215.368 1080.27 212.959 1074.62 215.059C1068.97 217.156 1065.99 222.962 1068.12 228.527C1070.25 234.093 1076.32 236.36 1081.98 234.261ZM1079.74 107.554C1074.09 109.651 1066.89 106.803 1064.76 101.238C1062.63 95.673 1066.29 89.3065 1071.95 87.2071C1077.6 85.1084 1084.45 87.5707 1086.59 93.1365C1088.72 98.7013 1085.4 105.454 1079.74 107.554ZM1130.62 151.116C1124.97 153.215 1118.62 150.272 1116.49 144.707C1114.35 139.142 1116.92 132.213 1122.58 130.114C1128.23 128.015 1134.81 131.547 1136.94 137.112C1139.08 142.678 1136.28 149.016 1130.62 151.116ZM1032.85 198.777C1030.71 193.212 1025 189.597 1019.34 191.696C1013.69 193.794 1010.68 200.65 1012.81 206.216C1014.94 211.78 1021.62 214.489 1027.27 212.39C1032.93 210.292 1034.98 204.342 1032.85 198.777ZM1082.64 145.637C1088.3 143.539 1095.39 146.183 1097.52 151.748C1099.65 157.314 1096.07 163.817 1090.41 165.915C1084.76 168.015 1079.25 164.886 1077.12 159.321C1074.99 153.756 1076.99 147.737 1082.64 145.637ZM1161.87 213.898C1156.22 215.996 1153.34 221.614 1155.48 227.18C1157.61 232.744 1164.03 236.375 1169.68 234.275C1175.34 232.177 1177.34 225.419 1175.21 219.854C1173.08 214.29 1167.53 211.799 1161.87 213.898ZM1176.49 191.008C1170.84 193.106 1164.19 190.903 1162.05 185.339C1159.92 179.774 1162.99 172.638 1168.65 170.537C1174.3 168.44 1180.64 172.081 1182.78 177.647C1184.91 183.211 1182.14 188.909 1176.49 191.008ZM1051.42 242.788C1049.29 237.224 1042.03 234.051 1036.38 236.15C1030.73 238.247 1028.47 244.953 1030.6 250.517C1032.74 256.082 1038.38 258.226 1044.04 256.128C1049.69 254.028 1053.56 248.354 1051.42 242.788ZM1131.83 196.52C1126.17 198.62 1119.68 195.918 1117.54 190.354C1115.41 184.789 1118.58 178.818 1124.24 176.72C1129.89 174.621 1135.37 177.377 1137.5 182.944C1139.64 188.508 1137.48 194.42 1131.83 196.52ZM1160.13 140.013C1162.27 145.578 1169 148.379 1174.65 146.279C1180.31 144.181 1182.32 138.133 1180.19 132.568C1178.06 127.002 1172.53 123.89 1166.88 125.99C1161.22 128.087 1158 134.449 1160.13 140.013ZM1144.89 258.997C1142.76 253.433 1144.74 247.06 1150.39 244.961C1156.04 242.863 1162.65 246.046 1164.79 251.612C1166.92 257.177 1163.89 263.348 1158.24 265.448C1152.59 267.546 1147.02 264.564 1144.89 258.997ZM1086.53 264.537C1088.67 270.103 1094.25 272.407 1099.91 270.31C1105.56 268.211 1109.11 262.513 1106.98 256.948C1104.85 251.383 1097.88 248.176 1092.23 250.275C1086.58 252.374 1084.4 258.973 1086.53 264.537ZM1121.47 216.444C1127.12 214.344 1133.48 217.479 1135.61 223.043C1137.75 228.608 1135 234.89 1129.34 236.988C1123.69 239.088 1116.53 236.484 1114.4 230.92C1112.27 225.354 1115.82 218.542 1121.47 216.444Z" fill="#FFD3D6"/>
<path d="M1288.84 -44.499C1288.84 -44.499 1289.03 -40.5776 1282.25 -34.811C1275.47 -29.044 1274.55 -23.2938 1277.83 -18.9695C1281.11 -14.6446 1284.52 -4.92563 1290.22 7.97065C1295.92 20.8668 1319.69 43.4424 1329.51 48.0148C1339.33 52.5864 1352.12 60.5999 1364.06 59.5072C1376.01 58.4141 1407.47 47.7173 1417.78 48.6622C1428.09 49.608 1444.78 50.3594 1444.81 45.4067C1444.83 40.4541 1443.65 35.4165 1434.47 27.6593C1425.29 19.9011 1417.71 6.65618 1413.25 -2.70554C1408.79 -12.0675 1394.47 -26.1093 1387.68 -30.4149C1380.88 -34.7212 1360.16 -46.9584 1349.01 -48.608C1337.87 -50.2586 1314.86 -43.9182 1306.06 -43.8949C1306.06 -43.8949 1291.89 -45.1063 1288.84 -44.499L1288.84 -44.499Z" fill="#FAADB2"/>
<path d="M1133.37 -16.7373C1133.37 -16.7373 1132.85 -0.490555 1131.27 9.5366C1129.7 19.5633 1131.85 42.2844 1138.28 49.4163C1144.71 56.5483 1157.98 73.9077 1173.81 77.7767C1189.64 81.6446 1192.43 80.9068 1198.39 81.151C1204.35 81.3938 1215.91 80.8523 1220.73 76.2872C1225.56 71.7225 1230.37 66.813 1232.39 61.9513C1234.41 57.0893 1237.72 46.3432 1236.14 36.0253C1234.56 25.7076 1233.26 11.5923 1224 3.47419C1214.75 -4.64389 1190.69 -18.0273 1174.55 -19.8214C1158.4 -21.6143 1147.34 -24.9376 1133.37 -16.7372L1133.37 -16.7373Z" fill="#FFD0D2"/>
<path d="M1280.59 74.9626C1280.59 74.9626 1268.73 74.778 1261.78 84.0295C1254.82 93.2815 1246.9 102.767 1250.59 113.507C1254.28 124.248 1263.44 132.16 1267.86 141.714C1272.28 151.268 1282 165.615 1289.37 168.395C1296.73 171.175 1301.1 170.128 1303.53 167.521C1305.97 164.914 1305.52 158.956 1310.88 151.601C1316.25 144.245 1321.59 128.493 1317.83 115.4C1314.07 102.307 1310.87 91.4497 1299.89 84.4798C1288.92 77.5105 1286.51 74.1269 1280.59 74.9626L1280.59 74.9626Z" fill="#FAADB2"/>
<path fill-rule="evenodd" clip-rule="evenodd" d="M1281.41 -20.2732C1284.24 -24.9224 1287.38 -27.1821 1290.2 -29.219C1293.66 -31.7052 1296.64 -33.8526 1299.2 -39.938C1302.16 -46.9466 1310.51 -55.706 1322.49 -59.4663C1330.48 -61.9732 1342.98 -63.1265 1357.13 -54.389C1383.6 -38.0411 1390.35 -19.7521 1399.44 18.0798C1403.52 35.0713 1410.41 46.5046 1414.97 54.0704C1418.68 60.2304 1420.73 63.6242 1419.09 66.4067L1419.06 66.4564C1417.67 68.7469 1414.35 69.1717 1409.79 69.1024C1400.46 68.9603 1392.76 67.7619 1385.31 66.6038C1376.49 65.2317 1368.16 63.9373 1357.16 64.1917L1356.52 64.2058C1340.57 64.5799 1322.5 65.0027 1306.08 42.6743C1290.55 21.5437 1272.94 -2.40657 1279.64 -16.9306C1280.21 -18.1689 1280.8 -19.2757 1281.41 -20.2732L1281.41 -20.2732ZM1300.85 -34.3764C1298.29 -30.1612 1295.39 -28.0747 1292.57 -26.0422C1289.23 -23.6411 1286.08 -21.3741 1283.28 -15.3031C1277.55 -2.86125 1295.16 21.107 1309.32 40.3667C1324.5 61.0185 1340.73 60.6383 1356.43 60.2709L1357.06 60.2555C1368.43 59.9924 1377.33 61.3769 1385.93 62.7152C1393.24 63.8525 1400.81 65.0281 1409.86 65.1661C1414.88 65.2425 1415.57 64.5127 1415.63 64.4288C1416.01 63.5063 1413.52 59.3888 1411.53 56.0787C1406.84 48.3072 1399.76 36.563 1395.54 18.9856C1386.53 -18.5639 1380.34 -35.4123 1355 -51.0538C1342.15 -58.9896 1330.89 -57.9692 1323.71 -55.716C1312.94 -52.3373 1305.5 -44.5988 1302.9 -38.4299C1302.25 -36.8839 1301.56 -35.5482 1300.85 -34.3764L1300.85 -34.3764Z" fill="#484848"/>
</g>
</g>
</svg>
