<svg xmlns="http://www.w3.org/2000/svg" width="402.728" height="342" viewBox="0 0 402.728 342"><defs><style>.a{opacity:0.1;mix-blend-mode:multiply;isolation:isolate;}.b{fill:#cb79b2;}</style></defs><g class="a" transform="translate(402.728) rotate(90)"><path class="b" d="M55.753,60.8c8.234.358,11.456-5.014,14.2-7.522s-.241-21.133-2.747-27.6S59.427,7.426,49.668,2.411s-23.68-.773-29.355,0C13.03,3.4,10.289,5.993,8.857,7.771A68.282,68.282,0,0,0,.623,24.242C-1.525,31.03,1.7,37.155,13.153,49.154S47.52,60.437,55.753,60.8" transform="translate(106.42 329.824)"/><path class="b" d="M.931,8.022c-2.661,2.6.954,21.113,3.678,27.492S13,53.488,22.925,58.169s23.692-.027,29.339-.992c7.245-1.239,9.9-3.919,11.267-5.745A68.31,68.31,0,0,0,71.2,34.692c1.917-6.856-1.509-12.869-13.364-24.474S23.112.1,14.871.024s-11.28,5.4-13.94,8" transform="translate(17.707 342.518)"/><path class="b" d="M12.405,10.811s-8.592,6.806-11.1,16.835S-.1,50.211,4.544,54.51s14.3,11.82,22.9,10.387S43.192,54.151,48.2,44.838s16.11-15.76,9.665-30.087C54.188,6.563,51.908,3.756,49.695,2.184A12.222,12.222,0,0,0,42.61,0h-8A27.954,27.954,0,0,0,14.159,8.912c-.62.666-1.208,1.3-1.753,1.9" transform="translate(280.854 319.186)"/><path class="b" d="M71.65,44.154c-3.814-2.191-4.419-11.42-9.073-21.807a33.965,33.965,0,0,0-2.422-4.474v.054C55.679,10.907,50.006,7.9,46.129,3.46,41.518-1.817,20.669.14,15.657,1.572S5.275,8.02,1.221,15.541c0,0-2.747,13.591,0,20.059s11.931,11.1,29.83,18.625c14.309,6.013,21.754,1.27,29.1-.784v.007a19.435,19.435,0,0,1,5.644-.835C75.463,52.792,75.463,46.345,71.65,44.154Z" transform="translate(194.663 325.412)"/><path class="b" d="M49.553,76.978c-1.782-9.791-2.6-12.394-.454-23.661.11-.578.187-1.178.256-1.782h0c1.3-11.159-4.03-26.363-10.14-34.548C32.776,8.36,21.205,6.955,18.372,4.194S13.483-1.52,11.773.889s-8.5,1.626-8.43,7.222A31.784,31.784,0,0,1,3.418,13.7c-.234,3.031-5.753,12-2.266,25.991C2.2,43.884,3.3,47.887,4.548,51.536h0c2.914,8.536,6.6,15.1,12.121,17.306,7.88,3.151,19.023,6.809,22.088,9.841S51.334,86.77,49.553,76.978Z" transform="translate(28.673 103.129)"/><path class="b" d="M21.241,66.436c1.834,1.218,3.834,2.427,6.04,3.68C40.7,77.743,50.156,85.065,55.391,78.9c1.5-1.77.824-7.457,3.977-10.334a22.964,22.964,0,0,0,1.965-2.129h0c4.477-5.376,12.63-18.13,9.246-29.151C66.589,24.29,56.839,10.305,44.154,5.009S23-2.729,15.3,4.534-4.515,23.087,1.726,39.814C6.942,53.79,11.915,60.242,21.241,66.436Z" transform="translate(89.458 86.758)"/><path class="b" d="M55.753,60.8c8.234.358,11.456-5.014,14.2-7.522s-.241-21.133-2.747-27.6S59.427,7.425,49.668,2.411s-23.68-.774-29.355,0C13.03,3.4,10.289,5.992,8.857,7.771A68.267,68.267,0,0,0,.623,24.242C-1.525,31.03,1.7,37.155,13.153,49.154S47.52,60.437,55.753,60.8" transform="translate(123.419 10.135)"/><path class="b" d="M.931,8.022c-2.661,2.6.954,21.113,3.678,27.492S13,53.487,22.925,58.169s23.692-.027,29.339-.993c7.245-1.238,9.9-3.919,11.267-5.745A68.3,68.3,0,0,0,71.2,34.692c1.917-6.857-1.509-12.869-13.364-24.474S23.112.1,14.871.024s-11.28,5.4-13.94,8" transform="translate(17.707 22.83)"/><path class="b" d="M52.222,70.727c-2.6,2.659-21.127-.954-27.51-3.676S6.726,58.663,2.041,48.746s.028-23.677.993-29.319c1.239-7.24,3.921-9.89,5.749-11.26A68.378,68.378,0,0,1,25.534.5c6.861-1.916,12.878,1.508,24.49,13.355S60.145,48.56,60.225,56.8s-5.4,11.272-8,13.931" transform="translate(223.232 0)"/><path class="b" d="M60.923,56.689c-.5-3,2.7-13.034-4.05-25.772S43.212,7.524,34.805,6.362,14.7,4.332,11,2.127-3.152-2.7.931,6.379s5.5,11.406,6.128,22.856,10,26.061,18.328,32.885,19.895,5.4,23.308,7.4,6.119,4.368,7.2,1.62,7.864-3.627,6.446-9.039a31.811,31.811,0,0,1-1.417-5.413" transform="translate(180.162 175.542)"/><path class="b" d="M78,39.362c-.416-2.139-4.977-4.972-5.237-8.969S68.278,8.539,56.425,3.852s-27.8-5.732-39.111.464S-.741,15.287.065,25.187c.456,5.593,1.03,12.97,4.307,19.272H4.48A22.515,22.515,0,0,0,17.945,55.606c15.9,5.222,23.71,4.392,37.157-.981,9.676-3.866,18.014-6.321,21.4-10.167h.182A5.834,5.834,0,0,0,78,39.362Z" transform="translate(32.77 268.825)"/><path class="b" d="M61.508,8.688C58.442,6.113,42.543.745,31.9.03S7.659,11.662,3.636,14.819C.3,17.438,2.324,20.669,2.1,21.779S.6,28.755.331,30.666s-1.017,6.843,1.292,8.573,7.331,9.549,15.683,18.03,24.424,4.875,32.637,1.317,24.108-6.854,30.723-7.613,3.459-7.51,1.992-12.885-18.086-26.826-21.15-29.4" transform="translate(94.896 187.974)"/><path class="b" d="M82.253,20.044A155.04,155.04,0,0,1,65.727,6.075C58.152-1.089,45.753-.172,37.146.343c-6.8.407-12.529,3.224-18.974,7.164S2.063,21.118.631,22.192.273,38.67,3.137,40.819s8.95,7.163,18.616,13.61a22.329,22.329,0,0,0,3.632,2h0c4.661,1.988,8.38,1.185,13.34,0h0a79.565,79.565,0,0,1,10.592-2C62.563,53,77.957,40.819,86.549,37.237S87.981,24.342,82.253,20.044Z" transform="translate(136.079 255.695)"/><path class="b" d="M82.2,20.057A155.01,155.01,0,0,1,65.684,6.079C58.114-1.09,45.723-.172,37.122.344,30.326.751,24.6,3.569,18.161,7.512S2.062,21.132.631,22.207.273,38.7,3.135,40.846s8.944,7.168,18.6,13.619a22.308,22.308,0,0,0,3.63,2h0c4.658,1.989,8.375,1.186,13.331,0h0a79.433,79.433,0,0,1,10.585-2c13.237-1.433,28.62-13.619,37.206-17.2S87.923,24.358,82.2,20.057Z" transform="translate(179.892 170.274) rotate(-90)"/><path class="b" d="M8.551,43.976c5.79,10.077,12.188,7.657,24.688,12.27s31.7.557,40.988,1.173,7.016-10.911,3.8-17.31a155.1,155.1,0,0,1-8.589-19.866c-3.6-9.788-15.113-14.486-23.049-17.855C40.114-.273,33.73-.3,26.207.359S5.728,5.379,3.968,5.7c-.82.151-2.533,3.326-3.968,7V27.758c1.863,3.838,4.611,9.36,8.551,16.218" transform="translate(0 192.133)"/><path class="b" d="M52.582,10.744C52.9,6.624,53.858,3,50.914,3.23S44.235-2.529,39.978,1.26a32.234,32.234,0,0,1-4.257,3.79c-2.482,1.831-12.908,3.37-21.446,15.5-2.307,3.278-4.455,6.492-6.333,9.612C2.16,38.946-1.469,47,.575,53.344,2.631,59.723,5.73,67.857,6.763,73.119a19.257,19.257,0,0,1,.255,2.9c-.42,4.3,2.007,14.85,9.131,7.229,4.451-4.76,6.777-7.441,10.614-10.132,0,0,.789-.541.906-.618,0,0,3.885-2.655,6.718-4.288,10.035-5.786,19.121-21.235,21.651-32.168S52.266,14.863,52.582,10.744Z" transform="translate(255.331 82.973)"/><path class="b" d="M63.006,15.817C56.92,5.43,53.7-.66,45.464.057S25.541,5.072,25.541,5.072c-4.152,1.779-7.524,5.18-11.178,8.671V13.7c-1.507,1.441-3.062,2.9-4.74,4.262C3.895,22.623-2.549,34.085,1.031,44.114,4.546,53.962,9.442,58.971,14.363,62.54v-.035c.105.077.209.159.315.234a28.1,28.1,0,0,0,9.011,3.991h0c3.427.86,7.016,1.062,9.882,0h0a8.3,8.3,0,0,0,2.584-1.484c5.37-4.656,20.406-10.029,24.7-18.268S69.092,26.2,63.006,15.817Z" transform="translate(250.744 245.116)"/><path class="b" d="M35.729,1.4c-10.423.1-18.721,9.361-24.563,15.7C6.55,22.12,4.375,28.124,2.463,35.434S.291,56.419.005,58.186s11.163,12.119,14.716,11.68,11.413-1.049,22.845-3.112,11.309-8.9,19.859-19.128,11.2-29.679,14.9-38.222C74.962,3.337,69.864.7,64.143,0H57.317A154.95,154.95,0,0,1,35.729,1.4" transform="translate(268.958 159.022)"/></g></svg>