<svg xmlns="http://www.w3.org/2000/svg" width="402.728" height="342" viewBox="0 0 402.728 342"><defs><style>.a{opacity:0.1;mix-blend-mode:multiply;isolation:isolate;}.b{fill:#cb79b2;}</style></defs><g class="a" transform="translate(0 342) rotate(-90)"><path class="b" d="M2183.985,1437.127c8.234.358,11.456-5.014,14.2-7.522s-.241-21.133-2.747-27.6-7.782-18.247-17.541-23.262-23.68-.773-29.355,0c-7.282.993-10.023,3.582-11.455,5.361a68.282,68.282,0,0,0-8.234,16.471c-2.148,6.788,1.074,12.913,12.53,24.912s34.366,11.283,42.6,11.641" transform="translate(-2021.812 -1046.508)"/><path class="b" d="M2015.006,1402.835c-2.661,2.6.954,21.113,3.678,27.492s8.394,17.974,18.317,22.655,23.692-.027,29.339-.992c7.245-1.239,9.9-3.919,11.267-5.745a68.31,68.31,0,0,0,7.673-16.74c1.917-6.856-1.509-12.869-13.364-24.474s-34.728-10.115-42.969-10.195-11.28,5.4-13.94,8" transform="translate(-1996.367 -1052.294)"/><path class="b" d="M2371.369,1371.655s-8.592,6.806-11.1,16.835-1.4,22.566,3.236,26.864,14.3,11.82,22.9,10.387,15.752-10.745,20.764-20.058,16.11-15.76,9.665-30.087c-3.682-8.187-5.962-10.995-8.175-12.567a12.222,12.222,0,0,0-7.084-2.184h-8a27.954,27.954,0,0,0-20.455,8.912c-.62.666-1.208,1.3-1.753,1.9" transform="translate(-2078.109 -1041.658)"/><path class="b" d="M2315.6,1414.063c-3.814-2.191-4.419-11.42-9.073-21.807a33.965,33.965,0,0,0-2.422-4.474v.054c-4.475-7.019-10.148-10.029-14.025-14.467-4.611-5.276-25.461-3.32-30.472-1.888s-10.382,6.448-14.437,13.969c0,0-2.747,13.591,0,20.059s11.931,11.1,29.83,18.625c14.309,6.013,21.754,1.27,29.1-.784v.007a19.435,19.435,0,0,1,5.644-.835C2319.415,1422.7,2319.415,1416.254,2315.6,1414.063Z" transform="translate(-2049.288 -1044.497)"/><path class="b" d="M2079.582,1150.927c-1.782-9.791-2.6-12.394-.454-23.661.11-.578.187-1.179.256-1.782h0c1.3-11.159-4.03-26.363-10.14-34.548-6.441-8.628-18.012-10.033-20.844-12.793s-4.889-5.714-6.6-3.305-8.5,1.626-8.43,7.222a31.784,31.784,0,0,1,.075,5.593c-.234,3.031-5.753,12-2.266,25.991,1.044,4.189,2.151,8.192,3.4,11.841h0c2.914,8.536,6.6,15.1,12.121,17.306,7.88,3.151,19.023,6.809,22.088,9.841S2081.362,1160.719,2079.582,1150.927Z" transform="translate(-2001.355 -970.82)"/><path class="b" d="M2127.156,1118.691c1.834,1.218,3.834,2.427,6.04,3.68,13.424,7.626,22.875,14.949,28.111,8.782,1.5-1.77.824-7.457,3.977-10.334a22.964,22.964,0,0,0,1.965-2.129h0c4.477-5.376,12.63-18.13,9.246-29.151-3.991-12.995-13.74-26.979-26.425-32.275s-21.151-7.739-28.853-.475-19.816,18.553-13.575,35.28c5.216,13.976,10.189,20.429,19.515,26.622Z" transform="translate(-2016.457 -965.497)"/><path class="b" d="M2183.985,1012.508c8.234.358,11.456-5.014,14.2-7.522s-.241-21.133-2.747-27.6-7.782-18.248-17.541-23.262-23.68-.774-29.355,0c-7.282.993-10.023,3.581-11.455,5.36a68.267,68.267,0,0,0-8.234,16.471c-2.148,6.788,1.074,12.913,12.53,24.912s34.366,11.283,42.6,11.641" transform="translate(-2004.812 -941.578)"/><path class="b" d="M2015.006,978.217c-2.661,2.6.954,21.113,3.678,27.492s8.394,17.973,18.317,22.655,23.692-.027,29.339-.993c7.245-1.238,9.9-3.919,11.267-5.745a68.3,68.3,0,0,0,7.673-16.739c1.917-6.857-1.509-12.869-13.364-24.474s-34.728-10.114-42.969-10.194-11.28,5.4-13.94,8" transform="translate(-1996.367 -947.365)"/><path class="b" d="M2306.193,1007.684c-2.6,2.659-21.127-.954-27.51-3.676s-17.986-8.388-22.671-18.3.028-23.677.993-29.32c1.239-7.24,3.921-9.89,5.749-11.26a68.378,68.378,0,0,1,16.75-7.668c6.861-1.916,12.878,1.508,24.49,13.355s10.121,34.705,10.2,42.941-5.4,11.272-8,13.931" transform="translate(-2030.74 -936.957)"/><path class="b" d="M2286.88,1227.529c-.5-3,2.7-13.034-4.05-25.772s-13.661-23.394-22.068-24.556-20.1-2.03-23.806-4.234-14.151-4.823-10.069,4.252,5.5,11.406,6.128,22.856,10,26.061,18.328,32.885,19.895,5.4,23.308,7.4,6.119,4.368,7.2,1.62,7.864-3.627,6.446-9.039a31.811,31.811,0,0,1-1.417-5.413" transform="translate(-2045.794 -995.297)"/><path class="b" d="M2113.987,1335.769c-.416-2.139-4.977-4.972-5.237-8.969s-4.483-21.855-16.336-26.542-27.8-5.732-39.111.464-18.055,10.971-17.249,20.871c.456,5.593,1.03,12.97,4.307,19.272h.108a22.515,22.515,0,0,0,13.465,11.147c15.9,5.222,23.71,4.392,37.157-.981,9.676-3.866,18.014-6.321,21.4-10.167h.182A5.834,5.834,0,0,0,2113.987,1335.769Z" transform="translate(-2003.218 -1027.581)"/><path class="b" d="M2173.883,1196.767c-3.066-2.575-18.965-7.943-29.605-8.658s-24.243,11.632-28.267,14.789c-3.339,2.619-1.312,5.85-1.533,6.96s-1.506,6.976-1.772,8.887-1.017,6.843,1.292,8.573,7.331,9.549,15.683,18.03,24.424,4.875,32.637,1.317,24.108-6.854,30.723-7.613,3.459-7.51,1.992-12.885-18.086-26.826-21.15-29.4" transform="translate(-2017.479 -1000.105)"/><path class="b" d="M2248,1299.024a155.04,155.04,0,0,1-16.526-13.969c-7.575-7.164-19.974-6.247-28.581-5.731-6.8.407-12.529,3.224-18.974,7.164s-16.109,13.611-17.542,14.685-.358,16.477,2.506,18.626,8.95,7.163,18.616,13.611a22.329,22.329,0,0,0,3.632,2h0c4.661,1.988,8.38,1.185,13.34,0h0a79.565,79.565,0,0,1,10.592-2c13.246-1.432,28.639-13.611,37.231-17.193S2253.731,1303.322,2248,1299.024Z" transform="translate(-2029.672 -1023.285)"/><path class="b" d="M82.2,20.057A155.011,155.011,0,0,1,65.684,6.079C58.114-1.09,45.723-.172,37.122.344,30.326.751,24.6,3.569,18.161,7.512S2.062,21.132.631,22.207.273,38.7,3.135,40.846s8.944,7.168,18.6,13.619a22.308,22.308,0,0,0,3.63,2h0c4.658,1.989,8.375,1.186,13.331,0h0a79.433,79.433,0,0,1,10.585-2c13.237-1.433,28.62-13.619,37.206-17.2S87.923,24.358,82.2,20.057Z" transform="translate(179.892 170.275) rotate(-90)"/><path class="b" d="M1996.863,1237.879c5.79,10.077,12.188,7.657,24.688,12.27s31.7.557,40.988,1.173,7.016-10.911,3.8-17.31a155.1,155.1,0,0,1-8.589-19.866c-3.6-9.788-15.113-14.486-23.049-17.855-6.272-2.662-12.655-2.69-20.178-2.029s-20.479,5.02-22.239,5.345c-.82.151-2.533,3.326-3.968,7v15.056c1.863,3.838,4.611,9.36,8.551,16.218" transform="translate(-1988.312 -1001.77)"/><path class="b" d="M2374.413,1057.811c.315-4.121,1.275-7.744-1.669-7.514s-6.679-5.759-10.936-1.97a32.234,32.234,0,0,1-4.257,3.79c-2.482,1.831-12.908,3.37-21.446,15.5-2.307,3.278-4.455,6.492-6.333,9.612-5.781,8.785-9.411,16.839-7.366,23.183,2.056,6.379,5.155,14.513,6.188,19.775a19.257,19.257,0,0,1,.255,2.9c-.42,4.3,2.007,14.85,9.131,7.229,4.451-4.76,6.777-7.441,10.614-10.132,0,0,.789-.541.906-.618,0,0,3.885-2.655,6.718-4.288,10.035-5.786,19.121-21.234,21.651-32.168S2374.1,1061.93,2374.413,1057.811Z" transform="translate(-2066.5 -964.094)"/><path class="b" d="M2378.163,1279.8c-6.086-10.387-9.308-16.476-17.542-15.76s-19.924,5.015-19.924,5.015c-4.152,1.779-7.524,5.18-11.178,8.671v-.038c-1.507,1.441-3.062,2.9-4.74,4.262-5.728,4.657-12.172,16.119-8.592,26.148,3.515,9.848,8.411,14.857,13.332,18.426v-.035c.105.077.209.159.315.234a28.1,28.1,0,0,0,9.011,3.991h0c3.427.86,7.016,1.062,9.882,0h0a8.3,8.3,0,0,0,2.584-1.484c5.37-4.656,20.406-10.029,24.7-18.268S2384.249,1290.186,2378.163,1279.8Z" transform="translate(-2064.413 -1018.865)"/><path class="b" d="M2377.386,1150.38c-10.423.1-18.721,9.361-24.563,15.7-4.616,5.013-6.791,11.017-8.7,18.327s-2.171,20.985-2.458,22.752,11.163,12.119,14.716,11.68,11.413-1.049,22.845-3.112,11.309-8.9,19.859-19.128,11.2-29.679,14.9-38.222c2.633-6.068-2.465-8.7-8.186-9.4h-6.826a154.95,154.95,0,0,1-21.588,1.4" transform="translate(-2072.698 -989.955)"/></g></svg>