<svg xmlns="http://www.w3.org/2000/svg" width="590.042" height="353.987" viewBox="0 0 590.042 353.987"><defs><style>.a{opacity:0.25;}.b{fill:#ff798f;}</style></defs><g class="a" transform="translate(0 0)"><path class="b" d="M3394.061,747.654c5.274,0,9.6,5,9.6,10.278a9.625,9.625,0,0,1-9.6,9.59,9.894,9.894,0,0,1-9.91-9.59c0-5.28,4.636-10.278,9.91-10.278" transform="translate(-3367.935 -696.204)"/><path class="b" d="M3468.631,805.561a9.882,9.882,0,0,1,9.891-9.6,9.6,9.6,0,0,1,0,19.187,9.878,9.878,0,0,1-9.891-9.591" transform="translate(-3291.907 -785.892)"/><path class="b" d="M3394.007,698.029c5.274,0,9.931,3.824,9.931,9.1a9.882,9.882,0,0,1-9.931,9.554c-5.274,0-10.229-4.274-10.229-9.554s4.955-9.1,10.229-9.1" transform="translate(-3367.886 -606.194)"/><path class="b" d="M3434.948,787.091c-5.274,0-9.494-4.934-9.494-10.214s4.22-10.282,9.494-10.282,9.939,5,9.939,10.282-4.666,10.214-9.939,10.214" transform="translate(-3322.694 -732.264)"/><path class="b" d="M3469.219,752.647c5.274,0,9.292,3.733,9.292,9.013a9.231,9.231,0,0,1-9.292,9.433,9.346,9.346,0,0,1-9.43-9.433c0-5.28,4.156-9.013,9.43-9.013" transform="translate(-3298.35 -704.122)"/><path class="b" d="M3501.537,759.065c5.274,0,9.292,3.733,9.292,9.013a9.231,9.231,0,0,1-9.292,9.433,9.346,9.346,0,0,1-9.43-9.433c0-5.28,4.156-9.013,9.43-9.013" transform="translate(-3275.321 -716.127)"/><path class="b" d="M3434.892,720.268c5.274,0,10.284,3.931,10.284,9.21s-5.01,9.313-10.284,9.313-9.873-4.033-9.873-9.313,4.6-9.21,9.873-9.21" transform="translate(-3322.879 -646.85)"/><path class="b" d="M3434.9,826.544c-5.274,0-9.854-4.991-9.854-10.27s4.58-10.109,9.854-10.109,9.427,4.829,9.427,10.109-4.154,10.27-9.427,10.27" transform="translate(-3323.015 -806.165)"/><path class="b" d="M3375.211,796.871c5.274,0,9.652,4.968,9.652,10.248s-4.378,8.8-9.652,8.8-9.566-3.522-9.566-8.8,4.292-10.248,9.566-10.248" transform="translate(-3365.54 -787.45)"/><path class="b" d="M3559.005,748.243a9.59,9.59,0,0,1,9.51,9.641c0,5.28-4.235,8.99-9.51,8.99s-9.219-3.71-9.219-8.99a9.349,9.349,0,0,1,9.219-9.641" transform="translate(-3234.215 -696.069)"/><path class="b" d="M3663.959,678.966a9.59,9.59,0,0,1,9.509,9.641c0,5.28-4.235,8.99-9.509,8.99s-9.22-3.71-9.22-8.99a9.349,9.349,0,0,1,9.22-9.641" transform="translate(-3122.057 -571.206)"/><path class="b" d="M3523.25,679.711a9.59,9.59,0,0,1,9.509,9.641c0,5.28-4.235,8.991-9.509,8.991s-9.22-3.71-9.22-8.991a9.349,9.349,0,0,1,9.22-9.641" transform="translate(-3259.695 -572.572)"/><path class="b" d="M3559.009,810.9c-5.274,0-9.2-5.013-9.2-10.293s3.921-9.939,9.2-9.939,8.99,4.659,8.99,9.939-3.715,10.293-8.99,10.293" transform="translate(-3234.485 -777.035)"/><path class="b" d="M3604.526,708.979c5.274,0,9.426,4.661,9.426,9.941a9.462,9.462,0,1,1-18.922,0c0-5.28,4.222-9.941,9.5-9.941" transform="translate(-3201.844 -627.113)"/><path class="b" d="M3512.576,802.322c5.274,0,9.078,4.788,9.078,10.068s-3.8,9.71-9.078,9.71a9.537,9.537,0,0,1-9.375-9.71c0-5.28,4.1-10.068,9.375-10.068" transform="translate(-3267.522 -798.375)"/><path class="b" d="M3695.452,767.246c0,5.28-4.683,10.295-9.957,10.295s-9.7-5.015-9.7-10.295a9.651,9.651,0,0,1,9.7-9.52c5.274,0,9.957,4.24,9.957,9.52" transform="translate(-3124.782 -714.991)"/><path class="b" d="M3635.738,773.083c0-5.28,3.751-9.569,9.025-9.569a9.558,9.558,0,0,1,0,19.1c-5.274,0-9.025-4.253-9.025-9.533" transform="translate(-3173.378 -725.105)"/><path class="b" d="M3523.426,738.946c-5.274,0-10.172-4.592-10.172-9.872s4.9-9.448,10.172-9.448a9.127,9.127,0,0,1,9.151,9.448c0,5.28-3.877,9.872-9.151,9.872" transform="translate(-3259.993 -646.443)"/><path class="b" d="M3685.513,719.6c5.274,0,10.033,3.54,10.033,8.82a10.265,10.265,0,0,1-10.033,9.891,9.868,9.868,0,0,1-9.579-9.891c0-5.28,4.3-8.82,9.579-8.82" transform="translate(-3124.8 -645.813)"/><path class="b" d="M3707.453,796.871c5.274,0,9.651,4.968,9.651,10.248s-4.377,8.8-9.651,8.8-9.566-3.522-9.566-8.8,4.292-10.248,9.566-10.248" transform="translate(-3127.641 -787.45)"/><path class="b" d="M3637.115,720.369c5.274,0,10.141,4.939,10.141,10.218s-4.867,9.225-10.141,9.225-8.792-3.945-8.792-9.225,3.518-10.218,8.792-10.218" transform="translate(-3178.092 -647.924)"/><path class="b" d="M3576.134,678.264c5.274,0,10.141,4.938,10.141,10.218s-4.867,9.224-10.141,9.224-8.792-3.945-8.792-9.224,3.518-10.218,8.792-10.218" transform="translate(-3221.583 -570.706)"/><path class="b" d="M3603.949,786.939c-5.274,0-8.908-3.845-8.908-9.125s3.634-9.966,8.908-9.966a10.374,10.374,0,0,1,10.079,9.966c0,5.28-4.8,9.125-10.079,9.125" transform="translate(-3201.793 -733.201)"/><path class="b" d="M3626.021,806.113a9.746,9.746,0,0,1,9.832,9.5c0,5.28-4.559,10.316-9.832,10.316s-9.639-5.036-9.639-10.316a9.577,9.577,0,0,1,9.639-9.5" transform="translate(-3186.215 -805.501)"/><path class="b" d="M3468.631,543.759a9.882,9.882,0,0,1,9.891-9.6,9.6,9.6,0,0,1,0,19.187,9.878,9.878,0,0,1-9.891-9.591" transform="translate(-3291.907 -306.184)"/><path class="b" d="M3492.2,507.04a9.882,9.882,0,0,1,9.891-9.6,9.6,9.6,0,0,1,0,19.187,9.878,9.878,0,0,1-9.891-9.591" transform="translate(-3275.081 -238.845)"/><path class="b" d="M3473.321,661.185c-5.274,0-9.956-4.959-9.956-10.239s4.682-9.392,9.956-9.392a9.642,9.642,0,0,1,9.813,9.392c0,5.28-4.539,10.239-9.813,10.239" transform="translate(-3295.504 -503.567)"/><path class="b" d="M3488.575,704.295c-5.274,0-9.956-4.959-9.956-10.239s4.682-9.392,9.956-9.392a9.642,9.642,0,0,1,9.813,9.392c0,5.28-4.539,10.239-9.813,10.239" transform="translate(-3284.588 -582.627)"/><path class="b" d="M3484.679,741.2c-5.274,0-9.956-4.959-9.956-10.239s4.682-9.392,9.956-9.392a9.642,9.642,0,0,1,9.813,9.392c0,5.28-4.539,10.239-9.813,10.239" transform="translate(-3287.375 -650.301)"/><path class="b" d="M3445.851,687.164c-5.274,0-9.944-3.775-9.944-9.055s4.67-9.441,9.944-9.441a9.18,9.18,0,0,1,9.223,9.441,8.861,8.861,0,0,1-9.223,9.055" transform="translate(-3315.278 -552.188)"/><path class="b" d="M3394.007,436.228c5.274,0,9.931,3.824,9.931,9.1a9.882,9.882,0,0,1-9.931,9.554c-5.274,0-10.229-4.274-10.229-9.554s4.955-9.1,10.229-9.1" transform="translate(-3367.886 -127.152)"/><path class="b" d="M3434.948,525.29c-5.274,0-9.494-4.934-9.494-10.214s4.22-10.282,9.494-10.282,9.939,5,9.939,10.282-4.666,10.214-9.939,10.214" transform="translate(-3322.694 -253.619)"/><path class="b" d="M3419.08,598.782c0,5.28-3.861,8.872-9.135,8.872s-9.359-3.592-9.359-8.872a9.537,9.537,0,0,1,9.359-9.725c5.274,0,9.135,4.445,9.135,9.725" transform="translate(-3370.062 -406.279)"/><path class="b" d="M3390.85,687.627a9.56,9.56,0,0,1-9.366-9.745c0-5.28,4.092-10.006,9.366-10.006s8.819,4.726,8.819,10.006-3.545,9.745-8.819,9.745" transform="translate(-3367.589 -551.955)"/><path class="b" d="M3476.724,597.567a9.117,9.117,0,0,1-9.162,9.424,9.684,9.684,0,0,1-9.831-9.424c0-5.28,4.557-9.144,9.831-9.144a8.884,8.884,0,0,1,9.162,9.144" transform="translate(-3299.744 -405.087)"/><path class="b" d="M3469.219,490.846c5.274,0,9.292,3.733,9.292,9.013a9.23,9.23,0,0,1-9.292,9.433,9.346,9.346,0,0,1-9.43-9.433c0-5.28,4.156-9.013,9.43-9.013" transform="translate(-3298.35 -226.008)"/><path class="b" d="M3434.892,458.466c5.274,0,10.284,3.931,10.284,9.21s-5.01,9.313-10.284,9.313-9.873-4.033-9.873-9.313,4.6-9.21,9.873-9.21" transform="translate(-3322.879 -168.615)"/><path class="b" d="M3477.085,472.565c-2.658-4.555-1.789-10.863,2.77-13.524s10.57-.367,13.228,4.188,1.494,10.56-3.066,13.222-10.273.669-12.932-3.885" transform="translate(-3287.034 -168.788)"/><path class="b" d="M3434.9,564.743c-5.274,0-9.854-4.991-9.854-10.27s4.58-10.109,9.854-10.109,9.427,4.829,9.427,10.109-4.154,10.27-9.427,10.27" transform="translate(-3323.015 -326.068)"/><path class="b" d="M3437.632,637.54c0,5.28-4.087,8.877-9.36,8.877s-10.289-3.6-10.289-8.877,5.014-9.375,10.289-9.375a9.239,9.239,0,0,1,9.36,9.375" transform="translate(-3372.313 -477.666)"/><path class="b" d="M3375.2,596.4a9.553,9.553,0,1,1,0-19.1c5.274,0,10.231,4.273,10.231,9.552s-4.957,9.552-10.231,9.552" transform="translate(-3365.524 -385.205)"/><path class="b" d="M3375.211,535.07c5.274,0,9.652,4.968,9.652,10.248s-4.378,8.8-9.652,8.8-9.566-3.522-9.566-8.8,4.292-10.248,9.566-10.248" transform="translate(-3365.54 -307.713)"/><path class="b" d="M3559.005,486.442a9.59,9.59,0,0,1,9.51,9.641c0,5.28-4.235,8.991-9.51,8.991s-9.219-3.71-9.219-8.991a9.349,9.349,0,0,1,9.219-9.641" transform="translate(-3234.215 -218.115)"/><path class="b" d="M3488.483,428.572a9.59,9.59,0,0,1,9.51,9.641c0,5.28-4.235,8.99-9.51,8.99s-9.219-3.71-9.219-8.99a9.349,9.349,0,0,1,9.219-9.641" transform="translate(-3284.47 -112.804)"/><path class="b" d="M3559.009,549.1c-5.274,0-9.2-5.013-9.2-10.293s3.921-9.939,9.2-9.939,8.99,4.659,8.99,9.939-3.715,10.293-8.99,10.293" transform="translate(-3234.485 -297.509)"/><path class="b" d="M3604.526,447.177c5.274,0,9.426,4.661,9.426,9.941a9.462,9.462,0,1,1-18.922,0c0-5.28,4.222-9.941,9.5-9.941" transform="translate(-3201.844 -148.497)"/><path class="b" d="M3523.632,417.724c5.274,0,9.426,4.661,9.426,9.941a9.462,9.462,0,1,1-18.922,0c0-5.28,4.222-9.941,9.5-9.941" transform="translate(-3259.536 -93.402)"/><path class="b" d="M3512.576,540.521c5.274,0,9.078,4.788,9.078,10.068s-3.8,9.71-9.078,9.71a9.537,9.537,0,0,1-9.375-9.71c0-5.28,4.1-10.068,9.375-10.068" transform="translate(-3267.522 -318.427)"/><path class="b" d="M3562.984,613.976c-5.274,0-10.1-3.585-10.1-8.865s4.827-9.3,10.1-9.3a9.139,9.139,0,0,1,9.32,9.3c0,5.28-4.046,8.865-9.32,8.865" transform="translate(-3231.63 -418.247)"/><path class="b" d="M3599.344,650.546c-5.274,0-10.3-3.879-10.3-9.158s5.025-9.574,10.3-9.574a9.506,9.506,0,0,1,9.478,9.574,9.159,9.159,0,0,1-9.478,9.158" transform="translate(-3205.555 -484.828)"/><path class="b" d="M3512.573,647.2a9.374,9.374,0,0,1-9.4-9.5c0-5.28,4.123-10.248,9.4-10.248s9.36,4.968,9.36,10.248a9.343,9.343,0,0,1-9.36,9.5" transform="translate(-3267.419 -477.814)"/><path class="b" d="M3695.452,505.444c0,5.28-4.683,10.3-9.957,10.3s-9.7-5.015-9.7-10.3a9.651,9.651,0,0,1,9.7-9.52c5.274,0,9.957,4.24,9.957,9.52" transform="translate(-3124.782 -236.678)"/><path class="b" d="M3673.673,426.21c0,5.28-4.684,10.3-9.958,10.3s-9.7-5.015-9.7-10.3a9.652,9.652,0,0,1,9.7-9.52c5.274,0,9.958,4.24,9.958,9.52" transform="translate(-3121.963 -91.762)"/><path class="b" d="M3556.083,661.145c-5.274,0-9.015-4.518-9.015-9.8s3.741-9.286,9.015-9.286,8.939,4.006,8.939,9.286-3.665,9.8-8.939,9.8" transform="translate(-3236.558 -503.963)"/><path class="b" d="M3635.738,511.281c0-5.28,3.751-9.568,9.025-9.568a9.558,9.558,0,0,1,0,19.1c-5.274,0-9.025-4.253-9.025-9.533" transform="translate(-3173.378 -246.588)"/><path class="b" d="M3632.451,668.932c-5.274,0-8.944-4.208-8.944-9.489s3.669-9.437,8.944-9.437,8.875,4.158,8.875,9.437-3.6,9.489-8.875,9.489" transform="translate(-3182.357 -518.38)"/><path class="b" d="M3707.437,596.4a9.553,9.553,0,1,1,0-19.1c5.274,0,10.231,4.273,10.231,9.552s-4.957,9.552-10.231,9.552" transform="translate(-3127.626 -385.205)"/><path class="b" d="M3523.426,477.144c-5.274,0-10.172-4.592-10.172-9.871s4.9-9.448,10.172-9.448a9.127,9.127,0,0,1,9.151,9.448c0,5.279-3.877,9.871-9.151,9.871" transform="translate(-3259.993 -168.211)"/><path class="b" d="M3685.513,457.8c5.274,0,10.033,3.54,10.033,8.82a10.266,10.266,0,0,1-10.033,9.892,9.869,9.869,0,0,1-9.579-9.892c0-5.28,4.3-8.82,9.579-8.82" transform="translate(-3124.8 -167.561)"/><path class="b" d="M3707.453,535.07c5.274,0,9.651,4.968,9.651,10.248s-4.377,8.8-9.651,8.8-9.566-3.522-9.566-8.8,4.292-10.248,9.566-10.248" transform="translate(-3127.641 -307.713)"/><path class="b" d="M3624.008,593.266c0,5.28-3.775,9.39-9.05,9.39s-10.262-4.11-10.262-9.39,4.989-9.035,10.262-9.035a8.7,8.7,0,0,1,9.05,9.035" transform="translate(-3194.679 -397.259)"/><path class="b" d="M3652.671,624.814c-5.274,0-9.149-4.746-9.149-10.025a9.022,9.022,0,0,1,9.149-9.325c5.274,0,10.249,4.045,10.249,9.325s-4.975,10.025-10.249,10.025" transform="translate(-3162.978 -437.106)"/><path class="b" d="M3637.115,458.568c5.274,0,10.141,4.939,10.141,10.218s-4.867,9.225-10.141,9.225-8.792-3.945-8.792-9.225,3.518-10.218,8.792-10.218" transform="translate(-3178.092 -169.725)"/><path class="b" d="M3663.585,580.5a9.684,9.684,0,0,1-9.514-9.744c0-5.28,4.24-8.895,9.514-8.895s9.249,3.615,9.249,8.895a9.463,9.463,0,0,1-9.249,9.744" transform="translate(-3121.971 -356.444)"/><path class="b" d="M3696.468,638.7a9.961,9.961,0,0,1-9.671-9.907c0-5.28,4.4-8.822,9.671-8.822s9.558,3.542,9.558,8.822a9.865,9.865,0,0,1-9.558,9.907" transform="translate(-3126.206 -463.108)"/><path class="b" d="M3598.452,572.524c0,5.28-4.677,8.895-9.952,8.895s-9.462-3.615-9.462-8.895a9.589,9.589,0,0,1,9.462-9.686,10.014,10.014,0,0,1,9.952,9.686" transform="translate(-3212.944 -358.177)"/><path class="b" d="M3603.949,525.137c-5.274,0-8.908-3.845-8.908-9.125s3.634-9.966,8.908-9.966a10.374,10.374,0,0,1,10.079,9.966c0,5.28-4.8,9.125-10.079,9.125" transform="translate(-3201.793 -254.523)"/><path class="b" d="M3576.777,435.533c-5.274,0-8.908-3.845-8.908-9.125s3.634-9.966,8.908-9.966a10.374,10.374,0,0,1,10.079,9.966c0,5.28-4.8,9.125-10.079,9.125" transform="translate(-3221.177 -90.572)"/><path class="b" d="M3626.021,544.311a9.746,9.746,0,0,1,9.832,9.5c0,5.28-4.559,10.316-9.832,10.316s-9.639-5.036-9.639-10.316a9.577,9.577,0,0,1,9.639-9.5" transform="translate(-3186.215 -325.412)"/><path class="b" d="M3512.557,583.527c5.274,0,9.01,4.315,9.01,9.6s-3.736,10-9.01,10-9.507-4.724-9.507-10a9.549,9.549,0,0,1,9.507-9.6" transform="translate(-3267.605 -397.119)"/><path class="b" d="M3445.851,425.361c-5.274,0-9.944-3.775-9.944-9.055s4.67-9.441,9.944-9.441a9.18,9.18,0,0,1,9.223,9.441,8.861,8.861,0,0,1-9.223,9.055" transform="translate(-3315.278 -72.065)"/><path class="b" d="M3390.85,425.825a9.56,9.56,0,0,1-9.366-9.745c0-5.28,4.092-10.006,9.366-10.006s8.819,4.726,8.819,10.006-3.545,9.745-8.819,9.745" transform="translate(-3367.589 -71.838)"/></g></svg>