<svg width="99" height="72" fill="none" xmlns="http://www.w3.org/2000/svg"><path fill-rule="evenodd" clip-rule="evenodd" d="M49.049 76.35c-3.623.583-7.19-1.171-7.96-3.92-.77-2.742 1.549-5.45 5.168-6.034 3.617-.584 7.184 1.177 7.951 3.92.77 2.745-1.548 5.452-5.16 6.033m1.687 6.033c8.013-1.293 13.128-7.266 11.427-13.35-1.704-6.077-9.582-9.958-17.594-8.668-8.018 1.292-13.125 7.271-11.424 13.35 1.704 6.08 9.576 9.958 17.591 8.668M85.312 27.462c-3.623.587-7.19-1.17-7.96-3.919-.77-2.743 1.549-5.447 5.169-6.034 3.617-.581 7.184 1.177 7.95 3.919.77 2.745-1.548 5.453-5.159 6.034m1.687 6.032c8.012-1.293 13.128-7.266 11.424-13.35-1.702-6.077-9.582-9.959-17.591-8.669-8.019 1.293-13.125 7.272-11.424 13.353 1.704 6.077 9.576 9.959 17.59 8.666M55.102 43.838c-3.623.587-7.187-1.171-7.96-3.92-.766-2.742 1.552-5.45 5.172-6.034 3.614-.58 7.18 1.177 7.95 3.92.77 2.745-1.548 5.453-5.162 6.034m1.69 6.031c8.01-1.293 13.128-7.266 11.424-13.35-1.702-6.077-9.582-9.958-17.594-8.668-8.016 1.292-13.125 7.271-11.427 13.352 1.707 6.078 9.578 9.96 17.597 8.666M16.233 58.63c-3.623.586-7.19-1.172-7.96-3.92-.767-2.742 1.552-5.453 5.169-6.034 3.616-.584 7.183 1.177 7.953 3.92.767 2.745-1.548 5.452-5.162 6.033m1.687 6.033c8.012-1.295 13.128-7.268 11.426-13.352-1.704-6.078-9.581-9.959-17.593-8.67C3.737 43.935-1.372 49.914.326 55.99c1.707 6.081 9.578 9.962 17.594 8.672M25.58 17.064c-3.623.584-7.19-1.171-7.96-3.92-.77-2.742 1.55-5.45 5.169-6.034 3.617-.584 7.184 1.177 7.95 3.92.77 2.745-1.548 5.453-5.159 6.034m1.687 6.031c8.013-1.293 13.128-7.266 11.427-13.35C36.99 3.669 29.112-.213 21.1 1.077 13.082 2.37 7.975 8.348 9.676 14.426c1.705 6.08 9.576 9.962 17.591 8.67" fill="#03567A"/></svg>