<svg width="184" height="182" viewBox="0 0 184 182" fill="none" xmlns="http://www.w3.org/2000/svg">
<path d="M106.12 149.776C108.244 149.158 144.37 131.847 144.37 115.957V73.0039C133.742 73.0039 109.859 64.2602 106.139 58.512H106.054C102.337 64.2602 78.454 73.0039 67.8262 73.0039V115.957C67.8262 131.847 103.949 149.158 106.076 149.776H106.12Z" stroke="#FEB1A1" stroke-width="3" stroke-linecap="round" stroke-linejoin="round"/>
<path d="M59.0971 83.1901C56.3832 82.3675 53.9177 80.8805 51.924 78.8639C49.9304 76.8473 48.4717 74.3649 47.6803 71.6418C46.8888 68.9187 46.7898 66.0412 47.392 63.2701C47.9942 60.499 49.2787 57.9222 51.1289 55.7732C52.9791 53.6242 55.3365 51.9711 57.9873 50.9638C60.6382 49.9566 63.4985 49.627 66.3089 50.005C69.1194 50.383 71.791 51.4567 74.0814 53.1286C76.3719 54.8004 78.2088 57.0177 79.4254 59.5792" stroke="#FEB1A1" stroke-width="3" stroke-linecap="round" stroke-linejoin="round"/>
<path d="M67.8335 40.3586L69.6146 28.325" stroke="#FEB1A1" stroke-width="3" stroke-linecap="round" stroke-linejoin="round"/>
<path d="M49.8969 44.0312L43.5269 33.6647" stroke="#FEB1A1" stroke-width="3" stroke-linecap="round" stroke-linejoin="round"/>
<path d="M38.5185 58.3721L26.978 54.5266" stroke="#FEB1A1" stroke-width="3" stroke-linecap="round" stroke-linejoin="round"/>
<path d="M39.0225 76.6765L27.7065 81.1477" stroke="#FEB1A1" stroke-width="3" stroke-linecap="round" stroke-linejoin="round"/>
<path d="M51.1703 90.3698L45.3779 101.071" stroke="#FEB1A1" stroke-width="3" stroke-linecap="round" stroke-linejoin="round"/>
<path d="M83.9336 49.0728L93.0342 40.9989" stroke="#FEB1A1" stroke-width="3" stroke-linecap="round" stroke-linejoin="round"/>
<path d="M153.14 150.615L151.679 149.158" stroke="#FEB1A1" stroke-width="3" stroke-linecap="round" stroke-linejoin="round"/>
<path d="M145.268 142.744L143.811 141.286" stroke="#FEB1A1" stroke-width="3" stroke-linecap="round" stroke-linejoin="round"/>
<path d="M143.811 150.615L145.268 149.158" stroke="#FEB1A1" stroke-width="3" stroke-linecap="round" stroke-linejoin="round"/>
<path d="M151.679 142.744L153.14 141.286" stroke="#FEB1A1" stroke-width="3" stroke-linecap="round" stroke-linejoin="round"/>
</svg>
