<svg width="171" height="170" viewBox="0 0 171 170" fill="none" xmlns="http://www.w3.org/2000/svg">
<path d="M159.375 88.6931L164.107 90.9071L159.08 92.3291L159.375 88.6931ZM157.699 92.7307L154.821 93.5728L154.694 95.1356L166.02 91.8649L166.149 90.2702L155.501 85.2003L155.373 86.7791L158.077 88.0741L157.699 92.7307Z" fill="#E76E68"/>
<path d="M156.205 104.143C154.653 103.754 154.351 102.589 154.608 101.565C154.857 100.572 155.719 100.161 156.93 100.464L161.027 101.491L161.381 100.079L157.191 99.0288C155.161 98.5037 153.733 99.2013 153.277 101.017C153.079 101.809 153.194 102.926 153.955 103.579L152.868 103.306L152.514 104.719L159.762 106.535L160.116 105.123L156.205 104.143Z" fill="#E76E68"/>
<path d="M153.053 112.914L152.433 113.764C152.103 114.215 151.672 114.536 151.177 114.31C150.682 114.083 150.503 113.521 150.721 112.883C150.879 112.429 151.117 112.113 151.418 111.893C151.717 111.637 152.123 111.583 152.436 111.663L152.954 110.44C151.52 109.886 150.182 110.831 149.658 112.069C149.053 113.499 149.311 115.067 150.593 115.609C151.374 115.939 152.393 115.953 153.352 114.673L154.032 113.762C154.285 113.452 154.57 113.19 154.906 113.176C155.099 113.171 155.261 113.24 155.457 113.392C155.782 113.651 155.852 114.184 155.64 114.685C155.415 115.216 154.95 115.575 154.404 115.431L153.861 116.713C155.311 117.187 156.324 116.312 156.816 115.148C157.334 113.925 157.031 112.546 156.073 112.019C154.855 111.366 153.922 111.805 153.053 112.914Z" fill="#E76E68"/>
<path d="M152.448 123.554L154.889 124.959L155.616 123.698L153.175 122.293L153.846 121.128L152.779 120.513L152.108 121.678L146.7 118.565L145.973 119.826L151.381 122.94L150.59 124.312L151.658 124.927L152.448 123.554Z" fill="#E76E68"/>
<path d="M144.441 127.209C146.046 128.376 146.93 129.771 146.083 130.935C145.904 131.181 145.617 131.467 145.226 131.677L146.194 132.658C146.433 132.575 146.879 132.207 147.19 131.78C147.764 130.99 147.761 130.098 146.926 129.016L148.284 130.004L149.141 128.826L143.098 124.432L142.241 125.609L144.441 127.209Z" fill="#E76E68"/>
<path d="M134.697 134.493L133.701 135.533L139.1 140.699L140.096 139.659L139.286 138.885C140.242 139.113 141.307 138.626 142.026 137.875C143.442 136.395 143.562 134.096 141.84 132.448C140.129 130.81 137.813 131.008 136.397 132.487C135.677 133.238 135.26 134.345 135.53 135.289L134.697 134.493ZM137.425 137.081C136.28 135.986 136.418 134.523 137.337 133.564C138.266 132.593 139.759 132.516 140.822 133.533C141.897 134.562 141.838 136.012 140.909 136.982C140.079 137.849 138.581 138.187 137.425 137.081Z" fill="#E76E68"/>
<path d="M137.96 147.115L130.641 138.199L129.515 139.122L136.835 148.039L137.96 147.115Z" fill="#E76E68"/>
<path d="M125.284 142.308L126.463 141.482L130.749 147.603L129.569 148.429L125.284 142.308ZM132.563 149.693C132.251 149.247 131.641 149.185 131.196 149.497C130.737 149.818 130.599 150.403 130.911 150.848C131.223 151.294 131.82 151.365 132.278 151.044C132.724 150.732 132.875 150.138 132.563 149.693Z" fill="#E76E68"/>
<path d="M116.718 147.417L115.447 148.093L118.96 154.688L120.231 154.012L119.704 153.023C120.541 153.538 121.704 153.408 122.622 152.92C124.43 151.957 125.262 149.81 124.142 147.706C123.028 145.616 120.767 145.08 118.959 146.043C118.041 146.531 117.299 147.452 117.259 148.434L116.718 147.417ZM118.5 150.728C117.755 149.33 118.343 147.984 119.515 147.36C120.702 146.728 122.144 147.12 122.836 148.42C123.535 149.733 123.026 151.091 121.84 151.723C120.781 152.287 119.252 152.14 118.5 150.728Z" fill="#E76E68"/>
<path d="M111.067 154.27C111.568 155.773 110.753 156.668 109.751 157.002C108.779 157.325 107.955 156.824 107.56 155.64L106.226 151.632C106.013 151.703 105.072 152.016 104.844 152.092L106.209 156.191C106.871 158.179 108.227 159.01 109.988 158.424C110.762 158.166 111.658 157.463 111.8 156.472L112.154 157.534L113.536 157.075L111.175 149.985L109.793 150.445L111.067 154.27Z" fill="#E76E68"/>
<path d="M85.6794 163.043C85.7804 164.784 86.9943 165.819 88.8312 165.713L92.9843 165.472L92.3464 154.467L87.8419 154.728C85.8133 154.845 84.7005 156.384 84.7996 158.093C84.8635 159.195 85.691 160.478 86.9358 160.662C85.9207 161.122 85.6257 162.116 85.6794 163.043ZM91.218 160.991L91.4032 164.186L88.9113 164.33C87.921 164.387 87.2497 163.865 87.1941 162.907C87.1423 162.012 87.5921 161.201 88.5664 161.145L91.218 160.991ZM88.2509 159.849C87.1328 159.913 86.3848 158.899 86.3339 158.02C86.2802 157.094 86.9002 156.177 87.9864 156.114L90.9254 155.943L91.1421 159.681L88.2509 159.849Z" fill="#E76E68"/>
<path d="M77.5579 154.137C75.4451 153.883 73.4808 155.21 73.1985 157.562C72.9161 159.913 74.5161 161.619 76.6289 161.873C78.7417 162.127 80.6844 160.845 80.9667 158.494C81.2491 156.143 79.6708 154.39 77.5579 154.137ZM77.3901 155.535C78.7245 155.695 79.7182 156.813 79.537 158.322C79.3577 159.816 78.1331 160.619 76.7987 160.459C75.4643 160.299 74.4648 159.228 74.6441 157.735C74.8253 156.226 76.0556 155.374 77.3901 155.535Z" fill="#E76E68"/>
<path d="M65.697 159.655L64.9809 162.379L66.3891 162.749L67.1052 160.025L68.4051 160.367L68.7184 159.175L67.4185 158.834L69.0054 152.799L67.5972 152.429L66.0103 158.464L64.4783 158.061L64.165 159.253L65.697 159.655Z" fill="#E76E68"/>
<path d="M57.0969 148.752L55.7665 148.201L52.9065 155.104L54.2369 155.655L54.6656 154.62C54.7993 155.593 55.6392 156.408 56.6001 156.806C58.4923 157.59 60.6793 156.868 61.5918 154.665C62.4982 152.477 61.4748 150.391 59.5826 149.608C58.6217 149.21 57.4389 149.222 56.656 149.816L57.0969 148.752ZM55.6725 152.231C56.2788 150.768 57.6923 150.366 58.9193 150.874C60.161 151.388 60.7743 152.751 60.2109 154.111C59.6413 155.485 58.2686 155.956 57.0269 155.442C55.9182 154.983 55.0601 153.71 55.6725 152.231Z" fill="#E76E68"/>
<path d="M48.247 148.739C47.4063 150.082 46.1969 150.023 45.3018 149.463C44.4338 148.92 44.2954 147.965 44.9577 146.907L47.1995 143.327C47.0096 143.208 46.1687 142.682 45.9653 142.555L43.6726 146.216C42.5602 147.993 42.7828 149.567 44.3562 150.551C45.0479 150.984 46.1604 151.227 47.0157 150.706L46.4213 151.655L47.6555 152.427L51.6211 146.094L50.3868 145.322L48.247 148.739Z" fill="#E76E68"/>
<path d="M41.3803 139.035L42.5002 139.94L37.8011 145.749L36.6812 144.844L41.3803 139.035ZM36.2944 148.07C36.6365 147.647 36.5272 147.045 36.1041 146.703C35.6686 146.351 35.0687 146.38 34.7265 146.803C34.3844 147.226 34.4813 147.818 34.9168 148.17C35.3399 148.512 35.9523 148.493 36.2944 148.07Z" fill="#E76E68"/>
<path d="M34.8984 138.409C36.5913 136.753 36.4249 134.364 34.9365 132.843C34.1307 132.02 33.083 131.59 32.0415 131.624L32.1615 133.073C32.8066 133.069 33.4487 133.336 33.9299 133.828C34.87 134.788 34.9664 136.328 33.8912 137.38C32.816 138.431 31.3242 138.257 30.3841 137.296C29.9029 136.805 29.6382 136.168 29.6451 135.535L28.2095 135.395C28.1529 136.435 28.5715 137.48 29.3661 138.292C30.8546 139.813 33.2056 140.065 34.8984 138.409Z" fill="#E76E68"/>
<path d="M27.5636 123.923L26.7292 122.749L20.6382 127.077L21.4727 128.251L22.3857 127.602C21.9818 128.497 22.2601 129.634 22.8628 130.482C24.0496 132.151 26.2862 132.701 28.2296 131.32C30.1599 129.949 30.4014 127.638 29.2146 125.968C28.6119 125.121 27.6032 124.503 26.6246 124.59L27.5636 123.923ZM24.5079 126.114C25.7991 125.196 27.2101 125.607 27.9796 126.689C28.7584 127.784 28.5542 129.264 27.3543 130.117C26.1413 130.979 24.7282 130.648 23.9494 129.553C23.2541 128.575 23.2036 127.04 24.5079 126.114Z" fill="#E76E68"/>
<path d="M14.5493 124.753L24.692 119.257L23.998 117.977L13.8552 123.473L14.5493 124.753Z" fill="#E76E68"/>
<path d="M18.0753 113.217L17.909 112.178C17.8211 111.627 17.8968 111.094 18.4063 110.903C18.9157 110.711 19.441 110.98 19.7403 111.584C19.952 112.016 20.0088 112.408 19.9525 112.776C19.9232 113.169 19.6763 113.495 19.3984 113.66L19.9022 114.889C21.3053 114.263 21.5768 112.647 21.067 111.403C20.4783 109.967 19.1838 109.045 17.8957 109.573C17.111 109.894 16.3831 110.608 16.6165 112.189L16.7836 113.314C16.8256 113.712 16.811 114.098 16.5843 114.346C16.4518 114.487 16.289 114.554 16.0426 114.586C15.63 114.634 15.2023 114.307 14.9959 113.804C14.7774 113.271 14.8497 112.688 15.3376 112.402L14.8096 111.114C13.4516 111.809 13.359 113.143 13.8384 114.313C14.3421 115.542 15.5342 116.298 16.5835 115.989C17.9053 115.586 18.2507 114.615 18.0753 113.217Z" fill="#E76E68"/>
<path d="M12.7915 100.298L14.1654 100.074L13.2687 94.5784L11.8949 94.8024L12.7915 100.298Z" fill="#E76E68"/>
<path d="M11.626 81.3078L6.89398 79.0948L11.922 77.6718L11.626 81.3078ZM13.3032 77.2699L16.181 76.4274L16.3083 74.8645L4.98136 78.1374L4.85153 79.7321L15.4994 84.7997L15.628 83.2209L12.9241 81.9265L13.3032 77.2699Z" fill="#E76E68"/>
<path d="M14.8449 65.6653C16.3954 66.0602 16.6928 67.2256 16.432 68.2489C16.1791 69.2412 15.3157 69.6487 14.1063 69.3407L10.013 68.2983L9.65341 69.7092L13.8398 70.7753C15.867 71.3081 17.2983 70.6159 17.7606 68.8019C17.9621 68.0111 17.8508 66.8931 17.0931 66.2378L18.1785 66.5142L18.538 65.1033L11.2972 63.2593L10.9376 64.6702L14.8449 65.6653Z" fill="#E76E68"/>
<path d="M18.0307 56.8632L18.6539 56.0159C18.9855 55.566 19.418 55.2462 19.912 55.4747C20.4059 55.7031 20.5829 56.2659 20.3629 56.9027C20.2037 57.3566 19.9644 57.672 19.6621 57.8908C19.3619 58.1453 18.9564 58.1983 18.6433 58.1167L18.1213 59.3378C19.5526 59.8971 20.8943 58.9566 21.4226 57.7208C22.0327 56.2938 21.7812 54.7248 20.5011 54.1779C19.7213 53.8447 18.7023 53.8269 17.7391 55.1031L17.055 56.0114C16.8011 56.3205 16.5156 56.5813 16.1794 56.5942C15.9861 56.5987 15.8242 56.5295 15.6287 56.3764C15.3049 56.1162 15.2372 55.5827 15.451 55.0825C15.6774 54.5529 16.1435 54.1952 16.6899 54.3417L17.2371 53.0618C15.789 52.5823 14.7729 53.4531 14.2761 54.6153C13.754 55.8364 14.0516 57.2163 15.0081 57.7467C16.2231 58.405 17.1577 57.9692 18.0307 56.8632Z" fill="#E76E68"/>
<path d="M18.4752 46.5582L16.0348 45.1531L15.308 46.4147L17.7484 47.8198L17.0775 48.9843L18.1452 49.5991L18.8161 48.4345L24.2238 51.548L24.9506 50.2864L19.5429 47.1729L20.3336 45.8004L19.2659 45.1856L18.4752 46.5582Z" fill="#E76E68"/>
<path d="M26.4735 42.8882C24.8689 41.7214 23.9844 40.3264 24.8316 39.162C25.0105 38.9162 25.2976 38.6304 25.6883 38.4199L24.7201 37.439C24.4813 37.5225 24.0353 37.8906 23.7246 38.3175C23.1504 39.1067 23.1538 39.9994 23.989 41.0815L22.6302 40.0935L21.7735 41.2708L27.8167 45.6652L28.6734 44.4879L26.4735 42.8882Z" fill="#E76E68"/>
<path d="M36.4256 35.3687L37.4253 34.3322L32.0459 29.1464L31.0462 30.1828L31.8525 30.9602C30.8976 30.7286 29.8313 31.2118 29.1092 31.9604C27.6874 33.4344 27.5594 35.7334 29.2758 37.388C30.9806 39.0314 33.2972 38.8423 34.719 37.3683C35.4411 36.6197 35.8624 35.5147 35.5962 34.5691L36.4256 35.3687ZM33.7075 32.7706C34.8479 33.87 34.7047 35.332 33.7827 36.2878C32.8496 37.2551 31.3571 37.3275 30.2973 36.3059C29.226 35.2732 29.2902 33.8238 30.2233 32.8565C31.0564 31.9929 32.5556 31.6601 33.7075 32.7706Z" fill="#E76E68"/>
<path d="M33.146 22.767L40.4332 31.7099L41.5622 30.7905L34.2749 21.8476L33.146 22.767Z" fill="#E76E68"/>
<path d="M45.5143 27.8109L44.3344 28.6363L40.0492 22.5152L41.2291 21.6897L45.5143 27.8109ZM38.2349 20.4259C38.5469 20.8715 39.1565 20.9332 39.6023 20.6214C40.0611 20.3003 40.1988 19.7158 39.8868 19.2702C39.5748 18.8245 38.9783 18.7537 38.5195 19.0747C38.0737 19.3865 37.923 19.9802 38.2349 20.4259Z" fill="#E76E68"/>
<path d="M54.0585 22.6779L55.3296 22.0013L51.8167 15.4065L50.5456 16.0832L51.0722 17.0717C50.2356 16.5563 49.0722 16.6863 48.1541 17.175C46.3463 18.1374 45.514 20.2843 46.6348 22.3884C47.7481 24.4784 50.0097 25.0145 51.8175 24.0522C52.7355 23.5635 53.4777 22.6427 53.5169 21.6612L54.0585 22.6779ZM52.2766 19.3669C53.0213 20.7649 52.4332 22.1112 51.261 22.7352C50.0746 23.3668 48.6328 22.9743 47.9407 21.6751C47.2412 20.3618 47.7502 19.0032 48.9366 18.3717C49.9959 17.8078 51.5244 17.9548 52.2766 19.3669Z" fill="#E76E68"/>
<path d="M59.7174 15.7764C59.2169 14.2735 60.0319 13.3784 61.0338 13.045C62.0055 12.7216 62.8301 13.2229 63.2244 14.407L64.5589 18.4146C64.7715 18.3439 65.7127 18.0306 65.9404 17.9548L64.5755 13.8561C63.9133 11.8675 62.5575 11.0371 60.7965 11.6232C60.0222 11.8808 59.1264 12.5837 58.9844 13.5752L58.6305 12.5126L57.249 12.9724L59.6098 20.0616L60.9913 19.6019L59.7174 15.7764Z" fill="#E76E68"/>
<path d="M85.3203 6.94914C85.2261 5.20769 84.0162 4.16748 82.1788 4.2668L78.0249 4.49134L78.6204 15.4992L83.1258 15.2557C85.1548 15.146 86.2736 13.6114 86.1811 11.9019C86.1215 10.7995 85.2988 9.51404 84.0548 9.32491C85.0717 8.86936 85.3704 7.87579 85.3203 6.94914ZM79.7739 8.97948L79.601 5.78415L82.0934 5.64942C83.084 5.59588 83.7533 6.12052 83.8051 7.07912C83.8535 7.97381 83.4006 8.78344 82.426 8.83612L79.7739 8.97948ZM82.7365 10.1332C83.8549 10.0728 84.5989 11.0901 84.6465 11.9688C84.6966 12.8955 84.0731 13.8105 82.9867 13.8692L80.047 14.0281L79.8448 10.2896L82.7365 10.1332Z" fill="#E76E68"/>
<path d="M93.0573 15.7926C95.1701 16.0469 97.1338 14.72 97.4153 12.3688C97.6968 10.0176 96.0965 8.31016 93.9837 8.05589C91.871 7.80162 89.9289 9.08274 89.6473 11.4339C89.3658 13.7851 90.9446 15.5384 93.0573 15.7926ZM93.2247 14.3946C91.8903 14.234 90.8963 13.1152 91.077 11.606C91.2558 10.1127 92.48 9.3092 93.8144 9.46979C95.1488 9.63039 96.1485 10.7015 95.9697 12.1949C95.789 13.7041 94.5591 14.5552 93.2247 14.3946Z" fill="#E76E68"/>
<path d="M105.023 10.2473L105.739 7.52384L104.331 7.15379L103.615 9.87722L102.315 9.53564L102.002 10.7271L103.302 11.0687L101.715 17.1036L103.123 17.4736L104.71 11.4388L106.242 11.8413L106.555 10.6498L105.023 10.2473Z" fill="#E76E68"/>
<path d="M113.897 21.2265L115.225 21.7823L118.111 14.89L116.783 14.3342L116.35 15.3673C116.22 14.3936 115.383 13.5752 114.424 13.1737C112.534 12.3832 110.345 13.0973 109.424 15.2963C108.51 17.4806 109.525 19.5706 111.414 20.3611C112.374 20.7626 113.557 20.7546 114.342 20.1638L113.897 21.2265ZM115.334 17.752C114.722 19.2131 113.307 19.6097 112.082 19.097C110.843 18.5782 110.234 17.2137 110.803 15.8559C111.378 14.4834 112.752 14.0178 113.992 14.5366C115.099 14.9999 115.952 16.2762 115.334 17.752Z" fill="#E76E68"/>
<path d="M122.724 21.2059C123.57 19.8665 124.779 19.9294 125.672 20.4929C126.538 21.0393 126.673 21.9946 126.007 23.0499L123.752 26.6216C123.941 26.7411 124.78 27.2705 124.983 27.3985L127.289 23.7456C128.408 21.9732 128.191 20.3986 126.622 19.4083C125.932 18.9729 124.82 18.7255 123.963 19.2441L124.561 18.2971L123.329 17.5202L119.34 23.8384L120.572 24.6153L122.724 21.2059Z" fill="#E76E68"/>
<path d="M129.575 30.903L128.459 29.9937L133.179 24.2014L134.296 25.1107L129.575 30.903ZM134.694 21.8862C134.351 22.3079 134.458 22.911 134.879 23.2545C135.314 23.6081 135.914 23.5809 136.257 23.1592C136.601 22.7375 136.506 22.1445 136.072 21.7909C135.65 21.4474 135.038 21.4645 134.694 21.8862Z" fill="#E76E68"/>
<path d="M136.018 31.4808C134.325 33.1366 134.492 35.5254 135.98 37.0462C136.786 37.8695 137.834 38.2995 138.875 38.2656L138.755 36.8163C138.11 36.8206 137.468 36.5534 136.987 36.0617C136.046 35.1012 135.95 33.5616 137.025 32.5099C138.1 31.4583 139.592 31.6329 140.532 32.5934C141.014 33.0851 141.278 33.7215 141.271 34.3549L142.707 34.495C142.764 33.4549 142.345 32.4095 141.55 31.5977C140.062 30.0769 137.711 29.825 136.018 31.4808Z" fill="#E76E68"/>
<path d="M143.527 46.1897L144.358 47.3664L150.464 43.0607L149.634 41.8841L148.719 42.5295C149.126 41.6355 148.852 40.4976 148.252 39.6478C147.071 37.9744 144.837 37.416 142.888 38.7898C140.953 40.1543 140.703 42.4644 141.884 44.1379C142.483 44.9876 143.49 45.6093 144.469 45.5259L143.527 46.1897ZM146.591 44.01C145.297 44.9228 143.887 44.507 143.121 43.4219C142.347 42.3237 142.556 40.8446 143.759 39.9964C144.976 39.139 146.387 39.4748 147.162 40.573C147.854 41.5535 147.899 43.088 146.591 44.01Z" fill="#E76E68"/>
<path d="M156.565 45.4204L146.402 50.8788L147.092 52.1614L157.255 46.7029L156.565 45.4204Z" fill="#E76E68"/>
<path d="M152.892 56.6727L153.059 57.7112C153.147 58.2631 153.071 58.7955 152.562 58.9869C152.052 59.1783 151.527 58.9094 151.227 58.3058C151.016 57.8738 150.959 57.4821 151.015 57.1132C151.045 56.7208 151.291 56.3949 151.569 56.2292L151.066 55.0004C149.662 55.6271 149.391 57.2427 149.901 58.4862C150.489 59.9222 151.784 60.8443 153.072 60.3166C153.857 59.9952 154.585 59.282 154.351 57.7004L154.184 56.5758C154.142 56.178 154.157 55.7917 154.383 55.5432C154.516 55.4025 154.679 55.3357 154.925 55.304C155.338 55.256 155.765 55.5822 155.972 56.0855C156.19 56.6185 156.118 57.2014 155.63 57.4877L156.158 58.7757C157.516 58.081 157.609 56.7463 157.129 55.5767C156.626 54.348 155.434 53.5914 154.384 53.9002C153.062 54.3034 152.717 55.2749 152.892 56.6727Z" fill="#E76E68"/>
<path d="M158.264 69.9265L156.889 70.1452L157.765 75.6439L159.14 75.4252L158.264 69.9265Z" fill="#E76E68"/>
<path d="M108.539 123.32L108.544 123.314C109.299 122.411 109.844 121.34 110.132 120.214C110.305 119.353 109.968 118.467 109.249 117.925L109.139 117.858C108.106 117.222 106.95 116.902 105.792 116.902C104.824 116.902 103.852 117.125 102.944 117.577C102.385 117.877 102.058 118.488 102.127 119.14C102.142 119.232 102.351 120.553 102.881 121.968C103.157 122.703 103.509 123.434 103.944 124.025C104.381 124.618 104.865 125.022 105.395 125.195L108.539 123.32ZM108.539 123.32L108.534 123.326M108.539 123.32L108.534 123.326M108.534 123.326C108.164 123.789 107.7 124.274 107.176 124.638C106.653 125.002 106.109 125.219 105.558 125.22M108.534 123.326L105.558 125.22M105.558 125.22C105.493 125.219 105.439 125.209 105.395 125.195L105.558 125.22Z" fill="white" stroke="#E76E68" stroke-width="1.5"/>
<path d="M91.9186 103.852C91.4229 101.345 83.1021 98.4749 79.8904 98.4749H79.8879C77.0105 98.6514 74.2049 99.316 71.5483 100.456C71.2241 100.599 70.3196 101.127 69.1716 101.804C64.1005 104.783 58.9435 107.692 56.4294 107.465L91.9186 103.852ZM91.9186 103.852C92.1886 105.218 94.569 110.323 97.4123 112.107L91.9186 103.852ZM51.9789 101.271C52.1126 99.4345 48.7092 93.1103 47.5486 91.423L51.9789 101.271ZM51.9789 101.271C51.9209 101.969 51.7594 102.648 51.4996 103.292L51.9789 101.271ZM120.877 81.8081C121.527 82.5453 122.007 83.0906 122.311 83.4998L122.535 83.8033H122.54C123.415 85.05 123.841 86.1599 124.027 87.3104C124.232 88.5785 124.153 89.9314 123.992 91.6586C123.637 95.4221 122.509 97.3759 120.595 100.286C120.271 100.77 119.909 101.237 119.511 101.68L119.506 101.686L119.501 101.691C118.52 102.828 117.428 104.113 115.391 108.826L115.391 108.826C113.61 112.955 109.626 113.447 106.625 113.787C106.272 113.826 105.988 113.853 105.708 113.84L105.708 113.84L105.7 113.839C102.912 113.737 100.18 112.915 97.807 111.469C96.544 110.675 95.3144 109.084 94.3466 107.442C93.3767 105.796 92.7648 104.265 92.6544 103.707L92.6544 103.707C92.5573 103.216 92.2839 102.779 91.9533 102.405C91.6189 102.026 91.1887 101.669 90.708 101.337C89.7464 100.673 88.5048 100.055 87.2047 99.5283C84.6263 98.4833 81.6382 97.7249 79.8904 97.7249H79.8879H79.8649L79.842 97.7263C76.8787 97.9081 73.9886 98.5927 71.2525 99.7668L71.2525 99.7668L71.2465 99.7694C70.8693 99.9352 69.9094 100.498 68.7912 101.158C66.2537 102.648 63.7225 104.105 61.5177 105.16C60.4157 105.688 59.4125 106.107 58.5435 106.38C57.6616 106.656 56.9794 106.762 56.4969 106.718L56.4962 106.718C56.3135 106.702 56.1001 106.695 55.8213 106.688C55.1742 106.67 54.3513 106.645 53.6037 106.444C52.864 106.244 52.3385 105.911 52.0869 105.382C51.8733 104.83 51.8944 104.201 52.1753 103.618L52.186 103.595L52.1951 103.573C52.4831 102.858 52.6621 102.106 52.7263 101.333H52.7264L52.7269 101.325C52.7518 100.984 52.6937 100.598 52.6047 100.218C52.5132 99.8282 52.3765 99.3941 52.2113 98.9389C51.8808 98.0279 51.4196 96.987 50.9241 95.9641C49.9366 93.9256 48.7769 91.8853 48.1665 90.998L48.1665 90.9979C48.1668 90.9984 48.1648 90.9955 48.1604 90.9883C48.1561 90.9814 48.1504 90.9718 48.1432 90.9592C48.1286 90.9337 48.1102 90.8999 48.0881 90.857C48.0438 90.7712 47.9892 90.6582 47.926 90.5192C47.7998 90.2415 47.6453 89.8733 47.4779 89.436C47.1431 88.5608 46.7627 87.4249 46.4562 86.2039C46.1489 84.98 45.9209 83.6912 45.8797 82.5045C45.8381 81.306 45.9899 80.2841 46.3752 79.5408L46.3754 79.5404C46.917 78.494 48.0423 77.6017 49.4859 76.8225C50.915 76.0511 52.5422 75.4489 53.9743 74.9206L53.9777 74.9193L54.9074 74.5713L54.9075 74.5712C56.953 73.8049 58.7947 72.6501 60.4267 71.0832L60.4584 71.0528L60.4863 71.0189C62.5766 68.4803 64.5471 65.797 66.3574 63.0196L66.3657 63.0068L66.3735 62.9936C66.3735 62.9936 66.3781 62.986 66.3898 62.9697C66.4012 62.9539 66.4167 62.9334 66.4372 62.9078C66.4785 62.8563 66.5336 62.792 66.6032 62.7154C66.7424 62.5622 66.9267 62.3738 67.1465 62.1616C67.5857 61.7377 68.1494 61.2359 68.7424 60.7561C69.3376 60.2745 69.9477 59.827 70.4815 59.5037C70.7487 59.3419 70.9834 59.2194 71.1781 59.1391C71.3597 59.0642 71.4661 59.0432 71.511 59.0391C72.3115 59.0935 73.0682 59.434 73.6668 60.0303L73.6825 60.0459L73.699 60.0606C73.9565 60.2884 74.2343 60.5011 74.5316 60.6888C74.532 60.689 74.5323 60.6892 74.5326 60.6894L75.15 61.0816L75.8864 61.5494L76.2384 60.7512L76.5349 60.0791L76.5358 60.077C76.7459 59.5966 76.9064 59.0963 77.0201 58.5582L77.0236 58.5417L77.0264 58.525C77.175 57.623 77.878 56.4225 78.8092 55.3242C79.263 54.7889 79.7481 54.305 80.2034 53.923C80.6678 53.5333 81.0639 53.2811 81.3401 53.1697C81.6893 53.031 82.3073 52.9582 83.5524 53.0846C84.779 53.2092 86.5103 53.5136 89.0175 54.0339L89.0191 54.0342C89.3603 54.1042 89.8299 54.2 90.0664 54.2363L90.098 54.2412L90.1299 54.2433C90.8568 54.2923 91.5329 54.3792 92.0703 54.5733C92.5977 54.7637 92.8989 55.0218 93.0378 55.3637L93.0379 55.3641C93.1733 55.6968 93.1468 56.0156 92.9368 56.4309C92.7101 56.879 92.3058 57.3644 91.7592 57.9674C91.2475 58.4835 90.7907 59.0572 90.3998 59.6689L90.3991 59.67L90.1342 60.0862L89.8193 60.5809L90.2234 61.0058L90.564 61.3639L90.5641 61.3639C91.7531 62.614 93.1158 63.6827 94.565 64.5083C96.0141 65.5207 97.6186 66.2556 99.3339 66.69C99.3342 66.6901 99.3346 66.6902 99.3349 66.6903L99.6567 66.7729L100.043 66.8721L100.341 66.6072L100.591 66.3854C100.591 66.3853 100.591 66.3853 100.591 66.3853C100.684 66.3026 100.833 66.1673 100.986 65.9017C101.126 65.6598 101.255 65.3339 101.382 64.8699C101.634 63.9459 101.908 62.352 102.176 59.4984C102.401 57.0982 102.64 55.1697 103.137 53.8429C103.382 53.1896 103.667 52.7463 103.988 52.4681C104.291 52.2052 104.67 52.0508 105.203 52.0508C105.382 52.0508 105.541 52.1484 105.616 52.2662C106.037 53.0551 106.416 53.8843 106.74 54.716C107.175 55.9017 107.727 57.0499 108.432 58.204L108.459 58.2478L108.491 58.2875C109.106 59.0397 109.845 60.4834 110.658 62.3519C111.46 64.1931 112.298 66.3607 113.128 68.5078C114.016 71.0045 115.062 73.4753 116.276 75.9189L116.296 75.9585L116.32 75.9954C117.655 78.0394 119.177 79.9812 120.877 81.8081Z" fill="white" stroke="#E76E68" stroke-width="1.5"/>
</svg>
