<svg width="152" height="36" fill="none" xmlns="http://www.w3.org/2000/svg"><path fill-rule="evenodd" clip-rule="evenodd" d="M-14.937-12.51c.038.27.145.453.265.453.13 0 .2.148.2.419 0 .279.07.418.209.418.139 0 .208.14.208.419 0 .278.07.418.21.418.114 0 .208.12.208.268 0 .287.979 1.213 1.497 1.416.172.067.313.187.313.265 0 .08.25.143.557.143.403 0 .557.059.557.21 0 .178.397.209 2.732.209 2.564 0 2.727-.016 2.665-.252-.055-.21.003-.242.35-.19.288.041.457-.01.545-.167a.507.507 0 0 1 .403-.228c.151 0 .312-.094.356-.21.044-.114.17-.209.278-.209.11 0 .235-.094.279-.209.044-.115.167-.21.274-.21.107 0 .194-.093.194-.208a.21.21 0 0 1 .209-.21c.115 0 .209-.087.209-.194 0-.107.094-.23.209-.274.293-.114.267-.75-.035-.835-.134-.038-.056-.059.174-.046.397.023.42-.005.46-.576.027-.362.124-.63.244-.678.302-.116.294-3.925-.008-4.041-.137-.053-.209-.27-.209-.628s-.072-.575-.209-.628c-.115-.044-.209-.194-.209-.334a.77.77 0 0 0-.208-.463c-.115-.116-.21-.253-.21-.306 0-.136-1.056-1.178-1.201-1.185-.067-.003-.275-.191-.463-.418-.188-.227-.415-.413-.505-.413-.09 0-.241-.094-.337-.21-.095-.114-.338-.21-.539-.213a1.256 1.256 0 0 1-.636-.21c-.395-.298-3.728-.294-3.976.006-.1.12-.403.209-.714.209-.387 0-.54.059-.54.209 0 .14-.139.21-.417.21-.279 0-.418.069-.418.208a.21.21 0 0 1-.209.21.21.21 0 0 0-.209.209c0 .115-.062.21-.139.21-.18 0-.696.515-.696.697 0 .076-.094.139-.209.139-.116 0-.209.124-.209.279 0 .155-.093.279-.209.279a.21.21 0 0 0-.209.21c0 .114-.061.208-.136.208-.075 0-.177.173-.228.384-.05.21-.186.493-.302.628-.215.247-.372 3.73-.216 4.812Zm3.522-2.616c.073 0 .173-.217.223-.483.05-.265.178-.556.285-.645.107-.088.194-.221.194-.295 0-.174.938-1.087 1.116-1.087.076 0 .137-.067.137-.148 0-.081.063-.109.14-.061.076.047.139.02.139-.062 0-.252 2.32-.192 2.417.062.044.115.24.209.433.209.22 0 .352.078.352.209 0 .115.063.21.14.21.18 0 .696.516.696.697 0 .076.094.14.209.14.139 0 .208.139.208.418 0 .279.07.418.21.418.12 0 .208.126.208.296 0 .239.038.265.196.133.152-.126.221-.122.302.018.057.1.052.134-.01.077-.228-.206-.488.222-.488.803 0 .401-.068.622-.209.676-.131.05-.209.264-.209.573 0 .345-.062.493-.208.493a.21.21 0 0 0-.21.209c0 .129-.13.21-.34.21-.188 0-.392.078-.453.174-.16.25-.988.662-1.33.662-.16 0-.403.102-.54.225-.228.208-.266.208-.473 0-.124-.123-.41-.225-.637-.225-.462 0-1.684-1.079-1.857-1.639-.053-.172-.155-.314-.227-.314-.071 0-.13-.145-.13-.322 0-.177-.091-.444-.204-.593-.229-.303-.286-1.038-.08-1.038ZM15.395-.25c.145.056.208.284.208.753 0 .412.081.753.209.882.115.115.209.363.209.55 0 .188.094.42.209.516.115.095.209.318.209.495s.081.405.181.506c.1.101.224.294.274.428.051.135.158.244.236.244.08 0 .144.085.144.188 0 .104.11.32.244.482.134.16.369.45.522.642.153.192.357.352.452.356.096.004.174.1.174.216 0 .115.088.209.194.209.107 0 .23.094.274.209.044.115.169.21.277.21.107 0 .274.093.37.208.095.116.278.21.408.21.13 0 .416.188.636.418.22.23.482.419.583.419.1 0 .182.094.182.209 0 .14.14.209.418.209.279 0 .418.07.418.21 0 .153.16.208.611.208.41 0 .638.068.69.206.118.305 6.635.303 6.635-.003 0-.147.173-.203.631-.203.433 0 .657-.065.711-.209.046-.117.253-.209.473-.209.217 0 .487-.094.602-.21.115-.114.307-.208.428-.208.12 0 .219-.095.219-.21 0-.13.131-.209.352-.209.194 0 .389-.094.433-.21.044-.114.167-.208.274-.208.106 0 .194-.094.194-.21 0-.115.117-.209.26-.209.312 0 1.828-1.424 1.828-1.716 0-.114.094-.243.21-.287a.35.35 0 0 0 .208-.304c0-.123.098-.322.218-.442.146-.146.206-.42.181-.822-.02-.333.007-.648.06-.702.054-.053.098.044.098.217 0 .418.334.301.395-.14.027-.185.144-.444.261-.576.132-.147.174-.334.11-.488-.069-.168-.123-.192-.167-.075-.036.096-.13.174-.21.174-.088 0-.077-.081.027-.208.095-.114.228-.173.296-.13.068.042.123-.048.123-.2 0-.151.079-.301.174-.333.124-.041.188-.562.22-1.79.025-.953.103-1.792.174-1.865.212-.219.147-2.063-.085-2.37-.112-.15-.204-.533-.204-.855 0-.349-.084-.653-.209-.757a.629.629 0 0 1-.209-.419.629.629 0 0 0-.209-.418.643.643 0 0 1-.209-.432c0-.141-.188-.396-.417-.567-.23-.17-.418-.392-.418-.492 0-.1-.094-.183-.209-.183-.13 0-.209-.132-.209-.353 0-.194-.094-.39-.209-.433-.114-.045-.209-.162-.209-.26 0-.258-1.108-1.465-1.343-1.465-.108 0-.233-.094-.277-.209-.044-.115-.167-.21-.274-.21-.107 0-.194-.093-.194-.208a.215.215 0 0 0-.219-.21c-.12 0-.313-.094-.427-.209a.768.768 0 0 0-.463-.21c-.14 0-.29-.093-.334-.208-.05-.13-.261-.21-.557-.21-.295 0-.507-.08-.557-.209-.058-.153-.3-.21-.905-.21-.604 0-.846-.055-.905-.208-.063-.165-.347-.21-1.323-.21s-1.26-.045-1.322-.209c-.059-.153-.3-.209-.903-.209-.561 0-.878.067-.996.21-.11.132-.418.208-.841.208-.757 0-1.143.11-1.03.294.043.069-.148.125-.423.125-.316 0-.53.077-.58.21-.044.114-.19.208-.327.208a.63.63 0 0 0-.42.21c-.095.115-.26.209-.365.209-.105 0-.191.094-.191.21 0 .139-.14.208-.418.208-.279 0-.418.07-.418.21 0 .115-.087.209-.194.209-.107 0-.23.094-.274.209-.044.115-.167.21-.273.21-.262 0-1.487 1.207-1.487 1.466a.209.209 0 0 1-.209.207c-.114 0-.208.088-.208.194 0 .107-.094.23-.21.275-.114.044-.208.243-.208.442 0 .237.055.327.16.261.098-.06.124-.038.066.056-.053.085-.187.12-.299.077-.12-.046-.244.027-.302.18a2.07 2.07 0 0 1-.358.538c-.45.481-.938 1.605-.938 2.156 0 .3-.09.604-.209.703-.171.143-.209.621-.209 2.672 0 2.091.034 2.51.21 2.578Zm3.55-3.175c0-1.256.036-1.517.209-1.517.15 0 .209-.156.209-.563 0-.37.07-.589.208-.642.12-.046.21-.254.21-.484 0-.266.07-.403.208-.403.115 0 .209-.11.209-.245 0-.262 1.43-1.848 1.668-1.848.078 0 .142-.094.142-.209 0-.115.087-.21.194-.21.107 0 .23-.093.274-.208.044-.115.232-.21.418-.21.186 0 .373-.094.418-.209.047-.123.255-.209.506-.209.25 0 .46-.086.507-.21.054-.142.277-.208.696-.208.419 0 .642-.067.696-.21.065-.168.383-.209 1.65-.209 1.225 0 1.607.046 1.742.21.106.127.41.209.783.209.45 0 .61.055.61.209 0 .14.139.209.417.209.279 0 .418.07.418.21 0 .139.14.208.418.208.278 0 .417.07.417.21 0 .115.094.209.21.209.114 0 .208.068.208.15 0 .165.849 1.267 1.356 1.761.173.169.315.378.315.463 0 .092.113.12.278.067.16-.051.279-.025.279.06 0 .082-.047.133-.104.114-.256-.085-.043.765.235.937.08.05.147.268.147.484 0 .216.094.471.21.567.3.25.297 4.265-.005 4.664-.113.15-.205.44-.205.648 0 .207-.094.413-.208.457-.115.044-.21.24-.21.434 0 .22-.078.353-.208.353a.21.21 0 0 0-.209.209c0 .115-.059.21-.13.21-.071 0-.174.14-.229.313-.106.34-1.059 1.36-1.27 1.36-.07 0-.31.188-.53.418-.22.23-.482.419-.582.419-.1 0-.183.094-.183.21 0 .139-.14.208-.418.208-.278 0-.417.07-.417.21 0 .14-.141.209-.434.209-.345 0-.421.05-.37.244.073.281-3.074.295-3.247.014-.048-.078-.472-.177-.942-.22-.469-.042-.924-.162-1.01-.267-.087-.104-.31-.19-.494-.19s-.371-.094-.415-.209c-.044-.115-.23-.21-.413-.21-.183 0-.334-.064-.334-.143 0-.079-.096-.18-.213-.226-.557-.214-2.432-2.09-2.432-2.434 0-.07-.094-.125-.209-.125-.13 0-.209-.132-.209-.353 0-.194-.09-.388-.2-.43-.11-.043-.243-.276-.295-.519-.052-.243-.143-.505-.204-.581-.165-.21-.254-.787-.191-1.238.03-.221.055-1.084.055-1.918Zm5.134-10.714c.15.006.116.053-.096.138-.194.078-.282.194-.222.292.064.103.04.124-.067.058-.222-.137.065-.5.385-.488ZM38.09-30.922c.151.134.178.39.114 1.076-.065.705-.034.976.145 1.25.126.192.228.59.228.885 0 .295.092.658.205.807.112.15.206.467.209.707.002.24.098.515.213.61.115.096.209.313.209.484 0 .17.125.424.278.562a.986.986 0 0 1 .279.64c0 .246.126.486.348.66.212.168.348.417.348.638 0 .23.077.364.209.364.139 0 .209.14.209.418 0 .28.07.419.208.419.131 0 .21.132.21.353 0 .194.093.39.208.433.115.044.21.168.21.275 0 .107.093.194.208.194.13 0 .209.132.209.353 0 .194.094.39.209.433.114.045.209.168.209.275 0 .107.093.194.208.194.139 0 .21.139.21.409 0 .225.093.503.208.618.115.115.209.278.209.363 0 .084.094.19.209.234.115.044.209.167.209.274 0 .107.065.195.146.195.08 0 .212.188.292.418.08.23.203.419.271.419.07 0 .126.094.126.209 0 .191.17.273.463.222.063-.01.072.05.02.134-.052.084.037.276.198.427.162.15.294.336.294.413 0 .076.188.322.417.547.23.225.418.474.418.554 0 .079.094.144.209.144.115 0 .209.096.209.214 0 .117.094.25.209.293.115.044.209.174.209.288 0 .257 2.726 2.97 2.984 2.97.104 0 .224.095.269.21.043.115.176.21.293.21.117 0 .213.094.213.209 0 .127.13.209.333.209.184 0 .37.094.414.21.044.114.176.208.293.208.117 0 .213.094.213.21 0 .115.074.209.163.209.09 0 .427.276.75.613.322.337.731.66.91.716.177.056.408.188.513.293.105.105.304.191.444.191s.29.094.334.21c.044.114.212.209.373.209.16 0 .386.094.501.209.115.115.397.209.627.209.23 0 .511.094.626.21.124.123.464.208.836.208.371 0 .712.086.835.21.174.174.77.209 3.583.209 2.513 0 3.418.045 3.547.174.115.115.622.175 1.483.175.862 0 1.368-.06 1.483-.175.12-.12.686-.174 1.807-.174 1.213 0 1.683-.05 1.828-.195.132-.133.632-.21 1.564-.244.936-.034 1.39-.105 1.429-.224.038-.114.355-.174.925-.174.546 0 .966-.076 1.137-.205.153-.116.578-.207.984-.209.46-.003.775-.079.887-.214.106-.127.411-.209.783-.209.394 0 .696-.086.855-.244.16-.158.484-.25.921-.262.372-.01.716-.08.764-.154.049-.075.333-.182.63-.236.299-.056.632-.19.742-.3.109-.11.407-.199.661-.199.283 0 .494-.081.543-.209.045-.12.253-.21.485-.21.222 0 .483-.093.578-.208.096-.116.356-.21.579-.21.231 0 .439-.09.485-.209.044-.116.251-.21.466-.21.212 0 .463-.093.559-.208a.627.627 0 0 1 .417-.21.627.627 0 0 0 .418-.209.627.627 0 0 1 .418-.21.626.626 0 0 0 .418-.208c.095-.115.261-.21.37-.21.107 0 .231-.094.275-.209.044-.115.197-.209.34-.209.143 0 .398-.188.568-.418.18-.244.437-.419.614-.419a.7.7 0 0 0 .478-.21c.095-.114.257-.208.358-.208a.401.401 0 0 0 .296-.175c.125-.195.514-.456.982-.66.172-.074.313-.2.313-.278 0-.079.094-.143.21-.143a.21.21 0 0 0 .208-.209.21.21 0 0 1 .209-.21c.115 0 .209-.06.209-.135 0-.075.172-.227.383-.339.487-.258 1.288-.998 1.288-1.191 0-.081.094-.148.209-.148.114 0 .208-.079.208-.176 0-.097.141-.238.314-.313.172-.076.375-.28.45-.452.076-.173.217-.314.314-.314.096 0 .175-.094.175-.21a.21.21 0 0 1 .21-.208.21.21 0 0 0 .208-.21.21.21 0 0 1 .209-.209c.115 0 .209-.084.209-.187 0-.104.125-.302.278-.44.154-.14.279-.337.279-.44 0-.104.062-.188.136-.188.076 0 .176-.155.223-.343.047-.189.174-.416.281-.506a.629.629 0 0 0 .195-.428c0-.146.094-.302.209-.346.117-.045.209-.253.209-.47 0-.216.092-.423.209-.468.115-.044.209-.232.209-.416 0-.185.094-.415.209-.51.114-.096.208-.323.208-.505 0-.183.047-.332.105-.333.221-.002.731-.944.731-1.35 0-.236.094-.506.209-.602.129-.107.21-.42.213-.82.003-.354.097-.766.209-.915.139-.185.204-.62.204-1.365 0-.85.048-1.111.212-1.174.176-.068.209-.4.197-1.972-.012-1.59.021-1.91.206-2.013.31-.173.335-6.028.027-6.206-.309-.178-.348-1.379-.05-1.565.313-.196.341-1.503.039-1.902-.14-.185-.206-.63-.208-1.404-.004-.834-.06-1.18-.214-1.308-.132-.11-.209-.418-.209-.844 0-.41-.081-.752-.209-.88-.117-.117-.208-.458-.208-.78 0-.381-.071-.6-.209-.653-.132-.05-.211-.27-.214-.589-.002-.28-.096-.63-.208-.779a1.137 1.137 0 0 1-.205-.583.847.847 0 0 0-.209-.521c-.115-.115-.209-.302-.209-.416 0-.326-.727-1.644-1.002-1.816a.62.62 0 0 1-.251-.476c0-.176-.094-.356-.209-.4-.114-.044-.208-.166-.208-.27 0-.204-.55-1.338-.705-1.454-.051-.039-.133-.199-.182-.356-.049-.157-.339-.554-.646-.883-.306-.33-.595-.75-.64-.935-.047-.185-.172-.337-.279-.337-.107 0-.194-.094-.194-.21a.21.21 0 0 0-.209-.208.21.21 0 0 1-.209-.21.21.21 0 0 0-.209-.209.21.21 0 0 1-.208-.209c0-.115-.087-.21-.193-.21-.106 0-.232-.11-.28-.243-.21-.582-1.433-1.982-1.737-1.99-.048-.002-.285-.174-.526-.384-.652-.567-1.23-.944-1.95-1.273-.165-.075-.34-.204-.391-.285-.05-.082-.238-.148-.417-.148-.178 0-.36-.094-.405-.21-.046-.122-.255-.209-.502-.209-.282 0-.422-.07-.422-.209 0-.134-.138-.211-.383-.215-.25-.004-.501-.15-.724-.419-.203-.244-.476-.412-.672-.412a.87.87 0 0 1-.538-.21c-.115-.114-.397-.209-.627-.209-.23 0-.511-.094-.626-.209-.124-.124-.464-.209-.836-.209-.371 0-.712-.085-.835-.21-.14-.139-.488-.209-1.044-.209-.557 0-.906-.07-1.045-.209-.15-.15-.515-.209-1.298-.209-.84 0-1.107-.048-1.17-.21-.067-.177-.555-.208-3.202-.208-2.646 0-3.134-.032-3.202-.21-.068-.177-.579-.209-3.409-.209-2.79 0-3.357.034-3.502.21-.13.155-.474.209-1.345.209-.912 0-1.188.046-1.25.209-.06.153-.3.21-.901.21-.637 0-.82.046-.82.208 0 .163-.186.21-.836.21-.65 0-.836.046-.836.209 0 .157-.168.209-.68.209-.478 0-.706.063-.763.21-.05.131-.263.208-.576.208-.312 0-.525.078-.576.21-.045.117-.251.209-.468.209-.216 0-.423.092-.468.21-.046.119-.254.208-.485.208-.223 0-.483.094-.579.21a.634.634 0 0 1-.424.209.714.714 0 0 0-.437.186c-.102.102-.357.228-.567.281-.21.053-.382.158-.382.233 0 .075-.12.137-.268.137a.744.744 0 0 0-.453.18c-.1.098-.434.332-.74.519-.72.439-1.078.863-.858 1.018.092.065.03.078-.144.028-.237-.066-.45.058-.948.55-.354.348-.67.634-.704.634-.034 0-.187.125-.34.279-.153.153-.373.279-.488.279-.114 0-.208.079-.208.176 0 .097-.141.238-.314.314a1.017 1.017 0 0 0-.45.451c-.076.173-.217.314-.314.314s-.176.094-.176.21a.21.21 0 0 1-.208.209.21.21 0 0 0-.21.209.21.21 0 0 1-.208.21.21.21 0 0 0-.209.208c0 .115-.06.21-.132.21-.13 0-.473.536-.647 1.01-.049.135-.175.245-.282.245a.194.194 0 0 0-.192.194c0 .107-.094.23-.209.275-.115.044-.209.2-.209.349 0 .147-.094.304-.209.348a.343.343 0 0 0-.209.294.212.212 0 0 1-.208.214c-.115 0-.21.065-.21.144 0 .08-.18.321-.401.538-.221.216-.443.522-.493.68-.05.157-.182.321-.294.364a.34.34 0 0 0-.204.292c0 .117-.056.214-.125.214-.07 0-.191.188-.271.418-.08.23-.212.418-.293.418a.148.148 0 0 0-.146.15c0 .082-.094.243-.209.358a.788.788 0 0 0-.209.479c0 .148-.094.269-.209.269-.139 0-.209.14-.209.418 0 .28-.07.419-.208.419-.115 0-.21.067-.21.15 0 .081-.093.243-.208.358a.77.77 0 0 0-.209.463c0 .14-.094.29-.209.335-.115.044-.209.232-.209.418 0 .186-.094.374-.209.419-.114.044-.208.203-.208.355 0 .15-.188.48-.418.732-.23.252-.418.595-.418.761 0 .167-.094.339-.209.383-.13.05-.209.262-.209.558 0 .296-.079.508-.208.558-.13.05-.21.262-.21.556 0 .261-.093.553-.208.649-.126.105-.209.41-.209.77 0 .4-.068.621-.209.675-.16.062-.209.324-.209 1.114 0 .749-.057 1.081-.209 1.207-.176.147-.208.752-.208 3.845 0 2.297-.053 3.703-.14 3.757-.203.126-.16.67.07.872Zm3.62-7.966c.153-.06.21-.301.21-.907 0-.606.055-.848.208-.907.132-.05.209-.264.209-.579 0-.343.11-.616.355-.876.196-.208.391-.549.435-.758.043-.209.165-.452.27-.54.107-.088.193-.334.193-.546 0-.215.092-.422.209-.467.115-.044.209-.231.209-.416 0-.185.094-.414.209-.51a.653.653 0 0 0 .208-.44c0-.146.094-.302.21-.346.114-.044.208-.224.208-.4 0-.175.094-.354.209-.399.115-.044.209-.239.209-.433 0-.22.078-.353.209-.353.13 0 .209-.132.209-.353 0-.194.093-.39.208-.433.115-.045.21-.161.21-.26s.093-.216.208-.26c.115-.044.209-.24.209-.433 0-.214.079-.353.2-.353.109 0 .239-.126.287-.28.049-.153.147-.278.218-.278.072 0 .13-.094.13-.21a.21.21 0 0 1 .21-.209.21.21 0 0 0 .208-.209c0-.115.061-.21.136-.21.074 0 .227-.172.34-.383.112-.21.349-.553.526-.76.565-.664.808-1.002.808-1.126 0-.067.094-.215.209-.33a.788.788 0 0 0 .209-.479c0-.148.094-.269.209-.269a.21.21 0 0 0 .209-.209.21.21 0 0 1 .208-.21c.115 0 .21-.087.21-.194 0-.106.1-.233.224-.28.152-.059.203-.199.159-.434-.052-.269-.008-.347.192-.347.143 0 .26-.094.26-.209a.21.21 0 0 1 .209-.21c.114 0 .208-.086.208-.193 0-.107.145-.23.322-.275.178-.045.672-.415 1.1-.823.427-.408.94-.817 1.14-.908.2-.09.362-.23.362-.308 0-.078.094-.142.21-.142.114 0 .208-.064.208-.143 0-.079.141-.208.313-.287.677-.309 1.08-.568 1.08-.694 0-.072.15-.132.333-.132.183 0 .369-.094.413-.209.044-.115.232-.21.418-.21.185 0 .373-.093.418-.208.046-.12.253-.21.487-.21.233 0 .441-.089.487-.209.046-.12.254-.209.485-.209.223 0 .483-.094.579-.21.095-.114.346-.209.557-.209.21 0 .461-.094.557-.209.095-.115.385-.209.643-.209.325 0 .47-.064.47-.21 0-.153.161-.208.61-.208.372 0 .677-.082.783-.21.109-.131.415-.209.826-.209.359 0 .774-.092.923-.204.177-.135.611-.207 1.262-.21.708-.003 1.042-.064 1.166-.213.138-.166.54-.21 1.94-.21 1.337 0 1.832-.05 2.037-.204.405-.308 4.029-.304 4.336.004.18.18.57.213 2.291.189 1.14-.016 2.117.015 2.17.069.053.053-.01.055-.142.004-.166-.063-.24-.022-.24.133 0 .185.177.224 1.027.224.744 0 1.076.058 1.201.209.12.146.442.21 1.061.21.548 0 .888.057.888.151 0 .297.631.676 1.132.68.278.003.583.1.678.214.096.115.387.21.649.21.293 0 .505.08.554.209.045.116.252.209.466.209.212 0 .464.094.56.21.095.114.283.209.417.209s.322.094.418.209a.63.63 0 0 0 .42.209c.135 0 .282.094.326.21.044.114.24.208.433.208.22 0 .352.079.352.21 0 .115.118.209.262.209.143 0 .34.094.434.209.096.115.229.21.296.21.067 0 .252.13.411.29.16.158.379.255.488.212.119-.045.198.011.198.142 0 .12.391.612.87 1.094 1.103 1.11 1.636 1.716 1.636 1.858 0 .062.185.267.412.455.227.188.415.42.418.516.003.096.093.175.2.175.106 0 .233.158.281.35.12.482.507.905.826.905.206 0 .23.041.108.19-.148.177.701 2.117 1.104 2.523.073.073.132.31.132.528 0 .222.091.43.209.475.12.046.209.254.209.488 0 .234.089.442.209.488.134.052.208.268.208.609 0 .34.075.556.209.608.144.055.209.28.209.717 0 .437.066.661.209.716.15.058.209.293.209.833 0 .576.049.752.209.752.167 0 .209.21.209 1.046 0 .837.041 1.047.208 1.047.174 0 .209.273.209 1.628 0 1.211.051 1.684.198 1.848.343.38.353 6.427.011 6.427-.174 0-.209.272-.209 1.609 0 1.3-.04 1.623-.209 1.688-.114.044-.21.215-.213.38a1.14 1.14 0 0 1-.209.569c-.112.15-.204.533-.204.855 0 .349-.084.653-.209.757-.126.105-.209.41-.209.77 0 .4-.068.622-.209.676-.136.052-.209.27-.209.627 0 .358-.072.575-.208.628-.138.053-.21.271-.21.642 0 .407-.057.563-.208.563-.14 0-.209.14-.209.418 0 .28-.07.419-.209.419-.115 0-.209.086-.209.192 0 .106-.1.275-.222.377-.158.132-.2.323-.145.664.067.415.054.446-.102.233-.205-.282-.8.535-.835 1.15-.012.198-.108.313-.262.313-.134 0-.244.094-.244.21 0 .114-.091.208-.202.208-.112 0-.618.408-1.126.907-.507.499-.949.907-.98.907-.12 0-.616.563-.616.697 0 .077-.094.14-.209.14a.21.21 0 0 0-.209.209c0 .117-.124.21-.282.21-.156 0-.32.093-.363.208-.044.115-.199.21-.344.21-.145 0-.264.094-.264.209a.21.21 0 0 1-.209.209.21.21 0 0 0-.208.21c0 .139-.14.208-.418.208-.278 0-.418.07-.418.21 0 .13-.132.209-.352.209-.194 0-.389.094-.433.21-.044.114-.232.208-.417.208-.186 0-.374.095-.418.21-.044.115-.232.209-.418.209-.186 0-.374.094-.418.21-.044.114-.232.208-.417.208-.186 0-.374.094-.418.21-.044.115-.222.209-.397.209-.173 0-.394.094-.489.209-.095.115-.324.21-.509.21-.184 0-.371.093-.415.208-.045.118-.252.21-.473.21-.216 0-.487.094-.602.209-.115.115-.397.21-.627.21-.23 0-.511.093-.626.208-.115.115-.376.21-.58.21-.204 0-.538.09-.741.2a3.38 3.38 0 0 1-.892.286c-.287.046-.522.144-.522.217 0 .074-.239.133-.53.133-.292 0-.652.093-.801.205-.149.113-.512.207-.806.21a2.912 2.912 0 0 0-.975.2c-.241.108-.803.23-1.249.27-.446.04-.884.132-.975.203-.09.072-.631.171-1.202.222-.571.051-1.073.145-1.114.208-.042.064-.825.151-1.741.196-1.275.061-1.703.13-1.823.296-.25.341-9.153.355-9.529.014-.142-.128-.53-.27-.861-.312-.331-.043-.726-.164-.877-.267a1.193 1.193 0 0 0-.57-.19c-.179 0-.356-.136-.453-.348-.087-.192-.271-.349-.41-.349-.137 0-.357-.125-.488-.279-.131-.153-.364-.279-.518-.279-.156 0-.28-.092-.28-.209 0-.115-.067-.209-.15-.209-.081 0-.242-.094-.357-.21a.786.786 0 0 0-.478-.208c-.147 0-.268-.095-.268-.21a.21.21 0 0 0-.21-.209.21.21 0 0 1-.208-.21.21.21 0 0 0-.209-.208c-.115 0-.209-.06-.209-.134 0-.073-.282-.3-.626-.501-.345-.203-.627-.425-.627-.495 0-.069-.094-.126-.209-.126a.21.21 0 0 1-.209-.209.21.21 0 0 0-.208-.21.21.21 0 0 1-.21-.208.21.21 0 0 0-.208-.21c-.115 0-.209-.062-.209-.14 0-.076-.11-.257-.244-.402-.134-.144-.525-.59-.87-.99s-.799-.911-1.01-1.137c-.21-.225-.382-.437-.382-.472 0-.034-.22-.288-.488-.564-.268-.277-.487-.585-.487-.686 0-.1-.094-.218-.209-.262-.115-.044-.209-.144-.209-.223 0-.216-.456-.703-.657-.703-.105 0-.178-.173-.178-.423 0-.247-.087-.456-.209-.503-.115-.044-.209-.201-.209-.349 0-.147-.094-.304-.209-.348-.114-.045-.209-.201-.209-.349 0-.148-.093-.305-.208-.349-.115-.044-.21-.199-.21-.344 0-.145-.093-.264-.208-.264-.13 0-.209-.132-.209-.354 0-.193-.094-.389-.209-.433-.115-.044-.209-.167-.209-.274 0-.107-.094-.195-.208-.195-.14 0-.21-.14-.21-.418 0-.279-.069-.418-.208-.418-.14 0-.21-.14-.21-.419 0-.279-.069-.418-.208-.418-.151 0-.209-.156-.209-.563 0-.37-.07-.59-.209-.642-.136-.053-.209-.27-.209-.628s-.072-.575-.208-.628c-.142-.054-.21-.277-.21-.697 0-.42-.066-.643-.208-.697-.155-.06-.209-.307-.209-.956 0-.607-.064-.927-.209-1.048-.176-.146-.209-.766-.209-3.977 0-3.253.03-3.816.21-3.885Zm4.492 9.674c.03.192.147.422.262.511.142.11.209.414.209.942 0 .582.05.78.2.78.15 0 .198.204.198.836 0 .651.046.837.209.837.154 0 .209.163.209.628 0 .465.054.628.208.628.14 0 .21.14.21.422 0 .247.086.457.208.503.115.045.209.233.209.419 0 .186.088.372.196.413.108.042.235.228.282.415.046.186.146.338.221.338.075 0 .136.126.136.28 0 .154.093.278.21.278.114 0 .208.088.208.194 0 .107.094.23.209.275.115.044.209.235.209.424 0 .188.094.437.209.552.115.115.209.278.209.363 0 .085.094.19.208.234.115.044.21.168.21.275 0 .106.093.194.208.194a.21.21 0 0 1 .209.21c0 .114.094.208.209.208a.21.21 0 0 1 .209.21c0 .115.094.209.209.209a.21.21 0 0 1 .208.209c0 .115.094.21.21.21a.21.21 0 0 1 .208.208c0 .116.088.21.194.21.107 0 .23.094.274.209.044.115.176.21.293.21.118 0 .214.093.214.208 0 .182.358.29.741.223.063-.011.08.036.038.105-.098.158.752.875.916.773.067-.041.104-.015.084.058-.046.157.678.864.883.864.079 0 .236.094.351.21.115.114.33.208.478.208.147 0 .268.095.268.21 0 .13.132.209.353.209.193 0 .388.094.432.21.044.114.172.208.284.208.113 0 .298.094.413.21.115.115.358.209.54.209.182 0 .39.104.46.23.08.141.219.197.36.143.14-.054.32.018.465.188.21.244.414.276 1.806.276h1.57v-.683c0-.478.063-.706.21-.763.114-.044.208-.24.208-.437s-.094-.394-.209-.438c-.114-.044-.208-.2-.208-.345 0-.2-.101-.264-.418-.264-.279 0-.418-.07-.418-.209 0-.155-.162-.209-.626-.209-.464 0-.627-.054-.627-.21 0-.139-.14-.208-.418-.208-.278 0-.417-.07-.417-.21 0-.14-.14-.209-.418-.209-.279 0-.418-.07-.418-.21 0-.114-.11-.211-.243-.214-.134-.003-.398-.192-.586-.419-.188-.227-.419-.412-.513-.412-.095 0-.378-.189-.63-.419-.251-.23-.532-.418-.625-.418-.092 0-.25-.079-.352-.175-.358-.338-1.485-1.22-1.56-1.22-.042 0-.257-.173-.478-.384a7.18 7.18 0 0 0-.701-.588c-.165-.113-.299-.256-.299-.319 0-.062-.181-.29-.402-.507-.221-.216-.445-.528-.497-.692-.052-.165-.153-.3-.224-.3-.072 0-.13-.096-.13-.213a.343.343 0 0 0-.209-.294c-.115-.044-.209-.168-.209-.275 0-.107-.094-.194-.209-.194-.13 0-.209-.132-.209-.353 0-.194-.094-.39-.208-.434-.115-.044-.21-.195-.21-.336 0-.14-.056-.29-.126-.334-.185-.114-.709-1.24-.709-1.52a.364.364 0 0 0-.209-.32c-.127-.05-.208-.26-.208-.544 0-.255-.094-.557-.21-.672-.13-.13-.208-.473-.208-.907 0-.434-.08-.777-.209-.907-.168-.168-.209-.642-.209-2.434 0-1.72-.043-2.26-.192-2.384-.105-.088-.23-.348-.275-.578-.154-.77-1.812-.994-2.516-.34l-.378.35-.033 2.614c-.018 1.437-.01 2.77.02 2.961Zm37.14 47.286c.167 0 .21.21.21 1.046 0 .837.04 1.046.208 1.046.155 0 .209.163.209.633 0 .433.066.657.209.712.119.046.209.253.209.484 0 .265.071.403.209.403.137 0 .208.138.208.403 0 .23.09.439.21.485.114.043.208.239.208.433 0 .22.078.353.209.353.115 0 .209.118.209.262 0 .144.088.334.195.424.107.089.234.316.28.505.048.189.148.343.224.343.075 0 .136.096.136.214 0 .117.089.247.197.289.107.041.23.213.272.381.043.169.534.788 1.092 1.377.558.588 1.249 1.324 1.535 1.636.286.312.584.567.662.567.077 0 .14.124.14.275 0 .343 1.403 1.817 1.728 1.817.131 0 .2.061.155.135-.046.075.076.176.27.225.195.049.354.176.354.283 0 .107.088.194.194.194.107 0 .23.094.274.21.044.114.24.208.433.208.22 0 .352.079.352.21 0 .13.132.209.353.209.193 0 .388.094.432.209.045.117.252.21.468.21.217 0 .424.092.469.209.054.142.277.209.696.209.43 0 .641.066.7.218.045.12.139.183.207.14.069-.042.157.049.197.201.098.376 9.814.442 10.124.068.131-.158.488-.209 1.479-.209 1.068 0 1.305-.038 1.305-.209 0-.166.199-.21.958-.21.681 0 1.008-.06 1.131-.209.115-.138.427-.209.927-.209.54 0 .775-.059.832-.209.055-.142.277-.21.693-.21.45 0 .611-.054.611-.208 0-.155.163-.21.627-.21.464 0 .626-.054.626-.209 0-.145.146-.21.477-.21.263 0 .572-.093.687-.208.115-.115.362-.21.55-.21.187 0 .419-.094.514-.209.095-.115.318-.209.494-.209.177 0 .405-.084.507-.186.102-.102.357-.229.567-.281.21-.053.381-.158.381-.233 0-.075.096-.137.214-.137a.343.343 0 0 0 .293-.21c.044-.114.232-.208.418-.208.185 0 .373-.095.417-.21.045-.115.168-.209.275-.209.106 0 .193-.094.193-.21a.21.21 0 0 1 .211-.208c.115 0 .317-.126.448-.28.132-.153.287-.278.346-.278.174 0 1.502-1.181 1.502-1.336 0-.052.297-.391.661-.755.801-.801 1.149-1.253 1.149-1.494 0-.1.094-.181.209-.181.129 0 .209-.131.209-.342 0-.188.078-.392.174-.453.279-.18.661-.961.661-1.354 0-.229.077-.362.209-.362.139 0 .209-.14.209-.42 0-.245.174-.66.417-.997.338-.467.418-.718.418-1.309 0-.521.06-.755.209-.812.167-.064.209-.365.209-1.49 0-1.066.051-1.46.209-1.617.168-.169.209-.644.209-2.442 0-1.797-.041-2.272-.209-2.44-.16-.16-.209-.565-.209-1.734 0-1.262-.036-1.524-.209-1.524-.163 0-.209-.187-.209-.842 0-.619-.055-.862-.209-.921-.145-.056-.209-.283-.209-.746 0-.421-.076-.73-.208-.84-.115-.095-.209-.342-.209-.548 0-.206-.092-.496-.205-.645a1.178 1.178 0 0 1-.208-.59c-.003-.174-.099-.353-.214-.397-.115-.045-.209-.228-.209-.408 0-.18-.078-.377-.174-.438-.095-.061-.299-.361-.452-.666-.153-.305-.378-.655-.498-.778-.121-.123-.362-.517-.535-.875-.173-.359-.372-.652-.442-.652-.069 0-.127-.06-.127-.134 0-.217-1.596-1.773-2.07-2.019-.24-.124-.436-.287-.436-.361 0-.075-.067-.136-.149-.136-.082 0-.243-.094-.358-.21a.768.768 0 0 0-.463-.209c-.139 0-.289-.094-.333-.209-.044-.115-.239-.21-.433-.21-.231 0-.352-.077-.352-.224 0-.17-.101-.21-.418-.164-.296.044-.418.004-.418-.136 0-.282-.57-.72-.944-.726-.175-.002-.354-.099-.398-.214-.09-.235-1.025-.298-1.025-.07a.14.14 0 0 1-.139.14c-.077 0-.132-.047-.123-.105.082-.52-.02-.592-.837-.592-.61 0-.841-.055-.903-.215-.066-.172-.308-.21-1.217-.19-.922.02-1.158-.02-1.262-.204-.103-.185-.366-.228-1.382-.228-.963 0-1.232.04-1.156.174.079.14.061.14-.089 0-.303-.281-7.214-.248-7.322.035-.062.161-.331.21-1.179.21-.885 0-1.099.04-1.099.208 0 .163-.186.21-.836.21-.65 0-.835.046-.835.209 0 .154-.16.21-.61.21-.372 0-.677.08-.783.208-.095.115-.387.21-.648.21-.293 0-.505.08-.554.209-.046.119-.254.209-.483.209-.266 0-.403.071-.403.21s-.14.208-.418.208c-.278 0-.418.07-.418.21 0 .14-.139.209-.417.209-.279 0-.418.07-.418.21 0 .114-.09.208-.199.208-.11 0-.282.084-.384.186-.102.102-.346.226-.543.276-.197.05-.528.248-.737.442-.209.193-.439.352-.511.352-.073 0-.132.094-.132.209a.21.21 0 0 1-.21.21.21.21 0 0 0-.208.208.21.21 0 0 1-.209.21.21.21 0 0 0-.209.209.21.21 0 0 1-.209.21c-.115 0-.209.064-.209.143 0 .08-.187.329-.417.553-.23.225-.418.474-.418.554 0 .08-.06.144-.136.144-.074 0-.227.173-.34.384a5.263 5.263 0 0 1-.57.802c-.2.23-.532.626-.738.88-.206.254-.484.584-.618.732-.134.149-.243.307-.243.35 0 .044-.094.174-.21.29a.789.789 0 0 0-.208.478c0 .147-.094.268-.209.268-.116 0-.209.125-.209.28 0 .153-.061.278-.136.278-.076 0-.175.153-.222.339-.047.186-.173.372-.28.414-.109.042-.197.235-.197.429 0 .22-.079.353-.21.353-.137 0-.208.138-.208.403 0 .23-.09.438-.209.484-.122.047-.209.256-.209.503 0 .283-.069.423-.209.423-.153 0-.208.161-.208.613 0 .416-.068.638-.21.693-.114.044-.208.212-.208.373a.82.82 0 0 1-.209.503c-.115.115-.209.429-.209.697 0 .269-.094.583-.209.698-.173.174-.209.743-.209 3.338 0 2.688.03 3.128.21 3.128Zm3.772-6.1c.157-.157.207-.417.174-.896-.04-.569-.008-.676.197-.676.196 0 .243-.122.243-.627 0-.465.055-.628.21-.628.138 0 .208-.14.208-.419 0-.278.07-.418.209-.418.115 0 .209-.119.209-.264 0-.145.094-.3.209-.344.115-.044.209-.208.209-.364 0-.159.091-.283.208-.283.14 0 .21-.14.21-.419 0-.279.069-.418.208-.418.115 0 .209-.061.209-.136 0-.075.282-.418.626-.764.345-.345.627-.663.627-.706 0-.075.548-.896.697-1.044.038-.039.25-.337.471-.663.22-.326.456-.593.522-.593s.12-.089.12-.198c0-.108.047-.218.105-.244.158-.07.73-.921.73-1.087 0-.08.094-.145.21-.145a.21.21 0 0 0 .208-.209c0-.115.096-.21.214-.21.117 0 .249-.093.293-.208.044-.115.2-.21.348-.21.147 0 .304-.094.348-.209.044-.115.232-.209.418-.209.185 0 .373-.094.417-.21.045-.114.16-.208.258-.208.097 0 .254-.095.35-.21a.646.646 0 0 1 .434-.209c.144 0 .262-.094.262-.21 0-.139.14-.208.418-.208.278 0 .417-.07.417-.21 0-.145.146-.209.478-.209.262 0 .571-.094.686-.21.115-.114.372-.208.571-.208.2 0 .399-.094.443-.21.057-.149.29-.209.814-.209.482 0 .793-.072.907-.209.121-.146.442-.21 1.066-.21.664 0 .913-.053.972-.208.069-.18.677-.21 4.295-.21 3.577 0 4.241.032 4.388.21.122.146.443.209 1.073.209.812 0 .938.04 1.316.418.351.352.527.419 1.103.419.517 0 .685.051.685.209 0 .137.138.21.401.21.22 0 .479.093.574.208.096.115.322.21.505.21.182 0 .331.056.331.126 0 .069.188.19.417.271.23.08.418.212.418.293 0 .08.157.147.348.147.217 0 .348.079.348.209 0 .115.088.209.194.209.107 0 .23.094.274.21.044.114.177.208.293.208.118 0 .214.074.214.163 0 .09.038.125.084.078.083-.083 1.865 1.698 1.865 1.864 0 .047.11.214.244.372.441.52.84 1.153 1.134 1.799.075.165.203.341.284.392.082.05.148.215.148.366 0 .152.094.312.209.356.129.05.209.261.209.554 0 .327.064.473.209.473.151 0 .209.155.209.562 0 .371.071.59.209.643.152.058.208.3.208.902 0 .637.047.822.209.822.17 0 .209.23.209 1.24 0 .974.045 1.258.209 1.321.172.067.209.432.209 2.09 0 1.617-.041 2.044-.209 2.184a.628.628 0 0 0-.209.418.628.628 0 0 1-.209.419c-.15.125-.209.456-.209 1.185 0 .73-.058 1.06-.208 1.186-.138.114-.209.425-.209.907 0 .481-.072.792-.209.906-.115.096-.209.348-.209.56 0 .215-.093.422-.209.467-.115.044-.209.232-.209.419 0 .186-.094.374-.209.418-.114.044-.208.167-.208.272 0 .106-.11.32-.244.477a31.43 31.43 0 0 0-.661.816c-.856 1.088-1.89 1.973-2.611 2.234-.134.049-.244.146-.244.215 0 .07-.141.191-.313.27-.677.31-1.079.569-1.079.695 0 .072-.15.131-.333.131-.184 0-.37.095-.414.21-.044.115-.168.209-.276.209-.108 0-.274.094-.37.21-.095.114-.318.208-.496.208-.177 0-.358.057-.401.128-.107.172-1.229.71-1.483.71-.112 0-.33.088-.485.197-.155.109-.514.241-.798.295-.284.053-.551.152-.593.22-.042.068-.195.124-.34.124a.504.504 0 0 0-.396.238c-.113.202-.166.21-.36.049-.266-.222-.913.037-.913.365 0 .227-.58.246-.8.026-.162-.163-1.041.149-1.215.43-.042.07-.258.034-.48-.077-.416-.208-1.474-.14-1.624.104-.041.066-.944.12-2.006.12-1.531 0-1.974.044-2.14.21-.163.163-.582.209-1.9.209-1.317 0-1.737-.046-1.9-.21-.127-.127-.469-.209-.88-.209-.468 0-.695-.063-.751-.209-.046-.12-.254-.209-.492-.209-.227 0-.513-.1-.636-.224-.137-.137-.376-.202-.617-.167-.323.048-.38.013-.327-.194.043-.16-.01-.252-.144-.252a.341.341 0 0 1-.29-.21c-.044-.114-.24-.208-.433-.208-.22 0-.352-.079-.352-.21a.21.21 0 0 0-.21-.209.21.21 0 0 1-.208-.209.21.21 0 0 0-.209-.21c-.115 0-.209-.059-.209-.132 0-.073-.318-.465-.706-.872-.963-1.007-1.104-1.168-1.104-1.258 0-.042-.376-.468-.835-.945-.46-.478-.836-.942-.836-1.031 0-.09-.188-.369-.417-.62-.23-.253-.418-.518-.418-.59 0-.072-.094-.13-.209-.13-.139 0-.209-.14-.209-.412 0-.226-.078-.462-.174-.523-.215-.138-.478-.547-.677-1.053-.083-.211-.207-.384-.276-.384-.07 0-.126-.12-.126-.269a.788.788 0 0 0-.209-.478c-.115-.115-.209-.373-.209-.572 0-.2-.094-.4-.209-.444-.14-.053-.208-.274-.208-.666 0-.322-.092-.708-.205-.857-.314-.416-.307-5.706.008-6.022Zm3.469 6.379c.127.106.209.411.209.784 0 .45.055.61.208.61.151 0 .21.156.21.563 0 .371.07.59.208.643.115.044.209.232.209.418 0 .186.094.375.209.419.115.044.209.199.209.344 0 .145.094.264.209.264.117 0 .208.124.208.285 0 .534 1.737 2.644 2.177 2.644.089 0 .197.094.24.21.045.114.177.209.294.209.117 0 .213.094.213.209 0 .115.088.21.194.21.107 0 .23.093.275.208.043.115.238.21.432.21.22 0 .352.078.352.209 0 .115.072.209.16.209.087 0 .231.1.32.222.09.123.325.232.524.244.2.012.337.062.308.111-.09.145.334.431.492.334.08-.05.146.007.146.127s.094.217.209.217c.115 0 .193.058.174.13-.042.155 1.205.845 1.539.851.13.003.358.097.506.21 1.32 1 3.754-.713 3.064-2.156-.149-.311-.333-.57-.41-.573-.077-.004-.293-.193-.481-.42-.188-.227-.439-.413-.559-.413-.119 0-.451-.125-.737-.279-.285-.153-.606-.279-.712-.279-.105 0-.27-.094-.365-.209a.652.652 0 0 0-.44-.21c-.145 0-.296-.08-.334-.179-.038-.099-.349-.303-.69-.453-.343-.15-.623-.352-.623-.448-.001-.096-.09-.175-.196-.175-.107 0-.23-.094-.274-.209a.343.343 0 0 0-.293-.21c-.117 0-.214-.06-.214-.136 0-.075-.156-.176-.348-.224-.191-.048-.348-.175-.348-.282 0-.107-.094-.194-.209-.194-.114 0-.209-.088-.209-.194 0-.107-.093-.23-.208-.275-.115-.044-.21-.21-.21-.368s-.093-.324-.208-.368c-.115-.044-.209-.191-.209-.327a.631.631 0 0 0-.209-.42c-.115-.096-.209-.26-.209-.367 0-.105-.061-.192-.136-.192-.075 0-.18-.172-.233-.382-.052-.21-.179-.466-.28-.568-.102-.102-.186-.355-.186-.563a1.36 1.36 0 0 0-.188-.653c-.12-.174-.22-.906-.273-2.005-.047-.952-.15-1.797-.23-1.876a.606.606 0 0 1-.149-.362c-.016-.756-2.603-1.328-2.869-.635-.044.115-.167.21-.274.21-.298 0-.284 5.051.015 5.3Zm37.733-33.985c.139.14.209.488.209 1.042 0 .61.055.853.209.912.137.053.209.27.209.633 0 .303.083.635.185.737.102.103.229.358.281.568.053.21.157.383.233.383.075 0 .136.125.136.279 0 .154.093.279.209.279.115 0 .209.096.209.214 0 .292.567 1.04.788 1.04.101 0 .143.091.098.21-.047.122-.001.212.108.215.104.003.343.192.531.419.188.227.416.412.507.412.091 0 .203.098.249.218.046.12.147.18.224.132.077-.048.14.042.14.2s.087.287.192.287c.106 0 .27.094.365.21.096.115.26.209.365.209.106 0 .324.131.484.292.189.19.409.27.624.23.236-.046.355.01.413.195.053.166.217.26.456.264.205.002.495.096.644.209.176.134.61.206 1.253.209.643.003 1.076.075 1.253.21.371.28 1.934.277 2.216-.005.151-.15.516-.21 1.306-.21.749 0 1.183-.064 1.368-.204.149-.113.442-.207.652-.21.225-.002.452-.116.552-.278.12-.192.266-.25.488-.194.226.057.347.006.422-.18.058-.142.245-.273.417-.291.325-.035.872-.495.872-.735 0-.076.159-.14.352-.14.194 0 .389-.093.433-.208.044-.116.167-.21.274-.21.107 0 .194-.094.194-.209 0-.115.082-.21.182-.21.225 0 1.071-.858 1.071-1.087 0-.092.094-.168.209-.168.115 0 .209-.086.209-.192 0-.105.094-.27.209-.366a.63.63 0 0 0 .209-.42c0-.136.094-.283.208-.328.123-.046.209-.255.209-.502 0-.237.123-.546.279-.702.17-.17.278-.465.278-.756 0-.262.079-.502.174-.534.309-.103.245-6.91-.067-7.139-.133-.098-.204-.215-.158-.262.162-.161-.096-1.073-.303-1.073-.134 0-.203-.147-.203-.435 0-.348-.049-.422-.248-.37-.208.055-.239-.01-.193-.402.041-.359.002-.467-.17-.467-.123 0-.224-.087-.224-.192 0-.106-.094-.27-.209-.366a.647.647 0 0 1-.209-.436c0-.143-.094-.261-.209-.261-.115 0-.209-.074-.209-.164 0-.266-2.353-2.487-2.635-2.487-.142 0-.295-.094-.339-.209-.044-.115-.241-.21-.437-.21s-.393-.093-.437-.208c-.048-.127-.259-.21-.535-.21-.251 0-.537-.098-.636-.218-.137-.165-.413-.21-1.148-.186-.779.026-.992-.013-1.096-.2-.182-.326-3.052-.345-3.319-.023-.123.149-.449.209-1.131.209-.758 0-.957.044-.957.21 0 .153-.161.209-.612.209-.415 0-.637.067-.692.209-.044.115-.205.209-.357.209-.392 0-1.256.454-1.26.662-.002.096-.124.175-.272.175a.784.784 0 0 0-.477.21c-.115.114-.245.208-.289.208-.126 0-1.611 1.534-1.611 1.665 0 .066-.094.155-.209.2-.114.043-.208.238-.208.432s-.077.354-.171.354c-.242 0-1.083.98-1.083 1.263 0 .13-.094.315-.208.41-.115.096-.209.388-.209.65 0 .294-.08.506-.209.555-.155.06-.209.307-.209.957 0 .651-.054.898-.209.958-.171.065-.209.41-.209 1.887 0 1.421.045 1.853.209 2.017Zm3.342-3.258c.131 0 .209-.132.209-.357 0-.196.056-.322.124-.28.153.095.293-.243.293-.703 0-.188.094-.378.209-.422.117-.045.209-.252.209-.47 0-.216.092-.423.209-.468.115-.044.209-.208.209-.364 0-.159.092-.283.209-.283.116 0 .209-.124.209-.28 0-.154.093-.278.208-.278.115 0 .209-.066.209-.146 0-.154.473-.628 1.146-1.148.221-.17.533-.42.693-.554.161-.135.379-.244.484-.244.106 0 .228-.095.272-.21.046-.12.254-.209.488-.209.233 0 .441-.09.487-.21.057-.147.287-.208.785-.208.471 0 .793-.08.969-.24.353-.32 1.838-.293 2.205.039.178.162.438.215.88.18.507-.04.64-.003.691.195.048.182.208.244.634.244.363 0 .57.064.57.174.001.096.188.3.418.454.229.153.417.357.417.453 0 .096.094.175.209.175a.21.21 0 0 1 .209.209c0 .115.094.209.209.209a.21.21 0 0 1 .209.21c0 .114.094.208.209.208.114 0 .208.065.208.144 0 .08.188.329.418.554.23.225.418.467.418.538 0 .071.094.166.209.21.115.044.209.21.209.368s.094.324.208.368c.118.045.209.252.209.473 0 .217.094.488.209.603.135.135.209.48.209.97 0 .505.07.818.209.933.248.207.287 1.346.049 1.425-.089.03-.191.425-.229.879-.038.453-.154.91-.258 1.014-.103.104-.189.367-.189.583 0 .221-.091.429-.209.474-.114.044-.208.21-.208.368s-.094.324-.209.368c-.115.044-.209.133-.209.197 0 .162-1.795 1.946-1.957 1.946-.073 0-.132.087-.132.194 0 .106-.156.233-.348.281-.191.048-.348.15-.348.225 0 .075-.125.136-.278.136-.155 0-.279.094-.279.21 0 .138-.138.209-.407.209-.225 0-.502.094-.617.21-.115.114-.452.208-.749.208-.298 0-.662.092-.811.205-.329.25-2.099.296-2.179.057-.029-.087-.394-.19-.812-.23-.506-.048-.818-.155-.933-.318-.095-.135-.458-.383-.805-.552-.348-.169-.711-.379-.806-.466-.254-.234-1.048-.788-1.13-.788-.129 0-1.054-.983-1.054-1.12 0-.075-.094-.135-.209-.135a.21.21 0 0 1-.209-.21c0-.115-.115-.209-.255-.209-.203 0-.242-.083-.192-.418.05-.343.012-.419-.209-.419s-.259-.076-.209-.418c.046-.317.007-.419-.164-.419-.234 0-.267-.145-.227-1.011.017-.364-.043-.549-.195-.608-.317-.122-.328-2.705-.011-2.705Z" fill="#03567A"/></svg>