<svg width="147" height="108" fill="none" xmlns="http://www.w3.org/2000/svg"><path fill-rule="evenodd" clip-rule="evenodd" d="M78.22 120.919c-5.748.935-11.407-1.874-12.629-6.275-1.221-4.391 2.457-8.726 8.2-9.661 5.74-.935 11.399 1.884 12.616 6.275 1.22 4.395-2.457 8.731-8.187 9.661m2.677 9.659c12.713-2.07 20.829-11.634 18.13-21.374-2.704-9.731-15.203-15.946-27.916-13.88-12.722 2.07-20.825 11.643-18.125 21.374 2.703 9.736 15.193 15.946 27.91 13.88M135.759 42.642c-5.748.94-11.407-1.874-12.629-6.275-1.221-4.39 2.457-8.722 8.2-9.661 5.739-.93 11.399 1.884 12.616 6.275 1.221 4.396-2.457 8.731-8.187 9.661m2.677 9.658c12.713-2.07 20.829-11.633 18.125-21.374-2.699-9.73-15.202-15.946-27.911-13.88-12.722 2.07-20.824 11.643-18.125 21.379 2.704 9.73 15.193 15.946 27.911 13.876M87.828 68.863c-5.748.94-11.403-1.874-12.63-6.275-1.216-4.391 2.462-8.727 8.206-9.662 5.734-.93 11.393 1.884 12.615 6.276 1.221 4.395-2.457 8.73-8.191 9.661m2.681 9.658c12.709-2.07 20.83-11.633 18.126-21.374-2.699-9.731-15.202-15.946-27.915-13.88-12.718 2.07-20.825 11.643-18.13 21.378 2.708 9.732 15.197 15.946 27.92 13.876M26.154 92.547c-5.748.94-11.408-1.875-12.63-6.275-1.216-4.392 2.462-8.732 8.201-9.662 5.739-.935 11.398 1.884 12.62 6.275 1.216 4.396-2.457 8.731-8.191 9.662m2.678 9.66c12.713-2.074 20.83-11.638 18.13-21.379-2.704-9.73-15.203-15.945-27.916-13.88C6.33 69.018-1.779 78.59.916 88.322c2.708 9.736 15.198 15.951 27.916 13.885M40.984 25.995c-5.748.935-11.408-1.874-12.629-6.275-1.221-4.39 2.457-8.726 8.2-9.661 5.74-.935 11.399 1.884 12.615 6.275 1.222 4.396-2.456 8.731-8.186 9.661m2.677 9.656c12.713-2.07 20.83-11.634 18.13-21.374C59.087 4.546 46.59-1.67 33.877.397 21.153 2.466 13.05 12.038 15.75 21.77c2.704 9.735 15.193 15.95 27.91 13.88" fill="#03567A"/></svg>