<svg width="136" height="84" fill="none" xmlns="http://www.w3.org/2000/svg"><path d="M86.08 16.675c-1.333-4.626-5.702-6.696-9.236-4.952-3.533 1.744-5.813 7.097-4.481 11.722 1.333 4.625 5.86 7.064 9.393 5.319 3.534-1.744 5.657-7.465 4.324-12.09ZM27.848 32.748c3.534-1.745 4.962-6.318 3.63-10.941-1.334-4.625-4.77-7.02-8.304-5.276-3.534 1.744-5.477 6.794-4.143 11.42 1.332 4.624 5.283 6.54 8.817 4.797ZM63.024 28.055c-1.334-4.624-5.831-6.991-9.365-5.248-3.534 1.745-5.608 7.356-4.276 11.98 1.334 4.626 5.615 6.672 9.15 4.928 3.533-1.745 5.823-7.035 4.491-11.66ZM9.177 58.289c3.535-1.745 4.909-6.517 3.576-11.14-1.333-4.624-5.007-7.834-8.541-6.09C.679 42.805-.795 48.555.537 53.18c1.334 4.624 5.107 6.854 8.64 5.11ZM30.695-8.068c-1.332-4.625-5.303-7.07-8.836-5.326-3.534 1.745-5.283 7.012-3.95 11.637 1.333 4.624 5.446 7.56 8.979 5.816 3.534-1.744 5.14-7.503 3.807-12.127ZM3.415-4.168C2.083-8.792-2.125-11.12-5.66-9.375c-3.534 1.743-4.793 6.77-3.46 11.394C-7.788 6.644-4.334 9.23-.8 7.486 2.734 5.742 4.748.456 3.415-4.168Z" fill="#CC3195"/></svg>