<svg width="103" height="60" viewBox="0 0 103 60" fill="none" xmlns="http://www.w3.org/2000/svg">
<path d="M78.5222 36.24C75.7352 46.92 65.9199 54.84 54.2869 54.84C41.6846 54.84 31.324 45.66 29.5063 33.72" stroke="#286117" stroke-width="1.7642" stroke-miterlimit="10" stroke-linecap="round"/>
<path d="M77.3711 20.46C77.9164 21.72 78.3405 23.1 78.6435 24.48" stroke="#286117" stroke-width="1.7642" stroke-miterlimit="10" stroke-linecap="round"/>
<path d="M30.8999 21.06C34.5352 11.76 43.6234 5.22 54.287 5.22C64.7081 5.22 73.6146 11.52 77.4317 20.46" stroke="#286117" stroke-width="1.7642" stroke-miterlimit="10" stroke-linecap="round"/>
<path d="M30.5364 21.9C30.6576 21.6 30.7181 21.3 30.8393 21.06" stroke="#286117" stroke-width="1.7642" stroke-miterlimit="10" stroke-linecap="round"/>
<path d="M29.2999 33.5976C30.7043 33.5472 31.7996 32.3252 31.7463 30.8682C31.693 29.4112 30.5113 28.2709 29.1069 28.3213C27.7025 28.3717 26.6072 29.5937 26.6605 31.0507C26.7138 32.5077 27.8955 33.648 29.2999 33.5976Z" stroke="#286117" stroke-width="1.7642" stroke-miterlimit="10" stroke-linecap="round"/>
<path d="M79.4037 29.7563C80.8081 29.7059 81.9034 28.4839 81.8501 27.0269C81.7968 25.5699 80.6151 24.4296 79.2106 24.48C77.8062 24.5304 76.7109 25.7523 76.7642 27.2094C76.8175 28.6664 77.9993 29.8067 79.4037 29.7563Z" stroke="#286117" stroke-width="1.7642" stroke-miterlimit="10" stroke-linecap="round"/>
<path d="M64.1024 25.14C51.6212 25.98 50.9547 26.64 50.1065 39C49.2582 26.7 48.5312 25.98 36.1106 25.14C48.5312 24.3 49.2582 23.58 50.1065 11.28C50.9547 23.58 51.6212 24.3 64.1024 25.14Z" fill="#286117"/>
<path d="M70.2823 38.7C62.2846 39.24 61.8605 39.66 61.3152 47.58C60.7699 39.66 60.3458 39.24 52.3481 38.7C60.3458 38.16 60.7699 37.74 61.3152 29.82C61.8605 37.74 62.2846 38.16 70.2823 38.7Z" fill="#286117"/>
</svg>
