<svg width="293" height="265" fill="none" xmlns="http://www.w3.org/2000/svg"><path d="M69.314-.481s1.735 3.522-2.182 11.514c-3.917 7.994-2.463 13.632 2.268 16.29 4.732 2.657 11.736 10.209 22.108 19.76 10.371 9.553 41.173 20.772 52.004 21.046 10.83.274 25.755 2.52 36.269-3.246 10.515-5.766 35.097-28.126 44.928-31.373 9.831-3.245 25.443-9.218 23.488-13.768-1.955-4.55-5.049-8.699-16.559-12.15-11.512-3.453-23.749-12.573-31.573-19.378-7.824-6.807-26.555-13.97-34.502-15.208-7.948-1.24-31.838-4.191-42.714-1.258-10.878 2.932-29.45 17.926-37.507 21.457 0 0-13.48 4.543-16.028 6.314ZM-62.179 87s6.004 15.106 8.56 24.929c2.555 9.822 13.592 29.799 22.334 33.773 8.743 3.974 27.834 14.6 43.897 11.831 16.061-2.769 18.325-4.559 23.888-6.712 5.562-2.155 15.938-7.26 18.542-13.371 2.603-6.11 5.062-12.534 4.971-17.797-.09-5.263-1.337-16.439-6.904-25.27-5.568-8.829-12.391-21.254-24.113-25.007-11.721-3.754-39.122-6.429-54.644-1.632C-41.17 72.54-52.636 73.906-62.178 87ZM109.399 112.357s-10.947 4.562-13.632 15.818c-2.682 11.257-6.162 23.115 1.506 31.491 7.669 8.377 19.218 11.982 27.085 18.978 7.866 6.996 22.503 16.275 30.367 15.885 7.864-.388 11.446-3.089 12.639-6.451 1.193-3.362-1.596-8.646.391-17.532s.6-25.461-8.071-35.967-15.941-19.183-28.783-21.197c-12.842-2.014-16.401-4.155-21.502-1.025Z" fill="#CC3195"/><path fill-rule="evenodd" clip-rule="evenodd" d="M72.163 24.698c.737-5.39 2.714-8.714 4.494-11.71 2.175-3.657 4.053-6.816 3.977-13.42C80.546-8.036 84.71-19.4 94.201-27.63c6.326-5.485 17.322-11.527 33.784-9.16 30.8 4.429 44.283 18.507 67.705 49.575 10.52 13.953 21.401 21.688 28.602 26.806 5.863 4.167 9.092 6.463 8.699 9.668l-.007.058c-.363 2.655-3.239 4.37-7.442 6.123-8.613 3.592-16.155 5.566-23.449 7.477-8.634 2.26-16.788 4.395-26.778 9.019l-.574.265c-14.476 6.706-30.884 14.305-54.844.379-22.672-13.18-48.37-28.12-48.022-44.11.03-1.363.13-2.614.288-3.77ZM84.362 4.012c-.668 4.887-2.493 7.957-4.27 10.947-2.1 3.531-4.082 6.866-4.227 13.55-.299 13.698 25.419 28.648 46.084 40.66 22.16 12.882 36.891 6.058 51.136-.54l.575-.266c10.317-4.776 19.03-7.056 27.455-9.262 7.159-1.875 14.562-3.813 22.915-7.297 4.634-1.933 4.978-2.878 5.002-2.98-.024-.996-3.943-3.78-7.092-6.02-7.397-5.257-18.575-13.202-29.457-27.637-23.246-30.835-35.644-43.815-65.114-48.052-14.952-2.15-24.87 3.278-30.557 8.21C88.286-17.284 84.546-7.217 84.624-.524a30.993 30.993 0 0 1-.263 4.535Z" fill="#fff"/><path d="M86.753 14.85c2.162-1.6 5.432-1.82 5.001-4.886-.43-3.066-2.89-7.304-1.076-7.666l1.813-.362s2.743-1.052 2.707 1.347c-.036 2.4-.446 4.13 1.953 3.952 2.4-.18 5.07.252 5.168 1.619.1 1.366-1.549 2.9-1.549 2.9s1.222.74-.691 3.049c-1.913 2.31-6.072 5.23-9.022 6.13-2.95.9-5.089.94-5.928-1.052-.84-1.993-1.331-2.841 1.624-5.03Z" fill="#fff"/></svg>