<svg width="215" height="202" fill="none" xmlns="http://www.w3.org/2000/svg"><path d="M109.062 115.984c-2.131-5.565-9.234-8.144-14.888-6.046-5.654 2.099-8.52 8.379-6.388 13.945 2.133 5.564 8.623 8.742 14.277 6.644 5.655-2.099 9.132-8.979 6.999-14.543ZM79.77 80.563c2.133 5.567 9.123 8.058 14.778 5.959 5.653-2.098 9.302-8.54 7.17-14.106-2.133-5.565-9.375-8.5-15.03-6.4-5.653 2.098-9.05 8.983-6.917 14.547Zm93.171-19.34c-5.654 2.1-7.94 7.603-5.807 13.166 2.134 5.566 7.631 8.449 13.286 6.349 5.653-2.1 8.762-8.176 6.629-13.742-2.132-5.564-8.454-7.87-14.108-5.773Zm-65.694 82.831c-5.653 2.099-9.13 9.035-6.997 14.6 2.131 5.565 9.292 8.243 14.948 6.144 5.652-2.099 8.403-8.457 6.27-14.022-2.133-5.564-8.566-8.821-14.221-6.722Zm26.631 55.839c5.653-2.099 8.729-7.762 6.596-13.327-2.132-5.566-8.302-7.975-13.955-5.875-5.655 2.097-8.632 7.903-6.5 13.467 2.133 5.567 8.204 7.834 13.859 5.735ZM116.66 66.87c2.133 5.565 9.329 8.413 14.983 6.316 5.654-2.1 8.973-8.853 6.841-14.418-2.133-5.565-8.983-8.028-14.638-5.929-5.653 2.1-9.318 8.466-7.186 14.03Zm86.154-36.384c-5.655 2.1-7.854 7.842-5.721 13.406 2.133 5.564 8.011 9.427 13.666 7.327 5.653-2.099 8.011-9.018 5.879-14.583-2.133-5.565-8.171-8.249-13.824-6.15Zm-34.428 79.853c2.131 5.565 8.485 8.508 14.138 6.409 5.655-2.1 8.452-8.438 6.318-14.004-2.131-5.565-8.711-9.097-14.364-6.998-5.656 2.099-8.225 9.028-6.092 14.593Zm-83.64 54.07c-2.133-5.565-7.849-9.18-13.502-7.081-5.654 2.098-8.667 8.953-6.535 14.52 2.133 5.564 8.812 8.273 14.465 6.174 5.654-2.098 7.704-8.048 5.572-13.613Zm64.673-47.029c-2.131-5.565-9.222-8.209-14.876-6.111-5.654 2.1-7.654 8.119-5.523 13.684 2.133 5.565 7.639 8.694 13.294 6.594 5.654-2.098 9.239-8.601 7.105-14.167Zm64.354 62.151c-5.654 2.098-8.529 7.715-6.397 13.281 2.133 5.564 8.551 9.195 14.205 7.095 5.654-2.098 7.659-8.856 5.526-14.421-2.132-5.564-7.681-8.054-13.334-5.955Zm.18-28.56c2.133 5.564 8.782 7.766 14.436 5.669 5.653-2.099 8.418-7.797 6.286-13.362-2.133-5.565-8.476-9.206-14.13-7.109-5.654 2.101-8.723 9.237-6.592 14.802ZM103.322 208.42c-2.133-5.564-9.39-8.737-15.043-6.638-5.654 2.097-7.91 8.803-5.778 14.367 2.134 5.565 7.78 7.709 13.434 5.611 5.654-2.1 9.52-7.774 7.387-13.34Zm66.121-52.434c2.133 5.564 8.629 8.265 14.284 6.165 5.653-2.099 7.809-8.011 5.676-13.575-2.132-5.567-7.61-8.323-13.265-6.224-5.654 2.098-8.826 8.069-6.695 13.634Zm42.591-50.341c2.132 5.565 8.865 8.366 14.52 6.266 5.654-2.098 7.669-8.146 5.536-13.71-2.132-5.567-7.658-8.68-13.312-6.58-5.654 2.098-8.876 8.46-6.744 14.024Zm-24.52 83.03c-2.131-5.564-8.49-8.699-14.143-6.599-5.656 2.098-9.206 8.91-7.072 14.476 2.131 5.564 9.29 8.168 14.944 6.068 5.654-2.098 8.404-8.38 6.271-13.945Z" fill="#CC3195"/></svg>