<svg width="142" height="137" fill="none" xmlns="http://www.w3.org/2000/svg"><path fill-rule="evenodd" clip-rule="evenodd" d="M-24.937 73.15c.038.355.145.595.265.595.13 0 .2.194.2.55 0 .367.07.55.209.55.139 0 .208.184.208.55 0 .367.07.55.21.55.114 0 .208.16.208.353 0 .377.979 1.594 1.497 1.86.172.09.313.247.313.35 0 .104.25.188.557.188.403 0 .557.077.557.275 0 .235.397.275 2.732.275 2.564 0 2.727-.02 2.665-.33-.055-.277.004-.318.35-.251.288.055.457-.013.545-.22.07-.164.25-.299.403-.299a.398.398 0 0 0 .356-.275c.044-.151.17-.275.278-.275.11 0 .235-.124.279-.275.044-.151.167-.275.274-.275.107 0 .194-.124.194-.275 0-.151.094-.275.209-.275.115 0 .209-.115.209-.256 0-.14.094-.303.208-.36.294-.15.268-.986-.034-1.098-.134-.05-.056-.077.174-.06.397.03.42-.007.46-.758.027-.475.123-.829.244-.89.303-.153.294-5.16-.008-5.314-.136-.069-.209-.354-.209-.825 0-.47-.072-.756-.209-.825-.115-.058-.209-.256-.209-.44 0-.183-.094-.457-.209-.609-.114-.151-.208-.332-.208-.4 0-.18-1.057-1.55-1.202-1.559-.067-.004-.275-.252-.463-.55-.188-.298-.415-.542-.505-.542-.09 0-.241-.124-.337-.275-.095-.152-.338-.278-.539-.281a1.07 1.07 0 0 1-.636-.276c-.395-.393-3.728-.388-3.976.007-.1.158-.404.274-.714.274-.387 0-.54.078-.54.276 0 .183-.139.275-.417.275-.279 0-.418.091-.418.275 0 .151-.094.275-.209.275-.115 0-.209.123-.209.275 0 .151-.062.275-.139.275-.18 0-.696.679-.696.917 0 .1-.094.183-.209.183-.116 0-.209.163-.209.367 0 .203-.093.367-.209.367-.115 0-.209.123-.209.275 0 .15-.061.275-.136.275-.075 0-.178.227-.228.504-.05.277-.186.648-.302.825-.215.326-.372 4.905-.216 6.326Zm3.522-3.439c.073 0 .173-.286.223-.635.05-.35.178-.731.285-.848.107-.117.194-.291.194-.388 0-.229.938-1.43 1.117-1.43.075 0 .136-.087.136-.194 0-.107.063-.143.14-.08.076.062.139.026.139-.081 0-.331 2.32-.253 2.417.08.044.152.24.275.433.275.22 0 .352.104.352.276 0 .15.063.275.14.275.18 0 .696.678.696.916 0 .101.094.184.209.184.139 0 .208.183.208.55 0 .367.07.55.21.55.12 0 .208.165.208.39 0 .313.038.347.196.174.152-.166.221-.16.302.023.057.13.052.177-.01.102-.228-.271-.488.291-.488 1.056 0 .527-.068.817-.209.889-.131.066-.209.346-.209.752 0 .454-.062.648-.208.648-.115 0-.21.124-.21.275 0 .17-.13.275-.34.275-.188 0-.392.103-.453.23-.16.328-.988.87-1.33.87-.16 0-.403.134-.54.296-.228.273-.266.273-.473 0-.124-.162-.41-.296-.637-.296-.462 0-1.684-1.418-1.857-2.154-.053-.227-.155-.413-.227-.413-.071 0-.13-.19-.13-.423 0-.233-.091-.584-.204-.78-.229-.398-.286-1.364-.08-1.364Zm26.81 19.554c.145.074.208.373.208.99 0 .541.081.99.209 1.16.115.15.209.476.209.723s.094.552.209.677c.115.126.209.419.209.651 0 .233.081.533.181.666.1.133.224.386.275.563.05.177.157.32.235.32.08 0 .144.112.144.248s.11.42.244.633c.134.211.369.591.522.844.153.253.357.463.452.468.096.005.174.132.174.283 0 .152.088.275.194.275.107 0 .23.124.275.275.043.152.168.276.276.276.107 0 .274.123.37.275.095.15.278.275.408.275.13 0 .415.247.636.55.22.302.482.55.583.55.1 0 .182.124.182.275 0 .183.14.275.418.275.279 0 .418.092.418.275 0 .203.16.275.611.275.41 0 .638.089.69.27.118.401 6.635.398 6.635-.004 0-.194.173-.266.631-.266.433 0 .657-.087.711-.275.046-.155.253-.275.473-.275.216 0 .487-.124.602-.275.115-.151.308-.275.428-.275s.219-.124.219-.275c0-.172.132-.275.352-.275.194 0 .389-.124.433-.275.044-.152.167-.275.274-.275.106 0 .194-.124.194-.275 0-.152.117-.275.26-.275.312 0 1.828-1.872 1.828-2.257 0-.15.094-.319.21-.377.114-.058.208-.238.208-.4 0-.161.098-.422.218-.58.146-.192.206-.552.181-1.082-.02-.436.007-.851.06-.922.054-.07.098.058.098.285 0 .55.334.396.395-.183a1.98 1.98 0 0 1 .261-.758.766.766 0 0 0 .11-.642c-.069-.22-.123-.252-.167-.098-.036.126-.13.229-.21.229-.088 0-.077-.107.027-.273.095-.15.228-.228.296-.173.068.056.123-.062.123-.261 0-.2.079-.397.174-.439.124-.054.188-.739.22-2.353.025-1.253.103-2.356.174-2.451.212-.288.147-2.713-.085-3.116-.112-.196-.204-.701-.204-1.123 0-.46-.084-.86-.209-.997a.942.942 0 0 1-.209-.55.943.943 0 0 0-.209-.55.97.97 0 0 1-.209-.567c0-.186-.188-.522-.417-.745-.23-.224-.418-.516-.418-.647 0-.133-.094-.241-.209-.241-.13 0-.209-.174-.209-.465 0-.255-.094-.511-.209-.569a.421.421 0 0 1-.209-.342c0-.338-1.108-1.925-1.343-1.925-.108 0-.233-.124-.277-.275-.044-.151-.167-.275-.274-.275-.107 0-.194-.124-.194-.275 0-.151-.098-.275-.219-.275-.12 0-.313-.124-.427-.275-.115-.151-.323-.275-.463-.275s-.29-.124-.334-.275c-.05-.17-.261-.275-.557-.275-.295 0-.507-.105-.557-.275-.058-.202-.3-.275-.905-.275-.604 0-.846-.074-.905-.275-.063-.216-.347-.275-1.323-.275s-1.26-.06-1.322-.275c-.059-.202-.3-.276-.903-.276-.562 0-.878.088-.996.275-.11.175-.418.276-.841.276-.757 0-1.143.144-1.03.386.043.09-.148.164-.423.164-.316 0-.53.101-.58.275-.044.151-.19.275-.327.275-.135 0-.324.123-.42.275-.095.151-.26.275-.365.275-.105 0-.191.124-.191.275 0 .183-.14.275-.418.275-.279 0-.418.092-.418.275 0 .151-.087.275-.194.275-.107 0-.23.124-.274.275-.044.151-.167.275-.273.275-.262 0-1.487 1.588-1.487 1.928 0 .15-.094.273-.208.273-.115 0-.21.115-.21.255s-.093.303-.208.361c-.115.058-.209.32-.209.58 0 .313.055.43.16.345.098-.08.124-.05.066.073a.22.22 0 0 1-.299.1c-.12-.06-.243.037-.302.237a2.905 2.905 0 0 1-.358.707c-.45.634-.938 2.111-.938 2.835 0 .395-.09.795-.209.925-.171.187-.209.816-.209 3.512 0 2.75.035 3.301.21 3.389Zm3.55-4.174c0-1.65.036-1.994.209-1.994.15 0 .209-.204.209-.74 0-.487.07-.774.208-.844.12-.06.21-.334.21-.636 0-.35.07-.53.208-.53.115 0 .209-.145.209-.322 0-.345 1.43-2.43 1.668-2.43.078 0 .142-.123.142-.274 0-.151.087-.275.194-.275.107 0 .23-.124.274-.275.044-.151.232-.275.418-.275.185 0 .373-.124.418-.275.047-.162.256-.275.506-.275s.46-.114.507-.275c.054-.188.277-.276.696-.276.419 0 .642-.087.696-.275.065-.221.383-.275 1.65-.275 1.225 0 1.607.06 1.742.275.106.168.41.275.783.275.45 0 .61.073.61.276 0 .183.139.275.417.275.279 0 .418.091.418.275 0 .183.14.275.418.275.278 0 .417.091.417.275 0 .151.094.275.21.275.114 0 .208.09.208.198 0 .216.849 1.664 1.356 2.314.173.222.315.496.315.609 0 .12.114.156.279.088.16-.067.278-.033.278.08 0 .107-.047.174-.105.149-.255-.112-.042 1.005.235 1.23.082.067.148.354.148.638 0 .284.094.62.21.745.3.33.296 5.606-.005 6.132-.113.196-.205.579-.205.852 0 .272-.094.542-.209.6-.114.058-.208.315-.208.57 0 .29-.079.464-.21.464-.114 0-.208.124-.208.275 0 .152-.058.275-.13.275-.071 0-.174.186-.229.413-.106.447-1.059 1.788-1.27 1.788-.07 0-.31.247-.53.55-.22.302-.482.55-.582.55-.1 0-.183.124-.183.275 0 .183-.14.275-.418.275-.278 0-.417.092-.417.275 0 .186-.141.275-.434.275-.345 0-.421.066-.37.321.073.37-3.074.388-3.247.019-.048-.103-.472-.233-.942-.288-.469-.056-.924-.215-1.01-.352-.087-.138-.31-.25-.494-.25s-.371-.124-.415-.275c-.044-.151-.23-.275-.413-.275-.184 0-.333-.085-.333-.19 0-.103-.097-.237-.214-.296-.557-.281-2.432-2.75-2.432-3.2 0-.09-.094-.165-.209-.165-.13 0-.209-.174-.209-.464 0-.255-.09-.51-.2-.565-.11-.056-.243-.363-.295-.682-.052-.32-.143-.663-.204-.764-.165-.276-.254-1.034-.192-1.628.03-.29.056-1.424.056-2.52Zm5.134-14.085c.15.008.116.07-.096.182-.194.102-.282.255-.222.383.064.136.04.165-.067.077-.222-.18.065-.658.385-.642Zm14.011-22.06c.151.175.178.512.114 1.413-.065.927-.034 1.284.145 1.643.126.253.228.777.228 1.164 0 .388.092.865.205 1.062.112.195.206.613.209.929.002.315.098.676.213.802.115.125.209.411.209.635 0 .224.125.557.278.74.153.182.279.56.279.84 0 .324.126.64.348.87.212.219.348.546.348.838 0 .302.076.477.209.477.139 0 .209.184.209.55 0 .367.07.55.209.55.13 0 .208.174.208.465 0 .255.094.511.21.57.114.057.208.22.208.36 0 .14.094.256.209.256.13 0 .209.174.209.464 0 .255.094.512.209.57.114.058.209.22.209.36 0 .141.093.256.208.256.139 0 .21.182.21.537 0 .296.093.661.208.812.115.151.209.366.209.478 0 .11.094.25.209.307.115.058.209.22.209.361 0 .14.065.256.146.256.08 0 .212.247.292.55.08.302.203.55.271.55.07 0 .126.124.126.275 0 .252.17.36.463.292.063-.014.072.065.02.176-.052.11.037.364.198.561.162.199.294.442.294.543 0 .1.188.424.417.72.23.296.418.623.418.728 0 .104.094.189.209.189.115 0 .209.126.209.28 0 .155.094.33.209.387.115.058.209.228.209.378 0 .338 2.726 3.906 2.984 3.906.104 0 .224.124.269.275.043.151.176.275.293.275.117 0 .213.124.213.275 0 .168.13.275.333.275.184 0 .37.124.414.275.044.151.176.275.293.275.117 0 .213.124.213.275 0 .151.074.275.163.275.09 0 .427.363.75.806.322.443.731.867.91.941.177.075.408.248.513.386.105.138.304.251.444.251s.29.124.334.275a.41.41 0 0 0 .373.275c.16 0 .386.124.501.275.115.151.397.275.627.275.23 0 .511.124.626.275.124.163.464.275.836.275.371 0 .712.112.835.275.174.23.77.275 3.583.275 2.513 0 3.418.06 3.547.23.115.15.622.229 1.483.229.862 0 1.368-.079 1.483-.23.12-.157.687-.229 1.807-.229 1.213 0 1.683-.066 1.828-.256.132-.174.632-.277 1.565-.32.935-.045 1.388-.138 1.428-.295.038-.15.355-.229.925-.229.546 0 .966-.1 1.137-.269.153-.153.578-.272.984-.275.46-.004.775-.104.887-.28.106-.169.411-.276.783-.276.394 0 .696-.113.855-.32.16-.209.484-.33.921-.346.372-.013.716-.104.764-.202.049-.099.333-.239.63-.31.299-.073.632-.25.742-.394.109-.144.407-.262.661-.262.283 0 .494-.107.543-.275.045-.157.253-.275.485-.275.222 0 .483-.124.578-.275.096-.151.356-.275.579-.275.231 0 .439-.118.485-.275.044-.153.251-.275.466-.275.212 0 .463-.124.559-.275.095-.151.283-.275.417-.275.135 0 .323-.124.418-.275.096-.151.284-.275.418-.275s.322-.124.418-.275c.095-.151.261-.275.37-.275.107 0 .231-.124.275-.275.044-.152.197-.275.34-.275.143 0 .398-.248.568-.55.18-.32.437-.55.614-.55a.638.638 0 0 0 .478-.276c.095-.15.257-.275.358-.275.102 0 .235-.103.296-.229.125-.257.514-.6.982-.867.172-.098.313-.263.313-.366 0-.104.094-.188.21-.188.114 0 .208-.124.208-.275 0-.151.094-.275.209-.275.115 0 .209-.08.209-.179 0-.098.172-.298.383-.445.487-.34 1.288-1.313 1.288-1.566 0-.107.094-.194.209-.194.114 0 .208-.104.208-.231 0-.128.141-.314.314-.413.172-.1.375-.367.45-.594.076-.227.217-.412.314-.412.096 0 .175-.124.175-.275 0-.152.094-.275.21-.275.114 0 .208-.124.208-.275 0-.152.094-.276.21-.276.114 0 .208-.11.208-.246s.125-.396.278-.579c.154-.182.279-.442.279-.578 0-.136.061-.247.136-.247.076 0 .176-.203.223-.45.047-.249.174-.548.281-.665.108-.117.195-.371.195-.563 0-.193.094-.398.21-.456.116-.059.208-.331.208-.616s.092-.558.209-.617c.115-.058.209-.304.209-.547 0-.243.094-.544.209-.67.115-.126.209-.425.209-.664 0-.24.046-.437.104-.438.221-.002.73-1.24.73-1.775 0-.309.095-.665.21-.79.129-.142.21-.553.213-1.077.003-.467.097-1.009.209-1.204.14-.243.204-.814.204-1.794 0-1.117.048-1.462.212-1.545.176-.089.21-.526.197-2.591-.012-2.09.02-2.51.206-2.647.31-.228.335-7.924.027-8.158-.309-.234-.347-1.813-.05-2.058.313-.258.34-1.976.04-2.5-.14-.243-.207-.827-.21-1.846-.003-1.096-.06-1.551-.213-1.719-.132-.145-.209-.55-.209-1.11 0-.538-.08-.988-.209-1.156-.117-.155-.208-.603-.208-1.027 0-.5-.07-.788-.21-.858-.13-.066-.21-.353-.213-.774-.002-.367-.096-.828-.209-1.023a1.827 1.827 0 0 1-.204-.767c0-.225-.094-.534-.209-.685-.115-.151-.209-.397-.209-.546 0-.43-.727-2.162-1.002-2.388-.138-.113-.25-.395-.25-.626 0-.231-.095-.468-.21-.526a.433.433 0 0 1-.208-.355c0-.268-.55-1.76-.705-1.911-.051-.05-.133-.261-.182-.468-.05-.206-.34-.729-.646-1.162-.306-.432-.595-.985-.64-1.229-.047-.243-.172-.442-.279-.442-.107 0-.194-.124-.194-.275 0-.151-.094-.275-.209-.275-.115 0-.209-.124-.209-.275 0-.152-.094-.275-.209-.275-.114 0-.208-.124-.208-.275 0-.152-.087-.275-.193-.275-.106 0-.232-.145-.28-.321-.21-.765-1.433-2.606-1.737-2.616-.048-.002-.285-.229-.526-.504-.652-.747-1.23-1.242-1.95-1.674-.165-.1-.34-.268-.391-.375-.05-.107-.238-.195-.417-.195-.178 0-.36-.124-.405-.275-.046-.16-.255-.275-.502-.275-.282 0-.422-.091-.422-.275 0-.176-.138-.278-.383-.283-.25-.005-.501-.196-.724-.55-.203-.321-.476-.542-.672-.542a.77.77 0 0 1-.538-.275c-.115-.152-.397-.275-.627-.275-.23 0-.511-.124-.626-.275-.124-.164-.464-.275-.836-.275-.371 0-.712-.112-.835-.275-.14-.184-.488-.276-1.044-.276-.557 0-.906-.091-1.045-.275-.15-.197-.515-.275-1.298-.275-.84 0-1.107-.062-1.17-.275-.067-.233-.555-.275-3.202-.275-2.646 0-3.134-.041-3.202-.275-.068-.234-.579-.275-3.409-.275-2.79 0-3.357.045-3.503.275-.128.205-.473.275-1.344.275-.912 0-1.188.06-1.25.275-.06.202-.3.275-.901.275-.637 0-.82.062-.82.275 0 .215-.186.276-.836.276-.65 0-.836.06-.836.275 0 .207-.168.275-.68.275-.478 0-.706.082-.763.275-.05.173-.263.275-.576.275-.312 0-.525.101-.576.275-.045.153-.251.275-.468.275-.216 0-.423.121-.468.275-.046.157-.254.275-.485.275-.223 0-.483.124-.579.275-.095.151-.286.275-.424.275-.139 0-.335.11-.437.244-.102.134-.357.301-.567.37-.21.07-.382.208-.382.307 0 .098-.12.18-.268.18a.66.66 0 0 0-.453.235c-.1.13-.434.437-.74.683-.72.577-1.078 1.135-.858 1.339.092.086.03.102-.144.037-.237-.087-.45.075-.948.722-.354.459-.67.834-.704.834-.034 0-.187.165-.34.367-.153.201-.373.366-.488.366-.114 0-.208.104-.208.232 0 .127-.141.313-.314.412-.172.1-.375.367-.45.594-.076.227-.217.413-.314.413s-.176.123-.176.275c0 .151-.094.275-.208.275-.115 0-.21.124-.21.275 0 .151-.093.275-.208.275-.115 0-.209.124-.209.275 0 .151-.06.275-.132.275-.13 0-.473.706-.647 1.33-.049.176-.175.32-.282.32-.105 0-.192.115-.192.256 0 .14-.094.303-.209.36-.115.059-.209.265-.209.46 0 .193-.094.4-.209.458-.115.058-.209.232-.209.386s-.094.28-.208.28c-.115 0-.21.086-.21.19 0 .105-.18.423-.401.707-.221.285-.443.687-.493.894-.05.207-.182.423-.294.479-.112.057-.204.23-.204.384s-.056.28-.125.28c-.07 0-.191.248-.271.55-.08.303-.212.55-.293.55-.08 0-.146.09-.146.198 0 .107-.094.32-.209.47a1.216 1.216 0 0 0-.209.63c0 .194-.094.353-.209.353-.139 0-.209.184-.209.55 0 .367-.07.55-.208.55-.115 0-.21.089-.21.197 0 .108-.093.32-.208.471a1.182 1.182 0 0 0-.209.61c0 .183-.094.381-.209.44-.115.057-.209.305-.209.55 0 .244-.094.491-.209.55-.114.057-.208.267-.208.466s-.188.632-.418.963c-.23.332-.418.782-.418 1 0 .22-.094.446-.209.504-.13.065-.209.345-.209.734s-.079.668-.208.733c-.13.065-.21.344-.21.73 0 .344-.093.728-.208.854-.126.138-.209.54-.209 1.011 0 .527-.068.818-.209.89-.16.08-.209.425-.209 1.463 0 .984-.057 1.421-.209 1.587-.176.193-.208.988-.208 5.054 0 3.02-.053 4.868-.14 4.94-.203.165-.16.88.07 1.147Zm3.62-10.474c.153-.077.21-.395.21-1.192 0-.796.055-1.114.208-1.192.132-.066.209-.347.209-.76 0-.451.11-.811.355-1.152.196-.273.391-.722.435-.997.043-.275.165-.595.27-.71.107-.116.193-.439.193-.718 0-.282.092-.555.209-.614.115-.058.209-.304.209-.547 0-.243.094-.544.209-.67.114-.125.208-.386.208-.578 0-.192.094-.398.21-.455.114-.059.208-.295.208-.525 0-.231.094-.467.209-.525.115-.058.209-.315.209-.57 0-.29.078-.464.209-.464.13 0 .209-.174.209-.464 0-.255.093-.512.208-.57a.42.42 0 0 0 .21-.341.42.42 0 0 1 .208-.342c.115-.058.209-.314.209-.57 0-.28.079-.464.2-.464.109 0 .239-.165.287-.366.049-.202.147-.367.218-.367.072 0 .13-.124.13-.275 0-.151.094-.275.21-.275.114 0 .208-.124.208-.275 0-.151.061-.275.136-.275.074 0 .227-.227.34-.505.112-.277.349-.727.526-1 .565-.872.808-1.316.808-1.48 0-.087.094-.282.209-.434.115-.151.209-.434.209-.629 0-.194.094-.353.209-.353.115 0 .209-.124.209-.275 0-.151.094-.275.208-.275.115 0 .21-.115.21-.256 0-.14.1-.306.224-.369.152-.077.203-.26.159-.57-.052-.353-.008-.456.192-.456.143 0 .26-.123.26-.275 0-.15.094-.275.209-.275.114 0 .208-.114.208-.255 0-.14.145-.303.322-.362.178-.058.672-.545 1.1-1.081.427-.536.94-1.074 1.14-1.193.2-.12.362-.302.362-.405 0-.103.094-.188.21-.188.114 0 .208-.084.208-.188 0-.103.141-.272.313-.376.677-.407 1.08-.747 1.08-.913 0-.095.15-.173.333-.173.183 0 .369-.124.413-.275.044-.151.232-.275.418-.275.185 0 .373-.124.418-.275.046-.158.253-.275.487-.275.233 0 .441-.117.487-.275.046-.157.254-.275.485-.275.223 0 .483-.124.579-.275.095-.152.346-.275.557-.275.21 0 .461-.124.557-.275.095-.152.385-.275.643-.275.325 0 .47-.085.47-.276 0-.202.161-.275.61-.275.372 0 .677-.107.783-.275.109-.172.416-.275.826-.275.359 0 .774-.12.923-.269.177-.177.611-.271 1.262-.275.708-.004 1.042-.085 1.166-.28.138-.219.54-.276 1.94-.276 1.337 0 1.832-.065 2.037-.269.405-.404 4.029-.4 4.336.006.18.237.57.28 2.291.248 1.14-.02 2.117.02 2.17.09.053.07-.01.074-.142.007-.166-.084-.24-.03-.24.173 0 .245.177.295 1.027.295.744 0 1.076.076 1.201.275.12.192.442.275 1.061.275.548 0 .888.077.888.2 0 .39.631.888 1.132.895.278.003.583.13.678.28.096.152.387.276.649.276.293 0 .505.105.554.275.045.153.252.275.466.275.212 0 .464.124.56.275.095.151.283.275.417.275s.322.124.418.275c.095.151.284.275.42.275.135 0 .282.124.326.275.044.151.24.275.433.275.22 0 .352.103.352.275a.27.27 0 0 0 .262.275c.143 0 .34.124.434.275.096.152.229.275.296.275.067 0 .252.172.411.381.16.21.379.336.488.28.119-.06.198.015.198.187 0 .158.391.804.87 1.438 1.103 1.46 1.636 2.255 1.636 2.443 0 .082.185.35.412.598.227.247.415.553.418.679.003.126.093.229.2.229.106 0 .233.207.281.461.12.633.507 1.19.826 1.19.206 0 .23.053.108.248-.148.234.701 2.784 1.104 3.318.073.095.132.408.132.693 0 .292.091.565.209.625.12.06.209.334.209.641 0 .308.089.582.209.642.134.069.209.352.209.8 0 .448.074.732.208.8.144.073.21.368.21.942 0 .575.065.87.208.942.15.076.209.385.209 1.095 0 .757.049.989.209.989.167 0 .209.275.209 1.375s.041 1.375.209 1.375c.173 0 .208.36.208 2.14 0 1.594.05 2.214.198 2.43.343.5.353 8.45.011 8.45-.174 0-.209.356-.209 2.114 0 1.71-.04 2.134-.209 2.22-.114.058-.21.282-.213.498a1.827 1.827 0 0 1-.209.75c-.112.195-.204.7-.204 1.123 0 .459-.084.86-.209.996-.126.137-.209.539-.209 1.011 0 .527-.068.818-.209.889-.136.069-.208.354-.208.825 0 .47-.073.756-.21.825-.137.07-.208.357-.208.845 0 .535-.058.74-.21.74-.138 0-.208.183-.208.55 0 .366-.07.55-.209.55-.115 0-.209.113-.209.252s-.1.362-.222.495c-.158.174-.2.425-.145.873.067.546.054.587-.102.306-.205-.37-.8.704-.835 1.511-.012.262-.108.413-.262.413-.134 0-.244.124-.244.275 0 .151-.091.275-.202.275-.112 0-.618.536-1.126 1.192-.507.656-.949 1.192-.98 1.192-.12 0-.616.74-.616.917 0 .1-.094.183-.209.183-.115 0-.209.124-.209.275a.276.276 0 0 1-.282.275.403.403 0 0 0-.363.275c-.044.152-.199.275-.344.275a.27.27 0 0 0-.264.275c0 .152-.094.275-.209.275-.114 0-.208.124-.208.275 0 .184-.14.276-.418.276-.278 0-.418.091-.418.275 0 .171-.132.275-.352.275-.194 0-.389.123-.433.275-.044.151-.232.275-.417.275-.186 0-.374.123-.418.275-.044.151-.232.275-.418.275-.186 0-.374.124-.418.275-.044.151-.232.275-.417.275-.186 0-.374.124-.418.275-.044.151-.222.275-.397.275a.649.649 0 0 0-.489.275.669.669 0 0 1-.509.275c-.184 0-.371.124-.415.275-.045.155-.252.275-.473.275-.216 0-.487.124-.602.275-.115.152-.397.275-.627.275-.23 0-.511.124-.626.275-.115.152-.376.275-.58.275-.204 0-.538.12-.741.264a2.843 2.843 0 0 1-.892.375c-.287.061-.522.19-.522.287 0 .096-.239.175-.53.175-.292 0-.652.12-.801.269-.149.148-.512.272-.806.275a2.326 2.326 0 0 0-.975.264c-.241.141-.803.302-1.249.355-.446.053-.884.173-.975.266-.09.094-.631.226-1.202.293-.571.066-1.073.19-1.114.273-.042.083-.825.199-1.741.257-1.275.08-1.703.172-1.823.39-.25.448-9.153.466-9.529.018-.142-.169-.53-.354-.861-.41-.331-.057-.726-.215-.877-.352-.151-.136-.407-.248-.57-.248-.179 0-.356-.18-.453-.458-.087-.252-.271-.459-.41-.459-.137 0-.357-.165-.488-.367-.131-.201-.364-.366-.518-.366a.276.276 0 0 1-.28-.275c0-.152-.067-.275-.15-.275-.081 0-.242-.124-.357-.275-.115-.152-.33-.276-.478-.276a.273.273 0 0 1-.268-.275c0-.15-.094-.275-.21-.275-.114 0-.208-.123-.208-.275 0-.15-.094-.275-.209-.275-.115 0-.209-.079-.209-.175 0-.097-.282-.394-.626-.66-.345-.265-.627-.558-.627-.65 0-.09-.094-.165-.209-.165-.115 0-.209-.124-.209-.275 0-.151-.094-.275-.208-.275-.115 0-.21-.124-.21-.275 0-.151-.093-.275-.208-.275-.115 0-.209-.083-.209-.184 0-.1-.11-.338-.244-.529-.134-.19-.525-.775-.87-1.301a60.454 60.454 0 0 0-1.01-1.495c-.21-.296-.382-.575-.382-.62 0-.045-.22-.38-.488-.743s-.487-.769-.487-.9a.424.424 0 0 0-.209-.346c-.115-.058-.209-.19-.209-.292 0-.284-.456-.925-.657-.925-.105 0-.178-.227-.178-.556 0-.325-.087-.6-.209-.661-.115-.058-.209-.265-.209-.459s-.094-.4-.209-.458c-.114-.058-.209-.264-.209-.458 0-.195-.093-.401-.208-.459-.115-.058-.21-.261-.21-.453 0-.19-.093-.347-.208-.347-.13 0-.209-.173-.209-.464 0-.255-.094-.512-.209-.57a.439.439 0 0 1-.209-.36c0-.14-.094-.256-.208-.256-.14 0-.21-.183-.21-.55 0-.367-.069-.55-.208-.55-.14 0-.21-.184-.21-.55 0-.367-.069-.55-.208-.55-.151 0-.209-.205-.209-.74 0-.488-.07-.775-.209-.844-.136-.07-.209-.355-.209-.825 0-.471-.072-.757-.208-.826-.142-.072-.21-.364-.21-.916s-.066-.846-.208-.917c-.155-.079-.209-.403-.209-1.256 0-.798-.064-1.22-.209-1.378-.176-.192-.209-1.008-.209-5.229 0-4.275.03-5.016.21-5.106Zm4.492 12.719c.03.252.147.554.262.671.142.145.209.544.209 1.238 0 .766.05 1.025.2 1.025.15 0 .198.269.198 1.1 0 .856.046 1.1.209 1.1.154 0 .209.214.209.825s.054.825.208.825c.14 0 .21.184.21.557 0 .324.086.6.208.66.115.059.209.306.209.55 0 .245.088.49.196.544.108.055.235.3.282.545.046.245.146.445.221.445.075 0 .136.165.136.367 0 .203.093.367.21.367.114 0 .208.115.208.255s.094.303.209.361c.115.058.209.309.209.557 0 .248.094.575.209.726.115.151.209.366.209.477 0 .112.094.25.208.308.115.058.21.22.21.36 0 .141.093.256.208.256.115 0 .209.124.209.275 0 .152.094.275.209.275.115 0 .209.124.209.275 0 .152.094.275.209.275.114 0 .208.124.208.276 0 .15.094.275.21.275.114 0 .208.123.208.275 0 .15.088.275.194.275.107 0 .23.123.274.275.044.151.176.275.293.275.118 0 .214.123.214.275 0 .239.358.38.741.292.063-.014.08.048.038.138-.098.208.752 1.15.916 1.017.067-.055.104-.02.084.076-.046.206.678 1.136.883 1.136.079 0 .236.123.351.275.115.151.33.275.478.275.147 0 .268.123.268.275 0 .172.132.275.353.275.193 0 .388.124.432.275.044.151.172.275.284.275.113 0 .298.124.413.275a.771.771 0 0 0 .54.275c.182 0 .39.137.46.304.08.185.219.258.36.187.14-.072.32.024.465.246.21.322.414.363 1.806.363h1.57v-.897c0-.628.063-.929.21-1.003.114-.058.208-.317.208-.575 0-.259-.094-.518-.209-.575-.114-.059-.208-.262-.208-.453 0-.264-.101-.347-.418-.347-.279 0-.418-.092-.418-.275 0-.204-.162-.276-.626-.276-.464 0-.627-.071-.627-.275 0-.183-.14-.275-.418-.275-.278 0-.417-.091-.417-.275 0-.183-.14-.275-.418-.275-.279 0-.418-.091-.418-.275 0-.151-.11-.279-.243-.283-.134-.004-.398-.251-.586-.55-.188-.298-.419-.542-.513-.542-.095 0-.378-.248-.63-.55-.251-.303-.532-.55-.625-.55-.092 0-.25-.103-.352-.23-.358-.445-1.485-1.604-1.56-1.604-.042 0-.257-.227-.478-.504a8.087 8.087 0 0 0-.701-.774c-.165-.149-.299-.337-.299-.419 0-.082-.181-.382-.402-.667-.221-.284-.445-.694-.497-.91-.052-.216-.153-.393-.224-.393-.072 0-.13-.127-.13-.281 0-.154-.094-.329-.209-.386a.439.439 0 0 1-.209-.362c0-.14-.094-.255-.209-.255-.13 0-.209-.174-.209-.464 0-.255-.094-.512-.208-.57-.115-.058-.21-.257-.21-.442s-.056-.382-.126-.44c-.185-.15-.709-1.628-.709-1.998 0-.173-.094-.362-.209-.42-.127-.065-.208-.343-.208-.715 0-.335-.094-.733-.21-.884-.13-.171-.208-.621-.208-1.192 0-.57-.08-1.021-.209-1.192-.168-.221-.209-.844-.209-3.2 0-2.262-.043-2.972-.192-3.134-.105-.115-.23-.457-.275-.76-.154-1.011-1.812-1.307-2.516-.447l-.378.461-.033 3.435c-.018 1.89-.01 3.642.02 3.894Zm37.14 62.162c.167 0 .21.275.21 1.375s.04 1.375.208 1.375c.155 0 .209.215.209.831 0 .57.066.864.209.936.119.061.209.334.209.637 0 .349.071.53.209.53.137 0 .208.181.208.53 0 .303.09.576.21.637.114.058.208.314.208.569 0 .291.078.465.209.465.115 0 .209.154.209.344 0 .189.088.44.195.557.107.118.234.416.28.664.048.248.148.452.224.452.075 0 .136.126.136.281 0 .154.089.325.197.379.107.055.23.281.272.502.043.221.534 1.035 1.092 1.809.558.773 1.249 1.742 1.535 2.151.286.41.584.745.662.745.077 0 .14.164.14.363 0 .45 1.403 2.388 1.728 2.388.131 0 .2.08.155.178-.046.098.076.23.27.295.195.064.354.231.354.372 0 .14.088.255.194.255.107 0 .23.124.274.275.044.151.24.275.433.275.22 0 .352.103.352.275 0 .172.132.275.353.275.193 0 .388.124.432.275.045.154.252.275.468.275.217 0 .424.122.469.275.054.187.277.275.696.275.43 0 .641.087.7.287.045.158.139.241.207.186.069-.056.157.062.197.263.098.494 9.814.58 10.124.09.131-.209.488-.275 1.479-.275 1.068 0 1.305-.05 1.305-.275 0-.218.199-.276.958-.276.681 0 1.008-.079 1.131-.275.115-.182.427-.275.927-.275.54 0 .775-.077.832-.275.055-.186.277-.275.693-.275.45 0 .611-.072.611-.275s.163-.275.627-.275c.464 0 .626-.071.626-.275 0-.191.146-.275.477-.275.263 0 .572-.124.687-.275a.783.783 0 0 1 .55-.275.675.675 0 0 0 .514-.275.654.654 0 0 1 .494-.275c.177 0 .405-.11.507-.244.102-.134.357-.301.567-.37.21-.07.381-.208.381-.307 0-.098.096-.179.214-.179.117 0 .249-.124.293-.275.044-.152.232-.275.418-.275.185 0 .373-.124.417-.275.045-.152.168-.276.275-.276.106 0 .193-.123.193-.275 0-.151.095-.275.211-.275.115 0 .317-.165.448-.366.132-.202.287-.367.346-.367.174 0 1.502-1.553 1.502-1.756 0-.068.297-.515.661-.993.801-1.053 1.149-1.647 1.149-1.964 0-.131.094-.238.209-.238.129 0 .209-.172.209-.449 0-.247.078-.516.174-.596.279-.236.661-1.263.661-1.78 0-.301.077-.476.209-.476.139 0 .209-.183.209-.551 0-.322.174-.868.417-1.311.338-.615.418-.944.418-1.721 0-.686.06-.992.209-1.067.167-.084.209-.481.209-1.958 0-1.403.051-1.92.209-2.128.168-.221.209-.846.209-3.209s-.041-2.987-.209-3.209c-.16-.211-.209-.742-.209-2.279 0-1.659-.036-2.004-.209-2.004-.163 0-.209-.245-.209-1.106 0-.814-.055-1.134-.209-1.211-.145-.073-.209-.372-.209-.98 0-.554-.076-.96-.208-1.104-.115-.125-.209-.45-.209-.72 0-.272-.092-.653-.205-.85a1.882 1.882 0 0 1-.208-.773c-.003-.23-.099-.466-.214-.524-.115-.058-.209-.299-.209-.535 0-.237-.078-.496-.174-.577-.095-.08-.299-.475-.452-.875-.153-.401-.378-.862-.498-1.023-.121-.161-.362-.68-.535-1.15-.173-.472-.372-.857-.442-.857-.069 0-.127-.08-.127-.177 0-.285-1.596-2.33-2.07-2.654-.24-.162-.436-.377-.436-.475 0-.098-.067-.178-.149-.178-.082 0-.243-.124-.358-.275-.115-.152-.323-.276-.463-.276-.139 0-.289-.123-.333-.274-.044-.152-.239-.276-.433-.276-.231 0-.352-.101-.352-.295 0-.225-.101-.277-.418-.216-.296.058-.418.006-.418-.178 0-.372-.57-.948-.944-.955-.175-.003-.354-.13-.398-.28-.09-.31-1.025-.393-1.025-.093 0 .101-.062.184-.139.184a.12.12 0 0 1-.123-.138c.082-.684-.02-.78-.837-.78-.61 0-.841-.072-.903-.281-.066-.227-.308-.276-1.217-.25-.922.025-1.158-.025-1.262-.269-.103-.242-.366-.3-1.382-.3-.963 0-1.232.054-1.156.23.079.183.061.183-.089 0-.303-.37-7.214-.327-7.322.046-.062.212-.33.275-1.18.275-.884 0-1.098.053-1.098.275 0 .214-.186.275-.836.275-.65 0-.835.06-.835.275 0 .203-.16.275-.61.275-.372 0-.677.107-.783.275-.095.151-.387.275-.648.275-.293 0-.505.105-.554.275-.046.157-.254.275-.483.275-.266 0-.403.094-.403.275 0 .184-.14.275-.418.275-.278 0-.418.092-.418.275 0 .184-.139.275-.417.275-.279 0-.418.092-.418.276 0 .15-.09.275-.199.275-.11 0-.282.11-.384.244-.102.134-.346.297-.543.362-.197.065-.528.326-.737.58-.209.256-.439.464-.511.464-.073 0-.132.124-.132.275 0 .151-.094.275-.21.275-.114 0-.208.124-.208.275 0 .151-.094.275-.209.275-.115 0-.209.124-.209.275 0 .151-.094.275-.209.275-.115 0-.209.085-.209.19 0 .104-.187.431-.417.727-.23.296-.418.623-.418.728 0 .104-.06.189-.136.189-.074 0-.227.227-.34.504a7.245 7.245 0 0 1-.57 1.054 48.3 48.3 0 0 0-.738 1.158c-.206.334-.484.767-.618.963-.134.195-.243.402-.243.46 0 .057-.094.228-.21.38a1.216 1.216 0 0 0-.208.628c0 .195-.094.354-.209.354-.116 0-.209.163-.209.367 0 .201-.061.366-.136.366-.076 0-.175.2-.222.446-.047.244-.173.49-.28.544-.109.055-.197.308-.197.563 0 .29-.079.464-.21.464-.137 0-.208.181-.208.53 0 .303-.09.577-.209.637-.122.061-.209.337-.209.661 0 .372-.069.556-.209.556-.153 0-.208.212-.208.806 0 .547-.068.839-.21.911-.114.058-.208.279-.208.491 0 .212-.094.509-.209.661-.115.151-.209.563-.209.916 0 .353-.094.766-.209.917-.173.228-.209.977-.209 4.388 0 3.534.03 4.113.21 4.113Zm3.772-8.019c.157-.206.207-.548.174-1.179-.04-.747-.008-.888.197-.888.196 0 .243-.161.243-.825 0-.611.055-.825.21-.825.138 0 .208-.183.208-.55 0-.367.07-.55.209-.55.115 0 .209-.156.209-.347 0-.191.094-.395.209-.453.115-.058.209-.273.209-.478 0-.209.091-.372.208-.372.14 0 .21-.184.21-.55 0-.367.069-.55.208-.55.115 0 .209-.08.209-.179 0-.098.282-.55.626-1.004.345-.454.627-.872.627-.93 0-.098.548-1.176.697-1.372.038-.05.25-.442.471-.87.22-.43.456-.78.522-.78s.12-.117.12-.26c0-.142.047-.287.105-.32.158-.093.73-1.212.73-1.43 0-.105.094-.19.21-.19.114 0 .208-.124.208-.275 0-.152.096-.275.214-.275.117 0 .249-.124.293-.276.044-.15.2-.274.348-.274.147 0 .304-.124.348-.276.044-.15.232-.275.418-.275.185 0 .373-.123.417-.275.045-.151.16-.275.258-.275.097 0 .254-.123.35-.275.095-.151.29-.275.434-.275a.27.27 0 0 0 .262-.275c0-.183.14-.275.418-.275.278 0 .417-.092.417-.275 0-.191.146-.275.478-.275.262 0 .571-.124.686-.275a.807.807 0 0 1 .571-.275c.2 0 .399-.124.443-.275.057-.196.29-.275.814-.275.482 0 .793-.095.907-.275.121-.192.442-.275 1.066-.275.664 0 .913-.07.972-.275.07-.237.677-.276 4.295-.276 3.577 0 4.241.042 4.388.276.122.192.443.275 1.073.275.812 0 .938.052 1.316.55.351.462.527.55 1.103.55.517 0 .685.068.685.275 0 .18.138.275.401.275.22 0 .479.124.574.275a.664.664 0 0 0 .505.275c.182 0 .331.074.331.165 0 .091.188.252.417.358.23.105.418.278.418.384 0 .107.157.193.348.193.217 0 .348.104.348.275 0 .152.088.275.194.275.107 0 .23.124.274.275.044.152.177.276.293.276.118 0 .214.096.214.214 0 .117.038.163.084.102.083-.11 1.865 2.232 1.865 2.45 0 .061.11.281.244.489.441.684.84 1.516 1.134 2.365.075.217.203.449.284.515.082.066.148.283.148.482 0 .2.094.41.209.467.129.065.209.344.209.728 0 .431.064.622.209.622.151 0 .209.205.209.74 0 .488.071.775.209.844.152.078.208.395.208 1.187 0 .838.047 1.08.209 1.08.17 0 .209.304.209 1.631 0 1.28.045 1.653.209 1.736.172.087.209.568.209 2.748 0 2.125-.041 2.687-.209 2.87a.942.942 0 0 0-.209.55.94.94 0 0 1-.209.55c-.15.165-.209.6-.209 1.559s-.058 1.394-.208 1.559c-.138.15-.209.558-.209 1.192 0 .633-.072 1.042-.209 1.191-.115.126-.209.457-.209.737 0 .282-.093.555-.209.613-.115.058-.209.306-.209.551 0 .244-.094.491-.209.55a.435.435 0 0 0-.208.358c0 .139-.11.421-.244.626-.134.206-.432.689-.661 1.073-.856 1.431-1.89 2.594-2.611 2.937-.134.064-.244.191-.244.283 0 .091-.141.251-.313.355-.677.406-1.079.747-1.079.913 0 .095-.15.173-.333.173-.184 0-.37.124-.414.275-.044.151-.168.275-.276.275-.108 0-.274.124-.37.275a.655.655 0 0 1-.496.275c-.177 0-.358.075-.401.167-.107.227-1.229.933-1.483.933-.112 0-.33.117-.485.26-.155.143-.514.317-.798.388-.284.07-.551.2-.593.29-.042.089-.195.162-.34.162-.145 0-.323.141-.396.313-.113.266-.166.275-.36.064-.266-.291-.913.049-.913.48 0 .298-.58.323-.8.034-.162-.213-1.041.196-1.215.566-.042.091-.258.045-.48-.101-.416-.274-1.474-.185-1.624.136-.041.087-.944.159-2.006.159-1.531 0-1.974.057-2.14.275-.163.214-.582.275-1.9.275-1.317 0-1.737-.061-1.9-.275-.127-.168-.469-.275-.88-.275-.468 0-.695-.083-.751-.275-.046-.159-.254-.275-.492-.275-.227 0-.513-.133-.636-.295a.618.618 0 0 0-.617-.219c-.323.062-.38.017-.327-.256.043-.211-.01-.331-.144-.331-.116 0-.246-.123-.29-.275-.044-.151-.24-.275-.433-.275-.22 0-.352-.103-.352-.275 0-.151-.094-.275-.21-.275-.114 0-.208-.124-.208-.275 0-.151-.094-.275-.209-.275-.115 0-.209-.078-.209-.175 0-.095-.318-.611-.706-1.146-.963-1.324-1.104-1.536-1.104-1.653 0-.056-.376-.615-.835-1.243-.46-.628-.836-1.238-.836-1.355 0-.118-.188-.485-.417-.816-.23-.331-.418-.68-.418-.775 0-.094-.094-.172-.209-.172-.139 0-.209-.182-.209-.541 0-.297-.078-.606-.174-.687-.215-.181-.478-.719-.677-1.385-.083-.277-.207-.504-.276-.504-.07 0-.126-.159-.126-.353 0-.195-.094-.478-.209-.629-.115-.152-.209-.49-.209-.753 0-.262-.094-.524-.209-.582-.14-.071-.208-.36-.208-.876 0-.424-.092-.931-.205-1.127-.314-.546-.307-7.501.008-7.916Zm3.469 8.385c.127.14.209.541.209 1.031 0 .592.055.803.208.803.151 0 .21.205.21.74 0 .487.07.774.208.844.115.058.209.306.209.55 0 .245.094.492.209.55.115.058.209.262.209.453s.094.347.209.347c.117 0 .208.164.208.374 0 .703 1.737 3.477 2.177 3.477.089 0 .197.124.24.275.045.151.177.275.294.275.117 0 .213.124.213.275 0 .151.088.275.194.275.107 0 .23.124.275.275.043.151.238.275.432.275.22 0 .352.103.352.275 0 .151.072.275.16.275.087 0 .231.132.32.292.09.161.325.306.524.321.2.016.337.082.308.146-.09.19.334.567.492.438.08-.065.146.01.146.168 0 .157.094.286.209.286.115 0 .193.076.174.169-.042.204 1.205 1.112 1.539 1.12.13.003.358.127.506.275 1.32 1.314 3.754-.937 3.064-2.834-.149-.409-.333-.748-.41-.753-.077-.005-.293-.254-.48-.552-.189-.299-.44-.543-.56-.543-.12 0-.451-.165-.737-.366-.285-.202-.606-.367-.712-.367-.105 0-.27-.124-.365-.275-.096-.151-.293-.275-.44-.275-.145 0-.296-.107-.334-.236-.038-.13-.349-.398-.69-.596-.343-.198-.623-.463-.623-.589-.001-.126-.09-.23-.196-.23-.107 0-.23-.123-.274-.275-.044-.151-.176-.275-.293-.275-.117 0-.214-.081-.214-.179 0-.099-.156-.232-.348-.296-.191-.063-.348-.229-.348-.37 0-.14-.094-.255-.209-.255-.114 0-.209-.115-.209-.255a.438.438 0 0 0-.208-.361c-.115-.058-.21-.276-.21-.484 0-.208-.093-.426-.208-.484-.115-.058-.209-.251-.209-.43a.947.947 0 0 0-.209-.553c-.115-.126-.209-.342-.209-.481 0-.139-.061-.253-.136-.253-.075 0-.18-.226-.233-.502-.052-.276-.179-.612-.28-.747-.102-.134-.186-.467-.186-.74 0-.273-.085-.659-.188-.858-.12-.229-.22-1.192-.273-2.637-.047-1.251-.15-2.361-.23-2.466a.94.94 0 0 1-.149-.475c-.016-.994-2.603-1.746-2.869-.835-.044.152-.167.275-.274.275-.298 0-.284 6.642.015 6.968Zm37.733-44.676c.139.183.209.641.209 1.369 0 .803.055 1.122.209 1.2.137.068.209.355.209.83 0 .4.083.837.185.97.102.135.229.471.281.748.053.276.157.502.233.502.075 0 .136.165.136.367 0 .203.093.367.209.367.115 0 .209.126.209.282 0 .384.567 1.368.788 1.368.101 0 .143.118.098.275-.047.16-.001.278.108.283.104.004.343.251.531.55.188.298.416.542.507.542.091 0 .203.129.249.287.046.157.147.235.224.172.077-.062.14.056.14.264 0 .207.087.377.192.377.106 0 .27.124.365.275.096.152.26.275.365.275.106 0 .324.174.484.385.189.249.409.355.624.301.236-.059.355.015.413.257.053.219.217.343.456.347.205.003.495.127.644.275.176.176.61.27 1.253.275.643.004 1.076.1 1.253.275.371.37 1.934.365 2.216-.006.151-.198.516-.275 1.306-.275.749 0 1.183-.085 1.368-.269.149-.148.442-.272.652-.275a.647.647 0 0 0 .552-.366c.12-.253.266-.329.488-.256.226.075.347.008.422-.235.058-.188.245-.36.417-.384.325-.045.872-.65.872-.965 0-.101.159-.184.352-.184.194 0 .389-.124.433-.275.044-.151.167-.275.274-.275.107 0 .194-.124.194-.275 0-.151.082-.275.182-.275.225 0 1.071-1.13 1.071-1.43 0-.121.094-.22.209-.22.115 0 .209-.114.209-.253s.094-.355.209-.48a.946.946 0 0 0 .209-.554c0-.178.094-.372.208-.43.123-.061.209-.337.209-.661 0-.312.123-.718.279-.923.17-.224.278-.611.278-.993 0-.345.079-.66.174-.703.309-.135.245-9.084-.067-9.384-.133-.129-.204-.283-.158-.344.162-.212-.096-1.412-.303-1.412-.134 0-.203-.193-.203-.571 0-.458-.049-.555-.248-.486-.208.072-.239-.013-.193-.529.041-.472.002-.614-.17-.614-.123 0-.224-.114-.224-.253s-.094-.355-.209-.48a.977.977 0 0 1-.209-.573c0-.19-.094-.344-.209-.344a.213.213 0 0 1-.209-.216c0-.35-2.353-3.268-2.635-3.268-.142 0-.295-.124-.339-.276-.044-.15-.241-.275-.437-.275s-.393-.123-.437-.275c-.048-.166-.259-.275-.535-.275-.251 0-.537-.129-.636-.286-.137-.217-.413-.277-1.148-.245-.779.033-.992-.018-1.096-.264-.182-.428-3.052-.453-3.319-.03-.123.196-.449.275-1.131.275-.758 0-.957.058-.957.275 0 .203-.161.275-.612.275-.415 0-.637.089-.692.275a.4.4 0 0 1-.357.276c-.392 0-1.256.597-1.26.87-.002.127-.124.23-.272.23-.148 0-.362.123-.477.275-.115.151-.245.275-.289.275-.126 0-1.611 2.016-1.611 2.189 0 .086-.094.203-.209.261-.114.058-.208.314-.208.57 0 .255-.077.464-.171.464-.242 0-1.083 1.289-1.083 1.661a.93.93 0 0 1-.208.54c-.115.125-.209.509-.209.853 0 .386-.08.665-.209.73-.155.078-.209.403-.209 1.258 0 .856-.054 1.18-.209 1.259-.171.086-.209.538-.209 2.482 0 1.868.045 2.435.209 2.651Zm3.342-4.283c.131 0 .209-.174.209-.47 0-.257.056-.423.124-.367.153.124.293-.32.293-.925 0-.248.094-.497.209-.555.117-.06.209-.332.209-.617s.092-.557.209-.616c.115-.058.209-.274.209-.478 0-.21.092-.373.209-.373.116 0 .209-.163.209-.366 0-.204.093-.367.208-.367.115 0 .209-.087.209-.192 0-.202.473-.825 1.146-1.509.221-.224.533-.552.693-.729.161-.176.379-.32.484-.32.106 0 .228-.124.272-.276.046-.157.254-.275.488-.275.233 0 .441-.117.487-.275.057-.194.287-.275.785-.275.471 0 .793-.104.969-.314.353-.42 1.838-.387 2.205.05.178.213.438.283.88.237.507-.053.64-.004.691.256.048.24.208.321.634.321.363 0 .57.084.57.23.001.126.188.394.418.595.229.202.417.47.417.596s.094.23.209.23c.115 0 .209.123.209.275 0 .15.094.275.209.275.115 0 .209.123.209.275 0 .15.094.275.209.275.114 0 .208.085.208.189 0 .105.188.432.418.728.23.295.418.614.418.707 0 .094.094.218.209.276.115.058.209.275.209.483 0 .209.094.426.208.484.118.06.209.333.209.623 0 .285.094.642.209.793.135.177.209.63.209 1.274 0 .664.07 1.076.209 1.227.248.272.287 1.769.049 1.874-.089.038-.191.558-.229 1.154-.038.597-.154 1.197-.258 1.334-.103.137-.189.482-.189.766 0 .29-.091.564-.209.623-.114.058-.208.276-.208.484 0 .208-.094.426-.209.484-.115.058-.209.174-.209.259 0 .212-1.795 2.558-1.957 2.558-.073 0-.132.114-.132.255 0 .14-.156.306-.348.37-.191.063-.348.196-.348.295 0 .099-.125.18-.278.18a.276.276 0 0 0-.279.275c0 .182-.138.275-.407.275-.225 0-.502.124-.617.275-.115.151-.452.275-.749.275-.298 0-.662.12-.811.269-.329.328-2.099.389-2.179.074-.029-.113-.394-.25-.812-.302-.506-.063-.818-.203-.933-.418-.095-.177-.458-.504-.805-.726-.348-.221-.711-.497-.806-.612-.254-.308-1.048-1.036-1.13-1.036-.129 0-1.054-1.292-1.054-1.472 0-.098-.094-.178-.209-.178-.115 0-.209-.124-.209-.275 0-.151-.115-.275-.255-.275-.203 0-.242-.11-.192-.55.05-.45.012-.55-.209-.55s-.259-.1-.209-.55c.046-.418.007-.55-.164-.55-.234 0-.267-.192-.227-1.33.017-.479-.043-.722-.195-.8-.317-.16-.328-3.555-.011-3.555Z" fill="#42A1CA"/></svg>