<svg width="170" height="170" fill="none" xmlns="http://www.w3.org/2000/svg"><path d="m152.202 94.954 11.327-3.286.125-1.532-10.649-5.07-.123 1.516 2.736 1.297-.383 4.72-2.91.84-.123 1.515Zm9.492-4.206-5.145 1.477.306-3.764 4.839 2.287ZM153.644 103.81c-1.564-.408-1.865-1.77-1.612-2.779.253-1.009 1.212-1.544 2.438-1.237l4.159 1.043.339-1.35-4.191-1.05c-2.029-.526-3.52.288-3.975 2.104-.203.807-.091 2.072.716 2.736l-1.133-.284-.339 1.35 7.248 1.817.339-1.35-3.989-1ZM147.29 111.27c-.605 1.429-.318 3.01.964 3.552.781.33 1.792.323 2.75-.957l.681-.911c.29-.398.728-.734 1.199-.535.531.225.771.847.491 1.51-.231.546-.815.941-1.352.732l-.524 1.237c1.385.586 2.516-.36 3.008-1.525.586-1.385.099-2.737-1.036-3.217-1.105-.467-1.946-.041-2.742.977l-.62.85c-.348.495-.782.781-1.298.563-.56-.237-.769-.933-.401-1.803.356-.84 1.06-1.15 1.656-.915l.505-1.194c-1.44-.539-2.757.398-3.281 1.636ZM150.212 122.562l2.44 1.405.695-1.206-2.44-1.405.671-1.165-1.04-.598-.671 1.164-5.436-3.129-.695 1.206 5.436 3.129-.807 1.401 1.04.598.807-1.4ZM145.08 130.647c.584-.802.542-1.723-.293-2.805l1.371.997.829-1.138-6.043-4.395-.829 1.139 2.213 1.609c1.592 1.157 2.55 2.586 1.675 3.789-.17.233-.457.519-.848.73l.93.952c.248-.096.685-.451.995-.878ZM137.302 137.474c.979.25 2.056-.181 2.83-.99 1.461-1.525 1.342-3.876-.253-5.403-1.653-1.582-4.028-1.485-5.378-.075-.83.867-1.098 2.049-.794 3.027l-.959-.918-.963 1.005 5.398 5.167.963-1.006-.844-.807Zm-1.997-5.41c.952-.994 2.571-.95 3.6.034 1.017.974 1.132 2.589.191 3.571-.863.902-2.534 1.097-3.644.035-1.098-1.051-1.065-2.681-.147-3.64ZM127.765 137.561l7.32 8.916 1.076-.883-7.32-8.916-1.076.883ZM129.558 147.872c-.445.312-.583.896-.28 1.329.303.432.899.503 1.345.191.432-.303.57-.887.267-1.32-.302-.432-.899-.503-1.332-.2Zm-5.908-7.212 4.285 6.121 1.141-.798-4.285-6.121-1.141.798ZM118.235 151.219c.852.543 2.009.471 2.998-.055 1.864-.993 2.486-3.263 1.448-5.212-1.076-2.019-3.362-2.669-5.085-1.752-1.059.564-1.684 1.603-1.7 2.627l-.625-1.172-1.228.654 3.513 6.595 1.228-.654-.549-1.031Zm-.206-5.763c1.215-.647 2.74-.099 3.409 1.158.662 1.242.266 2.813-.935 3.452-1.101.586-2.749.249-3.471-1.107-.715-1.341-.175-2.879.997-3.503ZM108.879 156.552c.775-.257 1.797-1.036 1.934-2.043l.359 1.078 1.321-.44-2.361-7.089-1.321.44 1.279 3.84c.511 1.534-.476 2.52-1.463 2.848-.987.328-1.968-.188-2.363-1.372l-1.339-4.023-1.321.44 1.365 4.098c.647 1.994 2.149 2.809 3.91 2.223ZM86.328 158.665c-1.015.46-1.31 1.454-1.255 2.413.1 1.725 1.313 2.744 3.134 2.639l4.137-.24-.637-11.005-4.489.26c-2.013.116-3.123 1.703-3.031 3.284.07 1.198.83 2.436 2.14 2.649Zm.19 2.185c-.054-.943.401-1.658 1.392-1.716l2.715-.157.188 3.243-2.668.154c-1.006.058-1.572-.582-1.626-1.524Zm3.813-6.952.22 3.801-2.811.163c-1.342.078-2.035-.812-2.092-1.802-.06-1.022.594-1.926 1.951-2.004l2.732-.158ZM77.308 152.12c-2.113-.253-4.079 1.09-4.361 3.441-.282 2.351 1.312 4.106 3.425 4.359 2.112.254 4.06-1.076 4.343-3.427.283-2.351-1.294-4.119-3.407-4.373Zm-.156 1.303c1.35.162 2.35 1.361 2.165 2.902-.183 1.525-1.439 2.454-2.789 2.292-1.366-.164-2.382-1.365-2.199-2.89.185-1.541 1.457-2.468 2.823-2.304ZM65.7 157.719l-.717 2.724 1.346.353.717-2.723 1.3.342.304-1.161-1.3-.342 1.596-6.065-1.347-.354-1.595 6.066-1.563-.411-.305 1.16 1.563.411ZM54.943 152.725c.121 1.003.913 1.85 1.948 2.279 1.952.808 4.1-.156 4.945-2.195.876-2.114-.075-4.292-1.879-5.038-1.108-.459-2.308-.281-3.11.357l.509-1.227-1.286-.532-2.86 6.903 1.286.532.447-1.079Zm4.32-3.822c1.271.527 1.817 2.051 1.272 3.367-.539 1.301-2.003 1.993-3.26 1.473-1.153-.478-1.94-1.964-1.352-3.383.582-1.404 2.113-1.965 3.34-1.457ZM44.912 148.891c.692.432 1.944.725 2.807.19l-.603.962 1.18.739 3.966-6.333-1.18-.738-2.148 3.43c-.858 1.37-2.247 1.237-3.129.685-.881-.552-1.108-1.637-.445-2.695l2.25-3.593-1.18-.739-2.293 3.662c-1.126 1.768-.798 3.445.775 4.43ZM36.852 145.16c-.423-.341-1.023-.312-1.355.098-.332.411-.235 1.004.188 1.346.41.331 1.01.302 1.343-.108.332-.411.235-1.004-.176-1.336Zm5.3-7.67-4.7 5.81 1.083.875 4.699-5.81-1.083-.875ZM35.834 131.366c-.817-.835-1.854-1.253-2.839-1.207l-.036 1.266c.668-.004 1.355.264 1.903.824 1.03 1.052 1.08 2.659-.018 3.733-1.098 1.074-2.692.978-3.722-.074-.548-.561-.8-1.253-.782-1.921l-1.268.009c-.056.972.329 2.029 1.146 2.863 1.5 1.533 3.918 1.785 5.611.13 1.693-1.656 1.505-4.091.005-5.623ZM23.551 126.41c-.43.914-.21 2.052.44 2.965 1.224 1.722 3.556 2.047 5.355.768 1.866-1.325 2.217-3.675 1.086-5.266-.695-.978-1.807-1.464-2.825-1.349l1.083-.77-.807-1.134-6.09 4.328.806 1.134.952-.676Zm5.69-.943c.798 1.122.45 2.704-.71 3.528-1.148.816-2.757.624-3.545-.484-.723-1.017-.6-2.694.652-3.584 1.239-.88 2.834-.542 3.604.54ZM25.268 117.046l-10.142 5.496.663 1.224 10.143-5.496-.664-1.224ZM22.45 110.641c-.588-1.436-1.912-2.346-3.2-1.818-.785.322-1.492 1.043-1.259 2.625l.168 1.125c.078.486.008 1.034-.465 1.228-.533.218-1.145-.05-1.418-.716-.224-.548-.094-1.242.433-1.475l-.51-1.243c-1.391.57-1.516 2.039-1.036 3.208.57 1.392 1.874 1.999 3.014 1.532 1.11-.455 1.4-1.352 1.238-2.634l-.167-1.038c-.106-.597-.003-1.106.515-1.318.563-.23 1.204.112 1.563.985.345.844.07 1.563-.517 1.82l.492 1.199c1.397-.641 1.66-2.236 1.15-3.48ZM14.73 94.276l-1.327.216.892 5.464 1.326-.216-.891-5.464ZM17.8 75.046 6.472 78.334l-.125 1.531 10.648 5.068.124-1.515-2.736-1.297.384-4.72 2.91-.84.123-1.515Zm-9.493 4.207 5.145-1.477-.306 3.763-4.839-2.286ZM16.405 66.005c1.562.415 1.858 1.778 1.601 2.786-.256 1.008-1.217 1.539-2.442 1.227l-4.156-1.058-.343 1.349 4.186 1.066c2.027.533 3.521-.276 3.983-2.09.206-.806.099-2.071-.705-2.739l1.132.289.343-1.35-7.24-1.843-.344 1.349 3.985 1.014ZM22.788 58.527c.61-1.427.329-3.008-.951-3.555-.78-.333-1.79-.33-2.754.946l-.684.908c-.292.398-.73.732-1.201.531-.53-.226-.768-.85-.485-1.512.233-.544.819-.938 1.355-.726l.528-1.236c-1.383-.59-2.517.351-3.014 1.514-.59 1.383-.109 2.737 1.024 3.221 1.104.472 1.946.048 2.746-.967l.623-.847c.35-.494.785-.779 1.3-.559.559.24.766.937.395 1.805-.359.838-1.065 1.146-1.66.909l-.509 1.192c1.438.544 2.758-.388 3.287-1.624ZM19.712 47.55l-2.44-1.405-.695 1.206 2.44 1.405-.671 1.165 1.04.599.67-1.165 5.436 3.13.695-1.206-5.435-3.13.806-1.4-1.04-.599-.806 1.4ZM24.834 39.45c-.583.802-.541 1.723.294 2.805l-1.372-.997-.828 1.139 6.043 4.394.828-1.138-2.212-1.61c-1.592-1.157-2.55-2.586-1.675-3.79.17-.232.456-.518.847-.728l-.93-.953c-.248.096-.684.451-.995.878ZM32.832 32.377c-.978-.254-2.057.173-2.834.979-1.467 1.52-1.356 3.871.234 5.404 1.647 1.587 4.022 1.499 5.377.094.833-.864 1.106-2.045.805-3.024l.956.922.967-1.002-5.38-5.186-.966 1.002.84.81Zm1.977 5.417c-.955.99-2.575.94-3.6-.048-1.014-.977-1.122-2.593-.178-3.572.867-.898 2.538-1.087 3.644-.02 1.094 1.054 1.056 2.684.134 3.64ZM42.306 32.357l-7.287-8.943-1.08.879 7.288 8.943 1.08-.88ZM40.24 22.247c.445-.312.583-.896.28-1.329-.303-.432-.9-.503-1.345-.191-.433.302-.57.887-.267 1.32.302.432.899.503 1.331.2Zm5.907 7.212-4.285-6.121-1.14.798 4.285 6.121 1.14-.798ZM51.541 18.876c-.851-.544-2.01-.471-2.998.055-1.864.993-2.486 3.263-1.448 5.212 1.076 2.02 3.362 2.67 5.085 1.752 1.06-.564 1.684-1.604 1.7-2.627l.625 1.172 1.229-.654-3.513-6.595-1.229.654.55 1.03Zm.206 5.763c-1.215.647-2.74.099-3.409-1.158-.662-1.243-.266-2.813.935-3.452 1.102-.587 2.75-.25 3.472 1.106.714 1.342.174 2.88-.998 3.504ZM60.905 13.495c-.774.257-1.796 1.036-1.933 2.043l-.36-1.078-1.32.44 2.36 7.089 1.322-.44-1.28-3.84c-.51-1.534.477-2.52 1.464-2.848.987-.329 1.968.188 2.362 1.372l1.34 4.023 1.32-.44-1.364-4.098c-.647-1.994-2.15-2.81-3.91-2.223ZM83.655 11.322c1.017-.455 1.316-1.449 1.264-2.407-.093-1.726-1.303-2.75-3.124-2.652l-4.138.224.596 11.008 4.489-.243c2.013-.108 3.13-1.691 3.044-3.273-.065-1.198-.821-2.439-2.131-2.657Zm-.182-2.185c.05.943-.407 1.656-1.398 1.71l-2.716.147-.175-3.243 2.668-.145c1.006-.054 1.57.588 1.62 1.531Zm-3.84 6.937-.205-3.802 2.812-.152c1.342-.073 2.031.82 2.085 1.81.055 1.023-.601 1.923-1.96 1.997l-2.731.147ZM92.308 17.81c2.112.254 4.078-1.09 4.36-3.44.281-2.352-1.314-4.107-3.426-4.361-2.113-.254-4.06 1.075-4.343 3.426-.281 2.35 1.296 4.12 3.409 4.374Zm.156-1.303c-1.35-.163-2.351-1.363-2.167-2.904.183-1.525 1.438-2.454 2.789-2.291 1.366.164 2.382 1.366 2.2 2.891-.185 1.541-1.456 2.468-2.822 2.303ZM104.021 12.183l.716-2.723-1.346-.354-.716 2.723-1.3-.341-.305 1.16 1.3.342-1.595 6.066 1.346.354 1.595-6.066 1.563.41.305-1.16-1.563-.41ZM115.066 17.26c-.118-1.004-.907-1.855-1.94-2.287-1.948-.815-4.1.14-4.953 2.177-.884 2.11.059 4.292 1.86 5.045 1.107.463 2.307.29 3.111-.346l-.513 1.225 1.284.537 2.886-6.892-1.284-.537-.451 1.077Zm-4.335 3.805c-1.269-.531-1.809-2.058-1.259-3.372.544-1.298 2.011-1.985 3.265-1.46 1.152.482 1.933 1.97 1.34 3.387-.587 1.403-2.121 1.958-3.346 1.445ZM125.059 21.065c-.69-.435-1.94-.733-2.806-.2l.607-.96-1.178-.744-3.989 6.319 1.178.742 2.161-3.423c.862-1.366 2.251-1.228 3.131-.673.879.555 1.102 1.641.435 2.697l-2.263 3.585 1.177.743 2.306-3.653c1.133-1.764.811-3.443-.759-4.433ZM133.126 24.792c.421.343 1.021.316 1.355-.093.334-.41.239-1.002-.183-1.346-.409-.333-1.009-.306-1.343.103-.334.41-.239 1.003.171 1.336Zm-5.327 7.65 4.72-5.791-1.079-.88-4.72 5.793 1.079.879ZM134.083 38.523c.817.835 1.853 1.254 2.838 1.208l.037-1.267c-.668.004-1.356-.263-1.904-.824-1.03-1.052-1.08-2.659.018-3.733 1.098-1.074 2.693-.977 3.722.075.549.56.801 1.253.783 1.92l1.267-.009c.056-.972-.328-2.028-1.145-2.863-1.5-1.532-3.919-1.785-5.612-.129s-1.504 4.09-.004 5.622ZM146.549 43.715c.433-.912.217-2.052-.429-2.967-1.217-1.725-3.548-2.06-5.353-.787-1.87 1.319-2.23 3.667-1.104 5.262.691.98 1.801 1.47 2.819 1.36l-1.085.765.802 1.137 6.107-4.305-.802-1.138-.955.673Zm-5.694.922c-.793-1.124-.44-2.705.724-3.525 1.151-.812 2.759-.614 3.543.497.719 1.02.59 2.696-.665 3.581-1.242.876-2.837.532-3.602-.553ZM144.818 53.086l10.163-5.459-.659-1.226-10.163 5.459.659 1.226ZM147.517 59.248c.589 1.436 1.913 2.346 3.201 1.819.785-.322 1.492-1.044 1.258-2.625l-.167-1.125c-.078-.487-.009-1.034.465-1.228.533-.218 1.145.05 1.418.716.224.548.094 1.241-.433 1.474l.509 1.244c1.392-.57 1.516-2.039 1.037-3.209-.571-1.391-1.874-1.998-3.014-1.531-1.111.455-1.4 1.352-1.238 2.634l.166 1.038c.107.596.004 1.105-.514 1.318-.563.23-1.205-.112-1.563-.986-.346-.844-.069-1.562.517-1.82l-.492-1.198c-1.397.641-1.66 2.236-1.15 3.48ZM155.303 75.939l1.327-.211-.87-5.468-1.328.212.871 5.467Z" fill="#42A1CA"/><path d="m108.039 123.32.005-.006a7.914 7.914 0 0 0 1.588-3.1 2.296 2.296 0 0 0-.883-2.289l-.11-.067a6.373 6.373 0 0 0-3.347-.956c-.968 0-1.94.223-2.848.675-.559.3-.886.911-.817 1.563.015.092.224 1.413.754 2.828.276.735.628 1.466 1.063 2.057.437.593.921.997 1.451 1.17l3.144-1.875Zm0 0-.005.006m.005-.006-.005.006m0 0c-.37.463-.834.948-1.358 1.312-.523.364-1.067.581-1.618.582m2.976-1.894-2.976 1.894m0 0a.564.564 0 0 1-.163-.025l.163.025ZM91.419 103.852Zm-39.94-2.581Zm68.898-19.463c.65.737 1.13 1.283 1.434 1.692l.224.303h.005c.875 1.247 1.301 2.357 1.487 3.507.205 1.269.126 2.621-.035 4.349-.355 3.763-1.483 5.717-3.397 8.627a12.45 12.45 0 0 1-1.084 1.394l-.005.006-.005.005c-.981 1.137-2.073 2.422-4.11 7.135-1.781 4.129-5.765 4.621-8.766 4.961a5.882 5.882 0 0 1-.917.053l-.008-.001a16.36 16.36 0 0 1-7.893-2.37c-1.263-.794-2.493-2.385-3.46-4.027-.97-1.646-1.582-3.177-1.693-3.735-.097-.491-.37-.928-.7-1.302-.335-.379-.765-.736-1.246-1.068-.962-.664-2.203-1.282-3.503-1.809-2.579-1.045-5.567-1.803-7.315-1.803h-.025l-.023.001a25.714 25.714 0 0 0-8.59 2.04l-.005.003c-.378.166-1.338.729-2.456 1.389-2.537 1.49-5.069 2.947-7.273 4.002-1.102.528-2.105.947-2.974 1.22-.882.276-1.565.382-2.047.338a11.347 11.347 0 0 0-.676-.03c-.647-.018-1.47-.043-2.217-.244-.74-.2-1.265-.533-1.517-1.062a2.203 2.203 0 0 1 .088-1.764l.011-.023.01-.022a7.686 7.686 0 0 0 .53-2.24v-.008c.026-.341-.032-.727-.121-1.107-.092-.39-.228-.824-.394-1.28-.33-.91-.791-1.951-1.287-2.974-.987-2.038-2.147-4.079-2.758-4.966l-.006-.01a7.732 7.732 0 0 1-.234-.47c-.126-.276-.28-.645-.448-1.082a29.068 29.068 0 0 1-1.022-3.232c-.307-1.224-.535-2.513-.576-3.7-.042-1.198.11-2.22.495-2.963.542-1.047 1.667-1.94 3.11-2.718 1.43-.772 3.057-1.374 4.49-1.902l.003-.002.93-.348a15.996 15.996 0 0 0 5.519-3.488l.031-.03.028-.034a89.49 89.49 0 0 0 5.871-8l.009-.012.008-.013s.004-.008.016-.024l.047-.062c.041-.052.097-.116.166-.193.14-.153.324-.341.544-.553.439-.424 1.002-.926 1.595-1.406.596-.481 1.206-.929 1.74-1.252.267-.162.501-.285.696-.365a1.27 1.27 0 0 1 .333-.1c.8.054 1.557.395 2.156.991l.016.016.016.015a6.488 6.488 0 0 0 .834.628l.617.393.736.467.352-.798.297-.672v-.002c.21-.48.371-.98.485-1.519l.004-.016.002-.017c.149-.902.852-2.102 1.783-3.2.454-.536.94-1.02 1.394-1.402.465-.39.86-.642 1.137-.753.35-.139.967-.212 2.212-.085 1.227.124 2.958.429 5.465.949h.002c.341.07.81.166 1.047.202l.032.005.032.002c.727.05 1.403.136 1.94.33.528.19.829.449.968.79v.001c.135.333.109.652-.101 1.067-.227.448-.631.933-1.178 1.536-.511.517-.968 1.09-1.36 1.702v.001l-.265.416-.315.495.404.425.341.358a17.545 17.545 0 0 0 4.001 3.144 14.526 14.526 0 0 0 4.769 2.182l.323.083.386.1.298-.266.25-.222c.093-.082.242-.218.395-.483.14-.242.269-.568.396-1.032.252-.924.526-2.518.794-5.372.225-2.4.464-4.328.961-5.655.245-.653.53-1.097.851-1.375.303-.263.682-.417 1.215-.417.179 0 .338.097.413.215.421.79.8 1.618 1.124 2.45a19.557 19.557 0 0 0 1.692 3.488l.027.044.032.04c.615.752 1.354 2.195 2.167 4.064.802 1.841 1.64 4.009 2.47 6.156a67.421 67.421 0 0 0 3.148 7.41l.02.04.024.037a43.252 43.252 0 0 0 4.557 5.813Z" fill="#fff" stroke="#42A1CA" stroke-width="1.5"/></svg>