<svg width="155" height="84" viewBox="0 0 155 84" fill="none" xmlns="http://www.w3.org/2000/svg">
<path d="M188.533 127.278C188.461 127.026 174.494 109.157 162.17 100.898C149.846 92.6387 147.519 89.3413 135 86.8033C122.481 84.2651 117.419 85.07 111.66 86.1357C105.901 87.2015 92.7658 89.5118 79.2235 81.0807C65.6814 72.6496 56.0118 63.3614 52.4016 60.7575C48.7911 58.1537 28.6228 43.6025 13.1825 38.9915C-2.25772 34.3806 -1.5731 34.9177 3.06619 34.65C7.70546 34.3821 25.6816 34.0493 49.7005 44.0186C73.7192 53.988 97.1536 62.98 108.764 70.5828C120.374 78.1856 119.222 81.6837 124.755 83.0944C130.288 84.505 134.78 85.0502 137.298 85.4461C139.816 85.8418 142.041 86.4538 140.97 85.469C139.9 84.4842 128.579 74.9496 124.608 70.3019C120.637 65.654 116.55 60.529 106.174 58.5506C95.7974 56.5722 84.6929 51.6101 76.0595 42.8814C67.426 34.1529 63.8978 27.066 53.5291 19.4485C43.1604 11.8311 33.6455 5.16096 30.2682 3.51191C26.8908 1.86294 23.5501 0.479893 25.6111 0.362082C27.6719 0.244392 48.8471 3.66417 63.9917 9.58916C79.1363 15.5142 96.1216 24.7289 105.414 35.5911C114.706 46.4531 115.256 56.0756 120.823 62.4466C126.391 68.8177 136.122 80.0603 145.298 85.9099C154.474 91.7593 160.061 96.1591 160.061 96.1591C160.061 96.1591 161.264 97.2712 159.646 93.8546C154.359 82.6892 153.352 81.7713 150.513 80.0626C147.675 78.354 137.122 72.5342 132.5 64.649C127.877 56.7639 128.407 50.1476 127.547 45.769C126.685 41.3903 124.547 28.9404 115.298 20.525C106.049 12.1096 100.995 7.2751 98.0981 5.32785C95.2014 3.38046 95.0904 3.20897 97.1989 3.3436C99.3073 3.47822 115.743 7.60568 130.924 17.0814C146.105 26.5569 153.86 39.0598 156.802 51.1143C159.744 63.1689 158.911 72.5152 157.653 76.1476C156.394 79.78 155.746 79.8219 157.001 84.3251C158.256 88.8284 163.572 99.272 166.147 101.316C168.721 103.361 180.339 114.395 183.421 117.67C186.503 120.945 189.223 123.586 189.322 124.555C189.42 125.525 188.994 128.882 188.533 127.278L188.533 127.278Z" fill="#FAADB2"/>
</svg>
