<svg width="99" height="139" fill="none" xmlns="http://www.w3.org/2000/svg"><path fill-rule="evenodd" clip-rule="evenodd" d="M49.049 100.133c-3.623.768-7.19-1.539-7.96-5.152-.77-3.605 1.549-7.165 5.168-7.932 3.617-.768 7.184 1.546 7.951 5.152.77 3.609-1.548 7.169-5.16 7.932Zm1.686 7.931c8.013-1.699 13.128-9.551 11.427-17.549-1.704-7.99-9.582-13.092-17.594-11.397-8.018 1.7-13.125 9.56-11.424 17.55 1.704 7.993 9.576 13.092 17.591 11.396ZM85.312 35.866c-3.623.772-7.19-1.54-7.96-5.152-.77-3.606 1.549-7.161 5.169-7.933 3.617-.764 7.184 1.547 7.95 5.152.77 3.61-1.548 7.17-5.159 7.933Zm1.687 7.93c8.012-1.7 13.128-9.553 11.424-17.55-1.702-7.99-9.582-13.092-17.591-11.396-8.019 1.699-13.125 9.559-11.424 17.553 1.704 7.99 9.576 13.092 17.59 11.392M55.102 57.393c-3.623.772-7.187-1.539-7.96-5.152-.766-3.605 1.552-7.165 5.172-7.932 3.614-.764 7.18 1.546 7.95 5.152.77 3.609-1.548 7.168-5.162 7.932Zm1.69 7.93c8.01-1.7 13.128-9.552 11.424-17.55-1.702-7.99-9.582-13.092-17.594-11.396-8.016 1.7-13.125 9.56-11.427 17.553 1.707 7.99 9.578 13.092 17.597 11.393M16.233 76.839c-3.623.771-7.19-1.54-7.96-5.153-.767-3.605 1.552-7.168 5.169-7.932 3.616-.768 7.183 1.547 7.953 5.152.767 3.61-1.548 7.169-5.162 7.933Zm1.687 7.93c8.012-1.702 13.128-9.555 11.426-17.552-1.704-7.99-9.581-13.093-17.593-11.397C3.737 57.52-1.372 65.38.326 73.37c1.707 7.993 9.578 13.096 17.594 11.4M25.58 22.196c-3.623.768-7.19-1.539-7.96-5.152-.77-3.605 1.55-7.165 5.169-7.933 3.617-.767 7.184 1.547 7.95 5.153.77 3.609-1.548 7.168-5.159 7.932m1.687 7.93c8.013-1.7 13.128-9.553 11.427-17.55C36.99 4.586 29.112-.517 21.1 1.179c-8.018 1.7-13.125 9.56-11.424 17.55 1.705 7.993 9.576 13.096 17.591 11.396M79.94 130.434c-3.624.768-7.19-1.539-7.96-5.152-.77-3.605 1.548-7.165 5.168-7.933 3.617-.767 7.184 1.547 7.95 5.153.77 3.609-1.548 7.168-5.159 7.932m1.687 7.928c8.012-1.699 13.128-9.552 11.423-17.549-1.7-7.99-9.578-13.092-17.59-11.397-8.019 1.7-13.125 9.56-11.424 17.55 1.704 7.993 9.575 13.096 17.59 11.396Z" fill="#42A1CA"/></svg>