<svg width="230" height="86" fill="none" xmlns="http://www.w3.org/2000/svg"><path d="M299.766 227.33c-.115-.45-22.275-32.379-41.829-47.137-19.555-14.758-23.246-20.65-43.11-25.185s-27.896-3.097-37.034-1.193c-9.137 1.905-29.978 6.033-51.465-9.032-21.487-15.065-36.83-31.661-42.558-36.314-5.728-4.653-37.728-30.653-62.227-38.892-24.499-8.24-23.412-7.28-16.051-7.758 7.36-.479 35.883-1.073 73.993 16.74 38.109 17.814 75.292 33.881 93.714 47.466 18.422 13.585 16.593 19.836 25.372 22.356 8.779 2.521 15.906 3.495 19.902 4.202 3.995.707 7.525 1.801 5.827.041-1.699-1.76-19.661-18.796-25.962-27.101-6.3-8.305-12.785-17.463-29.249-20.998s-34.083-12.401-47.781-27.998c-13.699-15.596-19.297-28.26-35.749-41.87C69.108 21.046 54.011 9.127 48.653 6.18 43.293 3.234 37.992.763 41.262.552c3.27-.21 36.869 5.9 60.898 16.488 24.03 10.587 50.98 27.052 65.724 46.46 14.744 19.41 15.615 36.603 24.449 47.987 8.834 11.384 24.274 31.473 38.833 41.925 14.56 10.452 23.424 18.314 23.424 18.314s1.908 1.987-.659-4.118c-8.388-19.951-9.987-21.591-14.49-24.644-4.504-3.053-21.248-13.452-28.582-27.542-7.334-14.089-6.493-25.911-7.859-33.735-1.366-7.824-4.759-30.07-19.434-45.107-14.675-15.037-22.694-23.675-27.29-27.155-4.596-3.48-4.773-3.786-1.427-3.545 3.345.24 29.423 7.615 53.51 24.547 24.087 16.931 36.393 39.272 41.06 60.811 4.667 21.54 3.346 38.24 1.35 44.73-1.997 6.491-3.025 6.566-1.034 14.612 1.992 8.047 10.426 26.708 14.511 30.361 4.085 3.653 22.518 23.368 27.409 29.22 4.89 5.852 9.206 10.571 9.362 12.304.156 1.733-.52 7.731-1.251 4.865Z" fill="#FAADB2"/></svg>