<svg width="183" height="221" fill="none" xmlns="http://www.w3.org/2000/svg"><path d="M139.679 221.068s-1.085-2.927 1.363-9.568c2.448-6.643 1.54-11.328-1.417-13.536-2.958-2.209-7.335-8.485-13.817-16.422-6.482-7.938-25.734-17.26-32.503-17.489-6.769-.227-16.097-2.094-22.668 2.698-6.572 4.792-21.936 23.373-28.08 26.07-6.145 2.698-15.902 7.66-14.68 11.442 1.222 3.781 3.155 7.228 10.35 10.097 7.194 2.869 14.842 10.448 19.732 16.103 4.89 5.656 16.597 11.609 21.564 12.638 4.967 1.029 19.898 3.482 26.696 1.045 6.799-2.437 18.407-14.897 23.442-17.831 0 0 8.425-3.775 10.018-5.247ZM221.862 148.37s-3.753-12.552-5.35-20.715c-1.597-8.163-8.495-24.764-13.959-28.066-5.464-3.302-17.396-12.132-27.435-9.832-10.039 2.302-11.454 3.79-14.93 5.579-3.477 1.79-9.962 6.032-11.589 11.111-1.627 5.077-3.164 10.416-3.107 14.789.056 4.373.835 13.661 4.315 20.998 3.48 7.338 7.744 17.663 15.07 20.782 7.326 3.119 24.451 5.342 34.153 1.356 9.701-3.987 16.867-5.12 22.832-16.002ZM114.626 127.3s6.842-3.791 8.519-13.145c1.677-9.354 3.852-19.208-.941-26.169-4.793-6.96-12.011-9.957-16.928-15.77-4.916-5.814-14.064-13.524-18.979-13.2-4.915.322-7.154 2.566-7.9 5.36-.745 2.794.998 7.185-.244 14.57-1.242 7.383-.375 21.157 5.044 29.888 5.42 8.73 9.963 15.941 17.99 17.614 8.026 1.674 10.25 3.453 13.439.852Z" fill="#CC3195"/><path fill-rule="evenodd" clip-rule="evenodd" d="M137.898 200.145c-.46 4.479-1.696 7.242-2.809 9.731-1.358 3.039-2.532 5.664-2.485 11.152.055 6.319-2.547 15.763-8.48 22.602-3.953 4.558-10.826 9.579-21.115 7.612-19.25-3.68-27.676-15.379-42.315-41.196-6.575-11.595-13.376-18.023-17.876-22.276-3.664-3.463-5.682-5.371-5.437-8.034l.004-.048c.227-2.207 2.024-3.632 4.651-5.088 5.384-2.985 10.098-4.626 14.656-6.213 5.396-1.878 10.493-3.653 16.736-7.495l.36-.221c9.047-5.572 19.302-11.887 34.276-.314 14.171 10.952 30.232 23.366 30.014 36.654a36.164 36.164 0 0 1-.18 3.134Zm-7.625 17.189c.418-4.061 1.559-6.612 2.669-9.097 1.312-2.934 2.552-5.706 2.642-11.26.187-11.383-15.887-23.806-28.803-33.789-13.85-10.704-23.056-5.034-31.96.449l-.359.222c-6.448 3.968-11.894 5.864-17.159 7.697-4.475 1.557-9.101 3.168-14.322 6.063-2.897 1.606-3.111 2.392-3.126 2.476.014.828 2.464 3.142 4.433 5.003 4.623 4.369 11.609 10.971 18.41 22.966 14.529 25.624 22.278 36.411 40.696 39.931 9.345 1.787 15.544-2.723 19.098-6.821 5.328-6.144 7.666-14.509 7.617-20.072a34.442 34.442 0 0 1 .164-3.768Z" fill="#fff"/><path d="M128.78 208.326c-1.351 1.33-3.395 1.512-3.126 4.061.269 2.548 1.807 6.07.673 6.371l-1.134.301s-1.714.874-1.691-1.12c.022-1.994.278-3.433-1.221-3.284-1.5.149-3.169-.21-3.231-1.345-.061-1.135.969-2.411.969-2.411s-.764-.614.432-2.533c1.195-1.92 3.794-4.347 5.639-5.094 1.844-.748 3.18-.782 3.705.874.525 1.656.832 2.361-1.015 4.18Z" fill="#fff"/></svg>