<svg width="293" height="71" viewBox="0 0 293 71" fill="none" xmlns="http://www.w3.org/2000/svg">
<path fill-rule="evenodd" clip-rule="evenodd" d="M68.8258 48.0985C70.3755 48.1967 71.5621 47.6078 72.7089 46.6912C74.1029 45.577 75.6647 44.8455 77.6703 44.6022C79.2029 44.4164 80.5884 43.2876 82.0533 42.6027C84.5741 41.424 87.069 40.1932 89.6433 39.1171C92.2613 38.0228 94.9481 37.0577 97.6314 36.0963C99.3757 35.4716 101.178 34.9797 102.934 34.3789C103.835 34.0704 104.676 33.6217 105.571 33.2962C106.291 33.0345 107.073 32.9106 107.789 32.6408C109.255 32.088 110.898 31.7031 112.092 30.8317C113.413 29.8676 114.774 29.6162 116.34 29.3852C117.657 29.1907 118.851 28.3964 120.163 28.0865C123.651 27.2629 127.15 26.45 130.688 25.8361C134.059 25.251 137.472 24.7691 140.892 24.5308C143.558 24.3451 146.263 24.6496 148.95 24.6485C151.152 24.6475 153.354 24.5171 155.33 24.1438C155.867 23.669 156.319 22.957 156.959 22.7727C157.996 22.4745 158.552 23.0647 158.479 24.0703C158.472 24.1638 158.68 24.3523 158.797 24.3583C160.513 24.4465 162.233 24.5843 163.949 24.5514C164.845 24.5343 165.8 23.9212 166.615 24.0724C169.35 24.5794 172.23 24.1989 174.88 25.3493C176.033 25.8499 177.469 25.8382 178.784 26.0153C179.526 26.1152 179.782 26.1794 179.877 27.0848C179.939 27.669 181.619 28.2681 182.676 28.5771C184.245 29.0361 185.906 29.2428 187.526 29.5595C187.893 29.6313 188.254 29.74 188.624 29.7874C191.798 30.1935 194.978 30.5665 198.147 30.9986C199.56 31.1911 200.946 31.6393 202.359 31.7048C203.483 31.7571 204.63 31.2679 205.769 31.26C208.285 31.2423 210.806 31.4963 213.316 31.4171C216.18 31.3268 219.036 31.0099 221.892 30.7591C222.769 30.682 223.316 30.9697 224.1 31.3828C225.457 32.0979 227.274 32.1343 228.912 32.3798C230.134 32.563 231.379 32.62 232.612 32.7486C233.028 32.7919 233.435 32.9219 233.85 32.9443C236.514 33.0884 239.187 33.1484 241.842 33.3747C243.041 33.4769 244.217 33.8667 245.386 34.1795C249.177 35.1939 253.053 34.7911 256.892 34.682C259.548 34.6064 262.196 34.2154 264.841 33.9196C267.111 33.6657 269.368 33.3182 271.64 33.0852C272.02 33.0461 272.446 33.3803 272.851 33.5422C272.624 33.8887 272.487 34.4151 272.155 34.5482C271.097 34.9724 269.967 35.2501 268.898 35.9023C269.486 35.8821 270.104 35.9608 270.656 35.825C273.117 35.2201 275.586 34.6209 277.994 33.8704C278.738 33.6382 279.834 32.9278 279.828 32.4461C279.817 31.6222 279.065 30.806 278.624 29.9867C278.487 30.0553 278.35 30.1239 278.213 30.1927C278.505 29.7984 278.797 29.4041 279.089 29.0099C279.017 28.8875 278.946 28.7653 278.874 28.6432C277.663 30.4971 276.691 28.607 275.273 28.7171C277.17 26.9233 278.892 25.2953 280.614 23.6674C280.511 23.5031 280.408 23.3388 280.305 23.1745C279.395 23.2737 278.486 23.4345 277.575 23.4433C277.185 23.4472 276.791 23.1354 276.04 22.8127C277.7 22.1832 278.955 21.7072 280.42 21.1515C280.808 19.2749 282.917 19.5249 284.733 18.9815C283.218 18.9699 281.862 18.7984 282.279 17.1296C282.336 16.9027 283.331 16.8655 284.189 16.6743C283.476 16.4297 282.841 16.2114 282.022 15.9303C283.531 14.1347 285.788 14.4354 287.774 13.6555C287.441 13.5599 287.115 13.4305 286.774 13.3772C286.333 13.3084 285.881 13.3006 285.434 13.2663C285.481 12.799 285.337 12.1815 285.615 11.8953C286.214 11.2782 287.029 10.8315 287.741 10.3259C287.097 10.3306 286.135 10.5848 285.567 10.2676C285.071 9.99117 285.02 9.06987 284.761 8.40259C285.812 8.03788 286.77 7.75973 287.668 7.36896C288.081 7.18927 288.343 6.74819 288.732 6.4999C289.138 6.24023 289.593 5.97667 290.067 5.88471C290.618 5.77796 291.213 5.85576 292.243 5.85144C290.009 5.17678 288.206 4.63264 286.65 4.16257C286.897 2.983 287.057 2.22178 287.234 1.38115C286.772 1.21853 285.926 0.92102 285.08 0.623443C285.089 0.400029 285.097 0.176545 285.105 -0.046863C286.229 -0.347901 287.352 -0.649212 288.44 -0.940622C288.235 -1.17564 287.99 -1.45629 287.746 -1.73722C288.563 -2.27828 289.38 -2.81957 290.15 -3.32971C289.883 -3.35629 289.381 -3.5347 288.976 -3.42384C287.127 -2.91798 287.038 -4.38199 286.449 -5.24274C286.41 -5.29912 287.026 -5.89854 287.402 -5.97059C288.491 -6.17904 289.612 -6.24718 290.761 -6.68899C289.631 -7.07394 288.502 -7.45901 287.104 -7.93577C287.924 -8.00517 288.531 -8.05659 289.387 -8.12888C288.694 -9.04929 288.185 -9.87751 287.501 -10.5636C287.202 -10.8633 286.516 -10.8222 286.055 -11.0267C285.535 -11.2573 285.071 -11.5899 284.582 -11.8782C284.621 -12.0137 284.661 -12.1492 284.7 -12.2848L287.898 -12.9977C285.998 -13.9031 284.423 -14.6534 282.609 -15.5176C284.049 -15.8386 285.317 -16.1402 286.599 -16.3885C286.813 -16.4302 287.203 -16.3051 287.308 -16.1472C288.09 -14.9727 289.254 -15.2822 290.366 -15.364L290.584 -15.7502C290 -16.007 289.444 -16.3777 288.828 -16.497C287.466 -16.7605 286.057 -16.8294 284.704 -17.1194C284.165 -17.235 283.725 -17.7248 283.24 -18.0443C283.716 -18.3682 284.18 -18.7074 284.673 -19.0088C284.887 -19.14 285.16 -19.1935 285.559 -19.3378C284.624 -19.9621 283.784 -20.5117 282.959 -21.0792C282.589 -21.3336 282.25 -21.6238 281.897 -21.8977C282.432 -22.252 282.947 -22.6362 283.514 -22.9417C283.671 -23.0263 283.984 -22.8772 284.294 -23.151C283.59 -23.2334 282.852 -23.2227 282.192 -23.4231C281.434 -23.6532 280.564 -23.9343 280.087 -24.4509C279.731 -24.8351 279.705 -26.0801 279.91 -26.1596C280.637 -26.4436 281.524 -26.436 282.353 -26.4557C282.98 -26.4704 283.612 -26.3587 284.276 -26.505C282.196 -27.4053 279.573 -26.4353 277.637 -28.3088C278.324 -28.5806 278.951 -28.8288 279.722 -29.1335C279.249 -29.7231 278.737 -30.3619 278.282 -30.9281C278.744 -31.5464 279.239 -32.2101 279.755 -32.9023C277.198 -33.4408 276.266 -34.1251 276.707 -35.0876C275.042 -35.9816 272.613 -35.1572 271.215 -37.0105C271.646 -37.2177 271.952 -37.365 272.308 -37.5361C271.759 -37.7367 271.267 -37.9162 270.959 -38.0286C270.91 -40.2173 273.059 -38.9032 273.802 -39.8505C273.065 -40.1513 272.422 -40.4197 271.772 -40.6759C271.575 -40.7535 271.285 -40.906 271.167 -40.8391C269.954 -40.1504 269.107 -40.1139 268.456 -41.5393C268.309 -41.8618 267.004 -41.7096 266.261 -41.8797C265.923 -41.957 265.657 -42.287 265.358 -42.5025C265.661 -42.7871 265.911 -43.2064 266.281 -43.3275C266.984 -43.5575 267.767 -43.5818 268.496 -43.7603C268.946 -43.8706 269.358 -44.1084 269.555 -44.1913C270.947 -43.8483 272.298 -43.5153 273.796 -43.1458C272.171 -45.1985 272.161 -45.1639 269.265 -45.8213C268.433 -46.0101 267.675 -46.4616 266.774 -46.8379L268.7 -47.2674C268.354 -49.316 266.171 -49.6588 264.965 -50.8528C263.406 -49.4998 262.138 -50.1309 261.261 -51.0125C258.792 -50.6907 256.612 -50.4066 254.509 -50.1324C254.864 -49.6823 255.643 -49.126 254.223 -48.6865C253.838 -48.5675 253.603 -48.0565 253.055 -47.4597C253.796 -47.5539 254.3 -47.7142 254.376 -47.6131C255.303 -46.3853 256.22 -47.6265 257.11 -47.6551C257.578 -47.6701 258.06 -48.298 258.466 -48.7049C259.558 -49.7985 260.183 -49.0214 261.109 -48.0938C260.128 -47.8237 259.354 -47.6104 258.579 -47.3973C260.201 -47.3716 261.686 -46.4621 263.378 -47.0765C263.755 -47.2134 264.669 -46.1504 265.336 -45.6399C265.233 -45.4699 265.131 -45.2998 265.028 -45.1298C264.583 -45.103 264.138 -45.0789 263.693 -45.0486C263.02 -45.0029 262.346 -44.9725 261.676 -44.9008C260.269 -44.7506 258.864 -44.4638 257.46 -44.4766C256.976 -44.4813 256.499 -45.2087 255.865 -45.7336C255.495 -45.7177 254.87 -45.6911 254.244 -45.6643C254.263 -45.5314 254.283 -45.3984 254.303 -45.2654C254.014 -45.2298 253.651 -45.0817 253.453 -45.1861C253.192 -45.3237 253.061 -45.6598 252.802 -46.0064C251.865 -43.7661 249.753 -46.1586 248.641 -44.9131C248.789 -45.1029 248.937 -45.2926 249.085 -45.4824C248.582 -45.6427 248.08 -45.8032 247.332 -46.0416C247.2 -46.3193 246.954 -46.838 246.663 -47.45C244.535 -47.4576 242.387 -47.3384 240.274 -47.5301C239.32 -47.6166 238.435 -48.3217 237.398 -48.8019C235.666 -48.8479 233.648 -48.9014 231.629 -48.9549C231.598 -48.8741 231.567 -48.7933 231.536 -48.7123C232.883 -48.4627 234.227 -48.2018 235.577 -47.969C236.1 -47.879 236.662 -47.9276 237.16 -47.7833C238.287 -47.4564 239.177 -46.6031 240.606 -46.9456C241.36 -47.1263 241.86 -46.4872 241.514 -45.6733C242.517 -46.4717 245.063 -46.6058 246.029 -45.8208C246.24 -45.6493 246.093 -45.1215 246.111 -44.758C245.101 -44.7615 244.071 -43.4229 243.051 -44.831C242.883 -45.0628 242.271 -45.0037 241.914 -45.168C241.735 -45.2505 241.669 -45.5327 241.551 -45.7245C240.264 -45.8432 238.977 -45.9619 237.703 -46.0791C237.767 -44.5672 237.506 -44.5296 235.631 -44.8342C233.35 -45.205 231.005 -45.241 228.701 -45.5122C226.319 -45.7925 223.837 -45.505 221.576 -46.4508C221.267 -46.5802 221.075 -47.0074 220.914 -47.331C220.793 -47.5742 220.807 -47.8723 220.761 -48.1459C220.474 -48.0542 220.121 -48.0286 219.911 -47.8599C218.579 -46.7925 217.31 -46.5237 215.445 -47.1063C213.348 -47.7615 210.989 -47.7282 208.752 -48.0389C208.224 -48.1122 207.727 -48.3641 207.014 -48.601C207.676 -49.1837 208.118 -49.5727 208.561 -49.9617C207.219 -49.7292 205.624 -50.4972 204.816 -49.0223C204.737 -48.8777 203.942 -48.9997 203.497 -49.0785C202.204 -49.3067 200.669 -49.2676 199.699 -49.9094C198.56 -50.6639 197.797 -50.5459 196.556 -50.3363C195.314 -50.1264 193.909 -50.6938 192.665 -50.9055C192.61 -50.7051 192.514 -50.354 192.417 -50.003C192.039 -50.0927 191.578 -50.0889 191.296 -50.2887C190.291 -51 189.347 -51.7805 188.101 -52.7524C188.756 -52.8038 189.371 -52.8704 189.989 -52.8961C190.761 -52.9285 191.535 -52.9275 192.308 -52.9409C192.317 -53.0925 192.326 -53.2442 192.335 -53.3959C191.884 -53.4988 191.433 -53.6017 190.873 -53.7292C190.988 -54.1283 191.078 -54.4435 191.171 -54.7581C191.647 -56.3706 190.662 -57.2908 188.898 -56.8306C187.803 -56.5449 186.739 -56.1631 185.717 -55.842C185.892 -55.3221 186.044 -54.8694 186.196 -54.4168C185.721 -54.3568 185.18 -54.4077 184.782 -54.2166C183.324 -53.5146 182.11 -54.3893 180.792 -54.6011C180.512 -54.6463 180.195 -54.4594 179.89 -54.4359C179.082 -54.374 178.271 -54.3432 177.461 -54.3C177.525 -54.8683 177.588 -55.4367 177.653 -56.0228C176.481 -55.9278 175.308 -56.3288 173.942 -55.2898C172.94 -54.5278 170.844 -54.9075 169.232 -54.8669C169.109 -54.8639 168.963 -55.5651 168.818 -55.9671C163.424 -57.6302 157.497 -56.9371 151.634 -57.0867C152.559 -56.77 153.481 -56.4544 154.403 -56.1386C154.431 -55.9469 154.459 -55.7552 154.486 -55.5632C153.482 -55.3375 152.488 -54.9805 151.472 -54.9211C150.361 -54.8565 149.23 -55.0668 148.108 -55.1574C148.064 -55.0048 148.02 -54.852 147.976 -54.6994C147.687 -55.128 147.399 -55.5566 146.992 -56.1609C147.834 -56.289 148.591 -56.3785 149.334 -56.5237C150.121 -56.6772 150.895 -56.8835 151.675 -57.0667C150.637 -57.1967 149.601 -57.4095 148.56 -57.432C147.645 -57.4519 146.655 -58.1955 145.797 -57.29C145.487 -57.6218 145.176 -57.9537 144.874 -58.2773C143.257 -58.0478 141.447 -58.1162 139.972 -57.517C136.34 -56.0414 132.439 -55.8471 128.648 -55.1215C125.786 -54.5735 122.97 -53.8284 120.109 -53.2751C118.772 -53.0166 117.358 -53.0894 116.014 -52.8521C114.976 -52.6688 113.908 -52.3669 113.004 -51.8883C110.819 -50.7325 108.644 -49.64 106.021 -49.5758C105.78 -49.57 105.471 -49.4387 105.318 -49.2729C104.25 -48.1156 102.759 -48.1401 101.342 -48.2151C100.022 -48.2851 99.0951 -47.9205 98.4176 -46.9274C97.5681 -45.6829 96.0812 -46.2544 94.897 -45.9742C94.3473 -45.8441 93.7326 -45.9368 93.1833 -45.9289C94.7347 -47.0985 96.308 -48.2844 97.8812 -49.4704L97.7046 -49.6948C92.4138 -47.4066 87.1231 -45.1185 81.8324 -42.8301L82.0378 -42.3916C82.9319 -42.7263 83.8427 -43.0293 84.7154 -43.4041C85.6888 -43.8219 86.5443 -44.8064 87.7566 -43.7205C86.9496 -41.7437 84.3676 -41.7765 82.9404 -40.4768C81.1605 -38.8562 79.2587 -40.4602 77.4352 -40.2274C77.3167 -40.7152 77.3167 -40.7152 79.4389 -42.8009C79.3471 -42.9109 79.255 -43.0209 79.1632 -43.1309C77.329 -41.8897 75.4947 -40.6483 73.8355 -39.5254C74.0235 -38.8424 74.2681 -38.1773 74.2039 -38.1522C73.5059 -37.8795 72.7599 -37.707 72.0267 -37.5071L71.7375 -37.9778C72.0968 -38.4511 72.456 -38.9244 72.8153 -39.3978C71.1065 -38.848 69.0734 -39.0786 67.9977 -37.3414C67.6408 -36.7649 66.833 -36.4242 66.2753 -35.9352C65.9603 -35.6589 65.7061 -35.3139 65.4984 -34.9641C65.4667 -34.9106 65.9013 -34.5024 66.0057 -34.5372C66.3542 -34.653 66.6461 -34.902 66.9679 -35.0883C67.4545 -35.37 67.9481 -35.6419 68.4388 -35.9179C68.5566 -35.7985 68.6741 -35.6789 68.7918 -35.5595C68.6437 -35.2192 68.5985 -34.6837 68.3311 -34.5696C65.8857 -33.5243 63.414 -32.525 60.9114 -31.5965C60.6251 -31.4904 60.1026 -31.8998 59.6895 -32.0702C59.6835 -32.2923 59.6776 -32.5146 59.6718 -32.7369C58.7988 -32.2042 57.9386 -31.6533 57.05 -31.1423C55.4496 -30.2222 53.8727 -29.2603 52.2127 -28.4349C49.6303 -27.1508 46.9981 -25.9457 44.3638 -24.7486C43.0863 -24.168 41.6311 -23.8396 40.4853 -23.1071C39.3939 -22.4091 38.6954 -21.2308 37.6535 -20.4479C36.0483 -19.2421 34.3029 -18.1863 32.6061 -17.0801C31.3634 -16.2699 30.1427 -15.4236 28.8374 -14.7031C27.9687 -14.2236 26.9682 -13.9389 26.0278 -13.5643C25.4951 -13.3522 24.9148 -13.2004 24.4409 -12.9094C18.8033 -9.44596 12.3978 -7.40874 6.22605 -4.93832C6.0351 -4.86194 5.73586 -4.77188 5.60152 -4.84923C3.43943 -6.09296 1.61408 -4.64524 -0.326379 -4.24817C-2.91997 -3.71735 -5.46494 -2.7499 -8.07705 -2.59249C-12.3397 -2.33562 -16.642 -2.67072 -20.9234 -2.58737C-24.3965 -2.51988 -27.8634 -2.20327 -31.3335 -2.00161C-31.5959 -1.98638 -31.872 -1.9641 -32.1232 -2.01699C-34.9795 -2.6167 -37.8454 -3.18482 -40.6827 -3.85064C-45.3432 -4.94454 -49.9766 -6.13208 -54.6393 -7.21826C-55.9299 -7.51898 -57.2834 -7.60159 -58.6216 -7.7861C-58.663 -6.75516 -59.2678 -6.46975 -60.2747 -6.94125C-61.6788 -7.59877 -62.5558 -6.43141 -63.7 -6.2023C-64.6559 -6.01103 -65.6398 -5.57767 -66.5609 -5.66796C-69.2562 -5.93193 -69.5189 -5.77883 -69.8169 -3.35019C-69.8613 -2.98905 -70.6034 -2.65849 -71.0806 -2.40077C-71.2459 -2.31167 -71.6252 -2.5869 -71.84 -2.52065C-72.3565 -2.3618 -72.8335 -2.09914 -73.3262 -1.87847C-72.921 -1.57432 -72.5386 -1.23882 -72.1003 -0.980158C-71.8979 -0.860751 -71.509 -0.968712 -71.3432 -0.834747C-71.1323 -0.664122 -70.9251 -0.330716 -70.9694 -0.10821C-71.0137 0.114155 -71.3543 0.435794 -71.592 0.455922C-72.92 0.568252 -72.83 1.2605 -72.5524 2.11098C-72.4328 2.47718 -72.3935 2.87598 -72.3909 3.26033C-72.3813 4.70658 -72.5356 4.81516 -74.2677 4.58585C-74.4413 5.80158 -73.7198 7.68948 -76.5189 7.15394C-75.8742 9.03137 -77.1256 10.2938 -77.8817 11.7136C-78.1315 12.183 -78.0511 12.7951 -78.1457 13.5271C-80.3989 14.8154 -77.0656 16.3218 -78.1372 17.8921L-78.8436 17.7864C-78.7538 19.0307 -78.5395 20.2538 -78.6095 21.4637C-78.7013 23.05 -80.5827 22.8496 -81.6372 23.5968C-81.5605 24.1174 -81.49 24.6404 -81.4053 25.1616C-81.1661 26.6325 -81.5846 26.7826 -83.125 27.0015C-84.6663 27.2205 -86.2493 27.7937 -87.5569 28.5648C-88.6172 29.19 -89.4615 30.2591 -90.0749 31.2889C-90.381 31.8026 -89.9556 32.6694 -89.842 33.5194C-92.0402 34.4188 -91.7661 36.6119 -92.4683 38.3729C-92.5043 38.463 -92.4851 38.5789 -92.5399 38.6542C-94.026 40.6952 -92.7402 42.328 -91.5639 43.9636C-89.4936 46.8421 -86.649 49.0069 -83.7198 51.1571C-80.9655 53.1791 -78.1484 55.074 -75.0179 56.5667C-72.6604 57.6907 -70.2673 58.7712 -67.816 59.7148C-61.8666 62.0051 -55.7935 63.9905 -49.391 64.9985C-43.7319 65.8893 -38.0765 66.8338 -32.3817 67.4902C-29.5813 67.813 -26.6911 67.4443 -23.8502 67.5588C-21.1394 67.6682 -18.4378 67.9824 -15.7376 68.2496C-15.343 68.2888 -14.9777 68.5677 -14.3483 68.8468C-14.9119 69.255 -15.3265 69.5554 -16.1642 70.1622C-13.8229 70.0875 -11.8715 70.0419 -9.92209 69.9596C-5.12333 69.7569 -0.292822 69.7795 4.46388 69.2597C9.74089 68.6831 14.9846 67.7429 20.177 66.6974C23.7626 65.9753 27.2705 64.8935 30.7505 63.8098C33.9354 62.8178 37.0335 61.601 40.1748 60.4951C42.345 59.7311 44.544 59.029 46.6863 58.2069C47.2682 57.9835 47.653 57.3748 48.1993 57.0355C48.6896 56.7311 49.2706 56.5403 49.8233 56.3232C51.2461 55.7647 52.6947 55.2562 54.0956 54.6569C55.1884 54.1893 56.2249 53.6152 57.4166 53.0238C55.8994 52.1421 56.7758 51.6214 57.6975 51.2157C60.1832 50.122 62.7058 49.0963 65.1931 48.0051C65.9997 47.6513 66.7105 47.1171 67.5237 46.7795C68.1215 46.5313 68.8146 46.4691 69.8608 46.2359C69.4097 47.0879 69.1364 47.604 68.863 48.1204L68.8258 48.0985ZM158.99 -52.5345C159.89 -52.4779 160.577 -52.4346 161.264 -52.3913C159.72 -52.1294 158.513 -50.6559 156.708 -51.4817C156.231 -51.7002 155.128 -52.0609 154.997 -50.7959C153.917 -51.7953 153.24 -51.347 152.868 -50.3537C151.972 -50.6776 151.172 -51.22 150.397 -51.1928C148.859 -51.1393 147.339 -50.7467 145.802 -50.5559C145.513 -50.52 144.897 -50.8408 144.908 -50.8788C145.14 -51.6357 145.35 -52.4256 145.791 -53.0858C145.91 -53.2647 146.773 -53.0459 147.294 -53.0013C147.678 -52.9685 148.059 -52.9009 148.443 -52.8859C149.233 -52.8552 150.024 -52.8495 150.875 -52.8323C150.995 -54.8066 153.235 -52.2111 153.83 -53.5138C154.174 -53.3544 154.578 -53.249 154.84 -53.0154C155.001 -52.8723 154.945 -52.5323 154.955 -52.4706C155.68 -52.7447 156.587 -52.8885 157.157 -53.3613C157.702 -53.8126 157.895 -54.6069 158.2 -55.1712C157.356 -55.4495 156.645 -55.6839 155.753 -55.9779C156.58 -56.247 157.215 -56.6316 157.838 -56.6167C158.891 -56.5915 159.946 -56.3494 160.979 -56.1221C161.318 -56.0475 161.593 -55.7358 161.897 -55.5325C161.588 -55.3209 161.276 -54.9262 160.973 -54.9321C160.046 -54.95 159.531 -54.7871 159.627 -53.8048C159.659 -53.4743 159.295 -53.1128 158.99 -52.5345L158.99 -52.5345ZM224.733 -39.6507C221.618 -38.7793 218.563 -40.1771 215.402 -40.4156C215.213 -40.4299 214.942 -40.6915 214.904 -40.8712C214.87 -41.0315 215.1 -41.3955 215.226 -41.4C216.752 -41.4562 218.342 -41.7109 219.792 -41.4174C221.538 -41.0636 223.166 -40.2332 224.733 -39.6507L224.733 -39.6507ZM137.767 -50.7533C137.907 -51.8792 138.617 -51.9511 139.526 -51.7578C140.304 -51.5925 141.079 -51.3859 141.523 -52.3458C141.598 -52.5062 142.46 -52.5747 142.758 -52.4034C143.303 -52.0898 143.699 -51.5657 144.157 -51.1288C143.125 -50.36 139.105 -50.1213 137.767 -50.7533ZM216.743 -44.1029C217.573 -44.1681 218.361 -44.2848 219.145 -44.2639C219.446 -44.2557 219.833 -43.9848 219.996 -43.7358C220.096 -43.5841 219.907 -43.2053 219.741 -42.9976C218.821 -41.8454 217.716 -41.7998 216.495 -42.5458C216.579 -43.0736 216.652 -43.5294 216.743 -44.1029ZM225.429 -43.9078C225.243 -43.8663 224.895 -43.7552 224.538 -43.7191C224.202 -43.6849 223.845 -43.6913 223.519 -43.7637C223.425 -43.7845 223.31 -44.2018 223.378 -44.2532C223.643 -44.4545 223.976 -44.7124 224.285 -44.7134C225.291 -44.7169 226.298 -44.6165 227.593 -44.5387C226.777 -43.8743 227.828 -42.3973 226.024 -42.5842C225.808 -42.6067 225.681 -43.321 225.429 -43.9078L225.429 -43.9078ZM136.527 -50.9529C134.854 -48.9845 132.888 -48.9759 132.211 -50.7303C133.699 -50.807 135.113 -50.88 136.527 -50.9529ZM169.054 -53.4957C168.748 -53.0081 168.6 -52.4621 168.219 -52.2381C167.697 -51.9317 167.005 -51.8278 166.369 -51.739C166.237 -51.7205 165.883 -52.1465 165.882 -52.3686C165.879 -53.018 168.219 -53.8668 169.054 -53.4957ZM180.911 -51.2148C180.079 -51.2959 179.247 -51.377 178.415 -51.4579C178.571 -51.8024 178.626 -52.3378 178.902 -52.4557C179.774 -52.8289 180.649 -52.8583 180.911 -51.2148ZM266.32 -39.3231C267.532 -39.7201 268.558 -40.235 269.157 -38.7945C268.073 -38.0558 267.179 -37.9996 266.32 -39.3231ZM63.0674 -31.143C62.4513 -30.5778 62.1893 -30.1443 61.828 -30.0613C61.4811 -29.9816 61.0312 -30.2653 60.6266 -30.3894C60.8185 -30.7229 60.935 -31.2546 61.2202 -31.3423C61.6245 -31.4667 62.1531 -31.2641 63.0674 -31.143ZM142.067 -55.2146C141.72 -54.9577 141.396 -54.6063 140.98 -54.4441C140.654 -54.3171 140.202 -54.3743 139.834 -54.4562C139.719 -54.4819 139.585 -54.9972 139.654 -55.0406C139.964 -55.2371 140.338 -55.4431 140.699 -55.4593C141.135 -55.4789 141.582 -55.3103 142.067 -55.2146ZM141.31 22.5522C140.453 22.8586 139.824 23.0834 139.076 23.351C139.517 21.5429 139.852 21.3947 141.31 22.5522ZM143.527 -54.1153C144.392 -55.3719 145.165 -55.6811 146.355 -54.3799C145.311 -54.2822 144.502 -54.2064 143.527 -54.1153Z" fill="#FFD0D2"/>
</svg>
