<svg width="205" height="86" viewBox="0 0 205 86" fill="none" xmlns="http://www.w3.org/2000/svg">
<path d="M203.453 227.33C203.338 226.88 180.991 194.951 161.272 180.193C141.554 165.435 137.831 159.543 117.8 155.008C97.7691 150.473 89.6702 151.911 80.4556 153.815C71.2412 155.72 50.2252 159.848 28.5576 144.783C6.8902 129.718 -8.58111 113.121 -14.3575 108.469C-20.1342 103.816 -52.4036 77.8155 -77.108 69.5765C-101.812 61.3374 -100.717 62.2972 -93.2941 61.8188C-85.8713 61.3401 -57.1094 60.7456 -18.6792 78.559C19.7507 96.3726 57.2458 112.44 75.8222 126.025C94.3991 139.61 92.5547 145.86 101.408 148.381C110.261 150.901 117.448 151.876 121.477 152.583C125.506 153.29 129.065 154.384 127.352 152.624C125.64 150.864 107.526 133.828 101.173 125.523C94.8199 117.218 88.2802 108.06 71.678 104.525C55.0758 100.99 37.3087 92.1238 23.4951 76.5271C9.68152 60.9306 4.03645 48.2676 -12.5534 34.6563C-29.1433 21.0452 -44.3673 9.12683 -49.7709 6.18025C-55.1747 3.23381 -60.5198 0.762534 -57.2223 0.552037C-53.925 0.341746 -20.0446 6.45229 4.18669 17.0393C28.4182 27.6263 55.5946 44.0916 70.4625 63.5004C85.3304 82.909 86.2092 100.103 95.1172 111.487C104.025 122.871 119.595 142.96 134.277 153.412C148.959 163.864 157.897 171.725 157.897 171.725C157.897 171.725 159.822 173.713 157.233 167.608C148.774 147.657 147.163 146.017 142.621 142.964C138.08 139.911 121.195 129.512 113.799 115.422C106.403 101.333 107.252 89.5105 105.874 81.6866C104.497 73.8626 101.075 51.6168 86.2768 36.5799C71.4784 21.5429 63.3917 12.9044 58.757 9.42504C54.1223 5.94538 53.9446 5.63893 57.3182 5.87951C60.6916 6.12004 86.9888 13.4951 111.278 30.4266C135.567 47.3579 147.976 69.6985 152.683 91.2379C157.39 112.777 156.057 129.478 154.044 135.968C152.031 142.459 150.994 142.533 153.002 150.58C155.01 158.627 163.516 177.288 167.635 180.94C171.754 184.593 190.342 204.309 195.274 210.161C200.205 216.013 204.558 220.732 204.715 222.465C204.872 224.198 204.19 230.195 203.453 227.33L203.453 227.33Z" fill="#FAADB2"/>
</svg>
