<svg width="293" height="71" fill="none" xmlns="http://www.w3.org/2000/svg"><path fill-rule="evenodd" clip-rule="evenodd" d="M68.826 48.099c1.55.098 2.736-.491 3.883-1.408 1.394-1.114 2.956-1.846 4.961-2.089 1.533-.186 2.918-1.314 4.383-2 2.521-1.178 5.016-2.409 7.59-3.485 2.618-1.094 5.305-2.06 7.988-3.02 1.745-.625 3.547-1.117 5.303-1.718.901-.309 1.742-.757 2.637-1.083.72-.261 1.502-.385 2.218-.655 1.466-.553 3.109-.938 4.303-1.81 1.321-.963 2.682-1.215 4.248-1.446 1.317-.194 2.511-.989 3.823-1.299 3.488-.823 6.987-1.636 10.525-2.25 3.371-.585 6.784-1.067 10.204-1.305 2.666-.186 5.371.119 8.058.117 2.202 0 4.404-.13 6.38-.504.537-.475.989-1.187 1.629-1.371 1.037-.299 1.593.292 1.52 1.297-.007.094.201.282.318.288 1.716.088 3.436.226 5.152.193.896-.017 1.851-.63 2.666-.479 2.735.507 5.615.127 8.265 1.277 1.153.5 2.589.49 3.904.666.742.1.998.164 1.093 1.07.062.584 1.742 1.183 2.799 1.492 1.569.46 3.23.666 4.85.982.367.072.728.181 1.098.228 3.174.407 6.354.78 9.523 1.212 1.413.192 2.799.64 4.212.706 1.124.052 2.271-.437 3.41-.445 2.516-.018 5.037.236 7.547.157 2.864-.09 5.72-.407 8.576-.658.877-.077 1.424.21 2.208.624 1.357.715 3.174.751 4.812.997 1.222.183 2.467.24 3.7.369.416.043.823.173 1.238.195 2.664.144 5.337.204 7.992.43 1.199.103 2.375.493 3.544.805 3.791 1.015 7.667.612 11.506.503 2.656-.076 5.304-.467 7.949-.762 2.27-.254 4.527-.602 6.799-.835.38-.039.806.295 1.211.457-.227.347-.364.873-.696 1.006-1.058.424-2.188.702-3.257 1.354.588-.02 1.206.059 1.758-.077 2.461-.605 4.93-1.204 7.338-1.955.744-.232 1.84-.942 1.834-1.424-.011-.824-.763-1.64-1.204-2.46l-.411.207.876-1.183-.215-.367c-1.211 1.854-2.183-.036-3.601.074l5.341-5.05-.309-.493c-.91.1-1.819.26-2.73.27-.39.003-.784-.309-1.535-.631l4.38-1.662c.388-1.876 2.497-1.626 4.313-2.17-1.515-.011-2.871-.183-2.454-1.851.057-.227 1.052-.264 1.91-.456l-2.167-.744c1.509-1.795 3.766-1.495 5.752-2.274-.333-.096-.659-.226-1-.279-.441-.069-.893-.076-1.34-.11.047-.468-.097-1.085.181-1.372.599-.617 1.414-1.063 2.126-1.57-.644.006-1.606.26-2.174-.057-.496-.277-.547-1.198-.806-1.865 1.051-.365 2.009-.643 2.907-1.034.413-.18.675-.62 1.064-.87.406-.259.861-.522 1.335-.614.551-.107 1.146-.03 2.176-.034l-5.593-1.688.584-2.782-2.154-.758.025-.67c1.124-.3 2.247-.602 3.335-.894l-.694-.796 2.404-1.593c-.267-.026-.769-.205-1.174-.094-1.849.506-1.938-.958-2.527-1.819-.039-.056.577-.656.953-.728 1.089-.208 2.21-.276 3.359-.718l-3.657-1.247 2.283-.193c-.693-.92-1.202-1.749-1.886-2.435-.299-.3-.985-.258-1.446-.463-.52-.23-.984-.563-1.473-.851l.118-.407 3.198-.713-5.289-2.52c1.44-.32 2.708-.622 3.99-.87.214-.042.604.083.709.24.782 1.175 1.946.866 3.058.784l.218-.386c-.584-.257-1.14-.628-1.756-.747-1.362-.264-2.771-.332-4.124-.622-.539-.116-.979-.606-1.464-.925.476-.324.94-.663 1.433-.965.214-.131.487-.184.886-.329-.935-.624-1.775-1.174-2.6-1.741-.37-.255-.709-.545-1.062-.819.535-.354 1.05-.738 1.617-1.044.157-.084.47.065.78-.209-.704-.082-1.442-.072-2.102-.272-.758-.23-1.628-.511-2.105-1.028-.356-.384-.382-1.63-.177-1.709.727-.284 1.614-.276 2.443-.296.627-.014 1.259.097 1.923-.049-2.08-.9-4.703.07-6.639-1.804l2.085-.825-1.44-1.794 1.473-1.974c-2.557-.539-3.489-1.223-3.048-2.186-1.665-.894-4.094-.07-5.492-1.922l1.093-.526-1.349-.493c-.049-2.188 2.1-.874 2.843-1.821-.737-.301-1.38-.57-2.03-.826-.197-.078-.487-.23-.605-.163-1.213.689-2.06.725-2.711-.7-.147-.323-1.452-.17-2.195-.34-.338-.078-.604-.408-.903-.623.303-.285.553-.704.923-.825.703-.23 1.486-.255 2.215-.433.45-.11.862-.348 1.059-.431l4.241 1.045c-1.625-2.053-1.635-2.018-4.531-2.675-.832-.19-1.59-.64-2.491-1.017l1.926-.43c-.346-2.048-2.529-2.39-3.735-3.585-1.559 1.353-2.827.722-3.704-.16l-6.752.88c.355.45 1.134 1.007-.286 1.447-.385.118-.62.63-1.168 1.226.741-.094 1.245-.254 1.321-.153.927 1.228 1.844-.014 2.734-.042.468-.015.95-.643 1.356-1.05 1.092-1.093 1.717-.316 2.643.611l-2.53.697c1.622.025 3.107.935 4.799.32.377-.136 1.291.927 1.958 1.437l-.308.51c-.445.027-.89.051-1.335.081-.673.046-1.347.077-2.017.148-1.407.15-2.812.437-4.216.424-.484-.004-.961-.732-1.595-1.257l-1.621.07.059.399c-.289.035-.652.183-.85.079-.261-.138-.392-.474-.651-.82-.937 2.24-3.049-.153-4.161 1.093l.444-.57-1.753-.559-.669-1.408c-2.128-.008-4.276.112-6.389-.08-.954-.087-1.839-.792-2.876-1.272l-5.769-.153-.093.243c1.347.25 2.691.51 4.041.743.523.09 1.085.041 1.583.186 1.127.327 2.017 1.18 3.446.837.754-.18 1.254.459.908 1.273 1.003-.799 3.549-.933 4.515-.148.211.172.064.7.082 1.063-1.01-.003-2.04 1.335-3.06-.073-.168-.232-.78-.173-1.137-.337-.179-.083-.245-.365-.363-.556-1.287-.12-2.574-.238-3.848-.355.064 1.512-.197 1.55-2.072 1.245-2.281-.371-4.626-.407-6.93-.678-2.382-.28-4.864.007-7.125-.939-.309-.13-.501-.556-.662-.88-.121-.243-.107-.541-.153-.815-.287.092-.64.117-.85.286-1.332 1.068-2.601 1.336-4.466.754-2.097-.655-4.456-.622-6.693-.933-.528-.073-1.025-.325-1.738-.562.662-.583 1.104-.972 1.547-1.36-1.342.232-2.937-.536-3.745.939-.079.144-.874.022-1.319-.056-1.293-.229-2.828-.19-3.798-.831-1.139-.755-1.902-.637-3.143-.427-1.242.21-2.647-.358-3.891-.57l-.248.903c-.378-.09-.839-.086-1.121-.286-1.005-.711-1.949-1.492-3.195-2.463.655-.052 1.27-.118 1.888-.144.772-.032 1.546-.032 2.319-.045l.027-.455-1.462-.333c.115-.4.205-.715.298-1.03.476-1.612-.509-2.532-2.273-2.072-1.095.286-2.159.668-3.181.989l.479 1.425c-.475.06-1.016.01-1.414.2-1.458.702-2.672-.172-3.99-.384-.28-.045-.597.142-.902.165-.808.062-1.619.093-2.429.136l.192-1.723c-1.172.095-2.345-.306-3.711.733-1.002.762-3.098.383-4.71.423-.123.003-.269-.698-.414-1.1-5.394-1.663-11.321-.97-17.184-1.12l2.769.948.083.576c-1.004.226-1.998.583-3.014.642-1.111.065-2.242-.146-3.364-.236l-.132.458-.984-1.462c.842-.128 1.599-.218 2.342-.363.787-.153 1.561-.36 2.341-.543-1.038-.13-2.074-.343-3.115-.365-.915-.02-1.905-.764-2.763.142l-.923-.987c-1.617.23-3.427.16-4.902.76-3.632 1.476-7.533 1.67-11.324 2.396-2.862.547-5.678 1.293-8.539 1.846-1.337.258-2.751.186-4.095.423-1.038.183-2.106.485-3.01.964-2.185 1.155-4.36 2.248-6.983 2.312-.241.006-.55.137-.703.303-1.068 1.157-2.559 1.133-3.976 1.058-1.32-.07-2.247.295-2.924 1.288-.85 1.244-2.337.673-3.521.953-.55.13-1.164.037-1.714.045l4.698-3.541-.176-.225-15.873 6.865.206.438c.894-.334 1.805-.637 2.677-1.012.974-.418 1.83-1.402 3.042-.316-.807 1.976-3.39 1.944-4.817 3.243-1.78 1.62-3.681.017-5.505.25-.118-.488-.118-.488 2.004-2.574l-.276-.33-5.328 3.606c.189.683.433 1.348.369 1.373-.698.273-1.444.445-2.177.645l-.29-.47 1.078-1.42c-1.709.549-3.742.318-4.817 2.056-.357.576-1.165.917-1.723 1.406-.315.276-.569.621-.777.97-.031.054.403.463.508.428.348-.116.64-.365.962-.551.486-.282.98-.554 1.47-.83l.354.358c-.148.34-.194.876-.46.99a164.233 164.233 0 0 1-7.42 2.974c-.287.106-.81-.304-1.222-.474l-.018-.667c-.873.533-1.733 1.084-2.622 1.595-1.6.92-3.177 1.882-4.837 2.707-2.583 1.284-5.215 2.49-7.85 3.686-1.277.581-2.732.91-3.878 1.642-1.091.698-1.79 1.876-2.831 2.66-1.606 1.205-3.351 2.26-5.048 3.367-1.243.81-2.463 1.656-3.769 2.377-.868.48-1.869.764-2.81 1.139-.532.212-1.112.364-1.586.655-5.638 3.463-12.043 5.5-18.215 7.97-.19.077-.49.167-.624.09-2.163-1.244-3.988.204-5.928.6-2.594.532-5.139 1.5-7.751 1.657-4.263.256-8.565-.079-12.846.005-3.474.067-6.94.384-10.41.585-.263.016-.539.038-.79-.015-2.857-.6-5.722-1.168-8.56-1.834-4.66-1.094-9.294-2.281-13.956-3.367-1.29-.301-2.644-.384-3.983-.568-.041 1.03-.646 1.316-1.653.845-1.404-.658-2.28.51-3.425.739-.956.191-1.94.624-2.86.534-2.696-.264-2.959-.11-3.257 2.318-.044.36-.786.692-1.264.95-.165.088-.544-.187-.759-.12-.516.158-.993.42-1.486.642.405.304.787.64 1.226.898.202.12.591.011.757.145.21.17.418.504.374.727-.045.222-.385.544-.623.564-1.328.112-1.238.804-.96 1.655.12.366.159.765.161 1.15.01 1.446-.145 1.554-1.877 1.325-.173 1.216.548 3.103-2.25 2.568.644 1.877-.608 3.14-1.364 4.56-.25.469-.17 1.081-.264 1.813-2.253 1.288 1.08 2.795.009 4.365l-.707-.106c.09 1.245.304 2.468.234 3.678-.091 1.586-1.973 1.386-3.027 2.133.076.52.147 1.043.232 1.565.239 1.47-.18 1.62-1.72 1.84a12.414 12.414 0 0 0-4.432 1.563c-1.06.625-1.904 1.694-2.518 2.724-.306.514.12 1.38.233 2.23-2.198.9-1.924 3.093-2.626 4.854-.036.09-.017.206-.072.281-1.486 2.041-.2 3.674.976 5.31 2.07 2.878 4.915 5.043 7.844 7.193 2.754 2.022 5.572 3.917 8.702 5.41 2.358 1.124 4.75 2.204 7.202 3.148 5.95 2.29 12.023 4.275 18.425 5.284 5.66.89 11.314 1.835 17.01 2.491 2.8.323 5.69-.046 8.53.069 2.712.11 5.413.423 8.113.69.395.04.76.319 1.39.598l-1.816 1.315c2.341-.075 4.293-.12 6.242-.202 4.799-.203 9.63-.18 14.386-.7 5.277-.577 10.52-1.517 15.713-2.563 3.586-.722 7.093-1.803 10.573-2.887 3.185-.992 6.283-2.209 9.425-3.315 2.17-.764 4.369-1.466 6.511-2.288.582-.224.967-.832 1.513-1.172.49-.304 1.072-.495 1.624-.712 1.423-.558 2.872-1.067 4.273-1.666 1.092-.468 2.129-1.042 3.32-1.633-1.517-.882-.64-1.403.282-1.808 2.485-1.094 5.008-2.12 7.495-3.21.807-.355 1.517-.889 2.33-1.227.599-.248 1.292-.31 2.338-.543l-.998 1.884-.037-.021ZM158.99-52.534l2.274.143c-1.544.262-2.751 1.735-4.556.91-.477-.22-1.58-.58-1.711.685-1.08-1-1.757-.551-2.129.442-.896-.324-1.696-.866-2.471-.839-1.538.054-3.058.446-4.595.637-.289.036-.905-.285-.894-.323.232-.757.442-1.547.883-2.207.119-.179.982.04 1.503.085.384.032.765.1 1.149.115.79.03 1.581.037 2.432.054.12-1.975 2.36.62 2.955-.682.344.16.748.265 1.01.499.161.143.105.483.115.544.725-.274 1.632-.418 2.202-.89.545-.452.738-1.246 1.043-1.81l-2.447-.807c.827-.269 1.462-.654 2.085-.639 1.053.025 2.108.268 3.141.495.339.075.614.386.918.59-.309.211-.621.606-.924.6-.927-.018-1.442.145-1.346 1.127.032.33-.332.692-.637 1.27Zm65.743 12.883c-3.115.872-6.17-.526-9.331-.765-.189-.014-.46-.276-.498-.455-.034-.16.196-.524.322-.529 1.526-.056 3.116-.31 4.566-.017 1.746.353 3.374 1.184 4.941 1.766Zm-86.966-11.102c.14-1.126.85-1.198 1.759-1.005.778.166 1.553.372 1.997-.588.075-.16.937-.229 1.235-.057.545.313.941.837 1.399 1.274-1.032.769-5.052 1.008-6.39.376Zm78.976 6.65c.83-.065 1.618-.182 2.402-.16.301.007.688.278.851.527.1.152-.089.53-.255.738-.92 1.153-2.025 1.198-3.246.452l.248-1.557Zm8.686.195c-.186.042-.534.153-.891.189a3.263 3.263 0 0 1-1.019-.045c-.094-.02-.209-.438-.141-.49.265-.2.598-.458.907-.46 1.006-.003 2.013.097 3.308.175-.816.665.235 2.142-1.569 1.955-.216-.023-.343-.737-.595-1.324Zm-88.902-7.045c-1.673 1.969-3.639 1.977-4.316.223l4.316-.223Zm32.527-2.543c-.306.488-.454 1.034-.835 1.258-.522.306-1.214.41-1.85.499-.132.018-.486-.408-.487-.63-.003-.649 2.337-1.498 3.172-1.127Zm11.857 2.281-2.496-.243c.156-.344.211-.88.487-.998.872-.373 1.747-.402 2.009 1.241Zm85.409 11.892c1.212-.397 2.238-.912 2.837.529-1.084.738-1.978.794-2.837-.53Zm-203.253 8.18c-.616.565-.878.999-1.239 1.082-.347.08-.797-.204-1.201-.328.191-.334.308-.866.593-.953.404-.125.933.078 1.847.199Zm79-24.072c-.347.257-.671.609-1.087.77-.326.128-.778.07-1.146-.011-.115-.026-.249-.541-.18-.585.31-.196.684-.402 1.045-.418.436-.02.883.149 1.368.244Zm-.757 77.767-2.234.799c.441-1.808.776-1.956 2.234-.799Zm2.217-76.667c.865-1.257 1.638-1.566 2.828-.265l-2.828.265Z" fill="#FFD0D2"/></svg>