<svg width="205" height="86" fill="none" xmlns="http://www.w3.org/2000/svg"><path d="M203.453 227.33c-.115-.45-22.462-32.379-42.181-47.137-19.718-14.758-23.441-20.65-43.472-25.185-20.03-4.535-28.13-3.097-37.344-1.193-9.215 1.905-30.23 6.033-51.898-9.032-21.668-15.065-37.14-31.662-42.916-36.314-5.776-4.653-38.046-30.653-62.75-38.892-24.704-8.24-23.609-7.28-16.186-7.758 7.423-.479 36.185-1.073 74.615 16.74 38.43 17.814 75.925 33.881 94.501 47.466 18.577 13.585 16.733 19.835 25.586 22.356 8.853 2.52 16.04 3.495 20.069 4.202 4.029.707 7.588 1.801 5.875.041-1.712-1.76-19.826-18.796-26.179-27.101-6.353-8.305-12.893-17.463-29.495-20.998s-34.37-12.401-48.183-27.998C9.682 60.931 4.036 48.267-12.553 34.657-29.143 21.044-44.367 9.126-49.771 6.18-55.175 3.234-60.52.763-57.222.552c3.297-.21 37.177 5.9 61.409 16.487C28.418 27.626 55.595 44.092 70.463 63.5c14.867 19.409 15.746 36.603 24.654 47.987s24.478 31.473 39.16 41.925c14.682 10.452 23.62 18.313 23.62 18.313s1.925 1.988-.664-4.117c-8.459-19.951-10.07-21.591-14.612-24.644-4.541-3.053-21.426-13.452-28.822-27.542-7.396-14.089-6.547-25.912-7.925-33.735-1.377-7.824-4.799-30.07-19.597-45.107-14.799-15.037-22.885-23.676-27.52-27.155-4.635-3.48-4.812-3.786-1.439-3.545 3.374.24 29.67 7.615 53.96 24.547 24.289 16.93 36.698 39.271 41.405 60.81 4.707 21.54 3.374 38.241 1.361 44.731-2.013 6.491-3.05 6.565-1.042 14.612s10.514 26.708 14.633 30.36c4.119 3.653 22.707 23.369 27.639 29.221 4.931 5.852 9.284 10.571 9.441 12.304.157 1.733-.525 7.73-1.262 4.865Z" fill="#FAADB2"/></svg>