<svg width="293" height="79" fill="none" xmlns="http://www.w3.org/2000/svg"><path fill-rule="evenodd" clip-rule="evenodd" d="M68.826 53.715c1.55.11 2.736-.548 3.883-1.572 1.394-1.244 2.956-2.061 4.961-2.333 1.533-.207 2.918-1.468 4.383-2.233 2.521-1.316 5.016-2.69 7.59-3.892 2.618-1.223 5.305-2.3 7.988-3.374 1.745-.698 3.547-1.247 5.303-1.918.901-.344 1.742-.846 2.637-1.21.72-.291 1.503-.43 2.218-.731 1.466-.617 3.109-1.047 4.303-2.02 1.321-1.077 2.682-1.358 4.248-1.616 1.317-.217 2.511-1.104 3.823-1.45 3.488-.92 6.987-1.828 10.525-2.513 3.371-.654 6.784-1.192 10.204-1.458 2.666-.207 5.371.133 8.058.131 2.202 0 4.404-.146 6.38-.563.537-.53.989-1.326 1.63-1.531 1.036-.333 1.592.326 1.519 1.449-.007.104.201.315.318.321 1.716.099 3.436.253 5.152.216.896-.02 1.851-.704 2.666-.535 2.735.566 5.615.141 8.265 1.426 1.154.56 2.589.546 3.904.744.742.111.998.183 1.093 1.194.062.653 1.742 1.322 2.799 1.667 1.569.512 3.23.743 4.85 1.097.367.08.728.201 1.098.255 3.174.453 6.354.87 9.523 1.352 1.413.215 2.799.715 4.212.789 1.125.058 2.271-.488 3.41-.497 2.516-.02 5.037.264 7.547.175 2.864-.1 5.72-.454 8.576-.734.877-.087 1.424.235 2.208.696 1.357.799 3.174.84 4.812 1.114 1.222.204 2.467.268 3.7.411.416.049.823.194 1.238.219 2.664.16 5.337.228 7.992.48 1.199.115 2.375.55 3.544.9 3.791 1.132 7.667.682 11.506.56 2.656-.084 5.304-.52 7.949-.85 2.27-.284 4.527-.672 6.799-.933.38-.043.806.33 1.211.51-.227.388-.364.976-.696 1.124-1.058.474-2.188.784-3.257 1.512.588-.022 1.206.066 1.758-.086 2.462-.675 4.93-1.345 7.338-2.183.744-.26 1.84-1.052 1.834-1.59-.011-.92-.763-1.832-1.204-2.747l-.411.23.876-1.32-.215-.41c-1.211 2.07-2.183-.04-3.601.082l5.341-5.64-.309-.55c-.91.111-1.819.29-2.73.3-.39.005-.784-.343-1.535-.704l4.38-1.855c.388-2.096 2.497-1.816 4.313-2.423-1.515-.013-2.871-.205-2.454-2.068.057-.254 1.052-.295 1.91-.509l-2.167-.83c1.509-2.006 3.766-1.67 5.752-2.541-.333-.107-.659-.252-1-.311-.441-.077-.893-.085-1.34-.124.047-.522-.097-1.211.181-1.53.599-.69 1.414-1.189 2.126-1.754-.644.006-1.606.29-2.174-.065-.496-.308-.547-1.337-.806-2.083 1.051-.407 2.009-.717 2.907-1.154.413-.2.675-.693 1.064-.97.406-.29.861-.585 1.335-.687.551-.12 1.146-.033 2.176-.038-2.234-.753-4.037-1.36-5.593-1.886l.584-3.106-2.154-.846.025-.749 3.335-.998-.694-.89 2.404-1.778c-.267-.03-.769-.229-1.174-.105-1.849.565-1.938-1.07-2.527-2.031-.039-.063.577-.733.953-.813 1.089-.233 2.21-.309 3.359-.802l-3.657-1.393 2.283-.215c-.693-1.028-1.202-1.953-1.886-2.72-.299-.334-.985-.288-1.446-.517-.52-.257-.984-.629-1.473-.95l.118-.454 3.198-.797-5.289-2.814c1.44-.358 2.708-.695 3.99-.973.214-.046.604.094.709.27.782 1.312 1.946.966 3.058.875l.218-.432c-.584-.286-1.14-.7-1.756-.834-1.362-.294-2.771-.37-4.124-.695-.539-.129-.979-.676-1.464-1.033.476-.361.94-.74 1.433-1.077.214-.146.487-.206.886-.367-.935-.697-1.775-1.311-2.6-1.945-.37-.284-.709-.608-1.062-.914.535-.396 1.05-.825 1.617-1.166.157-.094.47.072.78-.234-.704-.092-1.442-.08-2.102-.303-.758-.258-1.628-.572-2.105-1.148-.356-.43-.382-1.82-.177-1.909.727-.317 1.614-.308 2.443-.33.627-.017 1.259.108 1.923-.055-2.08-1.006-4.703.078-6.639-2.015l2.085-.92-1.44-2.005 1.473-2.205c-2.557-.601-3.489-1.365-3.048-2.44-1.665-.998-4.094-.078-5.492-2.148.431-.23.737-.395 1.093-.587l-1.349-.55c-.049-2.444 2.1-.976 2.843-2.034-.737-.336-1.38-.636-2.03-.922-.197-.087-.487-.257-.605-.182-1.213.769-2.06.81-2.711-.782-.147-.36-1.452-.19-2.195-.38-.338-.087-.604-.455-.903-.696.303-.318.553-.786.923-.921.703-.257 1.486-.284 2.215-.483.45-.124.862-.39 1.059-.482l4.241 1.168c-1.625-2.293-1.635-2.254-4.531-2.988-.832-.211-1.59-.715-2.491-1.136l1.926-.48c-.346-2.287-2.529-2.67-3.735-4.003-1.559 1.51-2.827.806-3.704-.179l-6.752.983c.355.503 1.134 1.124-.286 1.615-.385.133-.62.704-1.168 1.37.741-.105 1.245-.284 1.321-.171.927 1.37 1.844-.015 2.734-.047.468-.017.95-.718 1.356-1.172 1.092-1.222 1.717-.354 2.643.682l-2.53.778c1.622.028 3.107 1.044 4.799.358.377-.153 1.291 1.034 1.958 1.604l-.308.57c-.445.03-.89.057-1.335.09-.673.052-1.347.086-2.017.166-1.407.168-2.812.488-4.216.474-.484-.006-.961-.818-1.595-1.404l-1.621.077.059.446c-.289.04-.652.205-.85.088-.261-.154-.392-.529-.651-.916-.937 2.502-3.049-.17-4.161 1.221l.444-.636-1.753-.624-.669-1.573c-2.128-.009-4.276.125-6.389-.09-.954-.096-1.839-.883-2.876-1.42l-5.769-.17-.093.27c1.347.279 2.691.57 4.041.83.523.1 1.085.046 1.583.208 1.127.365 2.017 1.318 3.446.935.754-.202 1.254.512.908 1.421 1.003-.892 3.549-1.041 4.515-.165.211.192.064.781.082 1.187-1.01-.004-2.04 1.491-3.06-.081-.168-.26-.78-.193-1.137-.377-.179-.092-.245-.407-.363-.621l-3.848-.396c.064 1.688-.197 1.73-2.072 1.39-2.281-.414-4.626-.454-6.93-.757-2.382-.313-4.864.008-7.125-1.048-.309-.145-.501-.622-.662-.983-.121-.272-.107-.605-.153-.91-.287.102-.64.13-.85.32-1.332 1.191-2.601 1.491-4.466.84-2.097-.731-4.456-.694-6.693-1.04-.528-.083-1.024-.364-1.738-.628l1.547-1.52c-1.342.26-2.937-.598-3.745 1.05-.079.16-.874.024-1.319-.064-1.293-.255-2.828-.21-3.798-.928-1.139-.842-1.902-.71-3.143-.476-1.242.234-2.646-.4-3.891-.636l-.248 1.008c-.378-.1-.839-.096-1.121-.32-1.005-.794-1.949-1.665-3.195-2.75.655-.058 1.27-.132 1.888-.161.772-.036 1.546-.035 2.319-.05l.027-.508-1.462-.373c.115-.445.205-.797.298-1.149.476-1.8-.509-2.828-2.273-2.314-1.095.319-2.159.745-3.181 1.104l.479 1.592c-.475.067-1.016.01-1.414.223-1.458.784-2.672-.193-3.99-.43-.28-.05-.597.16-.902.185-.808.07-1.619.104-2.429.152l.192-1.924c-1.172.106-2.345-.342-3.711.819-1.002.85-3.098.427-4.71.472-.123.003-.269-.78-.414-1.229-5.394-1.857-11.321-1.083-17.184-1.25l2.769 1.059.083.642c-1.004.252-1.998.651-3.014.717-1.111.073-2.242-.162-3.364-.264l-.132.512-.984-1.632c.842-.143 1.599-.243 2.342-.405.787-.172 1.561-.402 2.341-.607-1.038-.145-2.074-.383-3.115-.408-.915-.022-1.905-.852-2.763.159l-.923-1.103c-1.617.257-3.427.18-4.902.85-3.632 1.647-7.533 1.864-11.324 2.675-2.862.612-5.678 1.444-8.539 2.062-1.337.288-2.751.207-4.095.472-1.038.205-2.106.542-3.01 1.076-2.185 1.291-4.36 2.511-6.983 2.583-.241.006-.55.153-.703.338-1.068 1.293-2.559 1.265-3.976 1.181-1.32-.078-2.247.33-2.924 1.438-.85 1.39-2.337.752-3.521 1.065-.55.145-1.164.042-1.714.05l4.698-3.954-.176-.251-15.873 7.666.206.49c.894-.374 1.805-.712 2.677-1.13.974-.467 1.83-1.567 3.042-.354-.807 2.208-3.39 2.17-4.817 3.622-1.78 1.81-3.681.019-5.505.279-.118-.545-.118-.545 2.004-2.874l-.276-.369-5.328 4.027c.189.763.433 1.505.369 1.533-.698.305-1.444.498-2.177.72l-.29-.525c.36-.528.72-1.057 1.078-1.586-1.709.614-3.742.357-4.817 2.297-.357.644-1.165 1.024-1.723 1.57-.315.309-.569.694-.776 1.085-.032.06.402.515.507.477.348-.13.64-.408.962-.616.486-.314.98-.618 1.47-.926l.354.4c-.148.38-.194.978-.46 1.105a154.713 154.713 0 0 1-7.42 3.32c-.287.12-.81-.338-1.222-.528l-.018-.745c-.873.595-1.733 1.21-2.622 1.78-1.6 1.028-3.177 2.103-4.837 3.024-2.583 1.434-5.215 2.78-7.85 4.117-1.277.649-2.732 1.015-3.878 1.833-1.091.78-1.79 2.096-2.831 2.97-1.606 1.347-3.351 2.526-5.048 3.761-1.243.905-2.463 1.85-3.769 2.655-.868.535-1.869.853-2.81 1.272-.532.236-1.112.406-1.586.73-5.638 3.869-12.043 6.144-18.215 8.903-.19.085-.49.186-.624.1-2.163-1.39-3.988.227-5.928.67-2.594.593-5.139 1.674-7.751 1.85-4.263.286-8.565-.088-12.846.005-3.473.076-6.94.43-10.41.654-.263.017-.539.042-.79-.017-2.857-.67-5.722-1.304-8.56-2.048-4.66-1.221-9.294-2.547-13.956-3.76-1.29-.336-2.644-.429-3.983-.635-.041 1.152-.646 1.47-1.653.944-1.404-.734-2.28.57-3.425.825-.956.214-1.94.698-2.86.597-2.696-.295-2.959-.124-3.257 2.588-.044.404-.786.773-1.264 1.06-.165.1-.544-.207-.759-.133-.516.177-.993.47-1.486.717.405.34.787.714 1.226 1.003.202.133.591.013.757.163.21.19.418.562.374.81-.045.25-.385.608-.623.63-1.328.126-1.238.9-.96 1.85.12.408.159.854.161 1.283.01 1.615-.144 1.736-1.877 1.48-.173 1.358.548 3.466-2.25 2.868.644 2.097-.608 3.506-1.364 5.092-.25.524-.169 1.208-.264 2.025-2.253 1.44 1.08 3.121.009 4.875l-.707-.118c.09 1.39.305 2.756.235 4.107-.092 1.771-1.974 1.547-3.028 2.382.076.581.147 1.165.232 1.747.239 1.643-.18 1.81-1.72 2.055-1.541.245-3.124.885-4.432 1.746-1.06.698-1.904 1.892-2.518 3.042-.306.574.12 1.542.233 2.491-2.198 1.005-1.924 3.454-2.626 5.42-.036.101-.017.23-.072.315-1.486 2.279-.2 4.102.976 5.929 2.07 3.215 4.915 5.632 7.844 8.033 2.755 2.259 5.572 4.375 8.702 6.042 2.358 1.255 4.75 2.462 7.202 3.516 5.95 2.557 12.023 4.775 18.425 5.9 5.66.995 11.315 2.05 17.01 2.783 2.8.36 5.69-.051 8.53.077 2.712.122 5.413.473 8.113.77.395.045.76.356 1.39.668l-1.816 1.469c2.341-.084 4.293-.135 6.242-.226 4.799-.227 9.63-.202 14.386-.782 5.277-.644 10.52-1.694 15.713-2.862 3.586-.806 7.093-2.014 10.573-3.224 3.185-1.108 6.283-2.467 9.425-3.702 2.17-.853 4.369-1.637 6.511-2.555.582-.25.967-.93 1.513-1.309.49-.34 1.072-.553 1.624-.795 1.423-.624 2.872-1.192 4.273-1.861 1.092-.522 2.129-1.163 3.32-1.824-1.517-.985-.64-1.566.282-2.02 2.485-1.22 5.008-2.366 7.495-3.584.807-.396 1.517-.992 2.33-1.37.599-.276 1.292-.346 2.338-.606l-.998 2.104-.037-.024ZM158.99-58.67l2.273.16c-1.543.293-2.75 1.938-4.555 1.016-.477-.244-1.58-.647-1.711.766-1.08-1.116-1.757-.615-2.129.494-.896-.362-1.696-.968-2.471-.937-1.538.06-3.058.498-4.595.711-.29.04-.905-.318-.894-.36.232-.846.442-1.728.883-2.465.119-.2.982.044 1.503.094.384.037.765.112 1.149.129.79.034 1.581.04 2.432.06.12-2.205 2.36.694 2.955-.761.344.178.747.295 1.01.556.161.16.105.54.115.609.725-.306 1.632-.467 2.202-.995.545-.504.738-1.391 1.043-2.021l-2.447-.901c.827-.3 1.462-.73 2.084-.713 1.053.028 2.109.298 3.142.552.339.083.614.431.917.658-.308.237-.62.677-.923.67-.927-.02-1.442.163-1.346 1.26.032.369-.332.773-.637 1.418Zm65.743 14.39c-3.115.973-6.17-.588-9.331-.855-.189-.016-.46-.308-.498-.509-.034-.179.196-.585.322-.59 1.526-.063 3.116-.347 4.566-.02 1.746.395 3.374 1.323 4.941 1.973Zm-86.966-12.4c.14-1.257.85-1.338 1.759-1.122.778.185 1.553.416 1.997-.656.075-.18.937-.256 1.235-.065.545.35.941.936 1.399 1.424-1.032.858-5.052 1.125-6.39.42Zm78.976 7.427c.83-.073 1.618-.203 2.402-.18.301.01.688.312.851.59.1.17-.089.593-.255.825-.92 1.286-2.025 1.337-3.246.504l.248-1.739Zm8.686.218c-.186.047-.534.17-.89.211a2.936 2.936 0 0 1-1.02-.05c-.093-.023-.209-.489-.141-.546.265-.225.599-.513.908-.514 1.005-.004 2.012.108 3.307.195-.816.742.235 2.391-1.569 2.182-.216-.025-.343-.822-.595-1.478Zm-88.902-7.868c-1.674 2.199-3.639 2.208-4.317.25l4.317-.25Zm32.527-2.839c-.306.545-.454 1.154-.835 1.404-.522.343-1.214.459-1.85.558-.132.02-.486-.455-.487-.703-.003-.726 2.337-1.674 3.172-1.259Zm11.857 2.547-2.496-.272c.156-.385.211-.982.487-1.114.872-.417 1.747-.45 2.009 1.386Zm85.41 13.28c1.212-.444 2.237-1.018 2.836.59-1.084.824-1.977.887-2.836-.59ZM63.067-34.78c-.616.631-.878 1.116-1.24 1.208-.346.09-.796-.228-1.2-.366.191-.373.308-.966.593-1.064.404-.14.933.087 1.847.222Zm79-26.882c-.346.287-.671.679-1.086.86-.326.142-.779.078-1.146-.014-.115-.028-.249-.604-.18-.652.309-.22.683-.45 1.044-.467.436-.022.883.166 1.368.273Zm-.757 86.847-2.234.893c.441-2.02.776-2.185 2.234-.892Zm2.217-85.62c.865-1.403 1.638-1.748 2.828-.295l-2.828.295Z" fill="#FFD0D2"/></svg>