<svg width="246" height="117" fill="none" xmlns="http://www.w3.org/2000/svg"><path fill-rule="evenodd" clip-rule="evenodd" d="M-19.566 40.054c.061.434.23.726.42.726.206 0 .318.237.318.67 0 .447.11.67.331.67.22 0 .331.223.331.67 0 .447.11.67.332.67.182 0 .331.193.331.43 0 .459 1.553 1.941 2.375 2.266.273.108.497.3.497.425 0 .126.398.229.884.229.638 0 .883.093.883.335 0 .286.63.335 4.335.335 4.069 0 4.327-.025 4.229-.403-.087-.337.005-.387.556-.306.456.068.724-.015.863-.267.111-.2.399-.364.64-.364.24 0 .495-.15.565-.335.07-.184.269-.335.441-.335.174 0 .373-.15.442-.335.07-.184.266-.335.435-.335.17 0 .308-.15.308-.335 0-.184.15-.335.331-.335.183 0 .332-.14.332-.311 0-.172.149-.37.331-.44.466-.181.424-1.2-.055-1.337-.213-.06-.088-.093.276-.072.63.037.666-.01.731-.923.042-.58.195-1.01.387-1.085.48-.186.467-6.285-.013-6.471-.217-.084-.332-.432-.332-1.005 0-.574-.114-.921-.331-1.005-.182-.071-.331-.312-.331-.536 0-.224-.15-.557-.332-.742-.182-.184-.331-.404-.331-.488 0-.219-1.676-1.887-1.907-1.898-.106-.005-.436-.306-.734-.67-.298-.363-.659-.66-.801-.66-.143 0-.383-.151-.535-.335-.151-.185-.536-.339-.855-.343-.32-.004-.774-.154-1.01-.335-.626-.479-5.915-.473-6.309.008-.158.192-.64.335-1.132.335-.614 0-.856.095-.856.335 0 .223-.221.334-.663.334-.442 0-.663.112-.663.335 0 .185-.149.335-.331.335a.334.334 0 0 0-.332.335c0 .185-.099.335-.22.335-.287 0-1.105.827-1.105 1.117 0 .123-.15.223-.332.223-.183 0-.33.2-.33.447 0 .248-.148.447-.332.447a.334.334 0 0 0-.332.335c0 .184-.097.335-.216.335-.12 0-.282.276-.361.614-.08.338-.296.79-.48 1.005-.342.397-.59 5.974-.343 7.705Zm5.588-4.188c.116 0 .276-.348.354-.773.08-.426.283-.89.452-1.033.17-.142.309-.355.309-.473 0-.278 1.487-1.74 1.77-1.74.12 0 .218-.107.218-.237s.1-.174.22-.098c.122.075.222.031.222-.099 0-.403 3.68-.308 3.835.099.07.184.38.334.686.334.35 0 .56.126.56.335 0 .185.1.336.22.336.288 0 1.105.826 1.105 1.116 0 .123.15.223.332.223.22 0 .331.224.331.67 0 .447.11.67.332.67.19 0 .331.202.331.475 0 .382.06.423.312.212.24-.201.35-.195.477.029.09.159.084.215-.015.124-.362-.33-.774.354-.774 1.285 0 .643-.108.997-.331 1.083-.209.08-.332.422-.332.917 0 .552-.1.789-.331.789a.334.334 0 0 0-.332.335c0 .206-.207.335-.54.335-.298 0-.622.126-.719.279-.253.4-1.567 1.06-2.11 1.06-.254 0-.64.163-.856.361-.363.333-.423.333-.751 0-.196-.198-.652-.36-1.011-.36-.732 0-2.672-1.728-2.947-2.624-.084-.277-.246-.503-.36-.503-.113 0-.205-.232-.205-.516 0-.283-.146-.71-.325-.949-.363-.485-.453-1.661-.127-1.661ZM28.56 59.683c.231.09.331.455.331 1.206 0 .659.129 1.206.332 1.412.182.184.33.58.33.881 0 .301.15.672.332.826.183.152.332.51.332.792 0 .284.13.648.288.81.16.163.355.472.435.687.08.215.25.39.374.39.125 0 .228.136.228.301 0 .166.174.512.387.77.213.259.585.722.828 1.03.243.307.566.563.718.57.152.005.276.16.276.344 0 .185.14.336.308.336.17 0 .365.15.435.334.07.185.268.336.438.336.171 0 .435.15.587.335.151.184.443.334.648.334.206 0 .66.302 1.009.67.349.369.765.67.925.67.16 0 .29.151.29.336 0 .223.22.334.663.334.441 0 .662.112.662.336 0 .246.256.335.97.335.651 0 1.013.108 1.096.328.186.489 10.527.485 10.527-.004 0-.236.274-.325 1.001-.325.686 0 1.041-.105 1.128-.334.072-.189.4-.335.75-.335.344 0 .773-.151.956-.335.182-.185.488-.336.678-.336.191 0 .347-.15.347-.334 0-.21.21-.336.56-.336.307 0 .616-.15.686-.335.07-.184.266-.335.435-.335.17 0 .308-.15.308-.335 0-.184.185-.334.412-.334.495 0 2.902-2.28 2.902-2.75 0-.18.149-.387.331-.458a.562.562 0 0 0 .331-.486c0-.198.156-.516.347-.708.23-.234.326-.672.287-1.317-.032-.532.01-1.037.095-1.123.086-.086.155.07.155.346 0 .67.53.483.627-.222.043-.297.228-.713.414-.923.209-.236.276-.536.175-.782-.11-.268-.196-.308-.266-.12-.057.154-.207.28-.332.28-.14 0-.123-.132.043-.334.15-.182.36-.277.468-.21.108.068.197-.075.197-.318s.124-.483.276-.534c.196-.066.297-.9.348-2.867.04-1.525.164-2.868.276-2.985.337-.35.233-3.304-.134-3.794-.179-.24-.325-.855-.325-1.369 0-.559-.133-1.047-.33-1.213-.183-.153-.332-.455-.332-.67 0-.216-.15-.517-.332-.67-.182-.153-.331-.464-.331-.69 0-.227-.298-.636-.663-.909-.364-.272-.663-.627-.663-.788 0-.161-.149-.293-.331-.293-.207 0-.331-.212-.331-.566 0-.31-.15-.623-.332-.693-.182-.071-.331-.259-.331-.417 0-.411-1.759-2.344-2.132-2.344-.172 0-.37-.15-.44-.335-.07-.184-.265-.335-.434-.335-.17 0-.308-.15-.308-.335a.342.342 0 0 0-.347-.335c-.191 0-.496-.15-.679-.335-.182-.184-.512-.335-.734-.335-.221 0-.46-.15-.53-.335-.078-.208-.414-.335-.883-.335-.468 0-.805-.127-.884-.335-.093-.246-.476-.335-1.436-.335s-1.342-.09-1.436-.335c-.1-.263-.55-.335-2.099-.335-1.548 0-1.998-.072-2.098-.335-.093-.246-.476-.335-1.432-.335-.891 0-1.393.106-1.581.335-.175.213-.662.335-1.334.335-1.202 0-1.814.176-1.634.47.067.11-.235.2-.671.2-.502 0-.84.123-.92.335-.07.184-.304.335-.52.335-.214 0-.514.15-.665.335-.151.184-.412.335-.58.335-.167 0-.304.15-.304.335 0 .223-.22.335-.663.335-.441 0-.662.111-.662.335 0 .184-.14.335-.308.335-.17 0-.365.15-.435.335-.07.184-.265.335-.433.335-.416 0-2.36 1.934-2.36 2.348 0 .183-.148.332-.33.332-.183 0-.332.14-.332.31 0 .172-.15.37-.331.44-.183.071-.332.39-.332.708 0 .38.087.523.255.419.154-.097.195-.062.104.089-.084.136-.297.191-.474.123-.19-.074-.387.044-.479.288-.086.228-.343.615-.569.861-.713.772-1.488 2.57-1.488 3.453 0 .48-.143.967-.331 1.125-.272.229-.332.995-.332 4.278 0 3.35.054 4.021.332 4.128Zm5.633-5.083c0-2.01.057-2.43.332-2.43.24 0 .331-.248.331-.9 0-.594.113-.943.331-1.028.19-.074.332-.407.332-.775 0-.426.113-.646.331-.646.182 0 .332-.177.332-.392 0-.42 2.27-2.958 2.646-2.958.124 0 .226-.15.226-.335 0-.184.138-.335.307-.335.17 0 .365-.15.436-.335.07-.184.367-.335.662-.335.295 0 .593-.15.663-.335.075-.197.406-.335.804-.335.397 0 .729-.138.803-.335.087-.228.44-.335 1.105-.335s1.018-.107 1.104-.335c.103-.27.609-.335 2.618-.335 1.944 0 2.55.074 2.765.335.168.204.651.335 1.242.335.712 0 .967.088.967.335 0 .223.221.335.663.335.442 0 .663.111.663.335 0 .223.22.335.662.335.442 0 .663.111.663.335 0 .184.15.335.332.335.182 0 .33.109.33.242 0 .262 1.347 2.026 2.152 2.818.275.27.5.604.5.741 0 .147.18.19.442.107.253-.081.442-.04.442.097 0 .131-.075.213-.166.182-.405-.136-.067 1.224.373 1.5.129.08.235.43.235.776 0 .346.149.754.33.907.479.4.473 6.828-.006 7.468-.179.24-.325.705-.325 1.038 0 .331-.149.66-.33.731-.183.07-.332.384-.332.694 0 .354-.125.566-.332.566a.334.334 0 0 0-.331.334c0 .185-.093.336-.206.336-.113 0-.277.226-.363.502-.17.545-1.68 2.177-2.015 2.177-.113 0-.491.302-.84.67-.35.369-.766.67-.925.67-.16 0-.29.151-.29.336 0 .223-.221.335-.663.335-.442 0-.663.111-.663.335 0 .226-.224.335-.689.335-.547 0-.667.08-.586.39.116.45-4.877.473-5.152.023-.076-.125-.749-.283-1.494-.351s-1.467-.261-1.604-.428c-.138-.168-.49-.305-.782-.305-.292 0-.59-.15-.66-.334-.07-.185-.364-.335-.655-.335-.29 0-.529-.104-.529-.231 0-.126-.152-.29-.339-.362-.883-.342-3.858-3.348-3.858-3.897 0-.11-.15-.2-.332-.2-.207 0-.331-.212-.331-.566 0-.31-.143-.62-.318-.688-.175-.068-.385-.442-.468-.83-.082-.39-.227-.809-.323-.931-.262-.336-.404-1.26-.304-1.983.048-.353.087-1.735.087-3.07Zm8.146-17.155c.237.01.185.085-.151.221-.308.125-.449.312-.353.467.101.166.063.2-.107.094-.352-.22.103-.802.611-.782ZM64.57 10.575c.24.214.283.624.181 1.722-.103 1.128-.054 1.563.23 2.001.2.308.363.946.363 1.418s.145 1.053.324 1.292c.178.239.327.748.331 1.132.004.384.157.824.339.977.182.152.331.5.331.774 0 .273.199.678.442.9.243.223.442.683.442 1.024 0 .394.2.778.552 1.059.337.267.552.666.552 1.02 0 .37.122.583.332.583.22 0 .331.223.331.67 0 .446.11.67.332.67.207 0 .331.211.331.565 0 .31.15.623.331.694.183.07.332.268.332.44 0 .17.149.31.331.31.207 0 .332.212.332.566 0 .31.149.623.33.694.183.07.332.268.332.44 0 .17.15.31.332.31.219 0 .331.222.331.654 0 .36.15.806.332.99.182.184.33.445.33.58 0 .137.15.305.332.376.183.07.332.268.332.44 0 .17.104.31.232.31s.337.302.464.67c.127.369.32.67.43.67.11 0 .2.151.2.335 0 .307.269.438.734.356.1-.017.114.079.031.215-.083.135.06.442.315.683.256.242.466.539.466.661s.298.517.662.877c.365.36.663.759.663.886s.15.23.332.23c.182 0 .331.155.331.343 0 .188.15.4.331.47.183.071.332.278.332.46 0 .412 4.325 4.758 4.735 4.758.164 0 .356.15.426.335.07.184.28.335.465.335.186 0 .339.15.339.335 0 .204.206.335.528.335.291 0 .586.15.656.335.07.184.28.335.465.335.187 0 .339.15.339.335 0 .184.117.335.26.335.141 0 .676.442 1.188.981.512.54 1.161 1.056 1.443 1.147.282.09.649.302.815.47.166.168.483.305.705.305.221 0 .46.15.53.335.069.184.335.335.591.335.256 0 .614.15.796.335.182.184.63.335.994.335.365 0 .812.15.994.335.197.199.736.335 1.326.335.589 0 1.13.136 1.325.335.276.28 1.22.335 5.685.335 3.987 0 5.423.072 5.628.28.182.183.986.278 2.353.278 1.367 0 2.171-.095 2.353-.279.189-.191 1.089-.279 2.867-.279 1.924 0 2.671-.08 2.9-.312.21-.212 1.004-.337 2.483-.39 1.484-.054 2.203-.168 2.266-.359.061-.183.563-.279 1.467-.279.867 0 1.534-.121 1.805-.328.243-.186.918-.33 1.561-.335.73-.004 1.231-.126 1.408-.342.168-.204.652-.335 1.242-.335.625 0 1.105-.138 1.357-.39.252-.254.767-.401 1.462-.42.589-.017 1.135-.128 1.212-.247.077-.12.527-.29 1-.378.473-.089 1.002-.304 1.175-.48.174-.175.646-.318 1.05-.318.448 0 .783-.13.861-.335.072-.192.402-.335.769-.335.354 0 .767-.15.918-.335.152-.184.565-.335.918-.335.367 0 .697-.144.769-.335.071-.187.4-.335.74-.335.336 0 .736-.15.887-.335.151-.184.45-.335.663-.335.213 0 .511-.15.663-.335.151-.184.449-.335.662-.335.214 0 .512-.15.663-.335.151-.184.415-.335.587-.335.17 0 .368-.15.438-.335.07-.184.312-.335.539-.335.226 0 .632-.302.901-.67.285-.39.693-.67.974-.67.266 0 .607-.15.759-.335.151-.184.407-.335.568-.335.161 0 .373-.126.47-.28.198-.313.815-.73 1.558-1.055.273-.12.497-.32.497-.446s.149-.23.331-.23c.182 0 .331-.15.331-.334 0-.184.15-.335.332-.335.182 0 .331-.098.331-.218s.274-.363.608-.542c.773-.414 2.043-1.6 2.043-1.907 0-.13.149-.236.332-.236.182 0 .331-.127.331-.282 0-.156.224-.382.497-.503s.595-.447.715-.723c.12-.276.344-.503.497-.503.154 0 .279-.15.279-.334 0-.185.149-.335.332-.335.182 0 .331-.151.331-.335 0-.185.149-.335.332-.335.182 0 .331-.136.331-.3 0-.166.199-.483.442-.705.243-.223.442-.54.442-.705 0-.165.097-.3.216-.3s.278-.248.354-.55c.074-.302.275-.666.445-.809.171-.143.31-.452.31-.686 0-.234.149-.484.331-.555.186-.072.332-.403.332-.75 0-.348.146-.68.331-.751.183-.07.332-.371.332-.666 0-.296.149-.664.331-.817.182-.153.331-.517.331-.809 0-.292.075-.531.166-.533.351-.003 1.16-1.51 1.16-2.162 0-.376.149-.81.331-.963.205-.171.335-.672.339-1.311.004-.568.153-1.228.331-1.467.221-.296.325-.99.325-2.185 0-1.36.075-1.78.335-1.88.279-.109.332-.64.313-3.157-.019-2.545.033-3.057.327-3.224.491-.277.531-9.65.043-9.935-.49-.286-.552-2.208-.08-2.507.498-.314.541-2.406.063-3.045-.222-.296-.327-1.007-.332-2.248-.005-1.335-.095-1.89-.338-2.094-.211-.176-.331-.67-.331-1.35 0-.658-.129-1.205-.332-1.41-.187-.188-.331-.734-.331-1.25 0-.61-.112-.96-.332-1.045-.208-.081-.334-.43-.338-.943-.004-.447-.153-1.008-.332-1.247-.178-.239-.324-.659-.324-.933 0-.275-.149-.65-.331-.835-.182-.184-.332-.483-.332-.665 0-.524-1.153-2.632-1.591-2.909-.218-.137-.397-.48-.397-.762 0-.281-.149-.57-.331-.64-.183-.07-.332-.266-.332-.433 0-.326-.872-2.142-1.118-2.328-.081-.061-.211-.317-.288-.569-.078-.252-.539-.888-1.025-1.415-.486-.527-.944-1.2-1.017-1.497-.074-.296-.273-.539-.442-.539-.169 0-.307-.15-.307-.335a.334.334 0 0 0-.332-.335.334.334 0 0 1-.331-.335.334.334 0 0 0-.331-.335.334.334 0 0 1-.332-.335c0-.184-.137-.335-.305-.335-.169 0-.369-.176-.446-.39-.333-.932-2.272-3.174-2.755-3.186-.077-.003-.452-.279-.834-.614-1.035-.91-1.951-1.513-3.094-2.04-.262-.12-.541-.326-.621-.456-.08-.13-.377-.237-.661-.237-.283 0-.573-.15-.643-.335-.074-.196-.405-.335-.796-.335-.449 0-.67-.111-.67-.335 0-.214-.219-.338-.608-.345-.396-.006-.795-.239-1.149-.67-.321-.39-.755-.66-1.065-.66-.288 0-.672-.15-.855-.335-.182-.184-.629-.335-.994-.335-.364 0-.812-.15-.994-.335-.197-.199-.736-.335-1.326-.335-.589 0-1.129-.136-1.325-.335-.221-.223-.773-.335-1.657-.335s-1.436-.112-1.657-.335c-.238-.24-.818-.335-2.06-.335-1.332 0-1.756-.077-1.855-.335-.107-.284-.881-.335-5.081-.335s-4.973-.05-5.081-.335c-.108-.285-.918-.335-5.409-.335-4.426 0-5.327.054-5.557.335-.205.249-.752.335-2.133.335-1.447 0-1.886.074-1.985.335-.093.245-.475.335-1.429.335-1.01 0-1.302.075-1.302.335s-.294.335-1.326.335c-1.031 0-1.325.074-1.325.335 0 .252-.267.335-1.081.335-.757 0-1.119.1-1.208.335-.081.211-.419.335-.915.335-.495 0-.834.124-.914.335-.07.187-.399.335-.742.335-.344 0-.672.148-.743.335-.073.192-.402.335-.77.335-.353 0-.766.15-.918.335-.151.184-.454.335-.674.335-.22 0-.53.134-.693.298-.161.163-.566.366-.9.45-.332.085-.605.253-.605.373s-.191.219-.425.219c-.235 0-.558.13-.718.287-.161.158-.69.533-1.176.832-1.142.703-1.71 1.382-1.361 1.63.146.105.048.125-.229.046-.375-.106-.714.092-1.504.879-.56.559-1.063 1.016-1.117 1.016-.054 0-.296.201-.54.447-.242.245-.59.446-.772.446-.183 0-.332.127-.332.282 0 .156-.224.382-.497.503a1.62 1.62 0 0 0-.715.723c-.12.276-.344.502-.497.502-.154 0-.28.151-.28.335 0 .185-.148.335-.33.335a.334.334 0 0 0-.332.335c0 .185-.15.335-.331.335a.334.334 0 0 0-.332.335c0 .185-.094.335-.209.335-.206 0-.75.86-1.026 1.62-.078.214-.28.39-.448.39a.31.31 0 0 0-.305.311c0 .172-.15.37-.331.44-.183.07-.332.322-.332.559 0 .236-.149.487-.331.558a.55.55 0 0 0-.332.47c0 .188-.149.342-.331.342-.182 0-.331.104-.331.23 0 .128-.287.516-.638.862-.351.347-.703.837-.782 1.089-.079.252-.29.514-.467.583a.544.544 0 0 0-.323.467c0 .189-.089.343-.199.343-.11 0-.303.301-.43.67-.127.368-.336.67-.464.67a.237.237 0 0 0-.232.24c0 .13-.15.389-.331.573-.183.184-.332.529-.332.766s-.149.43-.331.43c-.221 0-.332.224-.332.67 0 .447-.11.67-.331.67-.182 0-.331.108-.331.24 0 .131-.15.39-.332.574-.182.184-.331.518-.331.742 0 .224-.15.465-.332.536-.182.07-.331.371-.331.67 0 .297-.15.599-.331.67-.183.07-.332.326-.332.568 0 .242-.298.77-.662 1.173-.365.404-.663.952-.663 1.218 0 .267-.15.543-.332.614-.205.08-.331.42-.331.893 0 .474-.126.814-.331.894-.205.079-.332.418-.332.889 0 .419-.149.887-.331 1.04-.2.167-.332.656-.332 1.231 0 .642-.108.996-.331 1.083-.254.098-.331.518-.331 1.783 0 1.198-.091 1.731-.332 1.933-.28.234-.331 1.203-.331 6.155 0 3.678-.083 5.93-.221 6.016-.323.202-.254 1.072.11 1.397ZM70.314-2.18c.243-.094.332-.481.332-1.452 0-.97.088-1.357.331-1.451.21-.081.332-.424.332-.927 0-.549.176-.987.564-1.403.31-.332.62-.879.689-1.214.069-.335.263-.724.43-.864.168-.141.305-.535.305-.875 0-.344.147-.676.331-.747.183-.07.332-.371.332-.666 0-.296.149-.664.331-.817a1.05 1.05 0 0 0 .331-.704c0-.234.15-.484.332-.555.182-.07.331-.358.331-.64 0-.28.15-.567.332-.638.182-.07.331-.383.331-.694 0-.354.124-.565.331-.565.208 0 .332-.212.332-.566 0-.31.149-.623.331-.693.182-.071.332-.258.332-.416 0-.158.149-.345.33-.416.183-.07.332-.383.332-.694 0-.342.126-.565.317-.565.174 0 .38-.201.457-.447.077-.246.233-.447.346-.447.113 0 .206-.15.206-.335 0-.184.149-.335.331-.335.182 0 .332-.15.332-.335 0-.184.096-.335.215-.335.118 0 .361-.276.54-.614.177-.338.553-.885.834-1.218.897-1.062 1.283-1.604 1.283-1.802 0-.107.149-.345.331-.53.182-.184.331-.528.331-.765s.15-.43.332-.43c.182 0 .331-.151.331-.336 0-.184.15-.335.332-.335.182 0 .33-.14.33-.31 0-.172.162-.374.358-.45.241-.094.322-.318.251-.694-.081-.431-.013-.556.306-.556.226 0 .412-.15.412-.335 0-.184.149-.335.33-.335.183 0 .332-.14.332-.31 0-.172.23-.37.511-.441.281-.071 1.066-.664 1.744-1.317.678-.654 1.492-1.308 1.809-1.454.317-.145.576-.368.576-.493s.149-.228.331-.228c.182 0 .331-.103.331-.229s.224-.332.498-.458c1.073-.496 1.712-.91 1.712-1.112 0-.116.238-.211.528-.211.291 0 .586-.15.656-.335.07-.184.368-.335.663-.335.294 0 .593-.15.663-.335.073-.192.403-.335.773-.335s.7-.143.773-.335c.073-.191.403-.335.77-.335.353 0 .766-.15.918-.335.151-.184.549-.335.883-.335.335 0 .733-.15.884-.335.151-.184.611-.335 1.021-.335.516 0 .746-.103.746-.335 0-.247.255-.335.968-.335.59 0 1.074-.13 1.242-.335.173-.21.659-.335 1.31-.335.57 0 1.228-.147 1.465-.328.281-.215.97-.33 2.003-.335 1.123-.005 1.653-.103 1.849-.342.219-.266.857-.335 3.078-.335 2.122 0 2.907-.08 3.232-.328.643-.492 6.393-.486 6.881.007.286.29.904.341 3.634.303 1.809-.026 3.359.024 3.444.11.084.085-.018.089-.226.007-.263-.101-.38-.035-.38.212 0 .298.28.359 1.63.359 1.179 0 1.706.093 1.904.335.192.234.701.335 1.684.335.87 0 1.409.093 1.409.243 0 .475 1.001 1.082 1.796 1.09.441.004.925.158 1.076.342.152.184.615.335 1.029.335.465 0 .801.128.88.335.07.186.399.335.739.335.337 0 .736.15.887.335.152.184.45.335.663.335.213 0 .511.15.663.335.151.184.451.335.666.335.215 0 .448.15.518.335.07.184.379.335.686.335.351 0 .56.126.56.335 0 .184.187.335.415.335.228 0 .538.15.69.335.151.184.362.335.468.335.107 0 .401.209.653.464.253.255.601.41.773.342.189-.074.315.017.315.227 0 .191.621.98 1.381 1.75 1.75 1.78 2.595 2.748 2.595 2.976 0 .1.294.427.654.728.359.301.658.674.663.827.005.154.147.28.317.28.169 0 .37.252.446.561.191.77.805 1.448 1.31 1.448.329 0 .366.066.172.303-.235.285 1.113 3.391 1.753 4.041.115.117.208.497.208.845 0 .355.145.688.332.76.19.074.331.408.331.782 0 .375.142.708.332.782.213.083.331.428.331.974 0 .545.118.891.331.974.228.088.332.448.332 1.148s.104 1.059.331 1.147c.238.093.332.468.332 1.333 0 .922.077 1.205.331 1.205.265 0 .331.335.331 1.675s.067 1.675.332 1.675c.275 0 .331.438.331 2.606 0 1.94.08 2.697.314 2.96.544.609.56 10.29.017 10.29-.275 0-.331.435-.331 2.576 0 2.083-.063 2.6-.331 2.703-.183.071-.335.344-.339.608-.004.263-.153.673-.331.912-.179.239-.324.854-.324 1.368 0 .559-.134 1.047-.332 1.213-.2.168-.331.657-.331 1.232 0 .642-.108.996-.332 1.083-.216.083-.331.431-.331 1.005 0 .572-.115.92-.331 1.005-.219.084-.332.434-.332 1.028 0 .651-.091.9-.331.9-.221 0-.332.224-.332.67 0 .447-.11.67-.331.67-.182 0-.331.139-.331.308 0 .17-.159.441-.353.604-.251.21-.318.517-.23 1.063.107.664.085.714-.161.373-.327-.451-1.269.856-1.326 1.84-.019.318-.171.502-.416.502-.212 0-.386.151-.386.335a.33.33 0 0 1-.322.335c-.176 0-.98.654-1.785 1.452-.806.799-1.506 1.452-1.557 1.452-.188 0-.976.901-.976 1.116 0 .123-.149.224-.331.224a.334.334 0 0 0-.331.335c0 .188-.198.335-.449.335-.247 0-.506.15-.576.335-.07.184-.315.335-.546.335-.229 0-.418.15-.418.335a.334.334 0 0 1-.331.335.335.335 0 0 0-.332.335c0 .223-.22.335-.662.335-.442 0-.663.111-.663.335 0 .21-.209.335-.56.335-.307 0-.616.15-.686.335-.07.184-.368.335-.662.335-.295 0-.594.15-.663.335-.07.184-.368.335-.663.335-.295 0-.593.15-.663.335-.07.184-.368.335-.662.335-.295 0-.594.15-.663.335-.07.184-.353.335-.629.335s-.625.15-.777.335c-.151.184-.515.335-.807.335-.292 0-.59.15-.659.335-.072.188-.401.335-.751.335-.343 0-.772.15-.955.335-.182.184-.629.335-.994.335-.364 0-.812.15-.994.335-.182.184-.597.335-.921.335-.323 0-.853.145-1.175.321-.323.177-.959.383-1.415.457-.456.074-.829.231-.829.349 0 .117-.378.213-.841.213-.463 0-1.034.147-1.271.328-.235.18-.811.33-1.279.335-.467.004-1.163.148-1.546.321-.383.173-1.274.368-1.982.432-.707.065-1.403.211-1.546.325-.143.115-1.002.274-1.909.356-.905.082-1.701.231-1.767.333-.066.101-1.309.242-2.762.313-2.023.098-2.701.21-2.893.474-.396.547-14.523.569-15.118.023-.226-.206-.841-.431-1.367-.5-.526-.07-1.152-.262-1.392-.427-.24-.167-.646-.303-.903-.303-.285 0-.566-.219-.72-.559-.138-.307-.43-.558-.649-.558-.218 0-.567-.2-.775-.447-.209-.245-.579-.446-.823-.446-.247 0-.444-.149-.444-.335 0-.184-.106-.335-.237-.335-.13 0-.385-.15-.568-.335-.182-.184-.523-.335-.757-.335-.234 0-.426-.15-.426-.335a.334.334 0 0 0-.332-.335.334.334 0 0 1-.33-.335.334.334 0 0 0-.332-.335c-.183 0-.332-.096-.332-.214s-.447-.479-.994-.803c-.547-.324-.994-.68-.994-.791 0-.111-.15-.202-.331-.202a.334.334 0 0 1-.332-.335.334.334 0 0 0-.331-.335.334.334 0 0 1-.331-.335.334.334 0 0 0-.332-.335c-.182 0-.331-.1-.331-.224 0-.122-.174-.412-.387-.644a83.948 83.948 0 0 1-1.38-1.585 75.92 75.92 0 0 0-1.602-1.82c-.334-.36-.608-.7-.608-.756 0-.055-.348-.462-.773-.904-.425-.443-.773-.937-.773-1.098 0-.16-.15-.35-.332-.42-.182-.07-.331-.23-.331-.356 0-.346-.724-1.127-1.043-1.127-.167 0-.283-.276-.283-.677 0-.395-.137-.73-.331-.805-.182-.07-.332-.322-.332-.558 0-.237-.149-.488-.33-.559-.183-.07-.332-.322-.332-.558 0-.237-.15-.488-.332-.558-.182-.071-.331-.319-.331-.552 0-.232-.15-.422-.331-.422-.208 0-.332-.212-.332-.566 0-.31-.149-.623-.331-.694-.182-.07-.332-.268-.332-.44 0-.17-.149-.31-.331-.31-.22 0-.331-.224-.331-.67 0-.447-.11-.67-.332-.67-.22 0-.331-.224-.331-.67 0-.447-.11-.67-.331-.67-.24 0-.332-.25-.332-.901 0-.594-.113-.944-.331-1.028-.217-.085-.332-.433-.332-1.006s-.115-.92-.331-1.005c-.225-.087-.331-.444-.331-1.116 0-.672-.106-1.03-.332-1.117-.246-.095-.331-.49-.331-1.53 0-.971-.101-1.484-.332-1.677-.28-.235-.331-1.228-.331-6.369 0-5.207.048-6.109.331-6.219Zm7.128 15.49c.046.308.233.676.415.819.225.176.332.662.332 1.507 0 .933.08 1.248.316 1.248.238 0 .315.328.315 1.34 0 1.043.073 1.34.331 1.34.246 0 .332.261.332 1.005 0 .744.086 1.005.331 1.005.222 0 .332.224.332.677 0 .396.137.73.33.806.183.07.332.372.332.67 0 .298.14.595.312.662.171.067.371.365.446.663.074.298.232.542.351.542.12 0 .217.201.217.447 0 .248.147.447.331.447.182 0 .332.14.332.31 0 .172.149.37.331.44.182.07.331.376.331.678 0 .302.15.7.332.885.182.184.331.445.331.58 0 .137.15.305.332.376.182.07.33.268.33.44 0 .17.15.31.332.31.183 0 .332.151.332.335 0 .185.149.335.331.335.182 0 .332.151.332.336 0 .184.149.334.33.334.183 0 .332.151.332.335 0 .185.15.336.332.336.182 0 .331.15.331.334 0 .185.139.336.308.336.17 0 .365.15.435.335.07.184.28.334.465.334.186 0 .338.151.338.335 0 .291.568.463 1.177.356.1-.017.127.059.06.169-.155.253 1.193 1.4 1.453 1.238.107-.066.166-.025.133.092-.072.252 1.076 1.384 1.402 1.384.124 0 .375.15.557.335.182.184.523.335.758.335.234 0 .425.15.425.335 0 .21.21.335.56.335.307 0 .616.15.686.335.07.184.273.335.45.335.179 0 .473.15.656.335.182.184.567.335.857.335.289 0 .617.166.73.37.125.225.346.314.57.227.222-.086.509.03.738.3.332.393.657.443 2.866.443h2.492v-1.093c0-.765.099-1.131.331-1.221.182-.07.332-.386.332-.701 0-.315-.15-.63-.332-.7-.182-.072-.331-.32-.331-.553 0-.32-.16-.422-.663-.422-.442 0-.663-.112-.663-.335 0-.248-.258-.335-.994-.335s-.994-.087-.994-.335c0-.224-.221-.335-.663-.335-.442 0-.663-.112-.663-.335 0-.224-.221-.335-.662-.335-.442 0-.663-.112-.663-.335 0-.184-.174-.34-.387-.345-.212-.005-.63-.306-.928-.67-.299-.363-.665-.66-.815-.66-.15 0-.6-.302-.998-.67-.4-.369-.846-.67-.993-.67-.146 0-.398-.126-.558-.28-.568-.542-2.356-1.954-2.476-1.954-.066 0-.407-.276-.758-.614a11.44 11.44 0 0 0-1.113-.942c-.26-.181-.474-.41-.474-.51 0-.1-.287-.466-.638-.812-.35-.347-.705-.846-.788-1.11-.082-.263-.243-.478-.356-.478-.113 0-.206-.154-.206-.342a.55.55 0 0 0-.332-.47c-.182-.071-.331-.269-.331-.44 0-.171-.15-.311-.331-.311-.208 0-.332-.212-.332-.566 0-.31-.149-.623-.331-.694-.182-.07-.331-.313-.331-.538 0-.225-.091-.466-.202-.536-.293-.182-1.124-1.983-1.124-2.434 0-.21-.15-.441-.331-.511-.203-.08-.332-.418-.332-.87 0-.41-.149-.894-.331-1.078-.206-.208-.332-.757-.332-1.452 0-.694-.125-1.243-.331-1.451-.267-.27-.331-1.029-.331-3.897 0-2.756-.07-3.62-.305-3.818-.168-.14-.364-.556-.437-.924-.244-1.233-2.874-1.593-3.991-.546l-.6.562-.053 4.184c-.029 2.3-.015 4.435.031 4.742Zm58.929 75.71c.265 0 .331.336.331 1.676 0 1.34.066 1.675.331 1.675.246 0 .332.261.332 1.012 0 .694.104 1.052.331 1.14.189.074.332.407.332.775 0 .426.113.646.331.646.218 0 .331.22.331.646 0 .369.143.701.332.775.182.07.331.383.331.694 0 .353.124.565.332.565.182 0 .331.189.331.42 0 .23.139.535.31.678.17.143.371.507.445.809.076.302.235.55.354.55s.216.154.216.342c0 .188.141.396.312.462.171.067.366.342.433.611.067.27.846 1.261 1.732 2.204a284.78 284.78 0 0 1 2.436 2.62c.453.499.925.907 1.049.907.123 0 .224.199.224.442 0 .548 2.226 2.908 2.741 2.908.208 0 .319.098.246.217-.073.12.12.281.429.36.309.078.561.282.561.452a.31.31 0 0 0 .308.311c.169 0 .365.151.435.335.069.185.379.335.686.335.35 0 .559.126.559.335 0 .21.21.335.56.335.307 0 .616.151.686.335.071.187.399.335.743.335.343 0 .671.148.742.335.087.228.44.335 1.105.335.683 0 1.017.106 1.11.349.073.192.221.294.33.226.108-.068.249.077.312.321.156.602 15.572.707 16.063.109.209-.254.775-.335 2.347-.335 1.694 0 2.071-.06 2.071-.335 0-.265.316-.335 1.52-.335 1.081 0 1.599-.096 1.794-.335.182-.222.677-.335 1.47-.335.859 0 1.231-.094 1.322-.335.087-.227.439-.335 1.098-.335.715 0 .971-.088.971-.335 0-.247.257-.335.994-.335.736 0 .994-.087.994-.335 0-.232.231-.335.757-.335.417 0 .907-.15 1.089-.335.182-.184.575-.335.872-.335.298 0 .665-.15.817-.335.151-.184.504-.335.784-.335s.642-.134.804-.297c.161-.163.566-.366.899-.451.333-.084.606-.252.606-.373 0-.12.152-.219.338-.219.186 0 .396-.15.465-.335.07-.184.369-.335.663-.335.295 0 .593-.15.663-.335.07-.184.265-.335.435-.335.169 0 .308-.15.308-.335 0-.184.15-.335.333-.335.184 0 .504-.201.712-.446.208-.246.455-.447.549-.447.275 0 2.382-1.891 2.382-2.139 0-.083.472-.626 1.05-1.209 1.27-1.282 1.822-2.006 1.822-2.392 0-.16.149-.29.332-.29.204 0 .331-.21.331-.547 0-.301.124-.628.276-.726.444-.287 1.05-1.538 1.05-2.167 0-.367.122-.58.331-.58.221 0 .331-.223.331-.672 0-.392.276-1.057.663-1.596.536-.749.663-1.15.663-2.096 0-.835.095-1.209.331-1.3.265-.102.332-.585.332-2.385 0-1.708.08-2.338.331-2.591.267-.27.331-1.03.331-3.908 0-2.88-.064-3.639-.331-3.909-.254-.256-.331-.904-.331-2.776 0-2.02-.057-2.44-.332-2.44-.258 0-.331-.299-.331-1.347 0-.992-.087-1.381-.332-1.476-.23-.089-.331-.453-.331-1.194 0-.674-.121-1.167-.331-1.343-.183-.153-.332-.549-.332-.879 0-.33-.146-.794-.324-1.033-.178-.238-.327-.663-.331-.943-.004-.28-.157-.567-.339-.638-.182-.07-.331-.364-.331-.652 0-.287-.125-.603-.276-.702-.152-.098-.475-.578-.718-1.066-.243-.489-.599-1.049-.791-1.246-.191-.196-.573-.827-.848-1.401-.275-.574-.59-1.043-.701-1.043-.11 0-.201-.097-.201-.215 0-.348-2.532-2.839-3.286-3.233-.38-.198-.691-.459-.691-.578 0-.12-.106-.218-.237-.218-.129 0-.385-.15-.567-.335-.183-.184-.513-.335-.734-.335-.222 0-.46-.15-.53-.335-.07-.184-.379-.335-.686-.335-.367 0-.56-.124-.56-.36 0-.274-.16-.337-.662-.262-.47.07-.663.006-.663-.218 0-.452-.904-1.154-1.498-1.163-.277-.004-.562-.158-.631-.342-.143-.376-1.627-.478-1.627-.112a.223.223 0 0 1-.221.224c-.121 0-.209-.075-.195-.168.131-.833-.032-.949-1.327-.949-.969 0-1.336-.088-1.433-.344-.104-.275-.489-.336-1.931-.305-1.464.032-1.839-.03-2.003-.326-.164-.296-.58-.365-2.192-.365-1.529 0-1.955.065-1.835.28.125.223.097.223-.141 0-.48-.45-11.446-.398-11.618.055-.098.259-.524.335-1.871.335-1.403 0-1.744.066-1.744.335 0 .26-.294.335-1.325.335s-1.326.074-1.326.335c0 .247-.254.335-.967.335-.59 0-1.074.13-1.242.335-.151.184-.614.335-1.028.335-.466 0-.802.128-.88.335-.073.191-.402.335-.767.335-.421 0-.639.115-.639.335 0 .224-.221.335-.663.335-.441 0-.662.112-.662.335 0 .224-.221.335-.663.335-.442 0-.663.112-.663.335 0 .184-.142.335-.315.335-.174 0-.448.134-.61.298-.162.163-.55.362-.862.44-.312.08-.838.398-1.169.708-.331.31-.696.564-.811.564-.115 0-.21.15-.21.335a.334.334 0 0 1-.331.335.334.334 0 0 0-.331.335.334.334 0 0 1-.332.335.334.334 0 0 0-.331.335.334.334 0 0 1-.331.335c-.183 0-.332.104-.332.23 0 .128-.298.527-.663.887-.364.36-.662.759-.662.886s-.097.23-.216.23c-.118 0-.361.277-.539.615-.178.337-.585.915-.904 1.284a60.677 60.677 0 0 0-1.173 1.41 36.78 36.78 0 0 1-.979 1.172c-.213.238-.387.49-.387.56 0 .07-.149.279-.331.463-.183.184-.332.529-.332.766s-.149.43-.331.43c-.184 0-.332.2-.332.447 0 .246-.097.447-.216.447s-.277.244-.351.542c-.075.298-.275.596-.447.663-.171.067-.311.375-.311.686 0 .354-.124.566-.331.566-.219 0-.332.22-.332.645 0 .369-.142.702-.331.775-.194.075-.332.41-.332.806 0 .453-.11.677-.331.677-.244 0-.331.258-.331.98 0 .667-.107 1.023-.332 1.11-.182.071-.331.34-.331.599 0 .258-.149.62-.332.804-.182.184-.331.687-.331 1.117 0 .43-.149.932-.331 1.117-.275.278-.332 1.189-.332 5.344 0 4.304.047 5.009.332 5.009Zm5.983-9.766c.25-.25.33-.667.277-1.435-.063-.91-.013-1.081.312-1.081.311 0 .387-.197.387-1.005 0-.745.086-1.005.331-1.005.221 0 .332-.224.332-.67 0-.447.11-.67.331-.67.182 0 .331-.19.331-.423 0-.233.149-.48.332-.552.182-.07.331-.333.331-.582 0-.254.146-.454.332-.454.22 0 .331-.223.331-.67 0-.446.11-.67.331-.67.183 0 .332-.097.332-.217s.447-.67.994-1.222c.547-.553.994-1.062.994-1.132 0-.12.869-1.434 1.105-1.672.061-.061.398-.539.749-1.06.35-.523.722-.95.827-.95.105 0 .191-.142.191-.316 0-.174.075-.35.166-.391.251-.113 1.16-1.476 1.16-1.74 0-.128.149-.233.331-.233.182 0 .331-.15.331-.335 0-.184.153-.335.339-.335.185 0 .395-.15.465-.335.07-.184.319-.335.552-.335.234 0 .483-.15.553-.335.07-.184.368-.335.662-.335.295 0 .593-.15.663-.335.07-.184.254-.335.408-.335.154 0 .405-.15.556-.335.151-.184.462-.335.69-.335.228 0 .414-.15.414-.335 0-.223.221-.335.663-.335.442 0 .663-.111.663-.335 0-.233.231-.335.757-.335.417 0 .907-.15 1.089-.335.183-.184.59-.335.907-.335.316 0 .632-.15.702-.335.091-.239.46-.335 1.292-.335.765 0 1.258-.115 1.439-.335.192-.234.702-.335 1.691-.335 1.054 0 1.448-.085 1.543-.335.109-.287 1.074-.335 6.815-.335 5.675 0 6.728.051 6.962.335.193.235.703.335 1.701.335 1.29 0 1.489.064 2.089.67.557.563.836.67 1.75.67.82 0 1.088.083 1.088.335 0 .22.218.335.635.335.35 0 .76.15.911.335.152.184.512.335.801.335.288 0 .525.09.525.202 0 .11.298.306.663.435.364.128.662.34.662.468 0 .13.249.235.553.235.343 0 .552.127.552.335 0 .184.139.335.308.335.169 0 .365.15.435.335a.543.543 0 0 0 .465.335c.186 0 .338.117.338.26 0 .144.061.2.135.125.131-.133 2.958 2.72 2.958 2.985 0 .075.174.342.387.595.7.833 1.333 1.847 1.799 2.88.12.266.323.547.452.628.129.08.234.345.234.587 0 .243.149.499.332.57.204.079.331.418.331.886 0 .525.102.758.332.758.239 0 .331.248.331.9 0 .594.113.944.331 1.029.243.094.332.48.332 1.445 0 1.02.074 1.316.331 1.316.27 0 .331.37.331 1.985 0 1.56.072 2.014.332 2.115.273.106.331.692.331 3.347 0 2.588-.064 3.272-.331 3.496-.182.153-.332.454-.332.67 0 .215-.149.517-.331.67-.239.2-.331.73-.331 1.898s-.093 1.698-.332 1.898c-.217.183-.331.681-.331 1.452 0 .771-.114 1.27-.331 1.452-.183.153-.332.556-.332.896 0 .344-.147.677-.331.748-.183.07-.332.372-.332.67 0 .298-.149.6-.331.67-.182.07-.331.267-.331.436 0 .17-.174.513-.387.763-.213.251-.685.839-1.049 1.307-1.358 1.742-2.998 3.159-4.143 3.577-.212.078-.386.233-.386.345 0 .111-.224.306-.497.432-1.074.495-1.713.91-1.713 1.111 0 .116-.238.211-.528.211-.291 0-.586.151-.656.335-.07.185-.268.335-.438.335-.171 0-.436.151-.587.335-.151.185-.505.335-.787.335-.282 0-.568.092-.637.204-.169.277-1.949 1.136-2.352 1.136-.178 0-.524.143-.77.317-.246.174-.816.386-1.267.472-.451.085-.874.244-.94.353-.067.109-.31.198-.54.198-.229 0-.512.171-.628.381-.179.324-.264.335-.571.078-.422-.355-1.449.06-1.449.584 0 .364-.921.395-1.269.042-.257-.26-1.652.239-1.928.69-.066.11-.409.054-.761-.124-.661-.333-2.339-.225-2.577.166-.066.106-1.498.193-3.183.193-2.429 0-3.133.07-3.396.335-.258.261-.924.335-3.014.335s-2.756-.074-3.014-.335c-.203-.205-.744-.335-1.397-.335-.742 0-1.103-.101-1.192-.335-.074-.193-.403-.335-.781-.335-.36 0-.814-.161-1.009-.359-.218-.22-.597-.323-.978-.266-.513.075-.604.021-.519-.311.067-.258-.016-.404-.229-.404-.183 0-.391-.15-.461-.335-.069-.184-.379-.335-.686-.335-.35 0-.559-.125-.559-.335a.334.334 0 0 0-.332-.335.334.334 0 0 1-.331-.335.334.334 0 0 0-.331-.335c-.183 0-.332-.095-.332-.212 0-.117-.504-.745-1.12-1.396-1.527-1.613-1.752-1.871-1.752-2.014 0-.068-.596-.749-1.325-1.514s-1.326-1.508-1.326-1.651c0-.143-.298-.59-.663-.993-.364-.404-.662-.828-.662-.944 0-.115-.149-.209-.332-.209-.22 0-.331-.222-.331-.659 0-.362-.124-.739-.276-.837-.341-.22-.759-.876-1.075-1.686-.131-.338-.329-.615-.438-.615-.11 0-.199-.193-.199-.43s-.15-.582-.332-.766c-.182-.184-.331-.596-.331-.916 0-.32-.149-.64-.332-.71-.222-.086-.331-.439-.331-1.067 0-.516-.146-1.133-.324-1.372-.498-.666-.488-9.136.011-9.642Zm5.505 10.213c.202.17.331.66.331 1.256 0 .72.087.978.332.978.239 0 .331.249.331.9 0 .594.113.944.331 1.029.183.07.332.372.332.67 0 .298.149.6.331.67.182.07.331.319.331.551 0 .233.15.423.332.423.186 0 .331.2.331.456 0 .856 2.756 4.234 3.454 4.234.14 0 .312.151.382.335.07.184.279.335.465.335s.339.151.339.335c0 .184.138.335.307.335.17 0 .365.151.435.335.07.184.379.335.686.335.351 0 .56.126.56.335 0 .184.113.335.252.335.138 0 .368.16.509.356.141.196.516.372.832.391.315.019.534.099.487.177-.141.231.531.691.782.534.127-.079.231.012.231.204 0 .191.149.348.331.348.183 0 .307.093.276.207-.066.248 1.913 1.354 2.442 1.364.207.004.568.154.804.335 2.094 1.6 5.956-1.142 4.861-3.452-.236-.498-.529-.911-.65-.917-.122-.007-.465-.31-.763-.673-.298-.364-.698-.661-.887-.661-.19 0-.716-.201-1.169-.446-.454-.246-.963-.447-1.13-.447-.168 0-.429-.151-.58-.335a1.032 1.032 0 0 0-.697-.335c-.232 0-.471-.13-.531-.287-.06-.159-.553-.485-1.095-.726-.543-.242-.988-.564-.989-.718-.001-.153-.141-.279-.31-.279s-.365-.15-.435-.335a.546.546 0 0 0-.465-.335c-.186 0-.339-.099-.339-.219s-.248-.282-.552-.36c-.304-.076-.552-.28-.552-.45 0-.171-.149-.31-.332-.31-.182 0-.331-.141-.331-.312s-.149-.369-.331-.44c-.183-.07-.332-.335-.332-.589 0-.253-.149-.519-.331-.589-.182-.07-.332-.306-.332-.524 0-.217-.149-.52-.331-.674-.182-.153-.331-.416-.331-.585 0-.17-.098-.308-.217-.308s-.285-.275-.369-.612c-.083-.337-.284-.746-.446-.91-.161-.163-.294-.568-.294-.901 0-.332-.135-.802-.299-1.045-.19-.28-.348-1.451-.433-3.211-.073-1.525-.237-2.876-.363-3.004a.977.977 0 0 1-.238-.58c-.026-1.209-4.13-2.125-4.552-1.015-.07.184-.265.335-.435.335-.473 0-.451 8.088.024 8.486Zm59.87-54.413c.221.223.332.78.332 1.667 0 .978.087 1.367.331 1.46.218.085.331.434.331 1.014 0 .486.133 1.017.295 1.181.161.164.362.573.445.91.084.336.25.612.369.612s.217.2.217.446c0 .248.147.447.331.447.183 0 .332.154.332.344 0 .467.899 1.666 1.249 1.666.161 0 .228.145.156.335-.074.195-.001.339.173.344.165.005.544.307.841.67.299.364.661.66.805.66.145 0 .323.158.395.35.073.192.234.287.356.21.122-.076.222.068.222.32 0 .254.137.46.304.46.168 0 .429.152.58.336.151.184.412.335.579.335.168 0 .513.21.768.468.3.304.649.433.989.367.375-.072.564.018.656.313.084.266.344.418.723.422.326.004.786.155 1.021.335.281.215.969.33 1.989.335 1.02.005 1.708.121 1.988.335.589.45 3.069.445 3.517-.007.238-.241.819-.335 2.072-.335 1.189 0 1.877-.104 2.17-.328.236-.18.701-.33 1.034-.335.357-.004.717-.187.877-.446.19-.307.421-.4.773-.31.36.09.551.009.67-.288.092-.228.39-.438.661-.467.517-.055 1.384-.792 1.384-1.176 0-.123.252-.223.56-.223.307 0 .616-.15.686-.335.07-.184.265-.335.435-.335.169 0 .308-.15.308-.335 0-.184.129-.335.288-.335.357 0 1.7-1.375 1.7-1.742 0-.148.149-.268.331-.268.183 0 .332-.139.332-.308 0-.169.149-.433.331-.586.182-.152.332-.456.332-.673 0-.218.149-.453.331-.524.194-.075.331-.41.331-.805 0-.38.195-.874.442-1.124.27-.273.442-.744.442-1.21 0-.42.124-.805.276-.856.49-.165.388-11.063-.107-11.43-.21-.156-.323-.344-.25-.418.256-.259-.153-1.72-.481-1.72-.213 0-.322-.235-.322-.696 0-.557-.078-.675-.393-.591-.331.087-.38-.016-.308-.644.067-.575.004-.748-.269-.748-.195 0-.355-.139-.355-.308 0-.17-.149-.433-.332-.586a1.042 1.042 0 0 1-.331-.697c0-.23-.149-.42-.331-.42-.183 0-.332-.117-.332-.262 0-.426-3.733-3.98-4.181-3.98-.226 0-.468-.152-.538-.336-.07-.184-.382-.335-.693-.335-.312 0-.624-.15-.694-.335-.077-.203-.411-.335-.85-.335-.397 0-.851-.157-1.008-.349-.218-.264-.655-.336-1.821-.298-1.236.04-1.574-.022-1.74-.32-.289-.522-4.841-.554-5.265-.038-.196.239-.714.335-1.794.335-1.204 0-1.52.07-1.52.335 0 .247-.255.335-.97.335-.659 0-1.012.108-1.098.335-.07.184-.325.335-.567.335-.622 0-1.992.728-1.999 1.061-.003.154-.197.28-.431.28-.235 0-.576.15-.758.334-.182.185-.388.335-.458.335-.201 0-2.556 2.456-2.556 2.666 0 .105-.149.248-.331.319-.182.07-.332.383-.332.693 0 .311-.121.566-.27.566-.385 0-1.718 1.57-1.718 2.023 0 .208-.149.504-.331.657-.183.152-.332.62-.332 1.04 0 .47-.126.81-.331.889-.246.095-.331.49-.331 1.532s-.086 1.437-.332 1.533c-.271.105-.331.656-.331 3.023 0 2.275.07 2.965.331 3.229Zm5.302-5.216c.209 0 .332-.213.332-.572 0-.314.089-.516.197-.448.242.151.465-.39.465-1.127 0-.301.15-.606.332-.676.185-.072.331-.404.331-.75 0-.348.147-.68.332-.752.182-.07.331-.332.331-.582 0-.254.146-.453.331-.453.184 0 .332-.2.332-.447 0-.248.147-.447.331-.447.182 0 .332-.105.332-.234 0-.246.75-1.004 1.818-1.837.35-.274.845-.673 1.099-.888.256-.215.601-.39.769-.39.167 0 .361-.152.431-.336.073-.192.403-.335.773-.335.371 0 .701-.143.774-.335.09-.237.455-.335 1.246-.335.746 0 1.258-.127 1.537-.382.56-.513 2.915-.471 3.497.06.284.26.697.346 1.398.29.803-.066 1.014-.005 1.096.31.076.293.329.392 1.006.392.575 0 .904.102.904.28.001.153.299.48.663.725.364.246.661.572.662.726 0 .154.15.28.332.28.182 0 .331.15.331.334 0 .184.149.335.332.335.182 0 .331.151.331.335 0 .184.149.335.331.335.183 0 .332.104.332.23 0 .128.298.527.663.887.364.36.662.748.662.862 0 .114.149.265.332.335.182.07.331.336.331.59 0 .253.149.518.332.589.186.072.331.404.331.758 0 .347.149.781.331.966.214.215.332.767.332 1.551 0 .81.111 1.31.331 1.495.394.331.456 2.155.077 2.282-.14.047-.303.68-.362 1.406-.06.727-.244 1.458-.409 1.625-.165.166-.3.586-.3.933 0 .354-.145.686-.331.759-.183.07-.332.335-.332.589 0 .253-.149.518-.331.589-.183.07-.332.213-.332.316 0 .258-2.847 3.115-3.105 3.115-.115 0-.209.14-.209.31 0 .172-.248.374-.552.451-.304.078-.552.24-.552.36s-.199.219-.442.219c-.245 0-.442.149-.442.335 0 .221-.219.335-.647.335-.356 0-.796.15-.978.335-.183.184-.717.335-1.189.335-.472 0-1.05.147-1.286.328-.523.4-3.331.473-3.458.09-.045-.138-.625-.304-1.288-.368-.802-.077-1.298-.247-1.48-.509-.151-.216-.726-.614-1.278-.884s-1.127-.606-1.278-.746c-.403-.375-1.663-1.261-1.793-1.261-.205 0-1.673-1.575-1.673-1.794 0-.119-.149-.216-.332-.216a.334.334 0 0 1-.331-.335c0-.184-.182-.335-.404-.335-.322 0-.384-.134-.306-.67.08-.548.02-.67-.331-.67-.351 0-.411-.122-.331-.67.073-.508.011-.67-.26-.67-.372 0-.424-.233-.361-1.62.027-.583-.068-.879-.31-.973-.503-.195-.519-4.33-.017-4.33Z" fill="#03567A"/></svg>