<svg width="227" height="166" fill="none" xmlns="http://www.w3.org/2000/svg"><path fill-rule="evenodd" clip-rule="evenodd" d="M-39.9 89.054c.062.434.233.726.424.726.207 0 .32.237.32.67 0 .447.112.67.334.67.223 0 .335.223.335.67 0 .447.111.67.334.67.184 0 .334.193.334.43 0 .459 1.566 1.941 2.395 2.266.276.108.501.3.501.425 0 .126.401.229.891.229.644 0 .891.093.891.335 0 .286.635.335 4.37.335 4.105 0 4.365-.025 4.265-.403-.087-.337.006-.387.562-.306.46.068.73-.015.87-.267.112-.2.402-.364.645-.364s.5-.15.57-.335c.07-.184.27-.335.445-.335s.375-.15.446-.335c.07-.184.267-.335.439-.335.17 0 .31-.15.31-.335 0-.184.15-.335.334-.335.184 0 .334-.14.334-.311 0-.172.15-.37.334-.44.47-.181.428-1.2-.056-1.337-.214-.06-.089-.093.279-.072.636.037.672-.01.737-.923.042-.58.197-1.01.39-1.085.484-.186.47-6.285-.013-6.471-.218-.085-.334-.432-.334-1.005 0-.574-.116-.921-.334-1.005-.184-.071-.335-.312-.335-.536 0-.223-.15-.557-.334-.742-.184-.184-.334-.404-.334-.488 0-.219-1.69-1.887-1.923-1.898-.107-.005-.44-.306-.74-.67-.3-.363-.664-.66-.808-.66-.144 0-.386-.151-.539-.335-.153-.185-.54-.339-.863-.343-.322-.004-.78-.154-1.017-.335-.632-.479-5.965-.473-6.363.007-.16.193-.645.336-1.141.336-.62 0-.864.095-.864.335 0 .223-.223.335-.668.335-.446 0-.669.111-.669.335 0 .184-.15.334-.334.334a.336.336 0 0 0-.334.335c0 .185-.1.335-.223.335-.289 0-1.114.827-1.114 1.117 0 .123-.15.224-.334.224-.185 0-.334.198-.334.446s-.149.447-.334.447a.336.336 0 0 0-.334.335c0 .184-.099.335-.219.335s-.284.276-.364.614c-.08.338-.298.79-.484 1.005-.344.397-.594 5.974-.346 7.705Zm5.636-4.188c.117 0 .277-.348.357-.773.08-.426.285-.89.456-1.033.17-.142.31-.355.31-.473 0-.278 1.5-1.74 1.787-1.74.12 0 .218-.107.218-.237s.1-.174.223-.099c.123.077.223.032.223-.098 0-.403 3.712-.308 3.868.099.07.184.382.335.692.335.353 0 .564.125.564.335 0 .184.1.334.223.334.289 0 1.114.827 1.114 1.117 0 .123.15.224.334.224.223 0 .334.223.334.67 0 .446.111.67.334.67.192 0 .334.201.334.474 0 .382.061.423.315.212.242-.201.353-.195.481.029.092.159.085.215-.015.124-.365-.33-.78.354-.78 1.285 0 .643-.11.997-.335 1.083-.21.08-.334.422-.334.917 0 .552-.1.789-.334.789a.335.335 0 0 0-.334.335c0 .206-.21.335-.546.335-.3 0-.626.126-.724.279-.256.4-1.58 1.06-2.128 1.06-.257 0-.645.163-.864.362-.366.332-.426.332-.757 0-.198-.199-.657-.361-1.02-.361-.738 0-2.694-1.728-2.97-2.624-.086-.277-.249-.503-.363-.503-.114 0-.208-.232-.208-.516 0-.283-.147-.71-.327-.949-.366-.485-.457-1.662-.128-1.662ZM8.63 108.683c.233.09.334.455.334 1.206 0 .659.13 1.206.334 1.412.184.184.334.581.334.881 0 .301.15.672.334.825.184.153.335.51.335.793 0 .284.13.649.29.81.16.163.358.472.44.687.08.215.25.39.376.39.127 0 .23.136.23.301 0 .166.176.512.39.771.215.258.59.721.836 1.028.245.308.57.564.724.57.153.006.278.161.278.345 0 .185.14.335.31.335.171 0 .368.151.44.335.07.185.269.335.44.335.174 0 .44.151.592.335.153.185.447.335.654.335.207 0 .665.302 1.017.67.352.369.772.67.933.67.161 0 .293.151.293.335 0 .224.222.335.668.335.445 0 .668.112.668.335 0 .247.258.335.979.335.656 0 1.02.109 1.104.329.187.489 10.616.485 10.616-.004 0-.236.275-.325 1.01-.325.691 0 1.05-.105 1.137-.335.072-.188.404-.335.757-.335.346 0 .779-.15.963-.335.183-.184.491-.335.684-.335.192 0 .35-.15.35-.335 0-.209.211-.335.564-.335.31 0 .622-.15.692-.335.07-.184.268-.335.439-.335.17 0 .31-.15.31-.335 0-.184.187-.335.415-.335.5 0 2.927-2.279 2.927-2.748 0-.182.15-.388.334-.459a.56.56 0 0 0 .334-.486c0-.198.157-.516.35-.708.232-.234.328-.672.289-1.317-.032-.532.01-1.037.096-1.123.086-.086.156.07.156.346 0 .67.534.483.633-.222.042-.297.23-.713.417-.923.21-.236.278-.536.177-.782-.11-.269-.199-.308-.269-.12-.057.154-.208.279-.335.279-.141 0-.124-.13.043-.333.152-.182.364-.277.473-.21.109.068.198-.075.198-.318s.125-.483.278-.534c.198-.066.3-.9.352-2.867.04-1.525.165-2.868.278-2.985.34-.351.235-3.304-.136-3.794-.18-.239-.327-.855-.327-1.369 0-.559-.134-1.047-.334-1.213-.184-.153-.334-.455-.334-.67 0-.216-.15-.517-.334-.67-.184-.153-.334-.464-.334-.69 0-.228-.301-.636-.669-.909-.367-.272-.668-.627-.668-.788 0-.161-.15-.293-.334-.293-.21 0-.334-.212-.334-.566 0-.31-.15-.623-.335-.693-.183-.071-.334-.259-.334-.417 0-.411-1.773-2.344-2.15-2.344-.173 0-.372-.15-.442-.335-.071-.184-.268-.335-.44-.335-.17 0-.31-.15-.31-.335a.344.344 0 0 0-.35-.335c-.192 0-.5-.15-.684-.335-.184-.184-.517-.335-.74-.335-.223 0-.463-.15-.534-.335-.08-.208-.418-.335-.891-.335-.472 0-.812-.127-.891-.335-.094-.246-.48-.335-1.448-.335s-1.354-.09-1.448-.335c-.101-.263-.555-.335-2.117-.335-1.561 0-2.015-.072-2.116-.335-.094-.246-.48-.335-1.444-.335-.899 0-1.405.106-1.594.335-.176.213-.668.335-1.346.335-1.211 0-1.828.176-1.647.47.067.11-.237.2-.677.2-.506 0-.847.123-.928.335-.07.184-.306.335-.523.335-.217 0-.52.15-.672.335-.152.184-.415.335-.584.335-.169 0-.307.15-.307.335 0 .223-.223.335-.668.335-.446 0-.668.112-.668.335 0 .184-.14.335-.31.335-.172 0-.369.15-.44.335-.07.184-.266.335-.436.335-.42 0-2.379 1.934-2.379 2.348 0 .183-.15.332-.334.332-.184 0-.334.14-.334.31 0 .172-.15.37-.335.44-.183.071-.334.39-.334.708 0 .38.088.523.258.419.155-.097.196-.062.104.089-.084.136-.3.191-.478.123-.192-.074-.39.044-.483.288-.087.228-.345.615-.574.861-.719.772-1.5 2.57-1.5 3.453 0 .48-.145.968-.334 1.126-.274.228-.334.994-.334 4.277 0 3.349.054 4.021.334 4.128Zm5.68-5.083c0-2.01.058-2.429.335-2.429.242 0 .334-.249.334-.901 0-.594.114-.943.334-1.028.19-.074.334-.407.334-.775 0-.426.115-.646.335-.646.183 0 .334-.177.334-.392 0-.42 2.289-2.958 2.668-2.958.125 0 .228-.15.228-.335 0-.184.14-.335.31-.335.171 0 .368-.15.439-.335.07-.184.37-.335.668-.335.297 0 .598-.15.669-.335.075-.197.409-.335.81-.335.401 0 .735-.138.81-.335.088-.228.444-.335 1.114-.335.67 0 1.027-.107 1.114-.335.104-.27.613-.335 2.64-.335 1.96 0 2.571.074 2.788.335.169.204.657.335 1.252.335.719 0 .976.088.976.335 0 .223.222.335.668.335.445 0 .668.112.668.335 0 .223.223.335.668.335.446 0 .669.112.669.335 0 .184.15.335.334.335.184 0 .334.109.334.242 0 .262 1.358 2.026 2.17 2.818.277.27.504.604.504.741 0 .147.181.19.445.107.256-.081.446-.04.446.097 0 .131-.076.213-.167.182-.41-.136-.068 1.224.375 1.5.13.08.237.43.237.776 0 .346.15.754.334.907.482.401.476 6.828-.007 7.468-.18.239-.327.705-.327 1.037 0 .332-.15.662-.334.732-.184.071-.334.383-.334.694 0 .354-.125.565-.334.565a.336.336 0 0 0-.334.335c0 .185-.094.335-.208.335-.114 0-.28.227-.366.503-.171.545-1.695 2.177-2.032 2.177-.114 0-.495.302-.848.67-.351.369-.771.67-.932.67-.161 0-.293.151-.293.335 0 .224-.223.335-.668.335-.446 0-.668.112-.668.335 0 .227-.226.335-.695.335-.551 0-.673.081-.591.391.117.45-4.918.473-5.195.023-.078-.125-.755-.283-1.507-.351-.751-.068-1.479-.261-1.618-.428-.138-.168-.493-.305-.788-.305-.295 0-.595-.15-.665-.335-.07-.184-.368-.335-.661-.335-.293 0-.533-.103-.533-.23 0-.126-.154-.289-.342-.362-.891-.342-3.891-3.348-3.891-3.897 0-.111-.15-.201-.334-.201-.21 0-.335-.211-.335-.565 0-.311-.144-.62-.32-.689-.176-.067-.389-.441-.472-.83-.083-.389-.23-.808-.326-.931-.264-.335-.407-1.259-.307-1.982.049-.353.089-1.735.089-3.07Zm8.215-17.155c.24.01.187.085-.153.221-.31.125-.452.311-.355.467.102.166.063.2-.108.094-.355-.22.104-.802.616-.782Zm22.418-26.869c.242.213.285.624.183 1.722-.105 1.129-.055 1.563.231 2.001.202.308.366.946.366 1.418s.147 1.053.327 1.292c.18.239.33.748.334 1.132.004.384.157.824.341.977.184.152.334.5.334.774 0 .273.2.678.446.9.245.223.446.683.446 1.024 0 .394.202.778.556 1.059.34.267.557.666.557 1.02 0 .37.123.583.335.583.222 0 .334.223.334.67 0 .446.111.67.334.67.209 0 .334.211.334.565 0 .31.15.623.334.694.184.07.335.268.335.44 0 .17.15.31.334.31.209 0 .334.212.334.566 0 .31.15.623.334.694.184.07.334.268.334.44 0 .17.15.31.334.31.221 0 .334.222.334.654 0 .36.15.806.335.99.184.184.334.445.334.58 0 .137.15.305.334.376.184.07.334.268.334.44 0 .17.105.31.235.31.128 0 .339.302.467.67.128.369.324.67.434.67.11 0 .2.151.2.336 0 .306.273.437.742.355.1-.017.115.079.031.215-.083.135.06.442.318.683.258.242.47.539.47.661s.3.517.668.877c.367.36.668.759.668.886s.15.23.334.23a.34.34 0 0 1 .334.343c0 .188.15.4.334.47.184.071.335.278.335.46 0 .412 4.362 4.758 4.775 4.758.165 0 .359.15.43.335.07.184.281.335.468.335a.34.34 0 0 1 .342.335c0 .204.207.335.533.335.293 0 .59.15.661.335.07.184.282.335.47.335a.34.34 0 0 1 .34.335c0 .184.118.335.262.335.143 0 .683.441 1.2.981.515.54 1.17 1.056 1.455 1.147.283.09.653.302.821.47.168.168.487.305.71.305.224 0 .464.15.535.335.07.184.338.335.596.335.258 0 .619.151.803.335.184.184.635.335 1.002.335.368 0 .819.151 1.003.335.198.199.742.335 1.337.335.594 0 1.139.136 1.336.335.279.279 1.231.335 5.732.335 4.021 0 5.47.072 5.676.279.184.184.994.279 2.373.279 1.378 0 2.19-.095 2.372-.279.192-.191 1.099-.279 2.892-.279 1.94 0 2.693-.08 2.924-.312.212-.212 1.012-.337 2.504-.391 1.497-.053 2.222-.167 2.285-.358.061-.183.568-.279 1.48-.279.874 0 1.546-.121 1.819-.328.246-.186.926-.331 1.575-.335.736-.004 1.241-.126 1.419-.342.17-.204.658-.335 1.253-.335.63 0 1.114-.138 1.368-.39.254-.254.774-.401 1.474-.42.595-.017 1.145-.128 1.223-.247.077-.12.531-.29 1.008-.378.477-.088 1.011-.304 1.185-.48.175-.175.651-.318 1.059-.318.452 0 .789-.13.868-.335.073-.192.405-.335.776-.335.356 0 .773-.15.925-.335.153-.184.57-.335.926-.335.37 0 .703-.144.776-.335.071-.187.403-.335.746-.335.339 0 .741-.15.894-.335.153-.184.453-.335.668-.335.215 0 .516-.15.669-.335.152-.184.453-.335.668-.335.215 0 .516-.15.668-.335.153-.184.419-.335.592-.335.172 0 .371-.15.442-.335.07-.184.315-.335.543-.335.229 0 .637-.302.909-.67.288-.39.699-.67.982-.67.268 0 .613-.15.765-.335.153-.184.411-.335.573-.335.163 0 .376-.126.474-.28.2-.313.822-.73 1.571-1.055.276-.12.501-.32.501-.446s.151-.23.334-.23c.184 0 .335-.15.335-.334 0-.184.15-.335.334-.335.184 0 .334-.098.334-.218s.276-.363.613-.542c.78-.414 2.06-1.6 2.06-1.907 0-.13.151-.236.334-.236.184 0 .335-.127.335-.282 0-.156.225-.382.501-.503s.6-.447.721-.723c.121-.276.347-.502.501-.502.155 0 .282-.151.282-.335 0-.185.15-.336.334-.336.184 0 .334-.15.334-.335 0-.184.15-.335.334-.335.184 0 .334-.135.334-.3 0-.165.201-.482.446-.704.245-.223.445-.54.445-.705 0-.165.099-.3.219-.3s.28-.248.356-.55c.075-.302.278-.666.45-.809.172-.143.312-.452.312-.686 0-.234.15-.484.334-.555.187-.072.334-.403.334-.75 0-.348.148-.68.335-.751.183-.07.334-.371.334-.666 0-.296.15-.664.334-.817.184-.153.334-.517.334-.809 0-.292.075-.531.167-.532.354-.004 1.17-1.511 1.17-2.163 0-.376.15-.81.334-.962.207-.172.337-.673.341-1.312.004-.568.155-1.228.335-1.467.222-.296.327-.99.327-2.184 0-1.361.075-1.78.338-1.882.281-.108.335-.64.315-3.156-.019-2.545.033-3.057.33-3.224.495-.277.536-9.65.044-9.935-.495-.286-.557-2.208-.081-2.507.502-.314.545-2.406.063-3.045-.224-.296-.329-1.007-.334-2.248-.005-1.335-.096-1.89-.341-2.094-.213-.176-.334-.67-.334-1.35 0-.657-.13-1.205-.335-1.41-.188-.188-.334-.734-.334-1.25 0-.61-.112-.96-.334-1.045-.211-.081-.337-.43-.341-.943-.004-.447-.155-1.008-.335-1.247-.179-.239-.327-.659-.327-.933 0-.275-.15-.65-.334-.835-.183-.184-.334-.483-.334-.665 0-.524-1.163-2.632-1.604-2.909-.221-.137-.401-.48-.401-.762 0-.281-.15-.57-.334-.64-.184-.07-.334-.266-.334-.433 0-.326-.88-2.142-1.127-2.328-.083-.061-.214-.317-.292-.569-.078-.252-.543-.888-1.033-1.415-.49-.527-.952-1.2-1.026-1.497-.074-.296-.274-.539-.445-.539-.171 0-.31-.15-.31-.335a.335.335 0 0 0-.334-.335.335.335 0 0 1-.334-.335.336.336 0 0 0-.335-.335.336.336 0 0 1-.334-.335c0-.184-.138-.335-.308-.335-.17 0-.372-.176-.449-.39-.336-.932-2.291-3.174-2.779-3.186-.077-.003-.455-.279-.841-.615-1.044-.908-1.966-1.512-3.12-2.039-.264-.12-.545-.326-.626-.456-.08-.13-.38-.237-.666-.237-.286 0-.578-.15-.648-.335-.075-.196-.409-.335-.803-.335-.453 0-.676-.111-.676-.335 0-.214-.221-.338-.613-.345-.399-.006-.802-.238-1.159-.67-.324-.39-.761-.66-1.074-.66-.29 0-.678-.15-.862-.335-.183-.184-.635-.335-1.002-.335-.368 0-.819-.15-1.003-.335-.198-.199-.742-.335-1.336-.335-.595 0-1.139-.136-1.337-.335-.223-.223-.78-.335-1.671-.335s-1.448-.112-1.671-.335c-.24-.24-.825-.335-2.077-.335-1.343 0-1.771-.077-1.87-.335-.109-.284-.889-.335-5.124-.335-4.235 0-5.015-.05-5.124-.335C103.68.05 102.863 0 98.335 0c-4.463 0-5.372.054-5.605.335-.206.249-.757.335-2.15.335-1.46 0-1.902.074-2.002.335-.094.245-.48.335-1.441.335-1.018 0-1.313.075-1.313.335s-.297.335-1.336.335c-1.04 0-1.337.074-1.337.335 0 .252-.27.335-1.09.335-.764 0-1.129.1-1.219.335-.08.211-.421.335-.921.335s-.841.124-.922.335c-.072.187-.403.335-.75.335-.346 0-.676.148-.748.335-.073.191-.406.335-.776.335-.357 0-.773.15-.926.335-.153.184-.458.335-.68.335-.221 0-.535.134-.698.298-.164.163-.572.366-.908.45-.335.084-.61.253-.61.373s-.193.219-.43.219c-.236 0-.562.13-.724.288-.161.158-.695.532-1.185.83-1.152.704-1.723 1.383-1.372 1.632.147.104.048.124-.231.045-.378-.106-.72.092-1.517.879-.565.559-1.072 1.016-1.126 1.016-.054 0-.299.201-.544.447-.245.245-.596.446-.78.446-.183 0-.334.127-.334.282 0 .155-.225.382-.501.503-.276.12-.6.446-.721.723-.121.276-.347.502-.502.502-.154 0-.28.151-.28.335 0 .185-.151.335-.335.335a.336.336 0 0 0-.334.335c0 .185-.15.335-.334.335a.336.336 0 0 0-.335.335c0 .185-.094.335-.21.335-.208 0-.758.86-1.035 1.62-.079.214-.282.39-.452.39a.31.31 0 0 0-.308.311c0 .172-.15.37-.334.44-.184.07-.334.322-.334.559 0 .236-.15.487-.334.558a.55.55 0 0 0-.334.47.34.34 0 0 1-.334.342c-.184 0-.335.104-.335.23 0 .128-.29.516-.643.862-.354.347-.708.837-.788 1.089-.08.252-.292.514-.47.583a.544.544 0 0 0-.326.467c0 .189-.09.343-.202.343-.11 0-.305.301-.433.67-.128.368-.339.67-.468.67a.238.238 0 0 0-.234.24c0 .13-.15.389-.334.573-.184.184-.334.529-.334.766s-.15.43-.335.43c-.222 0-.334.224-.334.67 0 .447-.111.67-.334.67-.184 0-.334.108-.334.24 0 .131-.15.39-.334.574-.184.184-.334.518-.334.742 0 .224-.15.465-.335.536-.183.07-.334.371-.334.67 0 .297-.15.599-.334.67-.184.07-.334.326-.334.568 0 .242-.3.77-.669 1.173-.367.404-.668.952-.668 1.218 0 .267-.15.543-.334.614-.207.08-.334.42-.334.893 0 .474-.127.814-.334.894-.207.079-.335.418-.335.889 0 .419-.15.887-.334 1.04-.201.167-.334.656-.334 1.231 0 .642-.11.996-.334 1.083-.256.098-.334.518-.334 1.783 0 1.198-.092 1.731-.334 1.933-.282.234-.335 1.203-.335 6.155 0 3.678-.083 5.93-.222 6.016-.326.202-.257 1.072.111 1.397Zm5.792-12.756c.245-.094.335-.481.335-1.452 0-.97.089-1.357.334-1.451.21-.081.334-.424.334-.927 0-.549.178-.987.569-1.403.312-.332.625-.878.695-1.213.07-.335.265-.725.433-.865.17-.141.308-.535.308-.875 0-.344.148-.676.334-.747.184-.07.334-.371.334-.666 0-.296.15-.664.334-.817.184-.153.334-.47.334-.704 0-.234.15-.484.335-.555.184-.07.334-.358.334-.64 0-.28.15-.567.334-.638.184-.07.334-.383.334-.694 0-.354.125-.565.334-.565.21 0 .335-.212.335-.566 0-.31.15-.623.334-.693.183-.071.334-.258.334-.416 0-.158.15-.345.334-.416.184-.07.334-.383.334-.694 0-.342.127-.565.32-.565.175 0 .382-.201.46-.447.078-.246.235-.447.35-.447.113 0 .207-.15.207-.335 0-.184.15-.335.334-.335.184 0 .334-.15.334-.335 0-.184.098-.335.218-.335.119 0 .364-.276.543-.614.18-.338.559-.885.842-1.218.905-1.062 1.293-1.604 1.293-1.802 0-.107.15-.345.335-.53.183-.184.334-.528.334-.765s.15-.43.334-.43c.184 0 .334-.151.334-.336 0-.184.15-.335.334-.335.184 0 .334-.14.334-.31 0-.172.162-.374.36-.45.244-.094.325-.318.254-.694-.082-.431-.013-.556.308-.556.228 0 .415-.15.415-.335 0-.184.15-.335.334-.335.184 0 .335-.14.335-.31 0-.172.231-.37.515-.441.283-.071 1.075-.664 1.758-1.317.684-.654 1.505-1.308 1.824-1.454.32-.145.58-.368.58-.493s.151-.228.335-.228c.184 0 .334-.103.334-.229s.226-.332.501-.458c1.083-.496 1.727-.91 1.727-1.112 0-.116.24-.211.533-.211.293 0 .59-.15.662-.335.07-.184.37-.335.668-.335.297 0 .598-.15.668-.335.074-.192.406-.335.78-.335.373 0 .706-.143.78-.335.073-.191.405-.335.776-.335.356 0 .773-.15.925-.335.153-.184.554-.335.891-.335.338 0 .739-.15.892-.335.152-.184.615-.335 1.03-.335.52 0 .752-.103.752-.335 0-.247.257-.335.975-.335.595 0 1.083-.13 1.253-.335.174-.21.665-.335 1.321-.335.575 0 1.238-.147 1.477-.328.283-.215.978-.33 2.02-.335 1.133-.005 1.667-.103 1.865-.342.22-.266.863-.335 3.104-.335 2.14 0 2.931-.08 3.259-.328.648-.492 6.446-.486 6.938.007.289.29.912.341 3.665.303 1.824-.026 3.387.024 3.472.11.086.085-.017.089-.227.007-.265-.101-.384-.035-.384.212 0 .298.283.359 1.644.359 1.189 0 1.72.093 1.921.335.193.234.707.335 1.698.335.877 0 1.421.093 1.421.243 0 .475 1.009 1.082 1.811 1.09.444.004.932.158 1.085.342.153.184.619.335 1.037.335.47 0 .808.128.887.335.072.186.403.335.746.335.339 0 .742.15.895.335.152.184.453.335.668.335.215 0 .516.15.668.335.153.184.455.335.672.335.217 0 .452.15.523.335.07.184.382.335.692.335.353 0 .564.126.564.335 0 .184.188.335.418.335.23 0 .543.15.696.335.152.184.365.335.473.335.107 0 .403.209.658.464.254.255.605.41.78.342.19-.073.316.017.316.227 0 .191.627.98 1.393 1.75 1.765 1.78 2.618 2.748 2.618 2.976 0 .1.296.427.658.728.363.301.664.674.669.827.005.154.148.28.319.28s.374.252.451.561c.193.77.812 1.448 1.321 1.448.331 0 .369.066.173.303-.236.285 1.123 3.391 1.768 4.041.115.117.21.497.21.845 0 .355.146.688.334.76.192.074.334.408.334.782 0 .375.143.708.335.782.215.083.334.428.334.974 0 .545.118.891.334.974.229.088.334.448.334 1.148s.105 1.059.334 1.147c.24.093.334.468.334 1.333 0 .922.079 1.205.335 1.205.267 0 .334.335.334 1.675s.067 1.675.334 1.675c.278 0 .334.438.334 2.606 0 1.94.081 2.697.317 2.96.548.609.564 10.29.017 10.29-.278 0-.334.435-.334 2.576 0 2.083-.064 2.6-.334 2.703-.184.071-.338.344-.341.608-.004.263-.155.673-.335.911-.18.24-.327.855-.327 1.369 0 .559-.134 1.047-.334 1.213-.201.168-.334.657-.334 1.232 0 .642-.109.996-.334 1.083-.218.083-.334.431-.334 1.005 0 .572-.116.92-.334 1.004-.221.085-.335.435-.335 1.029 0 .651-.092.9-.334.9-.223 0-.334.224-.334.67 0 .447-.111.67-.334.67-.184 0-.334.139-.334.308 0 .17-.161.441-.356.604-.254.21-.32.517-.232 1.063.108.664.086.714-.162.373-.33-.451-1.28.856-1.337 1.84-.019.318-.173.502-.42.502-.214 0-.389.151-.389.335a.33.33 0 0 1-.325.335c-.178 0-.988.654-1.8 1.452-.812.799-1.519 1.452-1.57 1.452-.19 0-.984.901-.984 1.117 0 .122-.15.223-.334.223a.335.335 0 0 0-.334.335c0 .188-.199.335-.453.335-.248 0-.51.15-.58.335-.071.184-.318.335-.551.335-.231 0-.421.15-.421.335a.336.336 0 0 1-.334.335.336.336 0 0 0-.335.335c0 .223-.222.335-.668.335-.445 0-.668.111-.668.335 0 .21-.211.335-.564.335-.31 0-.622.15-.692.335-.071.184-.372.335-.668.335-.298 0-.599.15-.669.335-.071.184-.371.335-.668.335-.298 0-.598.15-.668.335-.071.184-.372.335-.669.335-.297 0-.598.15-.668.335-.071.184-.356.335-.635.335-.277 0-.63.15-.783.335-.152.184-.519.335-.814.335-.295 0-.594.15-.664.335-.073.188-.404.335-.757.335-.346 0-.779.15-.963.335-.184.184-.635.335-1.003.335-.367 0-.818.15-1.002.335-.184.184-.602.335-.929.335-.326 0-.86.144-1.185.321-.325.177-.967.383-1.427.457-.459.074-.835.231-.835.349 0 .117-.382.213-.849.213-.466 0-1.043.147-1.281.328-.238.18-.818.33-1.29.335-.471.003-1.173.148-1.559.321-.386.173-1.285.368-1.999.432-.713.065-1.414.211-1.559.325-.144.115-1.01.274-1.924.356-.914.081-1.716.231-1.783.333-.066.101-1.32.242-2.785.313-2.04.098-2.724.21-2.917.474-.399.547-14.645.569-15.246.023-.228-.206-.847-.431-1.378-.5-.53-.07-1.161-.262-1.403-.428-.242-.166-.652-.302-.911-.302-.287 0-.571-.219-.725-.558-.14-.308-.435-.559-.655-.559-.22 0-.572-.2-.782-.447-.21-.245-.584-.446-.83-.446-.25 0-.448-.149-.448-.335 0-.184-.107-.335-.238-.335s-.39-.15-.573-.335c-.184-.184-.527-.335-.764-.335-.236 0-.43-.15-.43-.335a.336.336 0 0 0-.334-.335.336.336 0 0 1-.334-.335.336.336 0 0 0-.334-.335c-.184 0-.334-.096-.334-.214s-.451-.479-1.003-.803c-.551-.324-1.002-.68-1.002-.791 0-.111-.15-.202-.334-.202a.336.336 0 0 1-.335-.335.336.336 0 0 0-.334-.335.336.336 0 0 1-.334-.335.335.335 0 0 0-.334-.335c-.184 0-.334-.1-.334-.224 0-.122-.176-.412-.39-.644a84.508 84.508 0 0 1-1.392-1.585 76.167 76.167 0 0 0-1.616-1.82c-.337-.36-.612-.7-.612-.756 0-.055-.351-.462-.78-.904-.429-.443-.78-.937-.78-1.098 0-.16-.15-.35-.334-.42-.184-.07-.334-.23-.334-.356 0-.346-.73-1.127-1.052-1.127-.168 0-.285-.276-.285-.677 0-.395-.138-.73-.334-.805-.184-.07-.334-.322-.334-.558 0-.237-.15-.488-.334-.559-.184-.07-.334-.322-.334-.558 0-.237-.15-.488-.335-.558-.183-.071-.334-.319-.334-.552 0-.232-.15-.422-.334-.422-.209 0-.334-.212-.334-.566 0-.31-.15-.623-.334-.694-.184-.07-.334-.268-.334-.44 0-.17-.15-.31-.335-.31-.222 0-.334-.224-.334-.67 0-.447-.111-.67-.334-.67-.223 0-.334-.224-.334-.67 0-.447-.111-.67-.334-.67-.242 0-.334-.25-.334-.901 0-.594-.114-.944-.335-1.028-.218-.085-.334-.433-.334-1.005 0-.574-.116-.922-.334-1.005-.227-.088-.334-.445-.334-1.117 0-.672-.107-1.03-.334-1.117-.248-.095-.334-.49-.334-1.53 0-.971-.102-1.484-.335-1.677-.281-.235-.334-1.228-.334-6.369 0-5.207.049-6.109.334-6.219Zm7.188 15.49c.047.308.235.676.419.819.226.176.334.662.334 1.507 0 .933.08 1.248.318 1.248.24 0 .318.328.318 1.34 0 1.043.074 1.34.334 1.34.248 0 .335.261.335 1.005 0 .745.087 1.005.334 1.005.223 0 .334.224.334.678 0 .395.139.73.334.805.184.07.334.372.334.67 0 .298.142.595.315.662.172.067.374.365.45.663.074.298.233.542.354.542.12 0 .218.201.218.447 0 .248.149.447.334.447.184 0 .334.14.334.31 0 .172.15.37.335.44.183.07.334.376.334.678 0 .302.15.7.334.885.184.184.334.445.334.58 0 .137.15.305.334.376.184.07.334.268.334.44 0 .17.15.31.335.31.183 0 .334.151.334.335 0 .185.15.336.334.336.184 0 .334.15.334.334 0 .185.15.336.334.336.184 0 .335.15.335.335 0 .184.15.334.334.334.183 0 .334.151.334.335 0 .185.14.335.31.335.171 0 .368.151.439.335.07.185.282.335.469.335a.34.34 0 0 1 .341.336c0 .29.573.462 1.187.355.1-.017.128.059.06.169-.156.253 1.203 1.4 1.466 1.238.107-.066.167-.025.133.092-.072.252 1.085 1.384 1.414 1.384.126 0 .378.15.562.335.184.184.527.335.764.335.236 0 .43.15.43.335 0 .21.21.335.564.335.31 0 .621.15.691.335.071.184.275.335.455.335s.476.15.66.335c.184.184.573.335.865.335.291 0 .622.166.736.37.126.225.35.314.574.227.225-.086.514.03.745.3.335.393.663.443 2.89.443h2.513v-1.093c0-.765.1-1.131.334-1.221.184-.07.334-.386.334-.701 0-.315-.15-.63-.334-.7-.184-.072-.334-.32-.334-.552 0-.321-.161-.423-.668-.423-.446 0-.669-.112-.669-.335 0-.248-.26-.335-1.002-.335-.743 0-1.003-.087-1.003-.335 0-.224-.223-.335-.668-.335-.446 0-.669-.112-.669-.335 0-.223-.222-.335-.668-.335-.445 0-.668-.112-.668-.335 0-.184-.176-.34-.39-.345-.215-.005-.636-.306-.936-.67-.301-.363-.67-.66-.822-.66-.151 0-.605-.302-1.007-.67-.402-.369-.852-.67-1-.67-.148 0-.402-.126-.564-.28-.572-.542-2.376-1.954-2.496-1.954-.067 0-.411-.276-.765-.614a11.505 11.505 0 0 0-1.121-.942c-.264-.181-.479-.41-.479-.51 0-.1-.29-.465-.643-.812-.354-.347-.711-.846-.795-1.11-.083-.263-.245-.478-.36-.478-.113 0-.207-.154-.207-.342a.55.55 0 0 0-.334-.47c-.184-.071-.334-.269-.334-.44 0-.171-.15-.311-.334-.311-.21 0-.335-.212-.335-.566 0-.31-.15-.623-.334-.694-.183-.07-.334-.313-.334-.538 0-.225-.091-.466-.203-.536-.295-.182-1.134-1.983-1.134-2.434 0-.21-.15-.441-.334-.511-.204-.08-.334-.418-.334-.87 0-.41-.15-.894-.334-1.078-.208-.208-.334-.757-.334-1.452 0-.694-.127-1.243-.334-1.451-.27-.27-.335-1.029-.335-3.897 0-2.756-.07-3.62-.307-3.818-.169-.14-.367-.556-.44-.924-.247-1.233-2.898-1.593-4.025-.546l-.605.562-.053 4.184c-.03 2.3-.015 4.435.03 4.742Zm59.424 75.711c.267 0 .334.335.334 1.675s.067 1.675.334 1.675c.248 0 .334.261.334 1.012 0 .693.105 1.052.334 1.14.191.074.335.407.335.775 0 .426.114.646.334.646.22 0 .334.221.334.646 0 .369.144.701.334.775.184.07.334.383.334.694 0 .353.126.565.334.565.184 0 .335.189.335.419a1 1 0 0 0 .312.679c.172.143.374.507.449.809.076.302.237.55.357.55s.218.154.218.342c0 .188.142.396.314.462.173.067.37.342.437.611.067.27.853 1.261 1.747 2.204a293.63 293.63 0 0 1 2.456 2.62c.457.499.933.907 1.058.907.124 0 .226.199.226.442 0 .548 2.244 2.908 2.764 2.908.21 0 .321.098.248.217-.074.12.121.281.432.36.312.078.566.282.566.452 0 .172.14.311.31.311.171 0 .369.151.439.335.07.185.382.335.692.335.353 0 .564.126.564.335 0 .21.211.335.564.335.31 0 .622.151.692.335.072.187.403.335.749.335.347 0 .677.148.749.335.087.228.444.335 1.114.335.689 0 1.026.106 1.119.349.074.192.223.294.333.226.109-.068.251.077.315.321.157.602 15.703.707 16.198.109.21-.254.781-.335 2.366-.335 1.709 0 2.089-.06 2.089-.335 0-.265.319-.335 1.532-.335 1.09 0 1.613-.096 1.81-.335.184-.222.683-.335 1.483-.335.865 0 1.24-.094 1.332-.335.088-.227.443-.335 1.108-.335.721 0 .978-.088.978-.335 0-.247.26-.335 1.003-.335.742 0 1.002-.087 1.002-.335 0-.232.234-.335.764-.335.42 0 .914-.15 1.098-.335.184-.184.58-.335.88-.335.3 0 .67-.15.823-.335.152-.184.508-.335.791-.335.282 0 .647-.134.81-.297.163-.163.571-.366.907-.451.336-.084.611-.252.611-.373 0-.12.153-.219.341-.219.187 0 .399-.15.469-.335.071-.184.371-.335.668-.335.298 0 .598-.15.669-.335.07-.184.268-.335.439-.335.17 0 .31-.15.31-.335 0-.184.151-.335.336-.335.185 0 .508-.201.718-.446.21-.246.458-.447.553-.447.278 0 2.403-1.891 2.403-2.139 0-.083.476-.626 1.058-1.209 1.282-1.282 1.838-2.006 1.838-2.392 0-.16.15-.29.334-.29.206 0 .334-.21.334-.547 0-.301.126-.628.279-.726.447-.287 1.058-1.538 1.058-2.167 0-.367.123-.58.334-.58.223 0 .334-.223.334-.672 0-.392.279-1.057.669-1.596.54-.749.668-1.15.668-2.096 0-.835.096-1.209.334-1.3.267-.102.334-.585.334-2.385 0-1.708.082-2.338.335-2.591.269-.27.334-1.03.334-3.908 0-2.879-.065-3.639-.334-3.909-.257-.257-.335-.904-.335-2.776 0-2.02-.057-2.44-.334-2.44-.26 0-.334-.299-.334-1.347 0-.992-.088-1.381-.334-1.476-.232-.089-.334-.453-.334-1.194 0-.674-.123-1.167-.335-1.343-.183-.153-.334-.548-.334-.878 0-.33-.147-.795-.327-1.034-.179-.238-.33-.663-.334-.943-.004-.28-.157-.567-.341-.638-.184-.07-.334-.364-.334-.652 0-.287-.126-.603-.279-.702-.153-.098-.479-.578-.724-1.066-.245-.488-.604-1.049-.797-1.246-.193-.196-.578-.827-.855-1.401-.277-.574-.595-1.044-.707-1.044a.21.21 0 0 1-.203-.214c0-.348-2.553-2.838-3.313-3.233-.383-.198-.697-.459-.697-.578 0-.12-.107-.218-.239-.218-.131 0-.389-.151-.572-.335-.184-.184-.517-.335-.741-.335-.223 0-.463-.151-.534-.335-.07-.184-.382-.335-.691-.335-.371 0-.565-.124-.565-.36 0-.274-.161-.337-.668-.262-.474.069-.668.006-.668-.218 0-.452-.912-1.154-1.511-1.163-.279-.003-.566-.158-.636-.342-.145-.376-1.641-.478-1.641-.112 0 .123-.1.224-.222.224-.123 0-.211-.076-.197-.168.132-.833-.032-.949-1.339-.949-.976 0-1.347-.088-1.445-.344-.105-.275-.493-.336-1.947-.305-1.476.032-1.854-.03-2.02-.326-.165-.296-.585-.365-2.21-.365-1.541 0-1.971.065-1.85.28.125.223.097.223-.143 0-.484-.45-11.542-.398-11.715.055-.099.259-.529.335-1.887.335-1.415 0-1.758.066-1.758.335 0 .26-.297.335-1.337.335s-1.337.074-1.337.335c0 .247-.256.335-.975.335-.595 0-1.083.13-1.252.335-.153.184-.62.335-1.037.335-.47 0-.809.128-.888.335-.073.191-.405.335-.773.335-.424 0-.644.115-.644.335 0 .224-.223.335-.668.335-.446 0-.669.112-.669.335 0 .223-.223.335-.668.335-.446 0-.668.112-.668.335a.329.329 0 0 1-.318.335c-.176 0-.452.134-.615.298-.164.163-.555.362-.869.441-.315.079-.846.397-1.179.707-.334.311-.702.564-.818.564-.116 0-.212.151-.212.335 0 .184-.15.335-.334.335a.336.336 0 0 0-.334.335c0 .184-.15.335-.334.335a.335.335 0 0 0-.334.335.336.336 0 0 1-.334.335c-.184 0-.335.104-.335.231s-.3.526-.668.886c-.367.36-.668.759-.668.886s-.098.23-.217.23c-.12 0-.365.277-.544.615-.18.337-.59.915-.912 1.284a59.62 59.62 0 0 0-1.182 1.41 36.93 36.93 0 0 1-.988 1.172c-.215.238-.39.49-.39.561 0 .069-.15.278-.334.462-.184.184-.334.529-.334.766s-.151.43-.335.43c-.185 0-.334.199-.334.447 0 .246-.098.447-.218.447s-.28.244-.354.542c-.075.298-.278.596-.45.663-.173.067-.314.375-.314.686 0 .354-.126.565-.335.565-.22 0-.334.221-.334.646 0 .369-.143.702-.334.775-.195.075-.334.41-.334.806 0 .453-.111.677-.334.677-.246 0-.334.258-.334.981 0 .666-.108 1.022-.335 1.11-.183.07-.334.339-.334.598 0 .258-.15.62-.334.804-.184.185-.334.687-.334 1.117 0 .43-.15.932-.334 1.117-.278.278-.334 1.189-.334 5.344 0 4.304.047 5.009.334 5.009Zm6.034-9.767c.251-.251.332-.667.278-1.435-.063-.91-.013-1.082.315-1.082.314 0 .39-.196.39-1.005 0-.744.087-1.005.334-1.005.223 0 .335-.223.335-.67 0-.446.111-.67.334-.67.184 0 .334-.19.334-.422 0-.233.15-.481.334-.552.184-.07.334-.333.334-.582 0-.254.147-.454.334-.454.223 0 .335-.223.335-.67 0-.446.111-.67.334-.67.184 0 .334-.097.334-.217s.451-.67 1.003-1.222c.551-.553 1.002-1.062 1.002-1.132 0-.12.876-1.434 1.114-1.672.062-.061.401-.539.755-1.061.353-.522.729-.949.834-.949.106 0 .193-.142.193-.316 0-.174.075-.35.167-.391.254-.113 1.17-1.476 1.17-1.741 0-.127.15-.232.334-.232a.335.335 0 0 0 .334-.335.34.34 0 0 1 .342-.335.55.55 0 0 0 .469-.335c.07-.184.321-.335.557-.335.236 0 .486-.151.556-.335.071-.184.372-.335.669-.335.297 0 .598-.151.668-.335.071-.184.256-.335.412-.335.155 0 .407-.151.56-.335.153-.184.466-.335.696-.335.23 0 .418-.151.418-.335 0-.223.223-.335.668-.335.446 0 .669-.112.669-.335 0-.233.233-.335.763-.335.421 0 .915-.151 1.099-.335.183-.184.594-.335.913-.335.32 0 .638-.151.708-.335.092-.239.465-.335 1.303-.335.772 0 1.269-.115 1.451-.335.194-.234.708-.335 1.706-.335 1.063 0 1.46-.085 1.555-.335.111-.287 1.084-.335 6.873-.335 5.722 0 6.785.051 7.021.335.194.235.709.335 1.715.335 1.3 0 1.502.064 2.106.67.562.563.844.67 1.765.67.827 0 1.097.083 1.097.335 0 .22.22.335.641.335.353 0 .766.151.918.335.153.184.516.335.807.335.292 0 .53.091.53.202 0 .11.301.306.668.435.368.128.669.339.669.468 0 .13.25.235.557.235.346 0 .557.127.557.335 0 .184.14.335.31.335.171 0 .368.151.439.335a.55.55 0 0 0 .469.335c.187 0 .341.117.341.261 0 .143.061.199.136.124.132-.132 2.983 2.719 2.983 2.985 0 .075.176.342.39.595a12.687 12.687 0 0 1 1.815 2.881c.12.265.325.546.455.627.13.081.236.345.236.587 0 .243.151.499.334.569.206.079.335.419.335.887 0 .525.103.757.334.757.241 0 .334.249.334.901 0 .594.114.944.334 1.029.245.094.334.48.334 1.444 0 1.021.075 1.316.334 1.316.272 0 .335.37.335 1.986 0 1.56.071 2.014.334 2.115.275.106.334.692.334 3.347 0 2.588-.065 3.272-.334 3.496-.184.153-.334.454-.334.67 0 .215-.151.517-.335.67-.24.2-.334.73-.334 1.898s-.093 1.698-.334 1.898c-.219.183-.334.681-.334 1.452 0 .771-.115 1.269-.334 1.452-.184.153-.334.556-.334.896 0 .344-.149.677-.335.748-.183.07-.334.372-.334.67 0 .298-.15.599-.334.67-.184.07-.334.267-.334.436 0 .169-.176.513-.39.763-.214.251-.691.839-1.058 1.307-1.369 1.742-3.023 3.159-4.177 3.577-.215.078-.39.233-.39.345 0 .111-.226.306-.501.432-1.083.495-1.727.91-1.727 1.111 0 .116-.24.211-.533.211-.293 0-.591.151-.662.335-.07.185-.269.335-.441.335-.173 0-.439.151-.592.335-.152.185-.509.335-.793.335-.284 0-.574.092-.643.204-.17.277-1.966 1.136-2.372 1.136-.179 0-.528.143-.776.317-.248.174-.823.386-1.278.472-.454.085-.881.244-.948.353-.068.109-.312.198-.544.198a.805.805 0 0 0-.633.381c-.181.324-.266.335-.576.078-.426-.355-1.462.06-1.462.584 0 .364-.928.395-1.279.042-.26-.26-1.666.239-1.944.69-.067.11-.413.054-.768-.124-.666-.333-2.358-.225-2.599.166-.066.106-1.51.193-3.209.193-2.45 0-3.159.07-3.425.335-.26.261-.931.335-3.039.335-2.107 0-2.779-.074-3.039-.335-.205-.205-.751-.335-1.409-.335-.749 0-1.112-.101-1.202-.335-.074-.193-.407-.335-.788-.335-.362 0-.82-.161-1.017-.359-.22-.22-.602-.323-.987-.266-.517.075-.609.021-.523-.311.068-.258-.016-.404-.231-.404-.185 0-.393-.15-.464-.335-.07-.184-.382-.335-.692-.335-.353 0-.564-.125-.564-.335a.336.336 0 0 0-.334-.335.335.335 0 0 1-.334-.335.336.336 0 0 0-.335-.335c-.183 0-.334-.095-.334-.212 0-.117-.508-.745-1.129-1.396-1.541-1.613-1.767-1.871-1.767-2.014 0-.068-.601-.749-1.337-1.514-.735-.765-1.336-1.508-1.336-1.651 0-.143-.301-.59-.669-.994-.367-.403-.668-.827-.668-.943 0-.115-.15-.209-.334-.209-.222 0-.334-.222-.334-.659 0-.362-.126-.739-.279-.837-.343-.221-.765-.876-1.083-1.686-.133-.338-.332-.615-.442-.615-.111 0-.201-.193-.201-.43s-.151-.582-.335-.766c-.183-.184-.334-.596-.334-.916 0-.32-.15-.64-.334-.71-.224-.086-.334-.439-.334-1.067 0-.516-.147-1.133-.327-1.372-.502-.666-.492-9.136.012-9.642Zm5.55 10.213c.204.17.334.659.334 1.256 0 .72.088.978.335.978.241 0 .334.249.334.9 0 .594.113.944.334 1.029.184.071.334.372.334.67 0 .298.151.599.334.67.184.071.334.319.334.551 0 .233.151.423.335.423.187 0 .334.199.334.456 0 .856 2.778 4.234 3.482 4.234.142 0 .315.151.386.335a.55.55 0 0 0 .469.335c.188 0 .341.151.341.335 0 .184.14.335.31.335.171 0 .369.151.439.335.07.184.382.335.692.335.353 0 .564.126.564.335 0 .184.114.335.254.335s.371.16.514.356c.142.196.52.372.838.391.319.019.54.099.492.177-.143.231.536.691.788.534.128-.079.233.012.233.204 0 .191.151.348.334.348.184 0 .309.093.279.207-.068.248 1.928 1.354 2.462 1.364.208.004.573.154.81.335 2.112 1.6 6.007-1.142 4.902-3.452-.238-.498-.533-.911-.655-.917-.123-.007-.469-.31-.769-.673-.301-.364-.704-.661-.895-.661-.192 0-.722-.201-1.179-.446-.457-.246-.97-.447-1.14-.447-.168 0-.432-.151-.584-.335a1.044 1.044 0 0 0-.703-.335c-.234 0-.475-.129-.535-.287-.061-.158-.558-.485-1.105-.726-.547-.241-.996-.564-.997-.718-.001-.153-.142-.279-.312-.279-.171 0-.368-.151-.439-.335a.55.55 0 0 0-.469-.335c-.188 0-.342-.099-.342-.219s-.25-.282-.556-.359c-.307-.077-.557-.28-.557-.451 0-.171-.151-.311-.335-.311-.183 0-.334-.14-.334-.311 0-.171-.15-.369-.334-.44-.184-.07-.334-.335-.334-.589 0-.253-.15-.519-.334-.589-.184-.071-.334-.306-.334-.524 0-.217-.151-.521-.335-.674-.183-.153-.334-.416-.334-.585 0-.169-.098-.308-.218-.308s-.288-.275-.372-.612c-.084-.337-.287-.746-.45-.909-.163-.164-.296-.569-.296-.902 0-.332-.136-.802-.302-1.045-.191-.279-.351-1.451-.436-3.211-.074-1.524-.239-2.876-.367-3.004a.972.972 0 0 1-.239-.579c-.027-1.21-4.166-2.126-4.591-1.016-.071.184-.268.335-.439.335-.476 0-.454 8.088.024 8.486Zm60.374-54.413c.222.223.334.78.334 1.667 0 .978.089 1.367.334 1.46.22.085.334.433.334 1.014 0 .486.134 1.017.297 1.181.163.164.366.573.45.91.084.336.251.612.372.612.119 0 .218.2.218.446 0 .248.149.447.334.447a.34.34 0 0 1 .334.344c0 .467.907 1.666 1.261 1.666.162 0 .229.145.157.335-.075.195-.002.339.174.344.166.005.548.307.848.67.301.364.666.66.812.66.146 0 .325.158.399.35.073.192.235.287.358.21.123-.076.224.068.224.32 0 .254.138.46.307.46.169 0 .432.152.584.336.153.184.416.335.585.335.168 0 .517.21.774.468.302.303.654.433.997.367.378-.072.568.018.662.313.084.266.346.418.729.422.329.004.792.155 1.03.335.283.215.977.33 2.005.335 1.028.005 1.722.121 2.005.335.594.45 3.095.445 3.546-.007.24-.241.826-.335 2.09-.335 1.198 0 1.892-.104 2.188-.328.238-.18.707-.33 1.043-.335.36-.004.723-.187.884-.446.191-.307.424-.4.78-.31.362.09.555.009.675-.288.093-.228.393-.438.667-.467.521-.055 1.396-.792 1.396-1.176 0-.123.254-.223.564-.223.309 0 .621-.15.692-.335.07-.184.267-.335.438-.335.171 0 .311-.15.311-.335 0-.184.13-.335.29-.335.361 0 1.715-1.375 1.715-1.742 0-.148.15-.268.334-.268.184 0 .334-.139.334-.308 0-.169.15-.433.334-.585.184-.153.334-.457.334-.674 0-.218.151-.453.334-.524.196-.075.335-.41.335-.805 0-.38.196-.874.445-1.124.272-.273.446-.744.446-1.21 0-.42.125-.805.278-.856.494-.165.392-11.063-.108-11.43-.212-.156-.326-.344-.252-.418.258-.259-.154-1.72-.485-1.72-.215 0-.324-.235-.324-.696 0-.557-.079-.675-.397-.591-.334.087-.383-.016-.31-.644.067-.575.004-.749-.271-.749-.198 0-.359-.138-.359-.307 0-.17-.15-.433-.334-.586a1.036 1.036 0 0 1-.334-.697c0-.23-.151-.42-.335-.42-.183 0-.334-.117-.334-.262 0-.426-3.765-3.98-4.216-3.98-.228 0-.472-.151-.543-.336-.07-.184-.385-.335-.699-.335-.314 0-.629-.15-.699-.335-.078-.203-.415-.335-.857-.335-.4 0-.858-.157-1.017-.349-.219-.264-.66-.336-1.836-.298-1.247.04-1.588-.022-1.755-.32-.291-.522-4.882-.554-5.309-.038-.197.239-.72.335-1.81.335-1.213 0-1.532.07-1.532.335 0 .247-.257.335-.978.335-.665 0-1.02.108-1.108.335-.07.184-.327.335-.571.335-.627 0-2.009.728-2.016 1.061-.003.154-.198.28-.435.28-.236 0-.58.15-.764.334-.183.184-.391.335-.461.335-.203 0-2.578 2.456-2.578 2.666 0 .105-.15.248-.334.319-.184.07-.334.383-.334.693 0 .311-.123.565-.273.565-.388 0-1.732 1.57-1.732 2.024 0 .208-.151.504-.335.656-.183.154-.334.621-.334 1.04 0 .47-.127.81-.334.89-.248.095-.334.49-.334 1.532s-.086 1.437-.334 1.533c-.274.105-.334.656-.334 3.023 0 2.275.071 2.966.334 3.229Zm5.347-5.216c.21 0 .334-.213.334-.572 0-.314.089-.516.199-.448.244.151.469-.39.469-1.127 0-.301.15-.605.334-.676.187-.072.334-.403.334-.75 0-.348.148-.68.335-.752.183-.07.334-.332.334-.582 0-.254.147-.454.334-.454.185 0 .334-.198.334-.446s.149-.447.334-.447c.184 0 .334-.105.334-.234 0-.246.757-1.004 1.834-1.837a47.05 47.05 0 0 0 1.109-.888c.257-.215.606-.39.775-.39.168 0 .364-.151.434-.336.074-.192.407-.335.78-.335.374 0 .706-.143.78-.335.091-.236.459-.335 1.256-.335.753 0 1.269-.127 1.55-.382.565-.513 2.941-.471 3.528.06.286.26.702.346 1.409.29.81-.066 1.023-.005 1.105.31.077.293.332.392 1.014.392.581 0 .912.102.913.28 0 .153.3.48.668.725.367.246.667.573.667.726 0 .154.151.28.335.28.184 0 .334.15.334.334 0 .184.151.335.334.335.184 0 .335.151.335.335 0 .184.15.335.334.335.184 0 .334.104.334.23 0 .128.301.527.668.887.368.36.669.748.669.862 0 .114.15.265.334.336.184.07.334.335.334.589 0 .253.15.518.334.589.188.072.334.404.334.758 0 .347.151.781.334.966.216.215.335.767.335 1.551 0 .81.112 1.31.334 1.496.397.33.459 2.154.078 2.281-.142.047-.306.68-.366 1.406-.06.727-.246 1.458-.412 1.624-.166.167-.303.587-.303.934 0 .354-.146.686-.334.759-.184.07-.334.335-.334.589 0 .253-.15.519-.334.589-.184.07-.334.213-.334.316 0 .258-2.872 3.115-3.132 3.115-.115 0-.21.14-.21.31 0 .172-.251.374-.557.451-.306.078-.557.24-.557.36s-.201.219-.446.219c-.247 0-.445.149-.445.335 0 .221-.221.335-.652.335-.36 0-.803.15-.987.335-.184.184-.723.335-1.199.335-.475 0-1.059.147-1.297.328-.527.4-3.359.473-3.486.09-.046-.138-.631-.304-1.3-.368-.809-.077-1.308-.247-1.492-.509-.153-.216-.732-.614-1.289-.884-.557-.27-1.136-.606-1.289-.746-.406-.375-1.676-1.261-1.807-1.261-.207 0-1.688-1.575-1.688-1.794 0-.119-.15-.216-.334-.216a.335.335 0 0 1-.334-.335c0-.184-.184-.335-.407-.335-.326 0-.387-.134-.309-.67.08-.548.02-.67-.334-.67-.354 0-.414-.122-.334-.67.074-.508.011-.67-.262-.67-.375 0-.428-.233-.364-1.62.027-.583-.068-.879-.312-.973-.508-.195-.524-4.33-.017-4.33Z" fill="#44B4E4"/></svg>