<svg width="285" height="180" viewBox="0 0 285 180" fill="none" xmlns="http://www.w3.org/2000/svg">
<path d="M47.6638 59.3096C65.6605 49.3724 87.0758 39.2 105.898 47.5104C124.661 55.8012 134.327 80.3012 154.583 83.594C167.354 85.6716 179.672 78.2628 192.522 76.8124C204.585 75.46 217.159 79.7132 225.902 88.1216C234.645 96.53 239.399 108.898 238.496 120.971C237.808 130.203 234.331 140.63 240.028 147.941C242.405 150.998 246.04 152.841 249.734 154.056C257.003 156.428 264.941 156.682 272.328 154.742" stroke="#286117" stroke-width="1.5" stroke-linecap="round" stroke-linejoin="round"/>
<path d="M84.0894 65.9148C95.0131 61.9164 108.098 64.582 116.605 72.5004C122.637 78.1256 126.37 86.0048 132.893 91.042C138.61 95.4716 146.017 97.2944 153.267 97.4708C160.516 97.6472 167.688 96.2948 174.8 94.9424" stroke="#286117" stroke-width="1.5" stroke-linecap="round" stroke-linejoin="round"/>
<path d="M188.239 93.786C196.647 89.3172 207.709 91.4144 214.801 97.7648C221.894 104.135 225.155 114.072 224.605 123.578C224.252 129.576 222.503 135.534 223.112 141.492C223.878 148.96 228.377 155.761 234.389 160.308C240.401 164.856 247.769 167.325 255.215 168.462" stroke="#286117" stroke-width="1.5" stroke-linecap="round" stroke-linejoin="round"/>
<path d="M172.658 108.329C177.708 109.094 182.737 107.31 187.728 106.173C192.718 105.036 198.435 104.703 202.443 107.859" stroke="#286117" stroke-width="1.5" stroke-linecap="round" stroke-linejoin="round"/>
<path d="M210.97 115.091C212.68 118.247 212.856 122.186 211.422 125.46" stroke="#286117" stroke-width="1.5" stroke-linecap="round" stroke-linejoin="round"/>
<path d="M136.449 106.212C143.286 110.701 152.166 111.994 160.006 109.642" stroke="#286117" stroke-width="1.5" stroke-linecap="round" stroke-linejoin="round"/>
<path d="M82.9302 33.1632C95.5239 28.7728 110.2 30.9876 120.928 38.8864C128.04 44.1196 133.246 51.4696 139.514 57.6632C142.952 61.0736 146.842 64.2096 151.42 65.7776C159.514 68.5804 168.415 66.1696 176.509 63.3864C184.604 60.6032 193.013 57.3888 201.481 58.6432" stroke="#286117" stroke-width="1.5" stroke-linecap="round" stroke-linejoin="round"/>
<path d="M213.839 63.5432C223.623 65.366 232.385 71.3636 238.417 79.2624C244.449 87.1612 247.887 96.8436 249.223 106.683C250.284 114.503 250.107 122.637 253.034 129.968C255.962 137.298 263.389 143.727 271.149 142.178" stroke="#286117" stroke-width="1.5" stroke-linecap="round" stroke-linejoin="round"/>
</svg>
