<svg width="158" height="168" fill="none" xmlns="http://www.w3.org/2000/svg"><path fill-rule="evenodd" clip-rule="evenodd" d="M78.478 120.92c-5.797.935-11.504-1.875-12.735-6.275-1.232-4.391 2.477-8.727 8.269-9.662 5.787-.935 11.494 1.884 12.721 6.276 1.232 4.395-2.478 8.731-8.255 9.661Zm2.698 9.659c12.82-2.07 21.004-11.634 18.283-21.375-2.727-9.73-15.33-15.945-28.15-13.88-12.83 2.07-21 11.643-18.278 21.374 2.726 9.736 15.32 15.946 28.145 13.881ZM136.499 42.642c-5.796.94-11.503-1.874-12.735-6.275-1.231-4.39 2.477-8.722 8.269-9.661 5.787-.93 11.495 1.884 12.722 6.275 1.231 4.396-2.478 8.731-8.256 9.661Zm2.699 9.658c12.82-2.07 21.005-11.633 18.278-21.374-2.722-9.73-15.33-15.946-28.145-13.88-12.83 2.07-21 11.643-18.278 21.379 2.726 9.73 15.321 15.946 28.145 13.876M88.164 68.863c-5.797.94-11.5-1.874-12.736-6.275-1.227-4.39 2.483-8.726 8.274-9.661 5.783-.93 11.49 1.884 12.722 6.275 1.231 4.396-2.478 8.731-8.26 9.661Zm2.703 9.658c12.815-2.07 21.005-11.633 18.278-21.374-2.722-9.731-15.33-15.946-28.15-13.88-12.825 2.07-21 11.643-18.283 21.379 2.731 9.73 15.326 15.945 28.155 13.875M25.973 92.547c-5.797.94-11.504-1.875-12.736-6.275-1.227-4.391 2.483-8.731 8.27-9.662 5.787-.935 11.494 1.884 12.726 6.275 1.226 4.396-2.478 8.732-8.26 9.662Zm2.699 9.661c12.82-2.075 21.004-11.639 18.282-21.38-2.727-9.73-15.33-15.945-28.15-13.88-12.825 2.07-21 11.643-18.283 21.374 2.732 9.736 15.326 15.951 28.15 13.886M40.928 25.995c-5.796.935-11.503-1.875-12.735-6.275-1.232-4.391 2.478-8.727 8.27-9.662 5.786-.935 11.493 1.884 12.72 6.275 1.232 4.396-2.477 8.732-8.255 9.662m2.7 9.656c12.82-2.07 21.004-11.634 18.282-21.374C59.183 4.545 46.58-1.67 33.76.396c-12.83 2.07-21 11.643-18.278 21.374 2.727 9.736 15.321 15.95 28.145 13.88M127.902 157.821c-5.796.935-11.503-1.874-12.735-6.275-1.232-4.391 2.478-8.726 8.269-9.661 5.787-.935 11.495 1.884 12.721 6.275 1.232 4.396-2.477 8.731-8.255 9.661m2.699 9.657c12.82-2.07 21.004-11.634 18.278-21.374-2.722-9.731-15.326-15.946-28.146-13.881-12.829 2.07-21 11.644-18.277 21.375 2.726 9.736 15.32 15.95 28.145 13.88Z" fill="#42A1CA"/></svg>