<svg width="155" height="84" fill="none" xmlns="http://www.w3.org/2000/svg"><path d="M188.533 127.278c-.072-.252-14.039-18.121-26.363-26.38-12.324-8.26-14.651-11.557-27.17-14.095-12.519-2.538-17.581-1.733-23.34-.667s-18.894 3.376-32.436-5.055C65.68 72.65 56.011 63.36 52.401 60.757c-3.61-2.603-23.78-17.154-39.22-21.765-15.44-4.611-14.755-4.074-10.116-4.342 4.64-.268 22.616-.6 46.635 9.369 24.018 9.969 47.453 18.961 59.063 26.564 11.61 7.603 10.458 11.1 15.991 12.511 5.533 1.411 10.025 1.956 12.543 2.352 2.518.396 4.743 1.008 3.672.023-1.07-.985-12.391-10.52-16.362-15.167-3.971-4.648-8.058-9.773-18.434-11.751-10.377-1.979-21.481-6.94-30.115-15.67-8.633-8.728-12.161-15.815-22.53-23.433C43.16 11.831 33.645 5.161 30.27 3.512 26.89 1.862 23.55.48 25.61.362c2.06-.118 23.236 3.302 38.38 9.227 15.145 5.925 32.13 15.14 41.423 26.002 9.292 10.862 9.842 20.485 15.409 26.856 5.568 6.37 15.299 17.613 24.475 23.463 9.176 5.85 14.763 10.25 14.763 10.25s1.203 1.111-.415-2.305c-5.287-11.166-6.294-12.084-9.133-13.792-2.838-1.709-13.391-7.529-18.013-15.414-4.623-7.885-4.093-14.501-4.953-18.88-.862-4.379-3-16.829-12.249-25.244s-14.303-13.25-17.2-15.197c-2.897-1.948-3.008-2.119-.9-1.984 2.11.134 18.545 4.262 33.726 13.737 15.181 9.476 22.936 21.979 25.878 34.033 2.942 12.055 2.109 21.401.851 25.034-1.259 3.632-1.907 3.674-.652 8.177s6.571 14.947 9.146 16.991c2.574 2.045 14.192 13.079 17.274 16.354 3.082 3.275 5.802 5.916 5.901 6.885.098.97-.328 4.327-.789 2.723Z" fill="#FAADB2"/></svg>