<svg width="130" height="130" viewBox="0 0 130 130" fill="none" xmlns="http://www.w3.org/2000/svg">
<path d="M64.9066 89.6273C60.5417 89.6224 56.357 87.8864 53.2706 84.8C50.1842 81.7136 48.4482 77.5289 48.4434 73.1641C48.4434 64.4593 63.4298 36.1947 64.0668 34.9935C64.1479 34.8412 64.2689 34.7139 64.4168 34.6251C64.5647 34.5363 64.734 34.4894 64.9066 34.4894C65.0791 34.4894 65.2484 34.5363 65.3963 34.6251C65.5442 34.7139 65.6652 34.8412 65.7464 34.9935C66.3834 36.1947 81.3802 64.4593 81.3802 73.1641C81.3746 77.5305 79.6369 81.7163 76.5484 84.8029C73.4599 87.8894 69.273 89.6245 64.9066 89.6273ZM64.9066 37.4921C61.6904 43.6931 50.3466 66.0609 50.3466 73.1641C50.3466 77.0256 51.8806 80.729 54.6111 83.4595C57.3416 86.1901 61.045 87.7241 64.9066 87.7241C68.7681 87.7241 72.4715 86.1901 75.202 83.4595C77.9326 80.729 79.4666 77.0256 79.4666 73.1641C79.4666 66.0609 68.1202 43.6931 64.9066 37.4921Z" fill="#FEB1A1"/>
<path d="M55.7256 70.0804C55.623 70.0807 55.5211 70.064 55.424 70.031C55.1848 69.9509 54.9871 69.7792 54.8745 69.5534C54.7619 69.3277 54.7435 69.0665 54.8234 68.8272C56.4198 64.0588 58.9834 57.5068 61.8252 50.8508C61.9245 50.6188 62.1119 50.4357 62.3462 50.3418C62.5805 50.248 62.8425 50.251 63.0745 50.3503C63.3065 50.4496 63.4896 50.637 63.5835 50.8713C63.6774 51.1056 63.6743 51.3676 63.575 51.5996C60.741 58.2088 58.2086 64.7088 56.6278 69.4304C56.5646 69.6197 56.4434 69.7843 56.2815 69.9009C56.1196 70.0175 55.9252 70.0803 55.7256 70.0804Z" fill="#FEB1A1"/>
<path d="M60.229 83.6835C60.0526 83.6834 59.8796 83.6338 59.7298 83.5406C57.151 81.9515 55.2494 79.4666 54.3894 76.5622C54.3437 76.4399 54.3236 76.3096 54.3304 76.1793C54.3372 76.0489 54.3707 75.9214 54.4289 75.8046C54.487 75.6877 54.5686 75.5841 54.6685 75.5002C54.7684 75.4162 54.8846 75.3537 55.0097 75.3165C55.1348 75.2793 55.2662 75.2683 55.3957 75.2841C55.5253 75.2998 55.6502 75.3421 55.7627 75.4082C55.8752 75.4743 55.973 75.5629 56.0498 75.6683C56.1267 75.7738 56.181 75.894 56.2094 76.0214C56.9385 78.4775 58.5473 80.5788 60.7282 81.9234C60.904 82.0324 61.0395 82.1958 61.1141 82.3888C61.1887 82.5818 61.1984 82.7939 61.1417 82.9928C61.0849 83.1918 60.9649 83.3669 60.7998 83.4915C60.6346 83.6162 60.4333 83.6836 60.2264 83.6835H60.229Z" fill="#FEB1A1"/>
<path d="M64.904 95.7399C58.8577 95.7323 53.0613 93.3269 48.7862 89.0513C44.511 84.7756 42.1063 78.9789 42.0994 72.9327C42.0994 68.4529 44.6994 60.4527 49.8266 49.1557C49.9761 48.8318 50.0408 48.4752 50.0144 48.1195C49.988 47.7638 49.8715 47.4207 49.6758 47.1225C49.4801 46.8179 49.2107 46.5676 48.8926 46.3949C48.5744 46.2222 48.2178 46.1326 47.8558 46.1345H13.06C12.8076 46.1345 12.5656 46.0342 12.3871 45.8557C12.2087 45.6773 12.1084 45.4352 12.1084 45.1829C12.1084 44.9305 12.2087 44.6884 12.3871 44.51C12.5656 44.3315 12.8076 44.2313 13.06 44.2313H47.8636C48.5413 44.23 49.2085 44.3988 49.804 44.7224C50.3994 45.0459 50.9042 45.5137 51.2719 46.083C51.6396 46.6523 51.8585 47.3048 51.9085 47.9806C51.9585 48.6565 51.8381 49.334 51.5582 49.9513C46.6182 60.8427 44.0026 68.7935 44.0026 72.9405C44.0026 78.4845 46.205 83.8016 50.1252 87.7218C54.0455 91.6421 59.3625 93.8445 64.9066 93.8445C70.4507 93.8445 75.7677 91.6421 79.688 87.7218C83.6082 83.8016 85.8106 78.4845 85.8106 72.9405C85.8106 68.7805 83.2106 60.8349 78.2706 49.9487C77.99 49.3315 77.869 48.6537 77.9187 47.9776C77.9684 47.3015 78.1872 46.6487 78.5551 46.0792C78.9229 45.5097 79.428 45.0418 80.0238 44.7185C80.6197 44.3951 81.2873 44.2267 81.9652 44.2287H116.753C117.006 44.2287 117.248 44.3289 117.426 44.5074C117.605 44.6858 117.705 44.9279 117.705 45.1803C117.705 45.4326 117.605 45.6747 117.426 45.8531C117.248 46.0316 117.006 46.1319 116.753 46.1319H81.96C81.598 46.13 81.2414 46.2196 80.9232 46.3923C80.6051 46.565 80.3357 46.8153 80.14 47.1199C79.9443 47.4181 79.8278 47.7612 79.8014 48.1169C79.775 48.4726 79.8397 48.8292 79.9892 49.1531C85.1086 60.4423 87.7034 68.4425 87.7034 72.9301C87.6972 78.9759 85.2935 84.7725 81.0194 89.0485C76.7453 93.3245 70.9498 95.7309 64.904 95.7399Z" fill="#FEB1A1"/>
</svg>
