<svg width="30" height="30" viewBox="0 0 30 30" fill="none" xmlns="http://www.w3.org/2000/svg">
<rect width="30" height="30" rx="4" fill="#FF6F8D"/>
<path fill-rule="evenodd" clip-rule="evenodd" d="M5.5 8C5.5 7.72386 5.72386 7.5 6 7.5H8.4395C9.15329 7.5 9.76822 8.003 9.90973 8.70263L10.0269 9.28218H21.3626C22.0113 9.28218 22.4883 9.89029 22.3338 10.5203L21.4269 14.2186C21.2624 14.8896 20.6609 15.3614 19.9701 15.3614H11.2565L11.4058 16.0991C11.4529 16.3323 11.6579 16.5 11.8958 16.5H20.0838C20.36 16.5 20.5838 16.7239 20.5838 17C20.5838 17.2761 20.36 17.5 20.0838 17.5H11.8958C11.182 17.5 10.5671 16.997 10.4256 16.2974L10.1552 14.9605L9.12788 9.8813L8.92957 8.90088C8.8824 8.66767 8.67743 8.5 8.4395 8.5H6C5.72386 8.5 5.5 8.27614 5.5 8ZM11.0543 14.3614H19.9701C20.2004 14.3614 20.4009 14.2041 20.4557 13.9805L21.3626 10.2822H10.2292L11.0543 14.3614ZM12.5 21C12.7761 21 13 20.7761 13 20.5C13 20.2239 12.7761 20 12.5 20C12.2239 20 12 20.2239 12 20.5C12 20.7761 12.2239 21 12.5 21ZM12.5 22C13.3284 22 14 21.3284 14 20.5C14 19.6716 13.3284 19 12.5 19C11.6716 19 11 19.6716 11 20.5C11 21.3284 11.6716 22 12.5 22ZM19 20.5C19 20.7761 18.7761 21 18.5 21C18.2239 21 18 20.7761 18 20.5C18 20.2239 18.2239 20 18.5 20C18.7761 20 19 20.2239 19 20.5ZM20 20.5C20 21.3284 19.3284 22 18.5 22C17.6716 22 17 21.3284 17 20.5C17 19.6716 17.6716 19 18.5 19C19.3284 19 20 19.6716 20 20.5Z" fill="white"/>
</svg>
