<svg id="svg" version="1.1" xmlns="http://www.w3.org/2000/svg" xmlns:xlink="http://www.w3.org/1999/xlink" width="400" height="526.8292682926829" viewBox="0, 0, 400,526.8292682926829"><g id="svgg"><path id="path0" d="M188.500 23.864 C 187.723 23.975,187.200 24.282,187.200 24.625 C 187.200 24.997,186.776 25.200,186.000 25.200 C 185.200 25.200,184.800 25.400,184.800 25.800 C 184.800 26.200,184.400 26.400,183.600 26.400 C 182.800 26.400,182.400 26.600,182.400 27.000 C 182.400 27.330,182.054 27.600,181.631 27.600 C 180.808 27.600,178.153 30.412,177.572 31.900 C 177.378 32.395,177.035 32.800,176.810 32.800 C 176.584 32.800,176.400 33.520,176.400 34.400 C 176.400 35.556,176.233 36.000,175.800 36.000 C 175.287 36.000,175.200 37.139,175.200 43.847 C 175.200 51.215,175.244 51.682,175.922 51.504 C 176.525 51.347,176.615 51.514,176.469 52.512 C 176.348 53.338,176.496 53.822,176.947 54.074 C 177.306 54.275,177.600 54.796,177.600 55.232 C 177.600 55.668,177.870 56.129,178.200 56.255 C 178.530 56.382,178.800 56.742,178.800 57.055 C 178.800 57.369,179.070 57.729,179.400 57.855 C 179.730 57.982,180.000 58.336,180.000 58.643 C 180.000 58.949,180.270 59.200,180.600 59.200 C 180.930 59.200,181.200 59.470,181.200 59.800 C 181.200 60.130,181.451 60.400,181.757 60.400 C 182.064 60.400,182.418 60.670,182.545 61.000 C 182.869 61.844,184.694 61.768,184.939 60.900 C 185.048 60.515,185.106 60.740,185.069 61.400 C 185.003 62.541,185.085 62.606,186.722 62.724 C 187.759 62.799,188.531 63.077,188.665 63.424 C 188.998 64.292,199.922 64.269,200.255 63.400 C 200.406 63.008,201.029 62.800,202.055 62.800 C 203.082 62.800,203.705 62.592,203.855 62.200 C 203.982 61.870,204.413 61.600,204.814 61.600 C 205.215 61.600,205.813 61.330,206.143 61.000 C 206.473 60.670,206.867 60.400,207.018 60.400 C 207.410 60.400,210.397 57.365,210.417 56.947 C 210.426 56.756,210.966 56.158,211.617 55.619 C 212.268 55.079,212.800 54.426,212.800 54.168 C 212.800 53.909,213.070 53.474,213.400 53.200 C 213.730 52.926,214.006 52.229,214.013 51.651 C 214.020 51.073,214.290 50.251,214.613 49.824 C 215.471 48.689,215.460 39.114,214.600 38.400 C 214.255 38.114,214.000 37.242,214.000 36.351 C 214.000 35.239,213.830 34.800,213.400 34.800 C 213.000 34.800,212.800 34.400,212.800 33.600 C 212.800 32.800,212.600 32.400,212.200 32.400 C 211.870 32.400,211.600 32.130,211.600 31.800 C 211.600 31.470,211.330 31.200,211.000 31.200 C 210.670 31.200,210.400 31.020,210.400 30.800 C 210.400 30.281,208.919 28.800,208.400 28.800 C 208.180 28.800,208.000 28.530,208.000 28.200 C 208.000 27.867,207.644 27.600,207.200 27.600 C 206.756 27.600,206.400 27.333,206.400 27.000 C 206.400 26.670,206.130 26.400,205.800 26.400 C 205.470 26.400,205.200 26.223,205.200 26.008 C 205.200 25.792,204.705 25.498,204.100 25.354 C 203.495 25.210,202.685 24.819,202.300 24.485 C 201.590 23.867,191.600 23.418,188.500 23.864 M196.000 33.982 C 196.000 34.192,196.624 34.481,197.386 34.624 C 198.148 34.767,198.980 35.135,199.235 35.442 C 199.490 35.749,199.871 36.000,200.082 36.000 C 200.581 36.000,203.200 38.694,203.200 39.207 C 203.200 39.423,203.391 39.600,203.624 39.600 C 203.857 39.600,203.936 39.780,203.800 40.000 C 203.664 40.220,203.743 40.400,203.976 40.400 C 204.698 40.400,204.528 47.065,203.800 47.345 C 203.470 47.471,203.200 48.031,203.200 48.587 C 203.200 49.221,202.975 49.600,202.600 49.600 C 202.270 49.600,202.000 49.780,202.000 50.000 C 202.000 50.519,200.519 52.000,200.000 52.000 C 199.780 52.000,199.600 52.270,199.600 52.600 C 199.600 53.000,199.200 53.200,198.400 53.200 C 197.600 53.200,197.200 53.400,197.200 53.800 C 197.200 54.145,196.839 54.400,196.351 54.400 C 195.666 54.400,195.592 54.509,195.970 54.964 C 196.331 55.399,196.320 55.598,195.919 55.829 C 195.634 55.993,195.533 55.981,195.697 55.801 C 196.289 55.146,195.062 54.400,193.394 54.400 C 192.244 54.400,191.610 54.204,191.455 53.800 C 191.311 53.423,190.699 53.200,189.813 53.200 C 188.824 53.200,188.400 53.020,188.400 52.600 C 188.400 52.270,188.130 52.000,187.800 52.000 C 187.430 52.000,187.200 51.624,187.200 51.020 C 187.200 50.481,186.975 49.896,186.700 49.720 C 185.983 49.261,184.800 46.882,184.800 45.899 C 184.800 45.439,184.509 44.742,184.154 44.349 C 183.559 43.692,183.559 43.584,184.154 42.989 C 184.509 42.634,184.800 41.810,184.800 41.159 C 184.800 39.833,187.894 36.321,189.500 35.824 C 189.995 35.671,190.400 35.378,190.400 35.173 C 190.400 34.968,190.816 34.800,191.324 34.800 C 191.831 34.800,192.596 34.536,193.024 34.213 C 193.893 33.555,196.000 33.392,196.000 33.982 M153.345 111.000 C 153.184 111.419,152.531 111.600,151.186 111.600 C 150.005 111.600,149.025 111.833,148.657 112.200 C 148.327 112.530,147.616 112.800,147.078 112.800 C 146.539 112.800,145.874 113.070,145.600 113.400 C 145.326 113.730,144.687 114.000,144.180 114.000 C 143.672 114.000,143.019 114.235,142.729 114.522 C 142.438 114.810,141.885 115.164,141.500 115.310 C 141.115 115.456,140.800 115.761,140.800 115.987 C 140.800 116.214,140.558 116.400,140.261 116.400 C 139.965 116.400,139.344 116.715,138.881 117.100 C 138.419 117.485,137.590 118.160,137.039 118.600 C 136.488 119.040,136.029 119.625,136.018 119.900 C 136.008 120.175,135.730 120.400,135.400 120.400 C 135.070 120.400,134.800 120.651,134.800 120.957 C 134.800 121.264,134.530 121.618,134.200 121.745 C 133.870 121.871,133.600 122.229,133.600 122.538 C 133.600 122.848,133.330 123.326,133.000 123.600 C 132.670 123.874,132.400 124.402,132.400 124.774 C 132.400 125.146,131.860 125.968,131.200 126.600 C 130.540 127.232,130.000 127.986,130.000 128.275 C 130.000 128.564,129.730 128.800,129.400 128.800 C 129.000 128.800,128.800 129.200,128.800 130.000 C 128.800 130.800,128.600 131.200,128.200 131.200 C 127.758 131.200,127.600 131.662,127.600 132.957 C 127.600 134.135,127.406 134.789,127.012 134.940 C 126.136 135.276,126.143 154.000,127.019 154.000 C 127.442 154.000,127.600 154.495,127.600 155.813 C 127.600 157.055,127.789 157.698,128.200 157.855 C 128.537 157.985,128.800 158.580,128.800 159.214 C 128.800 159.835,129.070 160.613,129.400 160.943 C 129.730 161.273,130.000 161.826,130.000 162.171 C 130.000 162.517,130.270 162.800,130.600 162.800 C 130.975 162.800,131.200 163.179,131.200 163.813 C 131.200 164.369,131.470 164.929,131.800 165.055 C 132.130 165.182,132.400 165.536,132.400 165.843 C 132.400 166.149,132.670 166.400,133.000 166.400 C 133.330 166.400,133.600 166.736,133.600 167.146 C 133.600 168.043,137.683 172.400,138.523 172.400 C 138.848 172.400,139.218 172.670,139.345 173.000 C 139.471 173.330,139.863 173.600,140.216 173.600 C 140.569 173.600,141.139 173.882,141.484 174.227 C 141.902 174.645,142.687 174.818,143.842 174.747 C 144.795 174.689,145.700 174.766,145.854 174.920 C 146.007 175.074,145.728 175.200,145.233 175.200 C 144.033 175.200,144.368 176.159,145.631 176.336 C 146.164 176.412,146.908 176.748,147.285 177.085 C 147.708 177.463,148.244 177.584,148.685 177.402 C 149.166 177.204,149.236 177.046,148.900 176.920 C 148.625 176.817,148.400 176.546,148.400 176.318 C 148.400 176.065,148.634 176.096,148.996 176.396 C 149.323 176.668,149.493 177.050,149.372 177.245 C 149.251 177.440,149.508 177.600,149.943 177.600 C 150.378 177.600,150.808 177.825,150.899 178.100 C 151.017 178.455,152.511 178.638,156.033 178.731 C 158.765 178.802,161.171 179.027,161.380 179.231 C 162.008 179.841,167.297 179.652,168.176 178.987 C 168.604 178.664,169.706 178.400,170.627 178.400 C 171.628 178.400,172.502 178.158,172.800 177.800 C 173.074 177.470,173.614 177.200,174.000 177.200 C 174.386 177.200,174.926 176.930,175.200 176.600 C 175.474 176.270,176.031 176.000,176.437 176.000 C 176.843 176.000,177.575 175.460,178.063 174.800 C 178.551 174.140,179.187 173.600,179.475 173.600 C 179.764 173.600,180.000 173.330,180.000 173.000 C 180.000 172.625,180.379 172.400,181.013 172.400 C 181.569 172.400,182.129 172.130,182.255 171.800 C 182.382 171.470,182.718 171.200,183.002 171.200 C 183.738 171.200,187.200 168.016,187.200 167.340 C 187.200 167.029,187.470 166.671,187.800 166.545 C 188.130 166.418,188.400 166.064,188.400 165.757 C 188.400 165.451,188.670 165.200,189.000 165.200 C 189.330 165.200,189.600 164.917,189.600 164.571 C 189.600 164.226,189.870 163.673,190.200 163.343 C 190.530 163.013,190.800 162.415,190.800 162.014 C 190.800 161.613,191.070 161.182,191.400 161.055 C 191.772 160.913,192.000 160.304,192.000 159.455 C 192.000 158.607,192.228 157.998,192.600 157.855 C 193.040 157.687,193.200 156.993,193.200 155.255 C 193.200 153.518,193.360 152.824,193.800 152.655 C 194.271 152.474,194.400 151.659,194.400 148.855 C 194.400 146.051,194.529 145.236,195.000 145.055 C 195.440 144.887,195.600 144.193,195.600 142.462 C 195.600 140.849,195.409 139.940,195.000 139.600 C 194.619 139.284,194.400 138.401,194.400 137.184 C 194.400 135.009,194.084 133.901,193.558 134.226 C 193.361 134.348,193.200 133.801,193.200 133.011 C 193.200 132.103,192.979 131.490,192.600 131.345 C 192.270 131.218,192.000 130.796,192.000 130.406 C 192.000 130.017,191.730 129.474,191.400 129.200 C 191.070 128.926,190.800 128.454,190.800 128.151 C 190.800 127.848,190.530 127.600,190.200 127.600 C 189.800 127.600,189.600 127.200,189.600 126.400 C 189.600 125.600,189.400 125.200,189.000 125.200 C 188.670 125.200,188.400 124.949,188.400 124.643 C 188.400 124.336,188.130 123.982,187.800 123.855 C 187.470 123.729,187.200 123.376,187.200 123.071 C 187.200 122.318,183.736 118.800,182.994 118.800 C 182.667 118.800,182.400 118.530,182.400 118.200 C 182.400 117.870,182.149 117.600,181.843 117.600 C 181.536 117.600,181.182 117.330,181.055 117.000 C 180.929 116.670,180.359 116.400,179.789 116.400 C 179.108 116.400,178.851 116.558,179.038 116.862 C 179.211 117.141,179.148 117.215,178.879 117.049 C 178.635 116.898,178.536 116.512,178.659 116.191 C 178.791 115.846,178.579 115.491,178.142 115.324 C 177.734 115.168,177.040 114.704,176.600 114.294 C 175.218 113.003,171.996 111.600,170.416 111.600 C 169.555 111.600,168.683 111.340,168.400 111.000 C 167.991 110.508,166.618 110.400,160.738 110.400 C 154.740 110.400,153.537 110.498,153.345 111.000 M162.450 121.200 C 166.050 121.200,166.800 121.303,166.800 121.800 C 166.800 122.234,167.246 122.400,168.413 122.400 C 169.477 122.400,170.103 122.604,170.255 123.000 C 170.387 123.342,170.983 123.600,171.643 123.600 C 172.405 123.600,172.800 123.805,172.800 124.200 C 172.800 124.530,173.116 124.800,173.502 124.800 C 174.254 124.800,178.800 128.910,178.800 129.591 C 178.800 129.816,179.070 130.000,179.400 130.000 C 179.730 130.000,180.000 130.251,180.000 130.557 C 180.000 130.864,180.270 131.218,180.600 131.345 C 180.930 131.471,181.200 132.011,181.200 132.545 C 181.200 133.078,181.470 133.618,181.800 133.745 C 182.153 133.880,182.400 134.480,182.400 135.200 C 182.400 135.920,182.647 136.520,183.000 136.655 C 183.408 136.812,183.600 137.451,183.600 138.655 C 183.600 139.859,183.792 140.499,184.200 140.655 C 184.684 140.841,184.800 141.756,184.800 145.394 C 184.800 148.913,184.668 150.011,184.200 150.400 C 183.834 150.704,183.600 151.580,183.600 152.649 C 183.600 153.939,183.442 154.400,183.000 154.400 C 182.600 154.400,182.400 154.800,182.400 155.600 C 182.400 156.400,182.200 156.800,181.800 156.800 C 181.400 156.800,181.200 157.200,181.200 158.000 C 181.200 158.800,181.000 159.200,180.600 159.200 C 180.270 159.200,180.000 159.470,180.000 159.800 C 180.000 160.130,179.805 160.400,179.567 160.400 C 179.097 160.400,175.937 162.838,174.519 164.295 C 174.035 164.793,173.437 165.200,173.192 165.200 C 172.928 165.200,172.850 165.526,173.000 166.000 C 173.146 166.459,173.072 166.800,172.827 166.800 C 172.592 166.800,172.445 166.665,172.500 166.500 C 172.745 165.766,170.308 166.379,169.815 167.175 C 169.671 167.409,169.045 167.600,168.425 167.600 C 167.805 167.600,167.074 167.870,166.800 168.200 C 166.082 169.065,154.570 169.054,153.424 168.187 C 152.996 167.864,152.161 167.600,151.566 167.600 C 150.972 167.600,150.382 167.330,150.255 167.000 C 150.129 166.670,149.569 166.400,149.013 166.400 C 148.379 166.400,148.000 166.175,148.000 165.800 C 148.000 165.470,147.730 165.200,147.400 165.200 C 147.070 165.200,146.800 165.032,146.800 164.827 C 146.800 164.622,146.395 164.326,145.900 164.170 C 144.924 163.863,142.000 161.127,142.000 160.522 C 142.000 160.317,141.460 159.632,140.800 159.000 C 140.140 158.368,139.600 157.614,139.600 157.325 C 139.600 157.036,139.330 156.800,139.000 156.800 C 138.600 156.800,138.400 156.400,138.400 155.600 C 138.400 154.800,138.200 154.400,137.800 154.400 C 137.395 154.400,137.200 153.995,137.200 153.153 C 137.200 152.163,137.056 151.944,136.500 152.091 C 135.694 152.302,135.654 143.261,136.459 142.764 C 136.683 142.625,136.966 141.408,137.088 140.059 C 137.210 138.710,137.556 137.403,137.855 137.154 C 138.155 136.905,138.400 136.268,138.400 135.738 C 138.400 135.209,138.670 134.671,139.000 134.545 C 139.330 134.418,139.600 133.884,139.600 133.357 C 139.600 132.831,139.786 132.400,140.013 132.400 C 140.239 132.400,140.531 132.124,140.661 131.786 C 141.274 130.187,146.657 124.800,147.641 124.800 C 147.839 124.800,148.000 124.530,148.000 124.200 C 148.000 123.825,148.379 123.600,149.013 123.600 C 149.569 123.600,150.124 123.341,150.246 123.024 C 150.367 122.708,151.037 122.327,151.733 122.178 C 152.430 122.029,153.180 121.766,153.400 121.592 C 154.001 121.118,155.656 120.861,156.950 121.041 C 157.583 121.128,160.058 121.200,162.450 121.200 M193.175 135.949 C 193.158 136.378,193.022 136.284,192.778 135.674 C 192.555 135.117,192.221 134.863,191.942 135.036 C 191.645 135.219,191.584 135.149,191.774 134.842 C 192.168 134.205,193.210 135.029,193.175 135.949 M241.298 176.200 C 240.916 176.634,240.181 176.712,238.214 176.528 C 236.193 176.340,235.414 176.430,234.630 176.944 C 234.079 177.305,232.936 177.600,232.091 177.600 C 231.245 177.600,230.204 177.864,229.776 178.187 C 229.349 178.510,228.437 178.780,227.749 178.787 C 227.061 178.794,226.274 179.070,226.000 179.400 C 225.726 179.730,225.102 180.000,224.613 180.000 C 224.124 180.000,223.398 180.360,223.000 180.800 C 222.602 181.240,221.777 181.600,221.167 181.600 C 220.461 181.600,219.773 181.963,219.271 182.600 C 218.792 183.210,218.078 183.600,217.442 183.600 C 216.782 183.600,216.400 183.820,216.400 184.200 C 216.400 184.600,216.000 184.800,215.200 184.800 C 214.400 184.800,214.000 185.000,214.000 185.400 C 214.000 185.775,213.621 186.000,212.987 186.000 C 212.431 186.000,211.871 186.270,211.745 186.600 C 211.618 186.930,211.264 187.200,210.957 187.200 C 210.651 187.200,210.400 187.470,210.400 187.800 C 210.400 188.175,210.021 188.400,209.387 188.400 C 208.831 188.400,208.271 188.670,208.145 189.000 C 208.018 189.330,207.664 189.600,207.357 189.600 C 207.051 189.600,206.800 189.870,206.800 190.200 C 206.800 190.597,206.403 190.800,205.629 190.800 C 204.984 190.800,204.187 191.070,203.857 191.400 C 203.527 191.730,203.059 192.000,202.816 192.000 C 202.573 192.000,202.271 192.270,202.145 192.600 C 202.018 192.930,201.664 193.200,201.357 193.200 C 201.051 193.200,200.800 193.389,200.800 193.621 C 200.800 193.852,200.260 194.230,199.600 194.460 C 198.940 194.690,198.400 195.041,198.400 195.239 C 198.400 195.438,198.130 195.600,197.800 195.600 C 197.251 195.600,197.016 196.088,197.163 196.930 C 197.194 197.111,197.022 197.137,196.779 196.987 C 196.537 196.837,195.986 197.094,195.554 197.557 C 195.122 198.021,194.590 198.400,194.371 198.400 C 194.152 198.400,193.445 198.940,192.800 199.600 C 192.155 200.260,191.441 200.800,191.213 200.800 C 190.986 200.800,190.800 201.070,190.800 201.400 C 190.800 201.730,190.524 202.000,190.187 202.000 C 189.851 202.000,189.471 202.270,189.345 202.600 C 189.218 202.930,188.847 203.200,188.521 203.200 C 187.784 203.200,180.000 211.032,180.000 211.774 C 180.000 212.071,179.730 212.418,179.400 212.545 C 179.070 212.671,178.800 213.051,178.800 213.387 C 178.800 213.724,178.530 214.000,178.200 214.000 C 177.834 214.000,177.600 214.373,177.600 214.957 C 177.600 215.484,177.330 216.018,177.000 216.145 C 176.670 216.271,176.400 216.651,176.400 216.987 C 176.400 217.324,176.130 217.600,175.800 217.600 C 175.470 217.600,175.200 217.811,175.200 218.069 C 175.200 218.326,174.409 219.295,173.442 220.222 C 172.475 221.148,171.551 222.324,171.389 222.835 C 171.227 223.345,170.848 224.009,170.547 224.310 C 170.246 224.611,170.000 225.185,170.000 225.586 C 170.000 225.987,169.730 226.418,169.400 226.545 C 169.070 226.671,168.800 227.153,168.800 227.616 C 168.800 228.079,168.530 228.727,168.200 229.057 C 167.870 229.387,167.600 230.197,167.600 230.857 C 167.600 231.517,167.330 232.327,167.000 232.657 C 166.644 233.013,166.400 233.990,166.400 235.057 C 166.400 236.124,166.156 237.102,165.800 237.457 C 165.300 237.957,165.200 239.667,165.200 247.749 C 165.200 254.968,165.072 257.568,164.700 257.940 C 164.371 258.269,164.200 259.725,164.200 262.200 C 164.200 264.675,164.371 266.131,164.700 266.460 C 165.043 266.803,165.200 268.432,165.200 271.651 C 165.200 275.135,165.344 276.487,165.759 276.902 C 166.139 277.282,166.363 278.719,166.459 281.397 C 166.555 284.085,166.759 285.387,167.100 285.500 C 167.429 285.610,167.600 286.520,167.600 288.157 C 167.600 289.727,167.817 290.934,168.187 291.424 C 168.521 291.865,168.780 293.086,168.787 294.251 C 168.795 295.573,169.013 296.479,169.400 296.800 C 169.766 297.104,170.000 297.980,170.000 299.049 C 170.000 300.181,170.247 301.049,170.700 301.505 C 171.153 301.962,171.418 302.895,171.452 304.152 C 171.481 305.220,171.680 306.208,171.894 306.347 C 172.109 306.486,172.414 307.301,172.571 308.157 C 172.729 309.014,173.115 309.972,173.429 310.286 C 173.743 310.600,174.000 311.455,174.000 312.186 C 174.000 312.998,174.233 313.604,174.600 313.745 C 174.943 313.876,175.200 314.473,175.200 315.138 C 175.200 315.778,175.470 316.526,175.800 316.800 C 176.130 317.074,176.400 317.822,176.400 318.462 C 176.400 319.127,176.657 319.724,177.000 319.855 C 177.334 319.983,177.600 320.578,177.600 321.194 C 177.600 321.803,177.870 322.526,178.200 322.800 C 178.530 323.074,178.800 323.614,178.800 324.000 C 178.800 324.386,179.070 324.926,179.400 325.200 C 179.730 325.474,180.000 326.014,180.000 326.400 C 180.000 326.786,180.270 327.326,180.600 327.600 C 180.930 327.874,181.200 328.352,181.200 328.662 C 181.200 328.971,181.470 329.329,181.800 329.455 C 182.130 329.582,182.400 330.021,182.400 330.431 C 182.400 330.841,182.940 331.575,183.600 332.063 C 184.298 332.579,184.800 333.317,184.800 333.826 C 184.800 334.308,185.070 334.926,185.400 335.200 C 185.730 335.474,186.000 335.937,186.000 336.229 C 186.000 336.521,186.225 336.904,186.500 337.080 C 187.061 337.439,187.809 338.555,188.391 339.900 C 188.605 340.395,188.965 340.800,189.190 340.800 C 189.416 340.800,189.600 341.070,189.600 341.400 C 189.600 341.730,189.870 342.000,190.200 342.000 C 190.530 342.000,190.800 342.270,190.800 342.600 C 190.800 342.930,190.975 343.200,191.190 343.200 C 191.404 343.200,191.841 343.695,192.161 344.300 C 192.902 345.701,195.025 348.000,195.577 348.000 C 195.810 348.000,196.000 348.270,196.000 348.600 C 196.000 348.930,196.227 349.200,196.505 349.200 C 196.783 349.200,197.188 349.605,197.405 350.100 C 197.622 350.595,198.205 351.178,198.700 351.395 C 199.195 351.612,199.600 352.017,199.600 352.295 C 199.600 352.573,199.870 352.800,200.200 352.800 C 200.530 352.800,200.800 353.070,200.800 353.400 C 200.800 353.730,201.070 354.000,201.400 354.000 C 201.730 354.000,202.000 354.270,202.000 354.600 C 202.000 354.930,202.242 355.200,202.538 355.200 C 202.834 355.200,203.402 355.560,203.800 356.000 C 204.198 356.440,204.766 356.800,205.062 356.800 C 205.358 356.800,205.600 356.977,205.600 357.192 C 205.600 357.408,206.043 357.696,206.584 357.832 C 207.125 357.967,207.777 358.331,208.033 358.639 C 208.289 358.948,208.842 359.200,209.262 359.200 C 209.681 359.200,210.129 359.470,210.255 359.800 C 210.384 360.135,210.978 360.400,211.600 360.400 C 212.222 360.400,212.816 360.665,212.945 361.000 C 213.071 361.330,213.609 361.600,214.138 361.600 C 214.668 361.600,215.326 361.870,215.600 362.200 C 215.874 362.530,216.526 362.800,217.049 362.800 C 217.572 362.800,218.001 362.935,218.003 363.100 C 218.009 363.736,220.709 365.200,221.876 365.200 C 222.550 365.200,223.326 365.470,223.600 365.800 C 223.908 366.171,224.805 366.405,225.949 366.413 C 226.967 366.420,228.149 366.690,228.576 367.013 C 229.106 367.413,230.351 367.600,232.489 367.600 C 234.926 367.600,235.677 367.736,235.858 368.208 C 236.052 368.713,237.005 368.809,241.511 368.774 C 246.070 368.739,246.987 368.833,247.285 369.366 C 247.782 370.255,264.571 370.328,265.080 369.444 C 265.592 368.556,269.035 368.445,269.570 369.300 C 270.132 370.200,273.880 370.278,275.024 369.413 C 275.554 369.011,276.828 368.821,279.051 368.813 C 281.441 368.803,282.434 368.641,282.800 368.200 C 283.116 367.819,284.000 367.600,285.220 367.600 C 286.396 367.600,287.376 367.367,287.743 367.000 C 288.081 366.662,289.059 366.400,289.984 366.400 C 291.074 366.400,291.702 366.198,291.855 365.800 C 292.000 365.422,292.626 365.195,293.543 365.187 C 294.344 365.180,295.349 364.910,295.776 364.587 C 296.204 364.264,296.956 364.000,297.448 364.000 C 297.940 364.000,298.613 363.730,298.943 363.400 C 299.273 363.070,299.809 362.800,300.135 362.800 C 301.072 362.800,304.849 360.711,305.344 359.919 C 305.590 359.523,306.205 359.200,306.709 359.200 C 307.213 359.200,307.729 358.930,307.855 358.600 C 307.982 358.270,308.331 358.000,308.630 358.000 C 309.214 358.000,312.468 356.420,312.800 355.976 C 312.910 355.828,313.369 355.593,313.819 355.453 C 314.270 355.312,315.410 354.478,316.354 353.598 C 317.297 352.718,318.504 351.889,319.035 351.756 C 319.566 351.622,320.000 351.263,320.000 350.957 C 320.000 350.650,320.270 350.400,320.600 350.400 C 320.930 350.400,321.200 350.130,321.200 349.800 C 321.200 349.470,321.470 349.200,321.800 349.200 C 322.130 349.200,322.400 348.930,322.400 348.600 C 322.400 348.270,322.670 348.000,323.000 348.000 C 323.330 348.000,323.600 347.751,323.600 347.447 C 323.600 347.142,323.915 346.779,324.300 346.640 C 325.969 346.037,329.984 342.526,330.006 341.651 C 330.010 341.513,330.505 340.833,331.106 340.141 C 332.734 338.267,333.814 336.610,334.758 334.539 C 334.974 334.065,335.342 333.560,335.575 333.415 C 335.809 333.271,336.000 332.733,336.000 332.219 C 336.000 331.706,336.270 331.182,336.600 331.055 C 336.951 330.921,337.200 330.321,337.200 329.613 C 337.200 328.801,337.399 328.400,337.800 328.400 C 338.184 328.400,338.406 328.004,338.417 327.300 C 338.428 326.583,338.845 325.859,339.617 325.219 C 340.318 324.637,340.800 323.852,340.800 323.290 C 340.800 322.769,341.070 322.073,341.400 321.743 C 341.730 321.413,342.000 320.603,342.000 319.943 C 342.000 319.283,342.270 318.473,342.600 318.143 C 342.956 317.787,343.200 316.810,343.200 315.743 C 343.200 314.676,343.444 313.698,343.800 313.343 C 344.200 312.943,344.400 311.943,344.400 310.343 C 344.400 308.743,344.600 307.743,345.000 307.343 C 345.431 306.912,345.600 305.862,345.600 303.614 C 345.600 301.202,345.737 300.433,346.200 300.255 C 346.709 300.060,346.800 298.659,346.800 291.055 C 346.800 283.451,346.891 282.051,347.400 281.855 C 347.910 281.660,348.000 280.193,348.000 272.062 C 348.000 264.049,347.903 262.417,347.400 262.000 C 346.954 261.630,346.800 260.640,346.800 258.138 C 346.800 255.518,346.668 254.724,346.200 254.545 C 345.761 254.376,345.600 253.684,345.600 251.957 C 345.600 250.129,345.465 249.600,345.000 249.600 C 344.533 249.600,344.400 249.067,344.400 247.200 C 344.400 245.333,344.267 244.800,343.800 244.800 C 343.348 244.800,343.200 244.316,343.200 242.843 C 343.200 241.472,343.020 240.817,342.600 240.655 C 342.222 240.510,342.000 239.898,342.000 239.000 C 342.000 238.102,341.778 237.490,341.400 237.345 C 341.065 237.216,340.800 236.622,340.800 236.000 C 340.800 235.378,340.535 234.784,340.200 234.655 C 339.857 234.524,339.600 233.927,339.600 233.262 C 339.600 232.622,339.330 231.874,339.000 231.600 C 338.670 231.326,338.400 230.777,338.400 230.380 C 338.400 229.982,338.160 229.418,337.867 229.125 C 337.575 228.832,337.211 228.099,337.060 227.496 C 336.909 226.893,336.608 226.400,336.392 226.400 C 336.177 226.400,336.000 226.053,336.000 225.629 C 336.000 225.204,335.768 224.619,335.485 224.329 C 335.202 224.038,334.532 223.080,333.996 222.200 C 332.737 220.132,331.520 219.106,331.075 219.736 C 330.888 220.001,330.853 219.823,330.994 219.322 C 331.184 218.643,330.830 218.029,329.420 216.599 C 328.419 215.584,327.600 214.674,327.600 214.576 C 327.600 214.479,327.240 214.040,326.800 213.600 C 326.360 213.160,326.000 212.530,326.000 212.200 C 326.000 211.870,325.773 211.600,325.495 211.600 C 325.217 211.600,324.812 211.195,324.595 210.700 C 324.378 210.205,323.795 209.622,323.300 209.405 C 322.805 209.188,322.400 208.783,322.400 208.505 C 322.400 208.227,322.130 208.000,321.800 208.000 C 321.470 208.000,321.200 207.730,321.200 207.400 C 321.200 207.070,320.930 206.800,320.600 206.800 C 320.270 206.800,320.000 206.530,320.000 206.200 C 320.000 205.870,319.730 205.600,319.400 205.600 C 319.070 205.600,318.800 205.430,318.800 205.222 C 318.800 204.849,317.261 203.862,315.900 203.363 C 315.515 203.222,315.200 202.858,315.200 202.553 C 315.200 202.249,314.949 202.000,314.643 202.000 C 314.336 202.000,313.982 201.730,313.855 201.400 C 313.729 201.070,313.279 200.800,312.855 200.800 C 312.432 200.800,311.982 200.530,311.855 200.200 C 311.729 199.870,311.349 199.600,311.013 199.600 C 310.676 199.600,310.400 199.330,310.400 199.000 C 310.400 198.670,310.214 198.400,309.987 198.400 C 309.759 198.400,309.065 197.880,308.444 197.245 C 307.823 196.610,306.946 195.973,306.495 195.830 C 306.043 195.687,305.573 195.306,305.450 194.985 C 305.326 194.663,304.949 194.400,304.613 194.400 C 304.276 194.400,304.000 194.238,304.000 194.039 C 304.000 193.841,303.460 193.490,302.800 193.260 C 302.140 193.030,301.600 192.652,301.600 192.421 C 301.600 192.189,301.407 192.000,301.171 192.000 C 300.936 192.000,300.473 191.730,300.143 191.400 C 299.813 191.070,299.196 190.800,298.771 190.800 C 298.347 190.800,298.000 190.530,298.000 190.200 C 298.000 189.800,297.600 189.600,296.800 189.600 C 296.000 189.600,295.600 189.400,295.600 189.000 C 295.600 188.670,295.407 188.400,295.171 188.400 C 294.936 188.400,294.473 188.130,294.143 187.800 C 293.813 187.470,293.215 187.200,292.814 187.200 C 292.413 187.200,291.982 186.930,291.855 186.600 C 291.729 186.270,291.189 186.000,290.655 186.000 C 290.122 186.000,289.582 185.730,289.455 185.400 C 289.329 185.070,288.871 184.800,288.437 184.800 C 288.004 184.800,287.058 184.260,286.336 183.600 C 285.613 182.940,284.631 182.400,284.154 182.400 C 283.676 182.400,283.182 182.130,283.055 181.800 C 282.913 181.428,282.304 181.200,281.455 181.200 C 280.607 181.200,279.998 180.972,279.855 180.600 C 279.713 180.229,279.105 180.000,278.262 180.000 C 277.512 180.000,276.674 179.730,276.400 179.400 C 276.100 179.038,275.224 178.800,274.194 178.800 C 273.044 178.800,272.410 178.604,272.255 178.200 C 272.079 177.741,271.327 177.600,269.062 177.600 C 266.915 177.600,265.961 177.435,265.600 177.000 C 265.180 176.494,263.444 176.400,254.575 176.400 C 247.988 176.400,243.955 176.250,243.800 176.000 C 243.439 175.415,241.880 175.540,241.298 176.200 M264.145 186.600 C 264.313 187.040,265.007 187.200,266.745 187.200 C 268.482 187.200,269.176 187.360,269.345 187.800 C 269.490 188.179,270.103 188.400,271.005 188.400 C 271.988 188.400,272.773 188.719,273.517 189.421 C 274.113 189.982,275.091 190.544,275.691 190.669 C 276.291 190.794,276.988 191.145,277.240 191.448 C 277.492 191.752,278.197 192.000,278.806 192.000 C 279.422 192.000,280.017 192.266,280.145 192.600 C 280.271 192.930,280.809 193.200,281.338 193.200 C 281.868 193.200,282.526 193.470,282.800 193.800 C 283.074 194.130,283.642 194.400,284.062 194.400 C 284.481 194.400,284.929 194.670,285.055 195.000 C 285.182 195.330,285.697 195.600,286.200 195.600 C 286.703 195.600,287.218 195.870,287.345 196.200 C 287.471 196.530,288.031 196.800,288.587 196.800 C 289.221 196.800,289.600 197.025,289.600 197.400 C 289.600 197.775,289.979 198.000,290.613 198.000 C 291.169 198.000,291.729 198.270,291.855 198.600 C 291.982 198.930,292.317 199.200,292.600 199.200 C 292.883 199.200,293.218 199.470,293.345 199.800 C 293.471 200.130,294.031 200.400,294.587 200.400 C 295.200 200.400,295.600 200.627,295.600 200.973 C 295.600 201.288,295.960 201.660,296.400 201.800 C 296.840 201.940,297.200 202.222,297.200 202.427 C 297.200 202.632,297.470 202.800,297.800 202.800 C 298.130 202.800,298.400 203.070,298.400 203.400 C 298.400 203.730,298.670 204.000,299.000 204.000 C 299.330 204.000,299.600 204.175,299.600 204.390 C 299.600 204.604,300.095 205.044,300.700 205.366 C 301.305 205.689,302.286 206.369,302.881 206.877 C 304.784 208.502,305.754 209.200,306.110 209.200 C 306.301 209.200,306.727 209.470,307.057 209.800 C 307.387 210.130,308.004 210.400,308.429 210.400 C 308.853 210.400,309.200 210.670,309.200 211.000 C 309.200 211.330,309.470 211.600,309.800 211.600 C 310.130 211.600,310.400 211.870,310.400 212.200 C 310.400 212.530,310.651 212.800,310.957 212.800 C 311.264 212.800,311.626 213.091,311.762 213.446 C 311.930 213.883,312.332 214.030,313.005 213.901 C 313.777 213.754,314.000 213.878,314.000 214.455 C 314.000 214.865,314.270 215.200,314.600 215.200 C 314.930 215.200,315.200 215.470,315.200 215.800 C 315.200 216.130,315.450 216.400,315.757 216.400 C 316.063 216.400,316.418 216.816,316.546 217.325 C 316.673 217.834,317.735 219.255,318.905 220.483 C 320.075 221.710,321.247 223.184,321.508 223.757 C 321.769 224.331,322.167 224.800,322.391 224.800 C 322.616 224.800,322.800 225.070,322.800 225.400 C 322.800 225.730,322.984 226.000,323.210 226.000 C 323.435 226.000,323.805 226.405,324.031 226.900 C 324.918 228.844,325.661 230.000,326.022 230.000 C 326.230 230.000,326.400 230.431,326.400 230.957 C 326.400 231.484,326.670 232.018,327.000 232.145 C 327.330 232.271,327.600 232.811,327.600 233.345 C 327.600 233.878,327.870 234.418,328.200 234.545 C 328.544 234.677,328.800 235.274,328.800 235.945 C 328.800 236.615,329.056 237.213,329.400 237.345 C 329.743 237.476,330.000 238.073,330.000 238.738 C 330.000 239.378,330.270 240.126,330.600 240.400 C 330.930 240.674,331.200 241.394,331.200 242.000 C 331.200 242.606,331.470 243.326,331.800 243.600 C 332.130 243.874,332.400 244.706,332.400 245.449 C 332.400 246.383,332.585 246.800,333.000 246.800 C 333.442 246.800,333.600 247.261,333.600 248.551 C 333.600 249.620,333.834 250.496,334.200 250.800 C 334.577 251.113,334.800 251.994,334.800 253.173 C 334.800 254.204,335.064 255.396,335.387 255.824 C 335.773 256.333,335.979 257.581,335.987 259.451 C 335.996 261.485,336.172 262.445,336.600 262.800 C 337.076 263.195,337.200 264.350,337.200 268.373 C 337.200 272.215,337.343 273.636,337.787 274.224 C 338.668 275.388,338.658 285.799,337.775 286.682 C 337.256 287.201,337.164 288.320,337.233 293.263 C 337.278 296.538,337.190 299.344,337.036 299.497 C 336.883 299.650,336.876 299.466,337.022 299.088 C 337.204 298.613,337.086 298.400,336.643 298.400 C 336.110 298.400,336.000 298.907,336.000 301.351 C 336.000 303.486,335.834 304.440,335.400 304.800 C 334.981 305.147,334.800 306.069,334.800 307.849 C 334.800 309.423,334.633 310.400,334.364 310.400 C 333.514 310.400,332.427 312.212,332.413 313.651 C 332.406 314.449,332.130 315.326,331.800 315.600 C 331.470 315.874,331.200 316.712,331.200 317.462 C 331.200 318.305,330.971 318.913,330.600 319.055 C 330.266 319.183,330.000 319.778,330.000 320.394 C 330.000 321.003,329.730 321.726,329.400 322.000 C 329.070 322.274,328.800 322.814,328.800 323.200 C 328.800 323.586,328.530 324.126,328.200 324.400 C 327.870 324.674,327.600 325.217,327.600 325.606 C 327.600 325.996,327.330 326.418,327.000 326.545 C 326.670 326.671,326.400 327.231,326.400 327.787 C 326.400 328.421,326.175 328.800,325.800 328.800 C 325.470 328.800,325.200 329.138,325.200 329.551 C 325.200 329.964,324.930 330.526,324.600 330.800 C 324.270 331.074,324.000 331.456,324.000 331.649 C 324.000 331.842,323.626 332.374,323.169 332.831 C 322.712 333.288,322.436 333.918,322.557 334.231 C 322.688 334.573,322.526 334.800,322.150 334.800 C 321.807 334.800,320.396 335.925,319.014 337.300 C 315.829 340.470,314.094 342.000,313.685 342.000 C 313.507 342.000,312.921 342.532,312.381 343.183 C 311.842 343.834,311.175 344.374,310.900 344.383 C 310.625 344.392,310.400 344.650,310.400 344.957 C 310.400 345.263,309.947 345.627,309.394 345.766 C 308.014 346.112,306.800 347.223,306.800 348.138 C 306.800 348.732,306.682 348.800,306.258 348.448 C 305.747 348.024,300.184 350.464,299.020 351.622 C 298.811 351.830,298.130 352.000,297.507 352.000 C 296.870 352.000,296.274 352.262,296.145 352.600 C 296.013 352.944,295.415 353.200,294.745 353.200 C 294.074 353.200,293.477 353.456,293.345 353.800 C 293.196 354.187,292.577 354.400,291.600 354.400 C 290.623 354.400,290.004 354.613,289.855 355.000 C 289.697 355.412,289.053 355.600,287.800 355.600 C 286.547 355.600,285.903 355.788,285.745 356.200 C 285.579 356.631,284.906 356.800,283.357 356.800 C 281.706 356.800,281.200 356.941,281.200 357.400 C 281.200 357.880,280.600 358.000,278.200 358.000 C 275.800 358.000,275.200 358.120,275.200 358.600 C 275.200 359.099,274.415 359.200,270.531 359.200 C 267.056 359.200,265.702 359.345,265.231 359.769 C 264.140 360.753,246.800 360.782,246.800 359.800 C 246.800 359.301,246.021 359.200,242.187 359.200 C 238.456 359.200,237.531 359.085,237.345 358.600 C 237.218 358.270,236.729 357.994,236.257 357.987 C 235.786 357.980,235.051 357.710,234.624 357.387 C 234.196 357.064,233.094 356.800,232.173 356.800 C 231.172 356.800,230.298 356.558,230.000 356.200 C 229.700 355.838,228.824 355.600,227.794 355.600 C 226.644 355.600,226.010 355.404,225.855 355.000 C 225.705 354.608,225.082 354.400,224.055 354.400 C 223.029 354.400,222.406 354.192,222.255 353.800 C 222.103 353.404,221.477 353.200,220.413 353.200 C 219.246 353.200,218.800 353.034,218.800 352.600 C 218.800 352.200,218.400 352.000,217.600 352.000 C 216.800 352.000,216.400 351.800,216.400 351.400 C 216.400 351.070,216.152 350.800,215.849 350.800 C 215.546 350.800,215.059 350.512,214.768 350.161 C 214.390 349.706,213.842 349.586,212.864 349.745 C 211.674 349.938,211.585 349.899,212.196 349.453 C 213.004 348.862,210.662 347.156,208.900 347.053 C 208.330 347.019,208.000 346.743,208.000 346.300 C 208.000 345.915,207.730 345.600,207.400 345.600 C 207.070 345.600,206.800 345.338,206.800 345.018 C 206.800 344.698,205.630 343.243,204.200 341.785 C 202.770 340.327,201.600 339.058,201.600 338.967 C 201.600 338.626,199.986 337.200,199.600 337.200 C 199.380 337.200,199.200 336.930,199.200 336.600 C 199.200 336.270,198.930 336.000,198.600 336.000 C 198.264 336.000,198.000 335.643,198.000 335.187 C 198.000 334.741,197.730 334.271,197.400 334.145 C 197.070 334.018,196.800 333.574,196.800 333.157 C 196.800 332.741,196.530 332.400,196.200 332.400 C 195.870 332.400,195.600 332.130,195.600 331.800 C 195.600 331.470,195.330 331.200,195.000 331.200 C 194.600 331.200,194.400 330.800,194.400 330.000 C 194.400 329.200,194.200 328.800,193.800 328.800 C 193.425 328.800,193.200 328.421,193.200 327.787 C 193.200 327.231,192.930 326.671,192.600 326.545 C 192.270 326.418,192.000 325.878,192.000 325.345 C 192.000 324.811,191.730 324.271,191.400 324.145 C 191.070 324.018,190.800 323.478,190.800 322.945 C 190.800 322.411,190.530 321.871,190.200 321.745 C 189.870 321.618,189.600 321.078,189.600 320.545 C 189.600 320.011,189.330 319.471,189.000 319.345 C 188.670 319.218,188.400 318.706,188.400 318.206 C 188.400 317.707,188.130 317.074,187.800 316.800 C 187.470 316.526,187.200 315.868,187.200 315.338 C 187.200 314.809,186.930 314.271,186.600 314.145 C 186.263 314.015,186.000 313.420,186.000 312.786 C 186.000 312.165,185.730 311.387,185.400 311.057 C 185.070 310.727,184.800 309.917,184.800 309.257 C 184.800 308.597,184.530 307.787,184.200 307.457 C 183.870 307.127,183.600 306.377,183.600 305.790 C 183.600 305.204,183.341 304.246,183.024 303.662 C 182.707 303.078,182.339 301.925,182.206 301.100 C 182.073 300.275,181.792 299.600,181.582 299.600 C 181.372 299.600,181.200 298.914,181.200 298.076 C 181.200 297.239,180.936 296.204,180.613 295.776 C 180.290 295.349,180.020 294.307,180.013 293.460 C 180.006 292.614,179.747 291.354,179.437 290.660 C 179.128 289.967,178.779 288.353,178.663 287.072 C 178.547 285.792,178.285 284.532,178.081 284.272 C 177.876 284.013,177.590 282.458,177.444 280.817 C 177.298 279.177,177.030 277.737,176.848 277.617 C 176.666 277.498,176.414 275.247,176.287 272.616 C 176.111 268.953,175.912 267.725,175.438 267.379 C 174.458 266.662,174.419 241.084,175.396 240.005 C 175.765 239.596,176.169 238.483,176.292 237.531 C 176.416 236.579,176.761 235.445,177.058 235.011 C 177.356 234.577,177.600 233.841,177.600 233.375 C 177.600 232.860,177.992 232.350,178.600 232.073 C 179.150 231.822,179.600 231.293,179.600 230.897 C 179.600 230.502,179.960 229.870,180.400 229.493 C 180.840 229.116,181.200 228.446,181.200 228.004 C 181.200 227.556,181.466 227.200,181.800 227.200 C 182.130 227.200,182.400 227.007,182.400 226.771 C 182.400 226.536,182.670 226.073,183.000 225.743 C 183.330 225.413,183.600 224.796,183.600 224.371 C 183.600 223.947,183.870 223.600,184.200 223.600 C 184.530 223.600,184.800 223.330,184.800 223.000 C 184.800 222.670,185.070 222.400,185.400 222.400 C 185.730 222.400,186.000 222.130,186.000 221.800 C 186.000 221.470,186.172 221.200,186.383 221.200 C 186.594 221.200,187.241 220.390,187.821 219.400 C 188.401 218.410,189.039 217.600,189.238 217.600 C 189.437 217.600,189.600 217.330,189.600 217.000 C 189.600 216.670,189.870 216.400,190.200 216.400 C 190.530 216.400,190.800 216.130,190.800 215.800 C 190.800 215.470,191.070 215.200,191.400 215.200 C 191.730 215.200,192.000 214.930,192.000 214.600 C 192.000 214.270,192.180 214.000,192.400 214.000 C 192.620 214.000,193.139 213.685,193.554 213.300 C 193.968 212.915,195.246 211.790,196.393 210.800 C 197.541 209.810,199.008 208.505,199.654 207.900 C 200.299 207.295,200.908 206.800,201.007 206.800 C 201.105 206.800,201.834 206.170,202.627 205.400 C 203.420 204.630,204.304 204.000,204.592 204.000 C 204.879 204.000,205.218 203.730,205.345 203.400 C 205.471 203.070,205.758 202.800,205.983 202.800 C 206.602 202.800,208.000 201.490,208.000 200.911 C 208.000 200.609,208.495 200.400,209.213 200.400 C 209.921 200.400,210.521 200.151,210.655 199.800 C 210.782 199.470,211.232 199.200,211.655 199.200 C 212.079 199.200,212.529 198.930,212.655 198.600 C 212.782 198.270,213.232 198.000,213.655 198.000 C 214.079 198.000,214.529 197.730,214.655 197.400 C 214.782 197.070,215.226 196.800,215.643 196.800 C 216.059 196.800,216.400 196.530,216.400 196.200 C 216.400 195.825,216.779 195.600,217.413 195.600 C 217.969 195.600,218.529 195.330,218.655 195.000 C 218.782 194.670,219.136 194.400,219.443 194.400 C 219.749 194.400,220.000 194.130,220.000 193.800 C 220.000 193.400,220.400 193.200,221.200 193.200 C 222.000 193.200,222.400 193.000,222.400 192.600 C 222.400 192.200,222.800 192.000,223.600 192.000 C 224.400 192.000,224.800 191.800,224.800 191.400 C 224.800 190.966,225.246 190.800,226.413 190.800 C 227.477 190.800,228.103 190.596,228.255 190.200 C 228.406 189.808,229.029 189.600,230.055 189.600 C 231.082 189.600,231.705 189.392,231.855 189.000 C 232.012 188.592,232.651 188.400,233.855 188.400 C 235.059 188.400,235.699 188.208,235.855 187.800 C 236.026 187.355,236.733 187.200,238.594 187.200 C 240.335 187.200,241.254 187.017,241.600 186.600 C 242.020 186.094,243.798 186.000,253.006 186.000 C 262.333 186.000,263.948 186.087,264.145 186.600 M236.400 199.505 C 235.850 199.589,235.191 199.927,234.935 200.257 C 234.620 200.663,233.749 200.857,232.235 200.857 C 230.565 200.857,230.000 201.002,230.000 201.429 C 230.000 201.860,229.413 202.000,227.600 202.000 C 225.733 202.000,225.200 202.133,225.200 202.600 C 225.200 203.044,224.733 203.200,223.400 203.200 C 222.067 203.200,221.600 203.356,221.600 203.800 C 221.600 204.201,221.199 204.400,220.387 204.400 C 219.679 204.400,219.079 204.649,218.945 205.000 C 218.818 205.330,218.278 205.600,217.745 205.600 C 217.211 205.600,216.678 205.854,216.559 206.164 C 216.439 206.474,215.905 206.837,215.371 206.972 C 214.837 207.106,214.400 207.392,214.400 207.608 C 214.400 207.823,214.040 208.000,213.600 208.000 C 213.156 208.000,212.800 208.267,212.800 208.600 C 212.800 208.930,212.549 209.200,212.243 209.200 C 211.936 209.200,211.582 209.470,211.455 209.800 C 211.329 210.130,210.782 210.400,210.241 210.400 C 209.700 210.400,208.987 210.670,208.657 211.000 C 208.327 211.330,207.859 211.600,207.616 211.600 C 207.373 211.600,207.071 211.870,206.945 212.200 C 206.818 212.530,206.464 212.800,206.157 212.800 C 205.851 212.800,205.600 213.070,205.600 213.400 C 205.600 213.730,205.330 214.000,205.000 214.000 C 204.670 214.000,204.400 214.270,204.400 214.600 C 204.400 214.930,204.130 215.200,203.800 215.200 C 203.470 215.200,203.200 215.470,203.200 215.800 C 203.200 216.130,202.930 216.400,202.600 216.400 C 202.270 216.400,202.000 216.670,202.000 217.000 C 202.000 217.330,201.730 217.600,201.400 217.600 C 201.070 217.600,200.800 217.851,200.800 218.157 C 200.800 218.464,200.530 218.818,200.200 218.945 C 199.870 219.071,199.600 219.451,199.600 219.787 C 199.600 220.124,199.330 220.400,199.000 220.400 C 198.479 220.400,198.171 221.428,198.363 222.530 C 198.394 222.711,198.258 222.760,198.061 222.638 C 197.608 222.358,195.552 224.799,195.844 225.270 C 195.962 225.463,195.888 225.570,195.678 225.510 C 195.227 225.380,193.200 227.458,193.200 228.049 C 193.200 228.274,192.930 228.727,192.600 229.057 C 192.270 229.387,192.000 230.004,192.000 230.429 C 192.000 230.853,191.730 231.200,191.400 231.200 C 191.025 231.200,190.800 231.579,190.800 232.213 C 190.800 232.769,190.530 233.329,190.200 233.455 C 189.870 233.582,189.600 233.949,189.600 234.271 C 189.600 234.594,189.330 235.127,189.000 235.457 C 188.670 235.787,188.400 236.485,188.400 237.009 C 188.400 237.532,188.102 238.127,187.738 238.331 C 187.334 238.557,187.175 238.958,187.330 239.362 C 187.485 239.766,187.277 240.284,186.792 240.700 C 186.090 241.301,186.000 241.889,186.000 245.889 L 186.000 250.400 187.957 250.400 C 189.328 250.400,189.983 250.580,190.145 251.000 C 190.271 251.330,190.836 251.600,191.400 251.600 C 191.964 251.600,192.529 251.330,192.655 251.000 C 192.782 250.670,193.226 250.400,193.643 250.400 C 194.217 250.400,194.400 250.111,194.400 249.200 C 194.400 248.400,194.600 248.000,195.000 248.000 C 195.444 248.000,195.600 247.533,195.600 246.200 C 195.600 244.867,195.756 244.400,196.200 244.400 C 196.600 244.400,196.800 244.000,196.800 243.200 C 196.800 242.400,197.000 242.000,197.400 242.000 C 197.800 242.000,198.000 241.600,198.000 240.800 C 198.000 240.000,198.200 239.600,198.600 239.600 C 198.930 239.600,199.208 239.285,199.217 238.900 C 199.226 238.515,199.766 237.758,200.417 237.219 C 201.068 236.679,201.600 236.015,201.600 235.743 C 201.600 235.472,202.140 234.658,202.800 233.936 C 203.460 233.213,204.000 232.405,204.000 232.139 C 204.000 231.874,204.225 231.419,204.500 231.128 C 205.472 230.100,208.000 226.862,208.000 226.646 C 208.000 226.526,208.495 225.908,209.100 225.273 C 209.705 224.637,210.465 223.731,210.788 223.259 C 211.112 222.786,211.523 222.400,211.702 222.400 C 211.881 222.400,212.535 221.880,213.156 221.245 C 213.777 220.610,214.670 219.968,215.142 219.818 C 215.614 219.669,216.000 219.378,216.000 219.173 C 216.000 218.968,216.276 218.800,216.613 218.800 C 216.949 218.800,217.329 218.530,217.455 218.200 C 217.582 217.870,217.936 217.600,218.243 217.600 C 218.549 217.600,218.800 217.330,218.800 217.000 C 218.800 216.625,219.179 216.400,219.813 216.400 C 220.369 216.400,220.929 216.130,221.055 215.800 C 221.182 215.470,221.616 215.200,222.019 215.200 C 222.423 215.200,222.854 215.036,222.979 214.835 C 223.306 214.305,226.532 212.800,227.339 212.800 C 227.716 212.800,228.129 212.530,228.255 212.200 C 228.396 211.833,229.002 211.600,229.814 211.600 C 230.545 211.600,231.413 211.330,231.743 211.000 C 232.116 210.627,233.098 210.400,234.343 210.400 C 235.587 210.400,236.570 210.173,236.943 209.800 C 237.426 209.317,238.785 209.200,243.922 209.200 C 248.858 209.200,250.406 209.075,250.760 208.648 C 251.012 208.345,251.757 207.989,252.416 207.857 C 254.624 207.415,255.269 202.654,253.393 200.631 L 252.387 199.545 244.893 199.449 C 240.772 199.397,236.950 199.422,236.400 199.505 M100.800 306.200 C 100.800 306.680,100.200 306.800,97.800 306.800 C 95.400 306.800,94.800 306.920,94.800 307.400 C 94.800 307.845,94.332 308.000,92.987 308.000 C 91.745 308.000,91.102 308.189,90.945 308.600 C 90.813 308.942,90.217 309.200,89.557 309.200 C 88.795 309.200,88.400 309.405,88.400 309.800 C 88.400 310.195,88.005 310.400,87.243 310.400 C 86.583 310.400,85.987 310.658,85.855 311.000 C 85.729 311.330,85.169 311.600,84.613 311.600 C 83.979 311.600,83.600 311.825,83.600 312.200 C 83.600 312.530,83.262 312.800,82.849 312.800 C 82.436 312.800,81.889 313.052,81.633 313.361 C 81.377 313.669,80.725 314.033,80.184 314.168 C 79.643 314.304,79.200 314.592,79.200 314.808 C 79.200 315.023,78.924 315.200,78.587 315.200 C 78.251 315.200,77.878 315.454,77.759 315.764 C 77.639 316.074,77.147 316.427,76.665 316.548 C 76.182 316.669,74.406 318.080,72.718 319.684 C 71.031 321.288,68.919 323.272,68.025 324.094 C 67.131 324.915,66.400 325.770,66.400 325.994 C 66.400 326.217,66.044 326.400,65.609 326.400 C 64.628 326.400,60.400 330.429,60.400 331.363 C 60.400 331.739,60.225 331.939,60.012 331.807 C 59.798 331.675,59.509 332.025,59.368 332.584 C 59.228 333.143,58.863 333.600,58.557 333.600 C 58.250 333.600,58.000 333.851,58.000 334.157 C 58.000 334.464,57.730 334.818,57.400 334.945 C 57.070 335.071,56.800 335.631,56.800 336.187 C 56.800 336.821,56.575 337.200,56.200 337.200 C 55.825 337.200,55.600 337.579,55.600 338.213 C 55.600 338.769,55.330 339.329,55.000 339.455 C 54.665 339.584,54.400 340.178,54.400 340.800 C 54.400 341.422,54.135 342.016,53.800 342.145 C 53.392 342.301,53.200 342.941,53.200 344.145 C 53.200 345.381,53.011 345.987,52.575 346.154 C 52.231 346.286,52.049 346.555,52.170 346.752 C 52.292 346.948,52.033 347.203,51.596 347.317 C 50.518 347.599,50.330 375.512,51.400 376.400 C 51.855 376.778,52.000 377.803,52.000 380.649 C 52.000 383.717,52.109 384.400,52.600 384.400 C 53.075 384.400,53.200 384.972,53.200 387.151 C 53.200 389.108,53.373 390.046,53.800 390.400 C 54.198 390.730,54.400 391.626,54.400 393.062 C 54.400 394.616,54.569 395.290,55.000 395.455 C 55.407 395.612,55.600 396.250,55.600 397.443 C 55.600 398.738,55.758 399.200,56.200 399.200 C 56.644 399.200,56.800 399.667,56.800 401.000 C 56.800 402.333,56.956 402.800,57.400 402.800 C 57.817 402.800,58.000 403.219,58.000 404.171 C 58.000 404.926,58.270 405.813,58.600 406.143 C 58.930 406.473,59.200 407.184,59.200 407.722 C 59.200 408.261,59.470 408.926,59.800 409.200 C 60.130 409.474,60.400 410.113,60.400 410.620 C 60.400 411.128,60.640 411.782,60.933 412.075 C 61.225 412.368,61.589 413.101,61.740 413.704 C 61.891 414.307,62.192 414.800,62.408 414.800 C 62.623 414.800,62.800 415.076,62.800 415.413 C 62.800 415.749,63.070 416.129,63.400 416.255 C 63.730 416.382,64.000 416.922,64.000 417.455 C 64.000 417.989,64.270 418.529,64.600 418.655 C 64.930 418.782,65.200 419.136,65.200 419.443 C 65.200 419.749,65.470 420.000,65.800 420.000 C 66.130 420.000,66.400 420.272,66.400 420.604 C 66.400 420.936,66.760 421.516,67.200 421.893 C 67.640 422.270,68.000 422.716,68.000 422.886 C 68.000 423.385,71.387 427.200,71.831 427.200 C 71.979 427.200,72.953 428.055,73.996 429.100 C 76.293 431.401,77.590 432.400,78.281 432.400 C 78.567 432.400,78.800 432.670,78.800 433.000 C 78.800 433.370,79.176 433.600,79.780 433.600 C 80.319 433.600,80.904 433.825,81.080 434.100 C 81.594 434.903,83.835 436.000,84.962 436.000 C 85.618 436.000,86.000 436.221,86.000 436.600 C 86.000 437.000,86.400 437.200,87.203 437.200 C 87.906 437.200,89.097 437.700,90.063 438.400 C 91.403 439.370,92.122 439.600,93.817 439.600 C 95.312 439.600,95.981 439.772,96.145 440.200 C 96.328 440.679,97.193 440.800,100.416 440.800 C 103.475 440.800,104.603 440.946,105.057 441.400 C 105.540 441.883,106.902 442.000,112.057 442.000 C 117.213 442.000,118.574 441.883,119.057 441.400 C 119.517 440.940,120.676 440.800,124.029 440.800 C 127.648 440.800,128.400 440.697,128.400 440.200 C 128.400 439.733,128.935 439.600,130.813 439.600 C 132.588 439.600,133.286 439.442,133.455 439.000 C 133.615 438.583,134.267 438.400,135.594 438.400 C 136.802 438.400,137.685 438.180,138.000 437.800 C 138.274 437.470,138.982 437.200,139.573 437.200 C 140.164 437.200,140.996 436.936,141.424 436.613 C 141.851 436.290,142.611 436.020,143.113 436.013 C 143.614 436.006,144.129 435.730,144.255 435.400 C 144.382 435.070,144.907 434.800,145.423 434.800 C 145.938 434.800,146.504 434.575,146.680 434.300 C 146.856 434.025,147.716 433.440,148.590 433.000 C 149.465 432.560,150.469 431.916,150.821 431.569 C 151.173 431.222,152.303 430.531,153.331 430.033 C 154.359 429.536,155.200 428.965,155.200 428.764 C 155.200 428.564,155.373 428.400,155.585 428.400 C 156.207 428.400,160.668 423.815,161.374 422.451 C 161.729 421.763,162.196 421.200,162.410 421.200 C 162.625 421.200,162.800 421.007,162.800 420.771 C 162.800 420.536,163.070 420.073,163.400 419.743 C 163.730 419.413,164.000 418.815,164.000 418.414 C 164.000 418.013,164.270 417.582,164.600 417.455 C 164.930 417.329,165.200 416.769,165.200 416.213 C 165.200 415.548,165.422 415.200,165.845 415.200 C 166.335 415.200,166.448 414.910,166.315 414.000 C 166.190 413.149,166.303 412.800,166.705 412.800 C 167.515 412.800,168.771 411.163,168.787 410.087 C 168.794 409.586,169.070 409.071,169.400 408.945 C 170.074 408.686,170.256 406.000,169.600 406.000 C 169.380 406.000,169.200 405.820,169.200 405.600 C 169.200 405.380,169.335 405.221,169.500 405.247 C 170.992 405.483,171.200 405.189,171.200 402.843 C 171.200 401.090,171.358 400.425,171.816 400.249 C 172.309 400.060,172.418 399.363,172.362 396.753 C 172.305 394.102,172.415 393.424,172.946 393.126 C 173.476 392.830,173.600 392.076,173.600 389.157 C 173.600 386.390,173.484 385.618,173.100 385.835 C 172.700 386.061,172.700 386.010,173.100 385.579 C 173.906 384.710,173.812 364.856,173.000 364.545 C 172.537 364.367,172.400 363.595,172.400 361.157 C 172.400 358.617,172.283 358.000,171.800 358.000 C 171.333 358.000,171.200 357.467,171.200 355.600 C 171.200 353.733,171.067 353.200,170.600 353.200 C 170.158 353.200,170.000 352.739,170.000 351.449 C 170.000 350.380,169.766 349.504,169.400 349.200 C 169.070 348.926,168.800 348.088,168.800 347.338 C 168.800 346.495,168.571 345.887,168.200 345.745 C 167.858 345.613,167.600 345.017,167.600 344.357 C 167.600 343.595,167.395 343.200,167.000 343.200 C 166.600 343.200,166.400 342.800,166.400 342.000 C 166.400 341.200,166.200 340.800,165.800 340.800 C 165.400 340.800,165.200 340.400,165.200 339.600 C 165.200 338.800,165.000 338.400,164.600 338.400 C 164.270 338.400,164.000 338.143,164.000 337.829 C 164.000 337.514,163.760 337.018,163.467 336.725 C 163.175 336.432,162.819 335.730,162.677 335.165 C 162.535 334.600,161.965 333.647,161.410 333.048 C 160.854 332.449,160.400 331.788,160.400 331.579 C 160.400 331.371,160.130 331.200,159.800 331.200 C 159.470 331.200,159.200 330.930,159.200 330.600 C 159.200 330.270,158.930 330.000,158.600 330.000 C 158.270 330.000,158.000 329.730,158.000 329.400 C 158.000 329.070,157.730 328.800,157.400 328.800 C 157.070 328.800,156.800 328.530,156.800 328.200 C 156.800 327.870,156.614 327.600,156.387 327.600 C 156.159 327.600,155.445 327.060,154.800 326.400 C 154.155 325.740,153.441 325.200,153.213 325.200 C 152.986 325.200,152.800 325.025,152.800 324.810 C 152.800 324.596,152.305 324.156,151.700 323.834 C 151.095 323.511,150.060 322.775,149.400 322.197 C 148.740 321.620,147.604 320.665,146.875 320.074 C 146.146 319.483,145.201 318.685,144.775 318.300 C 144.349 317.915,143.897 317.600,143.771 317.600 C 143.646 317.600,143.273 317.330,142.943 317.000 C 142.613 316.670,141.996 316.400,141.571 316.400 C 141.147 316.400,140.800 316.130,140.800 315.800 C 140.800 315.467,140.444 315.200,140.000 315.200 C 139.560 315.200,139.200 315.023,139.200 314.808 C 139.200 314.592,138.763 314.306,138.229 314.172 C 137.695 314.037,137.161 313.674,137.041 313.364 C 136.922 313.054,136.369 312.800,135.813 312.800 C 135.179 312.800,134.800 312.575,134.800 312.200 C 134.800 311.805,134.405 311.600,133.643 311.600 C 132.983 311.600,132.387 311.342,132.255 311.000 C 132.121 310.649,131.521 310.400,130.813 310.400 C 130.001 310.400,129.600 310.201,129.600 309.800 C 129.600 309.358,129.138 309.200,127.843 309.200 C 126.650 309.200,126.012 309.007,125.855 308.600 C 125.729 308.270,125.247 308.000,124.784 308.000 C 124.321 308.000,123.673 307.730,123.343 307.400 C 123.013 307.070,122.113 306.800,121.343 306.800 C 120.573 306.800,119.673 306.530,119.343 306.200 C 118.845 305.702,117.213 305.600,109.771 305.600 C 102.063 305.600,100.800 305.685,100.800 306.200 M118.292 317.034 C 118.742 317.485,119.488 317.630,120.863 317.534 C 122.493 317.421,122.800 317.511,122.800 318.100 C 122.800 318.663,123.152 318.800,124.600 318.800 C 125.933 318.800,126.400 318.956,126.400 319.400 C 126.400 319.800,126.800 320.000,127.600 320.000 C 128.400 320.000,128.800 320.200,128.800 320.600 C 128.800 320.930,129.141 321.200,129.557 321.200 C 129.974 321.200,130.418 321.470,130.545 321.800 C 130.671 322.130,131.141 322.400,131.587 322.400 C 132.043 322.400,132.400 322.664,132.400 323.000 C 132.400 323.400,132.800 323.600,133.600 323.600 C 134.400 323.600,134.800 323.800,134.800 324.200 C 134.800 324.530,134.975 324.800,135.189 324.800 C 135.404 324.800,136.389 325.610,137.379 326.600 C 138.369 327.590,139.281 328.400,139.406 328.400 C 139.621 328.400,141.974 329.973,142.400 330.401 C 142.510 330.512,143.365 331.121,144.300 331.756 C 145.235 332.390,146.000 333.064,146.000 333.254 C 146.000 333.444,146.255 333.600,146.567 333.600 C 146.878 333.600,147.193 333.735,147.267 333.900 C 147.469 334.355,149.910 336.000,150.384 336.000 C 150.613 336.000,150.800 336.270,150.800 336.600 C 150.800 336.930,151.070 337.200,151.400 337.200 C 151.730 337.200,152.000 337.476,152.000 337.813 C 152.000 338.149,152.270 338.529,152.600 338.655 C 152.930 338.782,153.200 339.232,153.200 339.655 C 153.200 340.079,153.470 340.529,153.800 340.655 C 154.130 340.782,154.400 341.322,154.400 341.855 C 154.400 342.389,154.670 342.929,155.000 343.055 C 155.330 343.182,155.600 343.514,155.600 343.794 C 155.600 344.073,155.870 344.526,156.200 344.800 C 156.530 345.074,156.800 345.636,156.800 346.049 C 156.800 346.462,157.070 346.800,157.400 346.800 C 157.800 346.800,158.000 347.200,158.000 348.000 C 158.000 348.800,158.200 349.200,158.600 349.200 C 159.017 349.200,159.200 349.619,159.200 350.571 C 159.200 351.326,159.470 352.213,159.800 352.543 C 160.130 352.873,160.400 353.611,160.400 354.184 C 160.400 354.757,160.670 355.329,161.000 355.455 C 161.428 355.620,161.600 356.289,161.600 357.794 C 161.600 359.180,161.806 360.073,162.200 360.400 C 162.619 360.748,162.800 361.671,162.800 363.462 C 162.800 365.371,162.953 366.084,163.400 366.255 C 163.915 366.453,164.000 368.200,164.000 378.594 C 164.000 388.869,163.909 390.777,163.400 391.200 C 162.980 391.549,162.800 392.473,162.800 394.280 C 162.800 396.615,162.685 396.976,161.600 398.062 C 160.592 399.070,160.400 399.576,160.400 401.231 C 160.400 402.715,160.252 403.200,159.800 403.200 C 159.406 403.200,159.200 403.595,159.200 404.351 C 159.200 404.984,158.930 405.726,158.600 406.000 C 158.270 406.274,158.000 406.926,158.000 407.449 C 158.000 407.972,157.838 408.400,157.639 408.400 C 157.441 408.400,157.090 408.940,156.860 409.600 C 156.630 410.260,156.252 410.800,156.021 410.800 C 155.789 410.800,155.600 411.250,155.600 411.800 C 155.600 412.422,155.373 412.800,155.000 412.800 C 154.670 412.800,154.400 413.051,154.400 413.357 C 154.400 413.664,154.130 414.018,153.800 414.145 C 153.470 414.271,153.200 414.651,153.200 414.987 C 153.200 415.324,152.990 415.600,152.733 415.600 C 152.477 415.600,152.376 415.709,152.510 415.843 C 152.748 416.081,147.640 421.200,147.164 421.200 C 147.031 421.200,146.552 421.515,146.099 421.900 C 144.607 423.167,142.791 424.314,140.939 425.158 C 140.465 425.374,139.960 425.742,139.815 425.975 C 139.671 426.209,139.198 426.400,138.764 426.400 C 138.330 426.400,137.871 426.670,137.745 427.000 C 137.603 427.370,136.995 427.600,136.157 427.600 C 135.217 427.600,134.800 427.785,134.800 428.200 C 134.800 428.634,134.354 428.800,133.187 428.800 C 132.123 428.800,131.497 429.004,131.345 429.400 C 131.176 429.839,130.484 430.000,128.757 430.000 C 126.929 430.000,126.400 430.135,126.400 430.600 C 126.400 431.088,125.738 431.200,122.843 431.200 C 120.050 431.200,119.236 431.329,119.055 431.800 C 118.865 432.295,117.816 432.400,113.062 432.400 C 108.426 432.400,107.200 432.283,106.800 431.800 C 106.526 431.470,105.986 431.200,105.600 431.200 C 105.214 431.200,104.674 430.930,104.400 430.600 C 104.041 430.168,103.092 430.000,101.000 430.000 C 98.908 430.000,97.959 429.832,97.600 429.400 C 97.273 429.006,96.381 428.800,95.000 428.800 C 93.619 428.800,92.727 428.594,92.400 428.200 C 92.126 427.870,91.403 427.600,90.794 427.600 C 90.178 427.600,89.583 427.334,89.455 427.000 C 89.329 426.670,88.789 426.400,88.255 426.400 C 87.722 426.400,87.182 426.130,87.055 425.800 C 86.929 425.470,86.577 425.200,86.274 425.200 C 85.971 425.200,85.355 424.885,84.907 424.500 C 84.458 424.115,83.405 423.260,82.567 422.600 C 79.446 420.142,76.909 417.172,76.160 415.100 C 76.021 414.715,75.743 414.400,75.543 414.400 C 75.344 414.400,74.995 413.995,74.769 413.500 C 73.882 411.556,73.139 410.400,72.778 410.400 C 72.570 410.400,72.400 409.969,72.400 409.443 C 72.400 408.916,72.130 408.382,71.800 408.255 C 71.470 408.129,71.200 407.771,71.200 407.462 C 71.200 407.152,70.930 406.674,70.600 406.400 C 70.270 406.126,70.000 405.485,70.000 404.975 C 70.000 404.465,69.836 403.946,69.635 403.821 C 69.140 403.516,67.600 400.292,67.600 399.563 C 67.600 399.241,67.345 398.614,67.033 398.169 C 66.721 397.723,66.341 396.691,66.188 395.875 C 66.035 395.059,65.750 394.293,65.555 394.172 C 65.360 394.051,65.200 393.612,65.200 393.196 C 65.200 392.780,64.894 392.268,64.519 392.059 C 63.938 391.734,63.918 391.581,64.379 391.025 C 65.014 390.260,64.272 388.400,63.332 388.400 C 62.681 388.400,62.626 386.734,63.257 386.103 C 63.723 385.637,62.829 383.112,62.022 382.613 C 61.825 382.492,61.925 381.871,62.243 381.234 C 62.840 380.038,62.647 377.000,61.947 376.568 C 61.756 376.449,61.600 373.856,61.600 370.805 C 61.600 366.407,61.476 365.133,61.000 364.657 C 60.533 364.190,60.400 362.984,60.400 359.200 C 60.400 355.416,60.533 354.210,61.000 353.743 C 61.367 353.375,61.600 352.395,61.600 351.214 C 61.600 349.869,61.781 349.216,62.200 349.055 C 62.546 348.922,62.800 348.325,62.800 347.641 C 62.800 346.990,63.089 346.168,63.443 345.814 C 63.837 345.420,64.022 344.734,63.921 344.043 C 63.785 343.114,63.883 342.949,64.478 343.104 C 64.939 343.225,65.200 343.075,65.200 342.689 C 65.200 342.357,65.470 341.982,65.800 341.855 C 66.130 341.729,66.400 341.169,66.400 340.613 C 66.400 339.979,66.625 339.600,67.000 339.600 C 67.330 339.600,67.600 339.330,67.600 339.000 C 67.600 338.670,67.870 338.400,68.200 338.400 C 68.530 338.400,68.800 338.130,68.800 337.800 C 68.800 337.470,68.971 337.200,69.181 337.200 C 69.390 337.200,70.515 336.287,71.681 335.172 C 74.570 332.406,75.032 332.000,75.288 332.000 C 75.409 332.000,76.630 330.920,78.000 329.600 C 79.370 328.280,80.700 327.200,80.956 327.200 C 81.212 327.200,82.013 326.660,82.736 326.000 C 83.458 325.340,84.218 324.800,84.425 324.800 C 84.631 324.800,84.800 324.530,84.800 324.200 C 84.800 323.802,85.198 323.600,85.980 323.600 C 86.629 323.600,87.304 323.375,87.480 323.100 C 87.875 322.483,89.049 321.727,90.500 321.155 C 91.105 320.917,91.600 320.559,91.600 320.361 C 91.600 320.162,91.947 320.000,92.371 320.000 C 92.796 320.000,93.413 319.730,93.743 319.400 C 94.073 319.070,94.811 318.800,95.384 318.800 C 95.957 318.800,96.529 318.530,96.655 318.200 C 96.809 317.798,97.441 317.600,98.566 317.600 C 99.491 317.600,100.596 317.336,101.024 317.013 C 102.216 316.111,117.387 316.130,118.292 317.034 M100.000 327.000 C 99.696 327.366,98.820 327.600,97.751 327.600 C 96.461 327.600,96.000 327.758,96.000 328.200 C 96.000 328.634,95.554 328.800,94.387 328.800 C 93.323 328.800,92.697 329.004,92.545 329.400 C 92.418 329.730,91.878 330.000,91.345 330.000 C 90.811 330.000,90.271 330.270,90.145 330.600 C 90.018 330.930,89.574 331.200,89.157 331.200 C 88.741 331.200,88.400 331.470,88.400 331.800 C 88.400 332.137,88.043 332.400,87.584 332.400 C 86.051 332.400,80.000 337.389,80.000 338.653 C 80.000 338.907,79.730 339.218,79.400 339.345 C 79.070 339.471,78.800 339.851,78.800 340.187 C 78.800 340.524,78.530 340.800,78.200 340.800 C 77.870 340.800,77.600 341.051,77.600 341.357 C 77.600 341.664,77.330 342.018,77.000 342.145 C 76.670 342.271,76.400 342.831,76.400 343.387 C 76.400 344.021,76.175 344.400,75.800 344.400 C 75.470 344.400,75.200 344.605,75.200 344.856 C 75.200 345.107,74.913 345.522,74.563 345.778 C 74.212 346.034,73.897 346.712,73.863 347.284 C 73.828 347.855,73.685 348.252,73.545 348.166 C 73.131 347.910,72.308 349.128,72.589 349.582 C 72.731 349.812,72.567 350.000,72.224 350.000 C 71.881 350.000,71.600 350.270,71.600 350.600 C 71.600 350.930,71.434 351.155,71.230 351.100 C 70.785 350.979,68.805 354.562,68.787 355.521 C 68.780 355.895,68.510 356.549,68.187 356.976 C 65.320 360.768,70.231 367.760,74.369 365.777 C 75.261 365.350,76.001 364.820,76.012 364.600 C 76.024 364.380,76.566 363.758,77.217 363.219 C 77.868 362.679,78.400 361.956,78.400 361.613 C 78.400 361.269,78.760 360.316,79.200 359.496 C 79.640 358.675,80.000 357.754,80.000 357.450 C 80.000 357.147,80.270 356.674,80.600 356.400 C 80.930 356.126,81.200 355.558,81.200 355.138 C 81.200 354.719,81.432 354.286,81.715 354.177 C 81.998 354.069,82.583 353.176,83.015 352.194 C 83.447 351.211,84.025 350.406,84.300 350.404 C 84.575 350.402,84.800 350.149,84.800 349.843 C 84.800 349.536,85.070 349.182,85.400 349.055 C 85.730 348.929,86.000 348.549,86.000 348.213 C 86.000 347.876,86.177 347.600,86.392 347.600 C 86.608 347.600,86.898 347.150,87.036 346.600 C 87.174 346.050,87.537 345.600,87.843 345.600 C 88.150 345.600,88.400 345.330,88.400 345.000 C 88.400 344.670,88.651 344.400,88.957 344.400 C 89.264 344.400,89.618 344.130,89.745 343.800 C 89.871 343.470,90.346 343.200,90.800 343.200 C 91.254 343.200,91.729 342.930,91.855 342.600 C 91.982 342.270,92.404 342.000,92.794 342.000 C 93.183 342.000,93.726 341.730,94.000 341.400 C 94.274 341.070,94.746 340.800,95.049 340.800 C 95.352 340.800,95.600 340.623,95.600 340.408 C 95.600 340.192,96.093 339.891,96.696 339.740 C 97.299 339.589,98.032 339.225,98.325 338.933 C 98.618 338.640,99.344 338.400,99.940 338.400 C 100.535 338.400,101.377 338.156,101.811 337.859 C 102.312 337.515,104.411 337.229,107.563 337.075 C 110.293 336.942,112.714 336.646,112.943 336.417 C 113.173 336.187,113.639 335.994,113.980 335.987 C 116.147 335.940,117.788 328.508,115.800 327.745 C 115.470 327.618,115.200 327.264,115.200 326.957 C 115.200 326.101,100.713 326.141,100.000 327.000 M197.457 435.400 C 197.058 435.799,196.059 436.000,194.471 436.000 C 192.720 436.000,192.024 436.159,191.855 436.600 C 191.704 436.994,191.080 437.200,190.041 437.200 C 189.170 437.200,188.218 437.440,187.925 437.733 C 187.632 438.025,186.899 438.389,186.296 438.540 C 185.693 438.691,185.200 438.992,185.200 439.208 C 185.200 439.423,184.840 439.600,184.400 439.600 C 183.956 439.600,183.600 439.867,183.600 440.200 C 183.600 440.530,183.323 440.800,182.984 440.800 C 182.147 440.800,180.000 442.428,180.000 443.063 C 180.000 443.354,179.741 443.475,179.400 443.345 C 179.051 443.211,178.793 443.342,178.783 443.657 C 178.774 443.956,178.234 444.642,177.583 445.181 C 176.932 445.721,176.400 446.377,176.400 446.638 C 176.400 446.900,176.119 447.222,175.775 447.354 C 175.431 447.486,175.261 447.776,175.398 447.997 C 175.535 448.219,175.277 448.400,174.824 448.400 C 174.371 448.400,174.000 448.648,174.000 448.951 C 174.000 449.254,173.730 449.726,173.400 450.000 C 173.070 450.274,172.800 450.746,172.800 451.049 C 172.800 451.352,172.422 451.978,171.961 452.439 C 171.418 452.982,171.186 453.614,171.304 454.230 C 171.433 454.908,171.272 455.250,170.743 455.418 C 170.267 455.569,169.995 456.040,169.987 456.727 C 169.980 457.317,169.710 458.149,169.387 458.576 C 169.003 459.084,168.796 460.330,168.787 462.176 C 168.779 464.023,168.571 465.269,168.187 465.776 C 167.381 466.843,167.390 471.333,168.200 472.143 C 168.632 472.575,168.800 473.626,168.800 475.895 C 168.800 478.047,168.986 479.293,169.387 479.824 C 169.710 480.251,169.980 481.093,169.987 481.697 C 169.995 482.343,170.322 482.995,170.786 483.284 C 171.337 483.628,171.503 484.046,171.343 484.684 C 171.180 485.335,171.326 485.681,171.857 485.897 C 172.266 486.064,172.642 486.602,172.694 487.094 C 172.793 488.030,174.112 489.600,174.800 489.600 C 175.020 489.600,175.200 490.056,175.200 490.613 C 175.200 491.169,175.470 491.729,175.800 491.855 C 176.130 491.982,176.400 492.336,176.400 492.643 C 176.400 492.949,176.670 493.200,177.000 493.200 C 177.330 493.200,177.600 493.435,177.600 493.722 C 177.600 494.369,180.063 496.800,180.719 496.800 C 180.984 496.800,181.200 497.070,181.200 497.400 C 181.200 497.730,181.448 498.000,181.751 498.000 C 182.054 498.000,182.526 498.270,182.800 498.600 C 183.074 498.930,183.617 499.200,184.006 499.200 C 184.396 499.200,184.818 499.470,184.945 499.800 C 185.079 500.151,185.679 500.400,186.387 500.400 C 187.067 500.400,187.952 500.752,188.400 501.200 C 188.888 501.688,189.733 502.000,190.567 502.000 C 191.318 502.000,192.008 502.225,192.100 502.500 C 192.395 503.387,211.915 503.203,212.571 502.306 C 212.851 501.925,213.188 501.721,213.321 501.854 C 213.784 502.317,216.400 501.576,216.400 500.982 C 216.400 500.597,216.822 500.400,217.647 500.400 C 218.645 500.400,218.856 500.258,218.707 499.687 C 218.550 499.088,218.734 499.000,219.860 499.131 C 220.890 499.251,221.200 499.138,221.200 498.644 C 221.200 498.290,221.448 498.000,221.751 498.000 C 222.054 498.000,222.526 497.730,222.800 497.400 C 223.074 497.070,223.636 496.800,224.049 496.800 C 224.462 496.800,224.800 496.530,224.800 496.200 C 224.800 495.870,225.011 495.600,225.270 495.600 C 226.033 495.600,232.400 488.840,232.400 488.029 C 232.400 487.620,232.670 487.182,233.000 487.055 C 233.330 486.929,233.600 486.364,233.600 485.800 C 233.600 485.236,233.870 484.671,234.200 484.545 C 234.564 484.405,234.800 483.800,234.800 483.006 C 234.800 482.287,235.081 481.465,235.425 481.180 C 235.899 480.786,236.028 479.995,235.959 477.883 C 235.886 475.645,235.998 475.033,236.534 474.733 C 237.468 474.210,237.524 465.967,236.600 465.200 C 236.173 464.846,236.000 463.908,236.000 461.951 C 236.000 459.772,235.875 459.200,235.400 459.200 C 234.958 459.200,234.800 458.738,234.800 457.443 C 234.800 456.250,234.607 455.612,234.200 455.455 C 233.870 455.329,233.600 454.867,233.600 454.429 C 233.600 453.303,232.297 450.822,231.700 450.810 C 231.425 450.804,231.200 450.453,231.200 450.029 C 231.200 449.604,230.930 448.987,230.600 448.657 C 230.270 448.327,230.000 447.954,230.000 447.828 C 230.000 447.464,225.601 443.200,225.225 443.200 C 225.038 443.200,224.782 442.930,224.655 442.600 C 224.529 442.270,223.969 442.000,223.413 442.000 C 222.856 442.000,222.400 441.780,222.400 441.510 C 222.400 440.814,219.588 438.400,218.776 438.400 C 218.403 438.400,217.874 438.130,217.600 437.800 C 217.326 437.470,216.488 437.200,215.738 437.200 C 214.895 437.200,214.287 436.971,214.145 436.600 C 213.974 436.155,213.266 436.000,211.400 436.000 C 209.534 436.000,208.826 435.845,208.655 435.400 C 208.467 434.909,207.480 434.800,203.241 434.800 C 199.166 434.800,197.929 434.928,197.457 435.400 M206.800 445.000 C 206.800 445.377,207.180 445.600,207.824 445.600 C 208.387 445.600,208.748 445.761,208.626 445.958 C 208.355 446.396,209.324 446.800,210.645 446.800 C 211.184 446.800,211.729 447.070,211.855 447.400 C 211.984 447.735,212.578 448.000,213.200 448.000 C 213.822 448.000,214.416 448.265,214.545 448.600 C 214.671 448.930,215.141 449.200,215.587 449.200 C 216.043 449.200,216.400 449.464,216.400 449.800 C 216.400 450.133,216.756 450.400,217.200 450.400 C 217.644 450.400,218.000 450.667,218.000 451.000 C 218.000 451.330,218.189 451.600,218.419 451.600 C 218.860 451.600,220.218 452.958,221.710 454.892 C 222.200 455.526,222.915 456.422,223.300 456.883 C 223.685 457.345,224.000 457.971,224.000 458.274 C 224.000 458.577,224.270 458.929,224.600 459.055 C 224.944 459.187,225.200 459.785,225.200 460.455 C 225.200 461.126,225.456 461.723,225.800 461.855 C 226.224 462.018,226.400 462.680,226.400 464.111 C 226.400 465.462,226.628 466.389,227.085 466.894 C 228.003 467.908,227.929 472.173,226.976 473.227 C 226.511 473.741,226.358 474.488,226.459 475.757 C 226.575 477.212,226.467 477.594,225.901 477.742 C 225.377 477.879,225.200 478.338,225.200 479.563 C 225.200 480.605,225.018 481.200,224.700 481.201 C 224.425 481.202,223.840 481.741,223.400 482.400 C 222.960 483.059,222.375 483.598,222.100 483.599 C 221.825 483.599,221.600 483.870,221.600 484.200 C 221.600 484.530,221.330 484.800,221.000 484.800 C 220.670 484.800,220.400 485.070,220.400 485.400 C 220.400 485.730,220.130 486.000,219.800 486.000 C 219.470 486.000,219.200 486.270,219.200 486.600 C 219.200 486.930,219.014 487.200,218.787 487.200 C 218.559 487.200,217.845 487.740,217.200 488.400 C 216.555 489.060,215.860 489.600,215.656 489.600 C 215.452 489.600,215.182 489.870,215.055 490.200 C 214.929 490.530,214.454 490.800,214.000 490.800 C 213.546 490.800,213.071 491.070,212.945 491.400 C 212.815 491.737,212.220 492.000,211.586 492.000 C 210.965 492.000,210.187 492.270,209.857 492.600 C 209.471 492.987,208.482 493.200,207.078 493.200 C 205.628 493.200,204.731 493.401,204.400 493.800 C 203.808 494.513,200.542 494.625,200.313 493.940 C 200.229 493.686,199.095 493.391,197.795 493.283 C 196.494 493.175,195.185 492.842,194.886 492.543 C 194.587 492.245,193.835 492.000,193.214 492.000 C 192.580 492.000,191.985 491.737,191.855 491.400 C 191.729 491.070,191.254 490.800,190.800 490.800 C 190.346 490.800,189.871 490.530,189.745 490.200 C 189.618 489.870,189.364 489.600,189.179 489.600 C 188.716 489.600,183.600 484.444,183.600 483.978 C 183.600 483.770,183.350 483.600,183.043 483.600 C 182.737 483.600,182.374 483.150,182.236 482.600 C 182.098 482.050,181.808 481.600,181.592 481.600 C 181.377 481.600,181.200 481.240,181.200 480.800 C 181.200 480.356,180.933 480.000,180.600 480.000 C 180.203 480.000,180.000 479.603,180.000 478.829 C 180.000 478.184,179.730 477.387,179.400 477.057 C 179.070 476.727,178.800 475.759,178.800 474.905 C 178.800 474.051,178.536 473.004,178.213 472.576 C 177.497 471.630,177.365 466.545,178.051 466.316 C 178.299 466.234,178.595 465.184,178.710 463.983 C 178.848 462.531,179.153 461.634,179.621 461.303 C 180.009 461.030,180.721 459.989,181.205 458.990 C 181.689 457.990,182.291 456.949,182.542 456.675 C 183.213 455.947,184.800 453.665,184.800 453.430 C 184.800 453.059,187.620 450.400,188.013 450.400 C 188.226 450.400,188.400 450.130,188.400 449.800 C 188.400 449.470,188.670 449.200,189.000 449.200 C 189.330 449.200,189.600 448.871,189.600 448.469 C 189.600 447.885,189.840 447.774,190.800 447.915 C 191.782 448.059,192.000 447.950,192.000 447.315 C 192.000 446.680,192.218 446.571,193.200 446.715 C 194.110 446.848,194.400 446.735,194.400 446.245 C 194.400 445.571,194.817 445.477,197.301 445.592 C 198.345 445.640,198.875 445.469,199.044 445.031 C 199.393 444.120,206.800 444.091,206.800 445.000 " stroke="none" fill="#44b4e4" fill-rule="evenodd"></path><path id="path1" d="M191.774 134.842 C 191.584 135.149,191.645 135.219,191.942 135.036 C 192.221 134.863,192.555 135.117,192.778 135.674 C 193.022 136.284,193.158 136.378,193.175 135.949 C 193.210 135.029,192.168 134.205,191.774 134.842 M144.600 174.800 C 143.896 175.102,143.935 175.147,144.924 175.172 C 145.576 175.188,145.944 175.032,145.800 174.800 C 145.664 174.580,145.518 174.413,145.476 174.428 C 145.434 174.444,145.040 174.611,144.600 174.800 M243.913 199.495 C 245.076 199.576,246.876 199.576,247.913 199.493 C 248.951 199.411,248.000 199.345,245.800 199.346 C 243.600 199.347,242.751 199.414,243.913 199.495 " stroke="none" fill="#48b4e4" fill-rule="evenodd"></path></g></svg>