<?xml version="1.0" encoding="utf-8"?>
<!-- Generator: Adobe Illustrator 25.4.0, SVG Export Plug-In . SVG Version: 6.00 Build 0)  -->
<svg version="1.1" id="Layer_1" xmlns="http://www.w3.org/2000/svg" xmlns:xlink="http://www.w3.org/1999/xlink" x="0px" y="0px"
	 viewBox="0 0 816.6 484" style="enable-background:new 0 0 816.6 484;" xml:space="preserve">
<style type="text/css">
	.st0{display:none;fill:#B3DCF4;}
	.st1{enable-background:new    ;}
	.st2{fill:#494949;}
	.st3{fill:#123C8C;stroke:#123C8C;stroke-linecap:round;stroke-linejoin:round;}
	.st4{fill:#A6E796;}
	.st5{fill:#FFFFFF;}
	.st6{fill:#90CAEA;}
</style>
<path id="Path_1307" class="st0" d="M-558.3-106.5h1440v678.9h-1440V-106.5z"/>
<g class="st1">
	<path class="st2" d="M352.4,11.6v2.2h-3.9v11.6h-2.4V13.8h-3.9v-2.2H352.4z"/>
	<path class="st2" d="M360.1,16.1h2.3v9.3h-2.3v-1.5c-0.6,1-1.9,1.7-3.2,1.7c-2.5,0-4.5-2-4.5-4.9c0-2.8,1.9-4.9,4.6-4.9
		c1.3,0,2.5,0.6,3.1,1.5L360.1,16.1L360.1,16.1z M360,20.7c0-1.6-1.3-2.7-2.7-2.7c-1.5,0-2.6,1.2-2.6,2.7s1.1,2.8,2.7,2.8
		C358.8,23.5,360,22.3,360,20.7z"/>
	<path class="st2" d="M365,22.5h2.2c0,0.6,0.6,1.2,1.5,1.2s1.5-0.5,1.5-1.1c0-0.5-0.4-0.8-1.1-0.9l-1.2-0.3
		c-2.1-0.6-2.6-1.7-2.6-2.9c0-1.5,1.4-2.8,3.5-2.8c1.7,0,3.5,0.8,3.5,2.9h-2.2c0-0.6-0.6-1-1.2-1c-0.7,0-1.2,0.4-1.2,1
		c0,0.5,0.5,0.8,1,0.9l1.5,0.4c2.1,0.5,2.5,1.9,2.5,2.7c0,1.9-1.9,2.9-3.8,2.9C366.9,25.7,365,24.5,365,22.5z"/>
	<path class="st2" d="M390,20.2v5.2h-2.3v-5.1c0-1.5-0.8-2.3-1.9-2.3c-1.3,0-2.1,0.9-2.1,2.8v4.6h-2.3v-5.1c0-1.5-0.8-2.3-1.8-2.3
		c-1.1,0-2.2,0.6-2.2,2.4v5h-2.3v-9.3h2.3v1.7c0.3-1.3,1.6-2,2.8-2c1.4,0,2.5,0.7,3,1.9c0.7-1.5,2.2-1.9,3.1-1.9
		C388.8,15.8,390,17.5,390,20.2z"/>
	<path class="st2" d="M400.3,16.1h2.3v9.3h-2.3v-1.5c-0.6,1-1.9,1.7-3.2,1.7c-2.5,0-4.5-2-4.5-4.9c0-2.8,1.9-4.9,4.6-4.9
		c1.3,0,2.5,0.6,3.1,1.5L400.3,16.1L400.3,16.1z M400.3,20.7c0-1.6-1.3-2.7-2.7-2.7c-1.5,0-2.6,1.2-2.6,2.7s1.1,2.8,2.7,2.8
		C399,23.5,400.3,22.3,400.3,20.7z"/>
	<path class="st2" d="M414.8,20.2v5.2h-2.3v-5.1c0-1.5-0.9-2.3-1.9-2.3c-1.1,0-2.4,0.6-2.4,2.4v5h-2.3v-9.3h2.3v1.5
		c0.5-1.2,1.9-1.7,2.9-1.7C413.5,15.8,414.8,17.5,414.8,20.2z"/>
	<path class="st2" d="M417.6,12.8c0-0.8,0.7-1.4,1.5-1.4s1.5,0.6,1.5,1.4s-0.7,1.4-1.5,1.4C418.3,14.2,417.6,13.6,417.6,12.8z
		 M418,25.4v-9.3h2.3v9.3H418z"/>
	<path class="st2" d="M430.7,16.1h2.3v9.3h-2.3v-1.5c-0.6,1-1.9,1.7-3.2,1.7c-2.5,0-4.5-2-4.5-4.9c0-2.8,1.9-4.9,4.6-4.9
		c1.3,0,2.5,0.6,3.1,1.5L430.7,16.1L430.7,16.1z M430.6,20.7c0-1.6-1.3-2.7-2.7-2.7c-1.5,0-2.6,1.2-2.6,2.7s1.1,2.8,2.7,2.8
		C429.4,23.5,430.6,22.3,430.6,20.7z"/>
	<path class="st2" d="M445.2,20.2v5.2h-2.3v-5.1c0-1.5-0.9-2.3-1.9-2.3c-1.1,0-2.4,0.6-2.4,2.4v5h-2.3v-9.3h2.3v1.5
		c0.5-1.2,1.9-1.7,2.9-1.7C443.8,15.8,445.2,17.5,445.2,20.2z"/>
</g>
<g class="st1">
	<path class="st2" d="M342.7,45.4h2.4c0,1.1,1,2.1,2.6,2.1c1.4,0,2.3-0.9,2.3-1.9s-0.8-1.5-2-1.8l-1.7-0.5c-3-0.8-3.5-2.5-3.5-3.7
		c0-2.4,2.1-4.1,4.7-4.1c2.5,0,4.5,1.6,4.5,4.1h-2.4c0-1.1-0.9-2-2.1-2c-1.2,0-2.2,0.8-2.2,1.9c0,0.4,0.1,1.2,1.7,1.6l1.6,0.5
		c2.2,0.6,3.8,1.7,3.8,3.9c0,2.5-2.1,4.2-4.8,4.2C344.6,49.7,342.7,47.8,342.7,45.4z"/>
	<path class="st2" d="M365,44.8c0,3-2.1,4.9-4.6,4.9c-1.2,0-2.5-0.5-3.1-1.5V54H355V40.1h2.3v1.2c0.6-1,2-1.5,3.1-1.5
		C362.9,39.8,365,41.8,365,44.8z M362.7,44.8c0-1.5-1.2-2.8-2.6-2.8c-1.4,0-2.7,1.1-2.7,2.8s1.4,2.7,2.7,2.7
		C361.5,47.5,362.7,46.3,362.7,44.8z"/>
	<path class="st2" d="M374.2,40.2l-0.5,2.2c-0.5-0.3-1-0.3-1.4-0.3c-1.5,0-2.4,1.5-2.4,4.1v3.3h-2.2v-9.3h2.3v2
		c0.5-1.6,1.5-2.2,2.7-2.2C373.2,39.8,373.8,40,374.2,40.2z"/>
	<path class="st2" d="M375.9,36.8c0-0.8,0.7-1.4,1.5-1.4s1.5,0.6,1.5,1.4c0,0.8-0.7,1.4-1.5,1.4S375.9,37.6,375.9,36.8z M376.2,49.4
		v-9.3h2.3v9.3H376.2z"/>
	<path class="st2" d="M390.7,44.2v5.2h-2.3v-5.1c0-1.5-0.9-2.3-1.9-2.3c-1.1,0-2.4,0.6-2.4,2.4v5h-2.3v-9.3h2.3v1.5
		c0.5-1.2,1.9-1.7,2.9-1.7C389.4,39.8,390.7,41.5,390.7,44.2z"/>
	<path class="st2" d="M401,40.1h2.3v8.1c0,4.2-2,6-5.2,6c-1.9,0-3.6-1-4.4-2.7l1.9-0.9c0.5,0.9,1.5,1.5,2.5,1.5c1.8,0,2.9-1,2.9-3.7
		v-0.2c-0.7,1-2,1.5-3.1,1.5c-2.5,0-4.6-1.9-4.6-4.9s2.1-4.9,4.6-4.9c1.2,0,2.5,0.5,3.1,1.5V40.1z M401,44.7c0-1.6-1.4-2.7-2.7-2.7
		c-1.4,0-2.6,1.2-2.6,2.7s1.2,2.8,2.6,2.8C399.7,47.5,401,46.4,401,44.7z"/>
	<path class="st2" d="M425.3,35.6h2.6l-4.7,13.8h-2l-2.2-7.9l-2.1,7.9h-2l-4.6-13.8h2.6l3,9.6l2.2-7.7h1.9l2.2,7.8L425.3,35.6z"/>
	<path class="st2" d="M436.1,40.1h2.3v9.3h-2.3v-1.5c-0.6,1-1.9,1.7-3.2,1.7c-2.5,0-4.5-2-4.5-4.9c0-2.8,1.9-4.9,4.6-4.9
		c1.3,0,2.5,0.6,3.1,1.5L436.1,40.1L436.1,40.1z M436.1,44.7c0-1.6-1.3-2.7-2.7-2.7c-1.5,0-2.6,1.2-2.6,2.7s1.1,2.8,2.7,2.8
		C434.9,47.5,436.1,46.3,436.1,44.7z"/>
	<path class="st2" d="M446.8,40.1v1.8h-2v7.5h-2.3v-7.5h-1.7v-1.8h1.7v-3.4h2.3v3.4H446.8z"/>
	<path class="st2" d="M458,45.6h-7.2c0.3,1.3,1.3,2,2.7,2c1,0,2-0.4,2.5-1.2l1.6,1.2c-0.9,1.4-2.5,2.1-4.2,2.1c-2.8,0-4.9-2-4.9-4.9
		c0-3,2.2-4.9,4.9-4.9s4.8,1.9,4.8,4.8C458,44.9,458,45.2,458,45.6z M455.7,43.9c-0.1-1.3-1.1-2-2.4-2c-1.2,0-2.3,0.6-2.5,2H455.7z"
		/>
	<path class="st2" d="M467.1,40.2l-0.5,2.2c-0.5-0.3-1-0.3-1.4-0.3c-1.5,0-2.4,1.5-2.4,4.1v3.3h-2.3v-9.3h2.3v2
		c0.5-1.6,1.5-2.2,2.7-2.2C466.2,39.8,466.8,40,467.1,40.2z"/>
</g>
<g id="Group_1272" transform="translate(719.98 94.833)">
	<path id="Path_1330" class="st3" d="M-525-83.4"/>
	<path id="Path_1331" class="st3" d="M-154.3,228.6c0.3-4.6-1.9-6.5-2.6-9.6c-1.4-6.4-2.2-2.1,2.6-7.4c4.3-4.7,5-3.3,6-10.2
		c0.5-3.6-0.5-7.5,0-11.1c1.1-7.3,4-14,5.2-22.1c1.2-8.2,3-16.6,10.4-22.1c17.4-12.8,20.2,10.1,20.8,22.9
		c11.1,1.5,1.6-14.6,1.6-19.4c0.1-10.7,1.6-16.8-2.6-27c-7.7-18.8,4.8-34.5,1.7-53.9c-1.4-8.7-7.5-15.3-5.4-25.3
		c1.5-7,7.6-13,8-19.5c0.4-6.2-2.8-6.5-5-11c-3.8-7.7-2.3-13.7-2.8-22.2c-0.8-15.4,6.3-29.3-11.1-38.1c-0.4,2.8-2.8,7.5-6.2,6.7
		c-4.1-0.9-1.4-3.9-2.6-6.8c-5.5-14-13.2-6-22.2-0.6c-4.9,2.9-9.4,5.4-15.3,4.8c-7.5-0.8-11-6.5-17.6,0.3
		c-4.7,4.8-6.4,12.4-11.4,16.6c-3,2.5-12.5,6.4-16.4,4.3c-3.7-2.1-1.7-6.5-5.1-8.4c-3.4-1.8-9,1.4-11.4,2.4
		c-10.6,4.6-16.4,4.6-28.5,5.3c-10.1,0.6-11.3,3.5-18.8,8.7c-6.6,4.6-12.8,0.6-19.9,3.2c-9.6,3.6-6.3,14.5-10.6,22
		c-5.8-1-2.2-6.3-4.9-8.5c-4-3.3-11.5-1.5-16.6-0.7c-6.3,0.9-12.4,3.4-18.2,0c-4.3-2.5-5.2-7.1-9.1-9.8c-3.3-2.4-6.2-1.7-9.7-2.9
		c-2.8-0.9-5.3-2.5-8.4-3.2c-5.1-1.3-14.1,0.5-18.3-1.9c-2.6-1.5-3.2-5.3-5.2-7.9c-3.6-4.6-5.4-5-10.5-7.7c-5-2.7-10.6-6.1-15.7-8.1
		c-10.7-4.6-30.2-2.9-29.2-19c-7.8-7-8.4,5.1-12.8,7.5c-6.9,3.8-9.3-3.7-15.5-6c-6.7-2.4-14.7,0.4-21.7-2.4
		c-6.8-2.7-11.4-9.4-17.7-12.9c-1,6.8,0.4,13.7-1.2,20.5c-2.2,9-6.4,17.7-6,27c0.4,9.6,3.6,17.4,5.4,26.8c2,10.5-0.3,21.9,3.9,31.9
		c3.6,8.5,8.5,13.1,10.8,22.2c2.6,10.6,5.6,19.1,11.7,28.1c5.6,8.3,13.3,15.3,18.6,23c5.3,7.7,8.3,17.5,11.2,26.1
		c3.1,9.2,7.5,17.7,10.9,26.5c4.5,11.4,17.2,14.8,23.2,25.5c2,3.6,5.7,9.3,4.4,13.6c-3.2,11-8.7,3.4-11.1-1.7
		c-5.5-11.5-19.7-12.9-24-26.7c-5.2,11.6,3.6,30.7,7.3,42c4.8,14.4,13.2,27.6,19,41.7c2.3,5.7,5.1,12.2,8.9,17.1
		c1.8,2.4,5,4,6.7,6.7c2.7,4.2,1.8,9.1,3.4,13.5c3.8,10.2,13.2,19.2,18.4,28.1c0.6,1-0.9,3.9,0.1,4.7c1.7,1.4,3.9,0.5,5.1,1.4
		c2.9,2.3,6.5-0.8,7,5.8c6.8,1.4,11.8-1.6,10-8.3c-1.6,8,3.6,15.5,13.2,15.9c2.1,0.1,7.1-2.4,7.9-2.2c7,1.7,6.5,8.1,0,10.1
		c-7.7,2.3-15.6-7.4-19.2,3.3c-2.2,6.5,5,19.6,11.3,20.5c6.1,0.9,5.7-5.1,8.5-5.6c3.8-0.6,6.9,3.6,12.2,3.1c3.1-0.3,5.1-2.9,8.6-3.4
		c4.6-0.7,9.8,0.4,14,1.8c8.9,3,16.4,8.3,25.8,10.1c8.5,1.6,15.8,2.8,23,7.6c4.2-5.6,4.1-15.9,7.4-22.5c3.4-6.9,10.8-9.3,14.3-15.7
		c2.7-4.9,2-18.2,1-23.8c-1.4-7.9-9.8-12.3-10.3-20.3c5.9,2.8,20.1,33.5,28.1,27.8c3.3-2.3,1.7-21.3,3.9-26.1
		c4.1-8.8,6.2-19,11.1-27.2c-4,9.5-12.6,28.1-11.1,27.2c4.4-2.6,16.3-12.6,32.5-41.7c1.1,6.5-15.1,25-16.2,29.1
		c-1,3.9,14.2-7.1,11.9-3.8c-3.1,4.6-9.1,0.1-11.8-2.3c-0.4,2-0.4,4-0.1,6c14.3-10.8,15.3-20,21.7-33.2c7-1.6,5.8,4.9,9.5,7.5
		c5.1,3.6,11.2,2.5,17.2,2.6"/>
	<path id="Path_1332" class="st3" d="M-127.2,274.1"/>
	<path id="Path_1333" class="st3" d="M-223,354.1"/>
</g>
<g class="st1">
	<path class="st2" d="M633.4,287.6v2.2h-3.9v11.6h-2.4v-11.6h-3.9v-2.2H633.4z"/>
	<path class="st2" d="M641.1,292.1h2.3v9.3h-2.3v-1.5c-0.6,1-1.9,1.7-3.2,1.7c-2.5,0-4.5-2-4.5-4.9c0-2.8,1.9-4.9,4.6-4.9
		c1.3,0,2.5,0.6,3.1,1.5V292.1z M641,296.7c0-1.6-1.3-2.7-2.7-2.7c-1.5,0-2.6,1.2-2.6,2.7s1.1,2.8,2.7,2.8
		C639.8,299.5,641,298.3,641,296.7z"/>
	<path class="st2" d="M646,298.5h2.2c0,0.6,0.6,1.2,1.5,1.2s1.5-0.5,1.5-1.1c0-0.5-0.4-0.8-1.1-0.9l-1.2-0.3
		c-2.1-0.6-2.6-1.7-2.6-2.9c0-1.5,1.4-2.8,3.5-2.8c1.7,0,3.5,0.8,3.5,2.9h-2.2c0-0.6-0.6-1-1.2-1c-0.7,0-1.2,0.4-1.2,1
		c0,0.5,0.5,0.8,1,0.9l1.5,0.4c2.1,0.5,2.5,1.9,2.5,2.7c0,1.9-1.9,2.9-3.8,2.9C647.9,301.7,646,300.5,646,298.5z"/>
	<path class="st2" d="M671,296.2v5.2h-2.3v-5.1c0-1.5-0.8-2.3-1.9-2.3c-1.3,0-2.1,0.9-2.1,2.8v4.6h-2.3v-5.1c0-1.5-0.8-2.3-1.8-2.3
		c-1.1,0-2.2,0.6-2.2,2.4v5h-2.3v-9.3h2.3v1.7c0.3-1.3,1.6-2,2.8-2c1.4,0,2.5,0.7,3,1.9c0.7-1.5,2.2-1.9,3.1-1.9
		C669.8,291.8,671,293.5,671,296.2z"/>
	<path class="st2" d="M681.3,292.1h2.3v9.3h-2.3v-1.5c-0.6,1-1.9,1.7-3.2,1.7c-2.5,0-4.5-2-4.5-4.9c0-2.8,1.9-4.9,4.6-4.9
		c1.3,0,2.5,0.6,3.1,1.5V292.1z M681.3,296.7c0-1.6-1.3-2.7-2.7-2.7c-1.5,0-2.6,1.2-2.6,2.7s1.1,2.8,2.7,2.8
		C680,299.5,681.3,298.3,681.3,296.7z"/>
	<path class="st2" d="M695.8,296.2v5.2h-2.3v-5.1c0-1.5-0.9-2.3-1.9-2.3c-1.1,0-2.4,0.6-2.4,2.4v5h-2.3v-9.3h2.3v1.5
		c0.5-1.2,1.9-1.7,2.9-1.7C694.5,291.8,695.8,293.5,695.8,296.2z"/>
	<path class="st2" d="M698.6,288.8c0-0.8,0.7-1.4,1.5-1.4s1.5,0.6,1.5,1.4s-0.7,1.4-1.5,1.4C699.3,290.2,698.6,289.6,698.6,288.8z
		 M699,301.4v-9.3h2.3v9.3H699z"/>
	<path class="st2" d="M711.7,292.1h2.3v9.3h-2.3v-1.5c-0.6,1-1.9,1.7-3.2,1.7c-2.5,0-4.5-2-4.5-4.9c0-2.8,1.9-4.9,4.6-4.9
		c1.3,0,2.5,0.6,3.1,1.5V292.1z M711.6,296.7c0-1.6-1.3-2.7-2.7-2.7c-1.5,0-2.6,1.2-2.6,2.7s1.1,2.8,2.7,2.8
		C710.4,299.5,711.6,298.3,711.6,296.7z"/>
	<path class="st2" d="M726.2,296.2v5.2h-2.3v-5.1c0-1.5-0.9-2.3-1.9-2.3c-1.1,0-2.4,0.6-2.4,2.4v5h-2.3v-9.3h2.3v1.5
		c0.5-1.2,1.9-1.7,2.9-1.7C724.8,291.8,726.2,293.5,726.2,296.2z"/>
</g>
<g class="st1">
	<path class="st2" d="M632.8,313.8h-5.9v3.7h4.7v2.2h-4.7v5.7h-2.4v-13.8h8.4L632.8,313.8L632.8,313.8z"/>
	<path class="st2" d="M643.6,321.6h-7.2c0.3,1.3,1.3,2,2.7,2c1,0,2-0.4,2.5-1.2l1.6,1.2c-0.9,1.4-2.5,2.1-4.2,2.1
		c-2.8,0-4.9-2-4.9-4.9c0-3,2.2-4.9,4.9-4.9c2.7,0,4.8,1.9,4.8,4.8C643.6,320.9,643.6,321.2,643.6,321.6z M641.3,319.9
		c-0.1-1.3-1.1-2-2.4-2c-1.2,0-2.3,0.6-2.5,2H641.3z"/>
	<path class="st2" d="M652.7,316.2l-0.5,2.2c-0.5-0.3-1-0.3-1.4-0.3c-1.5,0-2.4,1.5-2.4,4.1v3.3h-2.3v-9.3h2.3v2
		c0.5-1.6,1.5-2.2,2.7-2.2C651.8,315.8,652.4,316,652.7,316.2z"/>
	<path class="st2" d="M669.6,320.2v5.2h-2.3v-5.1c0-1.5-0.8-2.3-1.9-2.3c-1.3,0-2.1,0.9-2.1,2.8v4.6H661v-5.1c0-1.5-0.8-2.3-1.8-2.3
		c-1.1,0-2.2,0.6-2.2,2.4v5h-2.3v-9.3h2.3v1.7c0.3-1.3,1.6-2,2.8-2c1.4,0,2.5,0.7,3,1.9c0.7-1.5,2.2-1.9,3.1-1.9
		C668.4,315.8,669.6,317.5,669.6,320.2z"/>
	<path class="st2" d="M681.8,321.6h-7.2c0.3,1.3,1.3,2,2.7,2c1,0,2-0.4,2.5-1.2l1.6,1.2c-0.9,1.4-2.5,2.1-4.2,2.1
		c-2.8,0-4.9-2-4.9-4.9c0-3,2.2-4.9,4.9-4.9c2.7,0,4.8,1.9,4.8,4.8C681.8,320.9,681.8,321.2,681.8,321.6z M679.5,319.9
		c-0.1-1.3-1.1-2-2.4-2c-1.2,0-2.3,0.6-2.5,2H679.5z"/>
	<path class="st2" d="M693.4,320.2v5.2h-2.3v-5.1c0-1.5-0.9-2.3-1.9-2.3c-1.1,0-2.4,0.6-2.4,2.4v5h-2.3v-9.3h2.3v1.5
		c0.5-1.2,1.9-1.7,2.9-1.7C692.1,315.8,693.4,317.5,693.4,320.2z"/>
	<path class="st2" d="M701.6,316.1v1.8h-2v7.5h-2.3v-7.5h-1.7v-1.8h1.7v-3.4h2.3v3.4H701.6z"/>
	<path class="st2" d="M712.7,321.6h-7.2c0.3,1.3,1.3,2,2.7,2c1,0,2-0.4,2.5-1.2l1.6,1.2c-0.9,1.4-2.5,2.1-4.2,2.1
		c-2.8,0-4.9-2-4.9-4.9c0-3,2.2-4.9,4.9-4.9c2.7,0,4.8,1.9,4.8,4.8C712.7,320.9,712.7,321.2,712.7,321.6z M710.4,319.9
		c-0.1-1.3-1.1-2-2.4-2c-1.2,0-2.3,0.6-2.5,2H710.4z"/>
	<path class="st2" d="M722.5,311h2.3v14.4h-2.3v-1.2c-0.6,1-2,1.5-3.1,1.5c-2.5,0-4.6-1.9-4.6-4.9s2.1-4.9,4.6-4.9
		c1.2,0,2.5,0.5,3.1,1.5V311z M722.4,320.7c0-1.6-1.4-2.7-2.7-2.7c-1.4,0-2.6,1.2-2.6,2.7s1.2,2.8,2.6,2.8
		C721.2,323.5,722.4,322.4,722.4,320.7z"/>
	<path class="st2" d="M733,321.4h2.4c0,1.1,1,2.1,2.6,2.1c1.4,0,2.3-0.9,2.3-1.9s-0.8-1.5-2-1.8l-1.7-0.5c-3-0.8-3.5-2.5-3.5-3.7
		c0-2.4,2.1-4.1,4.7-4.1c2.5,0,4.5,1.6,4.5,4.1h-2.4c0-1.1-0.9-2-2.1-2s-2.2,0.8-2.2,1.9c0,0.4,0.1,1.2,1.7,1.6l1.6,0.5
		c2.2,0.6,3.8,1.7,3.8,3.9c0,2.5-2.1,4.2-4.8,4.2C735,325.7,733,323.8,733,321.4z"/>
	<path class="st2" d="M754.5,321.6h-7.2c0.3,1.3,1.3,2,2.7,2c1,0,2-0.4,2.5-1.2l1.6,1.2c-0.9,1.4-2.5,2.1-4.2,2.1
		c-2.8,0-4.9-2-4.9-4.9c0-3,2.2-4.9,4.9-4.9c2.7,0,4.8,1.9,4.8,4.8C754.5,320.9,754.5,321.2,754.5,321.6z M752.2,319.9
		c-0.1-1.3-1.1-2-2.4-2c-1.2,0-2.3,0.6-2.5,2H752.2z"/>
	<path class="st2" d="M764.3,316.1h2.3v9.3h-2.3v-1.5c-0.6,1-1.9,1.7-3.2,1.7c-2.5,0-4.5-2-4.5-4.9c0-2.8,1.9-4.9,4.6-4.9
		c1.3,0,2.5,0.6,3.1,1.5V316.1z M764.3,320.7c0-1.6-1.3-2.7-2.7-2.7c-1.5,0-2.6,1.2-2.6,2.7s1.1,2.8,2.7,2.8
		C763,323.5,764.3,322.3,764.3,320.7z"/>
	<path class="st2" d="M786,325.4h-3.2l-4.8-5.7v5.7h-2.4v-13.8h2.4v5.8l4.1-5.8h2.9l-5,6.9L786,325.4z"/>
	<path class="st2" d="M796.1,321.6h-7.2c0.3,1.3,1.3,2,2.7,2c1,0,2-0.4,2.5-1.2l1.6,1.2c-0.9,1.4-2.5,2.1-4.2,2.1
		c-2.8,0-4.9-2-4.9-4.9c0-3,2.2-4.9,4.9-4.9c2.7,0,4.8,1.9,4.8,4.8C796.2,320.9,796.2,321.2,796.1,321.6z M793.9,319.9
		c-0.1-1.3-1.1-2-2.4-2c-1.2,0-2.3,0.6-2.5,2H793.9z"/>
	<path class="st2" d="M798.8,325.4V311h2.3v14.4H798.8z"/>
	<path class="st2" d="M814.4,320.8c0,3-2.1,4.9-4.6,4.9c-1.2,0-2.5-0.5-3.1-1.5v5.8h-2.3v-13.9h2.3v1.2c0.6-1,2-1.5,3.1-1.5
		C812.2,315.8,814.4,317.8,814.4,320.8z M812.1,320.8c0-1.5-1.2-2.8-2.6-2.8s-2.7,1.1-2.7,2.8c0,1.7,1.4,2.7,2.7,2.7
		C810.9,323.5,812.1,322.3,812.1,320.8z"/>
</g>
<g class="st1">
	<path class="st4" d="M335.8,230.4v4.9h-8.9v26.1h-5.5v-26.1h-8.9v-4.9H335.8z"/>
	<path class="st4" d="M353.1,240.4h5.2v21h-5.2v-3.3c-1.4,2.3-4.2,3.8-7.2,3.8c-5.6,0-10.1-4.5-10.1-11.1c0-6.3,4.3-11,10.3-11
		c2.9,0,5.7,1.3,7.1,3.5L353.1,240.4L353.1,240.4z M353,250.9c0-3.6-3-6.2-6.1-6.2c-3.4,0-5.9,2.8-5.9,6.2s2.6,6.2,6,6.2
		C350.2,257.1,353,254.4,353,250.9z"/>
	<path class="st4" d="M364.1,254.9h4.9c0,1.4,1.3,2.8,3.5,2.8c2.1,0,3.4-1,3.4-2.4c0-1.2-0.9-1.7-2.5-2.1l-2.8-0.7
		c-4.7-1.3-5.9-3.8-5.9-6.4c0-3.3,3.2-6.3,7.8-6.3c3.7,0,8,1.9,7.9,6.6h-5c0-1.4-1.3-2.3-2.8-2.3c-1.6,0-2.7,0.9-2.7,2.2
		c0,1.1,1,1.7,2.2,2l3.4,0.9c4.7,1.2,5.6,4.2,5.6,6.1c0,4.3-4.3,6.6-8.5,6.6C368.4,262,364.2,259.4,364.1,254.9z"/>
	<path class="st4" d="M420.5,249.6v11.8h-5.2v-11.5c0-3.4-1.8-5.1-4.2-5.1c-3,0-4.7,2.1-4.7,6.3v10.4h-5.2V250c0-3.3-1.8-5.1-4-5.1
		c-2.4,0-4.9,1.4-4.9,5.4v11.2h-5.2v-21h5.2v3.9c0.6-2.8,3.6-4.4,6.3-4.4c3.1,0,5.5,1.6,6.8,4.2c1.7-3.3,4.9-4.2,7.1-4.2
		C417.7,239.9,420.5,243.5,420.5,249.6z"/>
	<path class="st4" d="M443.6,240.4h5.2v21h-5.2v-3.3c-1.4,2.3-4.2,3.8-7.2,3.8c-5.6,0-10.1-4.5-10.1-11.1c0-6.3,4.3-11,10.3-11
		c2.9,0,5.7,1.3,7.1,3.5L443.6,240.4L443.6,240.4z M443.5,250.9c0-3.6-3-6.2-6.1-6.2c-3.4,0-5.9,2.8-5.9,6.2s2.6,6.2,6,6.2
		C440.7,257.1,443.5,254.4,443.5,250.9z"/>
	<path class="st4" d="M476.3,249.6v11.8h-5.2V250c0-3.4-2-5.2-4.4-5.2s-5.4,1.4-5.4,5.4v11.2h-5.2v-21h5.2v3.3
		c1.1-2.7,4.4-3.9,6.5-3.9C473.2,239.9,476.3,243.5,476.3,249.6z"/>
	<path class="st4" d="M482.5,233c0-1.8,1.6-3.2,3.4-3.2c1.9,0,3.4,1.3,3.4,3.2c0,1.8-1.5,3.2-3.4,3.2S482.5,234.8,482.5,233z
		 M483.3,261.4v-21h5.2v21H483.3z"/>
	<path class="st4" d="M511.9,240.4h5.2v21h-5.2v-3.3c-1.4,2.3-4.2,3.8-7.2,3.8c-5.6,0-10.1-4.5-10.1-11.1c0-6.3,4.3-11,10.3-11
		c2.9,0,5.7,1.3,7.1,3.5v-2.9H511.9z M511.8,250.9c0-3.6-3-6.2-6.1-6.2c-3.4,0-5.9,2.8-5.9,6.2s2.6,6.2,6,6.2
		C509,257.1,511.8,254.4,511.8,250.9z"/>
</g>
<circle id="Ellipse_99" class="st4" cx="333.2" cy="164.9" r="11.5"/>
<g class="st1">
	<path class="st4" d="M353.7,170.6c0-3.9,3.1-7.2,6.9-7.2c1.9,0,3.7,0.8,4.9,2.1l-0.9,0.8c-1-1-2.4-1.7-3.9-1.7
		c-3.1,0-5.6,2.7-5.6,5.9c0,3.2,2.5,5.9,5.6,5.9c1.5,0,2.9-0.6,3.9-1.7l0.9,0.8c-1.2,1.3-2.9,2.1-4.9,2.1
		C356.8,177.7,353.7,174.5,353.7,170.6z"/>
	<path class="st4" d="M374,168.1l-0.2,1.2c-0.5-0.2-0.9-0.3-1.3-0.3c-2.2,0-2.9,2.5-2.9,4.8v3.5h-1.3V168h1.3v2.3
		c0.5-1.6,1.5-2.5,2.9-2.5C373.1,167.8,373.7,167.9,374,168.1z"/>
	<path class="st4" d="M383.6,168.1h1.3v9.3h-1.3v-1.9c-0.7,1.3-2.1,2.2-3.8,2.2c-2.5,0-4.7-2.1-4.7-4.9c0-2.7,2.1-4.9,4.7-4.9
		c1.6,0,3,0.8,3.7,2.1L383.6,168.1L383.6,168.1z M383.6,172.8c0-2.2-1.8-3.7-3.6-3.7c-2,0-3.6,1.7-3.6,3.7s1.6,3.7,3.6,3.7
		C381.9,176.4,383.6,174.9,383.6,172.8z"/>
	<path class="st4" d="M396.4,163h1.3v14.4h-1.3v-1.8c-0.7,1.3-2.2,2.1-3.7,2.1c-2.6,0-4.7-2.1-4.7-4.9s2.1-4.9,4.7-4.9
		c1.6,0,3,0.8,3.7,2V163z M396.4,172.8c0-2.3-1.8-3.7-3.6-3.7c-2,0-3.6,1.6-3.6,3.7s1.6,3.7,3.6,3.7
		C394.7,176.4,396.4,174.9,396.4,172.8z"/>
	<path class="st4" d="M401.3,177.4V163h1.3v14.4H401.3z"/>
	<path class="st4" d="M415,173.3h-8c0.2,2,1.6,3.2,3.5,3.2c1.3,0,2.4-0.6,3-1.6l1.1,0.5c-0.8,1.5-2.4,2.4-4.2,2.4
		c-2.6,0-4.7-2-4.7-4.9s2.1-4.9,4.7-4.9c2.7,0,4.6,1.9,4.6,4.9C415,172.9,415,173.1,415,173.3z M413.8,172.2
		c-0.2-1.9-1.5-3.1-3.3-3.1s-3.2,1.1-3.4,3.1H413.8z"/>
	<path class="st4" d="M439.9,177.4h-1.3l-1.4-11.4l-4.9,10h-1.2l-4.9-10l-1.4,11.5h-1.3l1.7-13.8h1.2l5.3,10.9l5.3-10.9h1.2
		L439.9,177.4z"/>
	<path class="st4" d="M442.5,172.7c0-3,2.2-4.9,4.9-4.9s4.9,1.9,4.9,4.9s-2.2,4.9-4.9,4.9C444.7,177.7,442.5,175.7,442.5,172.7z
		 M451,172.7c0-2.2-1.7-3.7-3.6-3.7c-2,0-3.6,1.5-3.6,3.7s1.6,3.7,3.6,3.7C449.3,176.4,451,174.9,451,172.7z"/>
	<path class="st4" d="M462.2,168.1h1.3v9.3h-1.3v-1.6c-0.6,1.3-2.1,1.9-3.2,1.9c-2.3,0-3.8-1.6-3.8-4.1v-5.4h1.3v5.4
		c0,1.8,1.1,2.9,2.6,2.9s3.1-0.9,3.1-3.1L462.2,168.1L462.2,168.1z"/>
	<path class="st4" d="M475.4,172v5.4h-1.3V172c0-1.8-1.1-2.9-2.6-2.9s-3.1,0.9-3.1,3.1v5.2h-1.3v-9.3h1.3v1.7
		c0.6-1.3,2.1-1.9,3.2-1.9C473.9,167.8,475.4,169.4,475.4,172z"/>
	<path class="st4" d="M482.9,168.1v1.1h-2.1v8.2h-1.3v-8.2h-1.7v-1.1h1.7v-3.5h1.3v3.5H482.9z"/>
	<path class="st4" d="M492.9,168.1h1.3v9.3h-1.3v-1.9c-0.7,1.3-2.1,2.2-3.8,2.2c-2.5,0-4.7-2.1-4.7-4.9c0-2.7,2.1-4.9,4.7-4.9
		c1.6,0,3,0.8,3.7,2.1v-1.9H492.9z M492.9,172.8c0-2.2-1.8-3.7-3.6-3.7c-2,0-3.6,1.7-3.6,3.7s1.6,3.7,3.6,3.7
		C491.3,176.4,492.9,174.9,492.9,172.8z"/>
	<path class="st4" d="M497.6,164.6c0-0.5,0.5-0.9,1-0.9c0.6,0,1,0.4,1,0.9s-0.4,0.9-1,0.9S497.6,165.2,497.6,164.6z M497.9,177.4
		v-9.3h1.3v9.3H497.9z"/>
	<path class="st4" d="M511.2,172v5.4h-1.3V172c0-1.8-1.1-2.9-2.6-2.9s-3.1,0.9-3.1,3.1v5.2h-1.3v-9.3h1.3v1.7
		c0.6-1.3,2.1-1.9,3.2-1.9C509.6,167.8,511.2,169.4,511.2,172z"/>
</g>
<g class="st1">
	<path class="st4" d="M393.6,342.6h1.3v13.8h-1.3v-6.3H386v6.3h-1.3v-13.8h1.3v6.3h7.6L393.6,342.6L393.6,342.6z"/>
	<path class="st4" d="M398.2,351.7c0-3,2.2-4.9,4.9-4.9s4.9,1.9,4.9,4.9s-2.2,4.9-4.9,4.9C400.5,356.7,398.2,354.7,398.2,351.7z
		 M406.7,351.7c0-2.2-1.7-3.7-3.6-3.7c-2,0-3.6,1.5-3.6,3.7s1.6,3.7,3.6,3.7C405.1,355.4,406.7,353.9,406.7,351.7z"/>
	<path class="st4" d="M420.8,351.7c0,2.8-2.1,4.9-4.7,4.9c-1.6,0-3-0.8-3.7-2.1v1.8h-1.3v-14.4h1.3v6.9c0.7-1.3,2.1-2.1,3.7-2.1
		C418.7,346.8,420.8,348.9,420.8,351.7z M419.5,351.7c0-2.1-1.6-3.7-3.6-3.7c-1.9,0-3.6,1.5-3.6,3.7s1.7,3.7,3.6,3.7
		C417.9,355.4,419.5,353.8,419.5,351.7z"/>
	<path class="st4" d="M431.6,347.1h1.3v9.3h-1.3v-1.9c-0.7,1.3-2.1,2.2-3.8,2.2c-2.5,0-4.7-2.1-4.7-4.9c0-2.7,2.1-4.9,4.7-4.9
		c1.6,0,3,0.8,3.7,2.1L431.6,347.1L431.6,347.1z M431.6,351.8c0-2.2-1.8-3.7-3.6-3.7c-2,0-3.6,1.7-3.6,3.7s1.6,3.7,3.6,3.7
		C430,355.4,431.6,353.9,431.6,351.8z"/>
	<path class="st4" d="M442.3,347.1l-0.2,1.2c-0.5-0.2-0.9-0.3-1.3-0.3c-2.2,0-2.9,2.5-2.9,4.8v3.5h-1.3V347h1.3v2.3
		c0.5-1.6,1.5-2.5,2.9-2.5C441.3,346.8,441.9,346.9,442.3,347.1z"/>
	<path class="st4" d="M448.6,347.1v1.1h-2.1v8.2h-1.3v-8.2h-1.7v-1.1h1.7v-3.5h1.3v3.5H448.6z"/>
</g>
<path id="Path_1334" class="st5" d="M311.3,431l2.7,14.8c0.3,1.3-0.5,2.6-1.8,2.9h-0.1c-0.5,0.1-1,0-1.4-0.3c-0.7-0.4-1.3-1.1-1.4-2
	l-1.1-6.3c-6.2,17-16,28.3-29.2,33.6c-0.2,0.1-0.4,0.2-0.7,0.3c-24.3,9.3-50.8-4.8-51.9-5.4c-1.2-0.7-1.8-2.2-1.2-3.5
	c0.4-1.1,1.7-1.7,2.9-1.3c0.1,0,0.2,0.1,0.3,0.1c0.3,0.1,25.8,13.7,48.1,5.1c0.2-0.1,0.4-0.2,0.6-0.2c12.1-4.9,21.2-15.6,26.9-31.7
	l-5.9,3.3c-1.2,0.6-2.7,0.1-3.3-1.1c0,0,0,0,0-0.1c-0.7-1.2-0.3-2.7,0.9-3.5l12.2-6.8c0.7-0.4,1.5-0.4,2.2,0
	C310.6,429.4,311.1,430.2,311.3,431z"/>
<circle id="Ellipse_104" class="st4" cx="469.2" cy="345.9" r="11.5"/>
<g id="Group_1277" transform="translate(-6 -1982.083)">
	<g id="Group_1274" transform="translate(610.375 2238.5)">
		<g id="Group_1273" transform="translate(15.625 12.5)">
			<path id="Path_1335" class="st6" d="M-539-94c-4.1,4.1-9.6,6.4-15.4,6.2c-2.1,0-3.9-1.4-3.9-3.1c0-1.7,1.7-3.1,3.9-3.1
				c6.4,0,11.6-4.2,11.6-9.4c0-1.7,1.7-3.1,3.9-3.1c2.2,0,3.9,1.4,3.9,3.1c0,5.2,5.2,9.4,11.6,9.4c6.4,0,11.6-4.2,11.6-9.4
				c-0.2-1.7,1.5-3.1,3.6-3.1c2.1,0,3.9,1.4,3.9,3.1c0,5.2,5.2,9.4,11.6,9.4s11.6-4.2,11.6-9.4c-0.1-1.7,1.6-3.1,3.8-3.1
				c2.2,0,3.9,1.4,3.9,3.1c0,5.2,5.2,9.4,11.6,9.4c2.1,0,3.9,1.4,3.9,3.1c0,1.7-1.7,3.1-3.9,3.1c-5.9,0.2-11.5-2.1-15.5-6.2
				c-4.1,4.1-9.6,6.4-15.4,6.2c-5.8,0.1-11.4-2.1-15.4-6.2c-4.1,4.1-9.6,6.4-15.4,6.2C-529.4-87.6-535-89.9-539-94z"/>
		</g>
	</g>
	<g id="Group_1275" transform="translate(554.375 2270.5)">
		<g id="Group_1273-2" transform="translate(15.625 12.5)">
			<path id="Path_1335-2" class="st6" d="M-539-94c-4.1,4.1-9.6,6.4-15.4,6.2c-2.1,0-3.9-1.4-3.9-3.1c0-1.7,1.7-3.1,3.9-3.1
				c6.4,0,11.6-4.2,11.6-9.4c0-1.7,1.7-3.1,3.9-3.1c2.2,0,3.9,1.4,3.9,3.1c0,5.2,5.2,9.4,11.6,9.4c6.4,0,11.6-4.2,11.6-9.4
				c-0.2-1.7,1.5-3.1,3.6-3.1c2.1,0,3.9,1.4,3.9,3.1c0,5.2,5.2,9.4,11.6,9.4s11.6-4.2,11.6-9.4c-0.1-1.7,1.6-3.1,3.8-3.1
				c2.2,0,3.9,1.4,3.9,3.1c0,5.2,5.2,9.4,11.6,9.4c2.1,0,3.9,1.4,3.9,3.1c0,1.7-1.7,3.1-3.9,3.1c-5.9,0.2-11.5-2.1-15.5-6.2
				c-4.1,4.1-9.6,6.4-15.4,6.2c-5.8,0.1-11.4-2.1-15.4-6.2c-4.1,4.1-9.6,6.4-15.4,6.2C-529.4-87.6-535-89.9-539-94z"/>
		</g>
	</g>
	<g id="Group_1276" transform="translate(604.375 2302.5)">
		<g id="Group_1273-3" transform="translate(15.625 12.5)">
			<path id="Path_1335-3" class="st6" d="M-539-94c-4.1,4.1-9.6,6.4-15.4,6.2c-2.1,0-3.9-1.4-3.9-3.1c0-1.7,1.7-3.1,3.9-3.1
				c6.4,0,11.6-4.2,11.6-9.4c0-1.7,1.7-3.1,3.9-3.1c2.2,0,3.9,1.4,3.9,3.1c0,5.2,5.2,9.4,11.6,9.4c6.4,0,11.6-4.2,11.6-9.4
				c-0.2-1.7,1.5-3.1,3.6-3.1c2.1,0,3.9,1.4,3.9,3.1c0,5.2,5.2,9.4,11.6,9.4s11.6-4.2,11.6-9.4c-0.1-1.7,1.6-3.1,3.8-3.1
				c2.2,0,3.9,1.4,3.9,3.1c0,5.2,5.2,9.4,11.6,9.4c2.1,0,3.9,1.4,3.9,3.1c0,1.7-1.7,3.1-3.9,3.1c-5.9,0.2-11.5-2.1-15.5-6.2
				c-4.1,4.1-9.6,6.4-15.4,6.2c-5.8,0.1-11.4-2.1-15.4-6.2c-4.1,4.1-9.6,6.4-15.4,6.2C-529.4-87.6-535-89.9-539-94z"/>
		</g>
	</g>
</g>
<g id="Group_1278" transform="translate(561 -1723.083)">
	<g id="Group_1274-2" transform="translate(610.375 2238.5)">
		<g id="Group_1273-4" transform="translate(15.625 12.5)">
			<path id="Path_1335-4" class="st6" d="M-539-94c-4.1,4.1-9.6,6.4-15.4,6.2c-2.1,0-3.9-1.4-3.9-3.1c0-1.7,1.7-3.1,3.9-3.1
				c6.4,0,11.6-4.2,11.6-9.4c0-1.7,1.7-3.1,3.9-3.1c2.2,0,3.9,1.4,3.9,3.1c0,5.2,5.2,9.4,11.6,9.4c6.4,0,11.6-4.2,11.6-9.4
				c-0.2-1.7,1.5-3.1,3.6-3.1c2.1,0,3.9,1.4,3.9,3.1c0,5.2,5.2,9.4,11.6,9.4s11.6-4.2,11.6-9.4c-0.1-1.7,1.6-3.1,3.8-3.1
				c2.2,0,3.9,1.4,3.9,3.1c0,5.2,5.2,9.4,11.6,9.4c2.1,0,3.9,1.4,3.9,3.1c0,1.7-1.7,3.1-3.9,3.1c-5.9,0.2-11.5-2.1-15.5-6.2
				c-4.1,4.1-9.6,6.4-15.4,6.2c-5.8,0.1-11.4-2.1-15.4-6.2c-4.1,4.1-9.6,6.4-15.4,6.2C-529.4-87.6-535-89.9-539-94z"/>
		</g>
	</g>
	<g id="Group_1275-2" transform="translate(554.375 2270.5)">
		<g id="Group_1273-5" transform="translate(15.625 12.5)">
			<path id="Path_1335-5" class="st6" d="M-539-94c-4.1,4.1-9.6,6.4-15.4,6.2c-2.1,0-3.9-1.4-3.9-3.1c0-1.7,1.7-3.1,3.9-3.1
				c6.4,0,11.6-4.2,11.6-9.4c0-1.7,1.7-3.1,3.9-3.1c2.2,0,3.9,1.4,3.9,3.1c0,5.2,5.2,9.4,11.6,9.4c6.4,0,11.6-4.2,11.6-9.4
				c-0.2-1.7,1.5-3.1,3.6-3.1c2.1,0,3.9,1.4,3.9,3.1c0,5.2,5.2,9.4,11.6,9.4s11.6-4.2,11.6-9.4c-0.1-1.7,1.6-3.1,3.8-3.1
				c2.2,0,3.9,1.4,3.9,3.1c0,5.2,5.2,9.4,11.6,9.4c2.1,0,3.9,1.4,3.9,3.1c0,1.7-1.7,3.1-3.9,3.1c-5.9,0.2-11.5-2.1-15.5-6.2
				c-4.1,4.1-9.6,6.4-15.4,6.2c-5.8,0.1-11.4-2.1-15.4-6.2c-4.1,4.1-9.6,6.4-15.4,6.2C-529.4-87.6-535-89.9-539-94z"/>
		</g>
	</g>
</g>
<g>
	<path class="st3" d="M174,259.7c0.3,0,0.6,0,0.8,0c2.5,0.6,3.4,2.4,3.6,4.8c0.1,1,0.4,1.9,1.1,2.7c0.4,0.4,0.7,0.9,0.7,1.5
		c0,0.9,0.3,1.5,0.7,2.2c1.1,1.9,1.6,4,1.7,6.2c0,1.3,0.3,2.6,0.8,3.8c0.4,0.9,0.8,0.9,1.4,0.2c0.4-0.4,0.8-0.7,1.3-0.9
		c0.9-0.4,1.6-0.2,2,0.7c0.7,1.5,1.8,2.4,3,3.4c0.9,0.7,1.4,1.7,1.4,2.9c0,2.3,0.4,4.6,1.1,6.8c0.2,0.9,0.7,1.6,1.3,2.2
		c0.7,0.6,1.1,1.4,1.3,2.3c0.5,1.8,1,3.5,0.9,5.4c0,0.5,0.2,0.8,0.5,1.1c0.5,0.6,0.7,1.3,0.7,2c0,0.5,0,1,0.2,1.5
		c0.3,1.3,0.3,1.3,1.7,1.5c0.7,0.1,1.4,0.5,1.9,1c0.4,0.4,0.9,0.7,1.5,0.7c0.7,0.1,1.3,0.5,1.7,1.1s0.7,1,1.4,1.1
		c0.6,0.1,1.1,0.7,1.6,1c1.2,0.8,2.7,1,3.7,2c0.6,0.7,1,1.3,0.9,2.3s0.4,1.9,0.9,2.8c0.4,0.7,0.8,1.3,1.3,2c0.8,1.1,1.4,2.3,1.7,3.7
		c0.1,0.5,0.2,1,0.6,1.5c0.4-0.5,0.9-0.9,1.6-0.8c0.7,0.1,1.1,0.6,1.5,1.1c0.3,0.3,0.6,0.4,0.9,0.4c1.9-0.1,2.7,0.7,2.8,2.5
		c0,1,0,2,0.2,3.1c0.1,0.6,0.3,1.1,0.9,1.3c0.9,0.3,1.4,0.9,1.7,1.8c0.2,0.9,0.7,1.5,1.7,1.8c1.1,0.3,1.9,0.9,2.2,2.1
		c0.2,0.8,1,1.4,1.5,2c0.7,0.7,1.3,1.5,1.7,2.4c0.2,0.5,0.6,0.9,1.2,0.7c0.6-0.2,0.7-0.6,0.7-1.2c0-0.1,0-0.1,0-0.2
		c0-1,0.3-1.6,1-1.7s1.4,0.6,1.5,1.5c0.2,1.4,0.1,2.8-0.7,3.9c-0.5,0.7-0.7,1.6-0.7,2.4c0,2.5,0.1,5,0.8,7.4c0,0.1,0,0.3,0.1,0.4
		c0.1,0.4,0.8,1.4,1.2,1.5c0.6,0.2,0.8,0.7,0.7,1.2c-0.6,2,0,3.9,0.4,5.8c0.3,1.6,0,3.2-0.7,4.8c-0.4,0.9-0.6,1.8-0.7,2.7
		c-0.2,2.5-1.1,4.8-1.7,7.3c-0.1,0.6-0.2,1.1-0.2,1.7c0.1,2.9-0.8,5.5-2.3,7.9c-0.2,0.2-0.2,0.5-0.3,0.7c-0.5,2.4-1.6,4.3-3.7,5.5
		c-0.8,0.4-1.1,1.2-1.5,1.9c-0.8,1.5-1.7,3.1-2,4.8c-0.1,0.6-0.5,1.2-0.9,1.7c-1.2,1.4-1.8,3-1.7,4.9c0.1,1.2-0.4,2.1-1.3,2.9
		c-0.9,0.7-1.3,1.9-1.7,3c-1.2,3.3-2,6.7-2,10.2c0,1.1,0,2.3-0.7,3.3c-1.1,1.7-2.9,2.1-4.7,2.2c-1.8,0.2-3.6,0.4-5.3,0.7
		c-1.6,0.3-3.1,1-4.3,2.2c-1.5,1.5-2.9,3.1-4.6,4.4c-0.4,0.3-0.5,0.7-0.6,1.2c-0.3,1.2-1.5,1.6-2.3,0.6c-0.5-0.5-0.9-0.9-1.7-0.9
		c-0.4,0-0.7-0.3-0.9-0.6c-0.7-1.3-2-1.7-3.4-2.1c-0.4-0.1-0.9-0.2-1.4-0.3c-1.3-0.3-1.7-1.3-0.9-2.4c0.2-0.3,0.5-0.5,0.6-0.9
		c0-0.1-0.1-0.1-0.2-0.1c-0.4,1.2-1.2,1.9-2.4,2.4s-2.2,1.4-3.1,2.3c-1.3,1.2-2.1,1.3-3.7,0.6c-1.5-0.7-3-1.3-4.5-2.2
		c-1.1-0.7-2.5-0.6-3.7-1.1c-0.2-0.1-0.4,0-0.6,0.2c-1.1,0.7-2,0.4-2.9-0.3c-1-0.8-2-1.5-3.3-1.8c-1-0.2-1.8-0.9-2.4-1.8
		c-0.7-1-1.5-2-2.4-3c-1.1-1.4-1.7-2.9-1.1-4.7c0.2-0.5,0.2-1.1,0.1-1.6c-0.7-2.5-1.8-4.6-4-6.1c-0.6-0.4-1.2-0.6-1.9-0.3
		c-0.2,0.1-0.3,0.1-0.5,0.1c-0.9,0.1-1.8,0.2-2.3-0.7c-0.6-0.9,0-1.7,0.5-2.3c1-1.3,0.7-2.7,0.2-4.1c-0.2-0.5-0.3-1.4-0.9-1.3
		c-0.6,0-0.5,0.9-0.6,1.4c-0.2,0.8-0.3,1.6-0.6,2.3c-0.3,0.8-0.8,1.3-1.7,1.3c-0.9,0.1-1.9,0.3-2.7,0.6c-0.4,0.2-0.8,0.2-1.3,0.2
		c-0.8-0.1-1.3-0.8-1.1-1.6c0.4-1.2,0.9-2.3,2.3-2.6c0.8-0.2,1.1-0.7,1.1-1.4c0-1.3,0.2-2.6,0.4-3.9c0.1-0.3,0.1-0.7,0.3-0.9
		c1.3-1.8,1.5-3.9,2-5.8c-1,0.8-1.5,2.2-2,3.5c-0.4,1.1-1.3,1.9-2.4,2.2c-2.4,0.9-3.6,2.8-4.9,4.8c-0.2,0.3-0.2,0.7-0.1,1.1
		c0.1,0.4,0.3,0.7,0.4,1c0.2,0.5,0.2,1-0.2,1.4s-0.9,0.5-1.3,0.3c-1.8-0.8-3.8-1.5-5-3.3c-0.5-0.7-0.7-1.5,0-2.2
		c0.4-0.4,0.3-0.9,0.2-1.3c-0.2-0.7-0.6-1.4-1.1-2c-0.6-0.8-1.3-1.6-1.5-2.7c-0.1-0.5-0.5-0.8-0.9-0.9c-0.2-0.1-0.5-0.2-0.7-0.2
		c-1.6-0.6-2.1-1.4-1.9-3c0.2-1.5-0.7-2.9-2.2-3.2c-1.9-0.3-3.6-0.7-5.2-1.8c-0.4-0.2-0.9-0.4-1.3-0.2c-1.2,0.4-2.2,0-3.2-0.6
		c-0.5-0.4-1.1-0.6-1.6-1c-1.5-1.2-3.1-1.5-5-1.2c-2.2,0.4-4.6,0.3-6.9,0.6c-2,0.2-3.8,0.6-5.6,1.6c-2.7,1.5-5.6,2.2-8.6,2.6
		c-1.5,0.2-3,0.2-4.6,0.2c-1.3,0-2.4,0.4-3.5,1.1c-2.3,1.5-4.6,2.9-7.3,3.5c-0.8,0.2-1.2,0.7-1.5,1.5c-0.5,1.3-1,2.6-2,3.6
		c-1,1.1-2.3,1.6-3.7,1.7c-1.9,0.1-3.7,0-5.6-0.2c-2.6-0.3-5.2-0.2-7.8,0c-1,0.1-2,0.1-3,0.1c-0.9,0-1.7,0.2-2.5,0.6
		c-0.6,0.2-1.2,0.6-1.4,1.3c-0.4,1.3-1.4,1.8-2.6,1.9c-1.8,0.1-3.2,1-4,2.6c-0.1,0.2-0.2,0.4-0.5,0.5c-1.4,0.4-2.6,1.6-4.3,1.3
		c-2-0.3-4,0-5.9-0.4c-2.1-0.4-3.9-1.3-5.2-3c-0.8-0.9-1.7-1.6-3-1.9c-1.7-0.4-2-0.7-2.2-2.4c-0.1-1.1-0.1-2.2,0-3.3
		c0.1-0.9,0.6-1.3,1.5-1.3c1.1,0,1.5-0.3,1.9-1.3c0.2-0.7,0.4-1.4,0.2-2.2c-0.2-1.3-0.2-2.6,0.2-3.8c0.6-2,0.3-4.2-0.7-6
		c-1.7-3.2-2.8-6.5-3.3-10.1c-0.2-1.3-0.2-2.7-0.5-3.9c-0.7-2.4-1.6-4.8-3.2-6.8c-0.8-1-1.4-2.1-1.4-3.3c0-3-1.5-5.3-3.2-7.4
		c-0.4-0.4-0.6-0.9-1-1.3c-1.1-1.3-1.6-2.8-1.8-4.5c0-0.3,0-0.7,0-1c0.7-0.7,1.3-0.7,1.7,0.2c0.7,1.3,1.7,2.4,2.4,3.7
		c-0.5-0.9-1.3-1.7-1.7-2.9c-0.3-0.9-0.1-1.5,0.5-1.9c0.6-0.3,1.3,0,1.9,0.6c0.2,0.3,0.4,0.6,0.5,0.9c0.4,0.9,0.4,0.9,1.3,1.6
		c0.2-0.6,0-1-0.3-1.4c-1.3-2.3-2.4-4.7-3.6-7.1c-0.9-1.9-0.7-3.8,0.2-5.7c0.4-0.9,0.7-1.8,1-2.7c0.3-1,0.5-2.1,0.1-3.1
		c-0.4-0.9-0.3-1.8,0-2.6c0.4-1.3,1-2.6,1.7-3.7c0.4-0.5,0.7-1,1.5-0.8c0.7,0.2,0.8,0.9,0.8,1.5c0,0.3,0,0.7-0.1,1
		c0.5-1.7,1.8-2.5,3.2-3.2c1.9-0.9,3.6-1.9,5.2-3.2c1.6-1.3,3.3-2.4,4.7-3.9c0.8-0.8,1.9-0.8,2.7-0.2c1.5,1.1,3.4,1.2,4.7,0
		c1.1-1,2.3-1.4,3.7-1.5c0.8,0,1.4-0.2,1.9-0.9c0.6-0.9,1.6-1,2.6-1c2.8,0,5.5-0.7,8.1-1.8c2.4-1.1,3.9-2.9,4.8-5.3
		c0.4-1,0.9-1.9,2-2.3c0.3-0.1,0.6-0.3,0.9-0.5c1-0.6,1-0.9,0.6-2c-0.6-1.5-0.8-3.2,0-4.7s1.9-2.9,3.1-4.1c0.6-0.6,1.4-0.9,2.3-0.9
		c0.7,0,1.3,0.5,1,1.2c-0.5,1.4,0.8,2,1.2,3c0.1,0.2,0.3,0.2,0.4,0c0.2-0.2,0.2-0.4,0.1-0.6c-0.2-0.3-0.5-0.5-0.7-0.7
		c-0.6-0.4-0.8-1-0.5-1.7c0.2-0.4,0.2-0.7-0.1-1.2c-0.6-0.8-0.2-1.8,0.8-2.1c0.3-0.1,0.6-0.1,0.9,0c1.2,0.5,2.6,0.4,3.9,1
		c0.2-1.1,0-2.3,0.1-3.4c0-1.5,0.2-1.9,1.7-2.3c0.8-0.2,1-1,1.6-1.4c0.7-0.5,0.7-1.1,0.7-1.9c0-1.6,0.4-2,1.9-1.6
		c0.6,0.1,0.6-0.2,0.7-0.6c0.6-1.1,1.5-1.3,2.5-0.7c0.1-0.2,0-0.4,0.1-0.6c0.3-1,1.2-1.4,2.1-0.7c1,0.7,1.4,0.7,2.2-0.3
		c0.2-0.3,0.5-0.6,0.9-0.8c0.6-0.4,1.3-0.6,1.8-0.2c0.8,0.7,1.9,0.9,2.7,1.7c1.4,1.3,2.8,2.7,3.9,4.3c0.3,0.4,0.5,0.5,0.9,0.3
		c0.7-0.4,1.5-0.3,2.3-0.1c0.9,0.3,1.8,0.2,2.7,0.2c0.6,0,0.8-0.2,0.5-0.9c-0.8-1.6-0.7-2.1,0.6-3.4c0.5-0.6,0.9-1.1,1.1-1.9
		c0.2-0.8,0.6-1.5,1.5-1.8c0.4-0.2,0.6-0.4,0.5-0.8c-0.3-0.9,0.1-1.6,0.6-2.2c1.2-1.2,2.1-2.6,3.5-3.6c1.3-0.9,2.7-1.2,4.3-0.7
		c1.3,0.4,2.6,0.1,3.8-0.4c0.5-0.2,0.9-0.5,1.4-0.7c0.6-0.2,0.5-0.6,0.2-1c-0.3-0.3-0.7-0.4-1.1-0.4c-0.8-0.2-1.6-0.5-2.1-1.2
		c-0.4-0.5-0.6-1.1-0.3-1.7c0.2-0.6,0.7-0.9,1.4-1c0.9,0,1.7-0.2,2.5-0.4c0.8-0.3,1.4,0,1.7,0.8c0.2,0.6,0.5,0.9,1.1,0.8
		c0.5,0,0.9,0.3,1.3,0.7c0.8,1.1,1.9,1.6,3.3,1.5c0.8-0.1,1.5,0,2.2,0.6c0.9,0.7,2,0.9,3.1,0.8c0.9-0.1,1.7-0.1,2.4,0.6
		c0.4,0.4,0.8,0.4,1.2,0.1c0.8-0.4,1.5-0.5,2.4-0.1c0.7,0.3,1.4,0.3,2.1,0c0.7-0.3,1.5-0.4,2.2-0.7c0.4-0.2,0.8-0.1,1,0.2
		c0.4,0.6,1.1,0.7,1.7,1.1c1.2,0.6,1.4,1.8,0.5,2.8c-0.6,0.6-0.9,1.3-1.1,2.1c-0.1,0.5-0.2,1-0.5,1.5c-0.5,0.8-1.1,1.4-2.2,1.4
		c-0.3,0-0.7,0-1,0.1c-0.6,0.1-0.8,0.4-0.5,1c0.7,1.3,0.5,2.4-0.3,3.5c-0.6,1-1.4,1.9-2,2.8c-0.4,0.7-0.4,1.1,0.3,1.6
		c1.2,0.8,2.4,1.5,3.5,2.5c0.2,0.1,0.4,0.3,0.6,0.2c0.9-0.5,1.8,0.2,2.7,0.2s1.5,0.8,1.7,1.6c0.2,0.6,0.6,1.1,1.1,1.5
		c1.5,0.9,2.9,2,4.3,3.1c0.8,0.6,1.8,1.1,2.8,1.2c1.6,0.2,2.7,1.1,3.6,2.3c1.3,1.7,3.2,2.6,5.2,3c1.4,0.3,3-0.9,3.3-2.3
		c0.2-0.7,0.4-1.3,0.9-1.9c1.1-1.4,1.6-3.1,1.9-4.8c0.4-2.3,1.1-4.5,1.1-6.9c0-1.7,0-3.5-0.4-5.2c-0.1-0.5-0.2-0.9-0.1-1.4
		c0.6-1.9,0.7-3.8,1.1-5.6c0.2-0.7,0.4-1.3,0-2c-0.2-0.5-0.1-1,0.2-1.4c1.8-2.8,2.3-6,3.1-9.1C173.4,260.2,173.6,259.9,174,259.7z"
		/>
	<path class="st3" d="M209.5,462.1c0,1.1,0.2,2.5-0.1,3.9c-0.1,0.6-0.1,1.3-1.1,1.3c-0.4,0-0.3,0.4-0.3,0.6c0,1.3,0.1,2.5-0.5,3.7
		c-0.3,0.6,0,1.4,0,2s0.2,1.2-0.5,1.5c-0.6,0.2-1.3,0-1.7-0.6c-0.2-0.2-0.3-0.7-0.7-0.6c-0.4,0.1-0.2,0.6-0.4,0.8
		c-0.3,0.6-0.4,1.1-0.3,1.7c0.2,0.7-0.4,1-0.9,0.8c-0.7-0.2-1.1,0-1.7,0.3c-1.5,1-4.5,0.8-5.5-0.6c-1.5-1.9-3.2-3.7-4.1-6
		c-0.5-1.3-0.9-2.6-0.9-4.1c0-1.1-0.4-2.2-1.1-3.2c-1.7-2.9-2.8-6-1.9-9.5c0.1-0.2,0.2-0.4,0.2-0.7c0.2-0.4,0.5-0.7,1-0.6
		c0.5,0.1,0.8,0.4,0.7,0.9c0,0.6,0.4,0.9,0.8,1.1c1.3,0.5,2.5,1.3,3.7,2.1c1.9,1.2,3.8,1.5,5.8,0.6c0.4-0.2,0.9-0.3,1.4-0.4
		c1.6-0.2,3.1-0.9,4.6-1.4s2.4,0,2.8,1.6C209.5,458.9,209.3,460.4,209.5,462.1z"/>
	<path class="st3" d="M149.3,420.3c-0.5-0.1-0.9,0-1.3,0.3c-1.9,1.4-3.9,1.1-5.9,0.4c-0.5-0.2-0.7-0.6-0.8-1.2
		c0-0.6,0.3-0.9,0.8-1.2c1.6-0.7,3.4-0.9,5.1-1.2c0.4-0.1,0.7,0.2,0.7,0.5c0.1,0.7,0.4,0.7,1,0.6c0.9-0.2,1.4,0.4,1.6,1.1
		C150.6,420.7,149.7,420.3,149.3,420.3z"/>
	<path class="st3" d="M209.5,450.6c0,0.2-0.1,0.5-0.2,0.7c-0.2,0.4-0.2,0.6,0.2,0.7c0.5,0.2,0.5,0.7,0.4,1.2c-0.2,0.7-0.7,1-1.4,1.1
		c-0.6,0.1-1-0.2-1.2-0.7c-0.3-0.6-0.4-1.3-0.4-2c0-0.4-0.2-0.8-0.7-0.8c-0.6,0-0.7-0.3-0.5-0.9c0.4-0.7,0.1-1.6,0.4-2.3
		c0.2-0.4,0.2-0.9,0.8-0.9c0.5,0,0.7,0.4,0.8,0.8c0.3,0.7,0.5,1.5,1.4,1.8C209.5,449.6,209.5,450.1,209.5,450.6z"/>
	<path class="st3" d="M185,449c0.1,0.6,0,1.1-0.1,1.6c-0.1,0.4-0.3,0.6-0.7,0.6s-0.6-0.1-0.8-0.4c-0.3-0.5-0.4-1-0.3-1.5
		c0.1-0.6,0.3-1.3,0.2-2c0-0.4,0.2-0.6,0.6-0.7c0.4-0.1,0.6,0.2,0.8,0.5C185.1,447.6,185,448.4,185,449z"/>
</g>
</svg>
