<svg id="Layer_1" data-name="Layer 1" xmlns="http://www.w3.org/2000/svg" viewBox="0 0 562.21 614.4"><defs><style>.cls-1{fill:#42a1ca;}</style></defs><path class="cls-1" d="M330.59,223.33c34.7,0,67.9,7.7,100.2,20.1a259.43,259.43,0,0,1,74.1,43.5c1.7,1.4,4.7,2.7,3.7,5.3-.8,2.2-3.8,1.4-5.8,1.7-18.9,2.6-35.3,10.7-50,22.5-17.3,14-30.7,31.5-44.3,48.8s-26.6,35.3-44.8,48.3c-31.8,22.9-66.4,26.3-101.8,10.6-34.9-15.4-55.1-43.1-60.5-81-6.4-44.6,19.7-89.4,60-107.3C283.49,226.13,306.79,223.33,330.59,223.33Z"/><path class="cls-1" d="M105.49,326.63c-33.6.2-65-29.5-65.2-64.4-.1-27.4,13.9-52.1,42.2-63.7,22.9-9.4,46.6-11.8,71.1-9.4,26.3,2.6,51.2,9.7,74,23.4,1.6,1,4.3,1.4,4.3,3.5.1,2.5-2.8,2.3-4.5,2.9-17.6,6.5-29.9,18.9-40,34.4-9.2,14.1-16.1,29.4-25.9,43.1C148.29,315.23,130.29,325.63,105.49,326.63Z"/><path class="cls-1" d="M162,364.83c-.2,25.8-7.4,48.2-22.8,67.7-18.2,23.2-50.4,22.9-67.4-.6-16-22-3.9-55.2,22.4-62.1,11.6-3,23.4-3.6,35.1-5.7,10.4-1.9,19.8-5.9,27.3-13.5,3.1-3.1,4.3-1.8,4.7,1.5C161.79,356.83,161.89,361.33,162,364.83Z"/></svg>
